<svg xmlns="http://www.w3.org/2000/svg" xmlns:xlink="http://www.w3.org/1999/xlink" width="182.744" height="221.227" viewBox="0 0 182.744 221.227">
  <defs>
    <clipPath id="clip-path">
      <ellipse id="Elipse_4283" data-name="Elipse 4283" cx="91.372" cy="110.614" rx="91.372" ry="110.614" transform="translate(1453.425 559.225)" fill="none"/>
    </clipPath>
  </defs>
  <g id="Grupo_58834" data-name="Grupo 58834" transform="translate(3842.688 -2259.772)">
    <g id="Grupo_58796" data-name="Grupo 58796" transform="translate(-5296.113 1700.547)">
      <circle id="Elipse_4282" data-name="Elipse 4282" cx="82.578" cy="82.578" r="82.578" transform="translate(1461.632 615.297)" fill="#cbc5e0"/>
      <g id="Grupo_58609" data-name="Grupo 58609">
        <g id="Grupo_58608" data-name="Grupo 58608" clip-path="url(#clip-path)">
          <g id="Group_12956" data-name="Group 12956">
            <g id="Group_12949" data-name="Group 12949">
              <g id="Group_12944" data-name="Group 12944">
                <path id="Path_18587" data-name="Path 18587" d="M1567.419,715.814c-9.435-5.147-6.862-30.023-6.862-30.023l-14.13.91v-.907l-1.512.453-1.512-.453v.907l-14.13-.91s2.573,24.877-6.862,30.023-65.187,7.72-59.183,65.187H1626.6C1632.606,723.534,1576.854,720.96,1567.419,715.814Z" fill="#ffac9d"/>
                <path id="Path_18588" data-name="Path 18588" d="M1527.292,709.4q16.929-2.524,33.837-5.207a75.4,75.4,0,0,1-.572-18.4l-14.13.91v-.907l-1.512.453-1.512-.453v.907l-14.131-.91S1530.763,700.245,1527.292,709.4Z" fill="#cc887f"/>
              </g>
              <g id="Group_12948" data-name="Group 12948">
                <g id="Group_12945" data-name="Group 12945">
                  <path id="Path_18589" data-name="Path 18589" d="M1576.365,718.672c-8.377,4.893-19.536,7.881-31.791,7.881-12.149,0-23.223-2.935-31.575-7.754-18.672,5.031-54.654,15.453-49.77,62.2H1626.6C1631.528,733.856,1594.894,723.658,1576.365,718.672Z" fill="#7aa8ce"/>
                  <path id="Path_18590" data-name="Path 18590" d="M1614.845,738.394c-7.5,3.6-15.8,4.822-24.018,7.377q-17.433,5.418-34.984,10.439c-23.452,6.716-47.015,13.036-70.573,19.364q-10.08,2.706-20.152,5.424H1626.6C1628.7,760.894,1623.233,747.524,1614.845,738.394Z" fill="#6f96bd"/>
                </g>
                <g id="Group_12947" data-name="Group 12947">
                  <g id="Group_12946" data-name="Group 12946">
                    <path id="Path_18591" data-name="Path 18591" d="M1506.424,720.657c-19.386,5.846-47.554,18.632-43.2,60.344H1529.8Z" fill="#ffa65b"/>
                    <path id="Path_18592" data-name="Path 18592" d="M1582.934,720.516,1572.316,781H1626.6C1630.995,738.948,1602.331,726.3,1582.934,720.516Z" fill="#ffa65b"/>
                  </g>
                  <path id="Path_18593" data-name="Path 18593" d="M1523.945,781h5.855l-23.376-60.344a95.155,95.155,0,0,0-16,6.273Z" fill="#d68950"/>
                  <path id="Path_18594" data-name="Path 18594" d="M1582.934,720.516,1572.316,781h4.883l28-50.713C1597.869,725.5,1589.82,722.568,1582.934,720.516Z" fill="#d68950"/>
                </g>
              </g>
            </g>
            <g id="Group_12955" data-name="Group 12955">
              <g id="Group_12950" data-name="Group 12950">
                <path id="Path_18595" data-name="Path 18595" d="M1517.288,649.376c-2.78-8.624-9.363-6.627-9.979-6.419-.646.075-7.45,1.086-6.275,10.07,1.182,9.039,6.427,13.937,11.344,12.5C1517.44,664.719,1520.085,658.051,1517.288,649.376Z" fill="#cc887f"/>
                <path id="Path_18596" data-name="Path 18596" d="M1572.8,649.376c2.78-8.624,9.363-6.627,9.979-6.419.646.075,7.451,1.086,6.275,10.07-1.182,9.039-6.426,13.937-11.344,12.5C1572.645,664.719,1570,658.051,1572.8,649.376Z" fill="#cc887f"/>
                <path id="Path_18597" data-name="Path 18597" d="M1510.544,636.311c3.445-37.809,32.189-35.691,34.9-35.406,2.711-.285,31.455-2.4,34.9,35.406,3.465,38.036-13.476,62.876-34.9,61.51C1524.02,699.186,1507.079,674.346,1510.544,636.311Z" fill="#ffac9d"/>
              </g>
              <g id="Group_12951" data-name="Group 12951">
                <path id="Path_18598" data-name="Path 18598" d="M1550.4,654.1l2.346,11.18-4.348,4.507" fill="none" stroke="#cc887f" stroke-miterlimit="10" stroke-width="1.661"/>
                <path id="Path_18599" data-name="Path 18599" d="M1560.1,676.581c-6.843,6.652-18.435,6.283-27.215.355" fill="#fff"/>
                <path id="Path_18600" data-name="Path 18600" d="M1572.55,641.281s-9.013-11.017-18.028-.751" fill="none" stroke="#352c38" stroke-miterlimit="10" stroke-width="2.701"/>
                <path id="Path_18601" data-name="Path 18601" d="M1536.745,641.281s-9.013-11.017-18.028-.751" fill="none" stroke="#352c38" stroke-miterlimit="10" stroke-width="2.701"/>
                <path id="Path_18602" data-name="Path 18602" d="M1535.609,654.984s-.518-7.265-6.746-6.746c-5.229.436-4.671,6.746-4.671,6.746" fill="none" stroke="#352c38" stroke-miterlimit="10" stroke-width="1.195"/>
                <path id="Path_18603" data-name="Path 18603" d="M1567.785,654.463s-.519-7.266-6.746-6.746c-5.229.436-4.671,6.746-4.671,6.746" fill="none" stroke="#352c38" stroke-miterlimit="10" stroke-width="1.195"/>
              </g>
              <g id="Group_12954" data-name="Group 12954">
                <path id="Path_18604" data-name="Path 18604" d="M1493.776,641.979c1.62-1.394,3.719-2.936,5.112-5.459a17.06,17.06,0,0,0,.884-1.984c.168-.71.4-1.433.521-2.178.081-.746.209-1.507.235-2.285q0-1.17.01-2.374-.093-1.15-.188-2.33l-.048-.592a1.4,1.4,0,0,1,0-.224v-.283c.011-.385.029-.776.053-1.17a43.091,43.091,0,0,1,.553-4.791,24.282,24.282,0,0,1,1.284-4.721,9.9,9.9,0,0,1,.5-1.1,7.271,7.271,0,0,1,.572-1l.289-.457.427-.5.216-.248.055-.062.007-.009.088-.08.485-.447a16.757,16.757,0,0,1,2.727-1.9q-.025-1.234,0-2.474a19.8,19.8,0,0,0-4.192,2.8l-.482.452-.12.112-.108.113-.08.095-.215.25-.426.5-.426.642a9.158,9.158,0,0,0-.7,1.278,12.169,12.169,0,0,0-.543,1.278,26.177,26.177,0,0,0-1.285,5.15,39.147,39.147,0,0,0-.453,5.034c-.01.413-.014.824-.011,1.237l.007.315c0,.05.018.357.021.372l.07.59q.138,1.176.273,2.321c.178,2.911.037,5.823-1.13,8.073a20.748,20.748,0,0,1-4.539,5.438,20.335,20.335,0,0,0-3.606,4.425,12.54,12.54,0,0,0-.953,1.883,9.665,9.665,0,0,0-.538,1.456l-.393,1.227.505-1.184a16.849,16.849,0,0,1,1.743-3.148A19.706,19.706,0,0,1,1493.776,641.979Z" fill="#352c38" opacity="0.3" style="isolation: isolate"/>
                <g id="Group_12953" data-name="Group 12953">
                  <path id="Path_18605" data-name="Path 18605" d="M1564.968,603.824s12.606.37,16.685,15.943-.372,18.54-.372,31.146c0,0,0,7.786-1.853,10.382l-2.6-25.584S1559.406,626.441,1564.968,603.824Z" fill="#965450"/>
                  <g id="Group_12952" data-name="Group 12952">
                    <path id="Path_18606" data-name="Path 18606" d="M1542.225,582.957a19.977,19.977,0,0,0-6.751,0,14.162,14.162,0,0,0-4.7,1.725,15.9,15.9,0,0,0-3.957,3.393c-2.3,2.652-4.027,5.692-6.111,8.407a20.7,20.7,0,0,1-7.677,6.5c-.776.386-1.511.652-2.393.993a27.2,27.2,0,0,0-2.535,1.062,20.435,20.435,0,0,0-4.729,3.076l-.482.452-.12.112-.108.113-.027.032-.053.062-.215.25-.426.5-.426.642a9.155,9.155,0,0,0-.7,1.278,12.138,12.138,0,0,0-.543,1.278,26.178,26.178,0,0,0-1.285,5.15,39.126,39.126,0,0,0-.453,5.034c-.01.413-.014.824-.011,1.237l.007.315c0,.05.018.357.021.372l.07.59q.138,1.176.273,2.321c.178,2.911.037,5.823-1.13,8.073a20.747,20.747,0,0,1-4.539,5.438,20.343,20.343,0,0,0-3.606,4.425,12.558,12.558,0,0,0-.953,1.883,9.656,9.656,0,0,0-.538,1.456l-.393,1.227.505-1.184a16.88,16.88,0,0,1,1.743-3.148,19.71,19.71,0,0,1,3.8-4.05c1.62-1.394,3.719-2.936,5.112-5.459a17.1,17.1,0,0,0,.884-1.984c.168-.71.4-1.433.521-2.178.081-.746.209-1.507.235-2.285q0-1.17.01-2.374-.093-1.15-.188-2.33l-.048-.592a1.4,1.4,0,0,1,0-.224v-.283c.011-.385.029-.776.053-1.17a43.3,43.3,0,0,1,.553-4.791,24.282,24.282,0,0,1,1.284-4.721,9.9,9.9,0,0,1,.5-1.1,7.28,7.28,0,0,1,.572-1l.289-.457.427-.5.216-.248.055-.062.007-.009.088-.08.485-.447a17.277,17.277,0,0,1,3.129-2.128c-.513.328-1,.665-1.448,1.014-.235.177-.463.364-.687.557-.085.073-.177.146-.259.22q-.45.409-.864.864c-4.03,4.309-3.555,15.2-3.506,15.479,2.966,17.057-7.415,13.72-10.752,25.956s13.174,20.177,9.269,24.472c-7.416,8.157-11.124-2.6-11.124-2.6-1.483,6.3,5.191,15.573,13.348,14.461,7.721-1.052,16.1-7.092,13.2-19.682l.026.061.863,2.063c.258.651.573,1.29.789,1.953l.607,2,.4,2.042c.041.684.141,1.375.143,2.062a14.741,14.741,0,0,1-.149,2.056,10.615,10.615,0,0,1-.463,2.008,11.667,11.667,0,0,1-.76,1.929,13.122,13.122,0,0,1-2.455,3.4,15.947,15.947,0,0,1-3.37,2.662,20.537,20.537,0,0,1-3.98,1.829,19.423,19.423,0,0,0,4.251-1.309,16.4,16.4,0,0,0,3.832-2.388,14.383,14.383,0,0,0,3.022-3.465,12.313,12.313,0,0,0,1.05-2.087,12.119,12.119,0,0,0,.693-2.243,16.708,16.708,0,0,0,.341-2.325c.053-.781.006-1.561.008-2.346-.078-.773-.187-1.544-.3-2.317-.167-.754-.367-1.5-.554-2.254s-.5-1.452-.75-2.181l-.733-2.051c-.118-.344-.259-.7-.359-1.033l-.208-.944a9,9,0,0,1-.261-1.863,4.749,4.749,0,0,1,1.081-3.151c.744-.963,1.9-1.9,2.978-3.044a18.009,18.009,0,0,0,1.561-1.83,14.444,14.444,0,0,0,1.264-2.118l.533-1.116.38-1.16c.117-.388.266-.775.353-1.166l.217-1.179.213-1.179.082-1.172.139-2.236.121-2.2a16.276,16.276,0,0,1,.168-2.15,30.16,30.16,0,0,1,.736-4.066,16.773,16.773,0,0,1,.557-2l.68-1.838.666-.967.835-.951c.318-.269.621-.56.944-.822.355-.221.689-.475,1.055-.684.386-.175.756-.382,1.153-.542l1.236-.408,1.3-.273c.442-.071.9-.1,1.349-.152l2.972-.326,1.465-.172c.494-.072,1.013-.215,1.517-.319,1.007-.253,2.048-.4,3.014-.747l2.893-1.031.375-.19a22.857,22.857,0,0,0,17.784-16.1C1568.6,599.3,1559.081,584.144,1542.225,582.957ZM1520.818,652a12.985,12.985,0,0,1-2.239,3.234c-.9,1.032-2.037,1.982-3.072,3.374a7.483,7.483,0,0,0-.7,1.123,5.117,5.117,0,0,0-.521,1.27l-.2.663-.069.674a6.089,6.089,0,0,0-.05,1.328l.053.519c-2.026-8.607,3.6-8.1,7.352-13.491l-.131.427Z" fill="#76413b"/>
                    <path id="Path_18607" data-name="Path 18607" d="M1517.237,635.608a45.127,45.127,0,0,1-9.68-27.766c-.36.241-.724.482-1.048.734-.235.177-.463.364-.687.557-.085.073-.177.146-.259.22q-.45.409-.864.864c-4.03,4.309-3.555,15.2-3.506,15.479,2.967,17.057-7.415,13.72-10.752,25.956s13.174,20.177,9.269,24.472c-7.416,8.157-11.124-2.6-11.124-2.6-1.483,6.3,5.191,15.573,13.348,14.461,7.721-1.052,16.1-7.092,13.2-19.682l.026.061.863,2.063c.258.651.573,1.29.789,1.953l.607,2,.4,2.042c.041.684.141,1.375.143,2.062a14.741,14.741,0,0,1-.149,2.056,10.632,10.632,0,0,1-.463,2.008,11.7,11.7,0,0,1-.76,1.929,13.122,13.122,0,0,1-2.455,3.4,15.947,15.947,0,0,1-3.37,2.662,20.537,20.537,0,0,1-3.98,1.829,19.476,19.476,0,0,0,4.251-1.309,16.405,16.405,0,0,0,3.832-2.388,14.383,14.383,0,0,0,3.022-3.465,12.35,12.35,0,0,0,1.05-2.087,12.128,12.128,0,0,0,.693-2.243,16.726,16.726,0,0,0,.341-2.325c.053-.781.006-1.561.008-2.346-.078-.773-.187-1.544-.3-2.317-.167-.754-.367-1.5-.553-2.254s-.5-1.452-.75-2.181l-.733-2.051c-.118-.344-.259-.7-.36-1.033l-.208-.944a8.945,8.945,0,0,1-.26-1.863,4.738,4.738,0,0,1,1.081-3.151c.744-.963,1.9-1.9,2.978-3.044a18.262,18.262,0,0,0,1.561-1.83,14.618,14.618,0,0,0,1.264-2.118l.533-1.116.38-1.16c.117-.388.265-.775.353-1.166l.217-1.179.212-1.179.082-1.172.136-2.182A59.106,59.106,0,0,1,1517.237,635.608Zm3.994,15.511-.414.878a12.986,12.986,0,0,1-2.239,3.234c-.9,1.032-2.037,1.982-3.072,3.374a7.474,7.474,0,0,0-.7,1.123,5.115,5.115,0,0,0-.521,1.27l-.2.663-.069.674a6.081,6.081,0,0,0-.05,1.328l.053.519c-2.026-8.607,3.6-8.1,7.352-13.491Z" fill="#352c38" opacity="0.3" style="isolation: isolate"/>
                  </g>
                </g>
              </g>
            </g>
          </g>
        </g>
      </g>
    </g>
  </g>
</svg>
