<svg xmlns="http://www.w3.org/2000/svg" xmlns:xlink="http://www.w3.org/1999/xlink" width="91.928" height="91.927" viewBox="0 0 91.928 91.927">
  <defs>
    <radialGradient id="radial-gradient" cx="0.076" cy="0.019" r="1.465" gradientTransform="translate(0.001)" gradientUnits="objectBoundingBox">
      <stop offset="0" stop-color="#f6f6f7"/>
      <stop offset="0.477" stop-color="#f9f9fa"/>
      <stop offset="0.715" stop-color="#fff"/>
    </radialGradient>
  </defs>
  <g id="Grupo_58813" data-name="Grupo 58813" transform="translate(4542.116 4303.427)">
    <g id="Grupo_58762" data-name="Grupo 58762" transform="translate(-4759.116 -5044.761)">
      <g id="Grupo_42274" data-name="Grupo 42274" transform="translate(142 768.333)">
        <g id="Grupo_18423" data-name="Grupo 18423" transform="translate(75 -27)">
          <g id="Grupo_18421" data-name="Grupo 18421">
            <g id="Grupo_18420" data-name="Grupo 18420">
              <g id="Grupo_18419" data-name="Grupo 18419">
                <path id="Trazado_40936" data-name="Trazado 40936" d="M286.55,2191.684a45.964,45.964,0,1,1-45.963-45.962A45.963,45.963,0,0,1,286.55,2191.684Z" transform="translate(-194.623 -2145.721)" fill="#fff"/>
              </g>
            </g>
          </g>
          <path id="Trazado_40937" data-name="Trazado 40937" d="M286.23,2191.334a45.963,45.963,0,1,0-45.963,45.965A45.782,45.782,0,0,0,286.23,2191.334Z" transform="translate(-194.303 -2145.372)" fill="url(#radial-gradient)"/>
          <path id="Trazado_40938" data-name="Trazado 40938" d="M272.56,2188.562a35.084,35.084,0,1,0-35.084,35.084A34.953,34.953,0,0,0,272.56,2188.562Z" transform="translate(-191.373 -2142.446)" fill="none" stroke="#31aebb" stroke-miterlimit="10" stroke-width="4"/>
          <g id="Grupo_18422" data-name="Grupo 18422" transform="translate(8.143 25.805)">
            <path id="Trazado_40939" data-name="Trazado 40939" d="M279.682,2164.488a45.969,45.969,0,0,1-79.137,45.773,45.823,45.823,0,0,0,79.137-45.773Z" transform="translate(-200.545 -2164.488)" fill="#eceef0"/>
          </g>
        </g>
      </g>
    </g>
    <g id="Grupo_58769" data-name="Grupo 58769" transform="translate(-4608.184 -4916.338)">
      <g id="Grupo_58404" data-name="Grupo 58404" transform="translate(90.124 672.465)">
        <path id="Trazado_131583" data-name="Trazado 131583" d="M138.132,731.086H125.681a.917.917,0,0,1-.917-.917v-7.6H108.14v7.6a.919.919,0,0,1-.272.652.961.961,0,0,1-.654.265l-13.5-.116a.917.917,0,0,1-.91-.925.907.907,0,0,1,.925-.91l12.58.108v-7.587a.918.918,0,0,1,.918-.918h18.458a.918.918,0,0,1,.918.918v7.595h11.534a.917.917,0,1,1,0,1.835Z" transform="translate(-92.8 -720.739)" fill="#26aab7"/>
      </g>
      <path id="Trazado_131584" data-name="Trazado 131584" d="M143.618,636.54a2.591,2.591,0,0,0-3.562.337.869.869,0,0,0-.141.166l-4.819,7.247h-3.643l-1.2-1.97a4.3,4.3,0,1,0-1.116-1.837l-2.248-3.7a.97.97,0,0,0-.067-.1,2.423,2.423,0,0,0-3.411-.178c-1.948,1.4-.363,3.766.157,4.544.061.09.114.17.156.237.378.607,4.449,7.509,5.23,8.832v5.032l.056,14.153a2.311,2.311,0,0,0,1.585,2.714l.075.025a2.588,2.588,0,0,0,2.519-.67,2.49,2.49,0,0,0,1.858.765,2.844,2.844,0,0,0,.766-.105,2.33,2.33,0,0,0,1.631-2.725l.123-11.949v-7.222c.9-1.406,5.488-8.6,5.88-9.23.039-.063.084-.131.133-.205C144.051,639.994,145.293,638.114,143.618,636.54Zm-10.355.232a2.471,2.471,0,1,1-2.471,2.471A2.474,2.474,0,0,1,133.263,636.772Zm8.789,2.919c-.058.088-.112.17-.159.244-.42.673-5.962,9.357-6.018,9.445a.947.947,0,0,0-.046.091c-.008.017-.018.033-.025.05a.918.918,0,0,0-.047.151c0,.005,0,.01,0,.016a.914.914,0,0,0-.018.231v5.229h0v2.2l-.125,12.055a.906.906,0,0,0,.035.26.49.49,0,0,1-.328.6.891.891,0,0,1-.766-.123l-.372-11.376a.918.918,0,0,0-.915-.887h0a.918.918,0,0,0-.917.883l-.425,11.277a.75.75,0,0,1-.7.252l-.076-.025a.482.482,0,0,1-.334-.6.906.906,0,0,0,.035-.254l-.056-14.266v-5.213c0-.006,0-.011,0-.017v-.04c0-.007,0-.014,0-.021a.922.922,0,0,0-.015-.151c0-.012-.006-.023-.008-.035a.85.85,0,0,0-.042-.136c-.005-.013-.011-.025-.017-.038-.014-.029-.024-.059-.04-.086-.2-.343-4.955-8.4-5.384-9.092-.051-.081-.115-.177-.188-.286-.794-1.186-.971-1.775-.611-2.034.514-.37.779-.275.886-.186l4.783,7.875c0,.006.008.01.011.015a.987.987,0,0,0,.06.08c.018.022.035.045.054.065s.038.034.057.05a1.024,1.024,0,0,0,.08.066c.017.011.035.02.053.031a.826.826,0,0,0,.1.056c.016.007.034.012.051.018a.9.9,0,0,0,.12.037l.045.007a.859.859,0,0,0,.138.014h4.658a.914.914,0,0,0,.189-.019c.015,0,.028-.009.042-.013a.921.921,0,0,0,.126-.039.937.937,0,0,0,.087-.046c.023-.013.047-.023.069-.038a.921.921,0,0,0,.122-.1l.015-.012a.942.942,0,0,0,.122-.15l5.012-7.538c.194-.149.744-.53.994-.3C142.792,638.282,142.725,638.671,142.052,639.691Z" transform="translate(-19.368)" fill="#26aab7"/>
      <path id="Trazado_131585" data-name="Trazado 131585" d="M179.831,664.6a2.417,2.417,0,0,0-3.323.3.912.912,0,0,0-.141.166l-2.1,3.155a3.96,3.96,0,1,0-7.7-.549l-1.723-2.838a.963.963,0,0,0-.067-.1,2.264,2.264,0,0,0-3.189-.177c-1.82,1.309-.362,3.488.118,4.2.054.08.1.151.139.211.337.539,3.945,6.656,4.676,7.9v4.487l.05,12.682a2.166,2.166,0,0,0,1.491,2.535l.066.021a2.451,2.451,0,0,0,1.672-.144,2.312,2.312,0,0,0,.612-.412,2.348,2.348,0,0,0,1.668.645,2.623,2.623,0,0,0,.713-.1,2.184,2.184,0,0,0,1.531-2.545l.111-10.705v-6.45c.84-1.317,4.909-7.7,5.258-8.255l.119-.182C180.244,667.8,181.391,666.068,179.831,664.6Zm-9.352.372a2.121,2.121,0,1,1-2.121,2.121A2.124,2.124,0,0,1,170.479,664.974Zm0,6.077a3.937,3.937,0,0,0,2.509-.9l-.915,1.376h-3.162l-.749-1.233A3.928,3.928,0,0,0,170.479,671.052Zm7.8-3.607c-.052.08-.1.154-.143.221-.377.6-5.346,8.392-5.4,8.47a.759.759,0,0,0-.038.075c-.012.023-.025.045-.035.069a.884.884,0,0,0-.042.135c0,.01-.006.02-.008.031a.9.9,0,0,0-.018.227v4.687h0v1.974l-.112,10.81a.915.915,0,0,0,.035.26.345.345,0,0,1-.231.424.813.813,0,0,1-.565-.061L171.4,684.6a.917.917,0,0,0-.915-.888h0a.918.918,0,0,0-.917.883l-.38,10.085a.445.445,0,0,1-.152.109.634.634,0,0,1-.355.058l-.067-.022a.339.339,0,0,1-.234-.425.906.906,0,0,0,.035-.254l-.051-12.793v-4.668c0-.005,0-.011,0-.017v-.041c0-.007,0-.014,0-.022a.907.907,0,0,0-.015-.15c0-.013-.006-.025-.009-.038a.926.926,0,0,0-.041-.133c-.006-.015-.013-.028-.02-.043a.886.886,0,0,0-.038-.082c-.182-.307-4.444-7.539-4.829-8.155-.046-.073-.1-.161-.17-.259-.667-1-.838-1.5-.572-1.694.178-.127.5-.314.665-.184l4.283,7.052.01.014a.919.919,0,0,0,.068.09c.015.018.029.038.045.055s.048.043.073.064.041.037.063.053a4.295,4.295,0,0,0,.154.087c.025.011.052.018.079.028a.924.924,0,0,0,.091.028c.023.005.046.007.07.01a.985.985,0,0,0,.113.011l.017,0h4.17a.962.962,0,0,0,.184-.018.931.931,0,0,0,.091-.028c.026-.008.052-.014.077-.024a.915.915,0,0,0,.121-.064c.011-.007.024-.011.035-.019a.921.921,0,0,0,.261-.263l4.488-6.75c.19-.144.6-.4.754-.258C178.894,666.24,178.9,666.513,178.282,667.445Z" transform="translate(-40.879 -15.867)" fill="#26aab7"/>
      <path id="Trazado_131586" data-name="Trazado 131586" d="M107.077,664.564a2.263,2.263,0,0,0-3.188.177.9.9,0,0,0-.067.1l-1.724,2.839a3.954,3.954,0,1,0-7.7.548l-2.1-3.154a.913.913,0,0,0-.141-.166,2.418,2.418,0,0,0-3.324-.3c-1.56,1.466-.413,3.2.018,3.854l.118.182c.35.559,4.418,6.937,5.259,8.255v6.46l.111,10.7a2.185,2.185,0,0,0,1.537,2.546,2.614,2.614,0,0,0,.707.1,2.348,2.348,0,0,0,1.669-.646,2.435,2.435,0,0,0,2.306.55,2.181,2.181,0,0,0,1.533-2.549l.05-12.682v-4.487c.73-1.238,4.339-7.357,4.676-7.9.038-.06.085-.131.139-.211C107.439,668.053,108.9,665.873,107.077,664.564Zm-8.888.41a2.121,2.121,0,1,1-2.121,2.121A2.124,2.124,0,0,1,98.189,664.974Zm0,6.077a3.931,3.931,0,0,0,2.319-.758l-.749,1.234H96.6l-.915-1.376A3.938,3.938,0,0,0,98.189,671.052Zm7.246-3.3c-.066.1-.124.186-.17.259-.386.617-4.648,7.848-4.829,8.155a.839.839,0,0,0-.036.078c-.008.016-.016.032-.022.049a.839.839,0,0,0-.039.126c0,.015-.008.03-.01.045a.915.915,0,0,0-.014.142c0,.009,0,.017,0,.027v.049a.033.033,0,0,0,0,.007v4.67l-.051,12.793a.923.923,0,0,0,.035.254.347.347,0,0,1-.26.433.6.6,0,0,1-.548-.153l-.38-10.086a.918.918,0,0,0-.917-.883h0a.918.918,0,0,0-.915.888l-.332,10.163a.641.641,0,0,1-.353.09.758.758,0,0,1-.206-.027.345.345,0,0,1-.237-.425.919.919,0,0,0,.035-.26l-.112-10.8V681.36h0v-4.684a.892.892,0,0,0-.018-.23c0-.008,0-.014-.006-.021a.872.872,0,0,0-.045-.145c-.008-.021-.02-.039-.03-.059a.823.823,0,0,0-.042-.083c-.05-.079-5.019-7.867-5.4-8.47-.042-.067-.091-.141-.143-.221-.616-.932-.612-1.2-.292-1.505.152-.14.567.115.754.258l4.488,6.75a.921.921,0,0,0,.26.262c.015.01.032.017.048.027a1.007,1.007,0,0,0,.108.057c.03.012.062.019.092.028s.05.018.077.023a.925.925,0,0,0,.184.019h4.17l.017,0a.925.925,0,0,0,.115-.012c.022,0,.045,0,.066-.01a.871.871,0,0,0,.1-.031c.023-.008.048-.014.07-.025a.912.912,0,0,0,.088-.048c.022-.013.045-.024.066-.038a.78.78,0,0,0,.073-.06c.021-.018.044-.036.064-.056s.034-.041.05-.062a.843.843,0,0,0,.063-.084c0-.005.008-.009.011-.015l4.273-7.036c.19-.139.5.043.674.168C106.272,666.246,106.1,666.752,105.435,667.749Z" transform="translate(0 -15.867)" fill="#26aab7"/>
    </g>
  </g>
</svg>
