<svg xmlns="http://www.w3.org/2000/svg" xmlns:xlink="http://www.w3.org/1999/xlink" width="164.79" height="177.946" viewBox="0 0 164.79 177.946">
  <defs>
    <clipPath id="clip-path">
      <path id="Trazado_131946" data-name="Trazado 131946" d="M1110.967,211.357c0,49.027,36.4,84.957,81.39,84.957s80.312-33.752,80.312-82.774-35.319-94.761-80.312-94.761-81.39,43.553-81.39,92.577" transform="translate(-1110.967 -118.78)" fill="none"/>
    </clipPath>
    <clipPath id="clip-path-2">
      <rect id="Rectángulo_31207" data-name="Rectángulo 31207" width="6.594" height="7.573" fill="none"/>
    </clipPath>
    <clipPath id="clip-path-3">
      <rect id="Rectángulo_31208" data-name="Rectángulo 31208" width="1.473" height="1.759" fill="none"/>
    </clipPath>
    <clipPath id="clip-path-4">
      <rect id="Rectángulo_31209" data-name="Rectángulo 31209" width="12.213" height="8.899" fill="none"/>
    </clipPath>
    <clipPath id="clip-path-5">
      <rect id="Rectángulo_31210" data-name="Rectángulo 31210" width="12.212" height="8.899" fill="none"/>
    </clipPath>
    <clipPath id="clip-path-6">
      <path id="Trazado_131947" data-name="Trazado 131947" d="M1216.7,261.228l-11.172-1.843c0,1.684,3.639,8.346,11.211,8.346s11.135-6.738,11.135-8.346Z" transform="translate(-1205.53 -259.385)" fill="none"/>
    </clipPath>
    <linearGradient id="linear-gradient" x1="-20.89" y1="76.425" x2="-20.779" y2="76.425" gradientUnits="objectBoundingBox">
      <stop offset="0" stop-color="#ffa57a"/>
      <stop offset="1" stop-color="#ff8c66"/>
    </linearGradient>
  </defs>
  <g id="Grupo_58828" data-name="Grupo 58828" transform="translate(4483.479 -891.065)">
    <g id="Grupo_58787" data-name="Grupo 58787" transform="translate(-5594.445 772.285)">
      <circle id="Elipse_4281" data-name="Elipse 4281" cx="82.395" cy="82.395" r="82.395" transform="translate(1110.967 131.936)" fill="#cbc5e0"/>
      <g id="Grupo_58502" data-name="Grupo 58502" transform="translate(1110.967 118.78)">
        <g id="Grupo_58501" data-name="Grupo 58501" clip-path="url(#clip-path)">
          <path id="Trazado_131909" data-name="Trazado 131909" d="M1208.311,123.836c10.663.569,21.578,6.866,30.615,17.9,8.959,10.946,12.447,13.3,18.241,17.811s11.833,9.292,12.26,18.827-3.44,15.479-8.825,19.182c0,0,23.248,15.693,14.805,40.752-8.243,24.469-33.906,25.965-33.906,25.965s-14.878,13.519-42.849,8.154-28.914-12.874-28.914-12.874-14.838.177-20.322-15.545c-4.836-13.859,5.489-23.8,7.514-31.772,2.151-8.475-3.174-27.716-3.174-27.716s2.62-29.05,26.618-41.71,27.938-18.976,27.938-18.976" transform="translate(-1122.657 -120.37)" fill="#7b4f00"/>
          <path id="Trazado_131910" data-name="Trazado 131910" d="M1247.95,299.408c12.456-5.809,14.739-19.291,1.14-28.744s-16.385-18.784-16.017-30.1l-75.757-1.006a29.177,29.177,0,0,1-.323,9.073c-2.024,7.973-12.347,17.913-7.51,31.772,5.484,15.722,20.322,15.543,20.322,15.543s.944,7.513,28.913,12.876,42.85-8.154,42.85-8.154a36.713,36.713,0,0,0,6.406-1.148Z" transform="translate(-1122.677 -156.76)" fill="#ba7600"/>
          <path id="Trazado_131911" data-name="Trazado 131911" d="M1302.474,243.877c-.239,4.988,9.863,7.908,12.786,25.27s-12.766,27.748-12.786,27.763a36.947,36.947,0,0,0,21.464-22.784c5.042-14.969-1.221-26.593-7.086-33.528-8.549-5.859-14.141-1.709-14.379,3.278" transform="translate(-1171.188 -156.186)" fill="#db8a00"/>
          <path id="Trazado_131912" data-name="Trazado 131912" d="M1274.947,213.219s5-7.3,12.146-2.213c3.241,2.31,6.376,10.953,0,18.733s-14.84,4.823-15.091,1.276Z" transform="translate(-1161.607 -147.215)" fill="#ffc08d"/>
          <path id="Trazado_131913" data-name="Trazado 131913" d="M1291.561,211.008a8.509,8.509,0,0,0-5.347-1.8c.822.067,4.716.663,6.6,6.2a17.653,17.653,0,0,1-1.252,14.324c6.376-7.781,3.241-16.423,0-18.732" transform="translate(-1166.076 -147.216)" fill="#ffdbbf"/>
          <path id="Trazado_131914" data-name="Trazado 131914" d="M1288.238,221.137s-1.235-3.052-4.287-2.859-4.653,3.172-5.068,5.6c0,0,3.766-.482,3.875,3.223.1,3.309-3.162,4.468-4.51,3.681,0,0,.248,1.853,3.41,2.072,3.815.26,8.962-4.672,6.58-11.716" transform="translate(-1163.571 -150.066)" fill="#ffac6a"/>
          <path id="Trazado_131915" data-name="Trazado 131915" d="M1175.166,284.934c0,6.944.313,15.039,0,19.286s-5,3.642-10.9,2.67c-6.15-1.013-17.858-4.178-27.093,11.433-9.853,16.656-17.756,30-17.756,30s23.955,11.532,70.248,11.532,70.248-11.532,70.248-11.532-7.9-13.347-17.757-30c-9.234-15.61-20.94-12.446-27.092-11.433-5.907.971-10.589,1.579-10.9-2.67s0-12.342,0-19.286Z" transform="translate(-1113.623 -171.03)" fill="#ffc08d"/>
          <path id="Trazado_131916" data-name="Trazado 131916" d="M1187.452,324.533c-3.413,5.966-7.563,16.567-8.124,20.51s4.064,6.426,4.064,6.426-10.43-.621-9.838-2.9,13.9-24.035,13.9-24.035" transform="translate(-1130.641 -183.482)" fill="#ff8c66"/>
          <path id="Trazado_131917" data-name="Trazado 131917" d="M1249.93,324.533c3.415,5.966,7.563,16.567,8.124,20.51s-4.061,6.426-4.061,6.426,10.427-.621,9.836-2.9-13.9-24.035-13.9-24.035" transform="translate(-1154.666 -183.482)" fill="#ff8c66"/>
          <path id="Trazado_131918" data-name="Trazado 131918" d="M1148.162,376.22l9.468-23.645s-12.011,14.242-15.066,22.311c1.724.445,3.6.892,5.6,1.334" transform="translate(-1120.903 -192.3)" fill="#ff8c66"/>
          <path id="Trazado_131919" data-name="Trazado 131919" d="M1288.7,376.22l-9.468-23.645s12.011,14.242,15.066,22.311c-1.723.445-3.6.892-5.6,1.334" transform="translate(-1163.88 -192.3)" fill="#ff8c66"/>
          <path id="Trazado_131920" data-name="Trazado 131920" d="M1229.692,289.972c.023-1.7.04-3.4.04-5.037h-28.991c0,6.088.241,13.057.09,17.545,23.41-.154,28.856-12.5,28.861-12.508" transform="translate(-1139.198 -171.03)" fill="#ffac6a"/>
          <path id="Trazado_131921" data-name="Trazado 131921" d="M1183.393,317.11V317.1c-1.366.743-3.492.711-6.048.388-.723.787-21.373,23.329-26.614,47.576a244.863,244.863,0,0,0,97.558,0c-5.241-24.247-25.891-46.789-26.614-47.576-2.556.323-4.682.355-6.048-.388v.008c3,4.6,10.9,18.41,12.61,23.208s2.275,5.767-3.157,6.967-10.047,1.995-15.076,4.841c-3.716,2.1-7.856,4.187-10.494,4.187s-6.781-2.091-10.493-4.187c-5.03-2.846-9.642-3.642-15.076-4.841s-4.871-2.173-3.157-6.967,9.607-18.6,12.609-23.208" transform="translate(-1123.471 -181.145)" fill="#ff7148"/>
          <path id="Trazado_131922" data-name="Trazado 131922" d="M1263.8,315.959l0,0c3.668-.373,12.51,1.132,18.117,8.906s20.548,34.258,20.561,34.281a.319.319,0,0,0,.037-.015l2.8-1.174s-7.9-13.348-17.757-30c-7.761-13.125-17.272-12.981-23.76-12" transform="translate(-1159.026 -180.662)" fill="#ffdbbf"/>
          <path id="Trazado_131923" data-name="Trazado 131923" d="M1241.571,369.811a214.417,214.417,0,0,0,35.285-4.568c-5.243-24.246-25.891-46.789-26.614-47.573,0,0,13.81,20.131,16.473,30.826,2.638,10.6-9.043,20.332-25.143,21.315" transform="translate(-1152.038 -181.324)" fill="#c15536"/>
          <path id="Trazado_131924" data-name="Trazado 131924" d="M1204.719,249.185c-9.4,0-20.4-7.332-27.714-19.038s-9.708-29.182-9.708-37.485a37.423,37.423,0,1,1,74.845,0c0,8.3-2.392,25.782-9.709,37.485s-18.318,19.038-27.713,19.038" transform="translate(-1128.681 -130.245)" fill="#ffc08d"/>
          <path id="Trazado_131925" data-name="Trazado 131925" d="M1188,167.02s2.186,15.136-6.885,24.567-13.639,8.368-13.639,8.368Z" transform="translate(-1128.736 -133.95)" fill="#ffac6a"/>
          <path id="Trazado_131926" data-name="Trazado 131926" d="M1197.411,163.726a40.7,40.7,0,0,0,15.826,12.928c11.024,5.169,31.621,7.551,34.249,15.241,0,0,0-9.578-16.052-17.193-11.944-5.668-34.022-10.976-34.022-10.976" transform="translate(-1138.151 -132.914)" fill="#ffac6a"/>
          <path id="Trazado_131927" data-name="Trazado 131927" d="M1257.053,221.025c-1.354,17.655-10.886,32.4-16.562,37.607a40.481,40.481,0,0,1-16.589,9.3c9.076-.67,19.371-7.836,26.331-18.974,4.334-6.932,6.929-15.878,8.335-23.754l1.252-10.129v-.01Z" transform="translate(-1146.481 -149.059)" fill="#ffc08d"/>
          <path id="Trazado_131928" data-name="Trazado 131928" d="M1225.175,235.329c-.912-2.171-3.818-13.281-6.366-13.281s-5.457,11.11-6.366,13.281.273,2.978.273,2.978l1.257-.219s3.234,2.576,4.836,2.576,4.833-2.576,4.833-2.576l1.257.219s1.187-.8.276-2.978" transform="translate(-1142.769 -151.254)" fill="#ffb67d"/>
          <g id="Grupo_58491" data-name="Grupo 58491" transform="translate(72.741 80.626)">
            <g id="Grupo_58490" data-name="Grupo 58490">
              <g id="Grupo_58489" data-name="Grupo 58489" clip-path="url(#clip-path-2)">
                <path id="Trazado_131929" data-name="Trazado 131929" d="M1217.076,240.014a3.312,3.312,0,1,1,6.595,0c0,2-1.476,3.949-3.3,3.949s-3.3-1.947-3.3-3.949" transform="translate(-1217.076 -236.39)" fill="#ffac6a"/>
              </g>
            </g>
          </g>
          <g id="Grupo_58494" data-name="Grupo 58494" transform="translate(77.791 83.673)" opacity="0.3">
            <g id="Grupo_58493" data-name="Grupo 58493">
              <g id="Grupo_58492" data-name="Grupo 58492" clip-path="url(#clip-path-3)">
                <path id="Trazado_131930" data-name="Trazado 131930" d="M1225.88,241.527a.739.739,0,1,1-.929-.673.82.82,0,0,1,.929.673" transform="translate(-1224.443 -240.835)" fill="#fff"/>
              </g>
            </g>
          </g>
          <path id="Trazado_131931" data-name="Trazado 131931" d="M1224.46,244.368a.363.363,0,1,1,.363.363.364.364,0,0,1-.363-.363" transform="translate(-1146.657 -158.159)" fill="#fff"/>
          <path id="Trazado_131932" data-name="Trazado 131932" d="M1224.283,246.731a3.275,3.275,0,0,0-1.846.258,3.9,3.9,0,0,1-5.218,0,3.262,3.262,0,0,0-1.843-.258c-.03,0-.055.08-.023.084,1.625.162,2.474,1.6,3.984,2.032a1.877,1.877,0,0,0,.982,0c1.51-.435,2.362-1.87,3.984-2.032.035,0,.007-.08-.02-.084" transform="translate(-1143.788 -159.005)" fill="#5b2539"/>
          <path id="Trazado_131933" data-name="Trazado 131933" d="M1227.356,246a5.11,5.11,0,0,0,1.4-.363c.628-.278,1.361-1.376.228-1.651a1.915,1.915,0,0,0-1.974.882c-.311.387-.422.837-.924,1.145Z" transform="translate(-1147.167 -158.137)" fill="#5b2539"/>
          <path id="Trazado_131934" data-name="Trazado 131934" d="M1214.821,246a5.1,5.1,0,0,1-1.4-.363c-.626-.278-1.359-1.376-.228-1.651a1.912,1.912,0,0,1,1.974.882c.311.387.422.837.926,1.145Z" transform="translate(-1142.929 -158.137)" fill="#5b2539"/>
          <path id="Trazado_131935" data-name="Trazado 131935" d="M1198.515,192.575c-.278,1.83-5.323.293-10.9,2.424a18.081,18.081,0,0,0-8.867,6.863.407.407,0,0,1-.73-.338,13.276,13.276,0,0,1,6.276-8.562c7.377-4.344,14.585-2.772,14.222-.387" transform="translate(-1132.047 -141.247)" fill="#7b4f00"/>
          <path id="Trazado_131936" data-name="Trazado 131936" d="M1183.317,151.132s1.645,22.4-20.648,36.874l-7.471-3.535s-3.311-13.206-2.469-22.3,7.327-22.461,26.673-22.99c0,0,10.245-17.014,30.354-15.4,27.761,2.23,38.066,37.788,27.639,62.539a21.3,21.3,0,0,0-11.313-14.819c-9.933-5.052-31.149-8.25-42.766-20.374" transform="translate(-1124.057 -120.32)" fill="#7b4f00"/>
          <path id="Trazado_131937" data-name="Trazado 131937" d="M1162.794,194.654c8.484-15.4-.122-17.583-2.742-29.854-.8-3.731,1.778-11.5,6.9-14.632a24.579,24.579,0,0,0-14.222,20.337c-.842,9.093,2.469,22.3,2.469,22.3l6.555,3.1a7.285,7.285,0,0,0,1.041-1.247" transform="translate(-1124.057 -128.65)" fill="#db8a00"/>
          <path id="Trazado_131938" data-name="Trazado 131938" d="M1287.887,178.328c-.429-9.535-6.467-14.321-12.262-18.827s-9.28-6.865-18.238-17.811c-8.992-10.984-19.843-17.267-30.456-17.891-.037,0-.074-.01-.114-.012a31.26,31.26,0,0,0-19.975,5.117c11.659-4.714,26.107-4.436,35.741,5.569,7.173,7.449,12.742,21.921,23.806,29.736,10.944,7.731,26.977,19.609,12.67,33.3,5.385-3.7,9.257-9.65,8.827-19.182" transform="translate(-1141.116 -120.321)" fill="#db8a00"/>
          <path id="Trazado_131939" data-name="Trazado 131939" d="M1275.2,190.642l-.742,15.874s-.773,9.791-1.776,11.736c-.742,1.438-1.51-3.52-1.763-10.844s-2.363-10.476-2.363-10.476l6.644-6.7" transform="translate(-1160.523 -141.248)" fill="#7b4f00"/>
          <path id="Trazado_131940" data-name="Trazado 131940" d="M1160.205,213.219s-5-7.3-12.146-2.213c-3.241,2.31-6.376,10.953,0,18.733s14.838,4.823,15.091,1.276Z" transform="translate(-1121.469 -147.215)" fill="#ffc08d"/>
          <path id="Trazado_131941" data-name="Trazado 131941" d="M1161.18,213.219s-5-7.3-12.146-2.213a6.782,6.782,0,0,0-1.542,1.637c4.55-3.83,11.1-2.312,14.018,4.364l.11-1.138Z" transform="translate(-1122.453 -147.215)" fill="#ffac6a"/>
          <path id="Trazado_131942" data-name="Trazado 131942" d="M1167.473,214.085s.489,7.941,1.438,11.185,2.74-13.313,2.74-13.313Z" transform="translate(-1128.736 -148.081)" fill="#7b4f00"/>
          <path id="Trazado_131943" data-name="Trazado 131943" d="M1150.673,221.137s1.234-3.052,4.287-2.859,4.652,3.172,5.064,5.6c0,0-3.763-.482-3.872,3.223-.1,3.309,3.162,4.468,4.51,3.681,0,0-.248,1.853-3.41,2.072-3.815.26-8.961-4.672-6.58-11.716" transform="translate(-1123.263 -150.066)" fill="#ffac6a"/>
          <g id="Grupo_58497" data-name="Grupo 58497" transform="translate(44.505 76.964)" opacity="0.3">
            <g id="Grupo_58496" data-name="Grupo 58496">
              <g id="Grupo_58495" data-name="Grupo 58495" clip-path="url(#clip-path-4)">
                <path id="Trazado_131944" data-name="Trazado 131944" d="M1187.988,237.18c-.636,2.275-3.838,3.365-7.149,2.439s-5.479-3.525-4.84-5.8,3.838-3.366,7.148-2.439,5.479,3.524,4.841,5.8" transform="translate(-1175.887 -231.05)" fill="#ff6267"/>
              </g>
            </g>
          </g>
          <g id="Grupo_58500" data-name="Grupo 58500" transform="translate(95.359 76.964)" opacity="0.3">
            <g id="Grupo_58499" data-name="Grupo 58499">
              <g id="Grupo_58498" data-name="Grupo 58498" clip-path="url(#clip-path-5)">
                <path id="Trazado_131945" data-name="Trazado 131945" d="M1250.18,237.18c.638,2.275,3.838,3.365,7.148,2.439s5.479-3.525,4.843-5.8-3.838-3.366-7.148-2.439-5.479,3.524-4.843,5.8" transform="translate(-1250.069 -231.05)" fill="#ff6267"/>
              </g>
            </g>
          </g>
        </g>
      </g>
      <g id="Grupo_58504" data-name="Grupo 58504" transform="translate(1175.793 215.17)">
        <g id="Grupo_58503" data-name="Grupo 58503" transform="translate(0)" clip-path="url(#clip-path-6)">
          <rect id="Rectángulo_31211" data-name="Rectángulo 31211" width="22.346" height="8.345" transform="translate(0 0)" fill="url(#linear-gradient)"/>
        </g>
      </g>
      <g id="Grupo_58506" data-name="Grupo 58506" transform="translate(1110.967 118.78)">
        <g id="Grupo_58505" data-name="Grupo 58505" clip-path="url(#clip-path)">
          <path id="Trazado_131948" data-name="Trazado 131948" d="M1218.64,269.667c-4.749,0-7.081-1.935-7.081-1.935.658,1.532,2.921,3.52,7.081,3.52s6.426-1.987,7.084-3.52c0,0-2.332,1.935-7.084,1.935" transform="translate(-1142.6 -165.62)" fill="#bd1a45"/>
          <path id="Trazado_131949" data-name="Trazado 131949" d="M1228.107,258.151c-1.056.328-5.122.2-7.141-.077-2.358-.326-3.544,1.8-4.488,1.8s-2.131-2.121-4.488-1.8c-2.02.276-6.083.405-7.141.077-.588-.181-.223,3.209,11.627,3.209s12.22-3.39,11.632-3.209" transform="translate(-1140.437 -162.573)" fill="#bd1a45"/>
          <path id="Trazado_131950" data-name="Trazado 131950" d="M1235.071,221.007s.062-4.664,1.287-7.4,4.724-6.992,11.57-4.988,6.775,9.168,6.775,9.168-2.742-3.8-10.476-2.717a13.531,13.531,0,0,0-9.155,5.938" transform="translate(-1149.993 -146.868)" fill="#ffac6a"/>
          <path id="Trazado_131951" data-name="Trazado 131951" d="M1235.274,223.6c.638-.226,1.152-1.071,4.4-2.809a12.041,12.041,0,0,1,7.73-1.562,11.835,11.835,0,0,1,5.956,2.211c1,.675,2.325,1.1,1.309-1.061s-4.644-4.545-9.15-4.188-7,1.694-9.307,4.679c-1.55,2.009-1.419,2.9-.934,2.73" transform="translate(-1149.954 -149.402)" fill="#4a1a2d"/>
          <path id="Trazado_131952" data-name="Trazado 131952" d="M1260.922,218.854a4.985,4.985,0,0,0,2.277.539c1.766-.32,1.512-1.5,1.925-.993s0,2.712-2.531,3.236Z" transform="translate(-1158.123 -150.068)" fill="#4a1a2d"/>
          <path id="Trazado_131953" data-name="Trazado 131953" d="M1235.839,192.575c.278,1.83,5.325.293,10.9,2.424a18.074,18.074,0,0,1,8.867,6.863.406.406,0,0,0,.728-.338,13.278,13.278,0,0,0-6.277-8.562c-7.376-4.344-14.584-2.772-14.221-.387" transform="translate(-1150.231 -141.247)" fill="#7b4f00"/>
          <path id="Trazado_131954" data-name="Trazado 131954" d="M1199.693,221.007s-.062-4.664-1.29-7.4-4.721-6.992-11.567-4.988-6.778,9.168-6.778,9.168,2.745-3.8,10.479-2.717a13.531,13.531,0,0,1,9.155,5.938" transform="translate(-1132.694 -146.868)" fill="#ffac6a"/>
          <path id="Trazado_131955" data-name="Trazado 131955" d="M1199.285,223.6c-.638-.226-1.152-1.071-4.4-2.809a12.032,12.032,0,0,0-7.727-1.562,11.83,11.83,0,0,0-5.956,2.211c-1,.675-2.325,1.1-1.312-1.061s4.646-4.545,9.153-4.188,7,1.694,9.306,4.679c1.55,2.009,1.418,2.9.934,2.73" transform="translate(-1132.527 -149.402)" fill="#4a1a2d"/>
          <path id="Trazado_131956" data-name="Trazado 131956" d="M1180.859,218.854a4.99,4.99,0,0,1-2.278.539c-1.766-.32-1.512-1.5-1.924-.993s0,2.712,2.531,3.236Z" transform="translate(-1131.58 -150.068)" fill="#4a1a2d"/>
        </g>
      </g>
    </g>
  </g>
</svg>
