<svg xmlns="http://www.w3.org/2000/svg" xmlns:xlink="http://www.w3.org/1999/xlink" width="193.224" height="192.937" viewBox="0 0 193.224 192.937">
  <defs>
    <clipPath id="clip-path">
      <path id="Trazado_132117" data-name="Trazado 132117" d="M674.669,709.525c0,53.277,41.88,89.954,95.238,89.954s96.525-39.044,96.525-92.324-43.167-100.611-96.525-100.611-95.238,49.7-95.238,102.981" transform="translate(-674.669 -606.544)" fill="none"/>
    </clipPath>
  </defs>
  <g id="Grupo_58832" data-name="Grupo 58832" transform="translate(3882.01 -1696.355)">
    <g id="Grupo_58794" data-name="Grupo 58794" transform="translate(-4555.162 1089.812)">
      <g id="Grupo_58591" data-name="Grupo 58591" transform="translate(673.152 622.414)">
        <path id="Trazado_132078" data-name="Trazado 132078" d="M866.375,716.917c0,48.893-43.255,88.532-96.61,88.532s-96.614-39.639-96.614-88.532,43.255-88.535,96.614-88.535,96.61,39.641,96.61,88.535" transform="translate(-673.152 -628.382)" fill="#cbc5e0"/>
      </g>
      <g id="Grupo_58593" data-name="Grupo 58593" transform="translate(674.254 606.544)">
        <g id="Grupo_58592" data-name="Grupo 58592" clip-path="url(#clip-path)">
          <path id="Trazado_132079" data-name="Trazado 132079" d="M989.24,882.8c2.716,9.169-5.889,17.291-8.66,18.816s-21.644,8.643-33.294,8.9-28.854-22.374-22.751-24.919,48.829-5.347,53.547-5.347A38.118,38.118,0,0,1,989.24,882.8" transform="translate(-742.606 -681.343)" fill="#ffccb0"/>
          <path id="Trazado_132080" data-name="Trazado 132080" d="M943.838,864.475c-2.916,27.459-13.314,48.815-17.064,49.2s-40.925-11.059-51.258-15.256-2.383-68.639,3.932-67.505,20.94,13.515,32.677,19.453,31.712,14.108,31.712,14.108" transform="translate(-728.196 -667.857)" fill="#006c6b"/>
          <path id="Trazado_132081" data-name="Trazado 132081" d="M889.11,892.815c3.932,5.493,33.862,19.427,50.139,24.5-3.281,8.106-6.578,13.1-8.362,13.28-3.2.326-30.922-8.027-45.314-13.051a173.514,173.514,0,0,1,3.538-24.733" transform="translate(-732.306 -684.778)" fill="#004948"/>
          <path id="Trazado_132082" data-name="Trazado 132082" d="M966.834,838.1c1.146,10.894-9.437,12.457-22.477,9.658s-36.065-29.236-46.33-41.188-29.343-33.243-33.084-35.154-12.071-2.918-19.977-13.667-.418-33.244,2.7-35.916,32.392,6.24,36.071,10.748-.07,28.72,1.175,31.773,27.52,27.967,38.634,34.067S966,830.226,966.834,838.1" transform="translate(-720.25 -637.918)" fill="#ffc08d"/>
          <path id="Trazado_132083" data-name="Trazado 132083" d="M870.7,743.994c-3.482-1.528-4.846-8.451-2.636-7.234a25.024,25.024,0,0,0,10.9,1.148,44.808,44.808,0,0,0,7.013-.459,37.449,37.449,0,0,1,.924,5.466s-12.728,2.6-16.206,1.079" transform="translate(-727.229 -642.091)" fill="#ffa87a"/>
          <path id="Trazado_132084" data-name="Trazado 132084" d="M841.57,746.641c1.759-3.474,3.122-6.116,3.122-6.116l21.022,17.331a110.849,110.849,0,0,1,11.3-8.165l1.953,2.826a50.449,50.449,0,0,0-4.583,17.9s-2.775,3.056-4.439,3.3c0,0,23.443,30.51,38.15,45.512,14.619,14.9,24.843,27.81,31.5,31.954-13.308-6.748-32.489-28.763-41.606-39.379-10.265-11.949-29.343-33.244-33.084-35.155s-12.071-2.921-19.976-13.664a24.568,24.568,0,0,1-3.361-16.344" transform="translate(-720.21 -643.159)" fill="#ffa87a"/>
          <path id="Trazado_132085" data-name="Trazado 132085" d="M877.794,735.48c-.094,1.779-18.392,17.291-20.295,19.073a3.167,3.167,0,0,1-2.086,0c-5.523-4.184-31.19-41.918-31.688-43.279-.483-1.269,13.54-14.249,17.867-17.718a4.467,4.467,0,0,1,3.656.381c5.1,6.286,32.672,39.246,32.545,41.543" transform="translate(-715.401 -630.261)" fill="#050233"/>
          <path id="Trazado_132086" data-name="Trazado 132086" d="M874.892,735.527c-.094,1.776-18.389,17.291-20.3,19.073s-33.252-41.8-33.806-43.279c-.48-1.269,15.264-14.039,19.6-17.507a1.4,1.4,0,0,1,1.862.086.866.866,0,0,1,.076.086c5.131,6.295,32.693,39.244,32.569,41.541" transform="translate(-714.598 -630.308)" fill="#211e86"/>
          <path id="Trazado_132087" data-name="Trazado 132087" d="M871.4,733.044c-.089,1.66-17.208,16.168-18.987,17.833s-31.108-39.109-31.627-40.483c-.448-1.193,14.284-13.137,18.325-16.381a1.334,1.334,0,0,1,1.767.11c.015.017.03.036.047.055,4.8,5.892,30.59,36.712,30.475,38.866" transform="translate(-714.599 -630.371)" fill="#00b0f9"/>
          <path id="Trazado_132088" data-name="Trazado 132088" d="M868.961,713.574a22.461,22.461,0,0,1-7.8-9.237c-.483-1.911-.419-3.622,1.178-4s7.087,5.59,9.711,7.369,5.968,5.471,4.925,7.947-6.671,1.528-7.281,1.145-.73-3.221-.73-3.221" transform="translate(-725.562 -632.171)" fill="#ffc08d"/>
          <path id="Trazado_132089" data-name="Trazado 132089" d="M861.433,701.011c-.79,2.167,6.15,10.867,11.826,13.374l-1.871,2.133s-.937-.187-2.147-.448a14.336,14.336,0,0,1-.292-2.321,22.522,22.522,0,0,1-7.806-9.237,3.832,3.832,0,0,1,.289-3.5" transform="translate(-725.55 -632.361)" fill="#ffa87a"/>
          <path id="Trazado_132090" data-name="Trazado 132090" d="M876.894,727.252a66.375,66.375,0,0,0-12.377-3.312c-2.919-1.05-3.756-5.054-1.874-5.733A56.03,56.03,0,0,1,879.5,720.5c3.12,1.238,5,6.95,5,6.95Z" transform="translate(-725.765 -637.058)" fill="#ffc08d"/>
          <path id="Trazado_132091" data-name="Trazado 132091" d="M874.488,725.427a7.179,7.179,0,0,0,3.953,0c0,1.05,1.129,1.576,2.469,3.056l-3.906-.1a66.577,66.577,0,0,0-12.38-3.315,4.414,4.414,0,0,1-2.6-2.673c1.435,2.2,9.511,2.53,12.462,3.034" transform="translate(-725.871 -638.204)" fill="#ffa87a"/>
          <path id="Trazado_132092" data-name="Trazado 132092" d="M890.8,735.129c-2.5,3.52-16.235,1.995-19.007,1.615s-4.622-1.974-4.474-3.577c.315-3.228,18.347-2.675,19.868-2.148s3.614,4.11,3.614,4.11" transform="translate(-727.315 -640.451)" fill="#ffc08d"/>
          <path id="Trazado_132093" data-name="Trazado 132093" d="M867.55,735.2A22.859,22.859,0,0,0,879,738.219a50.063,50.063,0,0,0,7.226.118A61.753,61.753,0,0,1,871.862,738a4.967,4.967,0,0,1-4.312-2.794" transform="translate(-727.381 -641.704)" fill="#ffa87a"/>
          <path id="Trazado_132094" data-name="Trazado 132094" d="M784.155,801.225c29.965,13.472,34.666,12.954,47.562,19.062s14.312,70.429,14.312,80.345.139,49.326,2.634,59.993,12.074,50.34,15.4,56.443,9.59,16.4,1.667,22.5-25.325,10.3-64.056,8.022-82.015-24.026-84.1-27.076,13.738-59.113,13.738-69.794a127.915,127.915,0,0,1,2.5-23.645c.831-4.969-13.284-28.22-16.419-43.1s-24.032-55.9-21.287-63.432,32.8-15.892,52.957-25.448,35.09,6.122,35.09,6.122" transform="translate(-680.46 -657.231)" fill="#006c6b"/>
          <path id="Trazado_132095" data-name="Trazado 132095" d="M815.361,819.447a18.049,18.049,0,0,1-.419,4.821,10.824,10.824,0,0,1-1.829,4.357,9.848,9.848,0,0,1-8.338,4.07,30.027,30.027,0,0,1-10.08-1.844c-3.31-1.1-6.471-2.559-9.7-3.968,1.446.959,2.939,1.858,4.43,2.778,1.591.764,3.128,1.625,4.787,2.294a26.413,26.413,0,0,0,10.622,2.289l1.4-.06,1.4-.288a10.712,10.712,0,0,0,2.675-.934,9.425,9.425,0,0,0,3.923-3.717,13.04,13.04,0,0,0,1.131-9.8" transform="translate(-704.82 -664.728)" fill="#004948"/>
          <path id="Trazado_132096" data-name="Trazado 132096" d="M724.52,1048.055c-2.086-3.059,13.735-59.113,13.735-69.794a127.713,127.713,0,0,1,2.5-23.639c.833-4.969-13.281-28.223-16.421-43.1a78.614,78.614,0,0,0-3.037-9.82l12.321-8.893c9.175,19.531,16.681,53.854,24.6,62.244s26.221,11.826,26.221,11.826-17.515,3.819-25.405,2.288c0,0-5.9,30.135-4.814,45s4.378,37.37,4.814,40.423c.158,1.147.2,5.109.191,9.636-19.222-6.775-33.532-14.454-34.71-16.174" transform="translate(-687.413 -684.776)" fill="#004948"/>
          <path id="Trazado_132097" data-name="Trazado 132097" d="M769.5,759c.969,15.914.693,26.846-2.916,29.9,0,0,8.713,26.407,34.955,24.15,8.878-.764,6.936-14.49,1.944-20.844l1.107-19.524Z" transform="translate(-699.787 -648.207)" fill="#ffc08d"/>
          <path id="Trazado_132098" data-name="Trazado 132098" d="M769.045,786.086h0c1.873-4.881,1.9-14.39,1.126-27.09l35.1,13.682-.713,12.519c-5.833,2.475-35.509.888-35.509.888" transform="translate(-700.461 -648.207)" fill="#ffac6a"/>
          <path id="Trazado_132099" data-name="Trazado 132099" d="M738.37,700.287c-6.121-13.7-13.608-28.191-4.168-35.822a48.656,48.656,0,0,0-16.091-2.033,46.27,46.27,0,0,1,16.645-4.067s-2.182-23.138,3.623-33.052c0,0,0,10.17,3.037,14.236a37.84,37.84,0,0,1,24.136-16.525c18.036-4.586,35.514-5.083,48,6.607s27.1,26.693,6.065,49.323c-15.635,16.381-37.2,27.035-60.723,30-11.938,1.525-20.521-8.67-20.521-8.67" transform="translate(-686.541 -610.222)" fill="#512a3b"/>
          <path id="Trazado_132100" data-name="Trazado 132100" d="M814.688,670.673a71.827,71.827,0,0,1-12.825,3.711c-4.359.9-8.757,1.708-13.167,2.332s-8.849,1.171-13.293,1.56a64.2,64.2,0,0,1-13.429,0,35.965,35.965,0,0,0,13.511,2.37,86.885,86.885,0,0,0,27.082-3.982,37.132,37.132,0,0,0,12.121-5.992" transform="translate(-698.528 -624.07)" fill="#391e29"/>
          <path id="Trazado_132101" data-name="Trazado 132101" d="M762.731,694.667a44.091,44.091,0,0,1-12.781-8.149s8.26,5.352,25.237,4.073a156.282,156.282,0,0,0,28.324-4.507,172.252,172.252,0,0,1-23.95,10.929c-6.45,1.522-16.831-2.346-16.831-2.346" transform="translate(-695.242 -628.281)" fill="#391e29"/>
          <path id="Trazado_132102" data-name="Trazado 132102" d="M848.859,683.144c7.888-3.571,10.177.057,10.177,3.1a30.321,30.321,0,0,1-3.7,9.553Z" transform="translate(-722.273 -627.073)" fill="#391e29"/>
          <path id="Trazado_132103" data-name="Trazado 132103" d="M734.427,699.15A67.71,67.71,0,0,0,754.742,719.4s5.476,6.764-.669,9.51c-.256.116-.545.219-.833.321a29.11,29.11,0,0,1-10.425-7.315,96.956,96.956,0,0,1-8.388-22.768" transform="translate(-691 -631.852)" fill="#391e29"/>
          <path id="Trazado_132104" data-name="Trazado 132104" d="M757.855,715.174s-6.451-4.386-10.843,0,3.953,24.79,13.736,19.831c0,0,16.235,18.876,27.47,24.215s18.73,2.678,22.471-1.145S827,738.62,828.167,722.033c.418-5.908-1.456-17.542-1.456-20.022s1.668-12.2-.621-15.062a8.873,8.873,0,0,0-5.423-3.239,94.048,94.048,0,0,1-26.012,7.258,46.281,46.281,0,0,0,7.7-5.53,208.326,208.326,0,0,1-40.781,8.583,78.135,78.135,0,0,1-.624,12.587,48.116,48.116,0,0,1-3.1,8.567" transform="translate(-694.111 -627.633)" fill="#ffc08d"/>
          <path id="Trazado_132105" data-name="Trazado 132105" d="M750.4,733.4c.584-3.738,4-4.475,6.8-1.868a18.892,18.892,0,0,1,3.4,12.373c-.583,1.247-5.152,1.144-6.218-1.422s1.455-4.2,4.077-3.439a8.662,8.662,0,0,0-1.87-6.2c-2.286-2.427-4.4-1.5-4.886-.874a16.623,16.623,0,0,1-1.3,1.425" transform="translate(-695.366 -640.28)" fill="#ffac6a"/>
          <path id="Trazado_132106" data-name="Trazado 132106" d="M826.291,726.145c1.255-2.073-.227-3.963-1.466-5.75a25.96,25.96,0,0,1-3.7-7.6,13.847,13.847,0,0,1-.486-7.3c.61-2.272,2.33-4.121,4.1-5.919.079-.081.212.014.148.094-2.466,3.142-3.918,5.906-3.317,9.663a24.819,24.819,0,0,0,3.467,9.3c1.287,2.054,3.522,4.211,2.878,6.683-.486,1.857-2.4,3.558-4.46,4.424a.242.242,0,0,1-.318-.348c.963-1.132,2.4-2,3.158-3.25" transform="translate(-714.476 -631.96)" fill="#a87449"/>
          <path id="Trazado_132107" data-name="Trazado 132107" d="M806.538,755.195q12.124-.178,24.186-1.492c-.307,6.168-6.006,10.94-12.737,10.659-5.681-.232-10.433-4.038-11.449-9.167" transform="translate(-710.707 -646.761)" fill="#e21926"/>
          <path id="Trazado_132108" data-name="Trazado 132108" d="M814.656,765.577a11.347,11.347,0,0,1,5.6-.051,9.43,9.43,0,0,1,7.479-.675,11.206,11.206,0,0,1-13.075.726" transform="translate(-712.926 -649.677)" fill="#ff8385"/>
          <path id="Trazado_132109" data-name="Trazado 132109" d="M828.044,758.288a31.1,31.1,0,0,1-17.873-.631c-.1-.8-.23-1.6-.363-2.4,5.729-.111,14.967-.765,19.9-1.258a13.389,13.389,0,0,1-1.661,4.291" transform="translate(-711.601 -646.841)" fill="#fff"/>
          <path id="Trazado_132110" data-name="Trazado 132110" d="M797.023,700.781c5.226-.818,7.52-.758,7.131,1.812s-4.7,2.907-8.439,3.409-11.2,1.584-15.279,4.645c0,0,1.02-5.088,5.011-6.886s11.576-2.98,11.576-2.98" transform="translate(-703.574 -632.17)" fill="#512a3b"/>
          <path id="Trazado_132111" data-name="Trazado 132111" d="M833.254,698c-4.448.5-6.283,1.075-5.272,3.2s4.588,1.422,7.744,1,9.478-1.211,13.6.486c0,0-2.2-4.149-5.915-4.775s-10.162.092-10.162.092" transform="translate(-716.493 -631.443)" fill="#512a3b"/>
          <path id="Trazado_132112" data-name="Trazado 132112" d="M813.447,739.072c1.166.486,2.392.869,3.676,1.285.25.078.1.251-.206.224a8.451,8.451,0,0,1-3.971-1.333c-.2-.142.238-.283.5-.175" transform="translate(-712.445 -642.752)" fill="#a87449"/>
          <path id="Trazado_132113" data-name="Trazado 132113" d="M848.706,713.972s-.689-6.405-8.318-5.587-7.685,8.183-7.688,8.221c0,0,1.967-3.949,7.909-4.586s8.1,1.951,8.1,1.951" transform="translate(-717.857 -634.356)" fill="#ffac6a"/>
          <path id="Trazado_132114" data-name="Trazado 132114" d="M832.694,718.284c.2,0,.963-.672,3.752-1.943a16.834,16.834,0,0,1,7.491-1.365,12.436,12.436,0,0,1,4.4,1.022c.616.235,1.093-.172.094-1.222-.963-1.009-2.424-2.041-6.215-1.954a11.439,11.439,0,0,0-8.274,3.253c-1.611,1.63-1.717,2.2-1.251,2.21" transform="translate(-717.789 -635.587)" fill="#422030"/>
          <path id="Trazado_132115" data-name="Trazado 132115" d="M785.735,720.755s-.94-6.378,6.689-7.2,9.534,6.343,9.546,6.378c0,0-2.907-3.426-8.845-2.791s-7.391,3.609-7.391,3.609" transform="translate(-705.012 -635.772)" fill="#ffac6a"/>
          <path id="Trazado_132116" data-name="Trazado 132116" d="M801.949,721.628c-.195.046-1.108-.453-4.139-1.1a16.9,16.9,0,0,0-7.635.256,11.97,11.97,0,0,0-4.027,1.922c-.542.359-1.1.062-.4-1.169.683-1.188,1.846-2.5,5.555-3.218a11.806,11.806,0,0,1,8.867,1.417c1.979,1.25,2.227,1.782,1.776,1.889" transform="translate(-704.936 -637.014)" fill="#422030"/>
        </g>
      </g>
    </g>
  </g>
</svg>
