<svg xmlns="http://www.w3.org/2000/svg" xmlns:xlink="http://www.w3.org/1999/xlink" width="91.928" height="91.927" viewBox="0 0 91.928 91.927">
  <defs>
    <radialGradient id="radial-gradient" cx="0.076" cy="0.019" r="1.465" gradientTransform="translate(0.001)" gradientUnits="objectBoundingBox">
      <stop offset="0" stop-color="#f6f6f7"/>
      <stop offset="0.477" stop-color="#f9f9fa"/>
      <stop offset="0.715" stop-color="#fff"/>
    </radialGradient>
  </defs>
  <g id="Grupo_58714" data-name="Grupo 58714" transform="translate(12710.428 5373.306)">
    <g id="Grupo_58620" data-name="Grupo 58620" transform="translate(-12927.428 -6114.64)">
      <g id="Grupo_42274" data-name="Grupo 42274" transform="translate(142 768.333)">
        <g id="Grupo_18423" data-name="Grupo 18423" transform="translate(75 -27)">
          <g id="Grupo_18421" data-name="Grupo 18421">
            <g id="Grupo_18420" data-name="Grupo 18420">
              <g id="Grupo_18419" data-name="Grupo 18419">
                <path id="Trazado_40936" data-name="Trazado 40936" d="M286.55,2191.684a45.964,45.964,0,1,1-45.963-45.962A45.963,45.963,0,0,1,286.55,2191.684Z" transform="translate(-194.623 -2145.721)" fill="#fff"/>
              </g>
            </g>
          </g>
          <path id="Trazado_40937" data-name="Trazado 40937" d="M286.23,2191.334a45.963,45.963,0,1,0-45.963,45.965A45.782,45.782,0,0,0,286.23,2191.334Z" transform="translate(-194.303 -2145.372)" fill="url(#radial-gradient)"/>
          <path id="Trazado_40938" data-name="Trazado 40938" d="M272.56,2188.562a35.084,35.084,0,1,0-35.084,35.084A34.953,34.953,0,0,0,272.56,2188.562Z" transform="translate(-191.373 -2142.446)" fill="none" stroke="#7d70b0" stroke-miterlimit="10" stroke-width="4"/>
          <g id="Grupo_18422" data-name="Grupo 18422" transform="translate(8.143 25.805)">
            <path id="Trazado_40939" data-name="Trazado 40939" d="M279.682,2164.488a45.969,45.969,0,0,1-79.137,45.773,45.823,45.823,0,0,0,79.137-45.773Z" transform="translate(-200.545 -2164.488)" fill="#eceef0"/>
          </g>
        </g>
      </g>
    </g>
    <g id="Grupo_58621" data-name="Grupo 58621" transform="translate(-12924.997 -6271.19)">
      <path id="Trazado_17791" data-name="Trazado 17791" d="M303.7,983.522a2.038,2.038,0,1,0-2.038-2.038A2.041,2.041,0,0,0,303.7,983.522Zm0-2.718a.68.68,0,1,1-.679.68A.68.68,0,0,1,303.7,980.8Z" transform="translate(-31.613 -28.803)" fill="#7d6eb2"/>
      <path id="Trazado_17792" data-name="Trazado 17792" d="M278.988,949.812a1.3,1.3,0,0,1,.278-1.429l.988-.989-2.884-2.884-.99.989a1.311,1.311,0,0,1-1.455.266,1.294,1.294,0,0,1-.8-1.2v-1.4H272.73a12.032,12.032,0,0,0-.6-3.159l7.863-7.863a5.484,5.484,0,1,0-7.755-7.756l-7.855,7.856a12.06,12.06,0,0,0-3.205-.6,5.409,5.409,0,0,0-6.21-2.536,6.782,6.782,0,0,0-12.6,4.719,4.076,4.076,0,0,0,1.179,7.979h4.929a12.288,12.288,0,0,0-.173,2.039,9.327,9.327,0,0,0,.723,3.752l-6.062,6.063-3.373,8.77a1.826,1.826,0,0,0,2.359,2.359l8.77-3.373,4.432-4.433a2.057,2.057,0,0,0-.054.453,2.007,2.007,0,0,1,0,2.718,2.035,2.035,0,0,0,1.522,1.964,4.139,4.139,0,0,0,7.827,0,2.035,2.035,0,0,0,1.522-1.964c0-.051-.011-.1-.015-.148l.844.844.99-.989a1.331,1.331,0,0,1,2.258.936v1.4h4.077v-1.4a1.332,1.332,0,0,1,2.259-.936l.989.989,2.884-2.884-.988-.989a1.315,1.315,0,0,1-.267-1.455,1.3,1.3,0,0,1,1.2-.8h1.4v-4.077h-1.4a1.307,1.307,0,0,1-1.213-.83Zm-10.182,2a20.209,20.209,0,0,0,2.125-2.318,3.365,3.365,0,0,1,1.153-.214,3.43,3.43,0,1,1-3.278,2.532Zm.816-16.1,3.141-3.142,2.437,2.437-3.629,3.629A12.332,12.332,0,0,0,269.623,935.719Zm.7-7.5,1.078-1.078,5.834,5.834-1.078,1.078Zm5.786-4.077a4.125,4.125,0,0,1,2.917,7.042l-.83.83-5.834-5.834.83-.83a4.1,4.1,0,0,1,2.917-1.208Zm-6.747,5.038,2.437,2.437-3.14,3.14a12.336,12.336,0,0,0-2.922-1.951Zm2.038,14.668c0,3.536-1.78,5.272-3.665,7.11a13.289,13.289,0,0,0-3.407,4.482,2,2,0,0,0-.4-.041h-2.718V952a2.041,2.041,0,0,0-2.038-2.039h-1.359a.679.679,0,1,1,0-1.359h6.795a2.038,2.038,0,1,0,0-4.077h-5.436a.68.68,0,0,1-.68-.68v-2.039h3.4a3.4,3.4,0,0,0,0-6.795c-.019,0-.037.005-.056.005a5.391,5.391,0,0,0,.056-.685,5.452,5.452,0,0,0-.16-1.288,10.93,10.93,0,0,1,9.673,10.8Zm-14.949,13.59a.68.68,0,0,1,.68-.68h6.795a.679.679,0,1,1,0,1.359h-6.795A.68.68,0,0,1,256.456,957.437Zm-8.552,0,4.995-4.995a12.34,12.34,0,0,1,2.184,2.689l-4.742,4.743Zm-7.076-19.705a2.718,2.718,0,1,1,5.436,0h1.359a4.078,4.078,0,0,0-3.9-4.068,5.43,5.43,0,0,1,10-4.018,5.441,5.441,0,0,0-2.663,4.094,2.718,2.718,0,0,0-2.072,2.632h1.359a1.359,1.359,0,1,1,2.718,0h1.359a2.714,2.714,0,0,0-1.994-2.608,4.072,4.072,0,1,1,7.96,1.618,3.391,3.391,0,0,0-1.889,3.029h1.359a2.038,2.038,0,1,1,2.038,2.039H243.546A2.721,2.721,0,0,1,240.828,937.732Zm16.308,4.077v2.039a2.041,2.041,0,0,0,2.038,2.039h5.436a.679.679,0,1,1,0,1.359h-6.795a2.038,2.038,0,1,0,0,4.077h1.359a.68.68,0,0,1,.679.68v3.4h-2.718a2,2,0,0,0-.4.041,13.3,13.3,0,0,0-3.407-4.482c-1.885-1.838-3.665-3.575-3.665-7.11a10.975,10.975,0,0,1,.209-2.039Zm-5.207,9.682-4.986,4.986-2.437-2.437,5.185-5.185a15.25,15.25,0,0,0,2.238,2.636ZM243.8,955.26l5.316,5.316-4.5,1.731-2.547-2.547Zm-2.342,8.262a.468.468,0,0,1-.6-.6l.681-1.771,1.692,1.693Zm19.071.031a2.792,2.792,0,0,1-2.394-1.359h4.789a2.792,2.792,0,0,1-2.394,1.359Zm3.4-2.718h-6.795a.68.68,0,1,1,0-1.359h6.795a.68.68,0,1,1,0,1.359Zm16.308-7.474H280.2a2.691,2.691,0,0,0-1.9,4.578l.029.029-.962.962-.029-.028a2.69,2.69,0,0,0-4.578,1.9v.037h-1.359V960.8a2.691,2.691,0,0,0-4.579-1.9l-.029.028-.921-.921a1.979,1.979,0,0,0,.092-.571,2.02,2.02,0,0,0-.457-1.27,8.767,8.767,0,0,1,1.857-2.9,4.755,4.755,0,1,0,4.716-5.347c-.066,0-.131.007-.2.009a8.9,8.9,0,0,0,.855-3.407h.021v.037a2.69,2.69,0,0,0,4.578,1.9l.029-.028.962.962-.029.029A2.69,2.69,0,0,0,280.2,952h.037Z" fill="#7d6eb2"/>
    </g>
  </g>
</svg>
