<svg xmlns="http://www.w3.org/2000/svg" xmlns:xlink="http://www.w3.org/1999/xlink" width="91.928" height="91.927" viewBox="0 0 91.928 91.927">
  <defs>
    <radialGradient id="radial-gradient" cx="0.076" cy="0.019" r="1.465" gradientTransform="translate(0.001)" gradientUnits="objectBoundingBox">
      <stop offset="0" stop-color="#f6f6f7"/>
      <stop offset="0.477" stop-color="#f9f9fa"/>
      <stop offset="0.715" stop-color="#fff"/>
    </radialGradient>
  </defs>
  <g id="Grupo_58721" data-name="Grupo 58721" transform="translate(12710.428 3361.857)">
    <g id="Grupo_58662" data-name="Grupo 58662" transform="translate(-12927.428 -4103.191)">
      <g id="Grupo_42274" data-name="Grupo 42274" transform="translate(142 768.333)">
        <g id="Grupo_18423" data-name="Grupo 18423" transform="translate(75 -27)">
          <g id="Grupo_18421" data-name="Grupo 18421">
            <g id="Grupo_18420" data-name="Grupo 18420">
              <g id="Grupo_18419" data-name="Grupo 18419">
                <path id="Trazado_40936" data-name="Trazado 40936" d="M286.55,2191.684a45.964,45.964,0,1,1-45.963-45.962A45.963,45.963,0,0,1,286.55,2191.684Z" transform="translate(-194.623 -2145.721)" fill="#fff"/>
              </g>
            </g>
          </g>
          <path id="Trazado_40937" data-name="Trazado 40937" d="M286.23,2191.334a45.963,45.963,0,1,0-45.963,45.965A45.782,45.782,0,0,0,286.23,2191.334Z" transform="translate(-194.303 -2145.372)" fill="url(#radial-gradient)"/>
          <path id="Trazado_40938" data-name="Trazado 40938" d="M272.56,2188.562a35.084,35.084,0,1,0-35.084,35.084A34.953,34.953,0,0,0,272.56,2188.562Z" transform="translate(-191.373 -2142.446)" fill="none" stroke="#31aebb" stroke-miterlimit="10" stroke-width="4"/>
          <g id="Grupo_18422" data-name="Grupo 18422" transform="translate(8.143 25.805)">
            <path id="Trazado_40939" data-name="Trazado 40939" d="M279.682,2164.488a45.969,45.969,0,0,1-79.137,45.773,45.823,45.823,0,0,0,79.137-45.773Z" transform="translate(-200.545 -2164.488)" fill="#eceef0"/>
          </g>
        </g>
      </g>
    </g>
    <g id="Grupo_58663" data-name="Grupo 58663" transform="translate(-13481.652 -5172.864)">
      <path id="Trazado_17825" data-name="Trazado 17825" d="M819.042,1836.22c.347.145.7.281,1.042.439a6.939,6.939,0,0,1,3.753,8.306c-.033.11-.061.223-.088.324l1.474.97c.092-.267.182-.552.288-.832a6.962,6.962,0,0,1,9.581-3.74,2.865,2.865,0,0,1,.273.145.682.682,0,0,1,.266.917.692.692,0,0,1-.889.258,12.549,12.549,0,0,0-1.744-.6,5.6,5.6,0,0,0-4.08,10.188,5.347,5.347,0,0,0,5.784.219,5.405,5.405,0,0,0,2.9-5.1,5.517,5.517,0,0,0-.76-2.65.914.914,0,0,1-.131-.652.753.753,0,0,1,.51-.452.905.905,0,0,1,.684.34,6.332,6.332,0,0,1,1,4.261,6.832,6.832,0,0,1-4.688,5.931c-.055.021-.11.043-.163.068-.012.005-.018.022.053-.071.087.954.16,1.812.252,2.667a.578.578,0,0,0,.2.314,6.055,6.055,0,0,1,0,9.256.634.634,0,0,0-.2.44,6.094,6.094,0,0,1-4.427,6.152.476.476,0,0,0-.27.321,4.327,4.327,0,0,1-2.63,3.368.562.562,0,0,0-.292.32,5.17,5.17,0,0,1-9.454,1.758c-.024-.035-.054-.065-.107-.126-.076.1-.143.188-.208.278a4.969,4.969,0,0,1-5.273,2.175,4.908,4.908,0,0,1-4.016-3.881.822.822,0,0,0-.52-.616,4.145,4.145,0,0,1-2.439-3.2.459.459,0,0,0-.388-.433,6.026,6.026,0,0,1-4.325-5.989.721.721,0,0,0-.268-.64,6.03,6.03,0,0,1-.022-9.088.773.773,0,0,0,.294-.676,6.679,6.679,0,0,1,.076-1.143c.056-.376.163-.745.252-1.135-.447-.208-.921-.4-1.367-.642a6.948,6.948,0,0,1-2.58-9.6c.285-.462.722-.586,1.063-.284a.7.7,0,0,1,.069.994,5.484,5.484,0,0,0-.776,2.865,5.61,5.61,0,0,0,11.147.88,5.358,5.358,0,0,0-2.233-5.425,5.437,5.437,0,0,0-5.811-.5,1.918,1.918,0,0,1-.448.178.593.593,0,0,1-.706-.4.642.642,0,0,1,.338-.856,6.837,6.837,0,0,1,3.48-.84,6.922,6.922,0,0,1,6.527,5.045c.025.083.06.164.091.249l1.486-.982a6.72,6.72,0,0,1-.225-3.812,6.841,6.841,0,0,1,4.579-5.086c.119-.043.23-.108.345-.163h.531c.137.256.375.508.385.769.016.4-.362.525-.7.619-.042.012-.086.02-.128.034a5.616,5.616,0,1,0,3.41-.037c-.335-.107-.716-.219-.7-.617.01-.26.25-.512.386-.768Zm-2.55,33.37c-.594.154-1.162.343-1.745.441a.657.657,0,0,1-.831-.582c-.035-.389.243-.677.712-.738a1.924,1.924,0,0,0,1.884-2.126c.008-.855,0-1.71,0-2.566a1.275,1.275,0,0,0-.029-.231c-.815.226-1.595.479-2.392.65a.66.66,0,0,1-.882-.561c-.045-.4.245-.655.743-.761a10.015,10.015,0,0,0,1.474-.431,1.484,1.484,0,0,0,1.11-1.728,24.422,24.422,0,0,1-.024-2.814c-.61.161-1.176.357-1.76.45a.66.66,0,0,1-.838-.622c-.014-.392.266-.65.75-.693a1.887,1.887,0,0,0,1.836-1.9c.03-1.725.008-3.45.015-5.175,0-.236-.075-.326-.32-.363a6.861,6.861,0,0,1-4.817-3.05c-.055-.081-.122-.153-.24-.3l-1.509,1.153a4.169,4.169,0,0,1,3.056,2.277,7.132,7.132,0,0,1,.482,1.905.61.61,0,0,1-.644.684.638.638,0,0,1-.664-.625c-.026-.2-.039-.411-.076-.614a2.808,2.808,0,0,0-2.521-2.268c-.009.011-.025.021-.027.033a6.985,6.985,0,0,1-7.291,5.813.328.328,0,0,0-.268.14c-.144.479-.259.968-.409,1.551a6.314,6.314,0,0,1,3.477-.416,5.973,5.973,0,0,1,3.051,1.5.649.649,0,0,1,.09.976.677.677,0,0,1-.955.033c-.059-.045-.112-.1-.169-.143a4.694,4.694,0,0,0-7.541,2.234,4.619,4.619,0,0,0,1.119,4.661c.074-.15.128-.25.176-.355a5.715,5.715,0,0,1,2.279-2.63.921.921,0,0,1,.727-.053.664.664,0,0,1,.328.55,1.153,1.153,0,0,1-.435.654,4.67,4.67,0,0,0-1.979,4.867c.4,2.338,3.3,4.939,6.347,3.051.013-.008.025-.016.038-.023a.671.671,0,0,1,.966.2.651.651,0,0,1-.319.961,12.745,12.745,0,0,1-1.453.632,8.373,8.373,0,0,1-.985.24,3.042,3.042,0,0,0,1.119,1.886,2.012,2.012,0,0,0,2.35.228,2.946,2.946,0,0,0,1.645-2.548c.042-.525.3-.781.725-.748s.634.35.605.866a4.311,4.311,0,0,1-3.173,3.926c-.108.03-.213.069-.311.1a.784.784,0,0,0,.008.123,3.821,3.821,0,0,0,4.045,2.863,3.759,3.759,0,0,0,3.444-3.6c.056-2.284.022-4.57.026-6.855A.506.506,0,0,0,816.492,1869.59Zm8.629-20.616a2.9,2.9,0,0,0-2.6,2.777q-.077.8-.715.759c-.414-.028-.64-.344-.614-.859a4.275,4.275,0,0,1,2.971-3.846l.569-.185-1.506-1.115a2,2,0,0,0-.16.171,6.986,6.986,0,0,1-4.928,3.188.415.415,0,0,0-.263.3c-.013,1.783-.022,3.568.006,5.351a1.675,1.675,0,0,0,.992,1.514,3.879,3.879,0,0,0,.97.254.692.692,0,0,1,.613.694.656.656,0,0,1-.668.628,2.024,2.024,0,0,1-.612-.06c-.43-.127-.849-.289-1.315-.451,0,1.25-.008,2.487.011,3.723a.613.613,0,0,0,.26.372,4.622,4.622,0,0,0,2.344.946.684.684,0,0,1,.684.76.649.649,0,0,1-.807.556,13.4,13.4,0,0,1-1.623-.4,6.763,6.763,0,0,1-.833-.369,1.113,1.113,0,0,0-.035.176c0,.944-.008,1.887,0,2.831a1.9,1.9,0,0,0,1.843,2.023c.485.055.764.318.748.7a.66.66,0,0,1-.845.613c-.583-.095-1.15-.286-1.732-.437.006-.024-.015.017-.015.058,0,2.315-.036,4.63.025,6.943a3.518,3.518,0,0,0,2.226,3.244,3.644,3.644,0,0,0,3.915-.463,3.579,3.579,0,0,0,1.372-2.2l-.34-.091a4.309,4.309,0,0,1-3.162-3.932c-.026-.532.223-.856.661-.857.4,0,.629.24.664.719a2.922,2.922,0,0,0,1.746,2.617,2.444,2.444,0,0,0,3.319-2.184,2.034,2.034,0,0,1-.341-.068c-.711-.269-1.433-.517-2.124-.832a.613.613,0,0,1-.255-.875.662.662,0,0,1,.914-.261,1.631,1.631,0,0,1,.155.084,3.915,3.915,0,0,0,5.374-1.107,4.673,4.673,0,0,0-1.068-6.831c-.454-.32-.569-.683-.326-1.034s.615-.376,1.084-.058a5.949,5.949,0,0,1,2.138,2.533c.052.115.114.226.191.38a4.568,4.568,0,0,0,1.228-4.237,4.7,4.7,0,0,0-7.69-2.615c-.429.36-.806.384-1.089.07-.3-.334-.23-.711.228-1.094a5.879,5.879,0,0,1,4.768-1.392c.513.072,1.015.224,1.6.358-.1-.452-.2-.862-.294-1.275-.059-.271-.186-.359-.49-.348a6.766,6.766,0,0,1-5-1.843A6.891,6.891,0,0,1,825.121,1848.974Z" fill="#26aab7"/>
      <path id="Trazado_17826" data-name="Trazado 17826" d="M863.947,1853.114c0,.507-.026.962.017,1.411.011.117.224.29.36.307.363.044.735.007,1.1.019a1.526,1.526,0,0,1,1.554,1.577c.009.412.012.825,0,1.237a1.533,1.533,0,0,1-1.536,1.553c-.707.014-1.414.009-2.121,0a.662.662,0,1,1-.019-1.323c.633-.015,1.267-.016,1.9,0,.314.008.471-.085.449-.424a7.154,7.154,0,0,1,0-.883c.019-.315-.124-.419-.42-.406-.338.013-.678.013-1.016,0a1.561,1.561,0,0,1-1.608-1.629c-.013-.663-.007-1.326,0-1.989.008-.539.245-.772.793-.776q1.392-.01,2.784,0c.508,0,.8.27.787.691-.013.4-.295.634-.79.637C865.469,1853.117,864.748,1853.114,863.947,1853.114Z" transform="translate(-32.801 -7.597)" fill="#26aab7"/>
      <path id="Trazado_17827" data-name="Trazado 17827" d="M805.991,1854.8c-.321.038-.579.086-.839.1a.607.607,0,0,1-.673-.564.577.577,0,0,1,.5-.718c.766-.076,1.029-.5,1.035-1.21a.588.588,0,0,1,.638-.6.623.623,0,0,1,.652.544.987.987,0,0,1,.024.219c0,1.959.006,3.919,0,5.878,0,.494-.257.773-.659.779s-.669-.269-.673-.757c-.01-1.06,0-2.121,0-3.182C805.992,1855.135,805.991,1854.979,805.991,1854.8Z" transform="translate(-4.417 -7.612)" fill="#26aab7"/>
      <path id="Trazado_17828" data-name="Trazado 17828" d="M835.826,1849.543c-.265,0-.532.019-.795,0a1.55,1.55,0,0,1-1.375-1.44.671.671,0,0,1,.549-.746.616.616,0,0,1,.752.509c.057.313.215.387.486.36.015,0,.03,0,.044,0,1.459-.038,1.2.285,1.233-1.317.005-.28-.109-.406-.4-.389a5.618,5.618,0,0,1-.707,0,.656.656,0,0,1-.674-.669.641.641,0,0,1,.677-.658c.015,0,.03,0,.044,0,.328-.037.891.008.94-.129a3.759,3.759,0,0,0,.091-1.34c0-.092-.2-.233-.331-.254-.244-.041-.5,0-.749-.016-.358-.024-.6.023-.689.467a.57.57,0,0,1-.773.4.644.644,0,0,1-.493-.738,1.543,1.543,0,0,1,1.431-1.437,9.178,9.178,0,0,1,1.5,0,1.524,1.524,0,0,1,1.452,1.552,4.012,4.012,0,0,1-.225,2.081.2.2,0,0,0,0,.166,3.633,3.633,0,0,1,.223,1.905,1.556,1.556,0,0,1-1.689,1.716c-.177,0-.354,0-.53,0Z" transform="translate(-18.667 -2.873)" fill="#26aab7"/>
    </g>
  </g>
</svg>
