<svg xmlns="http://www.w3.org/2000/svg" xmlns:xlink="http://www.w3.org/1999/xlink" width="91.928" height="91.927" viewBox="0 0 91.928 91.927">
  <defs>
    <radialGradient id="radial-gradient" cx="0.076" cy="0.019" r="1.465" gradientTransform="translate(0.001)" gradientUnits="objectBoundingBox">
      <stop offset="0" stop-color="#f6f6f7"/>
      <stop offset="0.477" stop-color="#f9f9fa"/>
      <stop offset="0.715" stop-color="#fff"/>
    </radialGradient>
  </defs>
  <g id="Grupo_58718" data-name="Grupo 58718" transform="translate(12710.428 4196.986)">
    <g id="Grupo_58645" data-name="Grupo 58645" transform="translate(-12927.428 -4938.319)">
      <g id="Grupo_42274" data-name="Grupo 42274" transform="translate(142 768.333)">
        <g id="Grupo_18423" data-name="Grupo 18423" transform="translate(75 -27)">
          <g id="Grupo_18421" data-name="Grupo 18421">
            <g id="Grupo_18420" data-name="Grupo 18420">
              <g id="Grupo_18419" data-name="Grupo 18419">
                <path id="Trazado_40936" data-name="Trazado 40936" d="M286.55,2191.684a45.964,45.964,0,1,1-45.963-45.962A45.963,45.963,0,0,1,286.55,2191.684Z" transform="translate(-194.623 -2145.721)" fill="#fff"/>
              </g>
            </g>
          </g>
          <path id="Trazado_40937" data-name="Trazado 40937" d="M286.23,2191.334a45.963,45.963,0,1,0-45.963,45.965A45.782,45.782,0,0,0,286.23,2191.334Z" transform="translate(-194.303 -2145.372)" fill="url(#radial-gradient)"/>
          <path id="Trazado_40938" data-name="Trazado 40938" d="M272.56,2188.562a35.084,35.084,0,1,0-35.084,35.084A34.953,34.953,0,0,0,272.56,2188.562Z" transform="translate(-191.373 -2142.446)" fill="none" stroke="#7d70b0" stroke-miterlimit="10" stroke-width="4"/>
          <g id="Grupo_18422" data-name="Grupo 18422" transform="translate(8.143 25.805)">
            <path id="Trazado_40939" data-name="Trazado 40939" d="M279.682,2164.488a45.969,45.969,0,0,1-79.137,45.773,45.823,45.823,0,0,0,79.137-45.773Z" transform="translate(-200.545 -2164.488)" fill="#eceef0"/>
          </g>
        </g>
      </g>
    </g>
    <g id="Grupo_58647" data-name="Grupo 58647" transform="translate(-13280.513 -5651.252)">
      <path id="Trazado_17818" data-name="Trazado 17818" d="M616.353,1474.546c.555.389.442.989.464,1.6A24.176,24.176,0,0,1,640.15,1499.5c.27,0,.516-.008.761,0,.517.02.833.3.836.739s-.308.725-.826.758c-.232.015-.466,0-.767,0a24.186,24.186,0,0,1-23.31,23.342c-.136.623.229,1.606-.838,1.568-.945-.033-.633-.919-.743-1.567a24.176,24.176,0,0,1-23.309-23.314c-.582-.058-1.214.094-1.6-.484v-.6c.389-.592,1.031-.4,1.6-.471a24.191,24.191,0,0,1,23.335-23.332c.021-.609-.093-1.208.464-1.6Zm22.229,24.919a22.445,22.445,0,0,0-21.745-21.747c-.116.573.209,1.494-.766,1.51-1.025.018-.668-.945-.818-1.517-11.977.2-21.686,10.521-21.72,21.79.23,0,.462-.008.693,0a.766.766,0,0,1,.836.742c0,.425-.321.719-.832.756-.242.017-.484.024-.724.035a22.482,22.482,0,0,0,21.753,21.738c.137-.567-.206-1.495.776-1.51,1.024-.015.667.947.819,1.518,12.2-.215,21.755-10.815,21.708-21.748-.576-.1-1.46.188-1.488-.752C637.041,1499.239,638,1499.6,638.581,1499.465Z" fill="#7d6eb2"/>
      <path id="Trazado_17819" data-name="Trazado 17819" d="M614.3,1511.514a5.466,5.466,0,0,1-1.089-3.977c.029-1.22,0-2.441.008-3.663a3.078,3.078,0,0,1,3.3-3.283c.668,0,1.335,0,2.034,0,.056-.314.091-.609.164-.894a3.462,3.462,0,0,1,3.353-2.6c1.287-.029,2.576-.031,3.863,0a3.439,3.439,0,0,1,3.431,3.043c.021.132.042.263.072.448.682,0,1.364,0,2.046,0a3.076,3.076,0,0,1,3.3,3.24c.015,1.488,0,2.977.01,4.465a4.918,4.918,0,0,1-1.082,3.207c.15.1.28.186.417.266a8.116,8.116,0,0,1,3.881,5.137,2.68,2.68,0,0,1-1.371,3.139,13.88,13.88,0,0,1-9.328,1.408,9.414,9.414,0,0,0-1.533.017c-1.416-.021-2.832-.078-4.247-.075a13.4,13.4,0,0,0-1.732.188,13.632,13.632,0,0,1-8.478-1.563A2.673,2.673,0,0,1,610,1516.9a8.121,8.121,0,0,1,3.881-5.135C614,1511.692,614.127,1511.616,614.3,1511.514Zm9.707,8.555a14.327,14.327,0,0,0,6.826-1.711,1.542,1.542,0,0,0,.862-1.961,7.846,7.846,0,0,0-4.617-5.334.941.941,0,0,0-.684.023,5.521,5.521,0,0,1-4.8,0,.935.935,0,0,0-.683-.021,7.867,7.867,0,0,0-4.609,5.342,1.539,1.539,0,0,0,.872,1.957A14.37,14.37,0,0,0,624,1520.069Zm3.872-17.568c0-.7.055-1.437-.014-2.16a1.86,1.86,0,0,0-1.846-1.722c-1.337-.044-2.676-.042-4.013-.008a1.8,1.8,0,0,0-1.824,1.558,26.172,26.172,0,0,0-.022,2.8c.539-.175,1.059-.349,1.583-.512a.756.756,0,1,1,.48,1.421c-.6.211-1.209.386-1.8.617a.575.575,0,0,0-.3.406,11.53,11.53,0,0,0-.008,1.454,3.882,3.882,0,0,0,3.618,3.752,3.833,3.833,0,0,0,4.118-3.413,15.164,15.164,0,0,0,.041-2.053.47.47,0,0,0-.218-.347,20.946,20.946,0,0,0-2.119-.976c-.582-.211-.868-.486-.751-.973.106-.443.5-.656,1.084-.5C626.547,1502.031,627.2,1502.276,627.876,1502.5Zm.18,7.293c.472.289.9.521,1.289.8s.744.622,1.141.894a.722.722,0,0,0,.542.071,3.143,3.143,0,0,0,2.218-2.751,14.566,14.566,0,0,0,.02-1.5.606.606,0,0,0-.192-.42,3.676,3.676,0,0,0-3.353-.662.533.533,0,0,0-.323.357A5.688,5.688,0,0,1,628.056,1509.794Zm2.77,10.275a10.432,10.432,0,0,0,4.941-1.268,1.25,1.25,0,0,0,.735-1.691,6.768,6.768,0,0,0-3.546-4.269.9.9,0,0,0-1.075.022c.45,1.138.958,2.209,1.3,3.332a2.92,2.92,0,0,1-1.431,3.384C631.446,1519.753,631.133,1519.906,630.826,1520.069Zm-14.7-7.205c-.273-.262-.656-.233-1.108,0a6.693,6.693,0,0,0-3.526,4.273,1.175,1.175,0,0,0,.725,1.636c1.188.472,2.408.869,3.629,1.248a7.19,7.19,0,0,0,1.322.16,2.706,2.706,0,0,0-.734-.508,2.934,2.934,0,0,1-1.57-3.616C615.186,1514.982,615.682,1513.96,616.122,1512.863Zm2.444-6.793a5.159,5.159,0,0,0-.707.1c-.609.175-1.212.368-1.814.566-1.425.468-1.431.471-1.306,1.994a3.145,3.145,0,0,0,2,2.765.805.805,0,0,0,.982-.159,21.557,21.557,0,0,1,1.874-1.325c.1-.071.209-.137.337-.221A5.779,5.779,0,0,1,618.566,1506.07Zm0-3.967c-.838,0-1.622-.029-2.4.009a1.429,1.429,0,0,0-1.37,1.134,20.818,20.818,0,0,0-.02,2.279l3.793-1.1Zm10.865,2.63a5.368,5.368,0,0,1,3.831.469c0-.606.024-1.123-.006-1.637a1.451,1.451,0,0,0-1.307-1.422c-.824-.068-1.658-.016-2.518-.016Z" transform="translate(-7.946 -9.16)" fill="#7d6eb2"/>
      <path id="Trazado_17820" data-name="Trazado 17820" d="M620.2,1524a19.592,19.592,0,0,1-4.773-38.6,19.113,19.113,0,0,1,18.232,4.721c.436.393.49.835.169,1.183s-.767.324-1.229-.107a17.26,17.26,0,0,0-9.633-4.676c-6.887-.92-12.654,1.276-16.973,6.716a18.09,18.09,0,1,0,31.888,15.07,17.8,17.8,0,0,0-2.738-14.164,1.721,1.721,0,0,1-.271-.528.6.6,0,0,1,.367-.782,1.724,1.724,0,0,1,.87.119c.116.036.189.223.274.346A19.578,19.578,0,0,1,620.2,1524Z" transform="translate(-4.165 -4.157)" fill="#7d6eb2"/>
    </g>
  </g>
</svg>
