<svg xmlns="http://www.w3.org/2000/svg" xmlns:xlink="http://www.w3.org/1999/xlink" width="91.928" height="91.927" viewBox="0 0 91.928 91.927">
  <defs>
    <radialGradient id="radial-gradient" cx="0.076" cy="0.019" r="1.465" gradientTransform="translate(0.001)" gradientUnits="objectBoundingBox">
      <stop offset="0" stop-color="#f6f6f7"/>
      <stop offset="0.477" stop-color="#f9f9fa"/>
      <stop offset="0.715" stop-color="#fff"/>
    </radialGradient>
  </defs>
  <g id="Grupo_58719" data-name="Grupo 58719" transform="translate(12710.428 3680.319)">
    <g id="Grupo_58658" data-name="Grupo 58658" transform="translate(-12927.428 -4421.652)">
      <g id="Grupo_42274" data-name="Grupo 42274" transform="translate(142 768.333)">
        <g id="Grupo_18423" data-name="Grupo 18423" transform="translate(75 -27)">
          <g id="Grupo_18421" data-name="Grupo 18421">
            <g id="Grupo_18420" data-name="Grupo 18420">
              <g id="Grupo_18419" data-name="Grupo 18419">
                <path id="Trazado_40936" data-name="Trazado 40936" d="M286.55,2191.684a45.964,45.964,0,1,1-45.963-45.962A45.963,45.963,0,0,1,286.55,2191.684Z" transform="translate(-194.623 -2145.721)" fill="#fff"/>
              </g>
            </g>
          </g>
          <path id="Trazado_40937" data-name="Trazado 40937" d="M286.23,2191.334a45.963,45.963,0,1,0-45.963,45.965A45.782,45.782,0,0,0,286.23,2191.334Z" transform="translate(-194.303 -2145.372)" fill="url(#radial-gradient)"/>
          <path id="Trazado_40938" data-name="Trazado 40938" d="M272.56,2188.562a35.084,35.084,0,1,0-35.084,35.084A34.953,34.953,0,0,0,272.56,2188.562Z" transform="translate(-191.373 -2142.446)" fill="none" stroke="#31aebb" stroke-miterlimit="10" stroke-width="4"/>
          <g id="Grupo_18422" data-name="Grupo 18422" transform="translate(8.143 25.805)">
            <path id="Trazado_40939" data-name="Trazado 40939" d="M279.682,2164.488a45.969,45.969,0,0,1-79.137,45.773,45.823,45.823,0,0,0,79.137-45.773Z" transform="translate(-200.545 -2164.488)" fill="#eceef0"/>
          </g>
        </g>
      </g>
    </g>
    <g id="Grupo_58659" data-name="Grupo 58659" transform="translate(-12925.546 -5496.537)">
      <path id="Trazado_17821" data-name="Trazado 17821" d="M277.6,1843.5c-3.716-4.225-8.946-6.084-14.528-6.084-10.015,0-16.739,7.857-17.5,17.64a62.47,62.47,0,0,1-5.152,6.6,1.232,1.232,0,0,0-.106.143,3.794,3.794,0,0,0,3.339,5.916,7.229,7.229,0,0,0,1.447-.306l1.4,6.827a4.051,4.051,0,0,0,5,3.8l5.234-.5v1.551a1.258,1.258,0,1,0,2.515,0v-2.935a1.257,1.257,0,0,0-1.378-1.252c-7.3.7-6.77.642-6.92.683a1.537,1.537,0,0,1-1.942-1.483c0-.186.114.426-1.713-8.461a1.258,1.258,0,0,0-1.52-.971l-2.259.532a1.27,1.27,0,0,1-1.129-1.979c1.308-1.533,3.4-4.053,4.566-5.692.888-1.242,1.079-1.731,1.11-2.157.649-9,6.746-15.506,15.134-15.439,12.224.1,16.683,9.413,16.787,17.362a16.622,16.622,0,0,1-6.381,13.206,1.257,1.257,0,0,0-.467,1.083c-.008.1-.005-.436-.005,7.5a1.258,1.258,0,1,0,2.515,0v-7.014a19.191,19.191,0,0,0,6.853-14.812A21.151,21.151,0,0,0,277.6,1843.5Z" transform="translate(0 0)" fill="#26aab7"/>
      <path id="Trazado_17822" data-name="Trazado 17822" d="M275.151,1849.608a12.617,12.617,0,1,0,12.618,12.617,12.632,12.632,0,0,0-12.618-12.617Zm1.215,22.646v-4.077a9.676,9.676,0,0,0,3.94-1.233,6.279,6.279,0,0,0,2.916-4.669,1.257,1.257,0,0,0-.618-1.173c-.126-.074-3.125-1.8-5.864-.174a4.343,4.343,0,0,0-.374.249v-4.248a1.258,1.258,0,1,0-2.515,0v2.094a7.34,7.34,0,0,0-4.7-1.076,1.259,1.259,0,0,0-1.1,1.083c-.021.159-.491,3.919,1.7,6.113a7.643,7.643,0,0,0,4.089,2v5.1a10.1,10.1,0,1,1,2.515.011Zm.207-6.637a4.012,4.012,0,0,1,1.45-2.526,3.072,3.072,0,0,1,2.484-.158,3.506,3.506,0,0,1-1.483,1.846,6.889,6.889,0,0,1-2.451.837Zm-2.836-1.067a4.817,4.817,0,0,1-2.2-1.186,4.534,4.534,0,0,1-1.016-2.91,2.955,2.955,0,0,1,2.337,1.143,8.372,8.372,0,0,1,.876,2.953Z" transform="translate(-11.386 -6.066)" fill="#26aab7"/>
    </g>
  </g>
</svg>
