<svg xmlns="http://www.w3.org/2000/svg" width="73" height="73" viewBox="0 0 73 73">
  <g id="Grupo_58630" data-name="Grupo 58630" transform="translate(8098.5 6563.426)">
    <g id="Grupo_58623" data-name="Grupo 58623" transform="translate(-8098.24 -6563.194)">
      <rect id="Rectángulo_31127" data-name="Rectángulo 31127" width="73" height="73" transform="translate(-0.26 -0.231)" fill="none"/>
      <g id="_034-computer" data-name="034-computer" transform="translate(7.53 8.535)">
        <path id="Trazado_129812" data-name="Trazado 129812" d="M62.247,56h-4.46a4.682,4.682,0,0,0-4.7,4.718V88.353h4.46V60.718A4.682,4.682,0,0,1,62.247,56Z" transform="translate(-51.739 -54.506)" fill="#d4e1f4"/>
        <path id="Trazado_129813" data-name="Trazado 129813" d="M58.546,309.29v-3.968h-4.46v3.968a4.768,4.768,0,0,0,4.7,4.818h4.46A4.768,4.768,0,0,1,58.546,309.29Z" transform="translate(-52.604 -269.962)" fill="#d4e1f4"/>
        <path id="Trazado_129814" data-name="Trazado 129814" d="M49.423,90.672H71.269v10.019H60.86a.815.815,0,0,0,0,1.63h23.1a.815.815,0,0,0,0-1.63H72.9V90.672H94.744a6.256,6.256,0,0,0,6.248-6.248V51.248A6.256,6.256,0,0,0,94.744,45H49.423a6.256,6.256,0,0,0-6.248,6.248V84.424A6.256,6.256,0,0,0,49.423,90.672Zm0-44.042H94.744a4.624,4.624,0,0,1,4.618,4.618V78.811H44.8V51.248A4.624,4.624,0,0,1,49.423,46.63ZM44.8,80.441H99.362v3.983a4.624,4.624,0,0,1-4.618,4.618H49.423A4.624,4.624,0,0,1,44.8,84.424Z" transform="translate(-43.175 -45)" fill="#7d6eb2"/>
        <path id="Trazado_129815" data-name="Trazado 129815" d="M88.358,121.383a7.36,7.36,0,1,0-6.617-4.136A7.36,7.36,0,0,0,88.358,121.383Zm-4.513-10.891a5.73,5.73,0,1,1-1.217,3.532A5.73,5.73,0,0,1,83.846,110.492Z" transform="translate(-75.86 -98.287)" fill="#26aab7"/>
        <path id="Trazado_129816" data-name="Trazado 129816" d="M111.7,148.213a.815.815,0,0,0,1.134.1l3.658-2.976a.815.815,0,1,0-1.029-1.264l-3.041,2.474-1.054-1.234a.815.815,0,0,0-1.239,1.059Z" transform="translate(-100.866 -130.46)" fill="#26aab7"/>
        <path id="Trazado_129817" data-name="Trazado 129817" d="M81.815,230.63h12.9a.815.815,0,0,0,0-1.63h-12.9a.815.815,0,0,0,0,1.63Z" transform="translate(-75.862 -204.007)" fill="#26aab7"/>
        <path id="Trazado_129818" data-name="Trazado 129818" d="M81.815,260.63h7.607a.815.815,0,1,0,0-1.63H81.815a.815.815,0,1,0,0,1.63Z" transform="translate(-75.862 -229.932)" fill="#26aab7"/>
        <path id="Trazado_129819" data-name="Trazado 129819" d="M224.756,95.308l-.208,4.177a.815.815,0,0,0,.6.827l4.036,1.092,2.286,3.5a.815.815,0,0,0,.973.316l3.907-1.489,3.908,1.489a.815.815,0,0,0,.972-.316l2.286-3.5,4.036-1.092a.815.815,0,0,0,.6-.827l-.208-4.176,2.623-3.256a.815.815,0,0,0,0-1.023l-2.623-3.256.208-4.176a.815.815,0,0,0-.6-.827l-4.036-1.093-2.286-3.5a.815.815,0,0,0-.972-.316l-3.908,1.489-3.907-1.489a.815.815,0,0,0-.973.316l-2.286,3.5-4.036,1.093a.815.815,0,0,0-.6.827l.208,4.176-2.624,3.256a.815.815,0,0,0,0,1.023Zm1.464-6.754A.815.815,0,0,0,226.4,88l-.191-3.83,3.7-1a.815.815,0,0,0,.47-.341l2.1-3.211,3.584,1.365a.814.814,0,0,0,.58,0l3.584-1.365,2.1,3.211a.815.815,0,0,0,.469.341l3.7,1L246.3,88a.815.815,0,0,0,.179.552l2.406,2.987-2.407,2.986a.816.816,0,0,0-.179.552l.191,3.831-3.7,1a.815.815,0,0,0-.469.341l-2.1,3.211-3.584-1.365a.815.815,0,0,0-.58,0l-3.584,1.365-2.1-3.211a.815.815,0,0,0-.469-.341l-3.7-1,.191-3.831a.815.815,0,0,0-.179-.552l-2.406-2.987Z" transform="translate(-197.669 -73.35)" fill="#26aab7"/>
        <path id="Trazado_129820" data-name="Trazado 129820" d="M281.953,151.688c.391,0,.522-.187.563-.343l.415-1.455h2.488l.415,1.453c.041.157.173.345.563.345.406,0,1-.264,1-.679a.4.4,0,0,0-.018-.1l-2.19-7.142c-.121-.4-.6-.546-1.015-.546-.388,0-.883.143-1,.545l-2.184,7.119a.6.6,0,0,0-.024.127C280.958,151.43,281.538,151.688,281.953,151.688Zm1.322-3.087.894-3.155.894,3.155Z" transform="translate(-248.659 -129.876)" fill="#26aab7"/>
        <path id="Trazado_129821" data-name="Trazado 129821" d="M333.785,152.123h2a2.428,2.428,0,0,0,2.725-2.657v-3.087a2.428,2.428,0,0,0-2.725-2.658h-2c-.4,0-.712.228-.712.52V151.6C333.073,151.9,333.386,152.123,333.785,152.123Zm3.122-2.657c0,.818-.377,1.232-1.119,1.232h-1.108v-5.552h1.108c.743,0,1.119.415,1.119,1.233Z" transform="translate(-293.695 -130.311)" fill="#26aab7"/>
      </g>
    </g>
  </g>
</svg>
