<svg xmlns="http://www.w3.org/2000/svg" xmlns:xlink="http://www.w3.org/1999/xlink" width="300.5" height="244.5" viewBox="0 0 300.5 244.5">
  <defs>
    <clipPath id="clip-path">
      <rect id="Rectángulo_31245" data-name="Rectángulo 31245" width="252" height="244" transform="translate(-71 1765.562)" fill="#fff" stroke="#707070" stroke-width="1"/>
    </clipPath>
  </defs>
  <g id="Grupo_58725" data-name="Grupo 58725" transform="translate(12751 1611.441)">
    <g id="Enmascarar_grupo_50" data-name="Enmascarar grupo 50" transform="translate(-12631.5 -3377.003)" clip-path="url(#clip-path)">
      <g id="freepik--Character--inject-7" transform="translate(-61.954 1793.96)">
        <path id="Trazado_132166" data-name="Trazado 132166" d="M146.61,183.855l8.5-2.969,27.841-.5,10.3,2.309,3.034,39.379-12.553,6.949-29.1-21.195Z" transform="translate(-106.811 -102.638)" fill="#ffbe9d"/>
        <path id="Trazado_132167" data-name="Trazado 132167" d="M168.335,25.043c-2.754-1.749-3.424-5.806-1.932-8.72a10.666,10.666,0,0,1,7.876-5.177,15.1,15.1,0,0,1,12.952,4.314c1.767,1.836,3.213,4.218,5.622,5.049,2.157.734,4.457.073,6.678.353a10.1,10.1,0,0,1,7.068,5.094,21.759,21.759,0,0,1,2.515,8.633c.326,2.754.542,5.751,2.442,7.747s4.778,2.364,7.077,3.759a9.712,9.712,0,0,1,2.882,13.241c-.918,1.336-2.226,2.556-2.322,4.163s.854,2.786,1.294,4.19a6.536,6.536,0,0,1-4.7,7.958,5.906,5.906,0,0,1-.895.165c-1.909.11-3.961-.638-5.677.216s-2.332,2.905-3.419,4.47a8.2,8.2,0,0,1-9.982,2.575c-1.414-.688-2.754-1.836-4.314-1.726s-2.8,1.437-4.319,1.739c-2.006.386-3.915-1.079-5.113-2.754s-2.019-3.626-3.552-4.984c-2.006-1.781-4.814-2.212-7.343-3.084a20.731,20.731,0,0,1-11.708-29.043" transform="translate(-112.532 -10.982)" fill="#263238"/>
        <path id="Trazado_132168" data-name="Trazado 132168" d="M243.645,118.122a5.613,5.613,0,0,1,2.235-1.464h-.174a3.484,3.484,0,0,1,.486-.087,2.3,2.3,0,0,1,1.749.216h0a4.158,4.158,0,0,1,2.263,1.974,4.906,4.906,0,0,1-.583,5.049,3.739,3.739,0,0,1-6.861-1.285,4.672,4.672,0,0,1,.886-4.4Z" transform="translate(-158.716 -68.064)" fill="#c1507f"/>
        <path id="Trazado_132169" data-name="Trazado 132169" d="M162.377,106.856l-2.933-53.7a4.59,4.59,0,0,1,3.947-4.75l24.013-6.8c7.724-1.079,13.145,8.353,13.856,16.11.785,8.633,1.414,19.175.569,25.651-1.68,13.016-11.566,14.948-11.566,14.948l.138,7.421-.785,20.194Z" transform="translate(-113.752 -27.507)" fill="#ffbe9d"/>
        <path id="Trazado_132170" data-name="Trazado 132170" d="M239.313,97.2a1.661,1.661,0,0,1-1.551,1.726,1.583,1.583,0,0,1-1.762-1.4v-.06a1.666,1.666,0,0,1,1.556-1.712,1.583,1.583,0,0,1,1.753,1.377A.189.189,0,0,1,239.313,97.2Z" transform="translate(-155.173 -56.843)" fill="#263238"/>
        <path id="Trazado_132171" data-name="Trazado 132171" d="M238.134,86.97c-.193.216-1.487-.679-3.236-.624s-3.075.991-3.213.776.106-.5.665-.918a4.663,4.663,0,0,1,2.611-.886,4.328,4.328,0,0,1,2.589.771C238.07,86.475,238.267,86.865,238.134,86.97Z" transform="translate(-152.819 -51.2)" fill="#263238"/>
        <path id="Trazado_132172" data-name="Trazado 132172" d="M203.3,97.2a1.661,1.661,0,0,1-1.556,1.726A1.588,1.588,0,0,1,200,97.515v-.046a1.643,1.643,0,0,1,1.542-1.712,1.583,1.583,0,0,1,1.753,1.377A.633.633,0,0,1,203.3,97.2Z" transform="translate(-135.695 -56.843)" fill="#263238"/>
        <path id="Trazado_132173" data-name="Trazado 132173" d="M199.891,88.813c-.2.22-1.492-.679-3.24-.615s-3.075.982-3.236.766.106-.459.67-.918a4.59,4.59,0,0,1,2.612-.918,4.489,4.489,0,0,1,2.611.766C199.79,88.3,199.988,88.685,199.891,88.813Z" transform="translate(-132.109 -52.179)" fill="#263238"/>
        <path id="Trazado_132174" data-name="Trazado 132174" d="M221.086,101.7a11.322,11.322,0,0,1,2.891-.615c.459-.055.886-.161.95-.459a2.157,2.157,0,0,0-.335-1.34l-1.469-3.442c-2.006-4.9-3.484-8.936-3.236-9.009s2,3.828,4.016,8.72l1.377,3.461a2.754,2.754,0,0,1,.294,1.795,1.147,1.147,0,0,1-.734.679,2.8,2.8,0,0,1-.78.129A12.057,12.057,0,0,1,221.086,101.7Z" transform="translate(-146.442 -52.023)" fill="#263238"/>
        <path id="Trazado_132175" data-name="Trazado 132175" d="M205.931,160.381a33,33,0,0,1-17.491-4.131s4.626,9.422,17.555,7.834Z" transform="translate(-129.442 -89.577)" fill="#eb996e"/>
        <path id="Trazado_132176" data-name="Trazado 132176" d="M214.824,126.264a4.36,4.36,0,0,0-3.672-1.836,2.832,2.832,0,0,0-2.295,1.345,2.754,2.754,0,0,0,.119,2.882,2.717,2.717,0,0,0,2.937.959,6.5,6.5,0,0,0,2.589-1.694,2.249,2.249,0,0,0,.542-.688.918.918,0,0,0-.1-.918" transform="translate(-140.299 -72.36)" fill="#eb996e"/>
        <path id="Trazado_132177" data-name="Trazado 132177" d="M210.857,122.24c.294,0,.344,1.923,2.052,3.24s3.754,1.079,3.786,1.326-.459.386-1.326.459a4.856,4.856,0,0,1-3.153-1.005,4.19,4.19,0,0,1-1.6-2.726C210.568,122.726,210.729,122.231,210.857,122.24Z" transform="translate(-141.437 -71.177)" fill="#263238"/>
        <path id="Trazado_132178" data-name="Trazado 132178" d="M199.259,73.237c-.165.486-1.955.3-4.048.615s-3.768.941-4.057.509c-.129-.207.151-.67.817-1.166a6.806,6.806,0,0,1,2.992-1.079,6.682,6.682,0,0,1,3.181.28C198.943,72.631,199.328,73,199.259,73.237Z" transform="translate(-130.894 -44.016)" fill="#263238"/>
        <path id="Trazado_132179" data-name="Trazado 132179" d="M236.921,73.384c-.317.408-1.556,0-3.034,0s-2.731.344-3.034-.069c-.128-.2.055-.615.592-1.014a4.323,4.323,0,0,1,4.879,0C236.866,72.765,237.05,73.178,236.921,73.384Z" transform="translate(-152.368 -43.75)" fill="#263238"/>
        <path id="Trazado_132180" data-name="Trazado 132180" d="M222.384,47.176a8.766,8.766,0,0,0-3.41-4.9c-.918-.615-2.015-.982-2.891-1.684-1.868-1.51-2.295-4.131-3.451-6.246a9.845,9.845,0,0,0-7.472-5.007c-2.57-.257-5.214.509-7.715-.119-1.859-.459-3.465-1.671-5.342-2.029-3.672-.688-7.045,1.932-9.712,4.544,0,2.611,2.07,4.319,4.08,6.035a9.051,9.051,0,0,0,7.343,1.932c1.987-.358,4.177-1.377,5.907-.3s1.886,3.851,3.493,5.241c2.295,2,5.967.133,8.881,1,2.258.67,3.672,2.827,5.173,4.64s3.731,3.539,5.989,2.869a26.032,26.032,0,0,0-.872-5.967Z" transform="translate(-126.169 -19.69)" fill="#263238"/>
        <path id="Trazado_132181" data-name="Trazado 132181" d="M156.5,35.577c-1.707-.5-5.2-1.6-6.118-3.075A10.437,10.437,0,0,0,141.3,27.32a8.629,8.629,0,0,0-7.747,6.811,12.525,12.525,0,0,0-11.323,8.436,9.386,9.386,0,0,0-.633,7.913c.592,1.542,1.6,3.213.808,4.7s-2.85,1.524-4.434,2.07a6.251,6.251,0,0,0-3.952,6.985,7.554,7.554,0,0,1,.459,3.011,6.632,6.632,0,0,1-1.836,2.653A7.8,7.8,0,0,0,117.2,82.574a10.152,10.152,0,0,1,3.585.817c1.207.748,1.739,2.162,2.579,3.323a6.728,6.728,0,0,0,7.284,2.295,6.22,6.22,0,0,0,1.459-.734,4.815,4.815,0,0,0,4.314,1.886l-.5-28.5a2.3,2.3,0,0,0,1.726,1.349c4.59,1.079,5.246-8.385,4.218-10.942a26.023,26.023,0,0,0,4.59-4.824,19.2,19.2,0,0,0,2.157-9.257C150.226,38.11,157.262,35.778,156.5,35.577Z" transform="translate(-87.451 -19.821)" fill="#263238"/>
        <path id="Trazado_132182" data-name="Trazado 132182" d="M159.857,102.984c-.142-2.754-3.539-3.369-5.967-1.974-1.326.766-2.332,2.295-2.212,5.241.326,7.867,8.151,5.916,8.16,5.7S160.018,106.242,159.857,102.984Z" transform="translate(-109.548 -59.3)" fill="#ffbe9d"/>
        <path id="Trazado_132183" data-name="Trazado 132183" d="M159.732,112.186s-.142.1-.367.216a1.446,1.446,0,0,1-1.01.05,3.387,3.387,0,0,1-1.68-2.979,4.328,4.328,0,0,1,.3-1.974,1.625,1.625,0,0,1,.982-1.079.7.7,0,0,1,.822.344c.119.216.078.376.119.39s.161-.142.087-.459a.89.89,0,0,0-.335-.459,1.033,1.033,0,0,0-.766-.174,1.9,1.9,0,0,0-1.377,1.276,4.65,4.65,0,0,0-.386,2.157c.119,1.588.982,3.034,2.157,3.314a1.441,1.441,0,0,0,1.239-.257C159.732,112.369,159.755,112.195,159.732,112.186Z" transform="translate(-111.951 -62.417)" fill="#eb996e"/>
        <path id="Trazado_132184" data-name="Trazado 132184" d="M164.137,42.18a4.691,4.691,0,0,0-1.574,1.317,7.215,7.215,0,0,0-.574,5.4v.2H161.8a7.55,7.55,0,0,0-5.072,4.475,5.733,5.733,0,0,0-.4,1.918,10.882,10.882,0,0,0,.234,2.075,14.087,14.087,0,0,1,.3,2.231,3.672,3.672,0,0,1-.643,2.318,9.5,9.5,0,0,1-3.878,2.933,13.259,13.259,0,0,0-3.672,2.387,9.79,9.79,0,0,0-2.933,6.6,10.189,10.189,0,0,0,1.079,4.856c.519,1.079.959,1.583.918,1.616s-.142-.106-.344-.353a8.107,8.107,0,0,1-.766-1.166,9.987,9.987,0,0,1-1.244-4.966,10.148,10.148,0,0,1,2.969-6.94,13.833,13.833,0,0,1,3.786-2.488,9.179,9.179,0,0,0,3.672-2.754c.877-1.189.486-2.754.262-4.131a11.382,11.382,0,0,1-.248-2.157,6.379,6.379,0,0,1,.459-2.107,7.945,7.945,0,0,1,5.448-4.718l-.151.248a7.343,7.343,0,0,1,.789-5.664A3.438,3.438,0,0,1,163.6,42.3,1.914,1.914,0,0,1,164.137,42.18Z" transform="translate(-106.144 -27.861)" fill="#455a64"/>
        <path id="Trazado_132185" data-name="Trazado 132185" d="M156.293,123.886a5.622,5.622,0,0,1,2.235-1.469h-.174a3.336,3.336,0,0,1,.459-.078,2.166,2.166,0,0,1,1.749.216h0a4.131,4.131,0,0,1,2.263,1.964,4.865,4.865,0,0,1-.583,5.049,3.731,3.731,0,0,1-6.852-1.281A4.622,4.622,0,0,1,156.293,123.886Z" transform="translate(-111.445 -71.179)" fill="#c1507f"/>
        <path id="Trazado_132186" data-name="Trazado 132186" d="M143.553,807.71,113,829.639l27.079,38.167c3.488-2.813-3.236-27.753-3.236-27.753l19.2-14.6Z" transform="translate(-88.626 -442.042)" fill="#263238"/>
        <g id="Grupo_58707" data-name="Grupo 58707" transform="translate(38.548 384.639)" opacity="0.6">
          <path id="Trazado_132187" data-name="Trazado 132187" d="M146.861,849.442a1.923,1.923,0,0,0-2.547.184,1.836,1.836,0,0,0,.161,2.529,2.033,2.033,0,0,0,2.7-.207,1.909,1.909,0,0,0-.459-2.611" transform="translate(-143.884 -849.045)" fill="#455a64"/>
        </g>
        <path id="Trazado_132188" data-name="Trazado 132188" d="M113.24,852.665l3.075-2.235,24.651,37.695s.459,2.226-.886,2.873Z" transform="translate(-88.756 -465.155)" fill="#455a64"/>
        <path id="Trazado_132189" data-name="Trazado 132189" d="M160.974,876.547c-.184.129-.918-.748-2.157-1.244s-2.387-.422-2.428-.647,1.221-.711,2.754-.087S161.18,876.46,160.974,876.547Z" transform="translate(-112.101 -478.049)" fill="#455a64"/>
        <path id="Trazado_132190" data-name="Trazado 132190" d="M163.537,889.009c-.151.174-1.079-.409-2.295-.487s-2.162.335-2.322.142.844-1.079,2.387-.918S163.693,888.881,163.537,889.009Z" transform="translate(-113.462 -485.335)" fill="#455a64"/>
        <path id="Trazado_132191" data-name="Trazado 132191" d="M162.033,901.267c-.165-.142.583-1.083,1.941-1.308s2.382.344,2.295.528-1.023,0-2.157.262S162.18,901.437,162.033,901.267Z" transform="translate(-115.143 -491.924)" fill="#455a64"/>
        <path id="Trazado_132192" data-name="Trazado 132192" d="M172.1,867c-.225,0-.574-1-1.377-2s-1.739-1.588-1.643-1.8,1.317.105,2.258,1.3S172.318,866.942,172.1,867Z" transform="translate(-118.965 -472.028)" fill="#455a64"/>
        <path id="Trazado_132193" data-name="Trazado 132193" d="M181.319,853.66a4.9,4.9,0,0,1-1.345-1.918,9.85,9.85,0,0,1-.8-2.428,10.555,10.555,0,0,1-.207-1.524,2.923,2.923,0,0,1,0-.895,1,1,0,0,1,.918-.785,1.244,1.244,0,0,1,1.005.514,2.583,2.583,0,0,1,.408.789,7.6,7.6,0,0,1,.459,1.478,8.532,8.532,0,0,1,.1,2.579,3.961,3.961,0,0,1-.757,2.226c-.129,0,.151-.886.193-2.267a9.279,9.279,0,0,0-.257-2.387,9.066,9.066,0,0,0-.431-1.336c-.184-.459-.422-.822-.679-.8s-.128,0-.184.193a2.249,2.249,0,0,0,0,.656,9.954,9.954,0,0,0,.138,1.414,14.769,14.769,0,0,0,.606,2.355A17.756,17.756,0,0,1,181.319,853.66Z" transform="translate(-124.3 -462.818)" fill="#455a64"/>
        <path id="Trazado_132194" data-name="Trazado 132194" d="M183.16,858.378a4.151,4.151,0,0,1,1.487-1.836,8.008,8.008,0,0,1,2.295-1.23,7.722,7.722,0,0,1,1.51-.335,1.919,1.919,0,0,1,1.836.537,1.079,1.079,0,0,1,0,1.18,2.79,2.79,0,0,1-.56.688,4.98,4.98,0,0,1-1.285.918,5.387,5.387,0,0,1-2.547.583c-1.519,0-2.295-.661-2.244-.725a18.033,18.033,0,0,0,2.221.165,5.411,5.411,0,0,0,2.226-.67,4.589,4.589,0,0,0,1.079-.822c.367-.344.583-.734.459-.854a1.345,1.345,0,0,0-1.079-.225,8.315,8.315,0,0,0-1.377.257,8.815,8.815,0,0,0-2.157.982C183.84,857.762,183.27,858.465,183.16,858.378Z" transform="translate(-126.581 -467.586)" fill="#455a64"/>
        <path id="Trazado_132195" data-name="Trazado 132195" d="M149.15,856.134l.344,37.635,46.814-.207c-.289-4.466-24.536-13.337-24.536-13.337l.753-24.1Z" transform="translate(-108.185 -468.234)" fill="#263238"/>
        <g id="Grupo_58708" data-name="Grupo 58708" transform="translate(47.743 409.99)" opacity="0.6">
          <path id="Trazado_132196" data-name="Trazado 132196" d="M165.263,904.312a1.914,1.914,0,0,0-1.317,2.157,1.859,1.859,0,0,0,2.162,1.326,2.029,2.029,0,0,0,1.377-2.332,1.914,1.914,0,0,0-2.4-1.079" transform="translate(-163.917 -904.279)" fill="#455a64"/>
        </g>
        <path id="Trazado_132197" data-name="Trazado 132197" d="M149.835,933.306l-.055-3.8,45,1.519s2.084.918,1.836,2.373Z" transform="translate(-108.526 -507.94)" fill="#455a64"/>
        <path id="Trazado_132198" data-name="Trazado 132198" d="M195.018,907.817c0,.239-1.152.344-2.295,1.079s-1.717,1.707-1.918,1.62.115-1.414,1.5-2.295S195.064,907.616,195.018,907.817Z" transform="translate(-130.692 -496.093)" fill="#455a64"/>
        <path id="Trazado_132199" data-name="Trazado 132199" d="M207.107,912.357c.055.216-.918.615-1.7,1.574s-1,2-1.221,1.987-.376-1.294.606-2.483S207.107,912.145,207.107,912.357Z" transform="translate(-137.87 -498.612)" fill="#455a64"/>
        <path id="Trazado_132200" data-name="Trazado 132200" d="M216.551,920.566c-.207.051-.528-1.083,0-2.345s1.648-1.758,1.749-1.574-.565.863-1.028,1.9S216.776,920.543,216.551,920.566Z" transform="translate(-144.496 -500.961)" fill="#455a64"/>
        <path id="Trazado_132201" data-name="Trazado 132201" d="M193.364,895.15c-.087.207-1.143-.106-2.428,0s-2.295.5-2.419.3.844-1.014,2.364-1.079S193.483,894.967,193.364,895.15Z" transform="translate(-129.478 -488.929)" fill="#455a64"/>
        <path id="Trazado_132202" data-name="Trazado 132202" d="M188.22,879.6a4.313,4.313,0,0,1-2.341,0,10.015,10.015,0,0,1-2.46-.744,10.443,10.443,0,0,1-1.349-.7,2.868,2.868,0,0,1-.711-.551,1.014,1.014,0,0,1-.11-1.221,1.244,1.244,0,0,1,1.005-.514,2.952,2.952,0,0,1,.872.106,9.213,9.213,0,0,1,1.469.5,8.421,8.421,0,0,1,2.157,1.414c1.079,1.005,1.469,1.836,1.377,1.9s-.633-.638-1.744-1.469a9.375,9.375,0,0,0-2.1-1.166,9.085,9.085,0,0,0-1.345-.408c-.5-.128-.918-.128-1.083.087s-.05.119,0,.271a2.833,2.833,0,0,0,.532.4,11.734,11.734,0,0,0,1.239.7,12.986,12.986,0,0,0,2.267.854A19.868,19.868,0,0,1,188.22,879.6Z" transform="translate(-125.468 -478.918)" fill="#455a64"/>
        <path id="Trazado_132203" data-name="Trazado 132203" d="M195.245,875.914a3.708,3.708,0,0,1-.633-2.267,7.687,7.687,0,0,1,.918-3.993,1.932,1.932,0,0,1,1.492-1.184,1.074,1.074,0,0,1,.982.647,3.291,3.291,0,0,1,.234.863,4.769,4.769,0,0,1,0,1.574,5.333,5.333,0,0,1-.991,2.428c-.918,1.221-1.836,1.492-1.877,1.414a9.515,9.515,0,0,0,1.414-1.726,5.407,5.407,0,0,0,.734-2.157,4.843,4.843,0,0,0,0-1.377c-.078-.5-.262-.918-.459-.84a1.73,1.73,0,0,0-.817.766,7.539,7.539,0,0,0-.574,1.271,8.721,8.721,0,0,0-.459,2.345C195.107,875.019,195.355,875.882,195.245,875.914Z" transform="translate(-132.777 -474.915)" fill="#455a64"/>
        <path id="Trazado_132204" data-name="Trazado 132204" d="M149.15,856.134l.344,37.635,46.814-.207c-.289-4.466-24.536-13.337-24.536-13.337l.753-24.1Z" transform="translate(-108.185 -468.234)" fill="#263238"/>
        <g id="Grupo_58709" data-name="Grupo 58709" transform="translate(47.743 409.99)" opacity="0.6">
          <path id="Trazado_132205" data-name="Trazado 132205" d="M165.263,904.312a1.914,1.914,0,0,0-1.317,2.157,1.859,1.859,0,0,0,2.162,1.326,2.029,2.029,0,0,0,1.377-2.332,1.914,1.914,0,0,0-2.4-1.079" transform="translate(-163.917 -904.279)" fill="#455a64"/>
        </g>
        <path id="Trazado_132206" data-name="Trazado 132206" d="M149.835,933.306l-.055-3.8,45,1.519s2.084.918,1.836,2.373Z" transform="translate(-108.526 -507.94)" fill="#455a64"/>
        <path id="Trazado_132207" data-name="Trazado 132207" d="M195.018,907.817c0,.239-1.152.344-2.295,1.079s-1.717,1.707-1.918,1.62.115-1.414,1.5-2.295S195.064,907.616,195.018,907.817Z" transform="translate(-130.692 -496.093)" fill="#455a64"/>
        <path id="Trazado_132208" data-name="Trazado 132208" d="M207.107,912.357c.055.216-.918.615-1.7,1.574s-1,2-1.221,1.987-.376-1.294.606-2.483S207.107,912.145,207.107,912.357Z" transform="translate(-137.87 -498.612)" fill="#455a64"/>
        <path id="Trazado_132209" data-name="Trazado 132209" d="M216.551,920.566c-.207.051-.528-1.083,0-2.345s1.648-1.758,1.749-1.574-.565.863-1.028,1.9S216.776,920.543,216.551,920.566Z" transform="translate(-144.496 -500.961)" fill="#455a64"/>
        <path id="Trazado_132210" data-name="Trazado 132210" d="M193.364,895.15c-.087.207-1.143-.106-2.428,0s-2.295.5-2.419.3.844-1.014,2.364-1.079S193.483,894.967,193.364,895.15Z" transform="translate(-129.478 -488.929)" fill="#455a64"/>
        <path id="Trazado_132211" data-name="Trazado 132211" d="M188.22,879.6a4.313,4.313,0,0,1-2.341,0,10.015,10.015,0,0,1-2.46-.744,10.443,10.443,0,0,1-1.349-.7,2.868,2.868,0,0,1-.711-.551,1.014,1.014,0,0,1-.11-1.221,1.244,1.244,0,0,1,1.005-.514,2.952,2.952,0,0,1,.872.106,9.213,9.213,0,0,1,1.469.5,8.421,8.421,0,0,1,2.157,1.414c1.079,1.005,1.469,1.836,1.377,1.9s-.633-.638-1.744-1.469a9.375,9.375,0,0,0-2.1-1.166,9.085,9.085,0,0,0-1.345-.408c-.5-.128-.918-.128-1.083.087s-.05.119,0,.271a2.833,2.833,0,0,0,.532.4,11.734,11.734,0,0,0,1.239.7,12.986,12.986,0,0,0,2.267.854A19.868,19.868,0,0,1,188.22,879.6Z" transform="translate(-125.468 -478.918)" fill="#455a64"/>
        <path id="Trazado_132212" data-name="Trazado 132212" d="M195.245,875.914a3.708,3.708,0,0,1-.633-2.267,7.687,7.687,0,0,1,.918-3.993,1.932,1.932,0,0,1,1.492-1.184,1.074,1.074,0,0,1,.982.647,3.291,3.291,0,0,1,.234.863,4.769,4.769,0,0,1,0,1.574,5.333,5.333,0,0,1-.991,2.428c-.918,1.221-1.836,1.492-1.877,1.414a9.515,9.515,0,0,0,1.414-1.726,5.407,5.407,0,0,0,.734-2.157,4.843,4.843,0,0,0,0-1.377c-.078-.5-.262-.918-.459-.84a1.73,1.73,0,0,0-.817.766,7.539,7.539,0,0,0-.574,1.271,8.721,8.721,0,0,0-.459,2.345C195.107,875.019,195.355,875.882,195.245,875.914Z" transform="translate(-132.777 -474.915)" fill="#455a64"/>
        <path id="Trazado_132213" data-name="Trazado 132213" d="M128.428,377.66s-6.559,7.027-9.776,13.769-5.287,22.787-5.287,22.787-9.055,20.194-7.674,30.489,10.62,80.9,10.62,80.9-.459,68.615,6.077,80.851l1.455,6.6,26.386-4.681h0l5.815-138.492,16.1-91.586Z" transform="translate(-84.594 -209.369)" fill="#455a64"/>
        <path id="Trazado_132214" data-name="Trazado 132214" d="M180.872,405.529a3.892,3.892,0,0,1-.17-1.079c-.078-.688-.119-1.7-.142-2.947a85.907,85.907,0,0,1,.583-9.712c.431-3.672.808-6.995,1.079-9.638a31.535,31.535,0,0,1,.519-3.984,21.437,21.437,0,0,1-.064,4.025c-.161,2.483-.528,5.907-.918,9.716s-.688,7.174-.766,9.638A38.357,38.357,0,0,1,180.872,405.529Z" transform="translate(-125.179 -209.645)" fill="#455a64"/>
        <path id="Trazado_132215" data-name="Trazado 132215" d="M190,389.37c-.174,0-.918-2.373-1.331-5.462a17.44,17.44,0,0,1-.138-5.608c.184,0,.367,2.478.776,5.508A44.271,44.271,0,0,1,190,389.37Z" transform="translate(-129.401 -209.715)" fill="#455a64"/>
        <path id="Trazado_132216" data-name="Trazado 132216" d="M223.362,387.82a3.043,3.043,0,0,0-1.014-1.519,1.955,1.955,0,0,0-1.8-.184,1.868,1.868,0,0,0,.055,3.5,1.96,1.96,0,0,0,1.8-.239,3.057,3.057,0,0,0,.959-1.556,1,1,0,0,1,.064.551,2.152,2.152,0,0,1-.744,1.377,2.382,2.382,0,0,1-2.295.459,2.442,2.442,0,0,1-.078-4.59,2.368,2.368,0,0,1,2.295.367,2.143,2.143,0,0,1,.785,1.326C223.449,387.627,223.4,387.82,223.362,387.82Z" transform="translate(-145.836 -213.594)" fill="#455a64"/>
        <path id="Trazado_132217" data-name="Trazado 132217" d="M215.192,397.119s12.952,88.318,14.366,103.395-53.322,95.492-53.322,95.492L153.14,568.724l35.235-65.5-11.869-65.232,15.917-58.357,20.731-.312Z" transform="translate(-110.344 -210.267)" fill="#455a64"/>
        <path id="Trazado_132218" data-name="Trazado 132218" d="M133.39,644.467a18.054,18.054,0,0,0,.184,1.923c.165,1.262.459,3.107.918,5.508.886,4.782,2.295,11.722,4.218,20.378v.17h.184l26.427-4.7h.2v-.2c.734-18.111,1.606-39.755,2.547-62.96.982-24.981,1.877-48.127,2.621-67.132h0c1.974-15.26,3.617-27.873,4.759-36.689.551-4.383.982-7.825,1.285-10.2q.193-1.735.312-2.689c.073-.633.087-.918.087-.918s-.064.3-.165.918-.216,1.519-.386,2.676c-.326,2.373-.812,5.806-1.414,10.189-1.2,8.826-2.905,21.429-4.966,36.689h0c-.766,18.992-1.7,42.142-2.717,67.114-.918,23.21-1.749,44.859-2.46,62.965l.216-.234-26.377,4.8.216.151c-1.951-8.633-3.433-15.563-4.378-20.323-.459-2.382-.812-4.227-1.005-5.48-.11-.615-.174-1.079-.216-1.414S133.39,644.467,133.39,644.467Z" transform="translate(-99.658 -268.504)" fill="#263238"/>
        <path id="Trazado_132219" data-name="Trazado 132219" d="M101.9,186.571S86.581,191.028,80.325,197.3c-3.171,3.181-18.68,49.641-16.064,55.415,1.836,4.043,27.423,7.118,27.423,7.118l9.046,8.463,62.878-5.508,6.563-17.6,10.1-5.916s-6.692-39.54-15.678-47.773c-5.893-5.393-16.018-6.086-16.018-6.086l-7.316,33.013Z" transform="translate(-62.097 -105.354)" fill="#f5ca56"/>
        <path id="Trazado_132220" data-name="Trazado 132220" d="M279.982,276.613c-.151,0,.583-2.373.982-6.26a41.5,41.5,0,0,0,.11-6.839,40.848,40.848,0,0,0-8.05-21.778c-2.354-3.121-4.19-4.741-4.08-4.847a6.82,6.82,0,0,1,1.326,1.079,16.065,16.065,0,0,1,1.437,1.414,26.243,26.243,0,0,1,1.758,2.019,37.028,37.028,0,0,1,3.832,5.806,39.352,39.352,0,0,1,4.544,16.316,36.656,36.656,0,0,1-.285,6.949,22.3,22.3,0,0,1-.459,2.625,14.3,14.3,0,0,1-.5,1.951,6.653,6.653,0,0,1-.62,1.565Z" transform="translate(-172.996 -133.207)" fill="#455a64"/>
        <path id="Trazado_132221" data-name="Trazado 132221" d="M112.719,356.613S100.566,370.868,95.031,381.4C82.4,405.323,86.907,501.645,86.907,501.645l112.868-1.638L187.461,400.3a215.491,215.491,0,0,0-8.633-39.338l-3.961-12.309Z" transform="translate(-74.085 -193.673)" fill="#f5ca56"/>
        <path id="Trazado_132222" data-name="Trazado 132222" d="M135.952,287a12.163,12.163,0,0,1,.367,3.355,74.118,74.118,0,0,1-1.157,16.243,13.108,13.108,0,0,1-.831,3.213c-.239,0,.638-5.113,1.079-11.414S135.723,287,135.952,287Z" transform="translate(-100.146 -160.318)" fill="#455a64"/>
        <path id="Trazado_132223" data-name="Trazado 132223" d="M231.714,520.769a4.405,4.405,0,0,1-.064-.886c0-.67,0-1.5-.055-2.534,0-2.162-.064-5.4-.174-9.326-.216-7.867-.8-18.735-2.157-30.668s-3.236-22.664-4.746-30.388c-.766-3.864-1.427-6.985-1.9-9.133-.207-1.014-.381-1.836-.519-2.478a4.167,4.167,0,0,1-.128-.886,3.64,3.64,0,0,1,.289.84c.174.647.39,1.459.661,2.451.569,2.157,1.3,5.246,2.157,9.1,1.684,7.692,3.626,18.432,4.984,30.4a304.324,304.324,0,0,1,1.909,30.75c0,3.938,0,7.132-.064,9.335,0,1.079-.073,1.877-.1,2.533A3.214,3.214,0,0,1,231.714,520.769Z" transform="translate(-147.583 -240.105)" fill="#455a64"/>
        <path id="Trazado_132224" data-name="Trazado 132224" d="M136.388,221.2a9.032,9.032,0,0,0-3.7.431,13.883,13.883,0,0,0-3.846,2.1c-1.377,1.079-2.754,2.419-4.369,3.9a17.551,17.551,0,0,1-5.989,3.906,16.982,16.982,0,0,1-16.477-2.754,11.171,11.171,0,0,1-4.424-8.5,5.765,5.765,0,0,1,2.157-4.512,6.109,6.109,0,0,1,4.741-1.079,6.857,6.857,0,0,1,4.131,2.157,7.174,7.174,0,0,1,1.629,4.209,9.271,9.271,0,0,1-3.13,7.486,12.314,12.314,0,0,1-6.563,2.85,16.408,16.408,0,0,1-5.888-.353,25.413,25.413,0,0,1-4.232-1.4c-1.079-.486-1.964-.918-2.524-1.221l-.647-.353a1.1,1.1,0,0,1-.207-.142s.312.129.918.4,1.437.661,2.57,1.079a27.933,27.933,0,0,0,4.209,1.308,16.665,16.665,0,0,0,5.783.257,12.007,12.007,0,0,0,6.3-2.754,8.72,8.72,0,0,0,2.947-7.082,6.614,6.614,0,0,0-1.519-3.892,6.3,6.3,0,0,0-3.823-2.029,5.563,5.563,0,0,0-4.314.991,5.214,5.214,0,0,0-1.923,4.089,9.322,9.322,0,0,0,1.212,4.59,11.828,11.828,0,0,0,2.988,3.548,16.22,16.22,0,0,0,8.036,3.442,16.467,16.467,0,0,0,7.931-.776,17.271,17.271,0,0,0,5.879-3.768,55.473,55.473,0,0,1,4.457-3.86,13.723,13.723,0,0,1,3.961-2.052,7.706,7.706,0,0,1,2.8-.367A4.176,4.176,0,0,1,136.388,221.2Z" transform="translate(-74.586 -121.142)" fill="#fff"/>
        <path id="Trazado_132225" data-name="Trazado 132225" d="M151.864,474.2h-.349l-.968-.33a25.636,25.636,0,0,0-3.832-.918,26.563,26.563,0,0,0-6.214-.193,26.029,26.029,0,0,0-7.954,2.029,25.141,25.141,0,0,0-4.2,2.295,24.077,24.077,0,0,0-3.915,3.373,19.217,19.217,0,0,0-5.085,10.015,12.819,12.819,0,0,0,3.809,11.378,9.312,9.312,0,0,0,12.185.321,7.7,7.7,0,0,0,2.589-5.966,13.5,13.5,0,0,0-1.8-6.292,21.783,21.783,0,0,0-3.915-5.072,30.35,30.35,0,0,0-4.824-3.874,30.809,30.809,0,0,0-10.556-4.319,29.112,29.112,0,0,0-9.932-.248,30.961,30.961,0,0,0-13.31,5.342,32.518,32.518,0,0,0-3.075,2.474l-.748.711-.266.225a2.292,2.292,0,0,1,.225-.266l.711-.776a25.932,25.932,0,0,1,3.02-2.566,30.471,30.471,0,0,1,13.393-5.572,29.374,29.374,0,0,1,10.1.2,30.783,30.783,0,0,1,15.646,8.261,22,22,0,0,1,4.021,5.186,13.943,13.943,0,0,1,1.868,6.549,8.262,8.262,0,0,1-2.754,6.389,9.84,9.84,0,0,1-12.952-.335,13.273,13.273,0,0,1-3.947-11.869,19.51,19.51,0,0,1,5.255-10.253,24.6,24.6,0,0,1,4-3.428,26.058,26.058,0,0,1,4.314-2.295,25.675,25.675,0,0,1,14.366-1.684,22.217,22.217,0,0,1,3.832,1.079l.959.39A1.977,1.977,0,0,1,151.864,474.2Z" transform="translate(-75.912 -260.586)" fill="#fff"/>
        <path id="Trazado_132226" data-name="Trazado 132226" d="M269.044,494.892a5.507,5.507,0,0,1-1.083.753,11.356,11.356,0,0,1-1.3.776,16.38,16.38,0,0,1-1.79.918,30.683,30.683,0,0,1-4.929,1.73,31.342,31.342,0,0,1-12.732.615,29.187,29.187,0,0,1-5.049-1.271,19.618,19.618,0,0,1-1.868-.725,10.637,10.637,0,0,1-1.377-.647,5.729,5.729,0,0,1-1.083-.647c0-.106,1.675.767,4.479,1.639a33,33,0,0,0,22.434-1.143C267.456,495.819,268.989,494.791,269.044,494.892Z" transform="translate(-156.164 -272.792)" fill="#fff"/>
        <path id="Trazado_132227" data-name="Trazado 132227" d="M273.293,623.5s-.73.161-2.029.459a28.272,28.272,0,0,0-5.329,1.946,42.6,42.6,0,0,0-7.146,4.424c-2.547,1.886-5.191,4.163-7.963,6.582a85.554,85.554,0,0,1-8.192,6.4,35.294,35.294,0,0,1-7.55,3.942,21.993,21.993,0,0,1-5.563,1.326,13.725,13.725,0,0,1-1.565.087,2.627,2.627,0,0,1-.537,0,29.878,29.878,0,0,0,7.555-1.749,37.385,37.385,0,0,0,7.38-4,93.122,93.122,0,0,0,8.105-6.4c2.754-2.41,5.393-4.686,8.027-6.572a40.288,40.288,0,0,1,7.293-4.383,24.326,24.326,0,0,1,5.4-1.776,12.527,12.527,0,0,1,1.542-.239,1.614,1.614,0,0,1,.574-.046Z" transform="translate(-150.532 -342.373)" fill="#fff"/>
        <path id="Trazado_132228" data-name="Trazado 132228" d="M246.326,366.2a7.482,7.482,0,0,1-1.336-.615l-3.543-1.836c-2.988-1.547-7.155-3.617-11.869-5.732s-8.991-3.864-12.121-5.081l-3.722-1.446a6.824,6.824,0,0,1-1.336-.6,8.371,8.371,0,0,1,1.414.39c.918.271,2.157.711,3.786,1.271,3.171,1.134,7.555,2.841,12.218,4.957s8.835,4.25,11.782,5.879c1.478.822,2.667,1.5,3.465,2a8.079,8.079,0,0,1,1.262.812Z" transform="translate(-142.406 -194.885)" fill="#fff"/>
        <path id="Trazado_132229" data-name="Trazado 132229" d="M255.959,206.46a14.492,14.492,0,0,1-2.157,2.019c-1.423,1.175-3.451,2.731-5.751,4.319s-4.47,2.988-6.054,3.924a14.227,14.227,0,0,1-2.657,1.377,19,19,0,0,1,2.442-1.739c1.528-1.014,3.644-2.437,5.967-4.043s4.319-3.121,5.829-4.222a16.915,16.915,0,0,1,2.382-1.634Z" transform="translate(-156.981 -116.743)" fill="#fff"/>
        <path id="Trazado_132230" data-name="Trazado 132230" d="M297.465,66.911a62.221,62.221,0,1,1,93.348,72.975h0a62.212,62.212,0,0,1-93.348-72.975ZM410.31,108.465a22.51,22.51,0,1,1-.009,0Z" transform="translate(-186.347 -19.212)" fill="#455a64"/>
        <g id="Grupo_58710" data-name="Grupo 58710" transform="translate(107.27 6.981)" opacity="0.3">
          <path id="Trazado_132231" data-name="Trazado 132231" d="M297.465,66.911a62.221,62.221,0,1,1,93.348,72.975h0a62.212,62.212,0,0,1-93.348-72.975ZM410.31,108.465a22.51,22.51,0,1,1-.009,0Z" transform="translate(-293.617 -26.193)" fill="#263238"/>
        </g>
        <path id="Trazado_132232" data-name="Trazado 132232" d="M295.185,60a62.221,62.221,0,1,1,93.348,72.975h0A62.212,62.212,0,0,1,295.185,60ZM408.02,101.555a28.921,28.921,0,1,1,0-.023Z" transform="translate(-185.114 -15.473)" fill="#455a64"/>
        <path id="Trazado_132233" data-name="Trazado 132233" d="M61.967,318.376l-.918-1.166a5.677,5.677,0,0,1,1.079-7.945L175.436,223.9a1.276,1.276,0,0,1,1.781.248l6.187,8.211a1.262,1.262,0,0,1-.243,1.767h0L69.925,319.492a5.664,5.664,0,0,1-7.935-1.111Z" transform="translate(-59.894 -126.04)" fill="#455a64"/>
        <path id="Trazado_132234" data-name="Trazado 132234" d="M176.634,305.544a13.484,13.484,0,0,1,2.35-5.4c1.987-2.786,7.082-5.783,7.288-8.041s2.685-1.134,2.827,1.574c.073,1.73-2.295,6.884-2.295,6.884s4.241,0,6.531-2.157,10.951-7.155,12.259-6.086c1.478,1.2-.844,2.295-1.749,3.116-.693.647-6.141,5.2-6.141,5.2s12.218-3.378,13.911-3.162.459,2.157-.3,2.35c-.486.142,1.446,1.079.28,2.818-.789,1.189-5.567,3.507-6.962,3.851l-2.846.734,8.913-1.175s1.836,1.014-.087,2.235c-.849.551-26.28,10.648-28.323,11.268-3.465,1.079-8.514,2.373-8.514,2.373l-3.584-14.655Z" transform="translate(-119.568 -162.427)" fill="#ffbe9d"/>
        <path id="Trazado_132235" data-name="Trazado 132235" d="M68.563,328.408s-4.131,15.1-2.244,21.277c2.387,7.8,6.861,12.075,14.6,11.355s46.773-26.193,46.773-26.193L120.77,321.23l-28.056,7.187Z" transform="translate(-63.103 -178.838)" fill="#ffbe9d"/>
        <path id="Trazado_132236" data-name="Trazado 132236" d="M289.5,231.707a4.314,4.314,0,0,0-2.258,3.672,3.167,3.167,0,0,0,.528,2.093,1.749,1.749,0,0,0,1.946.665,2.836,2.836,0,0,0,1.152-1.184c.95-1.437.7-2.354,1.652-3.8l.808-.711C292.726,231.092,290.867,231.06,289.5,231.707Z" transform="translate(-182.889 -130.181)" fill="#ffbe9d"/>
        <path id="Trazado_132237" data-name="Trazado 132237" d="M297.692,282.36s13.544,32.55,12.736,37.405-4.264,12.571-11.635,12.851S281.05,315.24,281.05,315.24l1.932-28.915Z" transform="translate(-179.548 -157.808)" fill="#ffbe9d"/>
        <path id="Trazado_132238" data-name="Trazado 132238" d="M305.249,225.958a4.342,4.342,0,0,0-.519-1.955,1.469,1.469,0,0,0-1.749-.656,2.093,2.093,0,0,0-.918,1.694,25.138,25.138,0,0,0-.119,7.018c-.656-1.005-.335-2.332-.376-3.543s-1.005-2.653-2.157-2.254c-.789.271-1.079,1.253-1.134,2.093a18.445,18.445,0,0,0,.514,6.476,8.752,8.752,0,0,1-.854-3.488c-.216-1.184-.973-2.5-2.157-2.533-1.446,0-2.162,1.726-2.295,3.181-.248,3.975,1.377,8.408-.918,11.681a12.714,12.714,0,0,1-3.7,3.075,8.872,8.872,0,0,0-3.41,3.355c-.693,1.455-.312,8.523-.312,10.79l16.844-4.314s-2.667-7.343-2.157-8.344a45.534,45.534,0,0,1,2.708-4.131,16.908,16.908,0,0,0,3.052-8.762A50.319,50.319,0,0,0,305.249,225.958Z" transform="translate(-181.708 -125.836)" fill="#ffbe9d"/>
      </g>
    </g>
    <line id="Línea_1537" data-name="Línea 1537" x2="285" transform="translate(-12751 -1367.44)" fill="none" stroke="#13273e" stroke-width="1"/>
  </g>
</svg>
