<svg xmlns="http://www.w3.org/2000/svg" width="422" height="422.289" viewBox="0 0 422 422.289">
  <g id="Grupo_58611" data-name="Grupo 58611" transform="translate(-885.333 -125)">
    <rect id="Rectángulo_31150" data-name="Rectángulo 31150" width="422" height="422" transform="translate(885.333 125)" fill="none"/>
    <g id="Grupo_57779" data-name="Grupo 57779" transform="translate(885.333 125)">
      <g id="freepik--background-complete--inject-3" transform="translate(0)">
        <path id="Trazado_129880" data-name="Trazado 129880" d="M-474.617-1033.154c-5.624-2.907-12.258-3.289-18.511-2.249-3.355.553-6.853,1.554-9.141,4.079s-2.717,6.958-.1,9.131c1.563,1.287,3.737,1.487,5.767,1.459,4.89-.057,10.323-.953,14.231,2.03,2.23,1.677,3.717,4.47,6.386,5.3s5.548-.734,6.93-3.088a10.76,10.76,0,0,0,.792-7.95A12.135,12.135,0,0,0-474.617-1033.154Z" transform="translate(821.795 1349.516)" fill="#ebebeb"/>
        <path id="Trazado_129881" data-name="Trazado 129881" d="M-445.06-1120.451c-3.441,4.918-10.132,3.288-13.239.286s-4.413-7.349-5.6-11.5c-2.727-9.475-5.481-19.416-3.451-29.073a16.118,16.118,0,0,1,3.707-7.9,8.441,8.441,0,0,1,8-2.669c3.374.9,5.471,4.2,6.987,7.339a69.332,69.332,0,0,1,6.815,29.711c0,4.766-.553,9.818-3.25,13.773" transform="translate(805.182 1411.906)" fill="#ebebeb"/>
        <path id="Trazado_129882" data-name="Trazado 129882" d="M-411.116-1099.851c-3.736-4.433-4.451-10.9-2.783-16.471s5.424-10.284,9.751-14.145a52.55,52.55,0,0,1,17.463-10.266,18.614,18.614,0,0,1,7.854-1.334,8.263,8.263,0,0,1,6.6,3.994c1.84,3.5.077,7.75-1.83,11.219a132.388,132.388,0,0,1-11.438,17.472c-3.432,4.432-7.378,8.807-12.611,10.809s-10.685,1.763-13.459-1.906" transform="translate(780.656 1398.36)" fill="#ebebeb"/>
        <path id="Trazado_129883" data-name="Trazado 129883" d="M-446.993-978.044a12.134,12.134,0,0,1-.305-2.24c-.162-1.63-.362-3.67-.6-6.1a85.412,85.412,0,0,0-1.372-8.941,68.545,68.545,0,0,0-3.25-10.562,38.894,38.894,0,0,0-5.386-9.532,20.027,20.027,0,0,0-6.815-5.662,18.882,18.882,0,0,0-5.719-1.792,10.113,10.113,0,0,1-2.231-.324,10.693,10.693,0,0,1,2.269,0,17.311,17.311,0,0,1,5.986,1.554,20.01,20.01,0,0,1,7.187,5.719,38.037,38.037,0,0,1,5.586,9.741,63.736,63.736,0,0,1,3.212,10.675,77.312,77.312,0,0,1,1.191,9.055c.191,2.593.267,4.69.3,6.139A9.755,9.755,0,0,1-446.993-978.044Z" transform="translate(807.306 1343.685)" fill="#e0e0e0"/>
        <path id="Trazado_129884" data-name="Trazado 129884" d="M-435.618-1034.1a4.815,4.815,0,0,1-.057-1.039v-2.964c0-2.574,0-6.291-.133-10.895-.229-9.2-1.02-19.064-2.545-33.047-1.449-13.116-3.393-28.4-5.452-38.318-.438-2.259-.877-4.29-1.3-6.072s-.734-3.317-1.067-4.566-.505-2.126-.686-2.859a3.815,3.815,0,0,1-.181-1.02,4.277,4.277,0,0,1,.353.953l.868,2.86c.381,1.229.772,2.755,1.22,4.537s.953,3.813,1.43,6.053a335.921,335.921,0,0,1,5.719,35.554c1.534,13.983,2.221,26.689,2.278,35.935.057,4.613,0,8.34-.162,10.914-.066,1.21-.133,2.193-.181,2.965A3.812,3.812,0,0,1-435.618-1034.1Z" transform="translate(795.511 1395.044)" fill="#e0e0e0"/>
        <path id="Trazado_129885" data-name="Trazado 129885" d="M-426.047-1052.312a18.779,18.779,0,0,1,0-3.1c.114-1.992.391-4.87.953-8.388a109.751,109.751,0,0,1,2.726-12.229,100.349,100.349,0,0,1,5.109-14.469,77.2,77.2,0,0,1,15.042-23.42,36.964,36.964,0,0,1,3.527-3.279c.543-.458,1.02-.953,1.506-1.277l1.373-.953a17.906,17.906,0,0,1,2.612-1.668c.143.2-3.7,2.459-8.578,7.626a81.015,81.015,0,0,0-14.612,23.381,112.843,112.843,0,0,0-5.138,14.3c-1.344,4.5-2.23,8.627-2.907,12.106s-1.01,6.338-1.229,8.312A22.25,22.25,0,0,1-426.047-1052.312Z" transform="translate(785.883 1388.7)" fill="#e0e0e0"/>
        <path id="Trazado_129886" data-name="Trazado 129886" d="M-423.134-913.473l-2.459,33.714h-43.313l-2.459-33.714Z" transform="translate(806.705 1293.174)" fill="#e0e0e0"/>
        <rect id="Rectángulo_31151" data-name="Rectángulo 31151" width="57.582" height="13.287" transform="translate(330.173 366.423)" fill="#e0e0e0"/>
        <path id="Trazado_129887" data-name="Trazado 129887" d="M-422.54-853.412v3.679h-56.629v-3.679Z" transform="translate(810.295 1265.54)" fill="#ebebeb"/>
        <path id="Trazado_129888" data-name="Trazado 129888" d="M-426.142-840.115l2.65-6.482h-51.863l3.1,6.482Z" transform="translate(808.54 1262.404)" fill="#e0e0e0"/>
        <path id="Trazado_129889" data-name="Trazado 129889" d="M-469.882-897.069a1.749,1.749,0,0,0,.209.314l.648.858,2.516,3.231.114.143.105-.153,6.205-8.578h-.362l6.1,8.636.2.276.209-.257,7.235-8.579h-.419c.134.153.267.324.4.5,2.25,2.86,4.423,5.538,6.472,8.121l.219.267.2-.286c2.193-3.107,4.251-6,6.1-8.636h-.353c3.012,3.422,5.557,6.338,7.521,8.578l.133.153.1-.172c.953-1.668,1.782-2.993,2.364-3.956l.6-1.058a1.757,1.757,0,0,0,.181-.371,1.574,1.574,0,0,0-.248.334l-.667,1.01-2.478,3.889h.238l-7.4-8.674-.191-.219-.162.239-6.167,8.578h.419l-6.463-8.131-.391-.5-.21-.257-.21.248-7.216,8.617h.4l-6.158-8.579-.181-.248-.181.248-6.062,8.665h.219l-2.631-3.146-.7-.81A1.4,1.4,0,0,0-469.882-897.069Z" transform="translate(806.022 1287.788)" fill="#f5f5f5"/>
        <path id="Trazado_129890" data-name="Trazado 129890" d="M-472.477-914.107c0,.152,10.847.267,24.23.267s24.239-.114,24.239-.267-10.847-.267-24.239-.267S-472.477-914.25-472.477-914.107Z" transform="translate(807.216 1293.589)" fill="#f5f5f5"/>
        <path id="Trazado_129891" data-name="Trazado 129891" d="M-476.538-846.153c0,.152,11.8.276,26.346.276s26.336-.124,26.336-.276-11.791-.267-26.336-.267S-476.538-846.3-476.538-846.153Z" transform="translate(809.085 1262.323)" fill="#f5f5f5"/>
        <rect id="Rectángulo_31152" data-name="Rectángulo 31152" width="45.791" height="90.762" transform="translate(0 83.871)" fill="#ebebeb"/>
        <rect id="Rectángulo_31153" data-name="Rectángulo 31153" width="49.47" height="90.762" transform="translate(47.554 83.871)" fill="#ebebeb"/>
        <rect id="Rectángulo_31154" data-name="Rectángulo 31154" width="49.47" height="87.693" transform="translate(47.554 180.971)" fill="#ebebeb"/>
        <path id="Trazado_129892" data-name="Trazado 129892" d="M-901.03-1534.455h52.1v-80.516h1.763v80.516h42.4v-82.3H-901.03Z" transform="translate(1004.393 1616.753)" fill="#ebebeb"/>
        <rect id="Rectángulo_31155" data-name="Rectángulo 31155" width="42.398" height="90.762" transform="translate(157.228 83.871)" fill="#ebebeb"/>
        <rect id="Rectángulo_31156" data-name="Rectángulo 31156" width="42.398" height="87.693" transform="translate(157.228 180.971)" fill="#ebebeb"/>
        <rect id="Rectángulo_31157" data-name="Rectángulo 31157" width="45.791" height="87.693" transform="translate(0 180.971)" fill="#ebebeb"/>
        <rect id="Rectángulo_31158" data-name="Rectángulo 31158" width="52.101" height="87.693" transform="translate(103.363 180.971)" fill="#ebebeb"/>
        <rect id="Rectángulo_31159" data-name="Rectángulo 31159" width="45.791" height="79.028" transform="translate(0 270.237)" fill="#ebebeb"/>
        <rect id="Rectángulo_31160" data-name="Rectángulo 31160" width="42.398" height="79.028" transform="translate(157.228 270.237)" fill="#ebebeb"/>
        <path id="Trazado_129893" data-name="Trazado 129893" d="M-1046.688-1534.455v-80.516h1.763v80.516h49.47v-82.3h-97.025v82.3Z" transform="translate(1092.479 1616.753)" fill="#ebebeb"/>
        <rect id="Rectángulo_31161" data-name="Rectángulo 31161" width="52.101" height="79.028" transform="translate(103.363 270.237)" fill="#ebebeb"/>
        <rect id="Rectángulo_31162" data-name="Rectángulo 31162" width="49.47" height="79.028" transform="translate(47.554 270.237)" fill="#ebebeb"/>
        <rect id="Rectángulo_31163" data-name="Rectángulo 31163" width="52.101" height="90.762" transform="translate(103.363 83.871)" fill="#ebebeb"/>
        <rect id="Rectángulo_31164" data-name="Rectángulo 31164" width="107.185" height="111.732" transform="translate(280.732 4.061)" fill="#e0e0e0"/>
        <rect id="Rectángulo_31165" data-name="Rectángulo 31165" width="107.185" height="111.732" transform="translate(273.468 4.061)" fill="#ebebeb"/>
        <rect id="Rectángulo_31166" data-name="Rectángulo 31166" width="78.371" height="81.697" transform="translate(287.881 19.073)" fill="#fff"/>
        <path id="Trazado_129894" data-name="Trazado 129894" d="M-571.453-1429.117a16.094,16.094,0,0,1-1.964,2.221c-1.259,1.315-3.022,3.1-4.985,5.042s-3.813,3.67-5.118,4.909a14.472,14.472,0,0,1-2.231,1.906,13.988,13.988,0,0,1,1.906-2.211c1.258-1.316,3.022-3.108,5-5.052s3.813-3.689,5.119-4.919A13.316,13.316,0,0,1-571.453-1429.117Z" transform="translate(859.334 1530.422)" fill="#e0e0e0"/>
        <path id="Trazado_129895" data-name="Trazado 129895" d="M-414.111-1429.471a14.779,14.779,0,0,1,2.221,1.906c1.315,1.258,3.1,3.022,5.033,5s3.679,3.812,4.918,5.109a15.539,15.539,0,0,1,1.906,2.24,14.274,14.274,0,0,1-2.221-1.906c-1.306-1.258-3.1-3.031-5.042-5s-3.689-3.813-4.918-5.119A14.371,14.371,0,0,1-414.111-1429.471Z" transform="translate(780.362 1530.584)" fill="#e0e0e0"/>
        <path id="Trazado_129896" data-name="Trazado 129896" d="M-414.517-1592.947a16.02,16.02,0,0,1,1.964-2.221c1.258-1.316,3.022-3.1,4.995-5.033s3.813-3.679,5.109-4.918a14.9,14.9,0,0,1,2.24-1.906,14.483,14.483,0,0,1-1.906,2.211c-1.258,1.315-3.021,3.107-5,5.052s-3.812,3.689-5.118,4.918A13.358,13.358,0,0,1-414.517-1592.947Z" transform="translate(780.549 1612.277)" fill="#e0e0e0"/>
        <path id="Trazado_129897" data-name="Trazado 129897" d="M-571.637-1592.833a14.74,14.74,0,0,1-2.221-1.954c-1.305-1.258-3.088-3.022-5.033-4.995s-3.679-3.813-4.918-5.109a14.951,14.951,0,0,1-1.906-2.24,14.567,14.567,0,0,1,2.211,1.906c1.315,1.258,3.1,3.031,5.042,5s3.689,3.813,4.919,5.118A14.429,14.429,0,0,1-571.637-1592.833Z" transform="translate(859.317 1612.326)" fill="#e0e0e0"/>
        <path id="Trazado_129898" data-name="Trazado 129898" d="M-481.255-1500.094v-5.938c0-3.813,0-9.532-.066-16.642,0-14.3-.076-34.7-.133-59.1l.257.257h-78.161l.3-.3v81.7l-.248-.258,56.6.133,15.89.067h.1l-15.832.066-56.762.124h-.257v-82.241h78.723v.258c-.048,24.487-.1,44.933-.124,59.278,0,7.13-.057,12.735-.076,16.585v5.471A1.025,1.025,0,0,1-481.255-1500.094Z" transform="translate(847.287 1600.864)" fill="#e0e0e0"/>
        <path id="Trazado_129899" data-name="Trazado 129899" d="M-520.983-1518.2s-1.677,20.227,20.227,20.227C-500.756-1508.777-509.659-1517.3-520.983-1518.2Z" transform="translate(829.548 1571.411)" fill="#ebebeb"/>
        <path id="Trazado_129900" data-name="Trazado 129900" d="M-463.885-1518.211s-20.227-1.677-20.227,20.227C-473.36-1497.984-464.839-1506.887-463.885-1518.211Z" transform="translate(812.57 1571.427)" fill="#ebebeb"/>
        <path id="Trazado_129901" data-name="Trazado 129901" d="M-491.333-1538.683s-16.528,14.831.905,31.283C-482.325-1515.988-483.011-1529.456-491.333-1538.683Z" transform="translate(819.151 1580.833)" fill="#e0e0e0"/>
      </g>
      <g id="freepik--Character--inject-3" transform="translate(15.859 58.364)">
        <path id="Trazado_129902" data-name="Trazado 129902" d="M-752.817-1295.806c3.584,4.1,4.518,9.9,4.356,15.346s-1.258,10.857-1.134,16.29c.276,11.266,5.719,21.647,9.455,32.275s5.529,23.238-.829,32.541c-4.766.467-9.6.954-14.3,0s-9.274-3.555-11.438-7.806c-1.8-3.508-1.782-7.626-1.706-11.582q.487-28.852.953-57.7" transform="translate(927.528 1410.722)" fill="#263238"/>
        <path id="Trazado_129903" data-name="Trazado 129903" d="M-999.129-1422.409c4.347,6.9-.486,16.023-6.51,21.523s-13.63,10.008-16.595,17.6c-4.956,12.668,5.4,27.766-.162,40.177-3.022,6.758-10.39,11.562-11.067,18.93-.352,3.813,1.249,7.549,1.592,11.381.81,9.112-5.4,17.158-10.351,24.783s-8.8,18.053-3.6,25.593l68.258-1.8a9.875,9.875,0,0,0,4.909-.953c3.088-1.859,3.2-6.214,2.945-9.808l-6.548-91.944" transform="translate(1056.293 1468.972)" fill="#263238"/>
        <path id="Trazado_129904" data-name="Trazado 129904" d="M-766.782-1374.78c-1.335-5.224-4.289-9.961-5.414-15.251-1.439-6.672.172-13.6,1.1-20.389s1-14.231-2.955-19.817c-2.354-3.326-5.938-5.672-8.073-9.151-2.745-4.5-2.641-10.1-3.708-15.251a33.437,33.437,0,0,0-21.437-24.354l-.133,137.954,25.345,8.283c4.652-6.177,9.332-12.391,12.5-19.455S-764.866-1367.3-766.782-1374.78Z" transform="translate(945.458 1495.005)" fill="#263238"/>
        <path id="Trazado_129905" data-name="Trazado 129905" d="M-889.755-1493.687c-3.289-4.947-7.33-9.589-12.572-12.392s-11.829-3.6-17.157-.953c-5.138,2.593-8.4,7.949-13.421,10.761-5.166,2.86-11.438,2.707-17.158,4.194a30.5,30.5,0,0,0-22.19,27.318c-.448,8.884,3,18.358-.839,26.384-3.717,7.749-13.6,12.391-14.231,20.97-.581,7.988,7.454,14.3,8.235,22.247.953,10.152-9.913,18.5-9.236,28.672.619,9.427,10.857,15.88,12.077,25.24,1.086,8.331-5.3,16.938-2.2,24.783,1.668,4.223,5.719,6.939,9.132,9.932s6.672,7.206,5.719,11.667l96.471-21.2c-5.938-18.749-11.905-38.852-6.415-57.734,1.982-6.815,5.4-13.145,7.425-19.96,2.345-7.892,2.764-16.2,2.488-24.478-.524-15.584-3.508-31-7.482-46.077-3.031-11.514-7.845-24.249-18.864-28.786" transform="translate(1028.712 1508.652)" fill="#263238"/>
        <path id="Trazado_129906" data-name="Trazado 129906" d="M-768.06-1310.739a13.772,13.772,0,0,0,1.325-3.66,20.679,20.679,0,0,0-1.134-10.485c-.715-2.135-1.687-4.4-2.631-6.9a27.8,27.8,0,0,1-2.03-8.264,28.874,28.874,0,0,1,1.049-9.341c.81-3.174,1.964-6.348,3.05-9.608a50.015,50.015,0,0,0,2.421-9.7,20.111,20.111,0,0,0-.9-9.141,56.936,56.936,0,0,0-3.67-7.626,34.992,34.992,0,0,1-1.678-3.479c-.438-1.172-.743-2.316-1.039-3.412-1.106-4.394-1.744-8-2.288-10.485-.257-1.239-.476-2.193-.639-2.86-.076-.305-.143-.543-.191-.734a1.1,1.1,0,0,1-.048-.258,1.055,1.055,0,0,1,.1.239c.057.162.152.4.238.724.191.639.448,1.582.734,2.86.6,2.45,1.3,6.053,2.431,10.409.305,1.086.63,2.221,1.068,3.365a34.339,34.339,0,0,0,1.677,3.432,55.943,55.943,0,0,1,3.737,7.626,20.377,20.377,0,0,1,.953,9.351,49.259,49.259,0,0,1-2.431,9.8c-1.087,3.279-2.24,6.434-3.05,9.532a28.92,28.92,0,0,0-1.058,9.2,27.653,27.653,0,0,0,1.954,8.15c.953,2.487,1.906,4.766,2.583,6.939a20.469,20.469,0,0,1,.953,10.6,11.448,11.448,0,0,1-.953,2.755c-.153.3-.3.5-.382.658S-768.06-1310.729-768.06-1310.739Z" transform="translate(931.219 1461.742)" fill="#455a64"/>
        <path id="Trazado_129907" data-name="Trazado 129907" d="M-963.886-1249.174l-7.521,8.426s-28.281,9.913-31.293,11.724,19.254,123.59,19.254,123.59-28.881,34.381-30.683,46.706-3.813,28.786-3.813,28.786l171.182-.334-10.037-70.049,2.859-48.775-17.052-87.455-24.3-6-12.935-9.932Z" transform="translate(1042.325 1390.788)" fill="#26aab7"/>
        <path id="Trazado_129908" data-name="Trazado 129908" d="M-1017.94-1029.953h0c0-.162,1.992-16.586,3.812-28.777.42-2.86,2.288-7.025,5.567-12.515,2.621-4.385,6.139-9.6,10.485-15.479,7.254-9.884,14.393-18.406,14.66-18.721-.133-.724-5.662-31-10.761-61.109-6.882-40.711-9.741-61.738-8.483-62.5,2.965-1.782,30.75-11.533,31.293-11.724l7.521-8.426h0l55.637-3.365h0l12.934,9.922,24.306,6.005h0l17.043,87.445-2.86,48.784,10.037,70.069h0Zm54.064-219.232-7.521,8.417c-.286.105-28.319,9.942-31.284,11.724-1.23.744,1.716,22.333,8.5,62.453,5.138,30.321,10.7,60.813,10.761,61.118h0c-.066.086-7.3,8.712-14.66,18.73-4.327,5.881-7.845,11.1-10.485,15.48-3.279,5.471-5.147,9.684-5.557,12.487-1.744,11.972-3.679,28-3.813,28.757l171.173-.324-10.028-70.021,2.86-48.775-17.043-87.436-24.287-5.995-12.935-9.923Z" transform="translate(1042.324 1390.828)" fill="#263238"/>
        <path id="Trazado_129909" data-name="Trazado 129909" d="M-1023.479-1209.033s-12.182,6.044-17.329,12.763-13.554,40.158-15.537,50.833-7.807,23.143-6.6,28.291l1.582,5.538s-1.192,22.152,1.973,28.09,7.12,4.766,7.12,4.766.115,15.07,8.865,17.014c16.3,3.613,34.972.868,40.52-7.835s5.194-12.363,5.194-12.363l-7.511-32.046-4.232-8.655-4.08-24.583Z" transform="translate(1063.105 1370.797)" fill="#26aab7"/>
        <path id="Trazado_129910" data-name="Trazado 129910" d="M-745.756-1222.98s7.492,2.088,18.9,16.032,38.985,48.5,38.985,48.5h0s15.823-7.053,20.97-6.262A30.8,30.8,0,0,1-654.05-1176.6c7.854-3.975,16.2-.867,16.2-.867l10.761,24.23c1.792,4.537,4.442,14.365,1.906,18.54-3.346,5.538-10.485,14.65-20.76,10.266,0,0-33.495,30.368-45.324,34.019-14.765,4.566-38.127-3.012-44.332-36.678S-745.756-1222.98-745.756-1222.98Z" transform="translate(917.093 1377.214)" fill="#26aab7"/>
        <path id="Trazado_129911" data-name="Trazado 129911" d="M-831.779-1038.464a1.925,1.925,0,0,1,0-.343,5.444,5.444,0,0,0-.076-1.02c0-.953-.124-2.25-.219-3.937-.2-3.441-.5-8.378-.849-14.459-.762-12.21-2.021-29.063-4.089-47.6-1.039-9.275-2.2-18.111-3.365-26.089s-2.364-15.184-3.46-21.2c-.515-3.012-1.058-5.719-1.506-8.111s-.858-4.442-1.2-6.11l-.773-3.86c-.076-.429-.143-.762-.191-1.01a1.852,1.852,0,0,1-.047-.353,2.094,2.094,0,0,1,.1.343c.066.248.143.572.238.953.2.953.5,2.2.858,3.813s.82,3.708,1.287,6.091,1.039,5.1,1.582,8.111c1.144,6,2.345,13.192,3.565,21.189s2.364,16.823,3.412,26.1c2.069,18.558,3.27,35.42,3.947,47.659.333,6.109.562,11.047.686,14.469.057,1.687.1,3.011.133,3.936v1.03A1.174,1.174,0,0,1-831.779-1038.464Z" transform="translate(963.93 1354.015)" fill="#263238"/>
        <g id="Grupo_57779-2" data-name="Grupo 57779" transform="translate(38.892 241.984)" opacity="0.3">
          <path id="Trazado_129912" data-name="Trazado 129912" d="M-990.812-991.8a20.579,20.579,0,0,0,25.4-.591c4.766-4.165,7.33-10.323,11.047-15.489,7.749-10.752,20.369-16.776,30.13-25.736,5.929-5.433,11.009-12.115,18.263-15.6,7.759-3.718,16.767-3.2,25.374-3.393s17.977-1.564,23.83-7.836l-45.753,1.43c-5.719.181-11.658.4-16.88,2.792-7.311,3.337-12.115,10.342-17.367,16.433a96.068,96.068,0,0,1-20.465,17.863c-2.983,1.906-6.234,3.88-7.826,7.073-.953,1.983-1.211,4.242-1.782,6.387-2.678,10.037-14.155,16.8-24.23,14.3" transform="translate(991.07 1060.45)"/>
        </g>
        <path id="Trazado_129913" data-name="Trazado 129913" d="M-972.388-970.975a1.649,1.649,0,0,1,0,.467,6.335,6.335,0,0,1-.172,1.306,18.646,18.646,0,0,1-1.772,4.518,27.84,27.84,0,0,1-4.213,5.834,19.064,19.064,0,0,1-7.263,4.947,38.038,38.038,0,0,1-8.578,2.04c-2.688.362-5.119.515-7.159.591s-3.688.086-4.823.067h-1.316a2.09,2.09,0,0,1-.457,0,10.888,10.888,0,0,1,1.763-.115c1.144-.047,2.793-.1,4.823-.219s4.442-.315,7.1-.7a39.249,39.249,0,0,0,8.445-2.059,18.971,18.971,0,0,0,7.121-4.766,28.948,28.948,0,0,0,4.232-5.719,20.575,20.575,0,0,0,1.906-4.385A17.041,17.041,0,0,0-972.388-970.975Z" transform="translate(1037.816 1261.267)" fill="#263238"/>
        <path id="Trazado_129914" data-name="Trazado 129914" d="M-974.994-1122.577a1.464,1.464,0,0,1,.076.467c0,.353.057.791.1,1.325.076,1.144.191,2.812.381,4.861.334,4.108,1.048,9.751,1.792,16,.715,5.957,1.087,11.438,1.182,15.432l-.124-.162a9.863,9.863,0,0,1,2.793,1.325,4.656,4.656,0,0,1,1.506,1.792,4.082,4.082,0,0,1,.42,1.906,8.94,8.94,0,0,0-.6-1.849,4.481,4.481,0,0,0-1.5-1.64,9.858,9.858,0,0,0-2.736-1.22h-.115v-.124c-.181-4.023-.6-9.446-1.306-15.394-.743-6.243-1.42-11.905-1.659-16.032-.143-2.059-.2-3.727-.219-4.88v-1.335A2.932,2.932,0,0,1-974.994-1122.577Z" transform="translate(1022.57 1331.019)" fill="#263238"/>
        <path id="Trazado_129915" data-name="Trazado 129915" d="M-730.328-1083.116a.957.957,0,0,1,0-.267,4.246,4.246,0,0,1,.057-.791c.066-.724.162-1.744.276-3.031s.3-2.917.41-4.766.343-3.994.419-6.358.267-4.937.276-7.711c0-1.382.057-2.859.047-4.3l-.067-4.546a190.738,190.738,0,0,0-1.582-20.217,183.621,183.621,0,0,0-3.927-19.883c-.41-1.506-.81-2.974-1.192-4.4s-.848-2.783-1.249-4.108c-.782-2.659-1.668-5.089-2.44-7.32-.372-1.115-.763-2.173-1.154-3.155l-1.077-2.8c-.658-1.763-1.3-3.241-1.811-4.461s-.877-2.135-1.163-2.8l-.286-.743a.821.821,0,0,1-.086-.258,1.5,1.5,0,0,1,.134.239c.085.191.191.42.334.715.3.667.715,1.6,1.248,2.774s1.211,2.678,1.906,4.432c.343.868.715,1.8,1.115,2.793s.8,2.03,1.192,3.155c.791,2.22,1.7,4.641,2.5,7.311.41,1.325.877,2.688,1.277,4.118s.8,2.859,1.21,4.4a177.071,177.071,0,0,1,3.975,19.931,184.007,184.007,0,0,1,1.554,20.265c0,1.563,0,3.088.047,4.565s-.057,2.917-.076,4.308c0,2.783-.21,5.367-.334,7.721s-.352,4.489-.5,6.357-.334,3.479-.5,4.766-.276,2.3-.362,3.021l-.115.782A.824.824,0,0,1-730.328-1083.116Z" transform="translate(916.687 1359.758)" fill="#263238"/>
        <path id="Trazado_129916" data-name="Trazado 129916" d="M-642.811-1067.537a8.136,8.136,0,0,1-.448-1.335c-.267-.877-.572-2.154-.887-3.755a51.965,51.965,0,0,1-.791-5.662,60.126,60.126,0,0,1-.124-7.016,59.072,59.072,0,0,1,.782-6.968,54.033,54.033,0,0,1,1.306-5.567c.467-1.563.9-2.812,1.239-3.651a8.83,8.83,0,0,1,.572-1.3,6.752,6.752,0,0,1-.381,1.363c-.3.858-.667,2.116-1.087,3.679s-.839,3.441-1.2,5.557a65.057,65.057,0,0,0-.734,6.911,66.434,66.434,0,0,0,.086,6.948c.162,2.135.4,4.042.677,5.643s.524,2.86.734,3.765A6.794,6.794,0,0,1-642.811-1067.537Z" transform="translate(870.786 1321.913)" fill="#263238"/>
        <path id="Trazado_129917" data-name="Trazado 129917" d="M-589.324-1087.709a5.2,5.2,0,0,1-.8-.858,25.724,25.724,0,0,1-1.906-2.545,43.363,43.363,0,0,1-7.415-19.588c-.153-1.334-.219-2.431-.229-3.183a4.894,4.894,0,0,1,0-1.173c.086,0,.152,1.659.543,4.318a48.249,48.249,0,0,0,7.359,19.426C-590.315-1089.062-589.257-1087.766-589.324-1087.709Z" transform="translate(849.897 1327.558)" fill="#263238"/>
        <path id="Trazado_129918" data-name="Trazado 129918" d="M-548.944-1090.182a9.774,9.774,0,0,1-1.049-1.134,40.214,40.214,0,0,1-2.565-3.317,50.986,50.986,0,0,1-6.338-12.286,45.491,45.491,0,0,1-1.906-7.4,35.09,35.09,0,0,1-.448-6.225,20.028,20.028,0,0,1,.133-2.392,12.817,12.817,0,0,1,.229-1.792,7.759,7.759,0,0,1,.324-1.506,10.432,10.432,0,0,1-.133,1.535,14.386,14.386,0,0,0-.143,1.782,20.866,20.866,0,0,0-.057,2.373,38.046,38.046,0,0,0,.544,6.148,47.719,47.719,0,0,0,1.906,7.3,54.77,54.77,0,0,0,6.167,12.258c.953,1.459,1.811,2.621,2.421,3.4A8.487,8.487,0,0,1-548.944-1090.182Z" transform="translate(832.204 1332.7)" fill="#263238"/>
        <path id="Trazado_129919" data-name="Trazado 129919" d="M-816.064-1232.566a5.213,5.213,0,0,1-.2.677q-.238.715-.658,1.906c-.563,1.649-1.392,4.032-2.3,7.006a174.537,174.537,0,0,0-5.519,23.649c-.591,3.66-1.039,7.206-1.363,10.485l-.057.591-.362-.467c-5.081-6.472-9.274-11.858-11.782-15.127h.162l-2.945,1.782-.772.448a.825.825,0,0,1-.276.124l.238-.181.744-.505,2.859-1.906.1-.066.066.1c2.593,3.193,6.844,8.531,11.953,14.984l-.419.124c.315-3.317.753-6.872,1.344-10.552a159.506,159.506,0,0,1,5.719-23.668c.953-2.964,1.83-5.328,2.45-6.958.305-.781.553-1.391.743-1.906A4.367,4.367,0,0,1-816.064-1232.566Z" transform="translate(961.436 1381.625)" fill="#263238"/>
        <path id="Trazado_129920" data-name="Trazado 129920" d="M-905.674-1200.187a4.21,4.21,0,0,1,.391.381l1.039,1.163c.887,1.02,2.163,2.5,3.689,4.375,3.069,3.727,7.168,9.008,11.381,15.051,1.839,2.631,3.546,5.195,5.071,7.549h-.381l7.282-10.351,2.126-2.946a7.124,7.124,0,0,1,.81-1.029,9.818,9.818,0,0,1-.686,1.115l-2.011,3.022c-1.8,2.631-4.271,6.243-7.14,10.485l-.2.286-.191-.3c-1.534-2.345-3.25-4.889-5.08-7.52-4.213-6.034-8.264-11.334-11.247-15.118l-3.565-4.47-.953-1.22A2.282,2.282,0,0,1-905.674-1200.187Z" transform="translate(990.671 1366.727)" fill="#263238"/>
        <path id="Trazado_129921" data-name="Trazado 129921" d="M-845.79-903.943l-.162.1-.5.286-.829.457-.534.3-.639.258a42.665,42.665,0,0,1-8.092,2.345c-7.082,1.411-17.262,2.3-29.139,2.288h0a186.008,186.008,0,0,1-59.745-17.6,141.239,141.239,0,0,1-15.479-8.578l.286.143.8.438,3.06,1.744,4.89,2.659c1.906.953,4.118,2.135,6.6,3.289a190.757,190.757,0,0,0,59.631,17.405h0c11.838.048,22.009-.772,29.072-2.107a45.054,45.054,0,0,0,8.083-2.2l.648-.238.543-.276.839-.419.524-.248Z" transform="translate(1016.087 1239.692)" fill="#263238"/>
        <path id="Trazado_129922" data-name="Trazado 129922" d="M-832.5-929.412l-.219.057-.629.133-2.45.477c-2.135.333-5.242.724-9.093,1.01-7.721.61-18.406.734-30.2.41s-22.447-1.125-30.139-1.954c-3.813-.419-6.939-.858-9.075-1.2l-2.45-.457-.629-.133c-.143,0-.219-.048-.21-.057h.219l.639.086,2.459.362c2.145.286,5.242.667,9.084,1.048,7.683.734,18.339,1.449,30.121,1.8s22.447.258,30.149-.267c3.813-.238,6.958-.572,9.093-.848l2.459-.381.639-.086A.585.585,0,0,1-832.5-929.412Z" transform="translate(996.155 1242.933)" fill="#263238"/>
        <path id="Trazado_129923" data-name="Trazado 129923" d="M-816.17-898.155c-.076,0,.438-1.43.953-3.755a49.2,49.2,0,0,0,1.182-9.246,38.4,38.4,0,0,0-.686-9.265,37.27,37.27,0,0,0-1.134-3.7,4.757,4.757,0,0,1,.524.953,15.916,15.916,0,0,1,.953,2.7,33.721,33.721,0,0,1,.849,9.369,42.36,42.36,0,0,1-1.335,9.313c-.143.581-.315,1.106-.457,1.554s-.286.848-.42,1.163A3.978,3.978,0,0,1-816.17-898.155Z" transform="translate(949.494 1239.708)" fill="#263238"/>
        <path id="Trazado_129924" data-name="Trazado 129924" d="M-818.456-856.007a13.19,13.19,0,0,1-.219-2.764c0-1.707-.057-4.07,0-6.673s.076-4.766.1-6.672a17.269,17.269,0,0,1,.143-2.764,13.384,13.384,0,0,1,.209,2.755c0,1.716.057,4.08,0,6.673s-.085,4.766-.114,6.672A19.922,19.922,0,0,1-818.456-856.007Z" transform="translate(950.654 1217.054)" fill="#263238"/>
        <path id="Trazado_129925" data-name="Trazado 129925" d="M-994.044-1050.541a5,5,0,0,1-1.173.066c-.753,0-1.839,0-3.184.076a66.366,66.366,0,0,0-20.474,4.127c-1.259.457-2.278.858-2.974,1.144a5.5,5.5,0,0,1-1.105.4,4.749,4.749,0,0,1,1.029-.572c.677-.343,1.668-.792,2.926-1.306a57.19,57.19,0,0,1,20.589-4.118c1.354,0,2.45,0,3.2.086A5.754,5.754,0,0,1-994.044-1050.541Z" transform="translate(1044.631 1297.959)" fill="#263238"/>
        <path id="Trazado_129926" data-name="Trazado 129926" d="M-1035.093-1034.922a28.585,28.585,0,0,0-3.908,4.137,28.318,28.318,0,0,0-4.976,12.649,61.558,61.558,0,0,0-.172,13.745c.143,1.7.267,3.107.353,4.174a8.081,8.081,0,0,1,.076,1.535,10.229,10.229,0,0,1-.267-1.516c-.143-.953-.324-2.4-.505-4.165a55.657,55.657,0,0,1,0-13.85,27.555,27.555,0,0,1,5.166-12.782,19.2,19.2,0,0,1,2.926-3.031,8.051,8.051,0,0,1,.953-.686C-1035.207-1034.865-1035.112-1034.931-1035.093-1034.922Z" transform="translate(1054.74 1290.689)" fill="#263238"/>
        <path id="Trazado_129927" data-name="Trazado 129927" d="M-917.2-1088.662c.153,0,.391,2.964,1.564,6.415s2.745,6,2.611,6.072a5.79,5.79,0,0,1-1.134-1.592,23.52,23.52,0,0,1-1.906-4.318,22.859,22.859,0,0,1-1.039-4.613A5.841,5.841,0,0,1-917.2-1088.662Z" transform="translate(995.995 1315.415)" fill="#fff"/>
        <g id="Grupo_57780" data-name="Grupo 57780" transform="translate(72.73 179.103)" opacity="0.3">
          <path id="Trazado_129928" data-name="Trazado 129928" d="M-928.4-1123.674a15.126,15.126,0,0,0,9.732.286c0,1.439.067,2.859.1,4.337a33.838,33.838,0,0,0,24.144-36.478c.563,1.249,2.4,1.439,3.565.7a6.673,6.673,0,0,0,2.278-3.346,49.309,49.309,0,0,0,3.365-15.527l-9.618,12.639a71.335,71.335,0,0,0-13.021-15.851,293.167,293.167,0,0,1-18.854,52.1" transform="translate(928.395 1176.919)"/>
        </g>
        <g id="Grupo_57781" data-name="Grupo 57781" transform="translate(219.42 220.081)" opacity="0.3">
          <path id="Trazado_129929" data-name="Trazado 129929" d="M-647.265-1100.658A49.243,49.243,0,0,0-656.5-1067.3a7.087,7.087,0,0,0,.734,2.907,2.65,2.65,0,0,0,2.468,1.42c1.259-.163,2.04-1.449,2.412-2.65.953-3.1.514-6.425.3-9.665a59.848,59.848,0,0,1,4.108-25.736" transform="translate(656.697 1101.02)"/>
        </g>
        <g id="Grupo_57782" data-name="Grupo 57782" transform="translate(278.026 225.237)" opacity="0.3">
          <path id="Trazado_129930" data-name="Trazado 129930" d="M-548.146-1081.88l.762,1.553c.734.458.953,1.64,1.487,2.287a2.248,2.248,0,0,0,2.478.477,2.493,2.493,0,0,0,.953-.953,35.886,35.886,0,0,0,5.233-12.954A45.262,45.262,0,0,0-548.146-1081.88Z" transform="translate(548.146 1091.469)"/>
        </g>
        <g id="Grupo_57783" data-name="Grupo 57783" transform="translate(250.747 217.898)" opacity="0.3">
          <path id="Trazado_129931" data-name="Trazado 129931" d="M-598.654-1105.063a43.953,43.953,0,0,0,3.527,18.559,27.348,27.348,0,0,0,12.82,13.554C-588.77-1082.549-596.3-1091.89-598.654-1105.063Z" transform="translate(598.673 1105.063)"/>
        </g>
        <g id="Grupo_57784" data-name="Grupo 57784" transform="translate(83.081 328.762)" opacity="0.3">
          <path id="Trazado_129932" data-name="Trazado 129932" d="M-907.563-898.157h.095c-.591-.515-1.182-1.03-1.754-1.563Z" transform="translate(909.222 899.72)"/>
        </g>
        <g id="Grupo_57785" data-name="Grupo 57785" transform="translate(84.835 330.364)" opacity="0.3">
          <path id="Trazado_129933" data-name="Trazado 129933" d="M-905.974-896.754a71.489,71.489,0,0,0,83.185,7.711A128.07,128.07,0,0,1-905.974-896.754Z" transform="translate(905.974 896.754)"/>
        </g>
        <path id="Trazado_129934" data-name="Trazado 129934" d="M-1012.544-1018.366a4.471,4.471,0,0,1-.953.276,27,27,0,0,1-2.707.477,39.728,39.728,0,0,1-17.881-1.744c-1.1-.381-1.964-.715-2.555-.953a4.3,4.3,0,0,1-.9-.458c0-.076,1.363.458,3.555,1.115a47.585,47.585,0,0,0,8.788,1.735,46.971,46.971,0,0,0,8.951,0C-1014-1018.195-1012.564-1018.452-1012.544-1018.366Z" transform="translate(1051.341 1284.18)" fill="#fff"/>
        <path id="Trazado_129935" data-name="Trazado 129935" d="M-1015.071-1001.7a5.048,5.048,0,0,1-1.106.4c-.724.229-1.792.5-3.117.772a42.114,42.114,0,0,1-20.97-1.191c-1.286-.42-2.316-.81-3.012-1.115a5.9,5.9,0,0,1-1.058-.524c0-.086,1.582.553,4.175,1.306a46.637,46.637,0,0,0,20.808,1.172C-1016.711-1001.331-1015.1-1001.788-1015.071-1001.7Z" transform="translate(1054.469 1276.171)" fill="#fff"/>
        <path id="Trazado_129936" data-name="Trazado 129936" d="M-1009.958-1139.19a8.233,8.233,0,0,1-1.363.467l-3.737,1.134c-3.155.953-7.5,2.326-12.258,3.984s-9.017,3.288-12.086,4.5l-3.631,1.43a6.8,6.8,0,0,1-1.354.477,8.017,8.017,0,0,1,1.277-.648c.839-.4,2.059-.953,3.575-1.583,3.041-1.3,7.292-2.984,12.057-4.642s9.132-2.983,12.325-3.812c1.592-.439,2.859-.772,3.813-.953A7.333,7.333,0,0,1-1009.958-1139.19Z" transform="translate(1054.493 1338.662)" fill="#fff"/>
        <path id="Trazado_129937" data-name="Trazado 129937" d="M-1007.706-1110.7c0,.133-8.636,1.839-19.331,3.813s-19.4,3.469-19.417,3.289,8.626-1.83,19.331-3.813S-1007.735-1110.836-1007.706-1110.7Z" transform="translate(1055.443 1325.559)" fill="#fff"/>
        <path id="Trazado_129938" data-name="Trazado 129938" d="M-814.485-1200.729c-.124.095-1.83-2.154-4.49-4.347s-5.166-3.46-5.1-3.6a6.131,6.131,0,0,1,1.716.724,22.771,22.771,0,0,1,3.708,2.5,22.438,22.438,0,0,1,3.136,3.184A5.921,5.921,0,0,1-814.485-1200.729Z" transform="translate(953.127 1370.634)" fill="#fff"/>
        <path id="Trazado_129939" data-name="Trazado 129939" d="M-808.67-1209.574c-.124.086-1.687-2.021-4.042-4.213s-4.547-3.632-4.461-3.755a16.566,16.566,0,0,1,4.766,3.393A16.343,16.343,0,0,1-808.67-1209.574Z" transform="translate(949.952 1374.712)" fill="#fff"/>
        <path id="Trazado_129940" data-name="Trazado 129940" d="M-890.134-961.618c-.133,0-1.906-8.969-3.956-20.093s-3.6-20.16-3.469-20.16,1.906,8.979,3.955,20.1S-890-961.637-890.134-961.618Z" transform="translate(986.941 1275.482)" fill="#fff"/>
        <path id="Trazado_129941" data-name="Trazado 129941" d="M-869.567-968.827a2.111,2.111,0,0,1-.172-.5c-.1-.382-.229-.868-.381-1.459-.324-1.268-.772-3.107-1.3-5.386-1.039-4.565-2.373-10.895-3.631-17.929s-2.2-13.44-2.8-18.11c-.3-2.326-.524-4.2-.648-5.51l-.143-1.5a2.048,2.048,0,0,1,0-.533,2.1,2.1,0,0,1,.114.524l.238,1.487c.2,1.363.477,3.212.81,5.481.686,4.623,1.687,11.01,2.935,18.044s2.535,13.345,3.489,17.939c.477,2.23.858,4.07,1.143,5.424l.286,1.477A1.916,1.916,0,0,1-869.567-968.827Z" transform="translate(978.241 1283.711)" fill="#fff"/>
        <path id="Trazado_129942" data-name="Trazado 129942" d="M-903.042-910.791a70.886,70.886,0,0,1-.429-8.236,69.287,69.287,0,0,1,.076-8.236,70.492,70.492,0,0,1,.429,8.226A69.452,69.452,0,0,1-903.042-910.791Z" transform="translate(989.697 1241.155)" fill="#fff"/>
        <path id="Trazado_129943" data-name="Trazado 129943" d="M-887.352-907.606a14.465,14.465,0,0,1-.648-2.859,60.345,60.345,0,0,1-.753-13.955,13.551,13.551,0,0,1,.343-2.859,21.066,21.066,0,0,1,0,2.859c0,1.782,0,4.241.124,6.958s.41,5.157.629,6.93A20.159,20.159,0,0,1-887.352-907.606Z" transform="translate(982.939 1241.162)" fill="#fff"/>
        <path id="Trazado_129944" data-name="Trazado 129944" d="M-874.187-859.515c-.133,0-.325-5.471-.429-12.219s-.066-12.22.076-12.22.324,5.462.429,12.22S-874.044-859.515-874.187-859.515Z" transform="translate(976.409 1221.229)" fill="#fff"/>
        <path id="Trazado_129945" data-name="Trazado 129945" d="M-855.5-859.75c-.133,0-.324-4.766-.41-10.618s-.057-10.638.076-10.638.324,4.766.419,10.628S-855.358-859.75-855.5-859.75Z" transform="translate(967.797 1219.872)" fill="#fff"/>
        <path id="Trazado_129946" data-name="Trazado 129946" d="M-698.154-1150.421c.077.105-4.823,3.918-10.942,8.522s-11.162,8.236-11.238,8.121,4.813-3.927,10.942-8.522S-698.239-1150.535-698.154-1150.421Z" transform="translate(905.396 1343.831)" fill="#fff"/>
        <path id="Trazado_129947" data-name="Trazado 129947" d="M-704.358-1163.309c.086.115-4.87,3.813-11.066,8.35s-11.285,8.064-11.371,7.949,4.88-3.813,11.076-8.35S-704.434-1163.423-704.358-1163.309Z" transform="translate(908.37 1349.761)" fill="#fff"/>
        <path id="Trazado_129948" data-name="Trazado 129948" d="M-618.287-1050.936a2.644,2.644,0,0,1-.4-.467l-1.077-1.392-.763-1.01c-.267-.382-.534-.81-.829-1.258a35.174,35.174,0,0,1-1.906-3.136l-1.048-1.906c-.353-.648-.667-1.363-1.02-2.088-.725-1.43-1.335-3.041-2.011-4.708a61.79,61.79,0,0,1-3.917-23.048c.086-1.811.124-3.526.343-5.118.1-.8.153-1.573.276-2.307s.248-1.439.362-2.116c.2-1.354.544-2.535.792-3.593.133-.524.238-1.02.371-1.468s.267-.838.381-1.21c.229-.677.41-1.229.553-1.659a2.483,2.483,0,0,1,.229-.572,2.661,2.661,0,0,1-.133.6c-.115.438-.267.953-.458,1.687l-.343,1.22c-.115.448-.21.953-.334,1.468-.219,1.058-.534,2.24-.715,3.594-.1.667-.21,1.372-.334,2.1s-.153,1.506-.239,2.3c-.2,1.592-.219,3.3-.3,5.09a63.252,63.252,0,0,0,3.889,22.877c.658,1.668,1.249,3.269,1.906,4.7.343.724.648,1.43.953,2.087l1.01,1.906c.61,1.21,1.306,2.23,1.859,3.155.286.457.543.886.8,1.277l.725,1.029.953,1.449A2.981,2.981,0,0,1-618.287-1050.936Z" transform="translate(864.42 1324.309)" fill="#fff"/>
        <path id="Trazado_129949" data-name="Trazado 129949" d="M-600.063-1062.172a2.465,2.465,0,0,1-.382-.4l-1.029-1.182c-.448-.515-.953-1.163-1.554-1.906a26.794,26.794,0,0,1-1.906-2.678c-.639-1.03-1.43-2.126-2.144-3.374s-1.459-2.593-2.211-4.032a66.849,66.849,0,0,1-6.377-20.017c-.219-1.6-.448-3.126-.534-4.566s-.181-2.764-.21-3.994,0-2.326,0-3.3a24.871,24.871,0,0,1,.143-2.488c.067-.686.114-1.153.153-1.563a2.156,2.156,0,0,1,.086-.544,3.052,3.052,0,0,1,0,.553c0,.41,0,.954-.057,1.564a24.42,24.42,0,0,0-.048,2.488c.019.972,0,2.068.048,3.279s.1,2.545.267,3.965.343,2.946.572,4.537a69.467,69.467,0,0,0,6.339,19.845c.743,1.43,1.42,2.8,2.164,4.023s1.41,2.374,2.078,3.384,1.306,1.906,1.859,2.707,1.058,1.458,1.487,1.992l.954,1.249A2.74,2.74,0,0,0-600.063-1062.172Z" transform="translate(857.586 1326.251)" fill="#fff"/>
        <path id="Trazado_129950" data-name="Trazado 129950" d="M-577.7-1105.695a23.858,23.858,0,0,1-2.793,0,29.7,29.7,0,0,0-6.615.953,28.943,28.943,0,0,0-6.206,2.469c-1.516.81-2.392,1.421-2.44,1.354s.171-.21.562-.5a15.119,15.119,0,0,1,1.7-1.154,24.513,24.513,0,0,1,13-3.46,16.1,16.1,0,0,1,2.049.152A2.465,2.465,0,0,1-577.7-1105.695Z" transform="translate(848.077 1323.411)" fill="#fff"/>
        <path id="Trazado_129951" data-name="Trazado 129951" d="M-573.908-1088.039c0,.077-.953-.076-2.555-.171a29.543,29.543,0,0,0-12.076,1.735c-1.478.534-2.373.953-2.4.887a8.7,8.7,0,0,1,2.269-1.211,24.371,24.371,0,0,1,6-1.668,24.733,24.733,0,0,1,6.234-.1A9.148,9.148,0,0,1-573.908-1088.039Z" transform="translate(845.862 1315.439)" fill="#fff"/>
        <path id="Trazado_129952" data-name="Trazado 129952" d="M-872.228-1189.33c.1.1-2.107,2.269-4.623,5.109s-4.432,5.262-4.547,5.176a7.361,7.361,0,0,1,1.086-1.716c.744-1.01,1.821-2.364,3.089-3.813a47.136,47.136,0,0,1,3.412-3.5A7.484,7.484,0,0,1-872.228-1189.33Z" transform="translate(979.502 1361.732)" fill="#fff"/>
        <path id="Trazado_129953" data-name="Trazado 129953" d="M-877.927-1198.457a39.208,39.208,0,0,1-4.261,4.508,40.451,40.451,0,0,1-4.613,4.147,39.214,39.214,0,0,1,4.261-4.508A40.481,40.481,0,0,1-877.927-1198.457Z" transform="translate(981.988 1365.931)" fill="#fff"/>
        <path id="Trazado_129954" data-name="Trazado 129954" d="M-764.781-1019a3.217,3.217,0,0,1-.563.152l-1.639.343c-1.42.3-3.5.677-6.062,1.106-5.138.848-12.268,1.821-20.189,2.44s-15.117.792-20.322.744c-2.6,0-4.708-.067-6.158-.134l-1.677-.086a2.565,2.565,0,0,1-.581-.066,2.49,2.49,0,0,1,.581,0h7.835c5.2-.048,12.391-.258,20.284-.877s15.031-1.535,20.169-2.307c2.574-.381,4.652-.705,6.081-.953l1.659-.257A2.414,2.414,0,0,1-764.781-1019Z" transform="translate(952.16 1283.361)" fill="#fff"/>
        <path id="Trazado_129955" data-name="Trazado 129955" d="M-764.04-1003.054a2.674,2.674,0,0,1-.562.153l-1.64.343c-1.43.3-3.5.677-6.072,1.106-5.128.858-12.258,1.821-20.179,2.45s-15.118.782-20.322.744c-2.6,0-4.709-.076-6.167-.143l-1.668-.086a2.454,2.454,0,0,1-.581-.067,3.085,3.085,0,0,1,.581,0h7.836c5.194-.048,12.391-.267,20.284-.887s15.022-1.534,20.17-2.3c2.564-.381,4.642-.715,6.081-.953l1.659-.248A2.218,2.218,0,0,1-764.04-1003.054Z" transform="translate(951.819 1276.026)" fill="#fff"/>
        <g id="Grupo_57786" data-name="Grupo 57786" transform="translate(180.802 197.251)" opacity="0.3">
          <path id="Trazado_129956" data-name="Trazado 129956" d="M-717.816-1066.63c5.242-12.106,5.547-26.594,2.859-39.5s-8-25.1-13.268-37.174c7.464,27.137,7.1,45.457,6.586,70.536Z" transform="translate(728.225 1143.304)"/>
        </g>
        <path id="Trazado_129957" data-name="Trazado 129957" d="M-560.566-1150.495l32.484-28.471,9.713,19.616-34.991,38.766S-564.169-1138.16-560.566-1150.495Z" transform="translate(832.225 1356.963)" fill="#ffbe9d"/>
        <path id="Trazado_129958" data-name="Trazado 129958" d="M-459.83-1186.538s-3.2-2.631-9.932-.429-10.952-.334-13.717-1.153A17,17,0,0,0-500.531-1183l10.123,19.178,32.837,1.43,27.118-1.01a3.308,3.308,0,0,0-1.354-4.118l5.719-1.62s0-5.176-6.167-4.766l1.4-2.974s-3.641-4.223-7.168.62c0,0-3.451-2.86-8.493,1.735l-5.414,1.411-13.059-4.632S-454.216-1180.981-459.83-1186.538Z" transform="translate(804.265 1361.437)" fill="#ffbe9d"/>
        <path id="Trazado_129959" data-name="Trazado 129959" d="M-447.923-1163.644a10.626,10.626,0,0,1-1.459-.534l-3.9-1.6c-3.289-1.372-7.807-3.3-12.792-5.462-2.507-1.068-4.852-2.174-7.073-2.86a15.036,15.036,0,0,0-6.081-.781,9.924,9.924,0,0,0-3.956,1.191c-.848.486-1.258.868-1.287.839s.086-.115.276-.305a6.787,6.787,0,0,1,.953-.705,9.538,9.538,0,0,1,4.013-1.373,15.014,15.014,0,0,1,6.253.7,74.553,74.553,0,0,1,7.129,2.86c4.985,2.163,9.532,4.146,12.744,5.595l3.813,1.754A7.652,7.652,0,0,1-447.923-1163.644Z" transform="translate(796.876 1355.282)" fill="#eb996e"/>
        <path id="Trazado_129960" data-name="Trazado 129960" d="M-406.749-1157.548a13.377,13.377,0,0,1,1.83-1.439c1.163-.848,2.755-2.021,4.47-3.383s3.231-2.631,4.318-3.556a12.057,12.057,0,0,1,1.83-1.458,10.224,10.224,0,0,1-1.592,1.716c-1.039,1-2.526,2.326-4.251,3.689s-3.365,2.507-4.575,3.288A9.732,9.732,0,0,1-406.749-1157.548Z" transform="translate(761.116 1351.635)" fill="#eb996e"/>
        <path id="Trazado_129961" data-name="Trazado 129961" d="M-391.533-1151.11c-.1-.115,2.383-2.23,4.966-5.3s4.261-5.862,4.394-5.786a7.829,7.829,0,0,1-.953,1.906,33.971,33.971,0,0,1-3.04,4.194,34.7,34.7,0,0,1-3.622,3.7A7.858,7.858,0,0,1-391.533-1151.11Z" transform="translate(754.116 1349.248)" fill="#eb996e"/>
        <path id="Trazado_129962" data-name="Trazado 129962" d="M-983.947-1062c.706,0,63.692-29.12,63.692-29.12l10.18,18.94s-51.472,46.458-62.567,48.355-23.829.181-23.829-11.657S-983.947-1062-983.947-1062Z" transform="translate(1032.447 1316.544)" fill="#ffbe9d"/>
        <path id="Trazado_129963" data-name="Trazado 129963" d="M-814.632-1099.779s-3.2-2.631-9.923-.429-10.952-.334-13.726-1.153a17.157,17.157,0,0,0-17.024,5.338l10.1,18.958,32.828,1.43,27.1-1.01a3.308,3.308,0,0,0-1.354-4.118l5.719-1.62s0-5.176-6.167-4.766l1.4-2.974s-3.641-4.223-7.168.619c0,0-3.441-2.859-8.483,1.735l-5.424,1.411-13.059-4.633S-809.008-1094.223-814.632-1099.779Z" transform="translate(967.496 1321.49)" fill="#ffbe9d"/>
        <path id="Trazado_129964" data-name="Trazado 129964" d="M-803.546-1081.892a9.13,9.13,0,0,1-2.383.267c-1.487.076-3.536.048-5.8,0s-4.289-.124-5.719-.133a12.441,12.441,0,0,1-2.393-.1,11.315,11.315,0,0,1,2.393-.248c1.477-.076,3.527-.086,5.786,0s4.289.162,5.719.172A14.924,14.924,0,0,1-803.546-1081.892Z" transform="translate(951.177 1312.428)" fill="#eb996e"/>
        <path id="Trazado_129965" data-name="Trazado 129965" d="M-744-1073.345a2.856,2.856,0,0,1-.877.2c-.572.1-1.4.209-2.431.324-2.049.229-4.909.448-8.064.515a79.327,79.327,0,0,1-8.083-.181c-1.029-.066-1.906-.143-2.44-.219a3.561,3.561,0,0,1-.887-.152,25.248,25.248,0,0,1,3.346,0c2.059.047,4.909.1,8.054,0s5.986-.229,8.045-.372A28.18,28.18,0,0,1-744-1073.345Z" transform="translate(926.767 1308.371)" fill="#eb996e"/>
        <path id="Trazado_129966" data-name="Trazado 129966" d="M-845.893-1440.2c-1.707-14.869-12.525-32.675-27.309-30.34l-45.839,14.1a8.769,8.769,0,0,0-7.378,9.275l13.144,107.052c2.459,2.2,31.5,28.719,31.5,28.719l17.243-31.57s-.762-18.9-.743-18.778,18.9-4.137,21.58-29.205C-842.348-1403.423-844.007-1423.668-845.893-1440.2Z" transform="translate(1000.226 1491.211)" fill="#ffbe9d"/>
        <path id="Trazado_129967" data-name="Trazado 129967" d="M-793.19-1380.255a3.2,3.2,0,0,1-2.917,3.375,3.059,3.059,0,0,1-3.424-2.646c0-.021-.005-.041-.008-.062a3.193,3.193,0,0,1,2.86-3.374,3.049,3.049,0,0,1,3.47,2.562C-793.2-1380.352-793.2-1380.3-793.19-1380.255Z" transform="translate(941.841 1450.838)" fill="#263238"/>
        <path id="Trazado_129968" data-name="Trazado 129968" d="M-795.723-1393.09c-.371.438-2.859-1.229-6.32-1.048s-5.853,2.031-6.253,1.63c-.191-.181.171-.953,1.229-1.8a8.82,8.82,0,0,1,4.985-1.821,8.442,8.442,0,0,1,5.052,1.354C-795.933-1394.024-795.542-1393.29-795.723-1393.09Z" transform="translate(945.889 1456.887)" fill="#263238"/>
        <path id="Trazado_129969" data-name="Trazado 129969" d="M-853.587-1376.5a3.193,3.193,0,0,1-2.917,3.374,3.04,3.04,0,0,1-3.42-2.607c0-.033-.009-.066-.012-.1a3.193,3.193,0,0,1,2.907-3.374,3.069,3.069,0,0,1,3.434,2.654C-853.591-1376.54-853.589-1376.522-853.587-1376.5Z" transform="translate(969.629 1449.108)" fill="#263238"/>
        <path id="Trazado_129970" data-name="Trazado 129970" d="M-859.079-1389.683c-.371.438-2.859-1.23-6.31-1.039s-5.862,2.021-6.253,1.621c-.191-.172.162-.953,1.23-1.8a8.806,8.806,0,0,1,4.976-1.821,8.437,8.437,0,0,1,5.052,1.354C-859.289-1390.607-858.888-1389.873-859.079-1389.683Z" transform="translate(975.036 1455.319)" fill="#263238"/>
        <path id="Trazado_129971" data-name="Trazado 129971" d="M-823.938-1368.151c0-.2,2.087-.677,5.519-1.3.877-.133,1.7-.353,1.811-.953a4.494,4.494,0,0,0-.715-2.574l-2.935-6.539c-4.08-9.322-7.092-17-6.673-17.157s3.994,7.254,8.074,16.576q1.487,3.441,2.859,6.586a5.068,5.068,0,0,1,.629,3.422,2.19,2.19,0,0,1-1.372,1.354,5.991,5.991,0,0,1-1.477.286C-821.755-1368.084-823.919-1367.96-823.938-1368.151Z" transform="translate(954.459 1457.13)" fill="#263238"/>
        <path id="Trazado_129972" data-name="Trazado 129972" d="M-841.9-1274.964a63.361,63.361,0,0,1-33.762-7.177s9.274,16.671,34.048,13.068Z" transform="translate(976.862 1404.434)" fill="#eb996e"/>
        <path id="Trazado_129973" data-name="Trazado 129973" d="M-858.934-1413.583c-.3.953-3.746.686-7.75,1.372s-7.2,1.964-7.778,1.154c-.258-.391.267-1.3,1.535-2.269a12.969,12.969,0,0,1,5.719-2.326,13.108,13.108,0,0,1,6.129.4C-859.611-1414.726-858.829-1414.031-858.934-1413.583Z" transform="translate(976.339 1465.95)" fill="#263238"/>
        <path id="Trazado_129974" data-name="Trazado 129974" d="M-795.822-1414.957c-.562.81-2.964.124-5.814.229s-5.224.791-5.824,0c-.258-.391.076-1.192,1.1-1.983a8.426,8.426,0,0,1,9.379-.182C-795.945-1416.139-795.574-1415.348-795.822-1414.957Z" transform="translate(945.521 1467.048)" fill="#263238"/>
        <path id="Trazado_129975" data-name="Trazado 129975" d="M-939.7-1457.477c2.221-3.727,6.4-5.719,10.38-7.473a236.313,236.313,0,0,1,53.712-15.861c2.459,3.718.515,8.979-2.86,11.886s-7.816,4.165-11.934,5.881-8.292,4.28-9.856,8.455c-1.659,4.432.076,9.531-1.354,14.059-2.478,7.769-13.078,10.647-15.508,18.425-1.83,5.891,1.763,11.944,2.859,18.015a22.038,22.038,0,0,1-17.831,25.561,22.072,22.072,0,0,1-2.844.318q-3.174-32.914-6.32-65.827C-941.7-1448.612-942.058-1453.54-939.7-1457.477Z" transform="translate(1007.191 1495.842)" fill="#263238"/>
        <path id="Trazado_129976" data-name="Trazado 129976" d="M-827.174-1327.384a16.358,16.358,0,0,1-1.906,4.3,5.576,5.576,0,0,1-3.813,2.488,5,5,0,0,1-4.337-2.1,8.034,8.034,0,0,1-1.411-4.766c0-1.516.6-3.365,2.1-3.613a3.819,3.819,0,0,1,1.849.315l8.064,2.859" transform="translate(959.83 1426.954)" fill="#eb996e"/>
        <path id="Trazado_129977" data-name="Trazado 129977" d="M-830.978-1321.389c-.057-.248-1.754.544-4.241-.314a6.013,6.013,0,0,1-3.337-2.745,6.36,6.36,0,0,1-.353-5.166,5.728,5.728,0,0,1,.63-1.22c.3-.343.238-.324.581-.3a8.061,8.061,0,0,1,1.3.438l1.325.467c1.725.6,3.288,1.125,4.6,1.545,2.64.848,4.308,1.277,4.375,1.086s-1.477-.953-4.022-2.021c-1.278-.543-2.8-1.162-4.509-1.83l-1.305-.515c-.467-.162-.839-.353-1.478-.524a1.91,1.91,0,0,0-1.172.1,2.155,2.155,0,0,0-.839.734,6.681,6.681,0,0,0-.81,1.544,7.435,7.435,0,0,0,.544,6.32,6.805,6.805,0,0,0,4.174,3.05,6.475,6.475,0,0,0,3.441,0C-831.3-1321.026-830.978-1321.312-830.978-1321.389Z" transform="translate(960.775 1427.62)" fill="#263238"/>
        <path id="Trazado_129978" data-name="Trazado 129978" d="M-915.252-1345.336c3.812,4.032,2.935,10.485,1.115,15.671s-4.423,10.552-3.4,15.975c1.554,8.207,10.933,13.583,11.438,21.923s-8.417,15.165-8.216,23.62c.1,4.7,3.021,8.779,5.052,13.021s3.021,9.808-.191,13.249c-4,4.289-11.352,1.992-15.794-1.849-9.094-7.836-13.078-20.3-13.345-32.294s2.859-23.772,5.814-35.4,5.824-23.5,5.138-35.477" transform="translate(1005.825 1434.229)" fill="#263238"/>
        <path id="Trazado_129979" data-name="Trazado 129979" d="M-941.5-1252.834c-3.594,5.233-3.679,12.125-2.64,18.387s3.05,12.391,3.193,18.749c.153,6.92-1.906,13.849-.9,20.694.953,6.253,4.423,11.8,6.672,17.72s3.079,13.135-.81,18.11a13.934,13.934,0,0,0,11.934-6.243c-.048,1.592-.1,3.184-.162,4.766,10.323-3.536,15.918-15.251,16.2-26.146s-3.689-21.408-6.824-31.865-5.52-21.742-2.269-32.16" transform="translate(1008.634 1390.95)" fill="#263238"/>
        <path id="Trazado_129980" data-name="Trazado 129980" d="M-873.375-1483.42s-.077-.229-.2-.677a10.856,10.856,0,0,0-.648-1.906,15.249,15.249,0,0,0-4.823-6.167,17.631,17.631,0,0,0-5.033-2.774,17.19,17.19,0,0,0-6.672-.953,13.857,13.857,0,0,0-7.2,2.535,20.969,20.969,0,0,0-5.8,6.472,85.991,85.991,0,0,0-4.337,8.645,52.581,52.581,0,0,1-5.109,9.217,28.245,28.245,0,0,1-3.813,4.1c-1.41,1.258-2.935,2.421-4.489,3.575a78.284,78.284,0,0,0-9.341,7.358,18.829,18.829,0,0,0-3.65,4.89,13.519,13.519,0,0,0-.63,1.42,7.876,7.876,0,0,0-.476,1.477,14.074,14.074,0,0,0-.362,1.525l-.191,1.563c-.3,4.242.953,8.512,2.411,12.677.715,2.1,1.516,4.194,2.211,6.358a40.771,40.771,0,0,1,1.7,6.672,26.242,26.242,0,0,1,.324,3.47,22.792,22.792,0,0,1-.276,3.508,28.018,28.018,0,0,1-2.135,6.739c-1.906,4.336-4.413,8.312-5.91,12.629a20.57,20.57,0,0,0-1.229,6.615,19.626,19.626,0,0,0,1.153,6.51c1.43,4.184,3.813,7.864,6.034,11.524,1.125,1.83,2.173,3.67,3.136,5.547a34.654,34.654,0,0,1,2.307,5.8,27.34,27.34,0,0,1,.248,11.934c-.639,3.813-1.6,7.473-2.183,11.057a42.272,42.272,0,0,0-.534,5.29,26.459,26.459,0,0,0,.4,5.1,50.533,50.533,0,0,0,2.736,9.256c1.106,2.859,2.259,5.595,3.184,8.226a44.753,44.753,0,0,1,2.068,7.626,23.9,23.9,0,0,1,.191,6.854,17.873,17.873,0,0,1-1.659,5.519,13.792,13.792,0,0,1-5.224,5.91,7.855,7.855,0,0,1-1.067.562,6.589,6.589,0,0,1-.8.334l-.676.21.658-.258a5.726,5.726,0,0,0,.791-.353,7.048,7.048,0,0,0,1.048-.581,13.84,13.84,0,0,0,5.1-5.91,18.2,18.2,0,0,0,1.6-5.462,24.186,24.186,0,0,0-.239-6.777,44.383,44.383,0,0,0-2.087-7.55c-.953-2.611-2.1-5.318-3.212-8.207a50.347,50.347,0,0,1-2.793-9.313,27.218,27.218,0,0,1-.41-5.176,41.3,41.3,0,0,1,.514-5.347c.582-3.6,1.535-7.254,2.164-11.057a26.869,26.869,0,0,0-.258-11.743,33.471,33.471,0,0,0-2.288-5.719c-.953-1.859-2-3.689-3.117-5.51-2.192-3.66-4.632-7.358-6.1-11.619a20.121,20.121,0,0,1-1.172-6.672,20.884,20.884,0,0,1,1.248-6.767c1.525-4.385,4.023-8.379,5.919-12.668a28.129,28.129,0,0,0,2.107-6.615,21.669,21.669,0,0,0,.267-3.422,23.814,23.814,0,0,0-.324-3.4,38.686,38.686,0,0,0-1.668-6.577c-.7-2.145-1.487-4.242-2.211-6.348-1.448-4.184-2.716-8.512-2.421-12.868l.2-1.611a14.531,14.531,0,0,1,.371-1.573,8.4,8.4,0,0,1,.5-1.525,13.271,13.271,0,0,1,.648-1.458,19.248,19.248,0,0,1,3.746-5,85.048,85.048,0,0,1,9.408-7.388c1.554-1.143,3.069-2.3,4.461-3.536a27.985,27.985,0,0,0,3.727-4.032,52.044,52.044,0,0,0,5.1-9.132,86.751,86.751,0,0,1,4.385-8.674,21.335,21.335,0,0,1,5.91-6.539,14.024,14.024,0,0,1,7.416-2.631,17.4,17.4,0,0,1,6.758,1.03,17.748,17.748,0,0,1,5.071,2.783,15.032,15.032,0,0,1,4.766,6.282,9.983,9.983,0,0,1,.61,1.982C-873.423-1483.649-873.375-1483.42-873.375-1483.42Z" transform="translate(1006.25 1502.942)" fill="#fff"/>
      </g>
      <g id="freepik--Desk--inject-3" transform="translate(12.02 418.972)">
        <path id="Trazado_129981" data-name="Trazado 129981" d="M-677.123-840.488c0,.134-88.008.248-196.537.248s-196.556-.114-196.556-.248,87.988-.248,196.556-.248S-677.123-840.631-677.123-840.488Z" transform="translate(1070.216 840.736)" fill="#263238"/>
      </g>
      <g id="freepik--Cube--inject-3" transform="translate(243.834 56.505)">
        <path id="Trazado_129982" data-name="Trazado 129982" d="M-587.1-1345.6l-.276-57.667,48.994-26.518v56.552Z" transform="translate(616.247 1474.226)" fill="#26aab7"/>
        <g id="Grupo_57787" data-name="Grupo 57787" transform="translate(28.872 44.437)">
          <path id="Trazado_129983" data-name="Trazado 129983" d="M-587.1-1345.6l-.276-57.667,48.994-26.518v56.552Z" transform="translate(587.375 1429.788)" fill="#f5ca56"/>
        </g>
        <path id="Trazado_129984" data-name="Trazado 129984" d="M-473.049-1437.2l-.753,56.991,49.813,27.137v-56.448Z" transform="translate(563.992 1477.637)" fill="#26aab7"/>
        <g id="Grupo_57788" data-name="Grupo 57788" transform="translate(90.19 40.434)">
          <path id="Trazado_129985" data-name="Trazado 129985" d="M-473.049-1437.2l-.753,56.991,49.813,27.137v-56.448Z" transform="translate(473.802 1437.203)" fill="#f5ca56"/>
        </g>
        <path id="Trazado_129986" data-name="Trazado 129986" d="M-587.375-1298.054l49.451,28.376,48.889-27.681-49.356-28.92Z" transform="translate(616.247 1426.601)" fill="#26aab7"/>
        <g id="Grupo_57789" data-name="Grupo 57789" transform="translate(28.872 100.323)">
          <path id="Trazado_129987" data-name="Trazado 129987" d="M-587.375-1298.054l49.451,28.376,48.889-27.681-49.356-28.92Z" transform="translate(587.375 1326.278)" fill="#b89841"/>
        </g>
        <path id="Trazado_129988" data-name="Trazado 129988" d="M-496.025-1293.186l-.286-57.668,48.994-26.517v56.552Z" transform="translate(574.348 1450.109)" fill="#f7d578"/>
        <path id="Trazado_129989" data-name="Trazado 129989" d="M-585.451-1461.334-536-1432.967l48.889-27.68-49.356-28.92Z" transform="translate(615.361 1501.73)" fill="#f7d578"/>
        <path id="Trazado_129990" data-name="Trazado 129990" d="M-536.467-1294.355s.276-.182.829-.505l2.468-1.43c2.183-1.258,5.367-3.088,9.456-5.424l34.41-19.626-.1.172c0-16.138,0-35.458-.047-56.552l.353.219-26.107,14.164-22.877,12.391.133-.219c.086,21.428.172,41.073.239,57.668v.314l-.305-.171-35.974-20.741-9.913-5.719-2.583-1.516c-.591-.353-.877-.544-.877-.544l.905.486,2.611,1.468,9.97,5.662,36.059,20.589-.3.172c-.1-16.595-.21-36.221-.324-57.658v-.172l.124-.067,22.877-12.391,26.155-14.155.362-.19v57.067l-.1.057-34.5,19.474-9.532,5.328-2.5,1.382Z" transform="translate(616.238 1450.458)"/>
        <path id="Trazado_129991" data-name="Trazado 129991" d="M-538.156-1326.28c.076.115-10.78,6.548-24.22,14.365s-24.411,14.05-24.487,13.935,10.781-6.549,24.23-14.365S-538.222-1326.4-538.156-1326.28Z" transform="translate(616.011 1426.602)"/>
        <path id="Trazado_129992" data-name="Trazado 129992" d="M-613.687-1420.89l-.753,56.991,49.813,27.137v-56.448Z" transform="translate(628.699 1470.132)" fill="#f7d578"/>
        <path id="Trazado_129993" data-name="Trazado 129993" d="M-613.906-1420.89l.219.114.667.371,2.612,1.449,9.961,5.557,35.706,20.017.1.067v56.991l-.372-.2-.41-.219L-614.8-1363.69l-.114-.066v-.124c.276-17.109.514-31.379.677-41.4.086-4.956.153-8.865.2-11.543q0-1.973.057-3.031v-.762a1.278,1.278,0,0,1,0-.257v4.156c0,2.7-.057,6.625-.1,11.619-.1,9.97-.239,24.182-.419,41.215l-.1-.191,49.413,26.889.41.219-.362.219v-56.447l.115.191-35.439-20.141-9.961-5.719-2.64-1.506-.686-.4A1.168,1.168,0,0,1-613.906-1420.89Z" transform="translate(628.918 1470.131)" fill="#263238"/>
        <path id="Trazado_129994" data-name="Trazado 129994" d="M-631.811-1357.079c-.133,0-.248-13.688-.248-30.559s.115-30.569.248-30.569.248,13.678.248,30.569S-631.668-1357.079-631.811-1357.079Z" transform="translate(636.806 1468.897)" fill="#263238"/>
        <path id="Trazado_129995" data-name="Trazado 129995" d="M-640.6-1381.867c-.134,0-.248-13.687-.248-30.559s.114-30.568.248-30.568.248,13.688.248,30.568S-640.47-1381.867-640.6-1381.867Z" transform="translate(640.851 1480.302)" fill="#263238"/>
        <path id="Trazado_129996" data-name="Trazado 129996" d="M-525.359-1512.095a2.025,2.025,0,0,1-.458.286l-1.334.705-4.976,2.564c-4.194,2.145-9.99,5.128-16.357,8.484s-12.115,6.434-16.261,8.674l-4.928,2.65-1.344.705a1.908,1.908,0,0,1-.486.21,2.8,2.8,0,0,1,.438-.305l1.3-.782c1.143-.667,2.793-1.62,4.852-2.783,4.108-2.316,9.827-5.462,16.2-8.807s12.2-6.291,16.443-8.359c2.116-1.039,3.813-1.906,5.042-2.422l1.382-.629A3.073,3.073,0,0,1-525.359-1512.095Z" transform="translate(608.944 1512.095)" fill="#263238"/>
        <path id="Trazado_129997" data-name="Trazado 129997" d="M-547.6-1506.587a2.525,2.525,0,0,1-.448.276l-1.344.715-4.976,2.555c-4.2,2.154-10,5.128-16.366,8.484s-12.115,6.443-16.261,8.683l-4.919,2.641-1.354.705a1.78,1.78,0,0,1-.486.209,2.487,2.487,0,0,1,.438-.3l1.305-.782c1.134-.677,2.793-1.63,4.842-2.792,4.108-2.317,9.827-5.452,16.2-8.808s12.191-6.291,16.433-8.359c2.126-1.039,3.813-1.906,5.043-2.411l1.382-.639A2.01,2.01,0,0,1-547.6-1506.587Z" transform="translate(619.179 1509.561)" fill="#263238"/>
        <path id="Trazado_129998" data-name="Trazado 129998" d="M-368.808-1304.958c-.133,0-.248-10.485-.248-23.486s.114-23.487.248-23.487.248,10.485.248,23.487S-368.665-1304.958-368.808-1304.958Z" transform="translate(515.798 1438.404)" fill="#263238"/>
        <path id="Trazado_129999" data-name="Trazado 129999" d="M-360.9-1292.026c-.133,0-.248-10.485-.248-23.477s.114-23.487.248-23.487.248,10.486.248,23.487S-360.755-1292.026-360.9-1292.026Z" transform="translate(512.159 1432.449)" fill="#263238"/>
        <path id="Trazado_130000" data-name="Trazado 130000" d="M-455.205-1243.444c.067.115-8.083,5.128-18.2,11.191s-18.377,10.885-18.444,10.771,8.074-5.128,18.187-11.191S-455.281-1243.558-455.205-1243.444Z" transform="translate(572.294 1388.49)" fill="#263238"/>
        <path id="Trazado_130001" data-name="Trazado 130001" d="M-460.219-1230.8c.077.115-8.073,5.128-18.187,11.191s-18.377,10.885-18.454,10.771,8.045-5.119,18.158-11.191S-460.324-1230.917-460.219-1230.8Z" transform="translate(574.601 1382.673)" fill="#263238"/>
      </g>
    </g>
  </g>
</svg>
