<svg xmlns="http://www.w3.org/2000/svg" xmlns:xlink="http://www.w3.org/1999/xlink" width="91.928" height="91.927" viewBox="0 0 91.928 91.927">
  <defs>
    <radialGradient id="radial-gradient" cx="0.076" cy="0.019" r="1.465" gradientTransform="translate(0.001)" gradientUnits="objectBoundingBox">
      <stop offset="0" stop-color="#f6f6f7"/>
      <stop offset="0.477" stop-color="#f9f9fa"/>
      <stop offset="0.715" stop-color="#fff"/>
    </radialGradient>
  </defs>
  <g id="Grupo_58720" data-name="Grupo 58720" transform="translate(12710.428 3533.986)">
    <g id="Grupo_58660" data-name="Grupo 58660" transform="translate(-12927.428 -4275.319)">
      <g id="Grupo_42274" data-name="Grupo 42274" transform="translate(142 768.333)">
        <g id="Grupo_18423" data-name="Grupo 18423" transform="translate(75 -27)">
          <g id="Grupo_18421" data-name="Grupo 18421">
            <g id="Grupo_18420" data-name="Grupo 18420">
              <g id="Grupo_18419" data-name="Grupo 18419">
                <path id="Trazado_40936" data-name="Trazado 40936" d="M286.55,2191.684a45.964,45.964,0,1,1-45.963-45.962A45.963,45.963,0,0,1,286.55,2191.684Z" transform="translate(-194.623 -2145.721)" fill="#fff"/>
              </g>
            </g>
          </g>
          <path id="Trazado_40937" data-name="Trazado 40937" d="M286.23,2191.334a45.963,45.963,0,1,0-45.963,45.965A45.782,45.782,0,0,0,286.23,2191.334Z" transform="translate(-194.303 -2145.372)" fill="url(#radial-gradient)"/>
          <path id="Trazado_40938" data-name="Trazado 40938" d="M272.56,2188.562a35.084,35.084,0,1,0-35.084,35.084A34.953,34.953,0,0,0,272.56,2188.562Z" transform="translate(-191.373 -2142.446)" fill="none" stroke="#31aebb" stroke-miterlimit="10" stroke-width="4"/>
          <g id="Grupo_18422" data-name="Grupo 18422" transform="translate(8.143 25.805)">
            <path id="Trazado_40939" data-name="Trazado 40939" d="M279.682,2164.488a45.969,45.969,0,0,1-79.137,45.773,45.823,45.823,0,0,0,79.137-45.773Z" transform="translate(-200.545 -2164.488)" fill="#eceef0"/>
          </g>
        </g>
      </g>
    </g>
    <g id="Grupo_58661" data-name="Grupo 58661" transform="translate(-13206.671 -5351.499)">
      <path id="Trazado_17823" data-name="Trazado 17823" d="M550.24,1836.22c.342.086.687.158,1.024.26a7.377,7.377,0,0,1,5.291,6.021,9.1,9.1,0,0,1-.226,4.388,3.091,3.091,0,0,0,.183,1.17,3.034,3.034,0,0,1,3.49.407,3.106,3.106,0,0,1,1.072,2.49c-.008,3.826,0,7.653,0,11.48v.652c.218-.174.361-.28.494-.4.86-.747,1.714-1.5,2.577-2.244a2.852,2.852,0,0,1,4,.123,2.786,2.786,0,0,1-.132,3.984q-4.93,4.955-9.887,9.883a1.683,1.683,0,0,0-.542,1.3c.018,3.3.01,6.6.005,9.9a2.619,2.619,0,0,1-2.825,2.833q-3.725,0-7.449,0a2.616,2.616,0,0,1-2.787-2.773c0-3.112.011-6.225-.016-9.337a2.706,2.706,0,0,0-.332-1.189c-.409-.773-.891-1.509-1.4-2.348-.589,1-1.14,1.907-1.66,2.834a1.3,1.3,0,0,0-.071.6q-.005,4.669,0,9.337a2.641,2.641,0,0,1-2.887,2.88q-3.674,0-7.347,0a2.626,2.626,0,0,1-2.831-2.829c0-3.265-.011-6.531.015-9.8a1.9,1.9,0,0,0-.607-1.484c-3.069-3.04-6.114-6.1-9.175-9.153a5.429,5.429,0,0,1-1.556-2.151v-1.123c.03-.039.076-.073.086-.117a2.851,2.851,0,0,1,4.757-1.313c.573.531,1.175,1.033,1.765,1.545.379.329.763.651,1.235,1.054v-.66c0-3.86,0-7.72.007-11.581a3.05,3.05,0,0,1,2.794-3.146,9.432,9.432,0,0,1,1.849.234,2.372,2.372,0,0,0,.128-.972,8.9,8.9,0,0,1-.259-4.483,7.374,7.374,0,0,1,5.291-6.019c.336-.1.682-.175,1.023-.26h2.042a1.924,1.924,0,0,0,.289.085,8.908,8.908,0,0,1,4.9,2.295,1.245,1.245,0,0,0,.134.106,23.2,23.2,0,0,1,2.644-1.626,21.18,21.18,0,0,1,2.855-.859Zm-19.64,13.509v.615q0,4.617,0,9.234c0,.7-.318,1.1-.853,1.114-.55.015-.887-.4-.892-1.125-.006-.85,0-1.7,0-2.551,0-2.075.011-4.149-.006-6.224a1.259,1.259,0,0,0-1.193-1.339,1.312,1.312,0,0,0-1.367,1.056,3.484,3.484,0,0,0-.032.661q0,6.785,0,13.57c0,.45-.059.854-.511,1.076s-.81,0-1.146-.3q-1.706-1.5-3.42-2.985c-.346-.3-.68-.62-1.048-.892a1.066,1.066,0,0,0-1.436.14,1.032,1.032,0,0,0,.007,1.432c.11.129.235.246.355.366q4.852,4.852,9.708,9.7a3.129,3.129,0,0,1,.976,2.369c-.022,3.316-.009,6.632-.01,9.948,0,.837.295,1.138,1.132,1.138q3.622,0,7.244,0c.931,0,1.209-.282,1.209-1.223,0-3.112-.025-6.224.021-9.335a4.027,4.027,0,0,1,.476-1.729c.565-1.082,1.25-2.1,1.86-3.162a1.729,1.729,0,0,0,.236-.81c.016-3.265.011-6.53.008-9.8,0-.13,0-.312-.077-.381-.8-.715-1.624-1.412-2.523-2.187,0,1.147,0,2.164,0,3.181,0,.716-.338,1.141-.888,1.133-.534-.008-.85-.413-.851-1.106,0-1.411.015-2.823-.016-4.234a1.151,1.151,0,0,0-.319-.729c-.623-.6-1.292-1.156-1.946-1.725a3.56,3.56,0,0,0-.349-.232c0,1.121,0,2.158,0,3.2,0,.748.011,1.5-.009,2.244a.848.848,0,0,1-.847.847.886.886,0,0,1-.871-.779,3.212,3.212,0,0,1-.013-.458c0-2.126,0-4.252-.009-6.377a.862.862,0,0,0-.121-.518C532.285,1851.626,531.472,1850.718,530.6,1849.729Zm15.668,8.4c-.888.756-1.68,1.419-2.453,2.1a.67.67,0,0,0-.142.454c-.007,3.248-.011,6.5.006,9.746a1.847,1.847,0,0,0,.239.861c.579,1.019,1.182,2.025,1.8,3.022a3.6,3.6,0,0,1,.558,1.976c-.016,3.1-.008,6.191,0,9.287,0,.869.3,1.158,1.17,1.159q3.623,0,7.246,0c.877,0,1.162-.286,1.163-1.161,0-3.3.016-6.6-.006-9.9a3.177,3.177,0,0,1,.994-2.412q4.871-4.834,9.711-9.7a4.659,4.659,0,0,0,.388-.405,1.029,1.029,0,0,0-.032-1.356,1.067,1.067,0,0,0-1.345-.23,2.948,2.948,0,0,0-.44.346q-2.1,1.826-4.193,3.654c-.535.464-1.1.467-1.4-.028a1.651,1.651,0,0,1-.187-.82q-.015-6.736-.005-13.472a5.441,5.441,0,0,0-.014-.611,1.36,1.36,0,0,0-1.158-1.187,1.258,1.258,0,0,0-1.332.814,2.87,2.87,0,0,0-.1.855c-.007,2.755,0,5.511,0,8.267,0,.878-.281,1.3-.865,1.307s-.887-.425-.887-1.287q0-4.541,0-9.083v-.6c-.808.928-1.564,1.77-2.284,2.64a1.308,1.308,0,0,0-.3.751c-.024,2.144-.014,4.286-.017,6.43,0,.719-.334,1.143-.883,1.138s-.855-.415-.856-1.153q0-2.322,0-4.644c0-.143-.018-.286-.033-.511-.779.678-1.485,1.31-2.213,1.916a.949.949,0,0,0-.383.822c.02,1.428,0,2.857.009,4.286a.921.921,0,0,1-.494.93.869.869,0,0,1-1.244-.866C546.256,1860.4,546.269,1859.327,546.269,1858.125Zm-3.564.754c1.188-1.018,2.262-1.93,3.326-2.851a56.258,56.258,0,0,0,6.527-6.146,8.838,8.838,0,0,0,2.412-5.38c.176-4.462-3.309-7.372-7.619-6.338a6.831,6.831,0,0,0-3.633,2.229c-.722.831-1.141.839-1.838.021l-.065-.078a7.079,7.079,0,0,0-7.233-2.111,6.334,6.334,0,0,0-3.783,7.657,9.862,9.862,0,0,0,2.854,4.691C536.608,1853.38,539.655,1856.091,542.7,1858.879Z" transform="translate(0 0)" fill="#26aab7"/>
      <path id="Trazado_17824" data-name="Trazado 17824" d="M542.628,1846.478a5.115,5.115,0,0,1,1.184-3.246A3.515,3.515,0,0,1,546.4,1842a.88.88,0,0,1,1.027.82.851.851,0,0,1-.883.91,2.072,2.072,0,0,0-1.92,1.5,3.557,3.557,0,0,0,.383,3.314c.5.761,1.1,1.46,1.677,2.173a.916.916,0,0,1,.074,1.28.809.809,0,0,1-1.189.052,9.46,9.46,0,0,1-2.809-4.466C542.685,1847.225,542.672,1846.848,542.628,1846.478Z" transform="translate(-10.31 -2.295)" fill="#26aab7"/>
    </g>
  </g>
</svg>
