<svg xmlns="http://www.w3.org/2000/svg" xmlns:xlink="http://www.w3.org/1999/xlink" width="91.928" height="91.927" viewBox="0 0 91.928 91.927">
  <defs>
    <radialGradient id="radial-gradient" cx="0.076" cy="0.019" r="1.465" gradientTransform="translate(0.001)" gradientUnits="objectBoundingBox">
      <stop offset="0" stop-color="#f6f6f7"/>
      <stop offset="0.477" stop-color="#f9f9fa"/>
      <stop offset="0.715" stop-color="#fff"/>
    </radialGradient>
  </defs>
  <g id="Grupo_58717" data-name="Grupo 58717" transform="translate(12710.428 4343.319)">
    <g id="Grupo_58644" data-name="Grupo 58644" transform="translate(-12927.428 -5084.652)">
      <g id="Grupo_42274" data-name="Grupo 42274" transform="translate(142 768.333)">
        <g id="Grupo_18423" data-name="Grupo 18423" transform="translate(75 -27)">
          <g id="Grupo_18421" data-name="Grupo 18421">
            <g id="Grupo_18420" data-name="Grupo 18420">
              <g id="Grupo_18419" data-name="Grupo 18419">
                <path id="Trazado_40936" data-name="Trazado 40936" d="M286.55,2191.684a45.964,45.964,0,1,1-45.963-45.962A45.963,45.963,0,0,1,286.55,2191.684Z" transform="translate(-194.623 -2145.721)" fill="#fff"/>
              </g>
            </g>
          </g>
          <path id="Trazado_40937" data-name="Trazado 40937" d="M286.23,2191.334a45.963,45.963,0,1,0-45.963,45.965A45.782,45.782,0,0,0,286.23,2191.334Z" transform="translate(-194.303 -2145.372)" fill="url(#radial-gradient)"/>
          <path id="Trazado_40938" data-name="Trazado 40938" d="M272.56,2188.562a35.084,35.084,0,1,0-35.084,35.084A34.953,34.953,0,0,0,272.56,2188.562Z" transform="translate(-191.373 -2142.446)" fill="none" stroke="#7d70b0" stroke-miterlimit="10" stroke-width="4"/>
          <g id="Grupo_18422" data-name="Grupo 18422" transform="translate(8.143 25.805)">
            <path id="Trazado_40939" data-name="Trazado 40939" d="M279.682,2164.488a45.969,45.969,0,0,1-79.137,45.773,45.823,45.823,0,0,0,79.137-45.773Z" transform="translate(-200.545 -2164.488)" fill="#eceef0"/>
          </g>
        </g>
      </g>
    </g>
    <g id="Grupo_58646" data-name="Grupo 58646" transform="translate(-12876.058 -5792.253)">
      <path id="Trazado_17810" data-name="Trazado 17810" d="M228.663,1503.432h-9.847v-15.24a7.175,7.175,0,0,0,.694-.4l2.348,2.935a6,6,0,1,0,1.029-.816l-2.353-2.942a7.2,7.2,0,0,0,2.189-4.542h2.253l1.313,2.626h5.407l-1.641-3.283,1.641-3.283h-5.407l-1.313,2.626h-2.253a7.213,7.213,0,0,0-11.813-4.883,1.967,1.967,0,0,0-1.941-1.682h-7.878a1.967,1.967,0,0,0-1.848,1.313h-4.716a3.286,3.286,0,0,0-3.283,3.283v32.825a3.286,3.286,0,0,0,3.283,3.283h21.008a3.286,3.286,0,0,0,3.283-3.283V1510h9.847a3.283,3.283,0,1,0,0-6.565Zm1.969-8.535a4.6,4.6,0,1,1-4.6-4.6A4.6,4.6,0,0,1,230.632,1494.9Zm-3.533-11.16-.656-1.313h2.471l.656,1.313Zm0-3.939h2.471l-.656,1.313h-2.471Zm-27.858,0a1.966,1.966,0,0,0,1.848,1.313h7.255c-.02.217-.033.435-.033.656a7.2,7.2,0,0,0,2.348,5.314l-1,1.313a8.618,8.618,0,1,0,1.041.8l1-1.316a7.17,7.17,0,0,0,3.174,1.077v14.476h-3.4l-4.749,1.781a1.6,1.6,0,0,0,0,3l4.749,1.78h3.4v1.313h-19.7V1479.8Zm9.07,19.039H207v-5.252h1.313Zm-2.626,0h-1.313v-6.565h1.313Zm-2.626,0h-1.313v-2.626h1.313Zm7.536,1.313a7.213,7.213,0,0,1-11.133,0Zm.858-1.313h-1.829v-6.565H207v-1.313h-3.939v3.939h-2.626v3.939H198.6a7.221,7.221,0,1,1,12.849,0Zm-4.266,8.151a.291.291,0,0,1,0-.545l3.75-1.406v3.357Zm5.063,1.7v-1.313h13.13v1.313Zm13.13-2.626H212.25v-1.313h13.13Zm-7.878-2.626h-1.313v-14.476a7.107,7.107,0,0,0,1.313-.247Zm-1.969-27.573a5.915,5.915,0,0,1,5.87,5.252h-2.653a3.283,3.283,0,1,0,0,1.313H221.4a5.908,5.908,0,1,1-5.87-6.565Zm1.848,6.565a1.969,1.969,0,1,1,0-1.313h-2.5v1.313Zm-16.948-5.908a.657.657,0,0,1,.656-.656h7.878a.657.657,0,0,1,.656.656v1.113a7.169,7.169,0,0,0-1.032,2.166l-7.5,0a.657.657,0,0,1-.656-.656Zm17.069,35.451a1.972,1.972,0,0,1-1.969,1.97H194.525a1.972,1.972,0,0,1-1.97-1.97v-32.825a1.972,1.972,0,0,1,1.97-1.97h4.6v1.313h-3.939a1.314,1.314,0,0,0-1.313,1.313v31.512a1.314,1.314,0,0,0,1.313,1.313h19.7a1.314,1.314,0,0,0,1.313-1.313V1510H217.5Zm11.161-3.282h-1.97v-3.939h1.97a1.97,1.97,0,0,1,0,3.939Z" fill="#7d6eb2"/>
      <path id="Trazado_17811" data-name="Trazado 17811" d="M258.258,1515.692a1.72,1.72,0,0,0,2.487,1.538l3.128-1.564a1.719,1.719,0,0,0,0-3.075l-3.127-1.564a1.72,1.72,0,0,0-2.487,1.538Zm1.313-3.127a.406.406,0,0,1,.406-.406.4.4,0,0,1,.181.043l3.127,1.563a.406.406,0,0,1,0,.726l-3.127,1.564a.417.417,0,0,1-.587-.363Z" transform="translate(-35.504 -19.231)" fill="#7d6eb2"/>
      <path id="Trazado_17812" data-name="Trazado 17812" d="M202.411,1541.561h7.878v1.313h-7.878Z" transform="translate(-5.917 -35.503)" fill="#7d6eb2"/>
      <path id="Trazado_17813" data-name="Trazado 17813" d="M202.411,1547.146h7.878v1.313h-7.878Z" transform="translate(-5.917 -38.462)" fill="#7d6eb2"/>
      <path id="Trazado_17814" data-name="Trazado 17814" d="M202.411,1491.3h1.313v1.313h-1.313Z" transform="translate(-5.917 -8.875)" fill="#7d6eb2"/>
      <path id="Trazado_17815" data-name="Trazado 17815" d="M208,1491.3h7.878v1.313H208Z" transform="translate(-8.876 -8.875)" fill="#7d6eb2"/>
      <path id="Trazado_17816" data-name="Trazado 17816" d="M202.411,1496.884h1.313v1.313h-1.313Z" transform="translate(-5.917 -11.834)" fill="#7d6eb2"/>
      <path id="Trazado_17817" data-name="Trazado 17817" d="M208,1496.884h7.878v1.313H208Z" transform="translate(-8.876 -11.834)" fill="#7d6eb2"/>
    </g>
  </g>
</svg>
