<svg xmlns="http://www.w3.org/2000/svg" width="447.57" height="429.22" viewBox="0 0 447.57 429.22">
  <g id="Grupo_58835" data-name="Grupo 58835" transform="translate(4306.258 -2787.28)">
    <g id="img_3-04" transform="translate(-4306.258 2764.92)">
      <path id="Trazado_131684" data-name="Trazado 131684" d="M409.05,94.52c-2.59-8.89-10.74-15.64-19.8-17.54s-18.76.71-26.32,6.06c-3.31,2.34-6.46,5.27-10.45,6-3.21.6-6.52-.31-9.78-.17-8.52.36-15.29,8-17.45,16.3s-.74,17,.68,25.37L341,132.71c-2.46-3.2-.4-8.21,3.09-10.24s7.77-1.94,11.8-1.79l23.58.89c6.95.26,14.31.43,20.36-3C407.94,114,411.64,103.41,409.05,94.52Z" fill="#ebebeb"/>
      <path id="Trazado_131685" data-name="Trazado 131685" d="M423,59.43c-2.07-3-7.3-5-10.88-2.15a7.92,7.92,0,0,0-.77,10A7.49,7.49,0,0,0,421,69a7.1,7.1,0,0,0,2-9.57Z" fill="#ebebeb"/>
      <path id="Trazado_131686" data-name="Trazado 131686" d="M375.19,374.77c-17.12-11.35-21.46-33.08-21.27-52.72,0-3.27-.41-6.72,1.08-9.63s5.07-5,8-3.65c2.46,1.08,3.58,3.89,5,6.19a19.21,19.21,0,0,0,7.86,7.15c2.11,1,4.71,1.63,6.74.45,2.78-1.63,3-5.54,2.92-8.8q-.27-9.11-.55-18.2c-.1-3.26-.19-6.59.75-9.7s3.11-6,6.18-7,7,.76,7.69,3.93a32,32,0,0,1,.19,4.05c.12,1.35.79,2.83,2.08,3.18s2.59-.61,3.54-1.58c3.28-3.37,5.46-7.67,7.49-11.93s4-8.63,7-12.29,7.11-6.6,11.77-7,9.7,2.38,11,6.93-1.27,9.29-4.1,13.08a72.489,72.489,0,0,1-14.79,14.79,6,6,0,0,0-2.46,2.78c-.66,2.19,1.45,4.3,3.61,5,2.45.75,5.08.44,7.63.67s5.32,1.29,6.34,3.67c1.41,3.3-1.29,6.86-4,9.21a62.239,62.239,0,0,1-18.17,11.08c-2.38.94-4.88,1.77-6.77,3.5s-3,4.68-1.77,6.95,4.24,2.93,6.74,2.4,4.71-1.94,7.08-2.9c4.43-1.8,10.22-1.63,13.18,2.17,1.95,2.5,2.2,6,1.32,9.09a23.909,23.909,0,0,1-4.74,8.17,62.62,62.62,0,0,1-26.29,19.44c-10.29,3.85-19.89,5.06-30.3,1.53" fill="#ebebeb"/>
      <path id="Trazado_131687" data-name="Trazado 131687" d="M380,362.35a289.439,289.439,0,0,1,10.82-31.7l3.26-8.17c1.08-2.67,2.15-5.33,3.36-7.86a142.746,142.746,0,0,1,7.76-14.15c2.68-4.39,5.39-8.45,7.95-12.22s5-7.25,7.41-10.32a115.636,115.636,0,0,1,12.29-13.64c1.57-1.49,2.83-2.61,3.69-3.35l1-.84a1.66,1.66,0,0,1,.35-.27l-.31.32-.95.88c-.83.78-2.06,1.92-3.61,3.43a123.075,123.075,0,0,0-12.11,13.73c-2.36,3.08-4.79,6.56-7.34,10.34s-5.23,7.85-7.9,12.23a147.635,147.635,0,0,0-7.69,14.12c-1.2,2.52-2.26,5.15-3.33,7.83s-2.16,5.41-3.26,8.16a297.768,297.768,0,0,0-10.85,31.63" fill="#e0e0e0"/>
      <path id="Trazado_131688" data-name="Trazado 131688" d="M397.57,314.59a6.17,6.17,0,0,1-.36-1.38c-.19-.89-.42-2.2-.69-3.82-.54-3.23-1.13-7.72-1.77-12.67s-1.29-9.42-1.87-12.63c-.29-1.61-.54-2.91-.72-3.81a6.381,6.381,0,0,1-.22-1.41,6.612,6.612,0,0,1,.45,1.36c.25.88.56,2.17.9,3.77.7,3.21,1.42,7.69,2.06,12.64s1.16,9.31,1.59,12.69c.2,1.53.37,2.81.5,3.84a6.822,6.822,0,0,1,.13,1.42Z" fill="#e0e0e0"/>
      <path id="Trazado_131689" data-name="Trazado 131689" d="M439.25,305.75a8.658,8.658,0,0,1-1.66.24c-1.08.13-2.63.29-4.54.56-3.82.51-9.08,1.39-14.84,2.62s-10.93,2.59-14.64,3.67c-1.85.53-3.35,1-4.38,1.31a9,9,0,0,1-1.62.44,8.47,8.47,0,0,1,1.55-.66c1-.39,2.48-.92,4.33-1.5,3.69-1.19,8.85-2.6,14.63-3.85A146.2,146.2,0,0,1,433,306.13c1.92-.22,3.49-.32,4.57-.37A9.836,9.836,0,0,1,439.25,305.75Z" fill="#e0e0e0"/>
      <path id="Trazado_131690" data-name="Trazado 131690" d="M380.45,361.57a2.27,2.27,0,0,1-.3-.51l-.75-1.49c-.65-1.31-1.54-3.22-2.6-5.59-2.14-4.75-4.88-11.4-7.81-18.78s-5.61-14.06-7.65-18.84c-1-2.33-1.82-4.24-2.42-5.66-.27-.62-.48-1.13-.66-1.55a2.172,2.172,0,0,1-.19-.55,2,2,0,0,1,.3.5c.21.4.46.9.76,1.5.64,1.3,1.53,3.21,2.6,5.59,2.14,4.74,4.88,11.4,7.81,18.78s5.61,14,7.64,18.84l2.43,5.66.65,1.54A2.29,2.29,0,0,1,380.45,361.57Z" fill="#e0e0e0"/>
      <path id="Trazado_131691" data-name="Trazado 131691" d="M435.66,342.29a2.19,2.19,0,0,1-.54.24l-1.61.58-5.91,2.07c-5,1.76-11.86,4.26-19.44,7s-14.48,5.22-19.51,6.87c-2.52.82-4.56,1.47-6,1.89l-1.64.47a2.381,2.381,0,0,1-.58.13,2.429,2.429,0,0,1,.55-.24l1.6-.58,5.91-2.08c5-1.75,11.86-4.25,19.45-7s14.48-5.21,19.51-6.86c2.51-.83,4.55-1.48,6-1.9l1.64-.47A2.17,2.17,0,0,1,435.66,342.29Z" fill="#e0e0e0"/>
      <path id="Trazado_131692" data-name="Trazado 131692" d="M11,267.72s-7.35,3.57,2.44,19,16.28,22.95,16.28,22.95,1.82,3.63-1.3,4.51-10.2.42-11.25,4.43c-1.09,4.16,2.19,7.69,8.42,10.46s19.68,9.37,20.9,10,2.48,2.23.45,3.17-17.57,4-15.66,11.34,20.56,12.17,22.59,12.74,2.58,1.36,2.52,2.45-5.39,1.64-9.78,2.71-9.28,3.06-7.82,7.18,13,12,39.14,12.09L90,390l5.63-10.83c10.64-23.92,8.2-37.64,5-40.66s-7,.63-9.76,4.19-5.46,8.2-6.48,7.8-1.51-1.21-1.2-3.3,3.52-21.09-2.35-25.83S65.82,329.54,64.13,331s-2.66-.39-2.71-1.72-.54-16.31-.51-23.14-1.84-11.26-6.08-12c-4.09-.68-6.58,6-8.66,8.45s-4.65-.67-4.65-.67-4.17-9-14.24-24.27S10.8,267.8,10.8,267.8" fill="#ebebeb"/>
      <path id="Trazado_131693" data-name="Trazado 131693" d="M90.9,392.79c-7.35-11.25-20.08-31.45-31.1-48.74s-21-32.93-28.31-44.21c-3.64-5.63-6.6-10.19-8.65-13.35l-2.35-3.64a10.9,10.9,0,0,1-.6-1,3.471,3.471,0,0,1-.2-.33l.23.31.63.93,2.41,3.6c2.09,3.12,5.08,7.66,8.76,13.28,7.35,11.25,17.38,26.87,28.4,44.15s23.71,37.52,31,48.8" fill="#e0e0e0"/>
      <path id="Trazado_131694" data-name="Trazado 131694" d="M27,319.68a3.651,3.651,0,0,1,.86.15l2.32.58c2,.52,4.63,1.3,7.57,2.22L45.28,325l2.29.71a3.41,3.41,0,0,1,.82.29,4.484,4.484,0,0,1-.86-.15c-.55-.13-1.35-.33-2.32-.59-2-.54-4.62-1.36-7.56-2.27l-7.53-2.32L27.83,320a4,4,0,0,1-.83-.32Z" fill="#e0e0e0"/>
      <path id="Trazado_131695" data-name="Trazado 131695" d="M49.15,325.15c-.1,0,1.27-5.62,3.06-12.5s3.32-12.42,3.42-12.4-1.27,5.62-3.06,12.5S49.25,325.17,49.15,325.15Z" fill="#e0e0e0"/>
      <path id="Trazado_131696" data-name="Trazado 131696" d="M64.87,352.46a3.74,3.74,0,0,1,.43-.79c.33-.57.75-1.27,1.25-2.1,1-1.77,2.49-4.22,4-7s2.77-5.3,3.67-7.15l1.08-2.19a4.059,4.059,0,0,1,.43-.79,3.51,3.51,0,0,1-.3.85c-.21.53-.54,1.3-1,2.24-.84,1.88-2.08,4.45-3.58,7.22s-3,5.21-4.1,6.94c-.56.87-1,1.56-1.35,2a3.7,3.7,0,0,1-.53.77Z" fill="#e0e0e0"/>
      <path id="Trazado_131697" data-name="Trazado 131697" d="M43.76,351.92a3,3,0,0,1,.82-.06h9.7c2.91,0,5.53.09,7.44.14l2.25.09a3.171,3.171,0,0,1,.83.09,4.678,4.678,0,0,1-.83.06h-9.7c-2.91,0-5.53-.09-7.43-.15L44.58,352a2.86,2.86,0,0,1-.82-.08Z" fill="#e0e0e0"/>
      <path id="Trazado_131698" data-name="Trazado 131698" d="M54.58,377.8a5.2,5.2,0,0,1,1.06-.07l2.89-.06h9.53c3.72,0,7.1,0,9.54.08l2.89.07a5.692,5.692,0,0,1,1.06.08,5.31,5.31,0,0,1-1.06.07L77.6,378H68.06c-3.72,0-7.09,0-9.53-.09l-2.89-.07a6.329,6.329,0,0,1-1.06-.04Z" fill="#e0e0e0"/>
      <path id="Trazado_131699" data-name="Trazado 131699" d="M80.9,377.7a6.279,6.279,0,0,1,.51-1L82.9,374c1.25-2.3,3-5.47,4.78-9s3.35-6.82,4.46-9.18L93.45,353a6.781,6.781,0,0,1,.52-1,5.649,5.649,0,0,1-.38,1.07c-.28.68-.68,1.66-1.21,2.86-1,2.4-2.56,5.68-4.37,9.24s-3.56,6.72-4.88,9c-.66,1.13-1.2,2-1.59,2.65A7.489,7.489,0,0,1,80.9,377.7Z" fill="#e0e0e0"/>
      <path id="Trazado_131700" data-name="Trazado 131700" d="M137.64,210.62a22.35,22.35,0,0,1-10.21-8.4,10.07,10.07,0,0,1-1.68-6.65c.37-2.31,2.24-4.47,4.57-4.58a5.54,5.54,0,0,1,4.2,2A16.469,16.469,0,0,1,137,197a7,7,0,0,1,3.83-5.57,5.16,5.16,0,0,1,6.22,1.75c1.34,2,.93,5-.23,6.81a31.452,31.452,0,0,1-4.41,5c-2,2-4.8,3.65-4.8,5.63" fill="#ebebeb"/>
      <path id="Trazado_131701" data-name="Trazado 131701" d="M423,183.34a15.5,15.5,0,0,1-7.07-5.82,7,7,0,0,1-1.16-4.6,3.66,3.66,0,0,1,3.16-3.17,3.87,3.87,0,0,1,2.91,1.36,11.35,11.35,0,0,1,1.74,2.82,4.85,4.85,0,0,1,2.65-3.86,3.57,3.57,0,0,1,4.31,1.22,4.59,4.59,0,0,1-.16,4.71,22.162,22.162,0,0,1-3.05,3.45c-1.4,1.4-3.33,2.52-3.33,3.89" fill="#f5f5f5"/>
      <path id="Trazado_131702" data-name="Trazado 131702" d="M246.16,157.86a14,14,0,0,1-6.37-5.24,6.26,6.26,0,0,1-1-4.15,3.3,3.3,0,0,1,2.85-2.86,3.47,3.47,0,0,1,2.62,1.23,9.86,9.86,0,0,1,1.56,2.54,4.4,4.4,0,0,1,2.4-3.48,3.22,3.22,0,0,1,3.88,1.1,4.15,4.15,0,0,1-.15,4.24,19.761,19.761,0,0,1-2.75,3.11c-1.26,1.26-3,2.27-3,3.51" fill="#ebebeb"/>
      <path id="Trazado_131703" data-name="Trazado 131703" d="M28.37,180.34A25.09,25.09,0,0,1,17,171a11.28,11.28,0,0,1-1.87-7.43c.41-2.58,2.5-5,5.1-5.12a6.21,6.21,0,0,1,4.7,2.2,18.7,18.7,0,0,1,2.8,4.54A7.84,7.84,0,0,1,32,158.92a5.77,5.77,0,0,1,7,2c1.49,2.26,1,5.57-.26,7.61a35.11,35.11,0,0,1-4.93,5.56c-2.25,2.26-5.37,4.07-5.37,6.29" fill="#f5f5f5"/>
      <path id="Trazado_131704" data-name="Trazado 131704" d="M331.07,223.38a21.48,21.48,0,0,1-9.75-8,9.57,9.57,0,0,1-1.6-6.34c.35-2.21,2.13-4.27,4.36-4.38a5.33,5.33,0,0,1,4,1.88,15.66,15.66,0,0,1,2.39,3.89,6.7,6.7,0,0,1,3.66-5.32,4.91,4.91,0,0,1,5.94,1.68,6.34,6.34,0,0,1-.22,6.49,29.591,29.591,0,0,1-4.21,4.75c-1.92,1.94-4.58,3.48-4.58,5.38" fill="#ebebeb"/>
      <path id="Trazado_131705" data-name="Trazado 131705" d="M35.85,99l1,1.83a12.21,12.21,0,0,0,4.87,4.87l1.83,1-1.83,1a12.21,12.21,0,0,0-4.87,4.87l-1,1.83-1-1.83A12.14,12.14,0,0,0,30,107.7l-1.83-1,1.83-1a12.21,12.21,0,0,0,4.87-4.87Z" fill="#ebebeb"/>
      <path id="Trazado_131706" data-name="Trazado 131706" d="M341.44,35.21l1,1.83a12.18,12.18,0,0,0,4.87,4.86l1.83,1-1.83,1a12.18,12.18,0,0,0-4.87,4.86l-1,1.83-1-1.83a12.31,12.31,0,0,0-4.87-4.86l-1.83-1,1.83-1a12.31,12.31,0,0,0,4.87-4.9Z" fill="#ebebeb"/>
      <path id="Trazado_131707" data-name="Trazado 131707" d="M84.38,110.55l1.45,2.64a17.63,17.63,0,0,0,7,7l2.65,1.44-2.65,1.45a17.66,17.66,0,0,0-7,7l-1.45,2.65-1.45-2.65a17.79,17.79,0,0,0-7-7l-2.65-1.45,2.65-1.45a17.66,17.66,0,0,0,7-7Z" fill="#ebebeb"/>
      <path id="Trazado_131708" data-name="Trazado 131708" d="M76.81,49.75l.55,1A6.7,6.7,0,0,0,80,53.42L81,54l-1,.54a6.7,6.7,0,0,0-2.66,2.67l-.55,1-.55-1a6.76,6.76,0,0,0-2.66-2.67l-1-.54,1-.55a6.76,6.76,0,0,0,2.66-2.67Z" fill="#f5f5f5"/>
      <path id="Trazado_131709" data-name="Trazado 131709" d="M367,22.36l.55,1A6.72,6.72,0,0,0,370.22,26l1,.55-1,.54a6.72,6.72,0,0,0-2.67,2.67l-.55,1-.54-1a6.72,6.72,0,0,0-2.67-2.67l-1-.54,1-.55a6.72,6.72,0,0,0,2.67-2.67Z" fill="#f5f5f5"/>
      <path id="Trazado_131710" data-name="Trazado 131710" d="M447.57,394.13c0,.14-100.2.26-223.78.26S0,394.27,0,394.13s100.18-.26,223.79-.26S447.57,394,447.57,394.13Z" fill="#263238"/>
      <path id="Trazado_131711" data-name="Trazado 131711" d="M315.72,158.99V128.7h38.2v63.89Z" fill="#7d6eb2"/>
      <rect id="Rectángulo_31201" data-name="Rectángulo 31201" width="44.75" height="13.17" transform="translate(311.92 126.91)" fill="#7d6eb2"/>
      <path id="Trazado_131712" data-name="Trazado 131712" d="M356.59,140.09c0,.14-10,.26-22.29.26s-22.3-.12-22.3-.26,10-.26,22.3-.26S356.59,139.94,356.59,140.09Z" fill="#263238"/>
      <path id="Trazado_131713" data-name="Trazado 131713" d="M42.05,224.53,215.43,75.98,414.66,225.1l-16.7,14.32L216,106.79,59.58,239.23Z" fill="#7d6eb2"/>
      <g id="Grupo_58456" data-name="Grupo 58456" opacity="0.3">
        <path id="Trazado_131714" data-name="Trazado 131714" d="M216,106.79l-.57-30.81L414.66,225.1l-16.7,14.32Z"/>
      </g>
      <path id="Trazado_131715" data-name="Trazado 131715" d="M216,106.79a4.73,4.73,0,0,1-.11-1.21c0-.89-.07-2-.11-3.3-.09-2.9-.2-6.69-.33-10.89s-.19-8.11-.17-10.9c0-1.39,0-2.52.05-3.3a5.12,5.12,0,0,1,.1-1.21,5.9,5.9,0,0,1,.1,1.21q0,1.34.12,3.3c.08,2.9.2,6.69.32,10.89s.19,8.11.18,10.9c0,1.39,0,2.52-.06,3.3a5.591,5.591,0,0,1-.09,1.21Z" fill="#263238"/>
      <path id="Trazado_131716" data-name="Trazado 131716" d="M171.22,177.79a49.27,49.27,0,0,1-3.8-10.26,16.5,16.5,0,0,1,1-10.72c1-1.9,2.42-3.55,3.2-5.54,1.07-2.74.82-6,2.64-8.35,2.84-3.61,8.56-2.51,12.81-4.28,3.3-1.39,5.7-4.57,9.15-5.52,3-.83,6.22.22,9.05,1.57s5.56,3,8.64,3.56a59.394,59.394,0,0,0,6.68.3c2.23.14,4.57.73,6.07,2.38s1.72,4.58,0,6c3.92-.5,7.43,3.54,7.22,7.49s-3.34,7.31-7,8.81-7.78,1.43-11.71,1c-11.12-1.34-22.16-6-29.41-14.58" fill="#263238"/>
      <path id="Trazado_131717" data-name="Trazado 131717" d="M174.21,163.93l-9.9,54.94c-1.69,9.34,1.17,24,11.67,25.23h0c11.23,1.24,19.1-2,20.66-10.75.74-4.13,1.72-16.2,1.83-16.62,0,0,14.22,1.2,17.73-12.46,1.69-6.6,4.07-20.48,6.08-33.06a26.27,26.27,0,0,0-19.74-29.65l-1.32-.33C186.76,138.6,176.44,149.4,174.21,163.93Z" fill="#ffbe9d"/>
      <path id="Trazado_131718" data-name="Trazado 131718" d="M198.47,216.73a34.12,34.12,0,0,1-16.56-9.62s2.17,11.69,16.15,13.78Z" fill="#eb996e"/>
      <path id="Trazado_131719" data-name="Trazado 131719" d="M214,180.83a2,2,0,0,1-2.37,1.52,1.94,1.94,0,0,1-1.59-2.26,2,2,0,0,1,2.37-1.51,1.93,1.93,0,0,1,1.59,2.25Z" fill="#263238"/>
      <path id="Trazado_131720" data-name="Trazado 131720" d="M217.7,177.21c-.31.2-1.52-1.26-3.63-1.76s-3.91.17-4.07-.15c-.09-.14.27-.54,1.06-.87a5.63,5.63,0,0,1,3.34-.2,5.31,5.31,0,0,1,2.81,1.73C217.74,176.61,217.84,177.13,217.7,177.21Z" fill="#263238"/>
      <path id="Trazado_131721" data-name="Trazado 131721" d="M194.2,176.55a2,2,0,0,1-2.37,1.51,1.93,1.93,0,0,1-1.59-2.26,2,2,0,0,1,2.37-1.51,1.93,1.93,0,0,1,1.59,2.26Z" fill="#263238"/>
      <path id="Trazado_131722" data-name="Trazado 131722" d="M196.9,172.57c-.3.2-1.52-1.26-3.62-1.77s-3.91.17-4.08-.14c-.08-.14.28-.54,1.07-.87a5.47,5.47,0,0,1,3.34-.2,5.35,5.35,0,0,1,2.81,1.73C196.94,172,197.05,172.48,196.9,172.57Z" fill="#263238"/>
      <path id="Trazado_131723" data-name="Trazado 131723" d="M200.75,190.05a14,14,0,0,1,3.57.21c.55.08,1.08.09,1.26-.25a2.81,2.81,0,0,0,0-1.68c-.19-1.43-.39-2.92-.59-4.48-.79-6.37-1.22-11.55-1-11.58s1.11,5.1,1.9,11.47c.18,1.57.35,3.06.52,4.49a3.24,3.24,0,0,1-.24,2.18,1.41,1.41,0,0,1-1.07.57,3.79,3.79,0,0,1-.95-.1,14,14,0,0,1-3.4-.83Z" fill="#263238"/>
      <path id="Trazado_131724" data-name="Trazado 131724" d="M194.19,190c.35.07-.2,2.35,1.36,4.45s4.06,2.44,4,2.76c0,.16-.65.32-1.69.09a5.87,5.87,0,0,1-3.37-2.17,5.12,5.12,0,0,1-1-3.7C193.65,190.45,194,189.94,194.19,190Z" fill="#263238"/>
      <path id="Trazado_131725" data-name="Trazado 131725" d="M199.46,164.45c-.35.52-2.39-.26-4.93-.56s-4.7-.12-4.91-.71c-.08-.28.39-.74,1.33-1.1a8.63,8.63,0,0,1,7.5,1C199.26,163.64,199.61,164.2,199.46,164.45Z" fill="#263238"/>
      <path id="Trazado_131726" data-name="Trazado 131726" d="M218.41,170.93c-.49.39-1.82-.46-3.56-.91s-3.3-.46-3.52-1c-.09-.28.26-.7,1-1a5.3,5.3,0,0,1,5.7,1.58C218.54,170.2,218.63,170.74,218.41,170.93Z" fill="#263238"/>
      <path id="Trazado_131727" data-name="Trazado 131727" d="M172.86,174.35c-.21-.16-8.74-5.08-10.72,4.36s7.9,9.48,8,9.22S172.86,174.35,172.86,174.35Z" fill="#ffbe9d"/>
      <path id="Trazado_131728" data-name="Trazado 131728" d="M168,183.74a2.313,2.313,0,0,1-.49.15,1.64,1.64,0,0,1-1.23-.23c-.92-.57-1.43-2.33-1.12-4a5.5,5.5,0,0,1,1-2.26,1.94,1.94,0,0,1,1.5-1,.84.84,0,0,1,.88.65.967.967,0,0,1,0,.49c0,.02.23-.11.24-.52a1.06,1.06,0,0,0-.25-.67,1.27,1.27,0,0,0-.86-.43,2.37,2.37,0,0,0-2,1.1,5.65,5.65,0,0,0-1.12,2.52c-.34,1.91.26,3.89,1.54,4.58a1.82,1.82,0,0,0,1.56.06A.793.793,0,0,0,168,183.74Z" fill="#eb996e"/>
      <path id="Trazado_131729" data-name="Trazado 131729" d="M225.55,158.49c-1.78,3.44-10.22,4.45-16.3,2.34-5.59-2-7.5-5.63-11-8.92-2.2-2.08-2.2-2.08-5.9-2.62-3-.43-5.54,2.46-7.9,4.36,1,7.61-2.71,14.95-6.28,21.74a3.87,3.87,0,0,1-1.61,1.9c-1.32.58-2.82-.49-3.54-1.74a11.49,11.49,0,0,1-1-6.72,39.65,39.65,0,0,1,3.79-15.18,27,27,0,0,1,10.43-11.48,25.59,25.59,0,0,1,19-2.35,31.43,31.43,0,0,1,16.16,10.64,18.5,18.5,0,0,1,4.14,8" fill="#263238"/>
      <path id="Trazado_131730" data-name="Trazado 131730" d="M205.25,180.66c.08,0,.09-.81.53-2.19a9.19,9.19,0,0,1,3.57-4.75,9,9,0,0,1,8.46-.86,8.859,8.859,0,0,1-.65,16.62,9,9,0,0,1-8.36-1.56,9.19,9.19,0,0,1-3.17-5c-.32-1.41-.25-2.23-.34-2.23a2,2,0,0,0-.07.59,7,7,0,0,0,.12,1.7,9.16,9.16,0,0,0,3.11,5.38A9.51,9.51,0,0,0,224,181.44a9.65,9.65,0,0,0-1.63-5.74A9.5,9.5,0,0,0,209,173.28a9.19,9.19,0,0,0-3.54,5.11,6.81,6.81,0,0,0-.26,1.68,2,2,0,0,0,.05.59Z" fill="#263238"/>
      <path id="Trazado_131731" data-name="Trazado 131731" d="M182.87,175.79c.08,0,.09-.82.52-2.19a9.25,9.25,0,0,1,3.57-4.75,9,9,0,0,1,8.46-.86,8.74,8.74,0,0,1,4,3.26,8.88,8.88,0,0,1-13,11.79,9.2,9.2,0,0,1-3.16-5c-.32-1.41-.26-2.23-.34-2.23s-.05.2-.07.59a7,7,0,0,0,.12,1.7,9.19,9.19,0,0,0,3.1,5.38A9.48,9.48,0,0,0,195,185.3a9.36,9.36,0,0,0,4.59-3.13,9.506,9.506,0,0,0-12.89-13.74,9.1,9.1,0,0,0-3.54,5.1,6.941,6.941,0,0,0-.26,1.69C182.83,175.58,182.84,175.79,182.87,175.79Z" fill="#263238"/>
      <path id="Trazado_131732" data-name="Trazado 131732" d="M201.43,176.88c.09.2,1.32-.32,2.71.17s2,1.64,2.23,1.54.06-.4-.24-.89a3.37,3.37,0,0,0-1.74-1.38,3.41,3.41,0,0,0-2.22,0C201.63,176.53,201.38,176.79,201.43,176.88Z" fill="#263238"/>
      <path id="Trazado_131733" data-name="Trazado 131733" d="M170.19,172.82c0,.22,3,.47,6.76.57s6.78,0,6.78-.2-3-.46-6.76-.57S170.2,172.61,170.19,172.82Z" fill="#263238"/>
      <path id="Trazado_131734" data-name="Trazado 131734" d="M67.38,249.59l18.49,21,22.75-21,18.47,21.57s-20.85,21.65-31.92,26.4c-10.39,4.46-15.34.46-18.91-.44s-22.49-34.89-22.49-34.89Z" fill="#ffbe9d"/>
      <path id="Trazado_131735" data-name="Trazado 131735" d="M79,225.45s-1,1.48-3.61,6.12-2.34,10.2-3.76,14.59c-1.7,5.27-3.35,6.26-3.35,6.26l-14.46,9.81s-7-4.3-9.35-8.24-6.18-17.44-6.18-17.44l-6.58-11.86a1.92,1.92,0,0,1,.12-1,3.18,3.18,0,0,1,5.45-.23h0s2.24-2,6,.26c3.13,1.85,2.81,4.53,2.81,4.53,1.85.87,10.69,14.74,12.89,11.15a14.68,14.68,0,0,1,3.75-4.4c7-3.69,5.71-3.71,8.72-7.64S78.28,222.49,79,225.45Z" fill="#ffbe9d"/>
      <path id="Trazado_131736" data-name="Trazado 131736" d="M41.35,242.85a2.33,2.33,0,0,1-.09-.59c0-.45-.09-1-.15-1.71-.11-1.55-.27-3.67-.46-6.27-.08-1.33-.18-2.78-.28-4.33,0-.78-.11-1.58-.16-2.41a7,7,0,0,1,.12-2.64,2.14,2.14,0,0,1,.9-1.16,2.36,2.36,0,0,1,1.46-.31,3.3,3.3,0,0,1,2.5,1.53,8.42,8.42,0,0,1,1.05,2.8c.21,1,.43,1.94.65,2.93C48,235.93,49.08,240.84,50,245l-.24-.18a13.76,13.76,0,0,1,6,1,14.069,14.069,0,0,1,4,2.43,13,13,0,0,1,2,2.22c.2.28.33.51.43.66a1,1,0,0,1,.12.24,19.329,19.329,0,0,0-2.74-2.92,14.159,14.159,0,0,0-3.94-2.29,13.63,13.63,0,0,0-5.8-.89h-.19v-.19c-.93-4.18-2-9.08-3.17-14.32-.22-1-.43-2-.64-2.93a7.91,7.91,0,0,0-1-2.62,2.76,2.76,0,0,0-2.11-1.33,1.69,1.69,0,0,0-1.86,1.14,6.67,6.67,0,0,0-.12,2.45c0,.83.08,1.63.13,2.41.08,1.56.15,3,.22,4.34.12,2.6.22,4.73.29,6.28v1.71A2.52,2.52,0,0,1,41.35,242.85Z" fill="#eb996e"/>
      <path id="Trazado_131737" data-name="Trazado 131737" d="M64.72,233.94a10.269,10.269,0,0,1-1.52,1.12,13.11,13.11,0,0,0-3.2,3.17,9.16,9.16,0,0,0-1.54,4.13,13.142,13.142,0,0,1-.12,1.88,4.31,4.31,0,0,1-.25-1.91,8.44,8.44,0,0,1,1.48-4.4A11.13,11.13,0,0,1,63,234.76a5.09,5.09,0,0,1,1.72-.82Z" fill="#eb996e"/>
      <path id="Trazado_131738" data-name="Trazado 131738" d="M40.62,230.6a32.148,32.148,0,0,1-1.91-3.6A19.839,19.839,0,0,1,37,223.25a14.061,14.061,0,0,1,2.21,3.49,10.87,10.87,0,0,1,1.41,3.86Z" fill="#eb996e"/>
      <path id="Trazado_131739" data-name="Trazado 131739" d="M96.89,283.63a46.35,46.35,0,0,0-4.52-7.23,46.76,46.76,0,0,0-6.18-5.87,8.681,8.681,0,0,1,2.16,1.32,24.84,24.84,0,0,1,7.68,9.4A9.26,9.26,0,0,1,96.89,283.63Z" fill="#eb996e"/>
      <path id="Trazado_131740" data-name="Trazado 131740" d="M165.54,212.24s-26.77,7.14-38.45,15.08c-5.84,4-26,27.81-26,27.81L121.25,285l20.81-20.41Z" fill="#a8dde2"/>
      <path id="Trazado_131741" data-name="Trazado 131741" d="M130.25,267.81l6.9,80.25,16.38,1.13h79.9l-.21-82.56-3.52-36.31-30.76-11.74c-10.94,10.63-28.48,7.95-33.47-6.19Z" fill="#a8dde2"/>
      <path id="Trazado_131742" data-name="Trazado 131742" d="M128.2,242.81c.15,0,1.17,11,2.3,24.59s1.91,24.6,1.77,24.6-1.17-11-2.29-24.59S128.06,242.82,128.2,242.81Z" fill="#263238"/>
      <g id="Grupo_58457" data-name="Grupo 58457" opacity="0.3">
        <path id="Trazado_131743" data-name="Trazado 131743" d="M163.33,333.37l-1.72.64a44.54,44.54,0,0,0,33.11-17.92C184.72,322.67,174.6,329.31,163.33,333.37Z"/>
      </g>
      <path id="Trazado_131744" data-name="Trazado 131744" d="M195.71,290.88a2.381,2.381,0,0,1-.2.48l-.66,1.36c-.28.59-.64,1.3-1.11,2.1s-1,1.75-1.59,2.73a74.9,74.9,0,0,1-4.66,6.76,84.805,84.805,0,0,1-6.67,7.54,87.2,87.2,0,0,1-7.58,6.61,75.583,75.583,0,0,1-6.8,4.61c-1,.63-1.93,1.12-2.74,1.57s-1.52.82-2.11,1.1l-1.36.64a2.853,2.853,0,0,1-.49.2,2.061,2.061,0,0,1,.45-.29l1.31-.73c.57-.31,1.27-.69,2.06-1.17s1.72-1,2.69-1.63a81.319,81.319,0,0,0,6.69-4.68,91.791,91.791,0,0,0,7.52-6.6,89.065,89.065,0,0,0,6.65-7.47c1.89-2.42,3.49-4.69,4.73-6.66.65-1,1.17-1.88,1.65-2.67s.87-1.48,1.19-2.06l.74-1.3C195.59,291,195.69,290.87,195.71,290.88Z" fill="#263238"/>
      <path id="Trazado_131745" data-name="Trazado 131745" d="M76.91,397.1l6.32,28.8s-27.5,14-26.85,19.42L113,437.19l-8-45.28Z" fill="#455a64"/>
      <g id="Grupo_58458" data-name="Grupo 58458" opacity="0.6">
        <path id="Trazado_131746" data-name="Trazado 131746" d="M100.19,420.3a2.33,2.33,0,0,1,2.07,2.33,2.25,2.25,0,0,1-2.3,2.07,2.46,2.46,0,0,1-2.17-2.48,2.32,2.32,0,0,1,2.62-1.89" fill="#fff"/>
      </g>
      <g id="Grupo_58459" data-name="Grupo 58459" opacity="0.6">
        <path id="Trazado_131747" data-name="Trazado 131747" d="M113,437.19l-.81-4.57-54.41,9.76a4,4,0,0,0-1.64,3.39Z" fill="#fff"/>
      </g>
      <path id="Trazado_131748" data-name="Trazado 131748" d="M82.27,425.78c.06.28,1.45.15,3,.79s2.44,1.66,2.67,1.5-.46-1.66-2.31-2.4S82.16,425.54,82.27,425.78Z" fill="#263238"/>
      <path id="Trazado_131749" data-name="Trazado 131749" d="M76.81,429.3c0,.28,1.26.53,2.4,1.52s1.64,2.17,1.91,2.11.17-1.65-1.28-2.85S76.77,429,76.81,429.3Z" fill="#263238"/>
      <path id="Trazado_131750" data-name="Trazado 131750" d="M74.74,437c.26,0,.4-1.43-.58-2.8s-2.38-1.74-2.45-1.49.86.91,1.65,2.05S74.46,437,74.74,437Z" fill="#263238"/>
      <path id="Trazado_131751" data-name="Trazado 131751" d="M81.55,419.06c.17.23,1.36-.38,2.93-.56s2.87.09,3-.17-1.24-1-3.09-.79S81.38,418.87,81.55,419.06Z" fill="#263238"/>
      <g id="Grupo_58460" data-name="Grupo 58460" opacity="0.3">
        <path id="Trazado_131752" data-name="Trazado 131752" d="M78.17,402.81l1.12,5.13,27.61-5.29-.81-4.66Z"/>
      </g>
      <path id="Trazado_131753" data-name="Trazado 131753" d="M80.39,413.23a5.48,5.48,0,0,0,2.81-.53,13.3,13.3,0,0,0,2.8-1.44,13.72,13.72,0,0,0,1.46-1.16,3.55,3.55,0,0,0,.73-.82A1.22,1.22,0,0,0,88,407.8a1.55,1.55,0,0,0-1.32-.41,3.659,3.659,0,0,0-1,.34,9.561,9.561,0,0,0-1.64.92,9.84,9.84,0,0,0-2.29,2.18c-1.09,1.44-1.35,2.55-1.24,2.59s.62-.91,1.76-2.15a11.648,11.648,0,0,1,2.26-1.87,10,10,0,0,1,1.53-.8c.57-.26,1.07-.36,1.27-.12.08.09.09.13,0,.33a2.8,2.8,0,0,1-.54.59,16.651,16.651,0,0,1-1.33,1.13,17.059,17.059,0,0,1-2.54,1.54A18,18,0,0,0,80.39,413.23Z" fill="#263238"/>
      <path id="Trazado_131754" data-name="Trazado 131754" d="M80.82,413.55a4.6,4.6,0,0,0,.24-2.85,9.36,9.36,0,0,0-.94-3,9.91,9.91,0,0,0-1-1.58A2.34,2.34,0,0,0,77,405a1.32,1.32,0,0,0-1,1,3.48,3.48,0,0,0-.1,1.08,6.1,6.1,0,0,0,.34,1.9,6.67,6.67,0,0,0,1.76,2.7c1.37,1.26,2.58,1.38,2.58,1.28a11.222,11.222,0,0,1-2.08-1.76,6.61,6.61,0,0,1-1.38-2.48,5.86,5.86,0,0,1-.24-1.64c0-.61.11-1.14.35-1.12a2.016,2.016,0,0,1,1.15.75,9.09,9.09,0,0,1,1,1.4,10.27,10.27,0,0,1,1.06,2.71C80.77,412.46,80.66,413.54,80.82,413.55Z" fill="#263238"/>
      <path id="Trazado_131755" data-name="Trazado 131755" d="M74.93,404.36S55.51,324.86,55.3,314c-.24-11.56,10.37-21.29,17.46-22.93s22.92,3.82,31.66,14.74S141,337.46,141,337.46c11.5,8.62,28.53,12.29,44,4.21,0,0,22.74,35.36,24.22,34.47,2.68-1.61.93,2.84-1.2,8.33-4.21,10.86-12.54,20.12-22.22,20.35l-55.58,2.49-21.65-24.18,2,16.73Z" fill="#263238"/>
      <path id="Trazado_131756" data-name="Trazado 131756" d="M110.06,395.06a4.8,4.8,0,0,1-.2-.84c-.11-.56-.28-1.38-.45-2.45a85.343,85.343,0,0,1-1-9.08,134.6,134.6,0,0,1-.14-13.55q.135-3.825.39-8a82.842,82.842,0,0,0,.25-8.55,104.43,104.43,0,0,0-1.83-16.42,91.4,91.4,0,0,0-3.4-13.06,48.319,48.319,0,0,0-3.67-8.31,23.158,23.158,0,0,0-1.3-2.1,4.49,4.49,0,0,1-.44-.75,7.755,7.755,0,0,1,.53.69,21.3,21.3,0,0,1,1.39,2.06A46.09,46.09,0,0,1,104,323a88.9,88.9,0,0,1,3.52,13.09,101.558,101.558,0,0,1,1.88,16.5,83.309,83.309,0,0,1-.26,8.59c-.17,2.77-.32,5.44-.42,8-.21,5.09-.18,9.67,0,13.51s.57,6.94.86,9.07c.14,1.07.28,1.9.35,2.46a5.481,5.481,0,0,1,.13.84Z" fill="#455a64"/>
      <path id="Trazado_131757" data-name="Trazado 131757" d="M144.94,354.93c-.16,0,0-3.41-.62-7.54s-1.63-7.38-1.47-7.43a8,8,0,0,1,.82,2.08,34,34,0,0,1,1.49,10.67A7.41,7.41,0,0,1,144.94,354.93Z" fill="#455a64"/>
      <path id="Trazado_131758" data-name="Trazado 131758" d="M134.32,408.15l-27.76,9.93s2.75,30.73-2.2,33.07L81.19,398.84l42.61-17.26Z" fill="#455a64"/>
      <g id="Grupo_58461" data-name="Grupo 58461" opacity="0.6">
        <path id="Trazado_131759" data-name="Trazado 131759" d="M102.31,400.73a2.35,2.35,0,0,0-3.08-.51,2.25,2.25,0,0,0-.53,3,2.45,2.45,0,0,0,3.25.52,2.33,2.33,0,0,0,.21-3.23" fill="#fff"/>
      </g>
      <g id="Grupo_58462" data-name="Grupo 58462" opacity="0.6">
        <path id="Trazado_131760" data-name="Trazado 131760" d="M81.19,398.84l4.29-1.74,20.62,51.29a4,4,0,0,1-2,3.19Z" fill="#fff"/>
      </g>
      <path id="Trazado_131761" data-name="Trazado 131761" d="M107.17,418.84c-.26.09-.9-1.16-2.24-2.1s-2.71-1.19-2.7-1.47,1.66-.49,3.27.68S107.43,418.8,107.17,418.84Z" fill="#263238"/>
      <path id="Trazado_131762" data-name="Trazado 131762" d="M107.09,425.33c-.23.16-1.12-.79-2.57-1.23s-2.71-.24-2.8-.5,1.31-1,3.1-.43S107.33,425.22,107.09,425.33Z" fill="#263238"/>
      <path id="Trazado_131763" data-name="Trazado 131763" d="M101.68,431.15c-.15-.21,1-1.09,2.69-1s2.74,1.09,2.56,1.29-1.23-.26-2.61-.32S101.81,431.4,101.68,431.15Z" fill="#263238"/>
      <path id="Trazado_131764" data-name="Trazado 131764" d="M113.25,415.87c-.28,0-.4-1.35-1.09-2.77s-1.6-2.39-1.43-2.61,1.53.5,2.32,2.19S113.5,415.92,113.25,415.87Z" fill="#263238"/>
      <g id="Grupo_58463" data-name="Grupo 58463" opacity="0.3">
        <path id="Trazado_131765" data-name="Trazado 131765" d="M128.82,410.11l-4.95,1.78-10.18-26.21,4.39-1.79Z"/>
      </g>
      <path id="Trazado_131766" data-name="Trazado 131766" d="M118.81,413.76c-.11.05-.68-.91-1-2.66a12.929,12.929,0,0,1-.25-3.13,12.281,12.281,0,0,1,.2-1.85,3.53,3.53,0,0,1,.3-1.05,1.21,1.21,0,0,1,1.34-.67,1.53,1.53,0,0,1,1,.9,3.5,3.5,0,0,1,.26,1.05,10.1,10.1,0,0,1,.1,1.88,10.21,10.21,0,0,1-.64,3.1c-.65,1.69-1.45,2.49-1.53,2.42s.44-1,.88-2.63a11.71,11.71,0,0,0,.39-2.91,10.309,10.309,0,0,0-.14-1.72c-.08-.62-.26-1.1-.57-1.14-.12,0-.16,0-.28.17a3.07,3.07,0,0,0-.22.78,15.759,15.759,0,0,0-.24,1.72,16,16,0,0,0,0,3,20.828,20.828,0,0,1,.4,2.74Z" fill="#263238"/>
      <path id="Trazado_131767" data-name="Trazado 131767" d="M118.3,413.57c-.07-.07.65-1,2.29-1.72a9.111,9.111,0,0,1,3.06-.8,9.252,9.252,0,0,1,1.89,0,2.36,2.36,0,0,1,2,1.16,1.35,1.35,0,0,1-.3,1.41,3.57,3.57,0,0,1-.87.66,6.17,6.17,0,0,1-1.79.72,6.7,6.7,0,0,1-3.2,0c-1.79-.49-2.53-1.45-2.45-1.51a22.6,22.6,0,0,0,2.59.84,6.68,6.68,0,0,0,2.84-.16,5.941,5.941,0,0,0,1.52-.66c.53-.31.9-.7.76-.89a2.085,2.085,0,0,0-1.25-.59,9.817,9.817,0,0,0-1.7-.08,10.388,10.388,0,0,0-2.86.54C119.26,413,118.4,413.7,118.3,413.57Z" fill="#263238"/>
      <path id="Trazado_131768" data-name="Trazado 131768" d="M130,375.25s55.76-52.16,74.07-49.38,22.74,11.65,24.41,18.86,1.11,28.85-23.86,41.61S126.42,413,126.42,413l-11.09-31.1Z" fill="#263238"/>
      <path id="Trazado_131769" data-name="Trazado 131769" d="M130,375.25l-.95.46L126.27,377l-10.89,5,.06-.15L126.6,412.9l-.22-.12c13.08-3.52,28.43-7.94,45.14-13.54,8.33-2.83,17-5.95,25.77-9.76,2.2-.91,4.35-2,6.53-3,1.11-.5,2.12-1.16,3.19-1.74l1.6-.9c.53-.3,1-.68,1.52-1a42.87,42.87,0,0,0,10.89-10,37.28,37.28,0,0,0,6.7-13.94c.36-1.23.51-2.5.75-3.75a20.011,20.011,0,0,0,.3-3.78,25.55,25.55,0,0,0-.74-7.42,22,22,0,0,0-2.9-6.7,19.771,19.771,0,0,0-4.95-5.16,25.811,25.811,0,0,0-6.2-3.34,43.749,43.749,0,0,0-6.63-2l-3.35-.6-1.65-.09c-.55,0-1.1.1-1.65.15a27.091,27.091,0,0,0-6.29,1.77,78.224,78.224,0,0,0-11.23,5.7,213.092,213.092,0,0,0-18.7,12.82c-11,8.39-19.57,15.72-25.43,20.8-2.92,2.56-5.17,4.56-6.69,5.92l-1.73,1.56-.6.52s.18-.2.56-.56l1.7-1.59c1.5-1.39,3.72-3.42,6.63-6,5.82-5.13,14.3-12.51,25.34-20.94a212.18,212.18,0,0,1,18.7-12.9,78.489,78.489,0,0,1,11.28-5.76,28.5,28.5,0,0,1,6.4-1.81c.57-.05,1.13-.12,1.7-.16l1.73.1,3.38.6a44,44,0,0,1,6.71,2,26.43,26.43,0,0,1,6.32,3.39,20.39,20.39,0,0,1,5.07,5.28,22.559,22.559,0,0,1,3,6.86,26.21,26.21,0,0,1,.77,7.56,38.005,38.005,0,0,1-.31,3.83,21.758,21.758,0,0,1-.75,3.81,37.9,37.9,0,0,1-6.79,14.13,43.83,43.83,0,0,1-11,10.14,16.169,16.169,0,0,1-1.54,1l-1.61.9c-1.08.59-2.11,1.26-3.21,1.76-2.2,1-4.35,2.14-6.56,3-8.77,3.82-17.48,6.92-25.83,9.74-16.73,5.59-32.09,10-45.2,13.46h-.17l-.06-.16c-4.53-12.8-8.3-23.42-11-31.1v-.1h.1l10.92-4.89,2.85-1.25C129.69,375.38,130,375.25,130,375.25Z" fill="#455a64"/>
      <path id="Trazado_131770" data-name="Trazado 131770" d="M159.74,337.82c-.85-1.56.91-4.3-.76-4.89-6.44-2.26-1.51-12.45-8.1-10.66l-8.82,15.62c3.86,2.35,2.21,9,5.57,12,2,1.74,4.92,1.64,7.46,1.07,9.7-2.18,17.9-7.3,20.39-16.92C175.93,332.28,160.61,339.39,159.74,337.82Z" fill="#e0e0e0"/>
      <path id="Trazado_131771" data-name="Trazado 131771" d="M251.62,165.68c-5.47.73-11.56,4.18-13.66,9.31-1.64,4,.22,9.94.29,14.26.05,3.48.11,7,.31,10.46l-.12,1a94.151,94.151,0,0,0-1,13.94,31.077,31.077,0,0,0,.29,3.75c.09.62.17,1.23.3,1.83s.22,1.2.39,1.78a35.759,35.759,0,0,0,2.26,6.5,53.65,53.65,0,0,0,5.88,9.85,68.45,68.45,0,0,0,4.87,5.91l.37.38,4.08,10.44c1.36,3.49,2.76,7,5.15,9.91s6,5,9.68,4.64a10.83,10.83,0,0,0,8-5.66,21,21,0,0,0,2.32-9.89Zm-3.39,71.56a66.807,66.807,0,0,1-5.14-9.76,35.6,35.6,0,0,1-2.79-12.89v-2.11a139.621,139.621,0,0,0,6.41,19.14q1.63,4.15,3.25,8.31c-.55-.83-1.13-1.72-1.73-2.69Z" fill="#263238"/>
      <path id="Trazado_131772" data-name="Trazado 131772" d="M301,232.78l-39.64,15.95s14.65,32.64,27.22,29.71,18.67-32.85,18.67-32.85Z" fill="#ffbe9d"/>
      <path id="Trazado_131773" data-name="Trazado 131773" d="M303,234.08s4.35,29.81-8.25,32.22c-8.83,1.69-29.35-19.59-29.35-19.59-3.58,1.07-6.23,2.9-9.07,4.66a21.63,21.63,0,0,0-8.22,27c4.37,10.12,10.12,23.29,13.37,30.1,5.73,12,19.15,19.51,19.15,19.51l-1.1,25.51s34.61-7.25,53.17-5.4,30.82-2.19,30.82-2.19L338.85,303,320,232.18S311.41,232.78,303,234.08Z" fill="#455a64"/>
      <path id="Trazado_131774" data-name="Trazado 131774" d="M320,232.18s11.26-.1,17.8,13.41c3.36,7,17.39,30.33,17.39,29.74l21.14-31.4,18.43,10.27s-17.18,36.37-19.91,41.8-6.27,13.1-16.64,14.19-20.47-7.64-22.65-12.82-18-32.2-18-33S320,232.18,320,232.18Z" fill="#455a64"/>
      <path id="Trazado_131775" data-name="Trazado 131775" d="M355.67,332.25a3,3,0,0,1-.37-.55l-1-1.64c-.88-1.47-2.1-3.55-3.61-6.11-3.06-5.26-7.28-12.54-12.07-20.8h0V303c-.1-2.26-.22-4.61-.41-7a70.11,70.11,0,0,0-2.83-15.52A38.622,38.622,0,0,0,329.66,269a28.73,28.73,0,0,0-6.1-6.14c-.84-.59-1.5-1-2-1.3a5.148,5.148,0,0,1-.7-.46,5.221,5.221,0,0,1,.75.37,21.375,21.375,0,0,1,2,1.23,27.589,27.589,0,0,1,6.28,6.08,38,38,0,0,1,5.84,11.57A68.8,68.8,0,0,1,338.7,296c.19,2.41.31,4.77.4,7v-.12l11.9,20.9,3.47,6.19.92,1.68A4.757,4.757,0,0,1,355.67,332.25Z" fill="#263238"/>
      <path id="Trazado_131776" data-name="Trazado 131776" d="M356.11,289a24.918,24.918,0,0,1-1.05-6.6,39.008,39.008,0,0,1,0-4.74,6.24,6.24,0,0,1,.26-1.94c.15,0,0,3,.26,6.65S356.27,288.92,356.11,289Z" fill="#263238"/>
      <path id="Trazado_131777" data-name="Trazado 131777" d="M308.2,280.76a7.282,7.282,0,0,1,.48,1.23,11,11,0,0,1,.44,1.49c.15.59.34,1.25.46,2s.28,1.58.35,2.48.13,1.85.16,2.86a31.78,31.78,0,0,1-2.57,12.8c-.42.92-.8,1.8-1.25,2.58a22.824,22.824,0,0,1-1.28,2.14A19.1,19.1,0,0,1,303.8,310a11.794,11.794,0,0,1-1,1.2,7,7,0,0,1-.92.95c-.09-.07,1.19-1.46,2.78-4,.39-.65.82-1.35,1.21-2.15s.79-1.65,1.19-2.56a37.267,37.267,0,0,0,1.88-6.19,36.585,36.585,0,0,0,.65-6.43,33.293,33.293,0,0,0-.4-5.27C308.74,282.57,308.09,280.79,308.2,280.76Z" fill="#263238"/>
      <path id="Trazado_131778" data-name="Trazado 131778" d="M287.27,181.14a23.23,23.23,0,0,0-29.49-15.82c-12,3.77-18.71,16.59-15.7,28.67,2.63,10.59,5.52,21.18,7.09,24.8,4.74,10.94,13,12.49,16.21,12.67a16.111,16.111,0,0,0,3.22-.51h0a.07.07,0,0,1,.1.06l2.8,13.66c2.34,8.74,10.09,14.16,18.94,11.85S303.21,245.1,301,236.28Z" fill="#ffbe9d"/>
      <path id="Trazado_131779" data-name="Trazado 131779" d="M249.65,199.48a1.9,1.9,0,0,0,2.26,1.39,1.84,1.84,0,0,0,1.49-2.16,1.89,1.89,0,0,0-2.26-1.39,1.85,1.85,0,0,0-1.49,2.16Z" fill="#263238"/>
      <path id="Trazado_131780" data-name="Trazado 131780" d="M245.89,195.9c.29.18,1.43-1.22,3.43-1.74s3.71.1,3.86-.2c.08-.14-.26-.51-1-.8A5.22,5.22,0,0,0,249,193a5.08,5.08,0,0,0-2.65,1.67C245.85,195.33,245.75,195.82,245.89,195.9Z" fill="#263238"/>
      <path id="Trazado_131781" data-name="Trazado 131781" d="M268.35,195a1.89,1.89,0,0,0,2.26,1.39,1.85,1.85,0,0,0,1.49-2.16,1.89,1.89,0,0,0-2.26-1.39,1.85,1.85,0,0,0-1.49,2.16Z" fill="#263238"/>
      <path id="Trazado_131782" data-name="Trazado 131782" d="M265.59,191.15c.29.18,1.44-1.21,3.43-1.73s3.71.09,3.87-.2c.08-.14-.27-.51-1-.8a5.3,5.3,0,0,0-3.17-.14A5.23,5.23,0,0,0,266,190C265.55,190.59,265.45,191.07,265.59,191.15Z" fill="#263238"/>
      <path id="Trazado_131783" data-name="Trazado 131783" d="M262.08,207.7a14.1,14.1,0,0,0-3.38.27c-.53.08-1,.1-1.21-.22a2.62,2.62,0,0,1,0-1.58c.17-1.35.35-2.76.53-4.24.7-6,1.07-10.91.82-10.94s-1,4.84-1.7,10.86c-.16,1.48-.32,2.89-.46,4.24a2.94,2.94,0,0,0,.24,2,1.29,1.29,0,0,0,1,.52,3.88,3.88,0,0,0,.9-.11,13.071,13.071,0,0,0,3.26-.8Z" fill="#263238"/>
      <path id="Trazado_131784" data-name="Trazado 131784" d="M268.68,230.92s7.86-1.38,16-9.63c0,0-.47,10.89-15.28,13.32Z" fill="#eb996e"/>
      <path id="Trazado_131785" data-name="Trazado 131785" d="M264.14,212.25a3.77,3.77,0,0,1,2.89-2.17,3.39,3.39,0,0,1,2.57.62,2.1,2.1,0,0,1,.76,2.31,2.53,2.53,0,0,1-2.45,1.34,7.82,7.82,0,0,1-2.93-.84,2.279,2.279,0,0,1-.72-.44.68.68,0,0,1-.19-.74" fill="#eb996e"/>
      <path id="Trazado_131786" data-name="Trazado 131786" d="M268.3,207.54c-.33.07.22,2.21-1.25,4.22s-3.83,2.37-3.77,2.67c0,.15.62.29,1.6.06a5.71,5.71,0,0,0,3.18-2.11,4.83,4.83,0,0,0,.91-3.5C268.83,208,268.45,207.49,268.3,207.54Z" fill="#263238"/>
      <path id="Trazado_131787" data-name="Trazado 131787" d="M263.07,184.81c.33.48,2.26-.29,4.67-.62s4.46-.19,4.65-.76c.08-.26-.38-.68-1.27-1a7.91,7.91,0,0,0-3.67-.29,8,8,0,0,0-3.44,1.34C263.24,184,262.92,184.57,263.07,184.81Z" fill="#263238"/>
      <path id="Trazado_131788" data-name="Trazado 131788" d="M244.69,190.39c.46.36,1.72-.47,3.37-.92s3.13-.49,3.33-1.05c.08-.26-.25-.65-1-.92a5.09,5.09,0,0,0-5.4,1.59C244.55,189.7,244.48,190.21,244.69,190.39Z" fill="#263238"/>
      <path id="Trazado_131789" data-name="Trazado 131789" d="M316.64,231.1q-4.84-17.49-11-34.57c-2.48-6.85-5.13-13.7-9-19.88s-9-11.69-15.53-14.93a26.41,26.41,0,0,0-14.95-2.67c-5-.29-9.93.82-13.7,4-1.9,1.59-3.5,4.2-2.47,6.47.81,1.8,2.88,2.57,4.75,3.16l15.45,4.91.12.11c.26.29.56.6.91.95a25.32,25.32,0,0,1,4.46,6.86,40.6,40.6,0,0,1,3.06,11.81c.54,4.6.48,9.8.68,15.32s.79,10.94,2.42,15.61a47.43,47.43,0,0,0,5.85,11.49,61.224,61.224,0,0,0,5.09,6.47,16.471,16.471,0,0,1,.34,2.44c.14,2.41-.33,4.82-.31,7.23s.65,5,2.49,6.56a6.74,6.74,0,0,0,6.86.77,11.79,11.79,0,0,0,5.23-4.88c2.76-4.52,3.53-10,3.12-15.35-.05-.65-.12-1.3-.2-1.95a13.1,13.1,0,0,0,2.7-.79,6.77,6.77,0,0,0,4.15-4.65A10.109,10.109,0,0,0,316.64,231.1Zm-27.24,7.54a53.939,53.939,0,0,1-5-11.21,58,58,0,0,1-2.06-14.9c-.13-3.46-.18-6.86-.39-10.12.28,1.34.54,2.67.77,4,1.84,10.28,2.91,20.82,6.75,30.53.68,1.73,1.44,3.44,2.11,5.18-.71-1.05-1.43-2.2-2.18-3.48Z" fill="#263238"/>
      <path id="Trazado_131790" data-name="Trazado 131790" d="M297.38,177.56l-.47-.06-1.34-.14c-.58-.05-1.3-.12-2.12-.23s-1.77-.19-2.8-.35c-2.08-.27-4.53-.68-7.25-1.21s-5.67-1.25-8.74-2.11-6-1.83-8.57-2.78-4.9-1.9-6.82-2.76c-1-.4-1.81-.82-2.57-1.16s-1.4-.66-1.93-.92l-1.22-.59a2.229,2.229,0,0,0-.43-.18,3,3,0,0,0,.41.23l1.19.64c.52.27,1.16.6,1.91,1s1.6.79,2.56,1.21c1.91.88,4.22,1.84,6.81,2.82s5.5,1.93,8.58,2.81,6.05,1.55,8.77,2.09,5.19.91,7.27,1.15c1,.15,2,.23,2.81.31s1.55.14,2.13.18l1.35.08a2.408,2.408,0,0,0,.47-.03Z" fill="#455a64"/>
      <path id="Trazado_131791" data-name="Trazado 131791" d="M297.93,179.56a2.5,2.5,0,0,0-.48,0l-1.38.09-1,.07h-1.18c-.84,0-1.81.07-2.87,0h-1.67c-.59,0-1.19-.06-1.81-.09-1.26,0-2.59-.19-4-.33a75.882,75.882,0,0,1-9-1.63,75.114,75.114,0,0,1-8.72-2.83c-1.31-.55-2.55-1-3.68-1.6-.57-.27-1.12-.51-1.64-.78l-1.49-.77c-1-.48-1.78-1-2.52-1.4l-1-.6-.85-.53-1.17-.73a2.42,2.42,0,0,0-.42-.23l.39.28,1.15.78.83.55c.3.2.65.39,1,.62.73.43,1.55.95,2.51,1.44l1.48.79c.52.27,1.07.52,1.64.8,1.13.57,2.37,1.07,3.68,1.63a73.678,73.678,0,0,0,8.75,2.86,74.7,74.7,0,0,0,9.06,1.62c1.41.12,2.75.27,4,.3.63,0,1.24.07,1.82.07H291c1.07,0,2,0,2.88-.08l1.18-.06,1-.1,1.37-.14Z" fill="#fff"/>
      <path id="Trazado_131792" data-name="Trazado 131792" d="M305.39,252.36v-.75a21.081,21.081,0,0,0-.18-2.17,68.833,68.833,0,0,0-1.28-7.9c-.7-3.3-1.75-7.19-3.1-11.45s-2.94-8.89-4.59-13.77l-8.51-25c-1.1-3.18-2-5.76-2.62-7.56-.31-.87-.55-1.56-.72-2.05-.08-.22-.15-.39-.19-.53a.81.81,0,0,0-.08-.17,1.352,1.352,0,0,0,.05.18l.17.54.67,2.07,2.52,7.58c2.17,6.41,5.15,15.24,8.44,25,1.65,4.88,3.26,9.52,4.61,13.76s2.43,8.13,3.16,11.42,1.14,6,1.36,7.86c.13.94.19,1.67.24,2.16l.06.56C305.37,252.3,305.38,252.37,305.39,252.36Z" fill="#455a64"/>
      <path id="Trazado_131793" data-name="Trazado 131793" d="M291.83,223.76a3.133,3.133,0,0,0-.05-.46,13.182,13.182,0,0,0-.2-1.33c-.18-1.15-.46-2.81-.83-4.85-.73-4.1-1.84-9.74-3.27-15.93s-2.9-11.75-4-15.75c-.57-2-1-3.62-1.39-4.73-.16-.54-.3-1-.4-1.28a2.36,2.36,0,0,0-.16-.44,1.508,1.508,0,0,0,.11.46c.11.3.2.75.35,1.29.31,1.15.75,2.77,1.3,4.75,1.08,4,2.52,9.58,3.95,15.76s2.57,11.82,3.35,15.9c.39,2,.7,3.67.92,4.84.1.55.19,1,.25,1.32a2.13,2.13,0,0,0,.07.45Z" fill="#455a64"/>
      <path id="Trazado_131794" data-name="Trazado 131794" d="M380.52,240.1a41.469,41.469,0,0,0,1.77-8.3c.55-4.86.56-5.11-.51-7.25s-3-3-3.85-4.06,2.46-2.35,5.37-.37,5.18,5.77,5.78,6.66c3.08,4.51,5.75,4.63,5.75,4.63l11.68-3s2.43-3.52,4.57-3.06l.94.17.38-.22a1.5,1.5,0,0,1,2.26,1.18,2.22,2.22,0,0,1-.24,1c-.83,1.68-8.27,8.29-8.66,10.06s0,4.61-3.27,7.75-7.15,4.35-11.21,4.85l-.62,1.71L378.18,245Z" fill="#ffbe9d"/>
      <path id="Trazado_131795" data-name="Trazado 131795" d="M403.59,241.21a5,5,0,0,1,.12-1.11c.14-.82.32-1.82.52-3s.52-2.79.83-4.42a3.67,3.67,0,0,0-.05-2.43,1.26,1.26,0,0,0-.87-.71,1.47,1.47,0,0,0-1.14.35,5.762,5.762,0,0,0-1.31,2.82l-.91,2.9c-.57,1.75-1.07,3.31-1.48,4.59v.1h-.1a3.88,3.88,0,0,0-1.94.76c-.39.31-.57.52-.59.5s.1-.27.48-.63a3.8,3.8,0,0,1,2-.94l-.14.11c.38-1.3.83-2.87,1.34-4.64q.42-1.38.87-2.91c.16-.5.3-1,.49-1.56a3.38,3.38,0,0,1,1-1.52,2,2,0,0,1,1.55-.45,1.75,1.75,0,0,1,1.23,1,4.08,4.08,0,0,1,.07,2.77c-.35,1.62-.66,3.1-.94,4.39s-.49,2.15-.68,3a4.451,4.451,0,0,1-.35,1.03Z" fill="#eb996e"/>
      <path id="Trazado_131796" data-name="Trazado 131796" d="M412.34,225.62a43,43,0,0,1-3.18,5.82,43.5,43.5,0,0,1-3.62,5.55,42.241,42.241,0,0,1,3.17-5.82A42,42,0,0,1,412.34,225.62Z" fill="#eb996e"/>
      <path id="Trazado_131797" data-name="Trazado 131797" d="M405.25,231.29a3.91,3.91,0,0,1,.76-2.6,4.126,4.126,0,0,1,1.92-1.91c.07.09-.75.94-1.48,2.17S405.4,231.32,405.25,231.29Z" fill="#eb996e"/>
      <path id="Trazado_131798" data-name="Trazado 131798" d="M389.84,228.63a4.73,4.73,0,0,1,1.37,1.55,10.72,10.72,0,0,1,1.7,4.7,10.84,10.84,0,0,1-.61,5,4.73,4.73,0,0,1-1,1.82c-.07,0,.29-.74.64-1.94a12,12,0,0,0,.44-4.78,12.26,12.26,0,0,0-1.49-4.57C390.29,229.28,389.78,228.68,389.84,228.63Z" fill="#eb996e"/>
      <path id="Trazado_131799" data-name="Trazado 131799" d="M397.89,238.18c-.15,0-.3-1.54-1.13-3.21s-1.93-2.75-1.83-2.86a6.69,6.69,0,0,1,3,6.07Z" fill="#eb996e"/>
      <path id="Trazado_131800" data-name="Trazado 131800" d="M400.93,233.13c.05.13-.85.59-2,1a5.12,5.12,0,0,1-2.18.52c-.05-.14.84-.59,2-1A4.93,4.93,0,0,1,400.93,233.13Z" fill="#eb996e"/>
      <path id="Trazado_131801" data-name="Trazado 131801" d="M368.24,401.28l26.35,7.54s-.7,28.68,4,30.55L417,389.44,376.39,376Z" fill="#455a64"/>
      <g id="Grupo_58464" data-name="Grupo 58464" opacity="0.6">
        <path id="Trazado_131802" data-name="Trazado 131802" d="M397.49,392.47a2.17,2.17,0,0,1,2.82-.66,2.08,2.08,0,0,1,.68,2.79,2.29,2.29,0,0,1-3,.68,2.16,2.16,0,0,1-.38-3" fill="#fff"/>
      </g>
      <g id="Grupo_58465" data-name="Grupo 58465" opacity="0.6">
        <path id="Trazado_131803" data-name="Trazado 131803" d="M417,389.44l-4.09-1.36-16,48.83a3.68,3.68,0,0,0,2,2.84Z" fill="#fff"/>
      </g>
      <path id="Trazado_131804" data-name="Trazado 131804" d="M394.07,409.56c.25.07.76-1.13,1.95-2.09s2.44-1.26,2.42-1.52-1.57-.36-3,.83S393.83,409.54,394.07,409.56Z" fill="#263238"/>
      <path id="Trazado_131805" data-name="Trazado 131805" d="M394.54,415.58c.22.13,1-.8,2.3-1.3s2.51-.38,2.57-.63-1.27-.86-2.9-.21S394.3,415.49,394.54,415.58Z" fill="#263238"/>
      <path id="Trazado_131806" data-name="Trazado 131806" d="M399.91,420.66c.12-.21-1-1-2.56-.76s-2.47,1.17-2.3,1.34,1.13-.31,2.41-.45S399.8,420.89,399.91,420.66Z" fill="#263238"/>
      <path id="Trazado_131807" data-name="Trazado 131807" d="M388.25,407.17c.26,0,.29-1.27.84-2.64s1.34-2.31,1.17-2.5-1.39.56-2,2.17S388,407.23,388.25,407.17Z" fill="#263238"/>
      <path id="Trazado_131808" data-name="Trazado 131808" d="M341.44,396.24l-24.85,11.57s5.17,28.22.79,30.8l-25.93-46.45,38-19.61Z" fill="#455a64"/>
      <g id="Grupo_58466" data-name="Grupo 58466" opacity="0.6">
        <path id="Trazado_131809" data-name="Trazado 131809" d="M311.17,392.12a2.18,2.18,0,0,0-2.89-.22,2.1,2.1,0,0,0-.24,2.87,2.29,2.29,0,0,0,3.06.21,2.17,2.17,0,0,0-.08-3" fill="#fff"/>
      </g>
      <g id="Grupo_58467" data-name="Grupo 58467" opacity="0.6">
        <path id="Trazado_131810" data-name="Trazado 131810" d="M291.45,392.16l3.83-2,23.47,45.72a3.67,3.67,0,0,1-1.58,3.13Z" fill="#fff"/>
      </g>
      <path id="Trazado_131811" data-name="Trazado 131811" d="M317.22,408.46c-.24.11-.93-1-2.26-1.75s-2.6-.87-2.62-1.13,1.5-.6,3.08.35S317.46,408.4,317.22,408.46Z" fill="#263238"/>
      <path id="Trazado_131812" data-name="Trazado 131812" d="M317.7,414.48c-.2.16-1.1-.64-2.48-.92s-2.53,0-2.64-.23,1.12-1.05,2.83-.66S317.92,414.36,317.7,414.48Z" fill="#263238"/>
      <path id="Trazado_131813" data-name="Trazado 131813" d="M313.19,420.33c-.16-.18.83-1.09,2.4-1.15s2.63.78,2.49,1-1.16-.13-2.45-.06S313.33,420.55,313.19,420.33Z" fill="#263238"/>
      <path id="Trazado_131814" data-name="Trazado 131814" d="M322.59,405.19c-.26,0-.48-1.21-1.24-2.47s-1.69-2.07-1.55-2.3,1.46.34,2.33,1.84S322.83,405.21,322.59,405.19Z" fill="#263238"/>
      <path id="Trazado_131815" data-name="Trazado 131815" d="M362.38,340.54s38.13-9.72,47.75-7.68,21.57,3.52,23.32,10.65,1.16,18.79-5.83,25.2-92.39,33.81-92.39,33.81l-8.45-23-21.61-39.31C324,341.14,344.8,342.83,362.38,340.54Z" fill="#263238"/>
      <path id="Trazado_131816" data-name="Trazado 131816" d="M332.8,380.65a3.549,3.549,0,0,1,.7-.29l2-.76c1.76-.66,4.31-1.65,7.39-3a124.111,124.111,0,0,0,22.78-13.1c4.14-3,8-6.11,11.63-8.69a58.841,58.841,0,0,1,10.25-6,30.341,30.341,0,0,1,7.68-2.27,16.174,16.174,0,0,1,2.17-.22,4.816,4.816,0,0,1,.76,0c0,.06-1,.12-2.9.45a31.829,31.829,0,0,0-7.56,2.41,60.831,60.831,0,0,0-10.12,6.05c-3.63,2.59-7.44,5.67-11.61,8.72a117.468,117.468,0,0,1-22.93,13c-3.12,1.32-5.68,2.27-7.47,2.87-.9.31-1.6.52-2.08.66A3.456,3.456,0,0,1,332.8,380.65Z" fill="#455a64"/>
      <path id="Trazado_131817" data-name="Trazado 131817" d="M291.52,338s-11.56,3.61-14.67,19.64,5.24,34.09,7.33,36.72,42.6,4.37,42.6,4.37l56.83,8.74s6.26-5,7.52-15.67c.95-8.12.06-10.56.06-10.56l-61-29.13S301.7,336,291.52,338Z" fill="#263238"/>
      <path id="Trazado_131818" data-name="Trazado 131818" d="M305.17,340.18s.15.05.44.18l1.27.58,4.89,2.29,18.15,8.58L391.3,381l.12.06v.13a38.2,38.2,0,0,1,.23,9.63,30.111,30.111,0,0,1-2.72,9.55,26.531,26.531,0,0,1-2.3,3.94,20.614,20.614,0,0,1-2.87,3.35l-.09.08h-.12l-41.1-6.35c-3.14-.49-6.19-1-9.18-1.38a74.231,74.231,0,0,1-8.52-2,91.142,91.142,0,0,1-14.51-5.82,100.485,100.485,0,0,1-11.08-6.51c-1.54-1.1-3-2.09-4.25-3.11s-2.41-1.93-3.41-2.8-1.85-1.68-2.59-2.38-1.34-1.32-1.81-1.83l-1.1-1.2c-.24-.26-.35-.4-.35-.4s.14.12.39.37l1.11,1.12c.48.5,1.08,1.12,1.84,1.79s1.59,1.51,2.62,2.34,2.13,1.8,3.43,2.76,2.71,2,4.25,3.07a102,102,0,0,0,11.09,6.42,92,92,0,0,0,14.47,5.74,72.294,72.294,0,0,0,8.47,2c3,.39,6,.88,9.17,1.35l41.12,6.3-.21.06a23.909,23.909,0,0,0,5-7.11,29.619,29.619,0,0,0,2.67-9.39,37.569,37.569,0,0,0-.22-9.49l.15.19-61.31-29.36L311.7,343.4l-4.86-2.4-1.25-.62Z" fill="#455a64"/>
      <path id="Trazado_131819" data-name="Trazado 131819" d="M283.64,394.82a3.714,3.714,0,0,1-.28-.51c-.17-.34-.43-.84-.73-1.5-.61-1.31-1.45-3.23-2.38-5.65A62.519,62.519,0,0,1,276,367.45a43.85,43.85,0,0,1,.95-11.11,33.563,33.563,0,0,1,1.45-4.66,27.447,27.447,0,0,1,1.89-3.8A25.59,25.59,0,0,1,284,343c.5-.52.95-.87,1.22-1.13a2.53,2.53,0,0,1,.46-.37l-1.53,1.64a28.22,28.22,0,0,0-5.38,8.69,34.772,34.772,0,0,0-1.38,4.61,44.24,44.24,0,0,0-.9,11A65.1,65.1,0,0,0,280.6,387c.87,2.42,1.66,4.36,2.22,5.69.26.62.47,1.13.63,1.54a2.172,2.172,0,0,1,.19.59Z" fill="#455a64"/>
      <path id="Trazado_131820" data-name="Trazado 131820" d="M228.37,236c-2.3-7.62-5.92-14.89-7.1-22.77l-7.22,1A20.71,20.71,0,0,0,199,237.87c.8,4.55,3.09,8.7,4.18,13.19s.61,9.9-3,12.73a7.44,7.44,0,0,0,4.84-1.46,6.92,6.92,0,0,1-1.3,4.76,13.12,13.12,0,0,0,9.14-2.06,4.07,4.07,0,0,1-1.44,3.27,19.25,19.25,0,0,0,16.09-9.12C231.53,252.33,230.67,243.62,228.37,236Z" fill="#263238"/>
      <path id="Trazado_131821" data-name="Trazado 131821" d="M206.34,235.06c-1.14-7.72,5.46-17.09,13.23-17.9l18.54.61a6.83,6.83,0,0,1,5.93,3.88h0l9,51.17h0s3.66,15.89-10.37,17.89c-12.6,1.8-14.71-11.47-14.71-11.48l-1.65-9.66s-10.17,1.73-14.9-10.57C209.07,252.91,207.61,243.65,206.34,235.06Z" fill="#ffbe9d"/>
      <path id="Trazado_131822" data-name="Trazado 131822" d="M213.86,244.18a1.66,1.66,0,0,0,1.92,1.31,1.6,1.6,0,0,0,1.37-1.83,1.66,1.66,0,0,0-1.92-1.31,1.6,1.6,0,0,0-1.37,1.83Z" fill="#263238"/>
      <path id="Trazado_131823" data-name="Trazado 131823" d="M210,241.35c.25.17,1.29-1,3-1.37s3.22.23,3.37,0-.22-.46-.86-.75a4.64,4.64,0,0,0-2.76-.25,4.41,4.41,0,0,0-2.36,1.36C210,240.85,209.9,241.28,210,241.35Z" fill="#263238"/>
      <path id="Trazado_131824" data-name="Trazado 131824" d="M228.66,241a1.67,1.67,0,0,0,1.92,1.31,1.58,1.58,0,0,0,1.37-1.82A1.65,1.65,0,0,0,230,239.2a1.59,1.59,0,0,0-1.34,1.8Z" fill="#263238"/>
      <path id="Trazado_131825" data-name="Trazado 131825" d="M226.23,238.19c.24.17,1.29-1,3-1.37s3.23.23,3.37,0-.21-.46-.86-.75a4.64,4.64,0,0,0-2.76-.24,4.35,4.35,0,0,0-2.36,1.36C226.21,237.7,226.11,238.12,226.23,238.19Z" fill="#263238"/>
      <path id="Trazado_131826" data-name="Trazado 131826" d="M223.66,252.06a13.679,13.679,0,0,0-2.95.15c-.46,0-.9.06-1-.18a2.7,2.7,0,0,1,0-1.18c.22-1,.44-2.06.69-3.16s1.4-7.59,1.31-8.16c-.21,0-1.14,3.6-2.08,8.08-.21,1.11-.43,2.16-.62,3.17a1.92,1.92,0,0,0,.09,1.53,1.14,1.14,0,0,0,.86.41,4.251,4.251,0,0,0,.78-.07,14.887,14.887,0,0,0,2.92-.59Z" fill="#263238"/>
      <path id="Trazado_131827" data-name="Trazado 131827" d="M226.19,269.66a33,33,0,0,0,16.06-8.16s-2.46,9.8-15.44,11.32Z" fill="#eb996e"/>
      <path id="Trazado_131828" data-name="Trazado 131828" d="M229,251.1c-.29,0,.11,2-1.23,3.64s-3.41,1.92-3.37,2.19.53.28,1.39.12a4.83,4.83,0,0,0,2.84-1.72,4.22,4.22,0,0,0,.91-3C229.39,251.49,229.08,251.06,229,251.1Z" fill="#263238"/>
      <path id="Trazado_131829" data-name="Trazado 131829" d="M225.56,232.22c.32.49,1.74-.23,3.6-.49s3.48-.07,3.57-.63c0-.26-.38-.7-1.12-1a5.15,5.15,0,0,0-2.91-.4,4.68,4.68,0,0,0-2.55,1.25C225.61,231.45,225.42,232,225.56,232.22Z" fill="#263238"/>
      <path id="Trazado_131830" data-name="Trazado 131830" d="M208.68,235.33c.4.44,1.61-.24,3.16-.47s2.9-.07,3.13-.61c.1-.26-.17-.71-.81-1.09a4.18,4.18,0,0,0-5.06.88C208.62,234.6,208.51,235.12,208.68,235.33Z" fill="#263238"/>
      <path id="Trazado_131831" data-name="Trazado 131831" d="M212.94,214.68c-3,8,4.68,9.51,8.84,11.85s8.8,3.66,13.41,4.88a6.49,6.49,0,0,1,3.16,1.49,6.31,6.31,0,0,1,1.26,2.6c.86,2.74,1.71,5.49,2.56,8.23a23.251,23.251,0,0,1,1.28,6,7.77,7.77,0,0,1-1.84,5.66,4.28,4.28,0,0,0,3-1.7,16.7,16.7,0,0,1-1.87,8.63,10,10,0,0,0,8.82-5.78,5.28,5.28,0,0,0,2.16,3.34c.45.39,1.3.64,1.1.07a39.191,39.191,0,0,1-1-4c1.84.74,2.31,1.33,6.22.12a9.19,9.19,0,0,1-3.74-5.09s1.05,2.16,4.43,1.1a13.68,13.68,0,0,1-4.69-9.24c-.29-5.05-.1-11-1.13-15.93A22.41,22.41,0,0,0,247.6,214a24.78,24.78,0,0,0-11.36-4.75,39.18,39.18,0,0,0-13.23,0c-2.75.46-8.77,1.45-10.07,5.45" fill="#263238"/>
      <path id="Trazado_131832" data-name="Trazado 131832" d="M242.74,262.28a25.882,25.882,0,0,0,2.84-.68,10.15,10.15,0,0,0,3-1.59,8.82,8.82,0,0,0,2.79-3.57l.19-.47.12.49a6.359,6.359,0,0,0,1,2.24,3.41,3.41,0,0,0,2.18,1.38l-.2.24c-.35-1.38-.71-2.83-1.09-4.35l-.12-.5.44.26a6.53,6.53,0,0,0,6,.1v.41a9.27,9.27,0,0,1-3.85-5.22l-.36-1.27.79,1.05a3.54,3.54,0,0,0,4.13,1l-.05.43c-2.67-2.1-4.12-5.5-4.71-8.93a57.094,57.094,0,0,1-.43-9.87,28.23,28.23,0,0,0-1.12-9,22.1,22.1,0,0,0-9.18-12,22.65,22.65,0,0,0-9.76-3.34,25.22,25.22,0,0,0-2.83-.13h-.74a.67.67,0,0,1-.25,0,15.9,15.9,0,0,1,3.84-.09,22.09,22.09,0,0,1,19.38,15.36,28.82,28.82,0,0,1,1.17,9.14,57.689,57.689,0,0,0,.43,9.78c.59,3.36,2,6.62,4.51,8.62l.33.26-.38.17a4,4,0,0,1-4.73-1.18l.44-.22a8.79,8.79,0,0,0,3.62,5l.36.23-.38.18a7,7,0,0,1-6.43-.15l.32-.23c.36,1.52.71,3,1,4.36l.07.28h-.27a3.74,3.74,0,0,1-2.44-1.56,6.38,6.38,0,0,1-1-2.37h.32a8.91,8.91,0,0,1-2.95,3.66,9.891,9.891,0,0,1-3.13,1.56,11.309,11.309,0,0,1-2.15.45A6.918,6.918,0,0,1,242.74,262.28Z" fill="#455a64"/>
      <path id="Trazado_131833" data-name="Trazado 131833" d="M251.88,247.67a2.551,2.551,0,0,1,0-.58c0-.44.06-1,.1-1.66a46,46,0,0,0,0-6.11,20.8,20.8,0,0,0-2.35-8.61,13.789,13.789,0,0,0-3.31-4.05,16.16,16.16,0,0,0-5-2.72A45.681,45.681,0,0,0,230.54,222a48.249,48.249,0,0,1-9-1.48,17.91,17.91,0,0,1-5.57-2.61,12.871,12.871,0,0,1-1.28-1.09,2.39,2.39,0,0,1-.39-.42,19.788,19.788,0,0,0,1.79,1.34,18.85,18.85,0,0,0,5.55,2.43,50.859,50.859,0,0,0,8.93,1.35,44.469,44.469,0,0,1,11,1.91,16.59,16.59,0,0,1,5.09,2.81,14.13,14.13,0,0,1,3.41,4.22,20.89,20.89,0,0,1,2.3,8.82,40.148,40.148,0,0,1-.2,6.14c-.07.72-.14,1.28-.2,1.66A2,2,0,0,1,251.88,247.67Z" fill="#455a64"/>
      <path id="Trazado_131834" data-name="Trazado 131834" d="M201.07,317l-.68,8a36.16,36.16,0,0,1,16.85,4.84L216.75,317Z" fill="#ffbe9d"/>
      <path id="Trazado_131835" data-name="Trazado 131835" d="M211.38,371.25s-7.93,22-1.74,32.75,8.38,12.38,16.22,11.92,13.12-6.42,14.72-8.71,5-33.93,5-33.93l-1.39-29.69-23.6,1Z" fill="#263238"/>
      <path id="Trazado_131836" data-name="Trazado 131836" d="M276.58,341.67s2.79,16.51,2.56,30.95S273.7,404.79,268.09,412c-2.66,3.44-9.58,4.37-14.44,4-4.5-.38-8.83-4-9.05-10.91s1.08-33.86,1-33.4-6.38-20.12-6.38-20.12l3.85-8Z" fill="#263238"/>
      <path id="Trazado_131837" data-name="Trazado 131837" d="M246.75,366.34a39.539,39.539,0,0,1-.58,6.43,40.2,40.2,0,0,1-1.11,6.35,40.219,40.219,0,0,1,.59-6.42A41.529,41.529,0,0,1,246.75,366.34Z" fill="#455a64"/>
      <path id="Trazado_131838" data-name="Trazado 131838" d="M209.64,404a3.308,3.308,0,0,1-.33-.38,6.692,6.692,0,0,1-.73-1.26,16.85,16.85,0,0,1-1.23-5.18c-.44-4.49.12-10.73,1.53-17.43A103.311,103.311,0,0,1,213.93,363c.83-2.08,1.58-3.73,2.13-4.86.27-.57.5-1,.65-1.29a2.36,2.36,0,0,1,.26-.43,1.73,1.73,0,0,1-.16.48l-.57,1.32c-.49,1.16-1.19,2.82-2,4.92a116.8,116.8,0,0,0-4.88,16.74,65.827,65.827,0,0,0-1.67,17.29,17.71,17.71,0,0,0,1.05,5.13,19,19,0,0,0,.9,1.7Z" fill="#455a64"/>
      <g id="Grupo_58468" data-name="Grupo 58468" opacity="0.3">
        <path id="Trazado_131839" data-name="Trazado 131839" d="M217.36,355.62l-.33,1.31c12.95,6.64,28.35,7.57,42.55,4.4,6.48-1.44,13.15-4,17.12-9.29a361.357,361.357,0,0,1-59.34,3.58Z"/>
      </g>
      <path id="Trazado_131840" data-name="Trazado 131840" d="M221,273.85s-12,1.59-15.78,19.25c-3.55,16.7-5,23.94-5,23.94H222.8Z" fill="#1c8089"/>
      <path id="Trazado_131841" data-name="Trazado 131841" d="M251.88,265.15s16.26-3.33,25.18,6.13c7.37,7.8,13.48,20.58,13.48,20.58l-18,9.17Z" fill="#1c8089"/>
      <path id="Trazado_131842" data-name="Trazado 131842" d="M221,273.85l5.41-1.67s7.46,3.18,14.2,1.26c8.42-2.41,11-8.31,11-8.31l13.58.83,8.8,42.28L279.14,352c-22.19,7.88-43.53,11.23-62.91,4.18l1.72-5.78-1.72-49.66Z" fill="#1c8089"/>
      <path id="Trazado_131843" data-name="Trazado 131843" d="M217.71,343.59a2.37,2.37,0,0,1-.07-.56l-.1-1.61c-.07-1.47-.17-3.47-.29-5.91s-.22-5.48-.36-8.77c-.06-1.65-.12-3.38-.19-5.17s-.11-3.66-.29-5.55c-.69-7.57-2.27-14.31-3.17-19.22-.48-2.46-.82-4.45-1-5.83q-.15-1-.24-1.59a2.371,2.371,0,0,1,0-.56,2.492,2.492,0,0,1,.15.54c.08.42.19.94.33,1.58.29,1.43.7,3.39,1.2,5.79A166.994,166.994,0,0,1,216.93,316c.18,1.91.22,3.77.28,5.56s.11,3.53.16,5.18c.09,3.29.18,6.26.25,8.78s.09,4.44.12,5.91v1.61A2.34,2.34,0,0,1,217.71,343.59Z" fill="#263238"/>
      <path id="Trazado_131844" data-name="Trazado 131844" d="M264.06,336.76a8.483,8.483,0,0,1-1.32.74c-.86.45-2.13,1-3.72,1.75a114.307,114.307,0,0,1-12.74,4.67,131.436,131.436,0,0,1-13.18,3.26c-1.7.33-3.09.56-4,.7a10,10,0,0,1-1.5.16,8.069,8.069,0,0,1,1.47-.36l4-.86c3.38-.74,8-1.86,13.1-3.4s9.54-3.2,12.75-4.51c1.6-.66,2.89-1.21,3.77-1.6a9,9,0,0,1,1.37-.55Z" fill="#263238"/>
      <g id="Grupo_58469" data-name="Grupo 58469" opacity="0.3">
        <path id="Trazado_131845" data-name="Trazado 131845" d="M212.69,293.1l-.26.47A20.39,20.39,0,0,0,216.26,313a125.911,125.911,0,0,0-3.57-19.9Z"/>
      </g>
      <path id="Trazado_131846" data-name="Trazado 131846" d="M261.1,332.93a14.182,14.182,0,0,1-2.55,1.73,59.81,59.81,0,0,1-13.63,5.93,14.059,14.059,0,0,1-3,.69,23.69,23.69,0,0,1,2.89-1c1.79-.61,4.25-1.52,6.9-2.67s5-2.34,6.66-3.23a21.771,21.771,0,0,1,2.73-1.45Z" fill="#263238"/>
      <path id="Trazado_131847" data-name="Trazado 131847" d="M287.86,288.55s3,7.53,5.34,14c2.52,6.87,7.24,22.18-2.76,25.79-7.6,2.74-11.38-5.92-11.38-5.92l-6.12-21.52,5.66-3-1.86-5.29Z" fill="#ffbe9d"/>
      <path id="Trazado_131848" data-name="Trazado 131848" d="M277.71,295.06s-4.41-4.54-5-6.14l-2.29-9.72s.82-1.37,2.38,0a11.569,11.569,0,0,1,1.87,2.48l1.28,2.73.61-1.75-1-6.67s-.84-4.78.21-4.59,1.85,1.41,2.21,3.47l.82,4.68s.21.79.57-.77-.89-7.25-.85-8.09-.62-2.79.79-3.13,1.63,2.38,1.63,2.38l2,8.37v-4.23c0-.62-.33-2.5-.27-3.59s.55-1.82,1.19-1.95a1.16,1.16,0,0,1,1.45.57l.79,7.44a30.632,30.632,0,0,0,.32,3.63c.16.17,1-1.77,1-1.77l.18-2.55s-.4-3.42.61-3.84,1.31.2,1.31.2l.66,6.26-.47,7.48-1.51,6.86-3.47,1Z" fill="#ffbe9d"/>
      <path id="Trazado_131849" data-name="Trazado 131849" d="M282.57,322.61a1.956,1.956,0,0,1-.24-.17,4.192,4.192,0,0,1-.59-.6,8.109,8.109,0,0,1-1.38-2.75,30.091,30.091,0,0,1-.83-10,35,35,0,0,0-.79-9.93c-.58-2.5-1.17-4-1.09-4a4.251,4.251,0,0,1,.49,1,26.651,26.651,0,0,1,1,2.91,32,32,0,0,1,1,10,46,46,0,0,0,0,5.5,25.7,25.7,0,0,0,.67,4.42,9,9,0,0,0,1.19,2.74C282.31,322.3,282.6,322.57,282.57,322.61Z" fill="#eb996e"/>
      <path id="Trazado_131850" data-name="Trazado 131850" d="M282.94,289.58c-.08,0-.31-.64-1-1.5a6.53,6.53,0,0,0-3.48-2.29,8,8,0,0,0-1.21-.2,3.526,3.526,0,0,1-.63-.13,1.09,1.09,0,0,1-.33-.16,1,1,0,0,1-.23-.28,13.111,13.111,0,0,1-.9-1.81,8.862,8.862,0,0,1-.63-1.72,5.37,5.37,0,0,1,1,1.56,18.132,18.132,0,0,0,.95,1.7.43.43,0,0,0,.32.23,4.292,4.292,0,0,0,.54.11,6.837,6.837,0,0,1,1.28.19,6.37,6.37,0,0,1,3.65,2.58,3.18,3.18,0,0,1,.67,1.72Z" fill="#eb996e"/>
      <path id="Trazado_131851" data-name="Trazado 131851" d="M209.54,325a2.55,2.55,0,0,0-2.06-1.11,9.622,9.622,0,0,1-2.4-.3,19.186,19.186,0,0,1-1.73-.93,4,4,0,0,0-4.57.9l-.46-.29a2.43,2.43,0,0,0-2.46-.23,5.32,5.32,0,0,0-2,1.65,14.53,14.53,0,0,0-3.06,6.93c-.15,1-.1,2.17.74,2.69a1.86,1.86,0,0,0,2-.14,4.83,4.83,0,0,0,1.34-1.53,25.241,25.241,0,0,0,2.72-5.84,47.319,47.319,0,0,0-1.29,7.46,4.35,4.35,0,0,0,.17,1.9,1.58,1.58,0,0,0,2.79.58,4.881,4.881,0,0,0,.82-1.35,50.277,50.277,0,0,0,2.5-6.66,40.658,40.658,0,0,0-.81,7.13,2.47,2.47,0,0,0,.74,2.23,1.63,1.63,0,0,0,1.7-.07,3.36,3.36,0,0,0,1.13-1.37c1.28-2.47,1.21-5.52,2.77-7.82a19.486,19.486,0,0,0,1.26-1.76,2.25,2.25,0,0,0,.16-2.07Z" fill="#ffbe9d"/>
      <path id="Trazado_131852" data-name="Trazado 131852" d="M209.54,325a1,1,0,0,1,.19.45,2.4,2.4,0,0,1-.18,1.42,10.838,10.838,0,0,1-1.26,1.89,8.85,8.85,0,0,0-1.22,2.75c-.32,1.08-.53,2.33-.95,3.65a9.289,9.289,0,0,1-.86,2,2.51,2.51,0,0,1-1.95,1.35,1.54,1.54,0,0,1-1.23-.51,2.33,2.33,0,0,1-.5-1.24,17.38,17.38,0,0,1,0-2.6,42.094,42.094,0,0,1,.71-5.47l.47.12c-.38,1.27-.81,2.56-1.31,3.86-.25.65-.51,1.3-.8,1.95a12.29,12.29,0,0,1-1,2,2.09,2.09,0,0,1-2.13,1,2.24,2.24,0,0,1-1.52-1.84,9,9,0,0,1,0-2.32c.07-.76.18-1.53.31-2.29.26-1.49.59-2.95.92-4.37l.5.13a23.629,23.629,0,0,1-3.4,6.79,2.83,2.83,0,0,1-1.62,1.05,1.79,1.79,0,0,1-1.83-.62,2.91,2.91,0,0,1-.45-1.8,9.372,9.372,0,0,1,.26-1.72,14.55,14.55,0,0,1,2.73-5.75,6,6,0,0,1,2.2-1.95,2.63,2.63,0,0,1,2.72.26h0l.47.29h-.23a4.21,4.21,0,0,1,4.74-.92c.67.33,1.19.77,1.75,1a5.742,5.742,0,0,0,1.64.25,4,4,0,0,1,2.25.62,1.32,1.32,0,0,1,.51.64,2.5,2.5,0,0,0-.57-.56,4,4,0,0,0-2.2-.5,5.73,5.73,0,0,1-1.71-.23,19.2,19.2,0,0,1-1.79-.93,3.91,3.91,0,0,0-4.36.9l-.1.11-.12-.08-.46-.28h0a2.26,2.26,0,0,0-2.31-.17,5.73,5.73,0,0,0-2,1.84,14.25,14.25,0,0,0-2.6,5.6,9.163,9.163,0,0,0-.24,1.63,2.32,2.32,0,0,0,.36,1.49,1.28,1.28,0,0,0,1.34.44,2.42,2.42,0,0,0,1.34-.89,23.76,23.76,0,0,0,3.29-6.63l.5.14c-.33,1.43-.66,2.88-.92,4.35-.12.75-.23,1.5-.31,2.25a8.88,8.88,0,0,0,0,2.18,1.72,1.72,0,0,0,1.14,1.43,1.59,1.59,0,0,0,1.58-.79,12.068,12.068,0,0,0,.93-1.87c.28-.65.55-1.29.8-1.93.5-1.29.93-2.56,1.31-3.82l.46.12a41.073,41.073,0,0,0-.74,5.4,18,18,0,0,0-.06,2.52,1.89,1.89,0,0,0,.39,1,1.13,1.13,0,0,0,.9.38,2.12,2.12,0,0,0,1.65-1.14,8.731,8.731,0,0,0,.85-1.91c.42-1.28.66-2.53,1-3.62a9.1,9.1,0,0,1,1.31-2.8,10.7,10.7,0,0,0,1.31-1.83,2.2,2.2,0,0,0,.1-1.87Z" fill="#eb996e"/>
    </g>
  </g>
</svg>
