<svg xmlns="http://www.w3.org/2000/svg" xmlns:xlink="http://www.w3.org/1999/xlink" width="91.928" height="91.927" viewBox="0 0 91.928 91.927">
  <defs>
    <radialGradient id="radial-gradient" cx="0.076" cy="0.019" r="1.465" gradientTransform="translate(0.001)" gradientUnits="objectBoundingBox">
      <stop offset="0" stop-color="#f6f6f7"/>
      <stop offset="0.477" stop-color="#f9f9fa"/>
      <stop offset="0.715" stop-color="#fff"/>
    </radialGradient>
  </defs>
  <g id="Grupo_58822" data-name="Grupo 58822" transform="translate(4542.116 920.214)">
    <g id="Grupo_58767" data-name="Grupo 58767" transform="translate(-4759.116 -1661.548)">
      <g id="Grupo_42274" data-name="Grupo 42274" transform="translate(142 768.333)">
        <g id="Grupo_18423" data-name="Grupo 18423" transform="translate(75 -27)">
          <g id="Grupo_18421" data-name="Grupo 18421">
            <g id="Grupo_18420" data-name="Grupo 18420">
              <g id="Grupo_18419" data-name="Grupo 18419">
                <path id="Trazado_40936" data-name="Trazado 40936" d="M286.55,2191.684a45.964,45.964,0,1,1-45.963-45.962A45.963,45.963,0,0,1,286.55,2191.684Z" transform="translate(-194.623 -2145.721)" fill="#fff"/>
              </g>
            </g>
          </g>
          <path id="Trazado_40937" data-name="Trazado 40937" d="M286.23,2191.334a45.963,45.963,0,1,0-45.963,45.965A45.782,45.782,0,0,0,286.23,2191.334Z" transform="translate(-194.303 -2145.372)" fill="url(#radial-gradient)"/>
          <path id="Trazado_40938" data-name="Trazado 40938" d="M272.56,2188.562a35.084,35.084,0,1,0-35.084,35.084A34.953,34.953,0,0,0,272.56,2188.562Z" transform="translate(-191.373 -2142.446)" fill="none" stroke="#31aebb" stroke-miterlimit="10" stroke-width="4"/>
          <g id="Grupo_18422" data-name="Grupo 18422" transform="translate(8.143 25.805)">
            <path id="Trazado_40939" data-name="Trazado 40939" d="M279.682,2164.488a45.969,45.969,0,0,1-79.137,45.773,45.823,45.823,0,0,0,79.137-45.773Z" transform="translate(-200.545 -2164.488)" fill="#eceef0"/>
          </g>
        </g>
      </g>
    </g>
    <g id="Grupo_58774" data-name="Grupo 58774" transform="translate(-5606.678 -1346.864)">
      <g id="Grupo_58412" data-name="Grupo 58412" transform="translate(1084.843 454.962)">
        <path id="Trazado_131592" data-name="Trazado 131592" d="M1097.744,463.03A4.034,4.034,0,1,0,1093.71,459,4.038,4.038,0,0,0,1097.744,463.03Zm0-6.574a2.54,2.54,0,1,1-2.54,2.54A2.542,2.542,0,0,1,1097.744,456.456Z" transform="translate(-1090.552 -454.962)" fill="#26aab7"/>
        <path id="Trazado_131593" data-name="Trazado 131593" d="M1103.41,481.748a2.306,2.306,0,0,0-3.268,0l-.91.91-2.417-2.417a4.067,4.067,0,0,0-2.895-1.2h-5.2a3.88,3.88,0,0,0-3.875,3.875v6.446a2.316,2.316,0,0,0,3.16,2.219l.052,11.6a2.1,2.1,0,0,0,1.452,2.486l.054.017a2.233,2.233,0,0,0,.614.084,2.357,2.357,0,0,0,1.8-.814,2.223,2.223,0,0,0,1.794.818,2.6,2.6,0,0,0,.707-.1,2.117,2.117,0,0,0,1.477-2.492l.122-11.6v-5.516l.849.844.214.212a2.794,2.794,0,0,0,1.994.86,3.7,3.7,0,0,0,2.559-1.2l1.744-1.744a2.308,2.308,0,0,0-.021-3.286Zm-1.035,2.229-1.744,1.744c-.843.843-1.756,1.018-2.444.334l-.213-.212c-.752-.748-1.3-1.292-2.126-2.106a.747.747,0,0,0-1.271.532v7.3l-.123,11.693a.753.753,0,0,0,.028.212.619.619,0,0,1-.422.762c-.314.09-.781.022-.914-.207l-.343-11.648a.746.746,0,0,0-.744-.725h0a.747.747,0,0,0-.746.719l-.435,11.545a.82.82,0,0,1-.7.353.754.754,0,0,1-.176-.019l-.055-.017a.617.617,0,0,1-.422-.762.745.745,0,0,0,.028-.208l-.052-11.689V483.58a.747.747,0,0,0-1.495,0l0,5.846a.792.792,0,0,1-.248.571.828.828,0,0,1-1.417-.636v-6.446a2.384,2.384,0,0,1,2.381-2.381h5.2a2.583,2.583,0,0,1,1.839.762l2.945,2.945a.746.746,0,0,0,1.056,0l1.441-1.44a.839.839,0,0,1,1.413.6A.807.807,0,0,1,1102.375,483.976Z" transform="translate(-1084.843 -470.464)" fill="#26aab7"/>
      </g>
      <g id="Grupo_58413" data-name="Grupo 58413" transform="translate(1124.148 454.962)">
        <path id="Trazado_131594" data-name="Trazado 131594" d="M1199.234,463.03a4.034,4.034,0,1,1,4.034-4.034A4.039,4.039,0,0,1,1199.234,463.03Zm0-6.574a2.54,2.54,0,1,0,2.539,2.54A2.543,2.543,0,0,0,1199.234,456.456Z" transform="translate(-1195.2 -454.962)" fill="#26aab7"/>
      </g>
      <path id="Trazado_131595" data-name="Trazado 131595" d="M1196.814,479.041h-6.606a3.879,3.879,0,0,0-3.875,3.875v6.445a2.362,2.362,0,0,0,1.824,2.326,2.333,2.333,0,0,0,1.342-.113l.047,11.6a2.1,2.1,0,0,0,.213,1.491,2.065,2.065,0,0,0,1.227.991l.066.021a2.351,2.351,0,0,0,2.41-.729,2.231,2.231,0,0,0,1.8.816,2.6,2.6,0,0,0,.7-.1,2.117,2.117,0,0,0,1.478-2.492l.12-11.593a2.345,2.345,0,0,0,.814.152,2.306,2.306,0,0,0,2.309-2.377v-6.445A3.884,3.884,0,0,0,1196.814,479.041Zm2.376,10.32a.829.829,0,0,1-1.42.635.8.8,0,0,1-.227-.4v0a.742.742,0,0,0,.02-.166v-5.847a.747.747,0,0,0-1.494,0v5.846a.734.734,0,0,0,.02.166c0,.008,0,.016-.006.024a.692.692,0,0,0-.01.092c0,.017-.005.033-.005.051l-.121,13.5a.78.78,0,0,0,.028.212.618.618,0,0,1-.418.761c-.329.091-.788.022-.921-.208l-.341-11.648a.747.747,0,0,0-1.494-.006l-.434,11.545a.833.833,0,0,1-.865.339l-.067-.022a.617.617,0,0,1-.422-.762.758.758,0,0,0,.028-.208l-.053-11.689v-2.147h0v-5.847a.747.747,0,0,0-1.494,0v5.846h0a1.023,1.023,0,0,1-.018.168.814.814,0,0,1-.228.4.829.829,0,0,1-1.419-.636v-6.445a2.384,2.384,0,0,1,2.381-2.381h6.6a2.387,2.387,0,0,1,2.379,2.381Z" transform="translate(-65.343 -15.503)" fill="#26aab7"/>
      <path id="Trazado_131596" data-name="Trazado 131596" d="M1151.483,477.108h-2.166v-.94a.747.747,0,0,0-.747-.747H1146.4v-1.255a.747.747,0,0,0-.747-.747h-2.913a.747.747,0,0,0-.747.747v7.9a.747.747,0,0,0,.747.747h8.739a.747.747,0,0,0,.747-.747v-4.213A.747.747,0,0,0,1151.483,477.108Zm-7.992-2.195h1.419v6.407h-1.419Zm2.913,2h1.419v4.406H1146.4Zm4.332,4.406h-1.419V478.6h1.419Z" transform="translate(-36.798 -11.883)" fill="#26aab7"/>
      <path id="Trazado_131597" data-name="Trazado 131597" d="M1148.15,464.191h-16.994a.747.747,0,0,0-.747.747v5.288a.747.747,0,0,0,1.495,0v-4.541h15.5v12.458h-15.5a.747.747,0,0,0-1.495,0v.747a.747.747,0,0,0,.747.747h5.948l-6.039,15.546a.747.747,0,1,0,1.393.541l6.25-16.087h1.891l6.249,16.087a.747.747,0,1,0,1.393-.541l-6.039-15.546h5.948a.747.747,0,0,0,.747-.747V464.938A.747.747,0,0,0,1148.15,464.191Z" transform="translate(-29.337 -5.942)" fill="#26aab7"/>
    </g>
  </g>
</svg>
