<svg xmlns="http://www.w3.org/2000/svg" xmlns:xlink="http://www.w3.org/1999/xlink" width="91.928" height="91.927" viewBox="0 0 91.928 91.927">
  <defs>
    <radialGradient id="radial-gradient" cx="0.076" cy="0.019" r="1.465" gradientTransform="translate(0.001)" gradientUnits="objectBoundingBox">
      <stop offset="0" stop-color="#f6f6f7"/>
      <stop offset="0.477" stop-color="#f9f9fa"/>
      <stop offset="0.715" stop-color="#fff"/>
    </radialGradient>
  </defs>
  <g id="Grupo_58823" data-name="Grupo 58823" transform="translate(4542.116 733.214)">
    <g id="Grupo_58776" data-name="Grupo 58776" transform="translate(-4759.116 -1474.548)">
      <g id="Grupo_42274" data-name="Grupo 42274" transform="translate(142 768.333)">
        <g id="Grupo_18423" data-name="Grupo 18423" transform="translate(75 -27)">
          <g id="Grupo_18421" data-name="Grupo 18421">
            <g id="Grupo_18420" data-name="Grupo 18420">
              <g id="Grupo_18419" data-name="Grupo 18419">
                <path id="Trazado_40936" data-name="Trazado 40936" d="M286.55,2191.684a45.964,45.964,0,1,1-45.963-45.962A45.963,45.963,0,0,1,286.55,2191.684Z" transform="translate(-194.623 -2145.721)" fill="#fff"/>
              </g>
            </g>
          </g>
          <path id="Trazado_40937" data-name="Trazado 40937" d="M286.23,2191.334a45.963,45.963,0,1,0-45.963,45.965A45.782,45.782,0,0,0,286.23,2191.334Z" transform="translate(-194.303 -2145.372)" fill="url(#radial-gradient)"/>
          <path id="Trazado_40938" data-name="Trazado 40938" d="M272.56,2188.562a35.084,35.084,0,1,0-35.084,35.084A34.953,34.953,0,0,0,272.56,2188.562Z" transform="translate(-191.373 -2142.446)" fill="none" stroke="#31aebb" stroke-miterlimit="10" stroke-width="4"/>
          <g id="Grupo_18422" data-name="Grupo 18422" transform="translate(8.143 25.805)">
            <path id="Trazado_40939" data-name="Trazado 40939" d="M279.682,2164.488a45.969,45.969,0,0,1-79.137,45.773,45.823,45.823,0,0,0,79.137-45.773Z" transform="translate(-200.545 -2164.488)" fill="#eceef0"/>
          </g>
        </g>
      </g>
    </g>
    <g id="Grupo_58777" data-name="Grupo 58777" transform="translate(-5218.82 -1533.518)">
      <g id="Grupo_58415" data-name="Grupo 58415" transform="translate(730.826 835.934)">
        <path id="Trazado_131598" data-name="Trazado 131598" d="M801.045,886.819l-2.592-10.685a12.612,12.612,0,0,0,.084-1.3V867.3a2.919,2.919,0,0,0-2.621-2.894,3.679,3.679,0,1,0-.825.024,2.909,2.909,0,0,0-2.243,1.875l-2.574,2.575h-3.907a.711.711,0,0,0-.135.012,2.116,2.116,0,0,0-1.775,2.048,1.861,1.861,0,0,0,1.91,1.908h5.239a.747.747,0,0,0,.529-.219l.535-.535v4.575l-1.521,9.943a2.351,2.351,0,0,0,1.815,2.786,1.933,1.933,0,0,0,.421.048c1.171,0,1.6-1.115,1.811-1.652a23.476,23.476,0,0,0,.858-3.4l1.012,3.42a2.17,2.17,0,0,0,2.03,1.593,1.866,1.866,0,0,0,.559-.084A2.175,2.175,0,0,0,801.045,886.819Zm-7.832-26.057a2.19,2.19,0,1,1,2.19,2.19A2.193,2.193,0,0,1,793.213,860.762Zm.588,26.493c-.18.462-.32.7-.417.7a.645.645,0,0,1-.127-.017.862.862,0,0,1-.639-1.05l1.538-10.044a.76.76,0,0,0,.009-.114V870.29a.748.748,0,0,0-1.276-.529l-1.592,1.593h-4.927a.37.37,0,0,1-.418-.413.608.608,0,0,1,.5-.565h4.131a.747.747,0,0,0,.528-.219l2.921-2.921a.75.75,0,0,0,.192-.328,1.439,1.439,0,0,1,2.817.394v7.527a10.779,10.779,0,0,1-.069,1.1.738.738,0,0,0-.032.26,4.549,4.549,0,0,1-.729,2.2,6.457,6.457,0,0,0-1,2.7c0,.006,0,.012,0,.018-.143.63-.288,1.347-.451,2.174A29.292,29.292,0,0,1,793.8,887.255Zm5.409.646a.65.65,0,0,1-.707-.5l-1.81-6.113a6.411,6.411,0,0,1,.611-1.885,2.713,2.713,0,0,0,.306-.409l1.978,8.154A.7.7,0,0,1,799.21,887.9Z" transform="translate(-784.458 -857.077)" fill="#26aab7"/>
        <path id="Trazado_131599" data-name="Trazado 131599" d="M789.993,878.433l2.5,1.592a.748.748,0,0,0,.8-1.261l-2.484-1.58c-.19-.133-.383-.339-.281-.6.144-.059.776-.019,3.442,1.97a.748.748,0,0,0,.894-1.2c-2.818-2.1-4.443-2.947-5.5-1.728a.756.756,0,0,0-.072.1A1.97,1.97,0,0,0,789.993,878.433Z" transform="translate(-787.383 -868.657)" fill="#26aab7"/>
      </g>
      <g id="Grupo_58416" data-name="Grupo 58416" transform="translate(701.132 839.809)">
        <path id="Trazado_131600" data-name="Trazado 131600" d="M719.583,883.521l-3.154-2.3-.56-3.6a2.911,2.911,0,0,0-.743-2.872,3.646,3.646,0,0,0,1.949.573h0a3.689,3.689,0,1,0-2.552-1.034,2.881,2.881,0,0,0-1.479-.414,2.926,2.926,0,0,0-2.356,1.195l-4.445,6.085c-.2.271-1.909,2.7-1.7,4.419a18.443,18.443,0,0,1-1.579,4,29.819,29.819,0,0,0-1.666,4.015c-.147.548-.535,2,.822,2.6l.06.029a2.341,2.341,0,0,0,3.065-1.151l2.762-5.32,3.486,5.719a2.219,2.219,0,0,0,1.844.987,1.985,1.985,0,0,0,.907-.214,1.818,1.818,0,0,0,.452-.334,2.173,2.173,0,0,0,.314-2.557l-4.453-8.144,2.045-2.8.116.748a.748.748,0,0,0,.3.489l4.233,3.092a2.136,2.136,0,0,0,1.183.382,1.82,1.82,0,0,0,1.483-.8,2.115,2.115,0,0,0-.226-2.7A.734.734,0,0,0,719.583,883.521Zm-4.275-13.178a2.2,2.2,0,0,1,1.771-.9,2.19,2.19,0,0,1,1.766,3.482,2.2,2.2,0,0,1-1.77.9h0a2.191,2.191,0,0,1-1.766-3.483Zm-1.672,24.5a.356.356,0,0,1-.08.063.707.707,0,0,1-.8-.242l-3.945-6.473.815-1.57,4.071,7.446A.687.687,0,0,1,713.635,894.841Zm5.068-9.412c-.135.184-.229.185-.275.185h0a.674.674,0,0,1-.3-.1l-3.98-2.908-.347-2.225a.747.747,0,0,0-1.342-.326l-3.8,5.2a.817.817,0,0,0-.06.1l-1.295,2.494a.713.713,0,0,0-.039.076l-3.368,6.488a.849.849,0,0,1-.774.5.829.829,0,0,1-.309-.057l-.061-.029c-.12-.052-.215-.094-.011-.856a29.2,29.2,0,0,1,1.576-3.77c1.128-2.421,1.814-3.948,1.708-4.812s.821-2.522,1.426-3.361l4.443-6.082a1.408,1.408,0,0,1,1.149-.582,1.447,1.447,0,0,1,.87.3,1.408,1.408,0,0,1,.488,1.627.753.753,0,0,0-.039.378l.636,4.081a.747.747,0,0,0,.3.489l3.335,2.436A.609.609,0,0,1,718.7,885.429Z" transform="translate(-701.132 -867.95)" fill="#26aab7"/>
        <path id="Trazado_131601" data-name="Trazado 131601" d="M744.07,895.381a.748.748,0,0,0,.008,1.495h.008c3.312-.034,3.86.305,3.941.44-.068.266-.338.312-.556.316l-2.959-.19a.747.747,0,1,0-.1,1.492l2.972.191.095,0a1.951,1.951,0,0,0,2.048-1.775.71.71,0,0,0,0-.123C749.4,895.621,747.6,895.345,744.07,895.381Z" transform="translate(-728.292 -885.604)" fill="#26aab7"/>
      </g>
      <g id="Grupo_58417" data-name="Grupo 58417" transform="translate(720.872 837.119)">
        <path id="Trazado_131602" data-name="Trazado 131602" d="M765.379,872.94h-7.5a1.353,1.353,0,0,1-1.352-1.352v-9.835a1.354,1.354,0,0,1,1.352-1.352h9.835a1.354,1.354,0,0,1,1.352,1.352v2.913a.747.747,0,1,1-1.495,0V861.9H758.02v9.548h7.359a.748.748,0,0,1,0,1.5Z" transform="translate(-756.525 -860.402)" fill="#26aab7"/>
      </g>
      <g id="Grupo_58418" data-name="Grupo 58418" transform="translate(717.537 849.957)">
        <path id="Trazado_131603" data-name="Trazado 131603" d="M758.452,908.972h-10.03a1.255,1.255,0,0,1-1.254-1.254V906.6a.747.747,0,1,1,1.495,0v.88h9.548v-9.553h-5.355a.747.747,0,0,1,0-1.495h5.6a1.256,1.256,0,0,1,1.254,1.254v10.034A1.256,1.256,0,0,1,758.452,908.972Z" transform="translate(-747.168 -896.429)" fill="#26aab7"/>
      </g>
      <g id="Grupo_58419" data-name="Grupo 58419" transform="translate(717.536 824.228)">
        <path id="Trazado_131604" data-name="Trazado 131604" d="M758.295,836.767h-9.719a1.412,1.412,0,0,1-1.409-1.41v-9.719a1.411,1.411,0,0,1,1.409-1.41h9.719a1.412,1.412,0,0,1,1.41,1.41v9.719A1.412,1.412,0,0,1,758.295,836.767Zm-9.633-1.5h9.548v-9.549h-9.548Z" transform="translate(-747.166 -824.228)" fill="#26aab7"/>
      </g>
    </g>
  </g>
</svg>
