<svg xmlns="http://www.w3.org/2000/svg" xmlns:xlink="http://www.w3.org/1999/xlink" width="91.928" height="91.927" viewBox="0 0 91.928 91.927">
  <defs>
    <radialGradient id="radial-gradient" cx="0.076" cy="0.019" r="1.465" gradientTransform="translate(0.001)" gradientUnits="objectBoundingBox">
      <stop offset="0" stop-color="#f6f6f7"/>
      <stop offset="0.477" stop-color="#f9f9fa"/>
      <stop offset="0.715" stop-color="#fff"/>
    </radialGradient>
  </defs>
  <g id="Grupo_58712" data-name="Grupo 58712" transform="translate(12710.428 5667.34)">
    <g id="Grupo_58615" data-name="Grupo 58615" transform="translate(-12927.428 -6408.674)">
      <g id="Grupo_42274" data-name="Grupo 42274" transform="translate(142 768.333)">
        <g id="Grupo_18423" data-name="Grupo 18423" transform="translate(75 -27)">
          <g id="Grupo_18421" data-name="Grupo 18421">
            <g id="Grupo_18420" data-name="Grupo 18420">
              <g id="Grupo_18419" data-name="Grupo 18419">
                <path id="Trazado_40936" data-name="Trazado 40936" d="M286.55,2191.684a45.964,45.964,0,1,1-45.963-45.962A45.963,45.963,0,0,1,286.55,2191.684Z" transform="translate(-194.623 -2145.721)" fill="#fff"/>
              </g>
            </g>
          </g>
          <path id="Trazado_40937" data-name="Trazado 40937" d="M286.23,2191.334a45.963,45.963,0,1,0-45.963,45.965A45.782,45.782,0,0,0,286.23,2191.334Z" transform="translate(-194.303 -2145.372)" fill="url(#radial-gradient)"/>
          <path id="Trazado_40938" data-name="Trazado 40938" d="M272.56,2188.562a35.084,35.084,0,1,0-35.084,35.084A34.953,34.953,0,0,0,272.56,2188.562Z" transform="translate(-191.373 -2142.446)" fill="none" stroke="#7d70b0" stroke-miterlimit="10" stroke-width="4"/>
          <g id="Grupo_18422" data-name="Grupo 18422" transform="translate(8.143 25.805)">
            <path id="Trazado_40939" data-name="Trazado 40939" d="M279.682,2164.488a45.969,45.969,0,0,1-79.137,45.773,45.823,45.823,0,0,0,79.137-45.773Z" transform="translate(-200.545 -2164.488)" fill="#eceef0"/>
          </g>
        </g>
      </g>
    </g>
    <g id="Grupo_58618" data-name="Grupo 58618" transform="translate(-13208.498 -6129.899)">
      <g id="Grupo_12682" data-name="Grupo 12682" transform="translate(523.702 487.928)">
        <g id="Grupo_12681" data-name="Grupo 12681" transform="translate(1.855 2.497)">
          <path id="Trazado_17731" data-name="Trazado 17731" d="M570.23,514.81a3.793,3.793,0,0,0-3.687,4.113A3.927,3.927,0,0,0,570.23,514.81Z" transform="translate(-543.952 -502.879)" fill="#7d6eb2"/>
          <path id="Trazado_17732" data-name="Trazado 17732" d="M574.291,523.336a3.136,3.136,0,0,0-4.162,1.879A3.247,3.247,0,0,0,574.291,523.336Z" transform="translate(-545.285 -505.962)" fill="#7d6eb2"/>
          <path id="Trazado_17733" data-name="Trazado 17733" d="M535.125,525.53a3.136,3.136,0,0,0-4.523.627A3.246,3.246,0,0,0,535.125,525.53Z" transform="translate(-530.602 -506.596)" fill="#7d6eb2"/>
          <path id="Trazado_17734" data-name="Trazado 17734" d="M542.325,528a3.136,3.136,0,0,0-4.566.046A3.247,3.247,0,0,0,542.325,528Z" transform="translate(-533.26 -507.411)" fill="#7d6eb2"/>
          <path id="Trazado_17735" data-name="Trazado 17735" d="M541.344,504.612a3.135,3.135,0,0,0-.476,4.541A3.247,3.247,0,0,0,541.344,504.612Z" transform="translate(-534.122 -499.09)" fill="#7d6eb2"/>
          <path id="Trazado_17736" data-name="Trazado 17736" d="M554.113,497.1a3.136,3.136,0,0,0-4.551.382A3.247,3.247,0,0,0,554.113,497.1Z" transform="translate(-537.645 -495.992)" fill="#7d6eb2"/>
          <path id="Trazado_17737" data-name="Trazado 17737" d="M540.138,535.037a3.478,3.478,0,0,0-4.07,3.015A3.6,3.6,0,0,0,540.138,535.037Z" transform="translate(-532.632 -510.379)" fill="#7d6eb2"/>
          <path id="Trazado_17738" data-name="Trazado 17738" d="M580.5,505.246a3.794,3.794,0,0,0-.748,5.473A3.928,3.928,0,0,0,580.5,505.246Z" transform="translate(-548.534 -499.326)" fill="#7d6eb2"/>
          <path id="Trazado_17739" data-name="Trazado 17739" d="M569.3,510.2a3.793,3.793,0,0,0-5.212,1.831A3.928,3.928,0,0,0,569.3,510.2Z" transform="translate(-543.042 -501.011)" fill="#7d6eb2"/>
          <path id="Trazado_17740" data-name="Trazado 17740" d="M570.978,499.329a3.794,3.794,0,0,0-2.08,5.118A3.928,3.928,0,0,0,570.978,499.329Z" transform="translate(-544.695 -497.128)" fill="#7d6eb2"/>
          <path id="Trazado_17741" data-name="Trazado 17741" d="M562.194,516.511a3.793,3.793,0,0,0-1.575,5.295A3.928,3.928,0,0,0,562.194,516.511Z" transform="translate(-541.552 -503.51)" fill="#7d6eb2"/>
          <path id="Trazado_17742" data-name="Trazado 17742" d="M547.812,533.657a3.793,3.793,0,0,0,5.153-1.99A3.928,3.928,0,0,0,547.812,533.657Z" transform="translate(-536.995 -509.023)" fill="#7d6eb2"/>
          <path id="Trazado_17743" data-name="Trazado 17743" d="M563.507,531.49a3.793,3.793,0,0,0,4.28,3.492A3.928,3.928,0,0,0,563.507,531.49Z" transform="translate(-542.825 -509.07)" fill="#7d6eb2"/>
          <path id="Trazado_17744" data-name="Trazado 17744" d="M572.44,532.783a3.793,3.793,0,0,0,2.938,4.678A3.928,3.928,0,0,0,572.44,532.783Z" transform="translate(-546.107 -509.555)" fill="#7d6eb2"/>
          <path id="Trazado_17745" data-name="Trazado 17745" d="M550.344,541.332a3.793,3.793,0,0,0,2.61-4.868A3.927,3.927,0,0,0,550.344,541.332Z" transform="translate(-537.871 -510.922)" fill="#7d6eb2"/>
          <path id="Trazado_17746" data-name="Trazado 17746" d="M579.92,527.832a3.794,3.794,0,0,0,5.085-2.157A3.928,3.928,0,0,0,579.92,527.832Z" transform="translate(-548.922 -506.817)" fill="#7d6eb2"/>
          <path id="Trazado_17747" data-name="Trazado 17747" d="M581.885,519.873a3.793,3.793,0,0,0,3.85-3.962A3.929,3.929,0,0,0,581.885,519.873Z" transform="translate(-549.652 -503.287)" fill="#7d6eb2"/>
          <path id="Trazado_17748" data-name="Trazado 17748" d="M547.082,522.171a3.793,3.793,0,0,0,5.354,1.36A3.928,3.928,0,0,0,547.082,522.171Z" transform="translate(-536.724 -505.398)" fill="#7d6eb2"/>
          <path id="Trazado_17749" data-name="Trazado 17749" d="M542.651,514.052a3.793,3.793,0,0,0,4.209,3.578A3.928,3.928,0,0,0,542.651,514.052Z" transform="translate(-535.078 -502.595)" fill="#7d6eb2"/>
          <path id="Trazado_17750" data-name="Trazado 17750" d="M533.691,512.479a3.793,3.793,0,0,0,2.195,5.069A3.928,3.928,0,0,0,533.691,512.479Z" transform="translate(-531.639 -502.013)" fill="#7d6eb2"/>
          <path id="Trazado_17751" data-name="Trazado 17751" d="M551.512,507.723a3.793,3.793,0,0,0,2.629,4.858A3.928,3.928,0,0,0,551.512,507.723Z" transform="translate(-538.306 -500.246)" fill="#7d6eb2"/>
          <path id="Trazado_17752" data-name="Trazado 17752" d="M546.64,501.412a3.793,3.793,0,0,0,4.831,2.679A3.928,3.928,0,0,0,546.64,501.412Z" transform="translate(-536.56 -497.844)" fill="#7d6eb2"/>
          <path id="Trazado_17753" data-name="Trazado 17753" d="M560.044,495.827a3.793,3.793,0,0,0,1.377,5.35A3.928,3.928,0,0,0,560.044,495.827Z" transform="translate(-541.318 -495.827)" fill="#7d6eb2"/>
        </g>
        <path id="Trazado_17754" data-name="Trazado 17754" d="M568.087,515.211a20.437,20.437,0,0,0,.226-3.025,20.2,20.2,0,0,0-2.817-10.307.747.747,0,0,0-.106-.184,20.471,20.471,0,0,0-8.046-7.547.735.735,0,0,0-.2-.1,20.283,20.283,0,0,0-23.547,3.791.725.725,0,0,0-.165.172,20.32,20.32,0,0,0-5.2,9.352.74.74,0,0,0-.038.165,20.247,20.247,0,0,0-.319,7.686.738.738,0,0,0,.1.554,20.314,20.314,0,0,0,35.987,8.969.746.746,0,0,0,.144-.183,20.241,20.241,0,0,0,3.886-8.785A.737.737,0,0,0,568.087,515.211Zm-1.471-.2c-3.065,2.411-5.806,2.167-9.223.667a6.425,6.425,0,0,0,3.964-3.557.742.742,0,1,0-1.358-.6,5.375,5.375,0,0,1-5.2,3.054,9.267,9.267,0,0,0-4.282-.236,14.456,14.456,0,0,1,5.16-2.859c.2-.07.4-.144.6-.217a.734.734,0,0,0,.171-.062c4.36-1.629,7.217-4.034,8.524-7.17a18.735,18.735,0,0,1,1.854,8.148A18.925,18.925,0,0,1,566.615,515.015Zm-.448,2.107a18.77,18.77,0,0,1-2.211,5.045,9.1,9.1,0,0,0-2.321-3.845c.077,0,.153.011.231.011A8.392,8.392,0,0,0,566.168,517.122Zm-17.393,7.588-.013.028a.731.731,0,0,0-.048.439,11.406,11.406,0,0,1-.763,2.755,12.7,12.7,0,0,1-.043-9.719A13.627,13.627,0,0,1,548.775,524.71Zm1.048-20.924a10.264,10.264,0,0,0,3.031-9.805,18.733,18.733,0,0,1,3.474,1.313c.569,1.492,3.19,9.172-.682,14.625-.148.053-.292.109-.444.16-4.38,1.486-6.365,3.623-7.215,4.92C546.966,512.376,546.34,506.939,549.823,503.786ZM564,502.274c-.726,2.806-2.766,5.051-6.09,6.693a15.919,15.919,0,0,0,1.135-8.834,24.355,24.355,0,0,0-.784-3.73A18.992,18.992,0,0,1,564,502.274Zm-12.754-8.645a9.233,9.233,0,0,1-1.8,8.432,7.175,7.175,0,0,0-5.272-5.053.742.742,0,0,0-.335,1.446c.171.041,4.112,1.02,4.3,4.93a9.8,9.8,0,0,0-2.2,4.595c-5.092-1.755-6.459-7.354-6.473-7.412a.742.742,0,0,0-1.447.334c.064.279,1.6,6.671,7.712,8.575a14.341,14.341,0,0,0,.509,5.045,9.541,9.541,0,0,0-4.161-.164c-7.213-3.082-7.342-13.714-7.306-15.6a18.765,18.765,0,0,1,16.471-5.128Zm-22.111,18.557a18.9,18.9,0,0,1,.207-2.789,9.609,9.609,0,0,0,7.282,3.322c.253,0,.515-.014.78-.033a11.3,11.3,0,0,0,2.672,2.3c-.107.048-.214.1-.322.15-3.987,1.962-7,2.565-10.407-.118A18.925,18.925,0,0,1,529.136,512.186Zm4.9-6.541a18.209,18.209,0,0,0,2.29,5.581,8.343,8.343,0,0,1-6.6-3.747,18.8,18.8,0,0,1,3.582-7.106A28.026,28.026,0,0,0,534.041,505.645ZM529.8,517.122a8.389,8.389,0,0,0,4.3,1.21,11.487,11.487,0,0,0,4.273-.946,7.253,7.253,0,0,0-.86,4.5.741.741,0,0,0,.736.66.75.75,0,0,0,.084,0,.743.743,0,0,0,.655-.821,5.7,5.7,0,0,1,2.789-5.763,8.262,8.262,0,0,1,5.177.367c.043.082.087.161.131.238a13.848,13.848,0,0,0,0,12.987,8.5,8.5,0,0,1-1.15,1.373A18.89,18.89,0,0,1,529.8,517.122Zm18.038,13.906.121-.155c.041.053.085.1.127.156l-.1,0C547.933,531.032,547.884,531.028,547.834,531.028Zm2.16-.1a8.67,8.67,0,0,1-1.17-1.391,12.577,12.577,0,0,0,1.4-4.4,4.487,4.487,0,0,1,4.456-2.114.742.742,0,0,0,.123-1.48,6.1,6.1,0,0,0-4.458,1.238,14.547,14.547,0,0,0-1.557-6.2c.04-.073.08-.146.116-.217a8.071,8.071,0,0,1,6.644.1,23.792,23.792,0,0,0,3.076,1.3c.625.4,4.034,2.733,4.09,6.143A18.833,18.833,0,0,1,549.995,530.923Z" transform="translate(-527.651 -491.855)" fill="#7d6eb2"/>
      </g>
      <g id="Grupo_12689" data-name="Grupo 12689" transform="translate(517.02 481.284)">
        <g id="Grupo_12685" data-name="Grupo 12685">
          <g id="Grupo_12683" data-name="Grupo 12683">
            <path id="Trazado_17755" data-name="Trazado 17755" d="M519.584,526.973l.054.634,1.752-.149a.274.274,0,0,1,.308.246.279.279,0,0,1-.262.295l-3.925.334a.277.277,0,0,1-.3-.247l-.126-1.4a.279.279,0,0,1,.555-.055l.1,1.14,1.34-.114-.055-.641a.279.279,0,0,1,.556-.047Z" transform="translate(-517.043 -498.036)" fill="#7d6eb2"/>
            <path id="Trazado_17756" data-name="Trazado 17756" d="M521.615,521.661l0,.071a1.044,1.044,0,0,1-1.184.884l-3.142-.162a.278.278,0,0,1-.265-.285.269.269,0,0,1,.292-.257l3.192.165c.18-.005.566-.007.586-.385.023-.436-.307-.439-.477-.469l-3.256-.168a.277.277,0,0,1-.265-.286.28.28,0,0,1,.293-.271l3.207.165a1.633,1.633,0,0,1,.585.173A.9.9,0,0,1,521.615,521.661Z" transform="translate(-517.02 -495.851)" fill="#7d6eb2"/>
            <path id="Trazado_17757" data-name="Trazado 17757" d="M522.295,515.671l-.018.055a.241.241,0,0,1-.2.158l-2.965.492,2.681.524a.25.25,0,0,1,.2.3.243.243,0,0,1-.292.191l-3.882-.755a.254.254,0,0,1-.207-.251l.006-.064a.242.242,0,0,1,.206-.237l2.957-.486-2.663-.506a.25.25,0,1,1,.094-.491l3.9.737a.236.236,0,0,1,.165.126.217.217,0,0,1,.033.167A.086.086,0,0,1,522.295,515.671Z" transform="translate(-517.24 -493.658)" fill="#7d6eb2"/>
            <path id="Trazado_17758" data-name="Trazado 17758" d="M523.167,512.276a.268.268,0,0,1-.315.126l-3.75-1.28a.264.264,0,0,1-.174-.309c0-.007.014-.063.044-.151a1.5,1.5,0,0,1,.778-.928,1.886,1.886,0,0,1,1.2-.043c.194.052.449.123.733.221.128.043.27.092.409.154a2.154,2.154,0,0,1,1.106.832,1.344,1.344,0,0,1,.071,1.143A1.112,1.112,0,0,1,523.167,512.276Zm-.385-.464a.826.826,0,0,0-.031-.638,1.662,1.662,0,0,0-.855-.617c-.133-.053-.259-.1-.381-.146-.271-.092-.505-.157-.693-.206a1.442,1.442,0,0,0-.859.016.931.931,0,0,0-.436.479Z" transform="translate(-517.727 -491.807)" fill="#7d6eb2"/>
            <path id="Trazado_17759" data-name="Trazado 17759" d="M521.567,505.207a.268.268,0,0,1-.075-.343l.084-.166a.274.274,0,0,1,.314-.113l3.945,1.074a.258.258,0,0,1,.181.324.106.106,0,0,1-.016.048.254.254,0,0,1-.3.136l-.83-.228-.419.83.682.521a.254.254,0,0,1,.04.365.248.248,0,0,1-.365.04Zm2.461,1.237.326-.645-1.9-.543Z" transform="translate(-518.669 -489.935)" fill="#7d6eb2"/>
            <path id="Trazado_17760" data-name="Trazado 17760" d="M528.348,502.067a.934.934,0,0,1-.741.391,3.43,3.43,0,0,1-1.758-.715c-1.463-.964-1.61-1.78-1.315-2.28a1.049,1.049,0,0,1,.071-.116.987.987,0,0,1,.933-.415.294.294,0,0,1,.256.309.232.232,0,0,1-.286.211,1.977,1.977,0,0,0-.214.008.466.466,0,0,0-.27.188l-.036.053c-.126.295-.218.615.986,1.5a1.8,1.8,0,0,0,.163.1,2.846,2.846,0,0,0,1.446.613.56.56,0,0,0,.37-.17c.01,0,0,.006.008-.012.231-.283-.145-.744-.145-.744a.265.265,0,0,1,.018-.388.273.273,0,0,1,.386.033,1.127,1.127,0,0,1,.175,1.366Z" transform="translate(-519.765 -487.837)" fill="#7d6eb2"/>
            <path id="Trazado_17761" data-name="Trazado 17761" d="M530.942,498.363a.247.247,0,0,1-.358.03.257.257,0,0,1,0-.365l.261-.283-2.571-2.391-.272.294a.252.252,0,0,1-.363.025.246.246,0,0,1,.006-.355l.9-.972a.246.246,0,0,1,.353-.035.252.252,0,0,1,0,.364l-.266.289,2.576,2.386.266-.289a.259.259,0,0,1,.368-.03.248.248,0,0,1-.005.365Z" transform="translate(-520.936 -486.101)" fill="#7d6eb2"/>
            <path id="Trazado_17762" data-name="Trazado 17762" d="M531.459,489.136a.266.266,0,0,1,.345-.154.248.248,0,0,1,.15.339l-.319.873a.269.269,0,0,1-.5-.186Zm3.572,4.681-.038.032c-.643.446-1.443.048-2.31-1.007a.467.467,0,0,1-.063-.077,4.146,4.146,0,0,1-.782-1.311,1.047,1.047,0,0,1,.209-1.153.312.312,0,0,1,.04-.042l.006,0c.767-.519,1.647.2,2.414,1.089l.018.022a3.767,3.767,0,0,1,.76,1.319A1.03,1.03,0,0,1,535.031,493.817Zm-2.606-3.123c-.14.133-.16.288-.07.613a3.86,3.86,0,0,0,.69,1.108l.045.055c.889,1.047,1.35,1.1,1.555.933l.027-.023c.127-.1.167-.248.081-.566a3.3,3.3,0,0,0-.649-1.1l-.032-.038a3.712,3.712,0,0,0-1.013-.916c-.318-.173-.512-.162-.618-.075Z" transform="translate(-522.257 -484.136)" fill="#7d6eb2"/>
            <path id="Trazado_17763" data-name="Trazado 17763" d="M540.08,490.843l-.053.024a.241.241,0,0,1-.25-.039l-2.365-1.855,1.424,2.332a.25.25,0,0,1-.088.348.243.243,0,0,1-.338-.086l-2.064-3.374a.254.254,0,0,1,.046-.322l.051-.04a.242.242,0,0,1,.314-.008l2.355,1.852-1.425-2.306a.25.25,0,1,1,.427-.262l2.09,3.375a.235.235,0,0,1,.018.207.219.219,0,0,1-.1.137A.089.089,0,0,1,540.08,490.843Z" transform="translate(-524.185 -483.403)" fill="#7d6eb2"/>
            <path id="Trazado_17764" data-name="Trazado 17764" d="M548.258,487.436a.232.232,0,0,1-.126-.158l-.564-2.024-.008-.028-.484-1.735a.257.257,0,0,1,.026-.2.249.249,0,0,1,.158-.126l.421-.117a1.13,1.13,0,0,1,1.324.625,2,2,0,0,1,.061.191,1.145,1.145,0,0,1-.125.963,1.335,1.335,0,0,1,.755.925l.008.028a1.193,1.193,0,0,1-.752,1.538c-.136.045-.494.145-.494.145A.259.259,0,0,1,548.258,487.436Zm-.263-2.621.322-.1a.248.248,0,0,0,.038-.026.984.984,0,0,0,.126-.131.606.606,0,0,0,.075-.556,1.155,1.155,0,0,0-.045-.136.613.613,0,0,0-.688-.313l-.165.047Zm.574,2.06a1.793,1.793,0,0,0,.2-.065c.229-.109.569-.248.418-.9l-.006-.021a.741.741,0,0,0-.5-.588.711.711,0,0,0-.341-.024.192.192,0,0,1-.066,0l-.143.047Z" transform="translate(-528.181 -481.925)" fill="#7d6eb2"/>
            <path id="Trazado_17765" data-name="Trazado 17765" d="M554.318,486.188l-.05.007c-.781.04-1.251-.72-1.433-2.074a.451.451,0,0,1-.013-.1,4.122,4.122,0,0,1,.026-1.527,1.045,1.045,0,0,1,.785-.871.245.245,0,0,1,.056-.015h.007c.926-.038,1.294,1.039,1.479,2.2l0,.028a3.776,3.776,0,0,1-.048,1.522A1.031,1.031,0,0,1,554.318,486.188Zm-.569-4.031c-.19.04-.289.162-.383.485a3.874,3.874,0,0,0,0,1.306l.009.071c.2,1.358.568,1.649.83,1.614l.036-.005c.163-.022.272-.123.366-.439a3.288,3.288,0,0,0,.031-1.282l-.007-.05a3.725,3.725,0,0,0-.378-1.314c-.18-.315-.351-.407-.485-.389Z" transform="translate(-530.298 -481.404)" fill="#7d6eb2"/>
            <path id="Trazado_17766" data-name="Trazado 17766" d="M559.5,485.827a1.252,1.252,0,0,1-1-.66.267.267,0,0,1,.106-.363.261.261,0,0,1,.356.106.763.763,0,0,0,.545.388.554.554,0,0,0,.36-.145.591.591,0,0,0,.156-.4c0-.043-.006-.072-.006-.093a2.812,2.812,0,0,0-.621-.983,2.539,2.539,0,0,1-.778-1.507.888.888,0,0,1,.951-.887,1.007,1.007,0,0,1,.9.716.265.265,0,0,1-.141.348.259.259,0,0,1-.348-.141c-.1-.224-.187-.411-.422-.415a.373.373,0,0,0-.414.351c-.042.386.422.88.682,1.234a3.078,3.078,0,0,1,.71,1.2.807.807,0,0,1,.011.187,1.069,1.069,0,0,1-.342.8,1.109,1.109,0,0,1-.705.268Z" transform="translate(-532.419 -481.284)" fill="#7d6eb2"/>
            <path id="Trazado_17767" data-name="Trazado 17767" d="M565,486.581a1.425,1.425,0,0,1-.25-.375,2.107,2.107,0,0,1-.217.005l-.05-.007c-.778-.168-1.024-1.027-.834-2.358l.013-.092a4.041,4.041,0,0,1,.43-1.448,1.075,1.075,0,0,1,1.019-.613c.945.106,1.038,1.333.909,2.492l0,.028a3.7,3.7,0,0,1-.464,1.436,1.436,1.436,0,0,1-.336.378c.035.063.1.152.1.131.123.148.171.27.1.411A.252.252,0,0,1,565,486.581Zm.069-4.338c-.194-.006-.334.068-.5.341a3.607,3.607,0,0,0-.366,1.248l-.01.071c-.155,1.191.031,1.658.338,1.738-.067-.14-.081-.243-.094-.251a.278.278,0,0,1,.219-.323.273.273,0,0,1,.322.219s.013.067.035.164c.02-.033.038-.06.065-.1a3.151,3.151,0,0,0,.383-1.217l.007-.05a3.571,3.571,0,0,0-.031-1.355c-.088-.344-.214-.471-.357-.484Z" transform="translate(-534.319 -481.434)" fill="#7d6eb2"/>
            <path id="Trazado_17768" data-name="Trazado 17768" d="M569.522,487.256l-.069-.019a1.044,1.044,0,0,1-.593-1.353l.87-3.023a.278.278,0,0,1,.338-.193.269.269,0,0,1,.184.343l-.884,3.07c-.036.176-.122.553.242.657.419.121.5-.2.564-.358l.9-3.133a.278.278,0,0,1,.338-.193.281.281,0,0,1,.2.347l-.888,3.085a1.645,1.645,0,0,1-.3.53A.893.893,0,0,1,569.522,487.256Z" transform="translate(-536.255 -481.795)" fill="#7d6eb2"/>
            <path id="Trazado_17769" data-name="Trazado 17769" d="M575.325,487.2l-.594-.265-.646,1.449,1.036.469a.268.268,0,0,1,.127.346.259.259,0,0,1-.337.124l-.007,0-1.27-.574a.255.255,0,0,1-.124-.337l1.622-3.637a.242.242,0,0,1,.141-.141.248.248,0,0,1,.2,0l1.264.571a.263.263,0,0,1,.118.35.26.26,0,0,1-.337.124l-1.023-.464-.556,1.248.6.268a.26.26,0,0,1,.121.343A.255.255,0,0,1,575.325,487.2Z" transform="translate(-537.996 -482.52)" fill="#7d6eb2"/>
            <path id="Trazado_17770" data-name="Trazado 17770" d="M578.622,491.555a1.253,1.253,0,0,1-.514-1.08.268.268,0,0,1,.278-.256.262.262,0,0,1,.25.275.762.762,0,0,0,.266.613.551.551,0,0,0,.383.062.586.586,0,0,0,.339-.26c.023-.036.032-.064.044-.082a2.81,2.81,0,0,0-.025-1.162,2.546,2.546,0,0,1,.112-1.692.888.888,0,0,1,1.272-.268,1.008,1.008,0,0,1,.405,1.08.266.266,0,0,1-.3.225.259.259,0,0,1-.225-.3c.026-.245.052-.448-.148-.573a.372.372,0,0,0-.535.087c-.235.309-.092.97-.054,1.409a3.068,3.068,0,0,1-.01,1.393.825.825,0,0,1-.086.165,1.068,1.068,0,0,1-.7.505,1.111,1.111,0,0,1-.742-.135Z" transform="translate(-539.712 -483.609)" fill="#7d6eb2"/>
            <path id="Trazado_17771" data-name="Trazado 17771" d="M587.841,496.859l-.428-.471-1.3,1.183a.274.274,0,0,1-.394-.009.279.279,0,0,1,.029-.393l2.918-2.649a.277.277,0,0,1,.389.014l.952,1.038a.273.273,0,0,1-.014.389.276.276,0,0,1-.395-.009l-.774-.842-.995.9.432.476a.28.28,0,0,1-.029.393.276.276,0,0,1-.383-.018Z" transform="translate(-542.513 -486.173)" fill="#7d6eb2"/>
            <path id="Trazado_17772" data-name="Trazado 17772" d="M591.293,501.356l-.367-.537-1.311.9.635.943a.267.267,0,0,1-.073.362.259.259,0,0,1-.352-.072l0-.006-.78-1.156a.255.255,0,0,1,.071-.352l3.29-2.246a.247.247,0,0,1,.194-.046.251.251,0,0,1,.17.109l.776,1.15a.263.263,0,0,1-.084.36.26.26,0,0,1-.351-.072l-.627-.931-1.128.77.371.544a.261.261,0,0,1-.077.356A.255.255,0,0,1,591.293,501.356Z" transform="translate(-543.757 -487.916)" fill="#7d6eb2"/>
            <path id="Trazado_17773" data-name="Trazado 17773" d="M591.577,506.111a.278.278,0,0,1-.015-.208.289.289,0,0,1,.138-.156l3.561-1.767a.271.271,0,0,1,.364.123.267.267,0,0,1-.122.364l-3.306,1.639.505,1.019a.279.279,0,0,1-.5.248Z" transform="translate(-544.705 -489.704)" fill="#7d6eb2"/>
            <path id="Trazado_17774" data-name="Trazado 17774" d="M593.648,511.013a.246.246,0,0,1,.146-.327.256.256,0,0,1,.321.172l.123.366,3.336-1.1-.126-.38a.252.252,0,0,1,.154-.33.245.245,0,0,1,.307.176l.418,1.256a.244.244,0,0,1-.141.325.251.251,0,0,1-.321-.172l-.124-.373-3.334,1.1.125.373a.259.259,0,0,1-.151.337.249.249,0,0,1-.317-.18Z" transform="translate(-545.479 -491.73)" fill="#7d6eb2"/>
            <path id="Trazado_17775" data-name="Trazado 17775" d="M595.1,516.837a.936.936,0,0,1,.246-.8,3.42,3.42,0,0,1,1.747-.742c1.716-.358,2.4.112,2.546.674a1.181,1.181,0,0,1,.031.133.988.988,0,0,1-.363.954.294.294,0,0,1-.4-.036.231.231,0,0,1,.052-.351,1.764,1.764,0,0,0,.146-.157.469.469,0,0,0,.057-.324l-.012-.063c-.12-.3-.282-.588-1.76-.36a1.784,1.784,0,0,0-.189.041,2.847,2.847,0,0,0-1.454.594.557.557,0,0,0-.141.382c-.006.009,0-.007,0,.014.038.364.63.422.63.422a.265.265,0,0,1,.264.286.273.273,0,0,1-.3.251,1.126,1.126,0,0,1-1.092-.84Z" transform="translate(-546.02 -493.871)" fill="#7d6eb2"/>
            <path id="Trazado_17776" data-name="Trazado 17776" d="M597.871,522.321l-.028-.651-1.586.07.042,1.136a.267.267,0,0,1-.253.269.259.259,0,0,1-.262-.246v-.007l-.053-1.394a.255.255,0,0,1,.246-.261l3.981-.173a.24.24,0,0,1,.189.063.251.251,0,0,1,.087.183l.053,1.387a.261.261,0,0,1-.522.016l-.042-1.122-1.365.06.029.657a.261.261,0,0,1-.254.261A.255.255,0,0,1,597.871,522.321Z" transform="translate(-546.258 -496.061)" fill="#7d6eb2"/>
            <path id="Trazado_17777" data-name="Trazado 17777" d="M595.613,527.07a1.254,1.254,0,0,1,.733-.944.268.268,0,0,1,.354.134.26.26,0,0,1-.133.346.76.76,0,0,0-.428.513.552.552,0,0,0,.116.37.587.587,0,0,0,.385.187c.043,0,.072,0,.093,0a2.813,2.813,0,0,0,1.028-.543,2.539,2.539,0,0,1,1.562-.659.888.888,0,0,1,.81,1.016,1.008,1.008,0,0,1-.783.847.265.265,0,0,1-.336-.168.258.258,0,0,1,.168-.336c.231-.087.424-.155.446-.39a.373.373,0,0,0-.319-.439c-.381-.072-.908.353-1.282.585a3.076,3.076,0,0,1-1.25.616.84.84,0,0,1-.187,0,1.068,1.068,0,0,1-.767-.4,1.105,1.105,0,0,1-.212-.723Z" transform="translate(-546.213 -497.933)" fill="#7d6eb2"/>
          </g>
          <g id="Grupo_12684" data-name="Grupo 12684" transform="translate(10.598 45.433)">
            <path id="Trazado_17778" data-name="Trazado 17778" d="M534.332,557.6a1.253,1.253,0,0,1-.447-1.109.268.268,0,0,1,.293-.239.262.262,0,0,1,.233.289.759.759,0,0,0,.228.628.55.55,0,0,0,.378.085.586.586,0,0,0,.354-.239c.025-.035.036-.062.048-.08a2.789,2.789,0,0,0,.046-1.161,2.544,2.544,0,0,1,.216-1.682.887.887,0,0,1,1.285-.19,1.006,1.006,0,0,1,.339,1.1.266.266,0,0,1-.314.207.259.259,0,0,1-.206-.314c.041-.243.079-.444-.113-.581a.372.372,0,0,0-.539.054c-.253.294-.151.964-.139,1.4a3.075,3.075,0,0,1-.1,1.39.815.815,0,0,1-.1.16,1.069,1.069,0,0,1-.733.461,1.11,1.11,0,0,1-.732-.18Z" transform="translate(-533.881 -553.619)" fill="#7d6eb2"/>
            <path id="Trazado_17779" data-name="Trazado 17779" d="M538.654,560.1a.246.246,0,0,1-.121-.338.257.257,0,0,1,.351-.1l.342.18,1.645-3.1-.354-.186a.252.252,0,0,1-.118-.344.245.245,0,0,1,.344-.086l1.171.615a.245.245,0,0,1,.125.332.251.251,0,0,1-.35.1l-.349-.183-1.639,3.106.348.183a.258.258,0,0,1,.124.348.249.249,0,0,1-.354.089Z" transform="translate(-535.599 -554.505)" fill="#7d6eb2"/>
            <path id="Trazado_17780" data-name="Trazado 17780" d="M545.253,562.971l-.051-.026a.24.24,0,0,1-.126-.221l-.022-3-.937,2.566a.25.25,0,0,1-.327.148.243.243,0,0,1-.143-.318L545,558.4a.254.254,0,0,1,.28-.165l.063.015a.242.242,0,0,1,.2.24l.018,3,.916-2.551a.25.25,0,0,1,.471.17l-1.339,3.736a.235.235,0,0,1-.15.143.222.222,0,0,1-.17.007A.1.1,0,0,1,545.253,562.971Z" transform="translate(-537.503 -555.301)" fill="#7d6eb2"/>
            <path id="Trazado_17781" data-name="Trazado 17781" d="M550.341,564.438a.936.936,0,0,1-.647-.533,3.431,3.431,0,0,1-.019-1.9c.324-1.723,1.021-2.173,1.6-2.094a1.01,1.01,0,0,1,.877.721.3.3,0,0,1-.185.356.232.232,0,0,1-.3-.182,1.939,1.939,0,0,0-.09-.195.465.465,0,0,0-.277-.176l-.063-.014c-.321,0-.651.036-1.006,1.489a1.756,1.756,0,0,0-.034.19,2.849,2.849,0,0,0-.006,1.571.56.56,0,0,0,.3.276c.006.009-.007,0,.014,0,.351.1.632-.421.632-.421a.264.264,0,0,1,.365-.134.272.272,0,0,1,.118.369,1.125,1.125,0,0,1-1.193.689Z" transform="translate(-539.705 -555.922)" fill="#7d6eb2"/>
            <path id="Trazado_17782" data-name="Trazado 17782" d="M556.669,563.092l-.649-.049-.119,1.583,1.133.092a.267.267,0,0,1,.236.284.259.259,0,0,1-.275.23h-.007l-1.39-.112a.255.255,0,0,1-.23-.275l.3-3.972a.24.24,0,0,1,.086-.18.245.245,0,0,1,.191-.065l1.383.111a.264.264,0,0,1,.229.29.26.26,0,0,1-.276.23l-1.119-.091-.1,1.362.656.049a.262.262,0,0,1,.23.283A.255.255,0,0,1,556.669,563.092Z" transform="translate(-541.862 -556.19)" fill="#7d6eb2"/>
            <path id="Trazado_17783" data-name="Trazado 17783" d="M567.883,564.159l-.667-3.338-.752.81a.266.266,0,0,1-.392-.361l1.115-1.194a.265.265,0,0,1,.262-.073.271.271,0,0,1,.192.2l.759,3.844a.266.266,0,0,1-.208.317A.263.263,0,0,1,567.883,564.159Z" transform="translate(-545.812 -555.955)" fill="#7d6eb2"/>
            <path id="Trazado_17784" data-name="Trazado 17784" d="M572.576,563.738a.264.264,0,0,1-.059-.373,1.98,1.98,0,0,0,.382-1.976,1.146,1.146,0,0,1-.479.345l-.034.012c-.889.228-1.361-.684-1.52-1.106-.189-.532-.312-1.488.533-1.823a.538.538,0,0,1,.059-.028c.488-.189,1.156.043,1.51,1.011.074.194.143.375.2.544.708,1.98.207,2.772-.222,3.327a.237.237,0,0,1-.126.1A.279.279,0,0,1,572.576,563.738Zm-.965-4.433a.533.533,0,0,0-.336.432,1.5,1.5,0,0,0,.1.73,1.686,1.686,0,0,0,.355.6c.18.172.321.23.5.177l.006,0a.686.686,0,0,0,.385-.268c.072-.145.109-.211.109-.211-.012-.034-.051-.194-.065-.235-.055-.162-.123-.336-.194-.524-.312-.823-.552-.771-.857-.689Z" transform="translate(-547.568 -555.485)" fill="#7d6eb2"/>
            <path id="Trazado_17785" data-name="Trazado 17785" d="M576.527,560.262a.4.4,0,0,1-.038-.061,1.38,1.38,0,0,1,0-1.279,1.4,1.4,0,0,1-.754-.7,1.067,1.067,0,0,1,.355-1.427.263.263,0,0,1,.035-.026l.007,0a1.1,1.1,0,0,1,1.424.652,1.148,1.148,0,0,1,.053.95,1.478,1.478,0,0,1,.974.807l.016.032a1.217,1.217,0,0,1-.428,1.7l-.038.019A1.258,1.258,0,0,1,576.527,560.262Zm.39-1.852c.335-.177.319-.481.19-.768a1.117,1.117,0,0,0-.339-.405.385.385,0,0,0-.41-.018l-.006,0c-.358.18-.248.589-.171.774a1.145,1.145,0,0,0,.307.373.378.378,0,0,0,.416.047Zm.282.482a.79.79,0,0,0-.263,1.085l.016.031c.218.387.64.639.953.465l.032-.016c.448-.256.376-.637.213-1.026l-.016-.032c-.231-.46-.66-.645-.922-.513Z" transform="translate(-549.378 -554.719)" fill="#7d6eb2"/>
            <path id="Trazado_17786" data-name="Trazado 17786" d="M582.448,558.188c-.008-.012-.089-.1-.206-.275a4.524,4.524,0,0,1-.772-2.324,2.681,2.681,0,0,0-.436-1.393l0-.006-.925.635.224.453a.264.264,0,1,1-.471.237l-.336-.654a.263.263,0,0,1,.089-.338l1.321-.908a.269.269,0,0,1,.336.021,2.643,2.643,0,0,1,.2.259,3.226,3.226,0,0,1,.529,1.668,4.044,4.044,0,0,0,.679,2.05,1.885,1.885,0,0,0,.162.21.266.266,0,0,1-.013.373l-.036.025A.268.268,0,0,1,582.448,558.188Z" transform="translate(-550.824 -553.568)" fill="#7d6eb2"/>
          </g>
        </g>
        <g id="Grupo_12688" data-name="Grupo 12688" transform="translate(2.218 32.742)">
          <g id="Grupo_12686" data-name="Grupo 12686" transform="translate(44.093 0.075)">
            <path id="Trazado_17787" data-name="Trazado 17787" d="M591.244,543.654l-.542-.437a24.865,24.865,0,0,0,4.8-9.72l.676.163A25.564,25.564,0,0,1,591.244,543.654Z" transform="translate(-590.702 -533.496)" fill="#7d6eb2"/>
          </g>
          <g id="Grupo_12687" data-name="Grupo 12687">
            <path id="Trazado_17788" data-name="Trazado 17788" d="M525.384,543.46a25.223,25.223,0,0,1-4.834-9.921l.677-.161a24.533,24.533,0,0,0,4.7,9.65Z" transform="translate(-520.55 -533.377)" fill="#7d6eb2"/>
          </g>
        </g>
      </g>
    </g>
  </g>
</svg>
