<svg xmlns="http://www.w3.org/2000/svg" xmlns:xlink="http://www.w3.org/1999/xlink" width="508.486" height="505.792" viewBox="0 0 508.486 505.792">
  <defs>
    <linearGradient id="linear-gradient" x1="13.256" y1="0.441" x2="13.402" y2="0.535" gradientUnits="objectBoundingBox">
      <stop offset="0" stop-color="#808285"/>
      <stop offset="0.04" stop-color="#828487"/>
      <stop offset="0.06" stop-color="#898b8e"/>
      <stop offset="0.06" stop-color="#939598"/>
      <stop offset="0.13" stop-color="#95979a"/>
      <stop offset="0.15" stop-color="#9b9da1"/>
      <stop offset="0.17" stop-color="#a7a9ac"/>
      <stop offset="0.18" stop-color="#b7b9bd"/>
      <stop offset="0.19" stop-color="#c0c3c7"/>
      <stop offset="0.22" stop-color="#c2c5c9"/>
      <stop offset="0.23" stop-color="#c9cbcf"/>
      <stop offset="0.24" stop-color="#d4d7db"/>
      <stop offset="0.24" stop-color="#dadce0"/>
      <stop offset="0.27" stop-color="#d8dade"/>
      <stop offset="0.29" stop-color="#d1d3d7"/>
      <stop offset="0.3" stop-color="#c5c8cc"/>
      <stop offset="0.3" stop-color="#c0c3c7"/>
      <stop offset="0.33" stop-color="#c2c5c9"/>
      <stop offset="0.34" stop-color="#c9cbcf"/>
      <stop offset="0.34" stop-color="#d4d7db"/>
      <stop offset="0.35" stop-color="#dadce0"/>
      <stop offset="0.37" stop-color="#d8dade"/>
      <stop offset="0.38" stop-color="#d1d3d7"/>
      <stop offset="0.38" stop-color="#c5c8cc"/>
      <stop offset="0.38" stop-color="#c0c3c7"/>
      <stop offset="0.41" stop-color="#c2c5c9"/>
      <stop offset="0.41" stop-color="#c9cbcf"/>
      <stop offset="0.42" stop-color="#d4d7db"/>
      <stop offset="0.42" stop-color="#dadce0"/>
      <stop offset="0.44" stop-color="#d8dade"/>
      <stop offset="0.45" stop-color="#d1d3d7"/>
      <stop offset="0.45" stop-color="#c5c8cc"/>
      <stop offset="0.45" stop-color="#c0c3c7"/>
      <stop offset="0.48" stop-color="#c2c5c9"/>
      <stop offset="0.48" stop-color="#c9cbcf"/>
      <stop offset="0.49" stop-color="#d4d7db"/>
      <stop offset="0.49" stop-color="#dadce0"/>
      <stop offset="0.51" stop-color="#d8dade"/>
      <stop offset="0.52" stop-color="#d1d3d7"/>
      <stop offset="0.53" stop-color="#c5c8cc"/>
      <stop offset="0.53" stop-color="#c0c3c7"/>
      <stop offset="0.55" stop-color="#c2c5c9"/>
      <stop offset="0.56" stop-color="#c9ccd0"/>
      <stop offset="0.57" stop-color="#d5d7db"/>
      <stop offset="0.57" stop-color="#dadce0"/>
      <stop offset="0.59" stop-color="#d6d8dc"/>
      <stop offset="0.61" stop-color="#cacccf"/>
      <stop offset="0.63" stop-color="#bcbec0"/>
      <stop offset="0.64" stop-color="#c1c3c5"/>
      <stop offset="0.66" stop-color="#d3d5d9"/>
      <stop offset="0.68" stop-color="#dadce0"/>
      <stop offset="0.72" stop-color="#c0c3c7"/>
      <stop offset="0.77" stop-color="#dadce0"/>
      <stop offset="0.79" stop-color="#d8dade"/>
      <stop offset="0.79" stop-color="#d1d3d7"/>
      <stop offset="0.79" stop-color="#c5c8cc"/>
      <stop offset="0.8" stop-color="#c0c3c7"/>
      <stop offset="0.86" stop-color="#dadce0"/>
      <stop offset="0.89" stop-color="#d8dade"/>
      <stop offset="0.9" stop-color="#d1d3d7"/>
      <stop offset="0.91" stop-color="#c5c8cc"/>
      <stop offset="0.91" stop-color="#c0c3c7"/>
      <stop offset="0.95" stop-color="#dadce0"/>
      <stop offset="0.99" stop-color="#dcdee2"/>
      <stop offset="1" stop-color="#e2e4e8"/>
      <stop offset="1" stop-color="#dadce0"/>
    </linearGradient>
    <linearGradient id="linear-gradient-2" x1="11.793" y1="0.383" x2="11.725" y2="0.586" gradientUnits="objectBoundingBox">
      <stop offset="0" stop-color="#808285"/>
      <stop offset="0.1" stop-color="#828487"/>
      <stop offset="0.13" stop-color="#898b8e"/>
      <stop offset="0.16" stop-color="#939598"/>
      <stop offset="0.2" stop-color="#95979a"/>
      <stop offset="0.21" stop-color="#9b9da1"/>
      <stop offset="0.22" stop-color="#a7a9ac"/>
      <stop offset="0.23" stop-color="#b7b9bd"/>
      <stop offset="0.23" stop-color="#c0c3c7"/>
      <stop offset="0.26" stop-color="#c2c5c9"/>
      <stop offset="0.27" stop-color="#c9cbcf"/>
      <stop offset="0.27" stop-color="#d4d7db"/>
      <stop offset="0.27" stop-color="#dadce0"/>
      <stop offset="0.29" stop-color="#d8dade"/>
      <stop offset="0.29" stop-color="#d1d3d7"/>
      <stop offset="0.3" stop-color="#c5c8cc"/>
      <stop offset="0.3" stop-color="#c0c3c7"/>
      <stop offset="0.33" stop-color="#c2c5c9"/>
      <stop offset="0.34" stop-color="#c9cbcf"/>
      <stop offset="0.34" stop-color="#d4d7db"/>
      <stop offset="0.35" stop-color="#dadce0"/>
      <stop offset="0.37" stop-color="#d8dade"/>
      <stop offset="0.38" stop-color="#d1d3d7"/>
      <stop offset="0.38" stop-color="#c5c8cc"/>
      <stop offset="0.38" stop-color="#c0c3c7"/>
      <stop offset="0.41" stop-color="#c2c5c9"/>
      <stop offset="0.41" stop-color="#c9cbcf"/>
      <stop offset="0.42" stop-color="#d4d7db"/>
      <stop offset="0.42" stop-color="#dadce0"/>
      <stop offset="0.44" stop-color="#d8dade"/>
      <stop offset="0.45" stop-color="#d1d3d7"/>
      <stop offset="0.45" stop-color="#c5c8cc"/>
      <stop offset="0.45" stop-color="#c0c3c7"/>
      <stop offset="0.48" stop-color="#c2c5c9"/>
      <stop offset="0.48" stop-color="#c9cbcf"/>
      <stop offset="0.49" stop-color="#d4d7db"/>
      <stop offset="0.49" stop-color="#dadce0"/>
      <stop offset="0.51" stop-color="#d8dade"/>
      <stop offset="0.52" stop-color="#d1d3d7"/>
      <stop offset="0.53" stop-color="#c5c8cc"/>
      <stop offset="0.53" stop-color="#c0c3c7"/>
      <stop offset="0.55" stop-color="#c2c5c9"/>
      <stop offset="0.56" stop-color="#c9ccd0"/>
      <stop offset="0.57" stop-color="#d5d7db"/>
      <stop offset="0.57" stop-color="#dadce0"/>
      <stop offset="0.59" stop-color="#d6d8dc"/>
      <stop offset="0.61" stop-color="#cacccf"/>
      <stop offset="0.63" stop-color="#bcbec0"/>
      <stop offset="0.64" stop-color="#c1c3c5"/>
      <stop offset="0.66" stop-color="#d3d5d9"/>
      <stop offset="0.68" stop-color="#dadce0"/>
      <stop offset="0.72" stop-color="#c0c3c7"/>
      <stop offset="0.77" stop-color="#dadce0"/>
      <stop offset="0.79" stop-color="#d8dade"/>
      <stop offset="0.79" stop-color="#d1d3d7"/>
      <stop offset="0.79" stop-color="#c5c8cc"/>
      <stop offset="0.8" stop-color="#c0c3c7"/>
      <stop offset="0.86" stop-color="#dadce0"/>
      <stop offset="0.89" stop-color="#d8dade"/>
      <stop offset="0.9" stop-color="#d1d3d7"/>
      <stop offset="0.91" stop-color="#c5c8cc"/>
      <stop offset="0.91" stop-color="#c0c3c7"/>
      <stop offset="0.95" stop-color="#dadce0"/>
      <stop offset="0.99" stop-color="#dcdee2"/>
      <stop offset="1" stop-color="#e2e4e8"/>
      <stop offset="1" stop-color="#dadce0"/>
    </linearGradient>
    <radialGradient id="radial-gradient" cx="0.974" cy="0.448" r="1.2" gradientTransform="matrix(-0.659, 0, 0, 1, 10.492, 0)" gradientUnits="objectBoundingBox">
      <stop offset="0" stop-color="#231f20"/>
      <stop offset="0.11" stop-color="#343132"/>
      <stop offset="0.34" stop-color="#625f60"/>
      <stop offset="0.66" stop-color="#aba9aa"/>
      <stop offset="1" stop-color="#fff"/>
    </radialGradient>
    <linearGradient id="linear-gradient-3" x1="0.51" y1="0.492" x2="0.494" y2="0.504" gradientUnits="objectBoundingBox">
      <stop offset="0" stop-color="#bcbec0"/>
      <stop offset="0.06" stop-color="#c2c4c6"/>
      <stop offset="0.46" stop-color="#e3e4e5"/>
      <stop offset="0.78" stop-color="#f8f8f8"/>
      <stop offset="1" stop-color="#fff"/>
    </linearGradient>
  </defs>
  <g id="Grupo_58798" data-name="Grupo 58798" transform="translate(4081.056 10740.758)">
    <path id="Trazado_132242" data-name="Trazado 132242" d="M830.734,558.572c9.7-88.342-75.948-119.034-136.665-96.415-61.21,22.8-75.4-15-161.471-4.2C445.448,468.9,485.185,528.847,489.7,605.7s44.514,104.841,60.943,159.675c16.34,54.537,142.1,48.926,180.149,47.3,37.829-1.618,70.7,1.505,103.615-58.377C867.255,694.525,821.067,646.621,830.734,558.572Z" transform="matrix(0.819, -0.574, 0.574, 0.819, -4732.575, -10628.008)" fill="#dee4f0"/>
    <path id="Trazado_132243" data-name="Trazado 132243" d="M830.734,558.572c9.7-88.342-75.948-119.034-136.665-96.415-61.21,22.8-75.4-15-161.471-4.2C445.448,468.9,485.185,528.847,489.7,605.7s44.514,104.841,60.943,159.675c16.34,54.537,142.1,48.926,180.149,47.3,37.829-1.618,70.7,1.505,103.615-58.377C867.255,694.525,821.067,646.621,830.734,558.572Z" transform="matrix(0.819, -0.574, 0.574, 0.819, -4732.575, -10628.008)" fill="#dee4f0"/>
    <g id="img_1-02" transform="translate(-4018.069 -10670.725)" style="isolation: isolate">
      <g id="Layer_1" data-name="Layer 1">
        <path id="Trazado_130002" data-name="Trazado 130002" d="M400.118,253.353l2.7-3.878L161.881,34.09,2.161,110.585l-.941,5.578,199.719,246.23Z" transform="translate(-0.48 -13.399)" fill="#bcbec0"/>
        <path id="Trazado_130003" data-name="Trazado 130003" d="M402.819,247.006,164.825,27.81,1.22,109.731,201.461,357.588Z" transform="translate(-0.48 -10.931)" fill="#fefefe"/>
        <g id="Grupo_57793" data-name="Grupo 57793" transform="translate(2.17 78.71)" opacity="0.5" style="mix-blend-mode: multiply;isolation: isolate">
          <path id="Trazado_130004" data-name="Trazado 130004" d="M401.043,290.444,301.454,345.2,201.864,399.97l-99.1-125.033L3.639,149.9c-.455-.564,1.59-11.678,3.927-12.546l12.048-7.678L203.6,202.151l183.962,72.477Z" transform="translate(-3.575 -129.68)" opacity="0"/>
          <path id="Trazado_130005" data-name="Trazado 130005" d="M7.6,137.733,19.585,130l184.06,72.452,184.1,72.44s6.488,7.587,6.488,7.6l6.61,8.115-99.413,54.626-99.407,54.626L102.889,274.923,3.955,150.2C3.506,149.647,5.315,138.576,7.6,137.733Z" transform="translate(-3.697 -129.806)" opacity="0.02"/>
          <path id="Trazado_130006" data-name="Trazado 130006" d="M7.61,138.085l11.969-7.745L203.76,202.756,387.917,275.2s6.513,7.557,6.47,7.575l6.221,8.03-99.231,54.486L202.146,399.8,103.005,274.9,4.254,150.479C3.823,149.945,5.389,138.91,7.61,138.085Z" transform="translate(-3.813 -129.939)" opacity="0.05"/>
          <path id="Trazado_130007" data-name="Trazado 130007" d="M7.631,138.443c0-.03,11.951-7.763,11.951-7.763l184.254,72.386,184.26,72.38s6.519,7.526,6.458,7.557l5.839,7.945L301.338,345.33l-99.049,54.389L103.124,274.893,4.56,150.764C4.141,150.236,5.471,139.244,7.631,138.443Z" transform="translate(-3.932 -130.073)" opacity="0.07"/>
          <path id="Trazado_130008" data-name="Trazado 130008" d="M7.659,138.787C7.623,138.745,19.58,131,19.58,131l184.345,72.361,184.345,72.355s6.531,7.49,6.452,7.532l5.463,7.89L301.317,345.4l-98.873,54.262L103.273,274.849,4.873,151.03C4.46,150.526,5.523,139.57,7.659,138.787Z" transform="translate(-4.051 -130.199)" opacity="0.1"/>
          <path id="Trazado_130009" data-name="Trazado 130009" d="M7.679,139.143c-.042-.049,11.9-7.793,11.9-7.793l184.436,72.319,184.436,72.325s6.537,7.49,6.434,7.49l5.074,7.775-98.691,54.134-98.7,54.141L103.4,274.859,5.178,151.319C4.777,150.821,5.639,139.9,7.679,139.143Z" transform="translate(-4.167 -130.336)" opacity="0.12"/>
          <path id="Trazado_130010" data-name="Trazado 130010" d="M7.694,139.5c-.049-.061,11.878-7.818,11.878-7.818l184.515,72.295L388.6,276.269s6.549,7.423,6.428,7.49l4.686,7.69-98.509,54.019-98.515,54.019L103.526,274.837,5.479,151.594C5.09,151.115,5.7,140.232,7.694,139.5Z" transform="translate(-4.28 -130.466)" opacity="0.15"/>
          <path id="Trazado_130011" data-name="Trazado 130011" d="M7.681,139.842c0-.073,11.878-7.842,11.878-7.842l184.612,72.27,184.612,72.264s6.555,7.393,6.416,7.472l4.3,7.623-98.327,53.886-98.327,53.892L103.64,274.817,5.775,151.872C5.4,151.423,5.769,140.558,7.681,139.842Z" transform="translate(-4.388 -130.592)" opacity="0.17"/>
          <path id="Trazado_130012" data-name="Trazado 130012" d="M7.715,140.2c-.067-.079,11.824-7.848,11.824-7.848l184.7,72.228,184.709,72.24s6.561,7.362,6.4,7.447l3.915,7.5-98.157,53.782-98.157,53.764L103.753,274.8,6.064,152.167C5.693,151.7,5.833,140.9,7.715,140.2Z" transform="translate(-4.488 -130.729)" opacity="0.2"/>
          <path id="Trazado_130013" data-name="Trazado 130013" d="M7.71,140.54c-.073-.091,11.805-7.89,11.805-7.89L204.3,204.878l184.788,72.228s6.573,7.332,6.391,7.429l3.539,7.429-97.987,53.612-97.963,53.643L103.858,274.793,6.344,152.419C5.986,151.975,5.889,141.214,7.71,140.54Z" transform="translate(-4.581 -130.847)" opacity="0.22"/>
          <path id="Trazado_130014" data-name="Trazado 130014" d="M7.69,140.89C7.612,140.8,19.484,133,19.484,133l184.879,72.173L389.241,277.34s6.579,7.284,6.379,7.411l3.156,7.344-97.811,53.534-97.793,53.515L103.948,274.761,6.61,152.7C6.264,152.277,5.924,141.552,7.69,140.89Z" transform="translate(-4.659 -130.985)" opacity="0.24"/>
          <path id="Trazado_130015" data-name="Trazado 130015" d="M7.656,141.27c-.091-.115,11.763-7.89,11.763-7.89L204.383,205.5l184.97,72.143s6.585,7.283,6.367,7.387l2.768,7.283L300.87,345.73l-97.617,53.412L104.022,274.764,6.861,153C6.527,152.572,5.95,141.9,7.656,141.27Z" transform="translate(-4.721 -131.134)" opacity="0.27"/>
          <path id="Trazado_130016" data-name="Trazado 130016" d="M7.612,141.611c-.1-.121,11.732-7.921,11.732-7.921L204.4,205.8l185.055,72.112s6.6,7.235,6.361,7.368l2.385,7.174-97.441,53.254-97.435,53.285L104.081,274.735,7.1,153.3C6.774,152.87,5.961,142.224,7.612,141.611Z" transform="translate(-4.768 -131.256)" opacity="0.29"/>
          <path id="Trazado_130017" data-name="Trazado 130017" d="M7.543,141.951C7.434,141.824,19.251,134,19.251,134l185.122,72.082,185.122,72.082s6.6,7.2,6.343,7.344l2.009,7.089-97.2,53.157L203.378,398.9,104.116,274.711,7.319,153.538C7,153.149,5.947,142.546,7.543,141.951Z" transform="translate(-4.797 -131.378)" opacity="0.32"/>
          <path id="Trazado_130018" data-name="Trazado 130018" d="M7.462,142.313c-.115-.146,11.69-7.963,11.69-7.963L204.383,206.4l185.231,72.052s6.616,7.174,6.337,7.326l1.621,7-97.077,53.024-97.113,53.018L104.144,274.7,7.5,153.821C7.219,153.451,5.926,142.878,7.462,142.313Z" transform="translate(-4.813 -131.516)" opacity="0.34"/>
          <path id="Trazado_130019" data-name="Trazado 130019" d="M7.376,142.665c-.127-.152,11.66-7.975,11.66-7.975l185.322,72.021L389.68,278.727s6.622,7.138,6.324,7.283l1.214,6.919L300.342,345.85l-96.9,52.9-99.28-124.062L7.716,154.1C7.425,153.742,5.889,143.212,7.376,142.665Z" transform="translate(-4.818 -131.649)" opacity="0.37"/>
          <path id="Trazado_130020" data-name="Trazado 130020" d="M7.275,143.006C7.141,142.848,18.91,135,18.91,135l185.413,72,185.413,71.991s6.628,7.107,6.312,7.283l.85,6.834L300.18,345.887l-96.718,52.775-99.292-124L7.9,154.374C7.621,154.028,5.848,143.534,7.275,143.006Z" transform="translate(-4.813 -131.771)" opacity="0.39"/>
          <path id="Trazado_130021" data-name="Trazado 130021" d="M7.165,143.372c-.14-.176,11.617-8.012,11.617-8.012l185.5,71.961,185.5,71.961s6.64,7.071,6.3,7.283l.473,6.749L300.04,345.937l-96.573,52.653-99.3-123.94L8.094,154.661C7.808,154.327,5.8,143.876,7.165,143.372Z" transform="translate(-4.801 -131.912)" opacity="0.41"/>
          <path id="Trazado_130022" data-name="Trazado 130022" d="M7.046,143.72c-.146-.182,11.593-8.03,11.593-8.03l185.589,71.93,185.619,71.93s6.646,7.047,6.288,7.241l.091,6.677-96.4,52.514-96.36,52.526-99.31-123.874L8.242,154.937C7.987,154.621,5.735,144.206,7.046,143.72Z" transform="translate(-4.779 -132.042)" opacity="0.44"/>
          <path id="Trazado_130023" data-name="Trazado 130023" d="M6.932,144.06c-.158-.17,11.563-8.06,11.563-8.06l185.68,71.912,185.65,71.9s6.677,7.016,6.282,7.223l-.3,6.579-96.16,52.392-96.16,52.411L104.166,274.6,8.413,155.2C8.164,154.9,5.675,144.528,6.932,144.06Z" transform="translate(-4.756 -132.164)" opacity="0.46"/>
          <path id="Trazado_130024" data-name="Trazado 130024" d="M6.8,144.426c-.164-.2,11.532-8.066,11.532-8.066L204.11,208.23,389.875,280.1s6.677,6.98,6.27,7.2l-.68,6.488-96.008,52.283-96,52.277L104.12,274.6,8.566,155.491C8.33,155.206,5.586,144.87,6.8,144.426Z" transform="translate(-4.721 -132.306)" opacity="0.49"/>
          <path id="Trazado_130025" data-name="Trazado 130025" d="M6.677,144.765c-.176-.212,11.532-8.085,11.532-8.085l185.826,71.845,185.874,71.839s6.677,6.95,6.258,7.174l-1.068,6.409L299.278,346.1,203.428,398.26,104.105,274.574,8.728,155.769C8.5,155.49,5.56,145.2,6.677,144.765Z" transform="translate(-4.695 -132.431)" opacity="0.51"/>
          <path id="Trazado_130026" data-name="Trazado 130026" d="M6.536,145.121c-.182-.231,11.5-8.121,11.5-8.121l185.959,71.827L389.92,280.636s6.677,6.913,6.246,7.15l-1.445,6.324-95.644,52.034-95.65,52.028L104.074,274.555,8.873,156.04C8.661,155.779,5.456,145.5,6.536,145.121Z" transform="translate(-4.652 -132.557)" opacity="0.54"/>
          <path id="Trazado_130027" data-name="Trazado 130027" d="M6.407,145.481c-.194-.231,11.471-8.121,11.471-8.121L203.91,209.139l186.032,71.779s6.676,6.889,6.233,7.132l-1.821,6.24L298.881,346.2l-95.468,51.937L104.048,274.544,9.023,156.327C8.822,156.079,5.381,145.863,6.407,145.481Z" transform="translate(-4.613 -132.699)" opacity="0.56"/>
          <path id="Trazado_130028" data-name="Trazado 130028" d="M6.265,145.829c-.2-.243,11.447-8.139,11.447-8.139l186.123,71.754,186.123,71.748s6.677,6.853,6.221,7.107l-2.215,6.173-95.292,51.786L203.38,398.038l-99.365-123.51L9.166,156.6C8.978,156.372,5.293,146.187,6.265,145.829Z" transform="translate(-4.568 -132.828)" opacity="0.59"/>
          <path id="Trazado_130029" data-name="Trazado 130029" d="M6.121,146.176c-.206-.255,11.4-8.176,11.4-8.176L203.74,209.718l186.226,71.736s6.677,6.822,6.215,7.089l-2.6,6.07-95.11,51.658-95.11,51.658L103.981,274.5,9.3,156.87C9.132,156.652,5.211,146.5,6.121,146.176Z" transform="translate(-4.522 -132.95)" opacity="0.61"/>
          <path id="Trazado_130030" data-name="Trazado 130030" d="M5.976,146.536c-.212-.261,11.4-8.176,11.4-8.176l186.3,71.688,186.3,71.694s6.713,6.786,6.2,7.065l-2.992,5.985-94.916,51.537L203.34,397.858l-99.4-123.364L9.454,157.163C9.284,156.957,5.126,146.851,5.976,146.536Z" transform="translate(-4.474 -133.092)" opacity="0.63"/>
          <path id="Trazado_130031" data-name="Trazado 130031" d="M5.837,146.888c-.225-.267,11.374-8.188,11.374-8.188L203.6,210.357l186.384,71.657s6.725,6.786,6.185,7.047l-3.363,5.9L298.056,346.37,203.31,397.779,103.9,274.476,9.594,157.443C9.436,157.249,5.036,147.185,5.837,146.888Z" transform="translate(-4.426 -133.225)" opacity="0.66"/>
          <path id="Trazado_130032" data-name="Trazado 130032" d="M5.688,147.242c-.231-.285,11.35-8.212,11.35-8.212l186.481,71.6,186.475,71.621s6.731,6.731,6.179,7.029l-3.751,5.815-94.57,51.318L203.283,397.7,103.863,274.484,9.73,157.718C9.585,157.536,4.948,147.509,5.688,147.242Z" transform="translate(-4.374 -133.355)" opacity="0.68"/>
          <path id="Trazado_130033" data-name="Trazado 130033" d="M5.537,147.59c-.237-.291,11.332-8.23,11.332-8.23l186.566,71.621L390,282.559s6.737,6.677,6.167,7l-4.133,5.73-94.388,51.16-94.388,51.16L103.822,274.438,9.865,157.994C9.731,157.83,4.851,147.845,5.537,147.59Z" transform="translate(-4.32 -133.485)" opacity="0.71"/>
          <path id="Trazado_130034" data-name="Trazado 130034" d="M5.386,147.949c-.249-.3,11.308-8.249,11.308-8.249l186.657,71.566L390,282.832s6.749,6.677,6.155,6.986l-4.51,5.645L297.435,346.5l-94.212,51.033L103.779,274.426,9.986,158.279C9.877,158.121,4.761,148.179,5.386,147.949Z" transform="translate(-4.266 -133.618)" opacity="0.73"/>
          <path id="Trazado_130035" data-name="Trazado 130035" d="M5.242,148.285C4.981,147.969,16.526,140,16.526,140l186.742,71.56L390.01,283.1s6.755,6.628,6.142,6.962l-4.9,5.56-94.03,50.911-94.036,50.912-99.45-123.048-93.6-115.85C10.025,158.4,4.672,148.5,5.242,148.285Z" transform="translate(-4.213 -133.736)" opacity="0.76"/>
          <path id="Trazado_130036" data-name="Trazado 130036" d="M5.088,148.639c-.267-.322,11.259-8.279,11.259-8.279l186.833,71.512,186.833,71.512s6.762,6.6,6.13,6.944l-5.281,5.463-93.854,50.79-93.854,50.8L103.688,274.388,10.266,158.83C10.168,158.7,4.572,148.839,5.088,148.639Z" transform="translate(-4.156 -133.878)" opacity="0.78"/>
          <path id="Trazado_130037" data-name="Trazado 130037" d="M4.981,149c-.273-.334,11.235-8.3,11.235-8.3l186.943,71.475L390.1,283.656s6.774,6.561,6.124,6.919l-5.669,5.384L296.812,346.64,203.141,397.3,103.66,274.37,10.444,159.091C10.329,159,4.5,149.173,4.981,149Z" transform="translate(-4.116 -134.011)" opacity="0.8"/>
          <path id="Trazado_130038" data-name="Trazado 130038" d="M4.778,149.355c-.279-.34,11.217-8.315,11.217-8.315L203,212.485,390.013,283.93s6.78,6.537,6.106,6.9l-6.07,5.3-93.471,50.541-93.471,50.547L103.6,274.358,10.532,159.388C10.453,159.291,4.384,149.513,4.778,149.355Z" transform="translate(-4.04 -134.145)" opacity="0.83"/>
          <path id="Trazado_130039" data-name="Trazado 130039" d="M4.631,149.7c-.291-.352,11.186-8.334,11.186-8.334l187.1,71.4,187.094,71.439s6.792,6.5,6.07,6.877L389.66,296.3l-93.3,50.42-93.313,50.42-99.5-122.8L10.689,159.67C10.6,159.585,4.285,149.831,4.631,149.7Z" transform="translate(-3.985 -134.275)" opacity="0.85"/>
          <path id="Trazado_130040" data-name="Trazado 130040" d="M4.474,150.058c-.3-.364,11.162-8.358,11.162-8.358l187.191,71.39,187.185,71.384s6.8,6.47,6.07,6.859l-6.816,5.129-93.137,50.292-93.113,50.3L103.5,274.32,10.792,159.945C10.738,159.872,4.183,150.161,4.474,150.058Z" transform="translate(-3.924 -134.404)" opacity="0.88"/>
          <path id="Trazado_130041" data-name="Trazado 130041" d="M4.316,150.394C4.013,150.024,15.46,142,15.46,142l187.276,71.378,187.276,71.36s6.8,6.434,6.07,6.834l-7.2,5.044-92.955,50.171-92.955,50.171L103.456,274.316,10.92,160.209C10.877,160.154,4.122,150.5,4.316,150.394Z" transform="translate(-3.864 -134.522)" opacity="0.9"/>
          <path id="Trazado_130042" data-name="Trazado 130042" d="M4.156,150.764c-.31-.388,11.119-8.394,11.119-8.394L202.643,213.7,390,285.023s6.816,6.4,6.07,6.816l-7.587,4.959-92.773,50.044-92.779,50.05L103.393,274.286,11.045,160.5C11.015,160.457,3.986,150.825,4.156,150.764Z" transform="translate(-3.801 -134.668)" opacity="0.93"/>
          <path id="Trazado_130043" data-name="Trazado 130043" d="M4,151.116c-.328-.395,11.089-8.406,11.089-8.406L202.549,214,390.02,285.3s6.822,6.379,6.069,6.8l-7.963,4.856-92.634,49.94-92.6,49.922L103.354,274.268l-92.178-113.5C11.152,160.755,3.886,151.159,4,151.116Z" transform="translate(-3.737 -134.801)" opacity="0.95"/>
          <path id="Trazado_130044" data-name="Trazado 130044" d="M3.845,151.449c-.334-.4,11.071-8.449,11.071-8.449l187.55,71.263,187.549,71.269s6.834,6.343,6.07,6.774l-8.352,4.789-92.458,49.843-92.421,49.77L103.313,274.23,11.3,161.045S3.791,151.5,3.845,151.449Z" transform="translate(-3.678 -134.915)" opacity="0.98"/>
          <path id="Trazado_130045" data-name="Trazado 130045" d="M396.028,292.6,202.815,396.647l-99.565-122.4L3.685,151.819c-.34-.413,11.047-8.449,11.047-8.449l187.616,71.238,187.647,71.232S396.835,292.153,396.028,292.6Z" transform="translate(-3.615 -135.061)"/>
        </g>
        <path id="Trazado_130046" data-name="Trazado 130046" d="M221.052,357.813c-.765-2.5-149.512-180.175-207.112-248.913a26.354,26.354,0,0,1-.061,2.865c-.206,2.24-.522,4.473-.874,6.677-.789,4.971-1.724,9.948-2.725,14.883-.607,3.071-1.366,6.112-2.13,9.147L204.573,383.1S221.871,360.477,221.052,357.813Z" transform="translate(-3.203 -42.802)" fill="url(#linear-gradient)"/>
        <path id="Trazado_130047" data-name="Trazado 130047" d="M539.9,347.95,524.63,372.6,331.77,477.056,348.9,447.734Z" transform="translate(-130.4 -136.76)" fill="url(#linear-gradient-2)"/>
        <path id="Trazado_130048" data-name="Trazado 130048" d="M222.5,359.46l-1.584,2.707C208.811,346.386,81.229,193.937,22.1,123.36c-.261.607-.516,1.214-.8,1.821-.892,1.882-1.936,3.7-2.883,5.56-2.24,4.394-4.328,8.874-6.2,13.438-.74,1.821-1.414,3.642-2.064,5.463L205.369,388.782,398.12,284.5l14.961-24.127Z" transform="translate(-3.993 -48.486)" opacity="0.3" fill="url(#radial-gradient)" style="mix-blend-mode: multiply;isolation: isolate"/>
        <path id="Trazado_130049" data-name="Trazado 130049" d="M422.025,207.42l-3.4,3.763L225.183,312.763l-16.71,33.807-3.035,1.614L221.268,314.8,9.27,69.944l.983-5.912a4.1,4.1,0,0,1,2.865-3.259l5.748-1.754a4.7,4.7,0,0,0,1.5,0,6.264,6.264,0,0,0,1.4-.868h0L198.246,5Z" transform="translate(-3.644 -1.965)" fill="#d1d3d4"/>
        <path id="Trazado_130050" data-name="Trazado 130050" d="M423.717,205.455,234.061,305.6l-2.331,1.214-7.89,4.158L13.961,61.418a1.627,1.627,0,0,1,.777-2.61l5.821-1.754a4.7,4.7,0,0,0,1.5,0,6.264,6.264,0,0,0,1.4-.868h0L210.062,0Z" transform="translate(-5.336)" fill="#12263f"/>
        <path id="Trazado_130051" data-name="Trazado 130051" d="M6.6,99.086,0,138.806l200.459,247.14L218.5,347.92l7.132-3.769L15.229,94,9.572,95.7A4.249,4.249,0,0,0,6.6,99.086Z" transform="translate(0 -36.946)" fill="#7d6eb2"/>
        <path id="Trazado_130052" data-name="Trazado 130052" d="M238.644,342.029l-2.385,1.214-.036-.042-.413-.486L25.08,93.438a4.7,4.7,0,0,0,1.5,0,6.264,6.264,0,0,0,1.4-.868h0L238.6,341.962Z" transform="translate(-9.858 -36.384)" fill="url(#linear-gradient-3)"/>
        <path id="Trazado_130053" data-name="Trazado 130053" d="M55.917,87.019,243.776,26.263,216.463,0,29.86,56.186Z" transform="translate(-11.736)" fill="#f5ca56"/>
        <path id="Trazado_130054" data-name="Trazado 130054" d="M119.58,159.441,311.2,91.881,260.649,43.27,72.79,104.026Z" transform="translate(-28.61 -17.007)" fill="#7d6eb2"/>
        <path id="Trazado_130055" data-name="Trazado 130055" d="M294.1,349.357,486.147,262.72l15.781,15.174L309.426,367.5Z" transform="translate(-115.594 -103.26)" fill="#f5ca56"/>
        <path id="Trazado_130056" data-name="Trazado 130056" d="M319.35,377.331l34.894,41.328L543.9,318.541,511.852,287.72Z" transform="translate(-125.519 -113.087)" fill="#7d6eb2"/>
        <path id="Trazado_130057" data-name="Trazado 130057" d="M167.1,206.321l-3.168,1.141-7.472-7.5-3.065,2.082-1.578-1.584,5.165-3.83.34-.127Z" transform="translate(-59.672 -77.233)" fill="#fff"/>
        <path id="Trazado_130058" data-name="Trazado 130058" d="M184.1,195.016a3.356,3.356,0,0,1-2.149,1.784,7.818,7.818,0,0,1-4.279.328A7.01,7.01,0,0,1,174,195.162a3.417,3.417,0,0,1-1.074-2.015,2.428,2.428,0,0,1,.662-1.942,5.462,5.462,0,0,1,2.319-1.438,8.971,8.971,0,0,1,3.29-.528,9.1,9.1,0,0,1,3.3.71,8.7,8.7,0,0,1,2.768,1.821l.722.722q2.428,2.428,1.857,4.564t-4.139,3.52l-.771.285-1.621-1.627.7-.255Q186.031,197.407,184.1,195.016Zm-2.853,0a2.215,2.215,0,0,0,1.08-.716,1.256,1.256,0,0,0,.255-.886l-.8-.8a4.941,4.941,0,0,0-2.149-1.317,3.5,3.5,0,0,0-2.191.049,1.335,1.335,0,0,0-1.032,1.1,1.954,1.954,0,0,0,.728,1.56,4.1,4.1,0,0,0,1.912,1.1,3.581,3.581,0,0,0,2.2-.073Z" transform="translate(-67.96 -74.377)" fill="#fff"/>
        <path id="Trazado_130059" data-name="Trazado 130059" d="M205.337,187.391a3.363,3.363,0,0,1-2.149,1.79,7.836,7.836,0,0,1-4.285.328,7.023,7.023,0,0,1-3.672-1.954,3.381,3.381,0,0,1-1.08-2.009,2.428,2.428,0,0,1,.668-1.942,5.463,5.463,0,0,1,2.319-1.445,8.97,8.97,0,0,1,3.29-.522,9.1,9.1,0,0,1,3.3.7,8.7,8.7,0,0,1,2.768,1.821l.716.722q2.428,2.428,1.857,4.564t-4.133,3.52l-.771.285-1.615-1.608.692-.261Q207.261,189.783,205.337,187.391Zm-2.859,0a2.167,2.167,0,0,0,1.08-.722,1.25,1.25,0,0,0,.255-.886l-.8-.8a4.819,4.819,0,0,0-2.143-1.311,3.5,3.5,0,0,0-2.191.042,1.348,1.348,0,0,0-1.032,1.1,1.979,1.979,0,0,0,.722,1.566,4.151,4.151,0,0,0,1.912,1.1,3.575,3.575,0,0,0,2.2-.061Z" transform="translate(-76.305 -71.39)" fill="#fff"/>
        <path id="Trazado_130060" data-name="Trazado 130060" d="M191.991,228.3c1.117,1.123,1.6,2.173,1.445,3.144s-.941,1.718-2.349,2.228a6.762,6.762,0,0,1-3.642.273l3.423,3.435-3.168,1.141-10.1-10.075,2.944-1.056.819.674a2.98,2.98,0,0,1,2.161-1.93,7.4,7.4,0,0,1,4.407-.231,8.5,8.5,0,0,1,3.957,2.313Zm-3.314,1a5.141,5.141,0,0,0-2.149-1.36,3.551,3.551,0,0,0-2.258.061c-1,.358-1.445.838-1.354,1.439l2.974,2.986a3.9,3.9,0,0,0,2.8,0q2.27-.832-.012-3.114Z" transform="translate(-69.805 -88.698)" fill="#fff"/>
        <path id="Trazado_130061" data-name="Trazado 130061" d="M206.912,220.578c-.467.121-.862.243-1.214.358-1.214.431-1.736.965-1.608,1.6l4.759,4.765-3.174,1.141-7.283-7.283,3-1.08.953.838q-.042-1.347,1.645-1.954a6.071,6.071,0,0,1,1.074-.267Z" transform="translate(-77.976 -85.955)" fill="#fff"/>
        <path id="Trazado_130062" data-name="Trazado 130062" d="M226.047,221.7a10.549,10.549,0,0,1-5.232.546,7.374,7.374,0,0,1-4.249-2.027l-.188-.188a4.073,4.073,0,0,1-1.269-2.215,2.428,2.428,0,0,1,.607-2.033,5.638,5.638,0,0,1,2.428-1.511,8.941,8.941,0,0,1,4.771-.431A7.593,7.593,0,0,1,226.981,216l.8.8-7.557,2.719a4.249,4.249,0,0,0,2.07.813,5.189,5.189,0,0,0,2.385-.273q1.821-.668,2.052-1.821l2.628.51a2.658,2.658,0,0,1-.971,1.657,6.889,6.889,0,0,1-2.337,1.293Zm-6.337-5.857a1.687,1.687,0,0,0-1.141.947,1.578,1.578,0,0,0,.37,1.39l4.413-1.584-.158-.158a2.974,2.974,0,0,0-1.572-.8,3.715,3.715,0,0,0-1.912.2Z" transform="translate(-84.535 -83.989)" fill="#fff"/>
        <path id="Trazado_130063" data-name="Trazado 130063" d="M236.17,212.04c-1.117-1.123-1.584-2.173-1.4-3.168s1.014-1.754,2.482-2.288a6.749,6.749,0,0,1,3.86-.267l-.558-.734,2.877-1.032,7.029,7.041a2.762,2.762,0,0,1,.953,1.918,2.428,2.428,0,0,1-.917,1.821,7.891,7.891,0,0,1-2.634,1.451,11.308,11.308,0,0,1-2.865.607,8.648,8.648,0,0,1-2.7-.152l.225-1.687a6.871,6.871,0,0,0,3.684-.225,2.476,2.476,0,0,0,1.554-1.117c.188-.443.03-.923-.473-1.426l-.388-.395a3.1,3.1,0,0,1-2.124,1.821,7.775,7.775,0,0,1-4.491.212,8.267,8.267,0,0,1-4.036-2.246Zm3.314-1a4.928,4.928,0,0,0,2.2,1.323,3.787,3.787,0,0,0,2.337-.079c.965-.346,1.439-.819,1.408-1.414l-3.035-3.065a4,4,0,0,0-2.719.067q-1.147.407-1.214,1.214a2.819,2.819,0,0,0,1.026,1.954Z" transform="translate(-92.26 -80.397)" fill="#fff"/>
        <path id="Trazado_130064" data-name="Trazado 130064" d="M266.687,204.739c-.2.862-.989,1.548-2.373,2.039a6.774,6.774,0,0,1-3.581.376,5.754,5.754,0,0,1-3-1.614L253,200.776l3.174-1.141,4.7,4.716a2.489,2.489,0,0,0,2.822.528c1.074-.382,1.584-.88,1.53-1.481l-5.183-5.141,3.18-1.147,7.284,7.283-2.98,1.074Z" transform="translate(-99.44 -77.473)" fill="#fff"/>
        <path id="Trazado_130065" data-name="Trazado 130065" d="M276.654,192.738l.941.807q.3-1.438,2.428-2.2a6.276,6.276,0,0,1,3.49-.334,6.13,6.13,0,0,1,2.974,1.7l4.7,4.7-3.174,1.141-4.649-4.661a2.428,2.428,0,0,0-1.335-.74,3.538,3.538,0,0,0-1.736.243c-.892.322-1.329.8-1.311,1.426l5.129,5.135-3.174,1.141-7.283-7.283Z" transform="translate(-107.556 -75.031)" fill="#fff"/>
        <path id="Trazado_130066" data-name="Trazado 130066" d="M295.79,183l1.791,1.821,2.027-.734,1.426,1.432-2.027.728,3.642,3.642a1.657,1.657,0,0,0,.832.486,2.209,2.209,0,0,0,1.141-.17,7.144,7.144,0,0,0,.886-.382l1.469,1.475a7.891,7.891,0,0,1-1.742.868q-3.332,1.214-5.463-.85l-3.921-3.921-1.73.607-1.426-1.426,1.73-.607-1.784-1.821Z" transform="translate(-115.02 -71.927)" fill="#fff"/>
        <path id="Trazado_130067" data-name="Trazado 130067" d="M322.118,186.914a4.068,4.068,0,0,1-.965-.54,3.187,3.187,0,0,1-2.209,1.863,7.6,7.6,0,0,1-3.508.419,4.376,4.376,0,0,1-2.707-1.147,1.635,1.635,0,0,1-.376-2.282,7.131,7.131,0,0,1,3.417-2.076l1.457-.528-.413-.419a2.428,2.428,0,0,0-1.214-.656,3.034,3.034,0,0,0-1.633.176,1.821,1.821,0,0,0-1.02.686.643.643,0,0,0,.188.813l-3.168,1.141a1.621,1.621,0,0,1-.534-1.4,2.427,2.427,0,0,1,.953-1.493,7.52,7.52,0,0,1,2.306-1.214,9.274,9.274,0,0,1,4.158-.607,5.153,5.153,0,0,1,3.187,1.438l3.156,3.162a5.85,5.85,0,0,0,2.033,1.4l.115.115Zm-3.97-.388a3.035,3.035,0,0,0,1.1-.656,1.026,1.026,0,0,0,.358-.832l-1.214-1.25-1.214.425q-2.379.856-1.523,1.918l.1.121a1.711,1.711,0,0,0,1.014.449,2.925,2.925,0,0,0,1.372-.176Z" transform="translate(-121.616 -70.597)" fill="#fff"/>
        <path id="Trazado_130068" data-name="Trazado 130068" d="M339.428,177.966a1.566,1.566,0,0,0-1.141-.352,11.674,11.674,0,0,0-2.215.3q-4.771.971-6.434-.686a1.578,1.578,0,0,1-.31-2.094,5.147,5.147,0,0,1,2.78-1.882,10.076,10.076,0,0,1,4.249-.643,4.7,4.7,0,0,1,3.035,1.214l-3.174,1.141a2.015,2.015,0,0,0-1.129-.534,3.265,3.265,0,0,0-1.639.219,1.905,1.905,0,0,0-1.02.668.546.546,0,0,0,.127.722,1.426,1.426,0,0,0,1.02.346,9.414,9.414,0,0,0,2.027-.261c.886-.188,1.657-.322,2.319-.395,2.052-.225,3.545.127,4.467,1.056a1.5,1.5,0,0,1,.218,2.118,6.058,6.058,0,0,1-2.986,1.906,10.422,10.422,0,0,1-2.974.607,8.273,8.273,0,0,1-2.707-.243,4.151,4.151,0,0,1-1.888-.989l3.035-1.08a2.343,2.343,0,0,0,1.414.571,4.388,4.388,0,0,0,1.821-.285,2.361,2.361,0,0,0,1.165-.71A.522.522,0,0,0,339.428,177.966Z" transform="translate(-129.336 -67.834)" fill="#fff"/>
        <path id="Trazado_130069" data-name="Trazado 130069" d="M367.677,167.813a1.542,1.542,0,0,0-1.141-.358,12.194,12.194,0,0,0-2.215.3q-4.771.977-6.434-.686a1.566,1.566,0,0,1-.31-2.088,5.1,5.1,0,0,1,2.78-1.888,10.172,10.172,0,0,1,4.249-.643,4.7,4.7,0,0,1,3.035,1.214l-3.168,1.141a2.015,2.015,0,0,0-1.129-.534,3.344,3.344,0,0,0-1.639.225,1.821,1.821,0,0,0-1.02.668.546.546,0,0,0,.127.722,1.451,1.451,0,0,0,1.02.34,9.414,9.414,0,0,0,2.027-.261c.886-.188,1.657-.316,2.319-.388,2.052-.225,3.545.127,4.467,1.056a1.487,1.487,0,0,1,.219,2.112,6.016,6.016,0,0,1-2.986,1.912,10.63,10.63,0,0,1-2.974.607,8.424,8.424,0,0,1-2.707-.243,4.158,4.158,0,0,1-1.857-.959l3.035-1.08a2.306,2.306,0,0,0,1.414.571,4.388,4.388,0,0,0,1.821-.285,2.361,2.361,0,0,0,1.165-.7.522.522,0,0,0-.1-.747Z" transform="translate(-140.439 -63.841)" fill="#fff"/>
        <path id="Trazado_130070" data-name="Trazado 130070" d="M378.4,161.658a4.031,4.031,0,0,1-1.244-2.179,2.386,2.386,0,0,1,.643-2.015,5.967,5.967,0,0,1,2.507-1.536,9.887,9.887,0,0,1,4.819-.5,7.976,7.976,0,0,1,4.146,1.821l.516.492q1.675,1.675,1.159,3.241c-.34,1.038-1.366,1.869-3.077,2.482a9.711,9.711,0,0,1-5.1.461,7.823,7.823,0,0,1-4.249-2.2Zm3.308-1a5,5,0,0,0,2.221,1.36,3.921,3.921,0,0,0,2.373-.1c.765-.279,1.184-.674,1.256-1.214s-.291-1.171-1.086-1.967a5,5,0,0,0-2.221-1.347,3.89,3.89,0,0,0-2.379.1c-.777.279-1.214.68-1.244,1.214A2.861,2.861,0,0,0,381.7,160.656Z" transform="translate(-148.227 -61.049)" fill="#fff"/>
        <path id="Trazado_130071" data-name="Trazado 130071" d="M407.494,149.212q1.748,1.748,1.505,3.168t-2.428,2.2a6.852,6.852,0,0,1-3.988.2l.607.825-2.853,1.02L390.02,146.311l3.168-1.141,3.708,3.715a2.84,2.84,0,0,1,2.094-1.821,7.484,7.484,0,0,1,4.388-.243,8.37,8.37,0,0,1,3.982,2.312Zm-3.314,1A5.184,5.184,0,0,0,402,148.8a3.575,3.575,0,0,0-2.2.1q-1.517.546-1.329,1.511l2.871,2.877a3.872,3.872,0,0,0,2.871,0q1.536-.552,1.093-1.657A5.082,5.082,0,0,0,404.18,150.208Z" transform="translate(-153.295 -57.058)" fill="#fff"/>
        <path id="Trazado_130072" data-name="Trazado 130072" d="M424.4,142.388c-.467.121-.868.243-1.214.358-1.214.431-1.736.965-1.615,1.6l4.759,4.765-3.168,1.141-7.284-7.283,2.992-1.08.953.838q-.042-1.347,1.645-1.954a6.07,6.07,0,0,1,1.074-.267Z" transform="translate(-163.459 -55.223)" fill="#fff"/>
        <path id="Trazado_130073" data-name="Trazado 130073" d="M443.527,143.505a10.482,10.482,0,0,1-5.232.546,7.338,7.338,0,0,1-4.249-2.027l-.188-.188a4.109,4.109,0,0,1-1.268-2.215,2.428,2.428,0,0,1,.607-2.033,5.651,5.651,0,0,1,2.428-1.511,8.965,8.965,0,0,1,4.777-.431,7.611,7.611,0,0,1,4.067,2.167l.789.8-7.557,2.719a4.249,4.249,0,0,0,2.07.813,5.189,5.189,0,0,0,2.385-.273c1.214-.443,1.906-1.056,2.052-1.821l2.628.51a2.677,2.677,0,0,1-.965,1.657A6.919,6.919,0,0,1,443.527,143.505Zm-6.337-5.851a1.669,1.669,0,0,0-1.141.941,1.578,1.578,0,0,0,.37,1.39l4.413-1.584-.158-.158a2.956,2.956,0,0,0-1.572-.8A3.642,3.642,0,0,0,437.19,137.654Z" transform="translate(-170.014 -53.257)" fill="#fff"/>
        <path id="Trazado_130074" data-name="Trazado 130074" d="M208.9,254.143l.91.777c.212-.935,1.032-1.663,2.464-2.173a5.772,5.772,0,0,1,4.249,0c.091-1.038.91-1.821,2.428-2.391a6.488,6.488,0,0,1,3.563-.346,6.027,6.027,0,0,1,3.035,1.742L230.2,256.4l-3.18,1.147-4.637-4.649a2.628,2.628,0,0,0-1.3-.765,3.15,3.15,0,0,0-1.675.219c-.953.34-1.335.856-1.141,1.542l5,5-3.168,1.141-4.631-4.643a2.61,2.61,0,0,0-1.317-.765,3.162,3.162,0,0,0-1.669.212c-.9.322-1.317.783-1.262,1.39l5.141,5.147-3.174,1.141-7.284-7.283Z" transform="translate(-80.928 -98.222)" fill="#fff"/>
        <path id="Trazado_130075" data-name="Trazado 130075" d="M253.081,250.331a4.247,4.247,0,0,1-.971-.54,3.139,3.139,0,0,1-2.209,1.863,7.581,7.581,0,0,1-3.508.419,4.425,4.425,0,0,1-2.707-1.147,1.633,1.633,0,0,1-.37-2.282,7.177,7.177,0,0,1,3.417-2.082l1.457-.522-.419-.419a2.428,2.428,0,0,0-1.214-.656,2.992,2.992,0,0,0-1.639.176,1.821,1.821,0,0,0-1.02.686.649.649,0,0,0,.194.813l-3.174,1.141a1.657,1.657,0,0,1-.534-1.4,2.458,2.458,0,0,1,.959-1.493,7.394,7.394,0,0,1,2.306-1.244,9.274,9.274,0,0,1,4.158-.577,5.153,5.153,0,0,1,3.187,1.439l3.15,3.162a5.924,5.924,0,0,0,2.039,1.4l.115.115Zm-3.976-.413a2.932,2.932,0,0,0,1.1-.656,1.056,1.056,0,0,0,.364-.832l-1.25-1.256-1.214.431c-1.59.571-2.094,1.214-1.523,1.918l.1.121a1.693,1.693,0,0,0,1.014.449,2.9,2.9,0,0,0,1.4-.176Z" transform="translate(-94.478 -95.52)" fill="#fff"/>
        <path id="Trazado_130076" data-name="Trazado 130076" d="M266.323,237.832a11.711,11.711,0,0,0-1.214.358c-1.214.431-1.736.959-1.608,1.59l4.759,4.771-3.156,1.141-7.284-7.284,3-1.074.953.838q-.049-1.347,1.645-1.954a4.97,4.97,0,0,1,1.074-.267Z" transform="translate(-101.335 -92.739)" fill="#fff"/>
        <path id="Trazado_130077" data-name="Trazado 130077" d="M278.034,235.246l-.443,1.111,2.221,2.228-3.174,1.135L266.32,229.4l3.168-1.141,5.718,5.73.134-.7.856-3.278L280,228.636l-1.262,4.582,8.9,2.574L284,237.1Z" transform="translate(-104.675 -89.716)" fill="#fff"/>
        <path id="Trazado_130078" data-name="Trazado 130078" d="M305.216,231.814a10.622,10.622,0,0,1-5.232.546,7.344,7.344,0,0,1-4.249-2.033l-.188-.188a4.1,4.1,0,0,1-1.269-2.209,2.428,2.428,0,0,1,.607-2.039,5.687,5.687,0,0,1,2.428-1.505,9.026,9.026,0,0,1,4.777-.437,7.648,7.648,0,0,1,4.06,2.173l.8.8-7.557,2.713a4.206,4.206,0,0,0,2.07.813,5.031,5.031,0,0,0,2.385-.273q1.821-.656,2.052-1.821l2.628.51a2.652,2.652,0,0,1-.971,1.663A6.932,6.932,0,0,1,305.216,231.814Zm-6.337-5.857a1.669,1.669,0,0,0-1.141.941,1.59,1.59,0,0,0,.37,1.4l4.413-1.584-.158-.158a3.035,3.035,0,0,0-1.59-.807,3.721,3.721,0,0,0-1.894.225Z" transform="translate(-115.652 -87.965)" fill="#fff"/>
        <path id="Trazado_130079" data-name="Trazado 130079" d="M312.39,215.64l1.791,1.821,2.027-.728,1.426,1.426-2.027.728,3.642,3.642a1.669,1.669,0,0,0,.832.492,2.288,2.288,0,0,0,1.141-.176,7.141,7.141,0,0,0,.886-.382l1.469,1.475a7.887,7.887,0,0,1-1.742.868q-3.332,1.214-5.463-.844l-3.921-3.927-1.73.607-1.426-1.426,1.73-.607-1.784-1.821Z" transform="translate(-121.545 -84.756)" fill="#fff"/>
        <path id="Trazado_130080" data-name="Trazado 130080" d="M320.307,212.049a.765.765,0,0,1-.243-.892,1.6,1.6,0,0,1,1.014-.753,3.266,3.266,0,0,1,1.578-.182,2.057,2.057,0,0,1,1.214.546.759.759,0,0,1,.237.9,1.633,1.633,0,0,1-1.008.747,3.29,3.29,0,0,1-1.572.176A2.034,2.034,0,0,1,320.307,212.049Zm12.515,7.957-3.18,1.147-7.283-7.283,3.18-1.141Z" transform="translate(-125.777 -82.615)" fill="#fff"/>
        <path id="Trazado_130081" data-name="Trazado 130081" d="M336.312,209.892l.941.807q.3-1.426,2.428-2.2a6.3,6.3,0,0,1,3.484-.328,6.07,6.07,0,0,1,2.974,1.693l4.7,4.71-3.144,1.135-4.667-4.649a2.5,2.5,0,0,0-1.335-.747,3.55,3.55,0,0,0-1.736.249q-1.341.479-1.311,1.42l5.129,5.141-3.168,1.141-7.283-7.283Z" transform="translate(-131.009 -81.776)" fill="#fff"/>
        <path id="Trazado_130082" data-name="Trazado 130082" d="M358.39,206.69q-1.675-1.675-1.4-3.162t2.482-2.288a6.755,6.755,0,0,1,3.86-.267l-.552-.734,2.871-1.038,7.029,7.047a2.75,2.75,0,0,1,.953,1.918,2.428,2.428,0,0,1-.917,1.791,7.763,7.763,0,0,1-2.634,1.457,11.254,11.254,0,0,1-2.865.607,8.849,8.849,0,0,1-2.7-.152l.225-1.693a6.81,6.81,0,0,0,3.684-.218,2.477,2.477,0,0,0,1.554-1.117c.194-.443.036-.923-.473-1.426l-.388-.394A3.084,3.084,0,0,1,367,208.838a7.7,7.7,0,0,1-4.485.219,8.26,8.26,0,0,1-4.042-2.246Zm3.314-.989a4.947,4.947,0,0,0,2.2,1.317,3.763,3.763,0,0,0,2.343-.073c.965-.346,1.432-.819,1.4-1.414l-3.035-3.071a4.036,4.036,0,0,0-2.719.073q-1.135.407-1.214,1.214A2.755,2.755,0,0,0,361.7,205.7Z" transform="translate(-140.299 -78.294)" fill="#fff"/>
        <path id="Trazado_130083" data-name="Trazado 130083" d="M392.72,195.057l-2.331-5.323,3.4-1.214,3.642,10.13.121.479c.237,1.214-.455,2.106-2.088,2.689a8.285,8.285,0,0,1-1.53.382l-1.475-1.475.492-.17a2.871,2.871,0,0,0,1.177-.649.825.825,0,0,0,.134-.813l-.225-.728L382.59,192.55,386,191.336Z" transform="translate(-150.375 -74.097)" fill="#fff"/>
        <path id="Trazado_130084" data-name="Trazado 130084" d="M246.911,283.35q1.681,1.687,1.445,3.144c-.152.977-.941,1.718-2.349,2.221a6.761,6.761,0,0,1-3.672.279l3.423,3.435-3.168,1.141L232.52,283.484l2.944-1.062.819.68a2.98,2.98,0,0,1,2.161-1.93,7.4,7.4,0,0,1,4.406-.231,8.449,8.449,0,0,1,3.957,2.306Zm-3.314,1a5.081,5.081,0,0,0-2.149-1.36,3.508,3.508,0,0,0-2.258.061c-1,.358-1.445.838-1.354,1.439l2.98,2.98a3.824,3.824,0,0,0,2.792,0Q245.876,286.625,243.6,284.352Z" transform="translate(-91.391 -110.331)" fill="#fff"/>
        <path id="Trazado_130085" data-name="Trazado 130085" d="M266.957,279.4c-.2.862-1,1.548-2.373,2.039a6.8,6.8,0,0,1-3.587.376,5.736,5.736,0,0,1-2.992-1.6l-4.765-4.777,3.168-1.141,4.7,4.716a2.5,2.5,0,0,0,2.828.528c1.074-.382,1.584-.88,1.53-1.481l-5.153-5.165,3.18-1.147,7.284,7.283-2.986,1.074Z" transform="translate(-99.534 -106.81)" fill="#fff"/>
        <path id="Trazado_130086" data-name="Trazado 130086" d="M286.484,267.5q1.748,1.748,1.505,3.168t-2.428,2.2a6.755,6.755,0,0,1-3.988.2l.607.826-2.853,1.026L269.01,264.6l3.168-1.141,3.7,3.715a2.916,2.916,0,0,1,2.1-1.821,7.484,7.484,0,0,1,4.388-.243,8.352,8.352,0,0,1,3.982,2.313Zm-3.314,1a5.123,5.123,0,0,0-2.179-1.408,3.55,3.55,0,0,0-2.209.1c-1.008.364-1.451.868-1.323,1.511l2.871,2.877a3.842,3.842,0,0,0,2.871,0c1.026-.364,1.39-.916,1.092-1.651A5.079,5.079,0,0,0,283.17,268.5Z" transform="translate(-105.733 -103.551)" fill="#fff"/>
        <path id="Trazado_130087" data-name="Trazado 130087" d="M303.669,266.188l-3.18,1.141L290.17,257.011l3.18-1.141Z" transform="translate(-114.05 -100.568)" fill="#fff"/>
        <path id="Trazado_130088" data-name="Trazado 130088" d="M301.4,255.023a.759.759,0,0,1-.237-.892,1.6,1.6,0,0,1,1.014-.747,3.259,3.259,0,0,1,1.578-.182,2.058,2.058,0,0,1,1.214.546.759.759,0,0,1,.237.9,1.651,1.651,0,0,1-1.008.747,3.29,3.29,0,0,1-1.572.176A2.076,2.076,0,0,1,301.4,255.023Zm12.521,7.963-3.168,1.141-7.283-7.283,3.18-1.141Z" transform="translate(-118.347 -99.508)" fill="#fff"/>
        <path id="Trazado_130089" data-name="Trazado 130089" d="M326.449,258.236a1.93,1.93,0,0,0,1.129-.813.813.813,0,0,0-.212-.989l2.968-1.068a2.112,2.112,0,0,1,.7,1.59,2.318,2.318,0,0,1-.819,1.578,6.15,6.15,0,0,1-2.143,1.214,9.451,9.451,0,0,1-5.007.449,7.89,7.89,0,0,1-4.206-2.215l-.127-.127q-1.681-1.687-1.214-3.211c.31-1.02,1.3-1.821,3-2.428a9.05,9.05,0,0,1,4.346-.5,5.906,5.906,0,0,1,3.435,1.578l-2.974,1.068a2.829,2.829,0,0,0-1.487-.68,3.532,3.532,0,0,0-1.821.164c-.741.267-1.129.607-1.178,1.1s.3,1.068,1.038,1.821l.2.206a5.184,5.184,0,0,0,2.179,1.414A3.545,3.545,0,0,0,326.449,258.236Z" transform="translate(-124.757 -98.904)" fill="#fff"/>
        <path id="Trazado_130090" data-name="Trazado 130090" d="M330.518,244.559a.777.777,0,0,1-.243-.892,1.633,1.633,0,0,1,1.02-.753,3.259,3.259,0,0,1,1.578-.182,2.058,2.058,0,0,1,1.214.546.777.777,0,0,1,.237.9,1.651,1.651,0,0,1-1.008.747,3.29,3.29,0,0,1-1.572.176,2.052,2.052,0,0,1-1.226-.546Zm12.522,7.957-3.18,1.147-7.283-7.283,3.18-1.141Z" transform="translate(-129.792 -95.393)" fill="#fff"/>
        <path id="Trazado_130091" data-name="Trazado 130091" d="M347.783,244.734q-1.706-1.706-1.463-3.162t2.428-2.234a6.634,6.634,0,0,1,3.642-.237l-3.708-3.721,3.18-1.141,10.318,10.318-2.865,1.032-.923-.722a2.9,2.9,0,0,1-2.143,2.009,7.447,7.447,0,0,1-4.376.194,8.594,8.594,0,0,1-4.091-2.337Zm3.314-1a5.153,5.153,0,0,0,2.149,1.36,3.478,3.478,0,0,0,2.234-.061c.983-.352,1.42-.856,1.317-1.505l-2.877-2.883a3.836,3.836,0,0,0-2.81,0Q348.815,241.457,351.1,243.739Z" transform="translate(-136.107 -92.067)" fill="#fff"/>
        <path id="Trazado_130092" data-name="Trazado 130092" d="M379.6,241.024a4.427,4.427,0,0,1-.971-.534,3.139,3.139,0,0,1-2.209,1.863,7.581,7.581,0,0,1-3.508.419,4.431,4.431,0,0,1-2.707-1.153,1.632,1.632,0,0,1-.37-2.276,7.13,7.13,0,0,1,3.417-2.082l1.457-.522-.419-.419a2.306,2.306,0,0,0-1.214-.656,2.974,2.974,0,0,0-1.633.176,1.821,1.821,0,0,0-1.026.686.637.637,0,0,0,.194.807l-3.174,1.141a1.621,1.621,0,0,1-.528-1.4,2.392,2.392,0,0,1,.953-1.487,7.52,7.52,0,0,1,2.306-1.25,9.262,9.262,0,0,1,4.158-.57,5.092,5.092,0,0,1,3.187,1.438l3.15,3.156a5.949,5.949,0,0,0,2.039,1.4l.115.115Zm-3.97-.407a2.882,2.882,0,0,0,1.1-.656,1.05,1.05,0,0,0,.364-.832l-1.25-1.25-1.184.425q-2.379.856-1.523,1.924l.1.115a1.657,1.657,0,0,0,1.014.449A2.925,2.925,0,0,0,375.634,240.617Z" transform="translate(-144.208 -91.864)" fill="#fff"/>
        <path id="Trazado_130093" data-name="Trazado 130093" d="M388.484,230.1c-1.135-1.135-1.621-2.185-1.463-3.162s.959-1.712,2.4-2.234a6.713,6.713,0,0,1,3.642-.231l-3.715-3.721,3.187-1.141,10.318,10.318-2.865,1.032-.923-.722a2.9,2.9,0,0,1-2.143,2,7.441,7.441,0,0,1-4.376.2,8.606,8.606,0,0,1-4.061-2.343Zm3.314-1a5.183,5.183,0,0,0,2.149,1.366,3.5,3.5,0,0,0,2.24-.061q1.469-.528,1.311-1.511l-2.877-2.877a3.806,3.806,0,0,0-2.81,0Q389.516,226.815,391.8,229.1Z" transform="translate(-152.105 -86.316)" fill="#fff"/>
      </g>
    </g>
    <g id="img_1-02-2" data-name="img_1-02" transform="translate(-4018.069 -10670.725)" style="isolation: isolate">
      <g id="Layer_1-2" data-name="Layer 1">
        <path id="Trazado_130002-2" data-name="Trazado 130002" d="M400.118,253.353l2.7-3.878L161.881,34.09,2.161,110.585l-.941,5.578,199.719,246.23Z" transform="translate(-0.48 -13.399)" fill="#bcbec0"/>
        <path id="Trazado_130003-2" data-name="Trazado 130003" d="M402.819,247.006,164.825,27.81,1.22,109.731,201.461,357.588Z" transform="translate(-0.48 -10.931)" fill="#fefefe"/>
        <g id="Grupo_57793-2" data-name="Grupo 57793" transform="translate(2.17 78.71)" opacity="0.5" style="mix-blend-mode: multiply;isolation: isolate">
          <path id="Trazado_130004-2" data-name="Trazado 130004" d="M401.043,290.444,301.454,345.2,201.864,399.97l-99.1-125.033L3.639,149.9c-.455-.564,1.59-11.678,3.927-12.546l12.048-7.678L203.6,202.151l183.962,72.477Z" transform="translate(-3.575 -129.68)" opacity="0"/>
          <path id="Trazado_130005-2" data-name="Trazado 130005" d="M7.6,137.733,19.585,130l184.06,72.452,184.1,72.44s6.488,7.587,6.488,7.6l6.61,8.115-99.413,54.626-99.407,54.626L102.889,274.923,3.955,150.2C3.506,149.647,5.315,138.576,7.6,137.733Z" transform="translate(-3.697 -129.806)" opacity="0.02"/>
          <path id="Trazado_130006-2" data-name="Trazado 130006" d="M7.61,138.085l11.969-7.745L203.76,202.756,387.917,275.2s6.513,7.557,6.47,7.575l6.221,8.03-99.231,54.486L202.146,399.8,103.005,274.9,4.254,150.479C3.823,149.945,5.389,138.91,7.61,138.085Z" transform="translate(-3.813 -129.939)" opacity="0.05"/>
          <path id="Trazado_130007-2" data-name="Trazado 130007" d="M7.631,138.443c0-.03,11.951-7.763,11.951-7.763l184.254,72.386,184.26,72.38s6.519,7.526,6.458,7.557l5.839,7.945L301.338,345.33l-99.049,54.389L103.124,274.893,4.56,150.764C4.141,150.236,5.471,139.244,7.631,138.443Z" transform="translate(-3.932 -130.073)" opacity="0.07"/>
          <path id="Trazado_130008-2" data-name="Trazado 130008" d="M7.659,138.787C7.623,138.745,19.58,131,19.58,131l184.345,72.361,184.345,72.355s6.531,7.49,6.452,7.532l5.463,7.89L301.317,345.4l-98.873,54.262L103.273,274.849,4.873,151.03C4.46,150.526,5.523,139.57,7.659,138.787Z" transform="translate(-4.051 -130.199)" opacity="0.1"/>
          <path id="Trazado_130009-2" data-name="Trazado 130009" d="M7.679,139.143c-.042-.049,11.9-7.793,11.9-7.793l184.436,72.319,184.436,72.325s6.537,7.49,6.434,7.49l5.074,7.775-98.691,54.134-98.7,54.141L103.4,274.859,5.178,151.319C4.777,150.821,5.639,139.9,7.679,139.143Z" transform="translate(-4.167 -130.336)" opacity="0.12"/>
          <path id="Trazado_130010-2" data-name="Trazado 130010" d="M7.694,139.5c-.049-.061,11.878-7.818,11.878-7.818l184.515,72.295L388.6,276.269s6.549,7.423,6.428,7.49l4.686,7.69-98.509,54.019-98.515,54.019L103.526,274.837,5.479,151.594C5.09,151.115,5.7,140.232,7.694,139.5Z" transform="translate(-4.28 -130.466)" opacity="0.15"/>
          <path id="Trazado_130011-2" data-name="Trazado 130011" d="M7.681,139.842c0-.073,11.878-7.842,11.878-7.842l184.612,72.27,184.612,72.264s6.555,7.393,6.416,7.472l4.3,7.623-98.327,53.886-98.327,53.892L103.64,274.817,5.775,151.872C5.4,151.423,5.769,140.558,7.681,139.842Z" transform="translate(-4.388 -130.592)" opacity="0.17"/>
          <path id="Trazado_130012-2" data-name="Trazado 130012" d="M7.715,140.2c-.067-.079,11.824-7.848,11.824-7.848l184.7,72.228,184.709,72.24s6.561,7.362,6.4,7.447l3.915,7.5-98.157,53.782-98.157,53.764L103.753,274.8,6.064,152.167C5.693,151.7,5.833,140.9,7.715,140.2Z" transform="translate(-4.488 -130.729)" opacity="0.2"/>
          <path id="Trazado_130013-2" data-name="Trazado 130013" d="M7.71,140.54c-.073-.091,11.805-7.89,11.805-7.89L204.3,204.878l184.788,72.228s6.573,7.332,6.391,7.429l3.539,7.429-97.987,53.612-97.963,53.643L103.858,274.793,6.344,152.419C5.986,151.975,5.889,141.214,7.71,140.54Z" transform="translate(-4.581 -130.847)" opacity="0.22"/>
          <path id="Trazado_130014-2" data-name="Trazado 130014" d="M7.69,140.89C7.612,140.8,19.484,133,19.484,133l184.879,72.173L389.241,277.34s6.579,7.284,6.379,7.411l3.156,7.344-97.811,53.534-97.793,53.515L103.948,274.761,6.61,152.7C6.264,152.277,5.924,141.552,7.69,140.89Z" transform="translate(-4.659 -130.985)" opacity="0.24"/>
          <path id="Trazado_130015-2" data-name="Trazado 130015" d="M7.656,141.27c-.091-.115,11.763-7.89,11.763-7.89L204.383,205.5l184.97,72.143s6.585,7.283,6.367,7.387l2.768,7.283L300.87,345.73l-97.617,53.412L104.022,274.764,6.861,153C6.527,152.572,5.95,141.9,7.656,141.27Z" transform="translate(-4.721 -131.134)" opacity="0.27"/>
          <path id="Trazado_130016-2" data-name="Trazado 130016" d="M7.612,141.611c-.1-.121,11.732-7.921,11.732-7.921L204.4,205.8l185.055,72.112s6.6,7.235,6.361,7.368l2.385,7.174-97.441,53.254-97.435,53.285L104.081,274.735,7.1,153.3C6.774,152.87,5.961,142.224,7.612,141.611Z" transform="translate(-4.768 -131.256)" opacity="0.29"/>
          <path id="Trazado_130017-2" data-name="Trazado 130017" d="M7.543,141.951C7.434,141.824,19.251,134,19.251,134l185.122,72.082,185.122,72.082s6.6,7.2,6.343,7.344l2.009,7.089-97.2,53.157L203.378,398.9,104.116,274.711,7.319,153.538C7,153.149,5.947,142.546,7.543,141.951Z" transform="translate(-4.797 -131.378)" opacity="0.32"/>
          <path id="Trazado_130018-2" data-name="Trazado 130018" d="M7.462,142.313c-.115-.146,11.69-7.963,11.69-7.963L204.383,206.4l185.231,72.052s6.616,7.174,6.337,7.326l1.621,7-97.077,53.024-97.113,53.018L104.144,274.7,7.5,153.821C7.219,153.451,5.926,142.878,7.462,142.313Z" transform="translate(-4.813 -131.516)" opacity="0.34"/>
          <path id="Trazado_130019-2" data-name="Trazado 130019" d="M7.376,142.665c-.127-.152,11.66-7.975,11.66-7.975l185.322,72.021L389.68,278.727s6.622,7.138,6.324,7.283l1.214,6.919L300.342,345.85l-96.9,52.9-99.28-124.062L7.716,154.1C7.425,153.742,5.889,143.212,7.376,142.665Z" transform="translate(-4.818 -131.649)" opacity="0.37"/>
          <path id="Trazado_130020-2" data-name="Trazado 130020" d="M7.275,143.006C7.141,142.848,18.91,135,18.91,135l185.413,72,185.413,71.991s6.628,7.107,6.312,7.283l.85,6.834L300.18,345.887l-96.718,52.775-99.292-124L7.9,154.374C7.621,154.028,5.848,143.534,7.275,143.006Z" transform="translate(-4.813 -131.771)" opacity="0.39"/>
          <path id="Trazado_130021-2" data-name="Trazado 130021" d="M7.165,143.372c-.14-.176,11.617-8.012,11.617-8.012l185.5,71.961,185.5,71.961s6.64,7.071,6.3,7.283l.473,6.749L300.04,345.937l-96.573,52.653-99.3-123.94L8.094,154.661C7.808,154.327,5.8,143.876,7.165,143.372Z" transform="translate(-4.801 -131.912)" opacity="0.41"/>
          <path id="Trazado_130022-2" data-name="Trazado 130022" d="M7.046,143.72c-.146-.182,11.593-8.03,11.593-8.03l185.589,71.93,185.619,71.93s6.646,7.047,6.288,7.241l.091,6.677-96.4,52.514-96.36,52.526-99.31-123.874L8.242,154.937C7.987,154.621,5.735,144.206,7.046,143.72Z" transform="translate(-4.779 -132.042)" opacity="0.44"/>
          <path id="Trazado_130023-2" data-name="Trazado 130023" d="M6.932,144.06c-.158-.17,11.563-8.06,11.563-8.06l185.68,71.912,185.65,71.9s6.677,7.016,6.282,7.223l-.3,6.579-96.16,52.392-96.16,52.411L104.166,274.6,8.413,155.2C8.164,154.9,5.675,144.528,6.932,144.06Z" transform="translate(-4.756 -132.164)" opacity="0.46"/>
          <path id="Trazado_130024-2" data-name="Trazado 130024" d="M6.8,144.426c-.164-.2,11.532-8.066,11.532-8.066L204.11,208.23,389.875,280.1s6.677,6.98,6.27,7.2l-.68,6.488-96.008,52.283-96,52.277L104.12,274.6,8.566,155.491C8.33,155.206,5.586,144.87,6.8,144.426Z" transform="translate(-4.721 -132.306)" opacity="0.49"/>
          <path id="Trazado_130025-2" data-name="Trazado 130025" d="M6.677,144.765c-.176-.212,11.532-8.085,11.532-8.085l185.826,71.845,185.874,71.839s6.677,6.95,6.258,7.174l-1.068,6.409L299.278,346.1,203.428,398.26,104.105,274.574,8.728,155.769C8.5,155.49,5.56,145.2,6.677,144.765Z" transform="translate(-4.695 -132.431)" opacity="0.51"/>
          <path id="Trazado_130026-2" data-name="Trazado 130026" d="M6.536,145.121c-.182-.231,11.5-8.121,11.5-8.121l185.959,71.827L389.92,280.636s6.677,6.913,6.246,7.15l-1.445,6.324-95.644,52.034-95.65,52.028L104.074,274.555,8.873,156.04C8.661,155.779,5.456,145.5,6.536,145.121Z" transform="translate(-4.652 -132.557)" opacity="0.54"/>
          <path id="Trazado_130027-2" data-name="Trazado 130027" d="M6.407,145.481c-.194-.231,11.471-8.121,11.471-8.121L203.91,209.139l186.032,71.779s6.676,6.889,6.233,7.132l-1.821,6.24L298.881,346.2l-95.468,51.937L104.048,274.544,9.023,156.327C8.822,156.079,5.381,145.863,6.407,145.481Z" transform="translate(-4.613 -132.699)" opacity="0.56"/>
          <path id="Trazado_130028-2" data-name="Trazado 130028" d="M6.265,145.829c-.2-.243,11.447-8.139,11.447-8.139l186.123,71.754,186.123,71.748s6.677,6.853,6.221,7.107l-2.215,6.173-95.292,51.786L203.38,398.038l-99.365-123.51L9.166,156.6C8.978,156.372,5.293,146.187,6.265,145.829Z" transform="translate(-4.568 -132.828)" opacity="0.59"/>
          <path id="Trazado_130029-2" data-name="Trazado 130029" d="M6.121,146.176c-.206-.255,11.4-8.176,11.4-8.176L203.74,209.718l186.226,71.736s6.677,6.822,6.215,7.089l-2.6,6.07-95.11,51.658-95.11,51.658L103.981,274.5,9.3,156.87C9.132,156.652,5.211,146.5,6.121,146.176Z" transform="translate(-4.522 -132.95)" opacity="0.61"/>
          <path id="Trazado_130030-2" data-name="Trazado 130030" d="M5.976,146.536c-.212-.261,11.4-8.176,11.4-8.176l186.3,71.688,186.3,71.694s6.713,6.786,6.2,7.065l-2.992,5.985-94.916,51.537L203.34,397.858l-99.4-123.364L9.454,157.163C9.284,156.957,5.126,146.851,5.976,146.536Z" transform="translate(-4.474 -133.092)" opacity="0.63"/>
          <path id="Trazado_130031-2" data-name="Trazado 130031" d="M5.837,146.888c-.225-.267,11.374-8.188,11.374-8.188L203.6,210.357l186.384,71.657s6.725,6.786,6.185,7.047l-3.363,5.9L298.056,346.37,203.31,397.779,103.9,274.476,9.594,157.443C9.436,157.249,5.036,147.185,5.837,146.888Z" transform="translate(-4.426 -133.225)" opacity="0.66"/>
          <path id="Trazado_130032-2" data-name="Trazado 130032" d="M5.688,147.242c-.231-.285,11.35-8.212,11.35-8.212l186.481,71.6,186.475,71.621s6.731,6.731,6.179,7.029l-3.751,5.815-94.57,51.318L203.283,397.7,103.863,274.484,9.73,157.718C9.585,157.536,4.948,147.509,5.688,147.242Z" transform="translate(-4.374 -133.355)" opacity="0.68"/>
          <path id="Trazado_130033-2" data-name="Trazado 130033" d="M5.537,147.59c-.237-.291,11.332-8.23,11.332-8.23l186.566,71.621L390,282.559s6.737,6.677,6.167,7l-4.133,5.73-94.388,51.16-94.388,51.16L103.822,274.438,9.865,157.994C9.731,157.83,4.851,147.845,5.537,147.59Z" transform="translate(-4.32 -133.485)" opacity="0.71"/>
          <path id="Trazado_130034-2" data-name="Trazado 130034" d="M5.386,147.949c-.249-.3,11.308-8.249,11.308-8.249l186.657,71.566L390,282.832s6.749,6.677,6.155,6.986l-4.51,5.645L297.435,346.5l-94.212,51.033L103.779,274.426,9.986,158.279C9.877,158.121,4.761,148.179,5.386,147.949Z" transform="translate(-4.266 -133.618)" opacity="0.73"/>
          <path id="Trazado_130035-2" data-name="Trazado 130035" d="M5.242,148.285C4.981,147.969,16.526,140,16.526,140l186.742,71.56L390.01,283.1s6.755,6.628,6.142,6.962l-4.9,5.56-94.03,50.911-94.036,50.912-99.45-123.048-93.6-115.85C10.025,158.4,4.672,148.5,5.242,148.285Z" transform="translate(-4.213 -133.736)" opacity="0.76"/>
          <path id="Trazado_130036-2" data-name="Trazado 130036" d="M5.088,148.639c-.267-.322,11.259-8.279,11.259-8.279l186.833,71.512,186.833,71.512s6.762,6.6,6.13,6.944l-5.281,5.463-93.854,50.79-93.854,50.8L103.688,274.388,10.266,158.83C10.168,158.7,4.572,148.839,5.088,148.639Z" transform="translate(-4.156 -133.878)" opacity="0.78"/>
          <path id="Trazado_130037-2" data-name="Trazado 130037" d="M4.981,149c-.273-.334,11.235-8.3,11.235-8.3l186.943,71.475L390.1,283.656s6.774,6.561,6.124,6.919l-5.669,5.384L296.812,346.64,203.141,397.3,103.66,274.37,10.444,159.091C10.329,159,4.5,149.173,4.981,149Z" transform="translate(-4.116 -134.011)" opacity="0.8"/>
          <path id="Trazado_130038-2" data-name="Trazado 130038" d="M4.778,149.355c-.279-.34,11.217-8.315,11.217-8.315L203,212.485,390.013,283.93s6.78,6.537,6.106,6.9l-6.07,5.3-93.471,50.541-93.471,50.547L103.6,274.358,10.532,159.388C10.453,159.291,4.384,149.513,4.778,149.355Z" transform="translate(-4.04 -134.145)" opacity="0.83"/>
          <path id="Trazado_130039-2" data-name="Trazado 130039" d="M4.631,149.7c-.291-.352,11.186-8.334,11.186-8.334l187.1,71.4,187.094,71.439s6.792,6.5,6.07,6.877L389.66,296.3l-93.3,50.42-93.313,50.42-99.5-122.8L10.689,159.67C10.6,159.585,4.285,149.831,4.631,149.7Z" transform="translate(-3.985 -134.275)" opacity="0.85"/>
          <path id="Trazado_130040-2" data-name="Trazado 130040" d="M4.474,150.058c-.3-.364,11.162-8.358,11.162-8.358l187.191,71.39,187.185,71.384s6.8,6.47,6.07,6.859l-6.816,5.129-93.137,50.292-93.113,50.3L103.5,274.32,10.792,159.945C10.738,159.872,4.183,150.161,4.474,150.058Z" transform="translate(-3.924 -134.404)" opacity="0.88"/>
          <path id="Trazado_130041-2" data-name="Trazado 130041" d="M4.316,150.394C4.013,150.024,15.46,142,15.46,142l187.276,71.378,187.276,71.36s6.8,6.434,6.07,6.834l-7.2,5.044-92.955,50.171-92.955,50.171L103.456,274.316,10.92,160.209C10.877,160.154,4.122,150.5,4.316,150.394Z" transform="translate(-3.864 -134.522)" opacity="0.9"/>
          <path id="Trazado_130042-2" data-name="Trazado 130042" d="M4.156,150.764c-.31-.388,11.119-8.394,11.119-8.394L202.643,213.7,390,285.023s6.816,6.4,6.07,6.816l-7.587,4.959-92.773,50.044-92.779,50.05L103.393,274.286,11.045,160.5C11.015,160.457,3.986,150.825,4.156,150.764Z" transform="translate(-3.801 -134.668)" opacity="0.93"/>
          <path id="Trazado_130043-2" data-name="Trazado 130043" d="M4,151.116c-.328-.395,11.089-8.406,11.089-8.406L202.549,214,390.02,285.3s6.822,6.379,6.069,6.8l-7.963,4.856-92.634,49.94-92.6,49.922L103.354,274.268l-92.178-113.5C11.152,160.755,3.886,151.159,4,151.116Z" transform="translate(-3.737 -134.801)" opacity="0.95"/>
          <path id="Trazado_130044-2" data-name="Trazado 130044" d="M3.845,151.449c-.334-.4,11.071-8.449,11.071-8.449l187.55,71.263,187.549,71.269s6.834,6.343,6.07,6.774l-8.352,4.789-92.458,49.843-92.421,49.77L103.313,274.23,11.3,161.045S3.791,151.5,3.845,151.449Z" transform="translate(-3.678 -134.915)" opacity="0.98"/>
          <path id="Trazado_130045-2" data-name="Trazado 130045" d="M396.028,292.6,202.815,396.647l-99.565-122.4L3.685,151.819c-.34-.413,11.047-8.449,11.047-8.449l187.616,71.238,187.647,71.232S396.835,292.153,396.028,292.6Z" transform="translate(-3.615 -135.061)"/>
        </g>
        <path id="Trazado_130046-2" data-name="Trazado 130046" d="M221.052,357.813c-.765-2.5-149.512-180.175-207.112-248.913a26.354,26.354,0,0,1-.061,2.865c-.206,2.24-.522,4.473-.874,6.677-.789,4.971-1.724,9.948-2.725,14.883-.607,3.071-1.366,6.112-2.13,9.147L204.573,383.1S221.871,360.477,221.052,357.813Z" transform="translate(-3.203 -42.802)" fill="url(#linear-gradient)"/>
        <path id="Trazado_130047-2" data-name="Trazado 130047" d="M539.9,347.95,524.63,372.6,331.77,477.056,348.9,447.734Z" transform="translate(-130.4 -136.76)" fill="url(#linear-gradient-2)"/>
        <path id="Trazado_130048-2" data-name="Trazado 130048" d="M222.5,359.46l-1.584,2.707C208.811,346.386,81.229,193.937,22.1,123.36c-.261.607-.516,1.214-.8,1.821-.892,1.882-1.936,3.7-2.883,5.56-2.24,4.394-4.328,8.874-6.2,13.438-.74,1.821-1.414,3.642-2.064,5.463L205.369,388.782,398.12,284.5l14.961-24.127Z" transform="translate(-3.993 -48.486)" opacity="0.3" fill="url(#radial-gradient)" style="mix-blend-mode: multiply;isolation: isolate"/>
        <path id="Trazado_130049-2" data-name="Trazado 130049" d="M422.025,207.42l-3.4,3.763L225.183,312.763l-16.71,33.807-3.035,1.614L221.268,314.8,9.27,69.944l.983-5.912a4.1,4.1,0,0,1,2.865-3.259l5.748-1.754a4.7,4.7,0,0,0,1.5,0,6.264,6.264,0,0,0,1.4-.868h0L198.246,5Z" transform="translate(-3.644 -1.965)" fill="#d1d3d4"/>
        <path id="Trazado_130050-2" data-name="Trazado 130050" d="M423.717,205.455,234.061,305.6l-2.331,1.214-7.89,4.158L13.961,61.418a1.627,1.627,0,0,1,.777-2.61l5.821-1.754a4.7,4.7,0,0,0,1.5,0,6.264,6.264,0,0,0,1.4-.868h0L210.062,0Z" transform="translate(-5.336)" fill="#12263f"/>
        <path id="Trazado_130051-2" data-name="Trazado 130051" d="M6.6,99.086,0,138.806l200.459,247.14L218.5,347.92l7.132-3.769L15.229,94,9.572,95.7A4.249,4.249,0,0,0,6.6,99.086Z" transform="translate(0 -36.946)" fill="#7d6eb2"/>
        <path id="Trazado_130052-2" data-name="Trazado 130052" d="M238.644,342.029l-2.385,1.214-.036-.042-.413-.486L25.08,93.438a4.7,4.7,0,0,0,1.5,0,6.264,6.264,0,0,0,1.4-.868h0L238.6,341.962Z" transform="translate(-9.858 -36.384)" fill="url(#linear-gradient-3)"/>
        <path id="Trazado_130053-2" data-name="Trazado 130053" d="M55.917,87.019,243.776,26.263,216.463,0,29.86,56.186Z" transform="translate(-11.736)" fill="#f5ca56"/>
        <path id="Trazado_130054-2" data-name="Trazado 130054" d="M119.58,159.441,311.2,91.881,260.649,43.27,72.79,104.026Z" transform="translate(-28.61 -17.007)" fill="#7d6eb2"/>
        <path id="Trazado_130055-2" data-name="Trazado 130055" d="M294.1,349.357,486.147,262.72l15.781,15.174L309.426,367.5Z" transform="translate(-115.594 -103.26)" fill="#f5ca56"/>
        <path id="Trazado_130056-2" data-name="Trazado 130056" d="M319.35,377.331l34.894,41.328L543.9,318.541,511.852,287.72Z" transform="translate(-125.519 -113.087)" fill="#7d6eb2"/>
        <path id="Trazado_130057-2" data-name="Trazado 130057" d="M167.1,206.321l-3.168,1.141-7.472-7.5-3.065,2.082-1.578-1.584,5.165-3.83.34-.127Z" transform="translate(-59.672 -77.233)" fill="#fff"/>
        <path id="Trazado_130058-2" data-name="Trazado 130058" d="M184.1,195.016a3.356,3.356,0,0,1-2.149,1.784,7.818,7.818,0,0,1-4.279.328A7.01,7.01,0,0,1,174,195.162a3.417,3.417,0,0,1-1.074-2.015,2.428,2.428,0,0,1,.662-1.942,5.462,5.462,0,0,1,2.319-1.438,8.971,8.971,0,0,1,3.29-.528,9.1,9.1,0,0,1,3.3.71,8.7,8.7,0,0,1,2.768,1.821l.722.722q2.428,2.428,1.857,4.564t-4.139,3.52l-.771.285-1.621-1.627.7-.255Q186.031,197.407,184.1,195.016Zm-2.853,0a2.215,2.215,0,0,0,1.08-.716,1.256,1.256,0,0,0,.255-.886l-.8-.8a4.941,4.941,0,0,0-2.149-1.317,3.5,3.5,0,0,0-2.191.049,1.335,1.335,0,0,0-1.032,1.1,1.954,1.954,0,0,0,.728,1.56,4.1,4.1,0,0,0,1.912,1.1,3.581,3.581,0,0,0,2.2-.073Z" transform="translate(-67.96 -74.377)" fill="#fff"/>
        <path id="Trazado_130059-2" data-name="Trazado 130059" d="M205.337,187.391a3.363,3.363,0,0,1-2.149,1.79,7.836,7.836,0,0,1-4.285.328,7.023,7.023,0,0,1-3.672-1.954,3.381,3.381,0,0,1-1.08-2.009,2.428,2.428,0,0,1,.668-1.942,5.463,5.463,0,0,1,2.319-1.445,8.97,8.97,0,0,1,3.29-.522,9.1,9.1,0,0,1,3.3.7,8.7,8.7,0,0,1,2.768,1.821l.716.722q2.428,2.428,1.857,4.564t-4.133,3.52l-.771.285-1.615-1.608.692-.261Q207.261,189.783,205.337,187.391Zm-2.859,0a2.167,2.167,0,0,0,1.08-.722,1.25,1.25,0,0,0,.255-.886l-.8-.8a4.819,4.819,0,0,0-2.143-1.311,3.5,3.5,0,0,0-2.191.042,1.348,1.348,0,0,0-1.032,1.1,1.979,1.979,0,0,0,.722,1.566,4.151,4.151,0,0,0,1.912,1.1,3.575,3.575,0,0,0,2.2-.061Z" transform="translate(-76.305 -71.39)" fill="#fff"/>
        <path id="Trazado_130060-2" data-name="Trazado 130060" d="M191.991,228.3c1.117,1.123,1.6,2.173,1.445,3.144s-.941,1.718-2.349,2.228a6.762,6.762,0,0,1-3.642.273l3.423,3.435-3.168,1.141-10.1-10.075,2.944-1.056.819.674a2.98,2.98,0,0,1,2.161-1.93,7.4,7.4,0,0,1,4.407-.231,8.5,8.5,0,0,1,3.957,2.313Zm-3.314,1a5.141,5.141,0,0,0-2.149-1.36,3.551,3.551,0,0,0-2.258.061c-1,.358-1.445.838-1.354,1.439l2.974,2.986a3.9,3.9,0,0,0,2.8,0q2.27-.832-.012-3.114Z" transform="translate(-69.805 -88.698)" fill="#fff"/>
        <path id="Trazado_130061-2" data-name="Trazado 130061" d="M206.912,220.578c-.467.121-.862.243-1.214.358-1.214.431-1.736.965-1.608,1.6l4.759,4.765-3.174,1.141-7.283-7.283,3-1.08.953.838q-.042-1.347,1.645-1.954a6.071,6.071,0,0,1,1.074-.267Z" transform="translate(-77.976 -85.955)" fill="#fff"/>
        <path id="Trazado_130062-2" data-name="Trazado 130062" d="M226.047,221.7a10.549,10.549,0,0,1-5.232.546,7.374,7.374,0,0,1-4.249-2.027l-.188-.188a4.073,4.073,0,0,1-1.269-2.215,2.428,2.428,0,0,1,.607-2.033,5.638,5.638,0,0,1,2.428-1.511,8.941,8.941,0,0,1,4.771-.431A7.593,7.593,0,0,1,226.981,216l.8.8-7.557,2.719a4.249,4.249,0,0,0,2.07.813,5.189,5.189,0,0,0,2.385-.273q1.821-.668,2.052-1.821l2.628.51a2.658,2.658,0,0,1-.971,1.657,6.889,6.889,0,0,1-2.337,1.293Zm-6.337-5.857a1.687,1.687,0,0,0-1.141.947,1.578,1.578,0,0,0,.37,1.39l4.413-1.584-.158-.158a2.974,2.974,0,0,0-1.572-.8,3.715,3.715,0,0,0-1.912.2Z" transform="translate(-84.535 -83.989)" fill="#fff"/>
        <path id="Trazado_130063-2" data-name="Trazado 130063" d="M236.17,212.04c-1.117-1.123-1.584-2.173-1.4-3.168s1.014-1.754,2.482-2.288a6.749,6.749,0,0,1,3.86-.267l-.558-.734,2.877-1.032,7.029,7.041a2.762,2.762,0,0,1,.953,1.918,2.428,2.428,0,0,1-.917,1.821,7.891,7.891,0,0,1-2.634,1.451,11.308,11.308,0,0,1-2.865.607,8.648,8.648,0,0,1-2.7-.152l.225-1.687a6.871,6.871,0,0,0,3.684-.225,2.476,2.476,0,0,0,1.554-1.117c.188-.443.03-.923-.473-1.426l-.388-.395a3.1,3.1,0,0,1-2.124,1.821,7.775,7.775,0,0,1-4.491.212,8.267,8.267,0,0,1-4.036-2.246Zm3.314-1a4.928,4.928,0,0,0,2.2,1.323,3.787,3.787,0,0,0,2.337-.079c.965-.346,1.439-.819,1.408-1.414l-3.035-3.065a4,4,0,0,0-2.719.067q-1.147.407-1.214,1.214a2.819,2.819,0,0,0,1.026,1.954Z" transform="translate(-92.26 -80.397)" fill="#fff"/>
        <path id="Trazado_130064-2" data-name="Trazado 130064" d="M266.687,204.739c-.2.862-.989,1.548-2.373,2.039a6.774,6.774,0,0,1-3.581.376,5.754,5.754,0,0,1-3-1.614L253,200.776l3.174-1.141,4.7,4.716a2.489,2.489,0,0,0,2.822.528c1.074-.382,1.584-.88,1.53-1.481l-5.183-5.141,3.18-1.147,7.284,7.283-2.98,1.074Z" transform="translate(-99.44 -77.473)" fill="#fff"/>
        <path id="Trazado_130065-2" data-name="Trazado 130065" d="M276.654,192.738l.941.807q.3-1.438,2.428-2.2a6.276,6.276,0,0,1,3.49-.334,6.13,6.13,0,0,1,2.974,1.7l4.7,4.7-3.174,1.141-4.649-4.661a2.428,2.428,0,0,0-1.335-.74,3.538,3.538,0,0,0-1.736.243c-.892.322-1.329.8-1.311,1.426l5.129,5.135-3.174,1.141-7.283-7.283Z" transform="translate(-107.556 -75.031)" fill="#fff"/>
        <path id="Trazado_130066-2" data-name="Trazado 130066" d="M295.79,183l1.791,1.821,2.027-.734,1.426,1.432-2.027.728,3.642,3.642a1.657,1.657,0,0,0,.832.486,2.209,2.209,0,0,0,1.141-.17,7.144,7.144,0,0,0,.886-.382l1.469,1.475a7.891,7.891,0,0,1-1.742.868q-3.332,1.214-5.463-.85l-3.921-3.921-1.73.607-1.426-1.426,1.73-.607-1.784-1.821Z" transform="translate(-115.02 -71.927)" fill="#fff"/>
        <path id="Trazado_130067-2" data-name="Trazado 130067" d="M322.118,186.914a4.068,4.068,0,0,1-.965-.54,3.187,3.187,0,0,1-2.209,1.863,7.6,7.6,0,0,1-3.508.419,4.376,4.376,0,0,1-2.707-1.147,1.635,1.635,0,0,1-.376-2.282,7.131,7.131,0,0,1,3.417-2.076l1.457-.528-.413-.419a2.428,2.428,0,0,0-1.214-.656,3.034,3.034,0,0,0-1.633.176,1.821,1.821,0,0,0-1.02.686.643.643,0,0,0,.188.813l-3.168,1.141a1.621,1.621,0,0,1-.534-1.4,2.427,2.427,0,0,1,.953-1.493,7.52,7.52,0,0,1,2.306-1.214,9.274,9.274,0,0,1,4.158-.607,5.153,5.153,0,0,1,3.187,1.438l3.156,3.162a5.85,5.85,0,0,0,2.033,1.4l.115.115Zm-3.97-.388a3.035,3.035,0,0,0,1.1-.656,1.026,1.026,0,0,0,.358-.832l-1.214-1.25-1.214.425q-2.379.856-1.523,1.918l.1.121a1.711,1.711,0,0,0,1.014.449,2.925,2.925,0,0,0,1.372-.176Z" transform="translate(-121.616 -70.597)" fill="#fff"/>
        <path id="Trazado_130068-2" data-name="Trazado 130068" d="M339.428,177.966a1.566,1.566,0,0,0-1.141-.352,11.674,11.674,0,0,0-2.215.3q-4.771.971-6.434-.686a1.578,1.578,0,0,1-.31-2.094,5.147,5.147,0,0,1,2.78-1.882,10.076,10.076,0,0,1,4.249-.643,4.7,4.7,0,0,1,3.035,1.214l-3.174,1.141a2.015,2.015,0,0,0-1.129-.534,3.265,3.265,0,0,0-1.639.219,1.905,1.905,0,0,0-1.02.668.546.546,0,0,0,.127.722,1.426,1.426,0,0,0,1.02.346,9.414,9.414,0,0,0,2.027-.261c.886-.188,1.657-.322,2.319-.395,2.052-.225,3.545.127,4.467,1.056a1.5,1.5,0,0,1,.218,2.118,6.058,6.058,0,0,1-2.986,1.906,10.422,10.422,0,0,1-2.974.607,8.273,8.273,0,0,1-2.707-.243,4.151,4.151,0,0,1-1.888-.989l3.035-1.08a2.343,2.343,0,0,0,1.414.571,4.388,4.388,0,0,0,1.821-.285,2.361,2.361,0,0,0,1.165-.71A.522.522,0,0,0,339.428,177.966Z" transform="translate(-129.336 -67.834)" fill="#fff"/>
        <path id="Trazado_130069-2" data-name="Trazado 130069" d="M367.677,167.813a1.542,1.542,0,0,0-1.141-.358,12.194,12.194,0,0,0-2.215.3q-4.771.977-6.434-.686a1.566,1.566,0,0,1-.31-2.088,5.1,5.1,0,0,1,2.78-1.888,10.172,10.172,0,0,1,4.249-.643,4.7,4.7,0,0,1,3.035,1.214l-3.168,1.141a2.015,2.015,0,0,0-1.129-.534,3.344,3.344,0,0,0-1.639.225,1.821,1.821,0,0,0-1.02.668.546.546,0,0,0,.127.722,1.451,1.451,0,0,0,1.02.34,9.414,9.414,0,0,0,2.027-.261c.886-.188,1.657-.316,2.319-.388,2.052-.225,3.545.127,4.467,1.056a1.487,1.487,0,0,1,.219,2.112,6.016,6.016,0,0,1-2.986,1.912,10.63,10.63,0,0,1-2.974.607,8.424,8.424,0,0,1-2.707-.243,4.158,4.158,0,0,1-1.857-.959l3.035-1.08a2.306,2.306,0,0,0,1.414.571,4.388,4.388,0,0,0,1.821-.285,2.361,2.361,0,0,0,1.165-.7.522.522,0,0,0-.1-.747Z" transform="translate(-140.439 -63.841)" fill="#fff"/>
        <path id="Trazado_130070-2" data-name="Trazado 130070" d="M378.4,161.658a4.031,4.031,0,0,1-1.244-2.179,2.386,2.386,0,0,1,.643-2.015,5.967,5.967,0,0,1,2.507-1.536,9.887,9.887,0,0,1,4.819-.5,7.976,7.976,0,0,1,4.146,1.821l.516.492q1.675,1.675,1.159,3.241c-.34,1.038-1.366,1.869-3.077,2.482a9.711,9.711,0,0,1-5.1.461,7.823,7.823,0,0,1-4.249-2.2Zm3.308-1a5,5,0,0,0,2.221,1.36,3.921,3.921,0,0,0,2.373-.1c.765-.279,1.184-.674,1.256-1.214s-.291-1.171-1.086-1.967a5,5,0,0,0-2.221-1.347,3.89,3.89,0,0,0-2.379.1c-.777.279-1.214.68-1.244,1.214A2.861,2.861,0,0,0,381.7,160.656Z" transform="translate(-148.227 -61.049)" fill="#fff"/>
        <path id="Trazado_130071-2" data-name="Trazado 130071" d="M407.494,149.212q1.748,1.748,1.505,3.168t-2.428,2.2a6.852,6.852,0,0,1-3.988.2l.607.825-2.853,1.02L390.02,146.311l3.168-1.141,3.708,3.715a2.84,2.84,0,0,1,2.094-1.821,7.484,7.484,0,0,1,4.388-.243,8.37,8.37,0,0,1,3.982,2.312Zm-3.314,1A5.184,5.184,0,0,0,402,148.8a3.575,3.575,0,0,0-2.2.1q-1.517.546-1.329,1.511l2.871,2.877a3.872,3.872,0,0,0,2.871,0q1.536-.552,1.093-1.657A5.082,5.082,0,0,0,404.18,150.208Z" transform="translate(-153.295 -57.058)" fill="#fff"/>
        <path id="Trazado_130072-2" data-name="Trazado 130072" d="M424.4,142.388c-.467.121-.868.243-1.214.358-1.214.431-1.736.965-1.615,1.6l4.759,4.765-3.168,1.141-7.284-7.283,2.992-1.08.953.838q-.042-1.347,1.645-1.954a6.07,6.07,0,0,1,1.074-.267Z" transform="translate(-163.459 -55.223)" fill="#fff"/>
        <path id="Trazado_130073-2" data-name="Trazado 130073" d="M443.527,143.505a10.482,10.482,0,0,1-5.232.546,7.338,7.338,0,0,1-4.249-2.027l-.188-.188a4.109,4.109,0,0,1-1.268-2.215,2.428,2.428,0,0,1,.607-2.033,5.651,5.651,0,0,1,2.428-1.511,8.965,8.965,0,0,1,4.777-.431,7.611,7.611,0,0,1,4.067,2.167l.789.8-7.557,2.719a4.249,4.249,0,0,0,2.07.813,5.189,5.189,0,0,0,2.385-.273c1.214-.443,1.906-1.056,2.052-1.821l2.628.51a2.677,2.677,0,0,1-.965,1.657A6.919,6.919,0,0,1,443.527,143.505Zm-6.337-5.851a1.669,1.669,0,0,0-1.141.941,1.578,1.578,0,0,0,.37,1.39l4.413-1.584-.158-.158a2.956,2.956,0,0,0-1.572-.8A3.642,3.642,0,0,0,437.19,137.654Z" transform="translate(-170.014 -53.257)" fill="#fff"/>
        <path id="Trazado_130074-2" data-name="Trazado 130074" d="M208.9,254.143l.91.777c.212-.935,1.032-1.663,2.464-2.173a5.772,5.772,0,0,1,4.249,0c.091-1.038.91-1.821,2.428-2.391a6.488,6.488,0,0,1,3.563-.346,6.027,6.027,0,0,1,3.035,1.742L230.2,256.4l-3.18,1.147-4.637-4.649a2.628,2.628,0,0,0-1.3-.765,3.15,3.15,0,0,0-1.675.219c-.953.34-1.335.856-1.141,1.542l5,5-3.168,1.141-4.631-4.643a2.61,2.61,0,0,0-1.317-.765,3.162,3.162,0,0,0-1.669.212c-.9.322-1.317.783-1.262,1.39l5.141,5.147-3.174,1.141-7.284-7.283Z" transform="translate(-80.928 -98.222)" fill="#fff"/>
        <path id="Trazado_130075-2" data-name="Trazado 130075" d="M253.081,250.331a4.247,4.247,0,0,1-.971-.54,3.139,3.139,0,0,1-2.209,1.863,7.581,7.581,0,0,1-3.508.419,4.425,4.425,0,0,1-2.707-1.147,1.633,1.633,0,0,1-.37-2.282,7.177,7.177,0,0,1,3.417-2.082l1.457-.522-.419-.419a2.428,2.428,0,0,0-1.214-.656,2.992,2.992,0,0,0-1.639.176,1.821,1.821,0,0,0-1.02.686.649.649,0,0,0,.194.813l-3.174,1.141a1.657,1.657,0,0,1-.534-1.4,2.458,2.458,0,0,1,.959-1.493,7.394,7.394,0,0,1,2.306-1.244,9.274,9.274,0,0,1,4.158-.577,5.153,5.153,0,0,1,3.187,1.439l3.15,3.162a5.924,5.924,0,0,0,2.039,1.4l.115.115Zm-3.976-.413a2.932,2.932,0,0,0,1.1-.656,1.056,1.056,0,0,0,.364-.832l-1.25-1.256-1.214.431c-1.59.571-2.094,1.214-1.523,1.918l.1.121a1.693,1.693,0,0,0,1.014.449,2.9,2.9,0,0,0,1.4-.176Z" transform="translate(-94.478 -95.52)" fill="#fff"/>
        <path id="Trazado_130076-2" data-name="Trazado 130076" d="M266.323,237.832a11.711,11.711,0,0,0-1.214.358c-1.214.431-1.736.959-1.608,1.59l4.759,4.771-3.156,1.141-7.284-7.284,3-1.074.953.838q-.049-1.347,1.645-1.954a4.97,4.97,0,0,1,1.074-.267Z" transform="translate(-101.335 -92.739)" fill="#fff"/>
        <path id="Trazado_130077-2" data-name="Trazado 130077" d="M278.034,235.246l-.443,1.111,2.221,2.228-3.174,1.135L266.32,229.4l3.168-1.141,5.718,5.73.134-.7.856-3.278L280,228.636l-1.262,4.582,8.9,2.574L284,237.1Z" transform="translate(-104.675 -89.716)" fill="#fff"/>
        <path id="Trazado_130078-2" data-name="Trazado 130078" d="M305.216,231.814a10.622,10.622,0,0,1-5.232.546,7.344,7.344,0,0,1-4.249-2.033l-.188-.188a4.1,4.1,0,0,1-1.269-2.209,2.428,2.428,0,0,1,.607-2.039,5.687,5.687,0,0,1,2.428-1.505,9.026,9.026,0,0,1,4.777-.437,7.648,7.648,0,0,1,4.06,2.173l.8.8-7.557,2.713a4.206,4.206,0,0,0,2.07.813,5.031,5.031,0,0,0,2.385-.273q1.821-.656,2.052-1.821l2.628.51a2.652,2.652,0,0,1-.971,1.663A6.932,6.932,0,0,1,305.216,231.814Zm-6.337-5.857a1.669,1.669,0,0,0-1.141.941,1.59,1.59,0,0,0,.37,1.4l4.413-1.584-.158-.158a3.035,3.035,0,0,0-1.59-.807,3.721,3.721,0,0,0-1.894.225Z" transform="translate(-115.652 -87.965)" fill="#fff"/>
        <path id="Trazado_130079-2" data-name="Trazado 130079" d="M312.39,215.64l1.791,1.821,2.027-.728,1.426,1.426-2.027.728,3.642,3.642a1.669,1.669,0,0,0,.832.492,2.288,2.288,0,0,0,1.141-.176,7.141,7.141,0,0,0,.886-.382l1.469,1.475a7.887,7.887,0,0,1-1.742.868q-3.332,1.214-5.463-.844l-3.921-3.927-1.73.607-1.426-1.426,1.73-.607-1.784-1.821Z" transform="translate(-121.545 -84.756)" fill="#fff"/>
        <path id="Trazado_130080-2" data-name="Trazado 130080" d="M320.307,212.049a.765.765,0,0,1-.243-.892,1.6,1.6,0,0,1,1.014-.753,3.266,3.266,0,0,1,1.578-.182,2.057,2.057,0,0,1,1.214.546.759.759,0,0,1,.237.9,1.633,1.633,0,0,1-1.008.747,3.29,3.29,0,0,1-1.572.176A2.034,2.034,0,0,1,320.307,212.049Zm12.515,7.957-3.18,1.147-7.283-7.283,3.18-1.141Z" transform="translate(-125.777 -82.615)" fill="#fff"/>
        <path id="Trazado_130081-2" data-name="Trazado 130081" d="M336.312,209.892l.941.807q.3-1.426,2.428-2.2a6.3,6.3,0,0,1,3.484-.328,6.07,6.07,0,0,1,2.974,1.693l4.7,4.71-3.144,1.135-4.667-4.649a2.5,2.5,0,0,0-1.335-.747,3.55,3.55,0,0,0-1.736.249q-1.341.479-1.311,1.42l5.129,5.141-3.168,1.141-7.283-7.283Z" transform="translate(-131.009 -81.776)" fill="#fff"/>
        <path id="Trazado_130082-2" data-name="Trazado 130082" d="M358.39,206.69q-1.675-1.675-1.4-3.162t2.482-2.288a6.755,6.755,0,0,1,3.86-.267l-.552-.734,2.871-1.038,7.029,7.047a2.75,2.75,0,0,1,.953,1.918,2.428,2.428,0,0,1-.917,1.791,7.763,7.763,0,0,1-2.634,1.457,11.254,11.254,0,0,1-2.865.607,8.849,8.849,0,0,1-2.7-.152l.225-1.693a6.81,6.81,0,0,0,3.684-.218,2.477,2.477,0,0,0,1.554-1.117c.194-.443.036-.923-.473-1.426l-.388-.394A3.084,3.084,0,0,1,367,208.838a7.7,7.7,0,0,1-4.485.219,8.26,8.26,0,0,1-4.042-2.246Zm3.314-.989a4.947,4.947,0,0,0,2.2,1.317,3.763,3.763,0,0,0,2.343-.073c.965-.346,1.432-.819,1.4-1.414l-3.035-3.071a4.036,4.036,0,0,0-2.719.073q-1.135.407-1.214,1.214A2.755,2.755,0,0,0,361.7,205.7Z" transform="translate(-140.299 -78.294)" fill="#fff"/>
        <path id="Trazado_130083-2" data-name="Trazado 130083" d="M392.72,195.057l-2.331-5.323,3.4-1.214,3.642,10.13.121.479c.237,1.214-.455,2.106-2.088,2.689a8.285,8.285,0,0,1-1.53.382l-1.475-1.475.492-.17a2.871,2.871,0,0,0,1.177-.649.825.825,0,0,0,.134-.813l-.225-.728L382.59,192.55,386,191.336Z" transform="translate(-150.375 -74.097)" fill="#fff"/>
        <path id="Trazado_130084-2" data-name="Trazado 130084" d="M246.911,283.35q1.681,1.687,1.445,3.144c-.152.977-.941,1.718-2.349,2.221a6.761,6.761,0,0,1-3.672.279l3.423,3.435-3.168,1.141L232.52,283.484l2.944-1.062.819.68a2.98,2.98,0,0,1,2.161-1.93,7.4,7.4,0,0,1,4.406-.231,8.449,8.449,0,0,1,3.957,2.306Zm-3.314,1a5.081,5.081,0,0,0-2.149-1.36,3.508,3.508,0,0,0-2.258.061c-1,.358-1.445.838-1.354,1.439l2.98,2.98a3.824,3.824,0,0,0,2.792,0Q245.876,286.625,243.6,284.352Z" transform="translate(-91.391 -110.331)" fill="#fff"/>
        <path id="Trazado_130085-2" data-name="Trazado 130085" d="M266.957,279.4c-.2.862-1,1.548-2.373,2.039a6.8,6.8,0,0,1-3.587.376,5.736,5.736,0,0,1-2.992-1.6l-4.765-4.777,3.168-1.141,4.7,4.716a2.5,2.5,0,0,0,2.828.528c1.074-.382,1.584-.88,1.53-1.481l-5.153-5.165,3.18-1.147,7.284,7.283-2.986,1.074Z" transform="translate(-99.534 -106.81)" fill="#fff"/>
        <path id="Trazado_130086-2" data-name="Trazado 130086" d="M286.484,267.5q1.748,1.748,1.505,3.168t-2.428,2.2a6.755,6.755,0,0,1-3.988.2l.607.826-2.853,1.026L269.01,264.6l3.168-1.141,3.7,3.715a2.916,2.916,0,0,1,2.1-1.821,7.484,7.484,0,0,1,4.388-.243,8.352,8.352,0,0,1,3.982,2.313Zm-3.314,1a5.123,5.123,0,0,0-2.179-1.408,3.55,3.55,0,0,0-2.209.1c-1.008.364-1.451.868-1.323,1.511l2.871,2.877a3.842,3.842,0,0,0,2.871,0c1.026-.364,1.39-.916,1.092-1.651A5.079,5.079,0,0,0,283.17,268.5Z" transform="translate(-105.733 -103.551)" fill="#fff"/>
        <path id="Trazado_130087-2" data-name="Trazado 130087" d="M303.669,266.188l-3.18,1.141L290.17,257.011l3.18-1.141Z" transform="translate(-114.05 -100.568)" fill="#fff"/>
        <path id="Trazado_130088-2" data-name="Trazado 130088" d="M301.4,255.023a.759.759,0,0,1-.237-.892,1.6,1.6,0,0,1,1.014-.747,3.259,3.259,0,0,1,1.578-.182,2.058,2.058,0,0,1,1.214.546.759.759,0,0,1,.237.9,1.651,1.651,0,0,1-1.008.747,3.29,3.29,0,0,1-1.572.176A2.076,2.076,0,0,1,301.4,255.023Zm12.521,7.963-3.168,1.141-7.283-7.283,3.18-1.141Z" transform="translate(-118.347 -99.508)" fill="#fff"/>
        <path id="Trazado_130089-2" data-name="Trazado 130089" d="M326.449,258.236a1.93,1.93,0,0,0,1.129-.813.813.813,0,0,0-.212-.989l2.968-1.068a2.112,2.112,0,0,1,.7,1.59,2.318,2.318,0,0,1-.819,1.578,6.15,6.15,0,0,1-2.143,1.214,9.451,9.451,0,0,1-5.007.449,7.89,7.89,0,0,1-4.206-2.215l-.127-.127q-1.681-1.687-1.214-3.211c.31-1.02,1.3-1.821,3-2.428a9.05,9.05,0,0,1,4.346-.5,5.906,5.906,0,0,1,3.435,1.578l-2.974,1.068a2.829,2.829,0,0,0-1.487-.68,3.532,3.532,0,0,0-1.821.164c-.741.267-1.129.607-1.178,1.1s.3,1.068,1.038,1.821l.2.206a5.184,5.184,0,0,0,2.179,1.414A3.545,3.545,0,0,0,326.449,258.236Z" transform="translate(-124.757 -98.904)" fill="#fff"/>
        <path id="Trazado_130090-2" data-name="Trazado 130090" d="M330.518,244.559a.777.777,0,0,1-.243-.892,1.633,1.633,0,0,1,1.02-.753,3.259,3.259,0,0,1,1.578-.182,2.058,2.058,0,0,1,1.214.546.777.777,0,0,1,.237.9,1.651,1.651,0,0,1-1.008.747,3.29,3.29,0,0,1-1.572.176,2.052,2.052,0,0,1-1.226-.546Zm12.522,7.957-3.18,1.147-7.283-7.283,3.18-1.141Z" transform="translate(-129.792 -95.393)" fill="#fff"/>
        <path id="Trazado_130091-2" data-name="Trazado 130091" d="M347.783,244.734q-1.706-1.706-1.463-3.162t2.428-2.234a6.634,6.634,0,0,1,3.642-.237l-3.708-3.721,3.18-1.141,10.318,10.318-2.865,1.032-.923-.722a2.9,2.9,0,0,1-2.143,2.009,7.447,7.447,0,0,1-4.376.194,8.594,8.594,0,0,1-4.091-2.337Zm3.314-1a5.153,5.153,0,0,0,2.149,1.36,3.478,3.478,0,0,0,2.234-.061c.983-.352,1.42-.856,1.317-1.505l-2.877-2.883a3.836,3.836,0,0,0-2.81,0Q348.815,241.457,351.1,243.739Z" transform="translate(-136.107 -92.067)" fill="#fff"/>
        <path id="Trazado_130092-2" data-name="Trazado 130092" d="M379.6,241.024a4.427,4.427,0,0,1-.971-.534,3.139,3.139,0,0,1-2.209,1.863,7.581,7.581,0,0,1-3.508.419,4.431,4.431,0,0,1-2.707-1.153,1.632,1.632,0,0,1-.37-2.276,7.13,7.13,0,0,1,3.417-2.082l1.457-.522-.419-.419a2.306,2.306,0,0,0-1.214-.656,2.974,2.974,0,0,0-1.633.176,1.821,1.821,0,0,0-1.026.686.637.637,0,0,0,.194.807l-3.174,1.141a1.621,1.621,0,0,1-.528-1.4,2.392,2.392,0,0,1,.953-1.487,7.52,7.52,0,0,1,2.306-1.25,9.262,9.262,0,0,1,4.158-.57,5.092,5.092,0,0,1,3.187,1.438l3.15,3.156a5.949,5.949,0,0,0,2.039,1.4l.115.115Zm-3.97-.407a2.882,2.882,0,0,0,1.1-.656,1.05,1.05,0,0,0,.364-.832l-1.25-1.25-1.184.425q-2.379.856-1.523,1.924l.1.115a1.657,1.657,0,0,0,1.014.449A2.925,2.925,0,0,0,375.634,240.617Z" transform="translate(-144.208 -91.864)" fill="#fff"/>
        <path id="Trazado_130093-2" data-name="Trazado 130093" d="M388.484,230.1c-1.135-1.135-1.621-2.185-1.463-3.162s.959-1.712,2.4-2.234a6.713,6.713,0,0,1,3.642-.231l-3.715-3.721,3.187-1.141,10.318,10.318-2.865,1.032-.923-.722a2.9,2.9,0,0,1-2.143,2,7.441,7.441,0,0,1-4.376.2,8.606,8.606,0,0,1-4.061-2.343Zm3.314-1a5.183,5.183,0,0,0,2.149,1.366,3.5,3.5,0,0,0,2.24-.061q1.469-.528,1.311-1.511l-2.877-2.877a3.806,3.806,0,0,0-2.81,0Q389.516,226.815,391.8,229.1Z" transform="translate(-152.105 -86.316)" fill="#fff"/>
      </g>
    </g>
  </g>
</svg>
