<svg xmlns="http://www.w3.org/2000/svg" width="73" height="73" viewBox="0 0 73 73">
  <g id="Grupo_58626" data-name="Grupo 58626" transform="translate(8920.5 6563.426)">
    <g id="Grupo_58616" data-name="Grupo 58616" transform="translate(-8920.5 -6563.426)">
      <rect id="Rectángulo_31121" data-name="Rectángulo 31121" width="73" height="73" fill="none"/>
      <g id="_070-promote" data-name="070-promote" transform="translate(5.681 6.419)">
        <path id="Trazado_129752" data-name="Trazado 129752" d="M97.556,105.255V101.78a4.616,4.616,0,0,1,3.273-4.41,4.592,4.592,0,0,0-1.336-.2h-.55a4.614,4.614,0,0,0-4.609,4.608v3.475a4.614,4.614,0,0,0,4.609,4.609h.55a4.593,4.593,0,0,0,1.336-.2,4.616,4.616,0,0,1-3.273-4.411Z" transform="translate(-87.665 -91.222)" fill="#d4e1f4"/>
        <path id="Trazado_129753" data-name="Trazado 129753" d="M221.126,79.162V75.193a5.412,5.412,0,0,1,4.106-5.244,5.4,5.4,0,0,0-1.3-.158h-.628a5.409,5.409,0,0,0-5.4,5.4v3.97a5.409,5.409,0,0,0,5.4,5.4h.628a5.4,5.4,0,0,0,1.3-.158A5.412,5.412,0,0,1,221.126,79.162Z" transform="translate(-192.644 -67.959)" fill="#d4e1f4"/>
        <path id="Trazado_129754" data-name="Trazado 129754" d="M354.6,105.252v-3.475a4.616,4.616,0,0,1,3.273-4.41,4.594,4.594,0,0,0-1.336-.2h-.55a4.614,4.614,0,0,0-4.609,4.609v3.475a4.614,4.614,0,0,0,4.609,4.609h.55a4.6,4.6,0,0,0,1.336-.2,4.616,4.616,0,0,1-3.273-4.411Z" transform="translate(-306.035 -91.218)" fill="#d4e1f4"/>
        <path id="Trazado_129755" data-name="Trazado 129755" d="M67.907,208.992a6.639,6.639,0,0,1-.863-.825,5.655,5.655,0,0,0-5.011,5.583v5.615h3.221V213.75A5.643,5.643,0,0,1,67.907,208.992Z" transform="translate(-60.223 -185.518)" fill="#d4e1f4"/>
        <path id="Trazado_129756" data-name="Trazado 129756" d="M188.269,198.021a7.422,7.422,0,0,1-1.49-1.331,6.6,6.6,0,0,0-5.92,6.523v9.895h4.832v-9.895A6.569,6.569,0,0,1,188.269,198.021Z" transform="translate(-161.172 -175.767)" fill="#d4e1f4"/>
        <path id="Trazado_129757" data-name="Trazado 129757" d="M341.488,210.6a6.6,6.6,0,0,1-1.78-1.44,5.535,5.535,0,0,0-2.244.744,8.442,8.442,0,0,1,.953,3.9v6.553h3.7v-6.553a8.437,8.437,0,0,0-.633-3.2Z" transform="translate(-294.216 -186.364)" fill="#d4e1f4"/>
        <path id="Trazado_129758" data-name="Trazado 129758" d="M213.664,57.622a7.521,7.521,0,0,0-7.513,7.513V68.44a7.513,7.513,0,1,0,15.026,0V65.135A7.521,7.521,0,0,0,213.664,57.622Zm5.708,10.817a5.714,5.714,0,0,1-5.707,5.708h0a5.714,5.714,0,0,1-5.707-5.708v-3.3a5.708,5.708,0,1,1,11.415,0Z" transform="translate(-182.658 -57.622)" fill="#7d6eb2"/>
        <path id="Trazado_129759" data-name="Trazado 129759" d="M67.831,203.027a.9.9,0,0,0,.9.9H93.277a.9.9,0,0,0,.9-.9v-2.4h16.9a.9.9,0,0,0,.9-.9v-6.509a7.42,7.42,0,0,0-6.953-7.4,1.082,1.082,0,0,0-.941.535,4.7,4.7,0,0,1-7.42-.181.909.909,0,0,0-.749-.366,7.337,7.337,0,0,0-3.713,1.105,8.319,8.319,0,0,0-5.859-2.947,1.113,1.113,0,0,0-.96.566,5.5,5.5,0,0,1-8.68-.212.907.907,0,0,0-.748-.366,8.3,8.3,0,0,0-5.756,2.511c-.145.148-.282.3-.414.46a7.369,7.369,0,0,0-3.455-1.1,1.079,1.079,0,0,0-.942.535,4.7,4.7,0,0,1-7.421-.181.91.91,0,0,0-.748-.366A7.415,7.415,0,0,0,50,193.212v6.509a.9.9,0,0,0,.9.9H67.831Zm27.7-15.394a6.509,6.509,0,0,0,9.815.024,5.615,5.615,0,0,1,4.832,5.555v5.607h-16v-6.534a8.294,8.294,0,0,0-.96-3.879,5.526,5.526,0,0,1,2.313-.773Zm-19.965-1.856a7.307,7.307,0,0,0,11.107.025,6.544,6.544,0,0,1,5.7,6.482v9.839H69.636v-9.839A6.538,6.538,0,0,1,75.567,185.777ZM51.805,198.819v-5.607a5.647,5.647,0,0,1,5.032-5.578,6.509,6.509,0,0,0,9.814.024,5.575,5.575,0,0,1,2.128.759,8.3,8.3,0,0,0-.948,3.868v6.534Z" transform="translate(-50 -164.941)" fill="#7d6eb2"/>
        <path id="Trazado_129760" data-name="Trazado 129760" d="M346.829,101.969a6.7,6.7,0,0,0,6.689-6.689V92.388a6.689,6.689,0,1,0-13.377,0v2.893A6.7,6.7,0,0,0,346.829,101.969Zm-4.883-9.582a4.883,4.883,0,1,1,9.767,0v2.893a4.89,4.89,0,0,1-4.883,4.883h0a4.89,4.89,0,0,1-4.883-4.883Z" transform="translate(-296.489 -81.475)" fill="#7d6eb2"/>
        <path id="Trazado_129761" data-name="Trazado 129761" d="M89.631,85.7a6.7,6.7,0,0,0-6.689,6.689v2.893a6.689,6.689,0,1,0,13.377,0V92.389A6.7,6.7,0,0,0,89.631,85.7Zm4.883,9.582a4.883,4.883,0,1,1-9.767,0V92.389a4.883,4.883,0,1,1,9.767,0Z" transform="translate(-77.986 -81.476)" fill="#7d6eb2"/>
        <path id="Trazado_129762" data-name="Trazado 129762" d="M226.8,338.867a.9.9,0,0,0-1.277,0l-4.382,4.382a.9.9,0,0,0,1.277,1.277l2.686-2.686v12.869a.9.9,0,0,0,1.805,0V341.529l3,3a.9.9,0,1,0,1.277-1.277Z" transform="translate(-195.166 -296.329)" fill="#26aab7"/>
        <path id="Trazado_129763" data-name="Trazado 129763" d="M86.468,389.409a.9.9,0,0,0,.9-.9V384.3l8.961,7.859a.9.9,0,1,0,1.19-1.357l-8.655-7.592h3.8a.9.9,0,1,0,0-1.805H86.441l-.049,0-.044,0-.043.006-.046.01-.039.01-.045.015-.038.014-.042.018-.039.019-.038.021-.039.024-.035.024-.036.027-.034.029-.032.029-.035.036-.018.019-.008.01c-.011.013-.022.027-.032.041l-.023.03c-.009.013-.018.028-.026.041s-.014.023-.021.034-.014.028-.021.042-.013.025-.018.038-.011.028-.016.042-.01.027-.015.04-.008.028-.012.042-.008.029-.011.043,0,.027-.007.041-.005.031-.007.047,0,.026,0,.039,0,.034,0,.051v6.21A.9.9,0,0,0,86.468,389.409Z" transform="translate(-80.215 -332.693)" fill="#26aab7"/>
        <path id="Trazado_129764" data-name="Trazado 129764" d="M355.946,383.69v-.011a.885.885,0,0,0-.014-.089c0-.008,0-.015-.006-.023s-.01-.042-.016-.063-.009-.024-.013-.036-.011-.031-.017-.047-.014-.03-.021-.044-.011-.024-.017-.036a.861.861,0,0,0-.046-.075l-.012-.016c-.014-.019-.027-.038-.042-.056l0,0-.021-.023c-.012-.014-.024-.027-.037-.04s-.022-.021-.034-.03l-.031-.028-.04-.03-.03-.022L355.5,383l-.034-.02-.04-.02-.04-.018-.038-.014-.045-.015-.038-.01-.048-.011-.043-.007-.044-.006-.057,0-.029,0h-6.2a.9.9,0,1,0,0,1.805h3.716l-8.776,7.358a.9.9,0,1,0,1.16,1.384l9.195-7.711v4.262a.9.9,0,1,0,1.805,0v-6.2C355.95,383.743,355.948,383.717,355.946,383.69Z" transform="translate(-299.316 -333.938)" fill="#26aab7"/>
      </g>
    </g>
  </g>
</svg>
