<svg xmlns="http://www.w3.org/2000/svg" width="464.349" height="348.527" viewBox="0 0 464.349 348.527">
  <g id="Grupo_58817" data-name="Grupo 58817" transform="translate(4011.037 2045.527)">
    <g id="Segment-amico" transform="translate(-4047.425 -2157.587)">
      <g id="freepik--Floor--inject-4" transform="translate(36.388 251.224)">
        <path id="freepik--floor--inject-4-2" data-name="freepik--floor--inject-4" d="M104.4,427.43c90.661,40.88,237.667,40.89,328.338,0s90.671-107.156,0-148.035-237.677-40.89-328.348,0S13.725,386.571,104.4,427.43Z" transform="translate(-36.388 -248.731)" fill="#b0c0d2"/>
      </g>
      <g id="freepik--Chart--inject-4" transform="translate(162.02 169.155)">
        <g id="freepik--Graphic--inject-4">
          <path id="Trazado_127951" data-name="Trazado 127951" d="M363.218,313.67V280.72H161v33.013h0c0,14.941,9.87,29.883,29.611,41.276,39.482,22.8,103.493,22.8,142.944,0C353.379,343.615,363.239,328.632,363.218,313.67Z" transform="translate(-161 -163.243)" fill="#e0e0e0"/>
          <path id="Trazado_127952" data-name="Trazado 127952" d="M333.6,324.382c-39.482,22.787-103.493,22.787-142.944,0s-39.482-59.755,0-82.553c14.92-8.618,33.388-13.971,52.628-16.079a3,3,0,0,1,3.214,2.191l15.651,55.164L359.1,273.058a3,3,0,0,1,3.245,2.3C366.346,292.788,356.768,311.006,333.6,324.382Z" transform="translate(-160.997 -165.628)" fill="#f0f0f0"/>
          <path id="Trazado_127953" data-name="Trazado 127953" d="M364.925,226.472c-4.1-10.3-13.115-20.085-27.013-28.171-23.142-13.345-54.7-18.885-84.817-16.59a3.339,3.339,0,0,0-3,3.276V211.98a25.835,25.835,0,0,0,.824,5.916l14.733,51.856a3.725,3.725,0,0,0,3.829,2.588l93.519-9.683a3.422,3.422,0,0,0,2.995-3.328V232.336a18.957,18.957,0,0,0-1.064-5.864Z" transform="translate(-157.135 -167.56)" fill="#ba68c8"/>
          <path id="Trazado_127954" data-name="Trazado 127954" d="M365.638,229.35,266.4,239.638,250.49,183.493a3.266,3.266,0,0,1,2.588-1.732c30.112-2.3,61.675,3.245,84.817,16.59,13.9,8.034,22.9,17.811,27.013,28.171A15.548,15.548,0,0,1,365.638,229.35Z" transform="translate(-157.118 -167.558)" fill="#fff" opacity="0.3"/>
          <path id="Trazado_127955" data-name="Trazado 127955" d="M250.09,184.944v26.992a25.835,25.835,0,0,0,.824,5.916l14.733,51.8a3.526,3.526,0,0,0,.824,1.4v-31.51L250.507,183.4A3.13,3.13,0,0,0,250.09,184.944Z" transform="translate(-157.135 -167.465)" opacity="0.1"/>
          <g id="freepik--People--inject-4" transform="translate(116.802)">
            <path id="Trazado_127956" data-name="Trazado 127956" d="M288.131,189.732l-.3-2.087a2.348,2.348,0,0,0,.209-1.534l-.824-2.786-.522-3.652-.522.167.083-4.507-1.649-.939a.657.657,0,0,0-.678,0l-1.784,1.043h0l-3.214,1.847h0l-1.972,1.137a.949.949,0,0,0-.438.595L273,194.74c-.146.668,0,1.2.323,1.388h0l1.857,1.043,2.181-9,.052,3.725-1.137,17.738a1.179,1.179,0,0,0,.438,1.158h0l1.826,1.043,1.576-14.743-.605-.386.4-6.26,1.158-.668,1.158,16.694a.981.981,0,0,0,.47.876h0l1.847,1.043-.063-2.41a2.828,2.828,0,0,0,.24-1.283l-.469-6.792-.125-4.716-.209-.125-.334-4.81.115-7.585,2.222,7.471a.751.751,0,0,0,.313.438h0Z" transform="translate(-272.946 -167.86)" fill="#263238"/>
            <path id="Trazado_127957" data-name="Trazado 127957" d="M289.807,187.093l-3.464-11.634a.323.323,0,0,0-.469-.188l-1.962,1.137h0l-3.214,1.857h0l-1.972,1.137a.95.95,0,0,0-.438.595l-3.5,15.766c-.188.876.115,1.534.689,1.461s1.2-.845,1.388-1.722l1.951-8.775a.146.146,0,0,1,.292,0l.094,6.177-1.137,17.738c-.063.96.449,1.471,1.137,1.158l.115-.063a2.963,2.963,0,0,0,1.242-2.243l1.158-18.04,1.158-.668,1.158,16.694c.063.835.605,1.179,1.252.8l.1-.063a3.057,3.057,0,0,0,1.137-2.473l-1.085-16.392.094-6.6a.157.157,0,0,1,.3,0l1.941,6.521c.188.657.814.71,1.388.115A2.577,2.577,0,0,0,289.807,187.093Z" transform="translate(-272.868 -167.819)" fill="#455a64"/>
            <path id="Trazado_127958" data-name="Trazado 127958" d="M283.8,169.34l-1.878-1.043h0a1.544,1.544,0,0,0-1.6.115,5.843,5.843,0,0,0-2.442,4.643,2.15,2.15,0,0,0,.814,1.93h0l1.9,1.106Z" transform="translate(-272.732 -168.127)" fill="#263238"/>
            <path id="Trazado_127959" data-name="Trazado 127959" d="M277.881,172.882a2.15,2.15,0,0,0,.814,1.93h0l1.9,1.106,1.043-2.191-3.589-2.087A5.522,5.522,0,0,0,277.881,172.882Z" transform="translate(-272.732 -167.975)" fill="#263238"/>
            <path id="Trazado_127960" data-name="Trazado 127960" d="M282.1,175.881a5.843,5.843,0,0,0,2.441-4.653c0-1.784-1.1-2.6-2.441-1.816a5.791,5.791,0,0,0-2.441,4.643C279.65,175.84,280.735,176.653,282.1,175.881Z" transform="translate(-272.654 -168.085)" fill="#455a64"/>
            <path id="Trazado_127961" data-name="Trazado 127961" d="M307.931,207.322l-.3-2.087a2.368,2.368,0,0,0,.209-1.544L307,200.915l-.522-3.652-.511.157.073-4.5-1.649-.949a.689.689,0,0,0-.668,0l-1.795,1.043h0l-3.214,1.857h0l-1.962,1.137a.908.908,0,0,0-.438.595l-3.5,15.766a1.291,1.291,0,0,0,.313,1.388h0l1.857,1.043,2.191-9,.052,3.725L296.1,227.261a1.189,1.189,0,0,0,.428,1.169h0l1.826,1.043,1.565-14.733-.605-.386.407-6.26,1.158-.668,1.158,16.694a1.044,1.044,0,0,0,.459.887h0l1.857,1.043-.063-2.41a2.984,2.984,0,0,0,.24-1.283l-.47-6.8-.136-4.706-.2-.125-.334-4.81.1-7.585,2.233,7.46a.657.657,0,0,0,.313.438h0Z" transform="translate(-272.086 -167.097)" fill="#263238"/>
            <path id="Trazado_127962" data-name="Trazado 127962" d="M309.628,204.7l-3.5-11.686a.313.313,0,0,0-.459-.177l-1.972,1.221h0l-3.214,1.857h0l-1.962,1.127a.919.919,0,0,0-.438.605l-3.5,15.766c-.2.876.115,1.523.689,1.45s1.189-.835,1.388-1.711l1.941-8.785a.156.156,0,0,1,.3,0l.094,6.177-1.137,17.738c-.063.949.449,1.471,1.137,1.158l.1-.063a2.974,2.974,0,0,0,1.252-2.243l1.158-18.051,1.158-.668,1.148,16.694c.063.835.616,1.179,1.252.8l.115-.073a3.047,3.047,0,0,0,1.137-2.462l-1.137-16.444.094-6.615a.146.146,0,1,1,.292,0l1.941,6.521c.2.657.824.7,1.4.115a2.609,2.609,0,0,0,.71-2.254Z" transform="translate(-272.009 -167.058)" fill="#455a64"/>
            <path id="Trazado_127963" data-name="Trazado 127963" d="M303.587,186.93l-1.878-1.043h0a1.576,1.576,0,0,0-1.607.125,5.822,5.822,0,0,0-2.441,4.643,2.149,2.149,0,0,0,.814,1.92h0l1.9,1.106Z" transform="translate(-271.874 -167.364)" fill="#263238"/>
            <path id="Trazado_127964" data-name="Trazado 127964" d="M297.671,190.482a2.149,2.149,0,0,0,.814,1.92h0l1.9,1.106,1.043-2.181-3.589-2.087A4.978,4.978,0,0,0,297.671,190.482Z" transform="translate(-271.874 -167.212)" fill="#263238"/>
            <path id="Trazado_127965" data-name="Trazado 127965" d="M301.882,193.471a5.822,5.822,0,0,0,2.441-4.643c0-1.784-1.1-2.6-2.441-1.826a5.843,5.843,0,0,0-2.441,4.643C299.44,193.44,300.536,194.254,301.882,193.471Z" transform="translate(-271.796 -167.321)" fill="#455a64"/>
            <path id="Trazado_127966" data-name="Trazado 127966" d="M333.429,199.092l-.3-2.087a2.368,2.368,0,0,0,.209-1.544l-.835-2.775-.522-3.652-.511.156.073-4.5-1.649-.949a.689.689,0,0,0-.668,0l-1.784,1.043h0l-3.193,1.826h0l-1.962,1.137a.908.908,0,0,0-.438.595l-3.5,15.766a1.3,1.3,0,0,0,.313,1.388h0l1.857,1.043,2.191-9.015.052,3.725-1.137,17.738a1.2,1.2,0,0,0,.428,1.169h0l1.826,1.043,1.565-14.733-.605-.4.407-6.26,1.158-.657,1.158,16.694a1.043,1.043,0,0,0,.459.887h0l1.857,1.043-.063-2.4a2.859,2.859,0,0,0,.24-1.283l-.47-6.8-.136-4.706-.2-.136-.334-4.8.1-7.6,2.233,7.471a.72.72,0,0,0,.313.438h0Z" transform="translate(-270.978 -167.454)" fill="#263238"/>
            <path id="Trazado_127967" data-name="Trazado 127967" d="M335.107,196.493l-3.474-11.644a.313.313,0,0,0-.459-.177l-1.972,1.137h0l-3.214,1.857h0l-1.962,1.137a.939.939,0,0,0-.438.595l-3.5,15.766c-.2.876.115,1.534.689,1.461s1.2-.845,1.388-1.722l1.951-8.775a.146.146,0,1,1,.292,0l.094,6.177-1.137,17.738c-.063.949.449,1.471,1.137,1.158l.1-.063a3.015,3.015,0,0,0,1.252-2.243l1.158-18.051,1.158-.668,1.158,16.694c.052.835.605,1.169,1.242.8l.115-.073a3.057,3.057,0,0,0,1.137-2.473l-1.137-16.433.094-6.615a.146.146,0,1,1,.292,0l1.951,6.532c.188.647.814.7,1.388.115a2.619,2.619,0,0,0,.689-2.233Z" transform="translate(-270.903 -167.412)" fill="#455a64"/>
            <path id="Trazado_127968" data-name="Trazado 127968" d="M329.1,178.7l-1.888-1.043h0a1.576,1.576,0,0,0-1.6.125,5.812,5.812,0,0,0-2.442,4.643,2.15,2.15,0,0,0,.866,1.857h0l1.9,1.106Z" transform="translate(-270.767 -167.721)" fill="#263238"/>
            <path id="Trazado_127969" data-name="Trazado 127969" d="M323.17,182.253a2.149,2.149,0,0,0,.866,1.878h0l1.9,1.106,1.043-2.181-3.589-2.087a4.913,4.913,0,0,0-.219,1.283Z" transform="translate(-270.767 -167.57)" fill="#263238"/>
            <path id="Trazado_127970" data-name="Trazado 127970" d="M327.382,185.281a5.811,5.811,0,0,0,2.441-4.643c0-1.784-1.043-2.608-2.441-1.826a5.843,5.843,0,0,0-2.442,4.643C324.94,185.2,326.046,186.022,327.382,185.281Z" transform="translate(-270.69 -167.677)" fill="#455a64"/>
          </g>
        </g>
      </g>
      <g id="freepik--character-2--inject-4" transform="translate(389.973 144.243)">
        <rect id="Rect치ngulo_30554" data-name="Rect치ngulo 30554" width="7.951" height="11.571" transform="translate(51.731 209.611)" fill="#ffa8a7"/>
        <rect id="Rect치ngulo_30555" data-name="Rect치ngulo 30555" width="7.951" height="11.571" transform="translate(23.781 195.556) rotate(-1.97)" fill="#ffa8a7"/>
        <path id="Trazado_127971" data-name="Trazado 127971" d="M442.29,235.54c0,7.585.981,56.666.981,56.666.188,2.191,2.233,6.26,1.795,14.607-.605,11.394-1.586,43.04-1.586,43.04s-3.725,3.694-8.994,0c0,0-7.189-43-8.618-54.256-1.242-9.85-3.349-36.612-3.349-36.612l-7.356,31.5s1.294,7.408,1.576,12.635-1.346,35.413-1.346,35.413a8.681,8.681,0,0,1-8.65.334s-6.385-44.114-7.2-48.83,5.582-54.454,5.582-54.454Z" transform="translate(-383.141 -138.886)" fill="#37474f"/>
        <path id="Trazado_127972" data-name="Trazado 127972" d="M433.923,351.179V350c-.762.334-2.535,7.074-5.686,9.954-2.5,2.285-5.926,4.925-6.792,7.471s4.758,4.111,7.105,3.694c2.723-.48,7.439-2.389,8.618-4.174s1.742-4.393,2.7-5.7,3.13-2.755,3.694-4.257c.292-.824-.052-2.64-.449-4.174s-.772-2.942-1.252-2.817v.866a6.261,6.261,0,0,1-3.975,1.346C436.729,352.3,433.912,352.087,433.923,351.179Z" transform="translate(-382.192 -133.92)" fill="#263238"/>
        <path id="Trazado_127973" data-name="Trazado 127973" d="M407.706,339.09c-.417,0-.751.595-1.659,1.586a17.465,17.465,0,0,1-4.674,3.36c-2.974,1.492-8.764,3.777-11.383,4.956-1.628.741-1.555,2.713.136,3.84s5.77,1.941,10.674.835c2.671-.595,6.146-3.057,8.347-2.921s6.313.094,7.94-1.043.97-3.506.511-5.561c-.5-2.243-1.221-5.676-1.962-5.52v.709c-.96,1.44-5.822,2.035-7.919.97Z" transform="translate(-383.603 -134.414)" fill="#263238"/>
        <path id="Trazado_127974" data-name="Trazado 127974" d="M461.386,229.128c-.177-1.043-5.133-12.521-7.168-17.018l-10.288,4.82,3.944,9.025,10.663,8.243A4.174,4.174,0,0,0,461.386,229.128Z" transform="translate(-381.212 -139.902)" fill="#ffa8a7"/>
        <path id="Trazado_127975" data-name="Trazado 127975" d="M417.193,184.94c-4.914.4-9.818,1.742-14.211,8.264S390.9,210.941,390.9,210.941l14.482,4.591Z" transform="translate(-383.513 -141.081)" fill="#7bb5b5"/>
        <path id="Trazado_127977" data-name="Trazado 127977" d="M430.1,185.2c7.126,1.711,16.162,4.591,19.323,11.154s8.055,17.205,8.055,17.205l-11.78,6.98-3.621-6.26v23.507c-5.572,6.062-25.041,8.89-37.165,0V199.01c0-6.187,3.443-13.627,12.938-14.18Z" transform="translate(-382.905 -141.086)" fill="#8ec8c8"/>
        <path id="Trazado_127978" data-name="Trazado 127978" d="M440.69,213.32s-3.568-6.2-4.341-7.69l4.341,10.59Z" transform="translate(-381.541 -140.184)" opacity="0.1"/>
        <path id="Trazado_127979" data-name="Trazado 127979" d="M431.656,154.821a4.247,4.247,0,0,1,3.537,1.231c1.5,1.544,1.189,4.393,0,10.935l-4.653.532Z" transform="translate(-381.793 -142.389)" fill="#263238"/>
        <path id="Trazado_127980" data-name="Trazado 127980" d="M405.8,153.034a7.21,7.21,0,0,1-2.9-.595c-1.429-.824-1.805.8-1.043,2.212a6.636,6.636,0,0,0,5.384,3.6c0-.2,1.336-3.631,1.336-3.631Z" transform="translate(-383.054 -142.501)" fill="#263238"/>
        <path id="Trazado_127981" data-name="Trazado 127981" d="M430.552,167.747c.689.417,1.68-.908,2.525-1.805s3.631-2.087,5.019.814-1.795,6.939-3.673,8.243a3.318,3.318,0,0,1-3.871.344l-.49,11.383a12.156,12.156,0,0,1-9.161,6.949c-6.678.908-5.311-4.612-3.13-7.3V182.2s-3.454.689-5.081.261c-.876-.24-2.953-2.755-4.3-5.561-1.5-3.13-4.017-8.775-1.784-18.259,2.4-10.194,13.345-10.507,19.824-6.4S430.552,167.747,430.552,167.747Z" transform="translate(-382.87 -142.607)" fill="#ffa8a7"/>
        <path id="Trazado_127982" data-name="Trazado 127982" d="M430.65,169.2c.344,0,1.669-2.191,2.525-2.974,1.189-1.043-.344-10.893-.344-10.893s1.21-3.725-1.148-6.187-6.918-2.087-10.246-2.17a29.852,29.852,0,0,1-11.926-2.4c-4.737-2.087-5.092-2.3-5.676-.219s-.814,6.845,2.014,10.037l2.358.866s1.262,1.127,5.686,1.659a65.243,65.243,0,0,0,12.239-.23c1.283-.177,1.555,1.043,2.243,4.455C428.981,164.133,429.482,169.172,430.65,169.2Z" transform="translate(-382.968 -142.905)" fill="#263238"/>
        <path id="Trazado_127983" data-name="Trazado 127983" d="M431.621,155.7l4.173-2.243a2.316,2.316,0,0,0-3.13-1.043,2.483,2.483,0,0,0-1.043,3.287Z" transform="translate(-381.757 -142.503)" fill="#263238"/>
        <path id="Trazado_127984" data-name="Trazado 127984" d="M417.3,181.093s6.187-1.252,8.347-2.4a7.074,7.074,0,0,0,2.984-2.963,9.673,9.673,0,0,1-1.69,3.5c-1.586,2.024-9.651,3.506-9.651,3.506Z" transform="translate(-382.368 -141.481)" fill="#f28f8f"/>
        <path id="Trazado_127985" data-name="Trazado 127985" d="M418.73,165.564a1.242,1.242,0,1,0,1.231-1.294,1.263,1.263,0,0,0-1.231,1.294Z" transform="translate(-382.305 -141.978)" fill="#263238"/>
        <path id="Trazado_127986" data-name="Trazado 127986" d="M420,161.034l2.65,1.461a1.586,1.586,0,0,0-.616-2.087,1.471,1.471,0,0,0-2.035.626Z" transform="translate(-382.25 -142.154)" fill="#263238"/>
        <path id="Trazado_127987" data-name="Trazado 127987" d="M418.928,173.57l-2.828,1.043a1.482,1.482,0,0,0,1.92.939A1.586,1.586,0,0,0,418.928,173.57Z" transform="translate(-382.42 -141.574)" fill="#f28f8f"/>
        <path id="Trazado_127988" data-name="Trazado 127988" d="M408.132,162.1l2.421-1.868a1.461,1.461,0,0,0-2.087-.323,1.617,1.617,0,0,0-.334,2.191Z" transform="translate(-382.778 -142.18)" fill="#263238"/>
        <path id="Trazado_127989" data-name="Trazado 127989" d="M408.84,165.224a1.242,1.242,0,1,0,1.242-1.294,1.262,1.262,0,0,0-1.242,1.294Z" transform="translate(-382.735 -141.993)" fill="#263238"/>
        <path id="Trazado_127990" data-name="Trazado 127990" d="M415.069,164.04l-.407,7.46-3.892-1.325Z" transform="translate(-382.651 -141.988)" fill="#f28f8f"/>
        <path id="Trazado_127991" data-name="Trazado 127991" d="M383.82,207.12l31.74,8.358,9.37,39.388L394.755,246.1Z" transform="translate(-383.82 -140.119)" fill="#ebebeb"/>
        <path id="Trazado_127992" data-name="Trazado 127992" d="M397.337,232.1c-.292.8-2.024,3.036-5.718,2.859l-.459-1.628Z" transform="translate(-383.502 -139.035)" fill="#e0e0e0"/>
        <path id="Trazado_127993" data-name="Trazado 127993" d="M403.88,233.28c.146,1.043,2.3,2.995,5.947,4.174,4.174,1.377,10.528.647,10.528.647l-.574-1.962Z" transform="translate(-382.95 -138.984)" fill="#e0e0e0"/>
        <path id="Trazado_127994" data-name="Trazado 127994" d="M392.741,212.662l-.261-1.21c-.146-.668,1.711-.7,4.174-.063l4.685,1.21c2.441.636,4.539,1.69,4.674,2.358l.271,1.21Z" transform="translate(-383.445 -139.954)" fill="#e0e0e0"/>
        <path id="Trazado_127995" data-name="Trazado 127995" d="M402.388,213.274v-.2c-.1-.563.136-.908,1.2-.636l3.589.939-.23-.751a3.506,3.506,0,0,0-2.212-1.315l-1.972-.563s-.9-2.974-5.008-3.881-3.558,1.7-3.558,1.7l-1.857-.511c-1.043-.282-1.774-.177-1.68.24l.177.783,3.193.835a1.575,1.575,0,0,1,1.158,1.273,1.965,1.965,0,0,1,.052.24c-1.784-.323-3.026-.219-2.9.334l.261,1.21,13.564,3.506-.261-1.21C405.758,214.7,404.287,213.88,402.388,213.274Z" transform="translate(-383.524 -140.138)" fill="#37474f"/>
        <path id="Trazado_127996" data-name="Trazado 127996" d="M460.338,233.729l-10.663-8.243s-21.5,3.5-24,3.694a6.6,6.6,0,0,1-6.26-4.059c-.96-2.483-2.661-2.17-2.661-2.17l.991,4.174c.23,1.043-5.822,1.826-9.171.689s-8.222.522-5.217,5.092S412.217,238,416.287,238a41.442,41.442,0,0,0,5.081-.334c1.315-.167,2.629-.3,3.944-.4C433.586,236.64,456.551,234.918,460.338,233.729Z" transform="translate(-383.013 -139.433)" fill="#ffa8a7"/>
        <path id="Trazado_127997" data-name="Trazado 127997" d="M387.016,218.189l1.409,5.019c.271.97,3.954,2.723,6.26,3.37s4.883,1.4,3.777,4.664c-1.043,3-4.852,3.694-6.8,3.61s-4.633-1.962-5.686-4.966c-1.346-3.84-.626-7.951-1.158-10.194S385.847,216.854,387.016,218.189Z" transform="translate(-383.781 -139.669)" fill="#ffa8a7"/>
      </g>
      <g id="freepik--character-1--inject-4" transform="translate(71.02 112.06)">
        <path id="Trazado_127998" data-name="Trazado 127998" d="M94.5,112.06h5.613a15.651,15.651,0,0,1,15.651,15.651v39.763H78.89V127.648A15.651,15.651,0,0,1,94.5,112.06Z" transform="translate(-69.176 -112.06)" fill="#263238"/>
        <path id="Trazado_127999" data-name="Trazado 127999" d="M115.347,320.67a49.1,49.1,0,0,0,7.032,6.114,2.963,2.963,0,0,1,.97,1.043c.334.689.845,2.4-2.3,3.5a11.655,11.655,0,0,1-9.693-.929c-2.577-1.617-2.7-4.977-5.133-6.9-1.805-1.419-4.059-1.784-5.509-3.631-1.043-1.294-.751-3.015-.23-5.144.584-2.327.845-4.08,1.617-3.9l-.125,1.043c.96,1.534,5.926,1.982,8.138.929a91.2,91.2,0,0,0,5.227,7.878Z" transform="translate(-68.259 -103.437)" fill="#263238"/>
        <path id="Trazado_128000" data-name="Trazado 128000" d="M117.447,323.117h0c-.741-.678-1.482-1.388-2.181-2.149a62.963,62.963,0,0,1-4.059-5.989,6.782,6.782,0,0,1-1.137-4.278l.626-5.728-7.878-.553-.918,7.721h0c-.188,1.753,1.252,3.308,3.819,5.52s5.822,7.356,8.138,8.65,3.986,1.252,4.967.595S119.951,325.674,117.447,323.117Z" transform="translate(-68.178 -103.715)" fill="#ffa8a7"/>
        <path id="Trazado_128001" data-name="Trazado 128001" d="M86.423,320.979V319.8c.47,1.388,2.629,7.366,5.916,10.361,2.608,2.389,6.177,5.133,7.085,7.794s-4.967,3.683-7.4,3.255c-2.838-.5-6.511-2.087-8.5-4.56-1.409-1.732-2.3-3.777-3.3-5.133s-3.318-2.869-3.861-4.434c-.292-.866.063-2.755.48-4.351s.793-3.068,1.294-2.932v.9a6.5,6.5,0,0,0,4.111,1.4C83.491,322.148,86.423,321.908,86.423,320.979Z" transform="translate(-69.29 -103.048)" fill="#263238"/>
        <path id="Trazado_128002" data-name="Trazado 128002" d="M94.629,332.54c-.814-.72-1.628-1.429-2.368-2.087-2.3-2.087-4.048-5.645-5.05-8.065a11.32,11.32,0,0,1-.866-4.351V313.31H78.06V321h0v.2h0c.4,1.722,4.174,6.26,6.365,9.286,1.44,2,4.174,4.549,7.481,4.987C95.057,335.878,96.653,334.9,94.629,332.54Z" transform="translate(-69.212 -103.329)" fill="#ffa8a7"/>
        <path id="Trazado_128003" data-name="Trazado 128003" d="M79.8,197.7c-6.417,14.023.23,63.406.23,63.406-.188,2.275-2.786,6.751-3.756,16.767-1.148,11.822,1.816,41.537,1.816,41.537a8.952,8.952,0,0,0,8.347.323s7.888-44.74,9.39-56.5c1.294-10.267,3.787-34.432,3.787-34.432l7.064,34.348s-2.713,5.906-3.13,10.288c-.668,6.918,0,36.873,0,36.873s2.828,2.16,8.253,1.356c0,0,9.182-41.735,9.9-50.082.438-4.977-5.217-65.963-5.217-65.963Z" transform="translate(-69.301 -108.435)" fill="#37474f"/>
        <path id="Trazado_128004" data-name="Trazado 128004" d="M98.61,228.16l2.087-11.477s8.817-1.826,12.823-5.593a22.809,22.809,0,0,1-10.434,6.928l-2.337,10.027,4.09,30.352Z" transform="translate(-68.32 -107.764)" fill="#263238"/>
        <path id="Trazado_128005" data-name="Trazado 128005" d="M69.611,192.445c.073-.918,1.795-10.736,2.974-16.235l11.55,3.537-2.087,10.11-9.724,7.8C69.309,197.057,69.549,193.363,69.611,192.445Z" transform="translate(-69.58 -109.277)" fill="#ffa8a7"/>
        <path id="Trazado_128006" data-name="Trazado 128006" d="M123.559,171.93l5.457,10.006-8.493,7.272-7.773-12.322Z" transform="translate(-67.707 -109.463)" fill="#f28f8f"/>
        <path id="Trazado_128007" data-name="Trazado 128007" d="M103.49,150.57c5.415.052,11.373,2.024,13.418,6.26s8.462,17.456,8.462,17.456-4.789,7-12.375,6.511Z" transform="translate(-68.109 -110.389)" fill="#f5ca56"/>
        <path id="Trazado_128008" data-name="Trazado 128008" d="M90.993,150.947h0a16.235,16.235,0,0,0-10.862,8.89,14.065,14.065,0,0,0-.386,10.6l5.728,16.59s-2.681,6.49-5.8,12.625c14.388,8.034,32.345,3.808,36.685-2.087.188-1.242-.063-6.845.292-13.22.365-6.8,1.3-14.482.23-18.677-1.982-7.8-5.7-15.129-13.094-15.129Z" transform="translate(-69.176 -110.391)" fill="#f5ca56"/>
        <path id="Trazado_128009" data-name="Trazado 128009" d="M89.182,150.93c-4.9.689-12.124,1.68-14.607,13.355-2.546,11.832-3.245,15.932-3.245,15.932s4.027,4.7,12.176,4.654l2.535-8.973Z" transform="translate(-69.504 -110.374)" fill="#f5ca56"/>
        <path id="Trazado_128010" data-name="Trazado 128010" d="M83.67,181.487s1.669-5.28,2.671-9.557a65.525,65.525,0,0,1-1.283,13.418Z" transform="translate(-68.969 -109.463)" fill="#ebebeb"/>
        <path id="Trazado_128011" data-name="Trazado 128011" d="M91.378,161.409h0a6.448,6.448,0,0,1-6.448-6.438V136.19h6.448Z" transform="translate(-68.914 -111.013)" fill="#263238"/>
        <path id="Trazado_128012" data-name="Trazado 128012" d="M109.448,119.2c1.941,1.148,4.351,6.041,4.111,16.3-.2,8.691-3.015,10.841-4.434,11.477s-4.174.24-6.792-.209v5.217s3.662,4.267,3.433,6.657-5.29,2.953-8.723.616a22.224,22.224,0,0,1-5.634-5.9V140.746a3.328,3.328,0,0,1-4.716.449c-2.932-1.951-3.047-6.761-1.346-8.493s5.373-1.179,6.062,1.21c0,0,4.236.146,9.87-2.942A15.87,15.87,0,0,0,109.448,119.2Z" transform="translate(-68.944 -111.75)" fill="#ffa8a7"/>
        <path id="Trazado_128013" data-name="Trazado 128013" d="M103.092,132.772a1.116,1.116,0,0,1-1.043,1.189,1.137,1.137,0,0,1-1.158-1.043,1.1,1.1,0,1,1,2.191-.1Z" transform="translate(-68.222 -111.205)" fill="#263238"/>
        <path id="Trazado_128014" data-name="Trazado 128014" d="M103.323,139.79l2.535.814a1.294,1.294,0,0,1-1.649.908A1.388,1.388,0,0,1,103.323,139.79Z" transform="translate(-68.119 -110.857)" fill="#f28f8f"/>
        <path id="Trazado_128015" data-name="Trazado 128015" d="M111.722,129.6l-2.212-1.576a1.294,1.294,0,0,1,1.836-.376A1.429,1.429,0,0,1,111.722,129.6Z" transform="translate(-67.848 -111.394)" fill="#263238"/>
        <path id="Trazado_128016" data-name="Trazado 128016" d="M111.227,132.043A1.043,1.043,0,1,1,110.079,131,1.116,1.116,0,0,1,111.227,132.043Z" transform="translate(-67.864 -111.238)" fill="#263238"/>
        <path id="Trazado_128017" data-name="Trazado 128017" d="M106.2,131.37l.167,6.584,3.464-1.075Z" transform="translate(-67.991 -111.222)" fill="#f28f8f"/>
        <path id="Trazado_128018" data-name="Trazado 128018" d="M101.97,145.788c-2.8-.365-8.556-2.014-9.39-4.288a5.832,5.832,0,0,0,2.014,2.9c1.711,1.471,7.429,3.13,7.429,3.13Z" transform="translate(-68.582 -110.783)" fill="#f28f8f"/>
        <path id="Trazado_128019" data-name="Trazado 128019" d="M147.139,171.34,115.4,179.7l-9.37,39.388,30.175-8.764Z" transform="translate(-67.999 -109.488)" fill="#26aab7"/>
        <path id="Trazado_128020" data-name="Trazado 128020" d="M132.17,196.32c.292.8,2.024,3.036,5.718,2.859l.459-1.628Z" transform="translate(-66.864 -108.404)" opacity="0.15"/>
        <path id="Trazado_128021" data-name="Trazado 128021" d="M126.055,197.5c-.136,1.043-2.3,2.995-5.947,4.174-4.174,1.377-10.517.647-10.517.647l.563-1.962Z" transform="translate(-67.844 -108.353)" opacity="0.15"/>
        <path id="Trazado_128022" data-name="Trazado 128022" d="M137.083,176.882s.125-.543.261-1.21-1.711-.7-4.174-.063l-4.674,1.21c-2.452.636-4.539,1.69-4.685,2.358l-.261,1.21Z" transform="translate(-67.238 -109.323)" opacity="0.15"/>
        <path id="Trazado_128023" data-name="Trazado 128023" d="M139.317,172.5c.094-.417-.657-.522-1.68-.24l-1.857.511s.553-2.619-3.558-1.7-5.008,3.881-5.008,3.881l-1.972.563c-1.043.313-2.087.9-2.212,1.315l-.23.751,16.339-4.3Z" transform="translate(-67.271 -109.508)" fill="#37474f"/>
        <path id="Trazado_128024" data-name="Trazado 128024" d="M136.919,173.712c-1.492.355-2.087.553-2.337,1.586a18.747,18.747,0,0,0-.365,2.087l-7.178,1.868s.344-1.492.459-2.087-.136-.929-1.283-.626l-.1-.459,11.342-2.89Z" transform="translate(-67.127 -109.408)" fill="#37474f"/>
        <path id="Trazado_128025" data-name="Trazado 128025" d="M137.273,176.992l.261-1.21c.146-.668-1.711-.7-4.174-.063l-4.685,1.21c-2.442.636-4.539,1.69-4.674,2.358l-.271,1.21Z" transform="translate(-67.231 -109.318)" fill="#37474f"/>
        <path id="Trazado_128026" data-name="Trazado 128026" d="M72.24,197.187l9.724-7.8s21.483,3.819,24,4.017a6.594,6.594,0,0,0,6.26-4.059c.97-2.483,2.661-2.17,2.661-2.17s-.751,3.13-.981,4.174,5.812,1.826,9.161.689,8.222.522,5.217,5.092-8.858,5.092-12.928,5.1a44.038,44.038,0,0,1-5.081-.344c-1.315-.167-2.629-.3-3.944-.4C98.074,200.86,76.027,198.366,72.24,197.187Z" transform="translate(-69.464 -108.802)" fill="#ffa8a7"/>
        <path id="Trazado_128027" data-name="Trazado 128027" d="M142.816,182.409l-1.388,5.019c-.271.97-3.954,2.723-6.26,3.37s-4.883,1.4-3.777,4.664c1.043,3,4.852,3.694,6.813,3.61s4.622-1.962,5.676-4.966c1.346-3.84.626-7.94,1.158-10.194S143.985,181.074,142.816,182.409Z" transform="translate(-66.91 -109.039)" fill="#ffa8a7"/>
      </g>
    </g>
  </g>
</svg>
