<svg xmlns="http://www.w3.org/2000/svg" width="73" height="72" viewBox="0 0 73 72">
  <g id="Grupo_58629" data-name="Grupo 58629" transform="translate(8225.5 6563.426)">
    <g id="Grupo_58622" data-name="Grupo 58622" transform="translate(-8225.24 -6563.653)">
      <rect id="Rectángulo_31126" data-name="Rectángulo 31126" width="73" height="72" transform="translate(-0.26 0.228)" fill="none"/>
      <g id="_077-remove" data-name="077-remove" transform="translate(4.553 13.819)">
        <path id="Trazado_129793" data-name="Trazado 129793" d="M26.144,97.73A12.647,12.647,0,0,1,36.858,85.247a12.628,12.628,0,1,0-.007,24.964A12.647,12.647,0,0,1,26.144,97.73Z" transform="translate(-20.787 -83.572)" fill="#d4e1f4"/>
        <path id="Trazado_129794" data-name="Trazado 129794" d="M103.455,286.64a14.18,14.18,0,0,1-2.619-.244v1.638a2.185,2.185,0,0,0,.219.952,14.16,14.16,0,0,0,8.193-1.035V285.4A14.191,14.191,0,0,1,103.455,286.64Z" transform="translate(-89.297 -258.324)" fill="#d4e1f4"/>
        <path id="Trazado_129795" data-name="Trazado 129795" d="M187.23,186.2c-.8.375-1.631.725-2.461,1.044a14.184,14.184,0,0,1-5.964,7.247v2.551a14.184,14.184,0,0,0,5.964-7.247c.83-.319,1.657-.668,2.461-1.044l8.744-4.081v-2.551Z" transform="translate(-157.32 -168.218)" fill="#d4e1f4"/>
        <path id="Trazado_129796" data-name="Trazado 129796" d="M325.418,165.772v2.551l3.367-1.571V164.2Z" transform="translate(-285.234 -152.584)" fill="#d4e1f4"/>
        <path id="Trazado_129797" data-name="Trazado 129797" d="M367.913,249.241a5.167,5.167,0,0,0-4.1-6.365v2.551A5.186,5.186,0,0,1,367.913,249.241Z" transform="translate(-318.735 -221.224)" fill="#d4e1f4"/>
        <path id="Trazado_129798" data-name="Trazado 129798" d="M134.046,335.827q-.892-.089-1.786-.134v11.574a5.132,5.132,0,0,0,1.786-.619Z" transform="translate(-116.713 -302.202)" fill="#d4e1f4"/>
        <path id="Trazado_129799" data-name="Trazado 129799" d="M123.912,159.233v-9.688a.765.765,0,0,0-1.089-.693l-14.731,6.875c-.838.391-1.7.755-2.567,1.081a.765.765,0,0,0,.54,1.432c.9-.34,1.8-.719,2.674-1.126l8.744-4.081v25.676l-8.744-4.081a38.341,38.341,0,0,0-8.426-2.788v-6.768H98.783v6.483a38.1,38.1,0,0,0-6.21-.513,2.205,2.205,0,0,1-2.2-2.2v-2.493a.765.765,0,1,0-1.531,0v2.493a3.738,3.738,0,0,0,3.734,3.733c.091,0,.182,0,.274,0v12.44a.765.765,0,0,0,.765.765,6.709,6.709,0,0,0,6.7-6.7v-5.673a36.772,36.772,0,0,1,7.778,2.609l14.731,6.875a.765.765,0,0,0,1.089-.694v-9.688a6.7,6.7,0,0,0,0-13.276ZM98.783,179.08a5.18,5.18,0,0,1-4.406,5.115V172.62a36.76,36.76,0,0,1,4.406.49ZM122.38,181l-3.367-1.571V152.319l3.367-1.571Zm1.531-10.035V160.782a5.17,5.17,0,0,1,0,10.178Z" transform="translate(-78.83 -139.13)" fill="#7d6eb2"/>
        <path id="Trazado_129800" data-name="Trazado 129800" d="M417.971,222.367a9.517,9.517,0,0,0-5.8-8.771.765.765,0,0,0-.6,1.408,8,8,0,0,1,0,14.723.765.765,0,0,0,.6,1.408A9.516,9.516,0,0,0,417.971,222.367Z" transform="translate(-359.994 -195.625)" fill="#7d6eb2"/>
        <path id="Trazado_129801" data-name="Trazado 129801" d="M426.983,180.469a.765.765,0,1,0-.6,1.408,12.593,12.593,0,0,1,0,23.174.765.765,0,1,0,.6,1.408,14.123,14.123,0,0,0,0-25.99Z" transform="translate(-372.915 -166.724)" fill="#7d6eb2"/>
        <path id="Trazado_129802" data-name="Trazado 129802" d="M74.855,178.119H60.719a.765.765,0,0,0,0,1.531H74.855a.765.765,0,0,0,0-1.531Z" transform="translate(-53.629 -164.727)" fill="#26aab7"/>
        <path id="Trazado_129803" data-name="Trazado 129803" d="M24.526,73.119A14.158,14.158,0,1,0,38.683,87.277,14.158,14.158,0,0,0,24.526,73.119Zm0,26.785A12.627,12.627,0,1,1,37.153,87.277,12.627,12.627,0,0,1,24.526,99.9Z" transform="translate(-10.368 -73.119)" fill="#26aab7"/>
      </g>
    </g>
  </g>
</svg>
