<svg xmlns="http://www.w3.org/2000/svg" xmlns:xlink="http://www.w3.org/1999/xlink" width="559.55" height="373.371" viewBox="0 0 559.55 373.371">
  <defs>
    <clipPath id="clip-path">
      <path id="Trazado_131666" data-name="Trazado 131666" d="M2608.326-2976.852l-559.55-34.863,2.637-332.876,552.4-5.632Z" transform="translate(-2018.697 3374.424)" fill="none"/>
    </clipPath>
  </defs>
  <g id="Grupo_58613" data-name="Grupo 58613" transform="translate(-814.079 -1022.375)">
    <g id="Grupo_58452" data-name="Grupo 58452" transform="translate(-1234.697 4372.598)">
      <g id="Grupo_58451" data-name="Grupo 58451" transform="translate(2018.697 -3374.424)" clip-path="url(#clip-path)">
        <g id="Visual_data-bro" data-name="Visual data-bro" transform="translate(44.061 44.06)">
          <g id="freepik--Wall--inject-100" transform="translate(0.527 262.859)">
            <line id="Line_1548" data-name="Line 1548" x1="525.837" y1="31.207" transform="translate(1.428 48.521)" fill="none" stroke="#263238" stroke-miterlimit="10" stroke-width="1"/>
            <line id="Line_1549" data-name="Line 1549" y1="49.851" transform="translate(24.163)" fill="none" stroke="#263238" stroke-miterlimit="10" stroke-width="1"/>
            <line id="Line_1550" data-name="Line 1550" y1="48.521" transform="translate(66.039 3.993)" fill="none" stroke="#263238" stroke-miterlimit="10" stroke-width="1"/>
            <line id="Line_1551" data-name="Line 1551" y1="49.841" transform="translate(136.185 6.655)" fill="none" stroke="#263238" stroke-miterlimit="10" stroke-width="1"/>
            <line id="Line_1552" data-name="Line 1552" y1="52.513" transform="translate(200.016 7.975)" fill="none" stroke="#263238" stroke-miterlimit="10" stroke-width="1"/>
            <line id="Line_1553" data-name="Line 1553" y1="55.835" transform="translate(266.194 7.975)" fill="none" stroke="#263238" stroke-miterlimit="10" stroke-width="1"/>
            <line id="Line_1554" data-name="Line 1554" y1="53.173" transform="translate(332.386 13.299)" fill="none" stroke="#263238" stroke-miterlimit="10" stroke-width="1"/>
            <line id="Line_1555" data-name="Line 1555" y1="57.458" transform="translate(402.926 16.621)" fill="none" stroke="#263238" stroke-miterlimit="10" stroke-width="1"/>
            <line id="Line_1556" data-name="Line 1556" y1="55.164" transform="translate(489.826 21.274)" fill="none" stroke="#263238" stroke-miterlimit="10" stroke-width="1"/>
            <line id="Line_1557" data-name="Line 1557" x1="527.266" y1="32.982" transform="translate(0 54.515)" fill="none" stroke="#263238" stroke-miterlimit="10" stroke-width="1"/>
            <line id="Line_1558" data-name="Line 1558" x2="13.277" y2="1.547" transform="translate(513.318 218.039)" fill="none" stroke="#263238" stroke-miterlimit="10" stroke-width="1"/>
          </g>
          <g id="freepik--Graphics--inject-100" transform="translate(14.313)">
            <path id="Path_126919" data-name="Path 126919" d="M2651.446-3013.076l-516.055-18.58v-236.11l516.055-18.579Z" transform="translate(-2135.391 3286.345)" fill="#263238"/>
            <path id="Path_126920" data-name="Path 126920" d="M2648.776-3013.088l-497.335-16.156v-215.215l497.335-16.166Z" transform="translate(-2143.412 3273.491)" fill="none" stroke="#41c1c5" stroke-miterlimit="10" stroke-width="1"/>
            <path id="Path_126921" data-name="Path 126921" d="M2301.079-3191.139l-114.7,3.246a5.086,5.086,0,0,1-4.932-5.235c0-.058,0-.117.008-.175h0a5.441,5.441,0,0,1,4.923-5.7l114.7-3.755a5.411,5.411,0,0,1,5.361,5.46c0,.059,0,.119,0,.178h0A5.789,5.789,0,0,1,2301.079-3191.139Z" transform="translate(-2158.407 3244.572)" fill="gray"/>
            <path id="Path_126922" data-name="Path 126922" d="M2232.2-3192.31a5.172,5.172,0,0,0-4.86-5.467c-.075,0-.151-.007-.226-.008l-40.719,1.331c-2.717.087-4.923,2.64-4.923,5.7a5.085,5.085,0,0,0,4.748,5.4c.058,0,.116.006.175.008l40.719-1.179A5.561,5.561,0,0,0,2232.2-3192.31Z" transform="translate(-2158.418 3242.085)" fill="#41c1c5"/>
            <path id="Path_126923" data-name="Path 126923" d="M2301.081-3145.907l-114.7,2.391a5.112,5.112,0,0,1-4.929-5.29c0-.04,0-.08.006-.12h0a5.41,5.41,0,0,1,4.923-5.66l114.7-2.856a5.41,5.41,0,0,1,5.362,5.459c0,.063,0,.126-.005.189h0A5.735,5.735,0,0,1,2301.081-3145.907Z" transform="translate(-2158.409 3221.923)" fill="gray"/>
            <path id="Path_126924" data-name="Path 126924" d="M2260.949-3149.664h0a5.292,5.292,0,0,0-5-5.566l-.182-.007-69.253,1.731a5.41,5.41,0,0,0-4.923,5.659h0c0,3.063,2.164,5.5,4.923,5.411l69.307-1.45a5.584,5.584,0,0,0,5.129-5.778Z" transform="translate(-2158.476 3220.821)" fill="#41c1c5"/>
            <path id="Path_126925" data-name="Path 126925" d="M2301.081-3100.806l-114.7,1.5a5.172,5.172,0,0,1-4.927-5.407c0-.023,0-.046,0-.069h0a5.41,5.41,0,0,1,4.923-5.616l114.7-1.969a5.475,5.475,0,0,1,5.36,5.588c0,.038,0,.077,0,.115h0A5.67,5.67,0,0,1,2301.081-3100.806Z" transform="translate(-2158.409 3199.394)" fill="gray"/>
            <path id="Path_126926" data-name="Path 126926" d="M2281.105-3105.849a5.41,5.41,0,0,0-5.165-5.645l-.094,0-89.445,1.537a5.41,5.41,0,0,0-4.923,5.616,5.173,5.173,0,0,0,4.854,5.472l.069,0,89.445-1.169A5.615,5.615,0,0,0,2281.105-3105.849Z" transform="translate(-2158.419 3198.962)" fill="#41c1c5"/>
            <path id="Path_126927" data-name="Path 126927" d="M2301.081-3055.672l-114.7.606a5.216,5.216,0,0,1-4.924-5.492v-.016h0a5.313,5.313,0,0,1,4.923-5.583l114.7-1.082a5.519,5.519,0,0,1,5.359,5.675c0,.02,0,.041,0,.061h0A5.627,5.627,0,0,1,2301.081-3055.672Z" transform="translate(-2158.409 3176.843)" fill="#41c1c5"/>
            <path id="Path_126928" data-name="Path 126928" d="M2518.313-3192.827l-15.711.455a5.41,5.41,0,0,1-5.415-5.406c0-.077,0-.154,0-.231h0a5.833,5.833,0,0,1,5.411-5.973l15.711-.487a5.411,5.411,0,0,1,5.471,5.35c0,.107,0,.214-.006.32h0A5.865,5.865,0,0,1,2518.313-3192.827Z" transform="translate(-2316.205 3245.427)" fill="#41c1c5"/>
            <path id="Path_126929" data-name="Path 126929" d="M2518.309-3147.26l-15.711.325a5.411,5.411,0,0,1-5.418-5.4c0-.093,0-.185.007-.277h0a5.778,5.778,0,0,1,5.411-5.93l15.711-.39a5.5,5.5,0,0,1,5.469,5.525c0,.063,0,.125,0,.188h0A5.811,5.811,0,0,1,2518.309-3147.26Z" transform="translate(-2316.202 3222.67)" fill="#41c1c5"/>
            <path id="Path_126930" data-name="Path 126930" d="M2518.312-3101.682l-15.712.206a5.508,5.508,0,0,1-5.414-5.6c0-.042,0-.083,0-.124h0a5.725,5.725,0,0,1,5.41-5.887l15.712-.27a5.561,5.561,0,0,1,5.467,5.655c0,.033,0,.067,0,.1h0A5.746,5.746,0,0,1,2518.312-3101.682Z" transform="translate(-2316.204 3199.891)" fill="#41c1c5"/>
            <path id="Path_126931" data-name="Path 126931" d="M2518.312-3056.061l-15.712.076a5.563,5.563,0,0,1-5.413-5.708c0-.02,0-.04,0-.06h0a5.67,5.67,0,0,1,5.411-5.843l15.712-.141a5.594,5.594,0,0,1,5.467,5.719c0,.023,0,.047,0,.07h0A5.713,5.713,0,0,1,2518.312-3056.061Z" transform="translate(-2316.205 3177.091)" fill="#41c1c5"/>
            <line id="Line_1560" data-name="Line 1560" y1="0.638" x2="18.46" transform="translate(28.88 39.171)" fill="none" stroke="#fff" stroke-miterlimit="10" stroke-width="1"/>
            <line id="Line_1561" data-name="Line 1561" y1="0.487" x2="18.46" transform="translate(28.88 62.068)" fill="none" stroke="#fff" stroke-miterlimit="10" stroke-width="1"/>
            <line id="Line_1562" data-name="Line 1562" y1="0.346" x2="18.46" transform="translate(28.88 83.796)" fill="none" stroke="#fff" stroke-miterlimit="10" stroke-width="1"/>
            <line id="Line_1563" data-name="Line 1563" y1="0.195" x2="18.46" transform="translate(28.88 106.693)" fill="none" stroke="#fff" stroke-miterlimit="10" stroke-width="1"/>
            <line id="Line_1564" data-name="Line 1564" y1="0.476" x2="15.474" transform="translate(453.186 39.95)" fill="none" stroke="#fff" stroke-miterlimit="10" stroke-width="1"/>
            <line id="Line_1565" data-name="Line 1565" y1="0.649" x2="24.466" transform="translate(444.194 53.109)" fill="none" stroke="#fff" stroke-miterlimit="10" stroke-width="1"/>
            <line id="Line_1566" data-name="Line 1566" y1="0.346" x2="15.474" transform="translate(453.186 66.256)" fill="none" stroke="#fff" stroke-miterlimit="10" stroke-width="1"/>
            <line id="Line_1567" data-name="Line 1567" y1="0.162" x2="9.079" transform="translate(459.581 79.414)" fill="none" stroke="#fff" stroke-miterlimit="10" stroke-width="1"/>
            <line id="Line_1568" data-name="Line 1568" y1="0.216" x2="15.474" transform="translate(453.186 92.572)" fill="none" stroke="#fff" stroke-miterlimit="10" stroke-width="1"/>
            <line id="Line_1569" data-name="Line 1569" y1="0.195" x2="19.607" transform="translate(449.052 105.719)" fill="none" stroke="#fff" stroke-miterlimit="10" stroke-width="1"/>
            <line id="Line_1570" data-name="Line 1570" y1="0.087" x2="15.474" transform="translate(453.186 118.877)" fill="none" stroke="#fff" stroke-miterlimit="10" stroke-width="1"/>
            <line id="Line_1571" data-name="Line 1571" y1="0.032" x2="22.973" transform="translate(445.687 132.036)" fill="none" stroke="#fff" stroke-miterlimit="10" stroke-width="1"/>
            <line id="Line_1572" data-name="Line 1572" x2="15.474" y2="0.043" transform="translate(453.186 145.139)" fill="none" stroke="#fff" stroke-miterlimit="10" stroke-width="1"/>
            <path id="Path_126932" data-name="Path 126932" d="M3080.5-3206.773l4.7-.141" transform="translate(-2607.724 3246.648)" fill="none" stroke="#fff" stroke-miterlimit="10" stroke-width="1"/>
            <path id="Path_126933" data-name="Path 126933" d="M3080.5-3180.523l4.7-.13" transform="translate(-2607.724 3233.523)" fill="none" stroke="#fff" stroke-miterlimit="10" stroke-width="1"/>
            <path id="Path_126934" data-name="Path 126934" d="M3080.5-3154.176l4.7-.108" transform="translate(-2607.724 3220.345)" fill="none" stroke="#fff" stroke-miterlimit="10" stroke-width="1"/>
            <path id="Path_126935" data-name="Path 126935" d="M3080.647-3127.829l4.567-.086" transform="translate(-2607.8 3207.167)" fill="none" stroke="#fff" stroke-miterlimit="10" stroke-width="1"/>
            <path id="Path_126936" data-name="Path 126936" d="M3080.5-3101.481l4.7-.064" transform="translate(-2607.724 3193.988)" fill="none" stroke="#fff" stroke-miterlimit="10" stroke-width="1"/>
            <path id="Path_126937" data-name="Path 126937" d="M3080.5-3075.069h4.6" transform="translate(-2607.724 3180.756)" fill="none" stroke="#fff" stroke-miterlimit="10" stroke-width="1"/>
            <path id="Path_126938" data-name="Path 126938" d="M3080.5-3048.722h4.7" transform="translate(-2607.724 3167.589)" fill="none" stroke="#fff" stroke-miterlimit="10" stroke-width="1"/>
            <path id="Path_126939" data-name="Path 126939" d="M3080.323-3022.418h4.729" transform="translate(-2607.638 3154.443)" fill="none" stroke="#fff" stroke-miterlimit="10" stroke-width="1"/>
            <path id="Path_126940" data-name="Path 126940" d="M3080.5-2996.093h4.7" transform="translate(-2607.724 3141.286)" fill="none" stroke="#fff" stroke-miterlimit="10" stroke-width="1"/>
            <path id="Path_126941" data-name="Path 126941" d="M3098.948-3207.552l8.04-.249" transform="translate(-2616.946 3247.091)" fill="none" stroke="#fff" stroke-miterlimit="10" stroke-width="1"/>
            <path id="Path_126942" data-name="Path 126942" d="M3098.948-3181.107l8.04-.217" transform="translate(-2616.946 3233.859)" fill="none" stroke="#fff" stroke-miterlimit="10" stroke-width="1"/>
            <path id="Path_126943" data-name="Path 126943" d="M3098.948-3154.663l8.04-.184" transform="translate(-2616.946 3220.626)" fill="none" stroke="#fff" stroke-miterlimit="10" stroke-width="1"/>
            <path id="Path_126944" data-name="Path 126944" d="M3099.359-3128.229l7.834-.141" transform="translate(-2617.151 3207.394)" fill="none" stroke="#fff" stroke-miterlimit="10" stroke-width="1"/>
            <path id="Path_126945" data-name="Path 126945" d="M3098.948-3101.784l8.04-.109" transform="translate(-2616.946 3194.162)" fill="none" stroke="#fff" stroke-miterlimit="10" stroke-width="1"/>
            <path id="Path_126946" data-name="Path 126946" d="M3099.294-3075.34l7.867-.076" transform="translate(-2617.119 3180.929)" fill="none" stroke="#fff" stroke-miterlimit="10" stroke-width="1"/>
            <path id="Path_126947" data-name="Path 126947" d="M3098.948-3048.852h8.04" transform="translate(-2616.946 3167.654)" fill="none" stroke="#fff" stroke-miterlimit="10" stroke-width="1"/>
            <path id="Path_126948" data-name="Path 126948" d="M3098.818-3022.44h8.148" transform="translate(-2616.881 3154.454)" fill="none" stroke="#fff" stroke-miterlimit="10" stroke-width="1"/>
            <path id="Path_126949" data-name="Path 126949" d="M3098.948-2996.028h8.04" transform="translate(-2616.946 3141.254)" fill="none" stroke="#fff" stroke-miterlimit="10" stroke-width="1"/>
            <line id="Line_1573" data-name="Line 1573" y1="0.108" x2="157.356" transform="translate(251.086 134.535)" fill="none" stroke="#999" stroke-miterlimit="10" stroke-width="1"/>
            <line id="Line_1574" data-name="Line 1574" y1="0.649" x2="157.356" transform="translate(251.086 123.985)" fill="none" stroke="#999" stroke-miterlimit="10" stroke-width="1"/>
            <line id="Line_1575" data-name="Line 1575" y1="1.179" x2="157.356" transform="translate(251.086 113.434)" fill="none" stroke="#999" stroke-miterlimit="10" stroke-width="1"/>
            <path id="Path_126950" data-name="Path 126950" d="M2792.3-3027.292V-3074.9s-3.689-4.686-18.915-3.82c-15.062.866-18.677,14.175-34.626,21.923s-23.287-4.751-36.271-4.686-19.315,14.435-28.632,19.878-17.508-.7-28.578.628A15.733,15.733,0,0,0,2631.9-3029.6l-.151,1.342Z" transform="translate(-2383.455 3182.636)" fill="#41c1c5"/>
            <path id="Path_126951" data-name="Path 126951" d="M2808.839-3001.963v-26.143c-5.2-.281-16,.584-27.474,10.139s-31.932,4.512-37.949,2.315c-9.576-3.506-20.56-3.679-31.478,3.246s-19.791,6.254-29.909,6.2c-7.152,0-15.452,2.164-19.64,3.365Z" transform="translate(-2398.768 3157.307)" fill="gray"/>
            <path id="Path_126952" data-name="Path 126952" d="M2646.568-2838.426l-27.994-.876a5.064,5.064,0,0,1-4.739-5.162h0a4.719,4.719,0,0,1,4.553-4.878c.062,0,.125,0,.187,0l27.994.769a5.14,5.14,0,0,1,4.848,5.215h0a4.8,4.8,0,0,1-4.673,4.933Z" transform="translate(-2374.5 3067.946)" fill="gray"/>
            <path id="Path_126953" data-name="Path 126953" d="M2781.819-2835.138l-29.064-.9a5.216,5.216,0,0,1-4.913-5.27h0a4.848,4.848,0,0,1,4.727-4.966c.062,0,.124,0,.186,0l29.064.8a5.281,5.281,0,0,1,5.032,5.313h0a4.924,4.924,0,0,1-4.824,5.021c-.07,0-.139,0-.208,0Z" transform="translate(-2441.473 3066.411)" fill="gray"/>
            <path id="Path_126954" data-name="Path 126954" d="M2919.471-2831.83l-30.169-.941a5.345,5.345,0,0,1-5.1-5.411h0a4.978,4.978,0,0,1,4.889-5.065c.069,0,.138,0,.208,0l30.169.833a5.41,5.41,0,0,1,5.215,5.411h0a5.064,5.064,0,0,1-4.952,5.173c-.088,0-.176,0-.263,0Z" transform="translate(-2509.625 3064.899)" fill="gray"/>
            <line id="Line_1576" data-name="Line 1576" x2="155.192" y2="3.668" transform="translate(22.864 202.36)" fill="none" stroke="#999" stroke-miterlimit="10" stroke-width="1"/>
            <line id="Line_1577" data-name="Line 1577" x2="155.192" y2="3.214" transform="translate(22.864 194.125)" fill="none" stroke="#999" stroke-miterlimit="10" stroke-width="1"/>
            <line id="Line_1578" data-name="Line 1578" x2="155.192" y2="2.748" transform="translate(22.864 185.891)" fill="none" stroke="#999" stroke-miterlimit="10" stroke-width="1"/>
            <line id="Line_1579" data-name="Line 1579" x2="155.192" y2="2.294" transform="translate(22.864 177.645)" fill="none" stroke="#999" stroke-miterlimit="10" stroke-width="1"/>
            <line id="Line_1580" data-name="Line 1580" x2="155.192" y2="1.84" transform="translate(22.864 169.411)" fill="none" stroke="#999" stroke-miterlimit="10" stroke-width="1"/>
            <line id="Line_1581" data-name="Line 1581" x2="155.192" y2="1.374" transform="translate(22.864 161.176)" fill="none" stroke="#999" stroke-miterlimit="10" stroke-width="1"/>
            <line id="Line_1582" data-name="Line 1582" x2="155.192" y2="0.909" transform="translate(22.864 152.941)" fill="none" stroke="#999" stroke-miterlimit="10" stroke-width="1"/>
            <line id="Line_1583" data-name="Line 1583" x2="155.192" y2="0.454" transform="translate(22.864 144.707)" fill="none" stroke="#999" stroke-miterlimit="10" stroke-width="1"/>
            <path id="Path_126955" data-name="Path 126955" d="M2203.667-2896.15l-14.868-.4v-32.657l14.868.228Z" transform="translate(-2162.083 3107.859)" fill="gray"/>
            <path id="Path_126956" data-name="Path 126956" d="M2245.6-2904.485l-15.095-.4v-42.125l15.095.184Z" transform="translate(-2182.926 3116.757)" fill="#41c1c5"/>
            <path id="Path_126957" data-name="Path 126957" d="M2288.182-2910.884l-15.323-.411v-49.667l15.323.152Z" transform="translate(-2204.093 3123.729)" fill="gray"/>
            <path id="Path_126958" data-name="Path 126958" d="M2367.178-2930.883l-15.56-.411v-70.854l15.56.032Z" transform="translate(-2243.454 3144.313)" fill="#41c1c5"/>
            <path id="Path_126959" data-name="Path 126959" d="M2419.749-2909.3l-15.8-.422v-50.436l15.8.151Z" transform="translate(-2269.609 3123.33)" fill="gray"/>
            <path id="Path_126960" data-name="Path 126960" d="M2473.145-2892.656l-16.047-.433v-34.973l16.047.238Z" transform="translate(-2296.17 3107.286)" fill="#41c1c5"/>
            <path id="Path_126961" data-name="Path 126961" d="M2527.4-2877.887l-16.307-.433v-21.4l16.307.314Z" transform="translate(-2323.152 3093.124)" fill="gray"/>
            <line id="Line_1584" data-name="Line 1584" x2="12.098" y2="0.357" transform="translate(27.42 219.554)" fill="none" stroke="#fff" stroke-linecap="round" stroke-linejoin="round" stroke-width="1"/>
            <line id="Line_1585" data-name="Line 1585" x2="12.282" y2="0.368" transform="translate(48.434 220.182)" fill="none" stroke="#fff" stroke-linecap="round" stroke-linejoin="round" stroke-width="1"/>
            <line id="Line_1586" data-name="Line 1586" x2="12.476" y2="0.368" transform="translate(69.761 220.82)" fill="none" stroke="#fff" stroke-linecap="round" stroke-linejoin="round" stroke-width="1"/>
            <line id="Line_1587" data-name="Line 1587" x2="12.66" y2="0.379" transform="translate(109.426 221.459)" fill="none" stroke="#fff" stroke-linecap="round" stroke-linejoin="round" stroke-width="1"/>
            <line id="Line_1588" data-name="Line 1588" x2="12.855" y2="0.379" transform="translate(135.766 222.119)" fill="none" stroke="#fff" stroke-linecap="round" stroke-linejoin="round" stroke-width="1"/>
            <line id="Line_1589" data-name="Line 1589" x2="13.061" y2="0.39" transform="translate(162.513 222.79)" fill="none" stroke="#fff" stroke-linecap="round" stroke-linejoin="round" stroke-width="1"/>
            <line id="Line_1590" data-name="Line 1590" x2="13.266" y2="0.4" transform="translate(189.692 223.46)" fill="none" stroke="#fff" stroke-linecap="round" stroke-linejoin="round" stroke-width="1"/>
            <path id="Path_126962" data-name="Path 126962" d="M3027.217-2959.034v-7.769l21.111.162v7.813Z" transform="translate(-2581.097 3126.648)" fill="#41c1c5"/>
            <path id="Path_126963" data-name="Path 126963" d="M3027.217-2937.305v-7.759l27.073.292v7.835Z" transform="translate(-2581.097 3115.784)" fill="gray"/>
            <path id="Path_126964" data-name="Path 126964" d="M3027.217-2915.587v-7.759l31.738.455v7.845Z" transform="translate(-2581.097 3104.93)" fill="#41c1c5"/>
            <path id="Path_126965" data-name="Path 126965" d="M3027.217-2893.858v-7.769l45.123.812v7.877Z" transform="translate(-2581.097 3094.075)" fill="gray"/>
            <path id="Path_126966" data-name="Path 126966" d="M3027.217-2872.129v-7.759l31.738.671v7.845Z" transform="translate(-2581.097 3083.211)" fill="#41c1c5"/>
            <path id="Path_126967" data-name="Path 126967" d="M3027.217-2850.411v-7.759l21.772.541v7.813Z" transform="translate(-2581.097 3072.357)" fill="gray"/>
            <path id="Path_126968" data-name="Path 126968" d="M3027.217-2828.682v-7.77l13.179.379v7.791Z" transform="translate(-2581.097 3061.503)" fill="#41c1c5"/>
            <path id="Path_126969" data-name="Path 126969" d="M2650.282-2936.2c0,13.2-10.193,23.643-22.669,23.33s-22.323-11.091-22.323-24.087,9.955-23.449,22.323-23.34S2650.282-2949.342,2650.282-2936.2Z" transform="translate(-2370.231 3123.395)" fill="gray"/>
            <path id="Path_126970" data-name="Path 126970" d="M2624.316-2960.228c-.357,0-.7-.065-1.082-.065-12.368-.108-22.323,10.344-22.323,23.34s9.955,23.806,22.323,24.087h1.082Z" transform="translate(-2368.043 3123.395)" fill="#41c1c5"/>
            <path id="Path_126971" data-name="Path 126971" d="M2650.046-2929.017c0,9.089-7.012,16.307-15.615,16.112s-15.463-7.6-15.463-16.588,6.9-16.231,15.452-16.112S2650.046-2938.063,2650.046-2929.017Z" transform="translate(-2377.068 3116.055)" fill="#263238"/>
            <path id="Path_126972" data-name="Path 126972" d="M2784.184-2934.854c0,13.439-10.572,24.076-23.513,23.751s-23.168-11.308-23.168-24.541,10.323-23.882,23.168-23.806S2784.184-2948.271,2784.184-2934.854Z" transform="translate(-2436.307 3122.973)" fill="#41c1c5"/>
            <path id="Path_126973" data-name="Path 126973" d="M2782.939-2927.4a16.068,16.068,0,0,1-15.729,16.4q-.252.005-.5,0c-8.884-.2-16.037-7.78-16.037-16.945a16.069,16.069,0,0,1,15.73-16.4l.307,0A16.734,16.734,0,0,1,2782.939-2927.4Z" transform="translate(-2442.886 3115.427)" fill="#263238"/>
            <path id="Path_126974" data-name="Path 126974" d="M2923.1-2933.263a23.925,23.925,0,0,1-23.637,24.209q-.392.005-.786,0a24.952,24.952,0,0,1-24.044-25.018,23.947,23.947,0,0,1,23.685-24.2h.359A24.889,24.889,0,0,1,2923.1-2933.263Z" transform="translate(-2504.841 3122.389)" fill="gray"/>
            <path id="Path_126975" data-name="Path 126975" d="M2892.372-2958.216c-.39,0-.769-.065-1.158-.065a23.947,23.947,0,0,0-24.045,23.848q0,.179,0,.358a24.952,24.952,0,0,0,24.043,25.018h1.158Z" transform="translate(-2501.11 3122.389)" fill="#41c1c5"/>
            <path id="Path_126976" data-name="Path 126976" d="M2921.053-2925.815a16.524,16.524,0,0,1-16.325,16.72q-.251,0-.5,0a17.227,17.227,0,0,1-16.643-17.313,16.535,16.535,0,0,1,16.36-16.707h.282A17.194,17.194,0,0,1,2921.053-2925.815Z" transform="translate(-2511.313 3114.811)" fill="#263238"/>
            <line id="Line_1591" data-name="Line 1591" x2="10.28" y2="0.184" transform="translate(252.616 187.925)" fill="none" stroke="#fff" stroke-miterlimit="10" stroke-width="1"/>
            <line id="Line_1592" data-name="Line 1592" x2="10.669" y2="0.184" transform="translate(318.602 188.877)" fill="none" stroke="#fff" stroke-miterlimit="10" stroke-width="1"/>
            <line id="Line_1593" data-name="Line 1593" x2="11.07" y2="0.195" transform="translate(385.868 189.851)" fill="none" stroke="#fff" stroke-miterlimit="10" stroke-width="1"/>
            <path id="Path_126977" data-name="Path 126977" d="M2770.7-3163.37l.076-.822-.238.238Z" transform="translate(-2452.816 3225.297)" fill="gray"/>
            <path id="Path_126978" data-name="Path 126978" d="M2694.66-3139.185l.552.087,1.266-.39-1.818-.584.249.595-.736.174.487.119Z" transform="translate(-2414.652 3213.242)" fill="gray"/>
            <path id="Path_126979" data-name="Path 126979" d="M2669.865-3160.754l-2.792-1.082-.5.292.076-.422-.9-.606-1.028.433.335-.509-.768-.216-.249.346.476-.92-.584-1.288-.66-.573-1.471-.2h0l-1.083-1.082h-.552l.1-.357-.563-.227v-.249l-.313-.1-.736.314-1.212-.314-.617-.574-.108.282-.52.357.13.627-.4-.141.162-.574-.054-.3.1-.086.1-.271-1.082.6h-.184l-.865,1.309h-.076l-.238-.346-.53-.271-.541.238h-.606l-.617-.811.227-1.808-.422-.335h-1.515l-.152-.1.227-.952h.076l.444-1.45h-.92l-.844,1.309-1.169.206-.433-.227-.617-1v-2.359l-.152-.065.152.065-.108-.552.1-.422,1.288-1.007,1.255.281.173-.151.336.26-.163-.454.6-.281.152.119.5-.087.357.282h.26l.357-.141.952,2.165h.292l.163-.52-.53-2.164,1.72-1.937v-.281l.1-.163h.26l.1-.26-.26-.444v-.206l-.249-.367.152-.152v-.574h.129l.065.941.173-.129.076-.758h.27l.195-.552.769-.314h-.574l.606-.238.195-.184h.314l-.1-.335.292-.7.5-.487h.476l1.083-.833v.183l.346.141-.768.4v.487l.5-.119.357-.368.876-.292.162-.043.508-.227-.14-.173v-.3l-.617.628-.67-.119-.411-.368v-.454l-.173-.141v-.173l.379-.562-1.645.346-.833.833.952-1.256.4-.141.281-.39,2.381-.206,1.731-1.082v-.184l-.109-.119.13-.238-.206-.336-.4.076v-.357l-.963.379-.087-.173.985-.465-1.851-1.169v-.119l.3-.195-1.19-2.164-.346.454-.13.509-.13.162h-.228l-.379.271-.627-.552-.163-.757.13-.379-.866-.271-.79-.714-.378.151-1.158-.151-.162.325.249.292-.206.422.26.638-.379.931.562.509.086.952-.595.649-.53.237.3,1.375-.076.368.054.216h-.173l-.206.281-.313-.129-.671-.974v-1.006l-.216-.271-3.138-1.234-.563.206V-3191l-.444-.909-.411-.108.238-1.547,1.288-1.374-1.147-.509,1.309.217.1-.379.552.086.541-.649-.952-.444v-.238l.758.4.562-.487-.216-.249.292-.152.249.2h.4l-.206-.3.064-.119.39.141h.325l.563-.476-.314-.779v-.184l.379-.162-.227-.444-1.31-.39v.411l.119.217-.065.194-.249.2-.184.444-.162-.271-.055.346.141.26-.259.227-.466-.638.162-.195v-.271l-.249-.292-.357-.086-.313.67-.119-.519.141-.357-.379-.163-.281.087v-.368l.217-.1-.563-.5v-.379l-.487-.379-.086-.184.271-.238.086-.433h.584l.552-.876-1.017-.314-.79.162.108.26h-.249l.206,1.483-.228.26.119.249h-.314v1.169l.757.292-.129.573.184-.162.174.238-.628.454v.422l-.206.162-.195-.346v-.335l-.433-.13.281-.065.195-.173.433-.054-.206-.368h-.3l.313-.076-.649-.238-.811.433.617.455-.325.238v.281l-2.077-.108-.336-.184-.195-.335h-.617l-.552.3.174.173.844-.324-.617.39v.931l-.238-.109v-.357l-2.607-.173.421-.346-.141-.325-2.435-.638-1.277.26v-.281l-.119-.336-.509.628-.562-.844-.227.086-.411.542-1.548.8.087-.238,1.32-.844h-.324l-1.277.617-.281-.151-.509.444.152.249-6.3-1.233-.119-.217h-.638l-.184-.173-.476.13.141-.195-.292-.152-1.321.584.087.227-.823.108-.433.433-.151.465-.941.238-.1.281,1.017,1.018h.628l.119.368.4.086-1.234.26v-.216h-.465l-.206.26h-.324l-.5.346.541.238-.076.206.282.314h1.082l.66-.292-.108.3v.573l-.455.054-.195.357-.379-.086-.152.444-.368.325-.184.39.335.249v.411l.455.5.444-.1.184-.184.119.92h1.147l.151-.228h.4l-.119.9-1.082,1.082-.574.087-.271.476,3.539-2.586-.292-.163,1.309-1.439.228.1v.163l-.379.1-.151.4v.314l-.13.194.152.141.736-.487h.53v-.227l-.162-.249.119-.216.768.152-.162.151v.152l.519-.119.075.076,1.234.1.336.249.454-.184-.075.271,1.082.779.217-.216.3.173v-.368h.141v.563l-.282-.065-.249.087.6.952v-.757l.054.3.216-.152v-.314l.217.292-.119.3-.206.119v.455l.151-.163.238-.065.325.282-.152-.206v-.238l.281.422-.184.228-.325-.173.054.757.129-.151.206.086.087-.249.184.076.173-.108v.3h.163l.162.217-.108.184.065.325h.324l.087.249.465.357.087.671.984.444.141.26.509.163.325.454.065.443-.119.444-.173-.638v-.184l-1.082-.941-.888-.162,1.19,1.082.53,1.244.054,4.112,1.256,2.088.779.282,1.6,2.932h-.3l.876.671.108.542.833.984.184-.141-.076-.346-.325-.152-1.082-2.1v-.227l-.292-.141-.335-.974h.141l.573.217.141,1.082,2.792,3.505v.325l-.119.152.3.541,2.738,1.428h1.45l.4.357h0l.422.4,1.266.379.13-.064h.108l.1.324.584.671v.173l.1.379.217-.054,1.515,1.082.292-.1-.108-.238.194-.216.422-.162.454.876.065,1.634-.584.769v.054l-.26.162-.228,1.429.228.227h.184l-.173.271h0l-.314.379.152.6-.119.119,2.012,3.852,2.165,1.623-1.569,11.9.173.292.173-.79.141-.163.1.163-.141,1.851-.195.129v.282l-.238-.109.162-.292-.195-.313.119.346-.422.292v.206l-.238.271h.487v.217l-.119.27h.357v.174h-.476l-.26.238.141.195.195-.141h.151l-.39.454.174.314.281-.379-.108.639-.228.281v.411l.39-.065.076.151-.174.206h.357l.238.1-.335.162-.108.26.281-.108h.584l-.693.292v.086l.779-.26-.487.4h-.4v.292l.574.195-.065-.152.779-.855-.108.465h.346l-.217.2v.3l-.162-.357-.076.27-.184-.075-.292.346.281.065.184.39.141-.347.271.4.13-.152.4.325v-.292l1.179-.217-1.19-.9v-.184l-.141-.238h0l-.336-.173v-.065h.357l-.238-.736.076-.4,1.147-1.406.075-.433-.378-.108-.271-.66.627-.422.465-1.3.217.141.151-.336-.271.076-.206-.108-.076-.736.606.173.444-.26v-.725l.141-.173.974-.076.725-.422.346-.574-.7-1.223h.13l.649.216.865-.1,1.179-2.165v.552l.876-1.331.227-1.612,1.494-1.082.985-.13,1.082-2.326.1-2.164.076-.13.238.076,1.2-1.883-.075-1.266-.336-.249Z" transform="translate(-2377.493 3244.875)" fill="gray"/>
            <path id="Path_126980" data-name="Path 126980" d="M2689.282-3141.445l-2.542-1.288-1.342.573.649-.357,1.818.79.184.346,1.233-.065Z" transform="translate(-2410.266 3214.572)" fill="gray"/>
            <path id="Path_126981" data-name="Path 126981" d="M2690.273-3138.407l.779.141Z" transform="translate(-2412.703 3212.41)" fill="gray"/>
            <path id="Path_126982" data-name="Path 126982" d="M2700.55-3138.514l.628-.022Z" transform="translate(-2417.839 3212.475)" fill="gray"/>
            <path id="Path_126983" data-name="Path 126983" d="M2678.412-3122.032l.238.444Z" transform="translate(-2406.776 3204.227)" fill="gray"/>
            <path id="Path_126984" data-name="Path 126984" d="M2720.028-3210.618l-1.526-.033.173-.7,1.4.487.13-.584-1-.985.563.065.368-.465-.92.011-.173-.281.152-.368.844.26.649-.2-.509-.53.855-.119.1-.3-.693-.476.671-.152-.184-.8-.682-.162-.282-.336,1.569-.129-.238-.455-.638-.141.53-.141-1.082-.141.238-.822,1.321-1.083-.26-.335-.638.249.519-.379.974-.194-.714-.163,2.391-1.125-1.32-.379-.779.443-.791.076-.335-.13-1.407,1.093.638-.931-.238-.628-1.721.855.8-.6-2.889.271,4.35-1.061-6.092-.768-.649.4-2.889.13.379.39-.682.249.974.671-2.37-.649.466.6-.53.043-.7-.411-.032.552-.314.314-.206-.888-2.727.8.108.66-.725-.108-1.72,1.136.931.13-.314.812-2.64.974.227.324,2.25.476-1.948.346.681.184.011.346.455.271,1.958-.238,1.839.768,1.342,2.175-.2.552.184.584.573-.3.141.433.725.379-.152.184-1.017-.054,1.028.509.335.444-.075.605-.487.044-.617.973.368.368-.292.4.53.617.065.747.9,1.547,2.348,1.428.282-.346.162-1.385.638-.865.011-.313.151-.206-.076-.325.054-.174.9-.779.184-.011.086.228.714-.2,1.32-1.417,3.777-1.613.141-.227Z" transform="translate(-2417.818 3254.637)" fill="gray"/>
            <path id="Path_126985" data-name="Path 126985" d="M2713.071-3197.125l-.3-.314-.747-.13-.054.379.422.271.682-.206Z" transform="translate(-2423.545 3241.978)" fill="gray"/>
            <path id="Path_126986" data-name="Path 126986" d="M2676.67-3206.535l1.061.336.271-.141,3.105.032.335-.7-3.83-.206.119-.411-1.818-.563-.953.184,1.7.8Z" transform="translate(-2405.05 3247.286)" fill="gray"/>
            <path id="Path_126987" data-name="Path 126987" d="M2688.912-3185.033l.054-.487Z" transform="translate(-2412.023 3235.956)" fill="gray"/>
            <path id="Path_126988" data-name="Path 126988" d="M2661.3-3199.125l.53-.043-1.266-.887-.26-2.208-.736.217.476.454-.519-.216-.4.011.249,1.05-.238.238-.281-.736-.7-.292.292.357-.443.054-.714-.422-.249.411-.281-.119.065-.509-1.634.768-.108.3.325.574.887-.162-.985.476,2.38.4-2.066.433,2.207.974,1.677-.617,1.959.173-.249-.379-.292-.011.379-.292Z" transform="translate(-2395.112 3244.323)" fill="gray"/>
            <path id="Path_126989" data-name="Path 126989" d="M2685.527-3185.812l.638-.509Z" transform="translate(-2410.331 3236.356)" fill="gray"/>
            <path id="Path_126990" data-name="Path 126990" d="M2709.6-3172.206l-.184-.141-1.115,2.219,1.483-.054-.1.314.324-.162.714.162-.195-.617-.152-.1.022-.433-.639-.152-.173-.249-.292.021.033-.313.271-.5Z" transform="translate(-2421.715 3229.372)" fill="gray"/>
            <path id="Path_126991" data-name="Path 126991" d="M2703.165-3170.248l1.05.379Z" transform="translate(-2419.146 3228.323)" fill="gray"/>
            <path id="Path_126992" data-name="Path 126992" d="M2685.251-3188.851l-1.731-1.342-.422.3-.422,1.19.476-.032.194.346.638-.422,1.266-.043Z" transform="translate(-2408.906 3238.291)" fill="gray"/>
            <path id="Path_126993" data-name="Path 126993" d="M2666.952-3204.869l-.346-.206Z" transform="translate(-2400.875 3245.729)" fill="gray"/>
            <path id="Path_126994" data-name="Path 126994" d="M2692.017-3193.578l.054-.584-.487-.119-.346.682.779.021Z" transform="translate(-2413.186 3240.334)" fill="gray"/>
            <path id="Path_126995" data-name="Path 126995" d="M2670.216-3200.791l.671-.228.5-1.082-.228-.043-.054.173-.465-.2.487-.476-.27-.4-1.353.606.411.368-.747-.054,1.049,1.331Z" transform="translate(-2402.155 3244.713)" fill="gray"/>
            <path id="Path_126996" data-name="Path 126996" d="M2649.328-3200.283l2.835-2.142-.465-.465-1.753-.39-1.18.249.173.4-.606,1.32,1,1.028Z" transform="translate(-2391.742 3244.832)" fill="gray"/>
            <path id="Path_126997" data-name="Path 126997" d="M2679.321-3209.488l-.368.346Z" transform="translate(-2407.046 3247.934)" fill="gray"/>
            <path id="Path_126998" data-name="Path 126998" d="M2653.586-3205.529l.584-.455Z" transform="translate(-2394.368 3246.183)" fill="gray"/>
            <path id="Path_126999" data-name="Path 126999" d="M2641.161-3173.645l.573.931-.184-.66Z" transform="translate(-2388.159 3230.021)" fill="gray"/>
            <path id="Path_127000" data-name="Path 127000" d="M2675.462-3209.7l-1.1.27Z" transform="translate(-2404.75 3248.042)" fill="gray"/>
            <path id="Path_127001" data-name="Path 127001" d="M2689.085-3200.964l-.574.032-1.72-1.028-.422.379-.227-.086-.628.249.021-.736-.27-.509-.736.022-.812.389.119.639-.195.411.4.313-.638-.271-.087-.552.206-.628.379-.4-1.493.476-.346,1.515.8.152-.086.195-.562.076,2.716.746.39-.206.855.109-.054-.271.086-.217,1.234.952-.379.379.595-.217.92.823v.758l.628-.076.584.313-.552.325-.963-.379-.1.736-1.4.368-.217.552,1.775-.13.444.433.216.552,2.088.79-1-1.125,1.6.141-1.212-1.72.108-.487.541.194.552.606.79-.4.5-.573-2.619-1.721.52-.151-.433-.238.216-.206-.206-.357-.271.162.065-.346-.855-.4-.487.13-.141-.13Z" transform="translate(-2408.6 3244.561)" fill="gray"/>
            <path id="Path_127002" data-name="Path 127002" d="M2688.274-3202.782l.227.53.574.195.909-.206-.963-.509-.747-.01Z" transform="translate(-2411.704 3244.583)" fill="gray"/>
            <path id="Path_127003" data-name="Path 127003" d="M2660.318-3209.693l-.228-.163-.952.378.5.368Z" transform="translate(-2397.144 3248.118)" fill="gray"/>
            <path id="Path_127004" data-name="Path 127004" d="M2666.526-3212.04l.5.26-.6.129,2.185.39-.151-.476-.855-.584-1.331-.173.249.455Z" transform="translate(-2400.711 3249.437)" fill="gray"/>
            <path id="Path_127005" data-name="Path 127005" d="M2657.83-3209.336l-.5-.109Z" transform="translate(-2396.24 3247.913)" fill="gray"/>
            <path id="Path_127006" data-name="Path 127006" d="M2666.011-3208.86l-.573-.5Z" transform="translate(-2400.292 3247.869)" fill="gray"/>
            <path id="Path_127007" data-name="Path 127007" d="M2656.435-3206.978l.054.292-.324.368.389-.01-.671.27,1.007.065.292-.141.725.032-.552.368-.021.4,2.716-.66.141-.9-.422.194-.693-.844-.4.487.033.292.281.314-2.153-.812Z" transform="translate(-2395.516 3246.961)" fill="gray"/>
            <path id="Path_127008" data-name="Path 127008" d="M2650.843-3207.119l.563-.281.26.335.79-.952.108.39.649-.292v-.324l.238-.238-.3-.184-.227.173-.5-.032-1.721,1.168.141.238Z" transform="translate(-2392.927 3247.523)" fill="gray"/>
            <path id="Path_127009" data-name="Path 127009" d="M2659.446-3210.591l1.093-.195-.822-.195-.714.368Z" transform="translate(-2397.075 3248.68)" fill="gray"/>
            <path id="Path_127010" data-name="Path 127010" d="M2674.85-3215.176l.368.454h1.1l-.671.39,1.429.7.541-.044.769-.876.638-.27-.735-.455-.173-.4-2.467-1.039.043.195-.573.411.064.476Z" transform="translate(-2404.995 3251.545)" fill="gray"/>
            <path id="Path_127011" data-name="Path 127011" d="M2673.111-3210.721l.671-.162.032-.324-1.19-.422Z" transform="translate(-2403.883 3249.005)" fill="gray"/>
            <path id="Path_127012" data-name="Path 127012" d="M2671.27-3213.728l-.509-.2Z" transform="translate(-2402.952 3250.151)" fill="gray"/>
            <path id="Path_127013" data-name="Path 127013" d="M2674.8-3205.529l-.952.465,1.136.27-.184-.735Z" transform="translate(-2404.496 3245.956)" fill="gray"/>
            <path id="Path_127014" data-name="Path 127014" d="M2668.826-3207.8l.119.5-.444-.119-.13.314-.228.033-.627-.639-.044.541.6.465.909-.054-.086.541.79.022.314-.368-.033-.433-.433-.649-.7-.152Z" transform="translate(-2401.309 3247.091)" fill="gray"/>
            <path id="Path_127015" data-name="Path 127015" d="M2680.8-3219.33l.216.054.152.163-.119.3.347.249.963.011.108.206,2.694-.5v.367l-1.244.357.476.563-1.84-.465.021.692,1.439,1-1.017-.195-.974.53h.9l-.076.27.433.563-.5-.043-.66-.368-.065.7-.768.465,4.274-.043.173-.39-1.245-.129.011-.26,1-.064.065-.433.714-.076.757-.92-1.017-.216.855-.281.476-.422.736.033,2.792-1.818-1.136-.032,2.056-.693.108-.433-1.028-.368-.866.163.152-.271-7.336.855-.617.476-.584-.076-.3.282-.811.108.292.086Z" transform="translate(-2407.824 3253.718)" fill="gray"/>
            <path id="Path_127016" data-name="Path 127016" d="M2612.618-3173.753l.5-.3Z" transform="translate(-2373.894 3230.227)" fill="gray"/>
            <path id="Path_127017" data-name="Path 127017" d="M2622.3-3178.642l-.335.444-.271.13.162.324h.2l.487-.422-.141-.249.271-.152-.076-.206-.292.129Z" transform="translate(-2378.432 3232.583)" fill="gray"/>
            <path id="Path_127018" data-name="Path 127018" d="M2610.808-3180.74l-.336.141.519.162.076-.292Z" transform="translate(-2372.821 3233.567)" fill="gray"/>
            <path id="Path_127019" data-name="Path 127019" d="M2765.017-3160.579l-.336.141Z" transform="translate(-2449.89 3223.491)" fill="gray"/>
            <path id="Path_127020" data-name="Path 127020" d="M2784.974-3156.653l-.855-.076-.238.119.574.151Z" transform="translate(-2459.486 3221.567)" fill="gray"/>
            <path id="Path_127021" data-name="Path 127021" d="M2792.627-3156.75l.217-.281-.011-.086-.552.206-.184.314.53-.152Z" transform="translate(-2463.592 3221.761)" fill="gray"/>
            <path id="Path_127022" data-name="Path 127022" d="M2744.406-3191.3l.605-.627-.487-.833-.26.032-.368-.195-.043.271-.606.076-.195-.065-.26.206-.152-.086-.184.14-.043.206-.26.141-.1-.357-.584-.422.054.249-.141-.011-.249.119-.195.292.833.086-.076.217-.638.27h.562l.249.3-.325.357.487-.032.7.292,1.667-.628Z" transform="translate(-2438.027 3239.653)" fill="gray"/>
            <path id="Path_127023" data-name="Path 127023" d="M2753.533-3175.634l1.136-.454v-1.093l.292-.217-.217-.487-.919.195.184.206-.314.184-.411.021.227.638-.108.368-.26.3.39.336Z" transform="translate(-2444.124 3232.14)" fill="gray"/>
            <path id="Path_127024" data-name="Path 127024" d="M2756.124-3181.973l-.249.4Z" transform="translate(-2445.489 3234.183)" fill="gray"/>
            <path id="Path_127025" data-name="Path 127025" d="M2756.961-3181.7l.271.249-.141.325.206.238-.314.281.271-.119.162.26.217-.346.032.3-.141.443.563-.076.26.563-.033.4-.39.021-.119.076-.119.281.228.163-.368.3.152.184.628.108.032.108-.421.076-.5.7.292-.194.281.065.173-.206.584-.151.3.075.974-.379-.162-.086.032-.26.314-.433-.6-.238v-.238l-.93-1.5-.357-.054.444-1.071-.725-.011-.13-.141.292-.378.065-.26-.173.184-.422.021-.509.8-.227-.086Z" transform="translate(-2446.032 3234.508)" fill="gray"/>
            <path id="Path_127026" data-name="Path 127026" d="M2773.062-3178.425l.281-.368.1-.476-.13.108-.13-.108-.26.141.152.39-.109.13.1.184Z" transform="translate(-2454.008 3232.832)" fill="gray"/>
            <path id="Path_127027" data-name="Path 127027" d="M2779.225-3181.8l-.26.584Z" transform="translate(-2457.029 3234.097)" fill="gray"/>
            <path id="Path_127028" data-name="Path 127028" d="M2782.923-3183.292l-.249.033Z" transform="translate(-2458.882 3234.842)" fill="gray"/>
            <path id="Path_127029" data-name="Path 127029" d="M2782.529-3182.513l.4-.314-.249-.076-.152.39Z" transform="translate(-2458.81 3234.648)" fill="gray"/>
            <path id="Path_127030" data-name="Path 127030" d="M2779.744-3217.47h1.417l-.812.336,1.374.271,1.482-.92-1.353-.184-.217.13-.216-.281-.076.433-.3-.184-.324-.01-.422-.26.021.2-.281-.076.011.249-.292-.227-.162.173.195.184-.043.173Z" transform="translate(-2457.342 3252.259)" fill="gray"/>
            <path id="Path_127031" data-name="Path 127031" d="M2772.46-3214.171l.271.206-.509-.584Z" transform="translate(-2453.659 3250.464)" fill="gray"/>
            <path id="Path_127032" data-name="Path 127032" d="M2774.191-3216.28l-.228.433.39.476.552.021.411-.552.032.27.336-.054.152.14-1.071.509.346.152.78-.065-1.072.39.39.336.379.032-.184.174.314.206.26-.1.909-1.731.476-.173.075.1.054.336.141.152-.064.422.368.076.217.216.823-.541-.6-.151-.065-.173-.3-.119-.217-.238-.076-.249-1-.346-.151-.335-.314.162.1-.313-.4-.152-.206-.195-.151.422.238.66-.693-.757-.151.357-.108.086-.292-.26.325-.151-.217-.076-.605.054-.314.163v.444l.411-.054Z" transform="translate(-2454.437 3251.772)" fill="gray"/>
            <path id="Path_127033" data-name="Path 127033" d="M2894.067-3168.031l-.336.162-.227.53v.346l.422-.151-.238-.325.941.1.833-.433.66-.79-.779.249-.876-.692-.26.141Z" transform="translate(-2514.271 3227.718)" fill="gray"/>
            <path id="Path_127034" data-name="Path 127034" d="M2883.263-3156.4l-.173.313.228-.129.216.984.444-.769-.087-.281-.271-.227-.356.108Z" transform="translate(-2509.067 3221.458)" fill="gray"/>
            <path id="Path_127035" data-name="Path 127035" d="M2887.664-3162.125l-.249.454-1.321.228-.617.53v.27l1.439-.433.174.39.465-.033.141-.313.129-.065.8-.033.238-.271.379-.076.205-1.331.368-.5-.2-1.19-.508.173-.271,1.2-.617.768-.26-.141-.3.368Z" transform="translate(-2510.26 3225.448)" fill="gray"/>
            <path id="Path_127036" data-name="Path 127036" d="M2886.127-3156.534l.346-.163.271-.4-.4-.043-.379.13-.054.6.217-.119Z" transform="translate(-2510.477 3221.772)" fill="gray"/>
            <path id="Path_127037" data-name="Path 127037" d="M2874.109-3146.55l.5-1.4-.714.638Z" transform="translate(-2504.471 3217.178)" fill="gray"/>
            <path id="Path_127038" data-name="Path 127038" d="M2863.681-3142.343l.206-.541-.487-.021-.39.617Z" transform="translate(-2499.032 3214.659)" fill="gray"/>
            <path id="Path_127039" data-name="Path 127039" d="M2877.3-3133.388l-.465.444-.346-.086-.465.313-.152.465.649-.346.324.769.422.227-.021-.573.433-.206-.1-.985Z" transform="translate(-2505.459 3209.902)" fill="gray"/>
            <path id="Path_127040" data-name="Path 127040" d="M2873.958-3140.613l.216.952,1.255.638.476,1.147.314-.39-.109-.541-.725-.736-.552-.1-.206-.411.27-.638-.086-.877-.584-.043-.075,1.049Z" transform="translate(-2504.503 3214.01)" fill="gray"/>
            <path id="Path_127041" data-name="Path 127041" d="M2873.981-3136.936l.379.465Z" transform="translate(-2504.515 3211.675)" fill="gray"/>
            <path id="Path_127042" data-name="Path 127042" d="M2871.652-3134.339l-.509.746.725-.757.108-.487-.325.5Z" transform="translate(-2503.096 3210.626)" fill="gray"/>
            <path id="Path_127043" data-name="Path 127043" d="M2877.522-3133.821l-.292.217Z" transform="translate(-2506.138 3210.118)" fill="gray"/>
            <path id="Path_127044" data-name="Path 127044" d="M2876.212-3135.1l-.606-.519.021.606.217-.129.087.844.433-.725-.152-.075Z" transform="translate(-2505.327 3211.015)" fill="gray"/>
            <path id="Path_127045" data-name="Path 127045" d="M2902.5-3121.015l-.487.336-.855.054.649.313.833-.476.119-.4-.26.173Z" transform="translate(-2518.096 3203.805)" fill="gray"/>
            <path id="Path_127046" data-name="Path 127046" d="M2904.887-3121.4l-.13-.455-.119.032.249.422Z" transform="translate(-2519.836 3204.14)" fill="gray"/>
            <path id="Path_127047" data-name="Path 127047" d="M2892.828-3122.009l-4.047-2.023-1.007.844-.422-1.1-.919-.119-.336.292.206.119.227.3.639.021-.033.141-.584.14.249.39,2.165.747.227.508-.011.4-.378.368.93-.075.855.519.725-.649.833.2.887.865.844.152-.065-.271-.692-.509-.379-.963.087-.292Z" transform="translate(-2510.57 3205.416)" fill="gray"/>
            <path id="Path_127048" data-name="Path 127048" d="M2836.762-3132.956l-.162,1.006.206.66.606-.649Z" transform="translate(-2485.833 3209.686)" fill="gray"/>
            <path id="Path_127049" data-name="Path 127049" d="M2804.822-3113.163l-.14.141-.054.313-.433.4-.011.238-1.331.714L2802.5-3108l.26.833.692.184.4-.173,1.169-4.383.238-.054Z" transform="translate(-2468.788 3199.794)" fill="gray"/>
            <path id="Path_127050" data-name="Path 127050" d="M2811.494-3135.194l.4-.1Z" transform="translate(-2473.286 3210.854)" fill="gray"/>
            <path id="Path_127051" data-name="Path 127051" d="M2898.11-3085.832l-.682-.206.184.9.53.682.228-.174.086-.238.238.054.1-1.18-.681.162Z" transform="translate(-2516.233 3186.238)" fill="gray"/>
            <path id="Path_127052" data-name="Path 127052" d="M2883.246-3114.341l.519-.141Z" transform="translate(-2509.145 3200.453)" fill="gray"/>
            <path id="Path_127053" data-name="Path 127053" d="M2889.216-3091.109l.487-.076Z" transform="translate(-2512.129 3188.81)" fill="gray"/>
            <path id="Path_127054" data-name="Path 127054" d="M2887.625-3107.275l-.119-1.082-.876-.974-.141-.465-.163-.141-.227.021-.39-.963-.919-.6-.758-2.208-.314.011-.509-1.7-.26.324-.3,2.348-.347.53-1.9-1.233.065-.6.26-.216.13-.3-.086-.217-.152.184-.151-.238-.3.151-1.147-.509.151.292-.617.216-.562.876.022.379-.466.076-.692-.574-.227.152-.119.206-.314.021-.064.195-.2.151-.075.444-.292-.032.065.336-.13.238-.152-.336-.314.184-.021.519-.574.649-2.435,1.017-.217.325-.043-.271-.206.325-.054,1.223.227.6-.238-.227.119.313-.281-.238,1.093,2.857-.087.595-.227.379.108.292.292.281.768.076,5.313-1.839,1.191.455.022.27.357.379.1.5,1.071-.887-.422,1,.368-.043.227-.13-.054.487.292-.021.552,1.19,1.223.5.508-.335.163.075.076.13.108-.087.4.379.563-.574.833-.173,1.482-4.935Z" transform="translate(-2503.179 3200.897)" fill="gray"/>
            <path id="Path_127055" data-name="Path 127055" d="M2919.3-3079.32l.152-.206Z" transform="translate(-2527.162 3182.983)" fill="gray"/>
            <path id="Path_127056" data-name="Path 127056" d="M2807.2-3198.51l.736-.184-.357-.281Z" transform="translate(-2471.139 3242.68)" fill="gray"/>
            <path id="Path_127057" data-name="Path 127057" d="M2811.972-3207.279l.065.325.152-.152.811.541,1.029-.032-.541-.519-.14-.953,1.115-1.742,4.1-2.272-4.858,1.58-.422.887-.335.206-.152.574-.627.433.13.3-.725.573Z" transform="translate(-2473.325 3249.232)" fill="gray"/>
            <path id="Path_127058" data-name="Path 127058" d="M2847.005-3221.147l-.53.1Z" transform="translate(-2490.768 3253.761)" fill="gray"/>
            <path id="Path_127059" data-name="Path 127059" d="M2894.948-3207.865l-.52-.541-.66.368Z" transform="translate(-2514.404 3247.394)" fill="gray"/>
            <path id="Path_127060" data-name="Path 127060" d="M2893.583-3209.012l-.378.184Z" transform="translate(-2514.122 3247.697)" fill="gray"/>
            <path id="Path_127061" data-name="Path 127061" d="M2850.014-3218.9l-.271.4,1.807.606.454-.844-.887-.466-1.1.3Z" transform="translate(-2492.401 3252.789)" fill="gray"/>
            <path id="Path_127062" data-name="Path 127062" d="M2854.764-3216.453l2.424-.714-.519-.368-.574.152.043-.238-.227-.281-.422.184-.141.368-.3.26-.281.638Z" transform="translate(-2494.911 3252.14)" fill="gray"/>
            <path id="Path_127063" data-name="Path 127063" d="M2891.508-3211.337l1.677-.162-.032-.519.736.476.281-.4-.1-.379-.865-.163-.574.184-.768-.39-.682,1.072Z" transform="translate(-2513.112 3249.535)" fill="gray"/>
            <path id="Path_127064" data-name="Path 127064" d="M2895.483-3179.128l-.26-.53-.249,4.837.26-.3.346.324-.346-.919.119-.725.476-.065.129-.086-.476-2.532Z" transform="translate(-2515.007 3233.026)" fill="gray"/>
            <path id="Path_127065" data-name="Path 127065" d="M2866.09-3208.731l-.238.217.714-.152Z" transform="translate(-2500.452 3247.556)" fill="gray"/>
            <path id="Path_127066" data-name="Path 127066" d="M2900.435-3210.786l.963-.238-1.667-.411-.281.313Z" transform="translate(-2517.243 3248.907)" fill="gray"/>
            <path id="Path_127067" data-name="Path 127067" d="M2848.331-3220.465l-.1.173-.281.162.357.26,1.558-.736.108-.379-.465-.66-1.017.563-.173.313Z" transform="translate(-2491.506 3254.01)" fill="gray"/>
            <path id="Path_127068" data-name="Path 127068" d="M2850.522-3205.244l.455.1-.086-.13h.3l.26-.378-1.342-.682h-.53l.238.14-.054.292-.26-.119v-.454l-.152-.238-5.789-1.9-.13.292.195.357-.1.433-.952-.487.487-.26-.508-.216-.476.433h-2.229l-.076.422-.108-.433-.53-.194.076-.292-.66-.617-2.456.141-.109-.217-1.168-.39v-.14l.325-.184-1.288-.2-.238.444h-.433l.313-.227-.444-.14.217-.119h.314l-2.164-.314-.087.206-.725.443h.325l-.108.238.119.3h-.7l-.108.1v.184l-.877-.39-.465.184-.822-.249-.476.823-.249-.086-.963-1.028h.454l-.259-.952-.271-.195h-.681l-.812-.411-.39.465v.335l-2.023.032.163-.216h-2.1v.238l-.064-.433-.206-.054-.411.086-.454-.249-.455.3.238.065-1.742.671.1-.314,2.165-1.266.194-.249.476-.228.184-.27-.174-.152.2-.087-.13-.411h-.26l-.087-.368-1.656-.1-.26.174-.5.075.282-.433-1.082-.087.487-.228v-.173l-.747-.195-.53.141-.7.79.076.184-.833.206.26.206-1.157.141.108-.249-.378.119h-.26l-.638.206.238.173-2.359.736-.054.108-.152.119.108.151h-.335l.389.271h-.3l.3.281v.195l-2.283.292-.119.769.53.3.227.422-1.861-.606-.249.227.379.206-.757.184.887.66-.065.129-.455-.249h-.671l.076-.736-.173-.541-.206.649-.465.292-.163.271.455.606-.217,1.2h.3l.454-.119.757.26.152.346-.183.325.454.335h-.444l-.173-.27.1-.325-.455-.455-.606.206.087.606-.985,1.212h-1.082l-.195-.184.66.119.9-.909.184-.67-.314-.379.086-1.342-.325-.487.3-1.082-1.245-.183-1.168,1.753.217.054-.2.876.466.184.162.357.238.13-.238.444-3.853-1.569.119.368.542.313.173.357-.119.249-.476.26v-.411l-.238-.194-.595.356h-.66l-.368.3h-.53l.281-.563-.541.2-.076.249-.173-.108-1.7.757-.086.476-.671.119-.3-.325v-.281l.628-.162-.238-.411-.985-.195.184.476-.151.5.271.541-.119.346h-.173l-.109-.119-.4-.075-.963.638.184.736-.877-.119-.443-.281-.238.249.119.26.379.13v.271l-.292.065-.66-.314-.3-.573v-.563l-1.083-.92,2.446.736,1.136-.606v-.52l-3.419-1.45.292-.108-.26-.119-.509.064h-.465l-.249-.216h.2l.53-.217-.206-.217-.5-.206-.4.282v-.249l-.162-.238-.476.606v-.411l-.617.6.065-.281.249-.357v-.162l-.216.206h-.271l-.076.173-.346.173-.141.433-.141-.281.292-.411-.455.129v.293l-.108.1h-.292l.217.217h-.184l-.206-.141-.13.1.086.281-.129-.086h-.217v-.26h-.271l-.108.13v.206l-.13.108-.4.065-.2.314h.238l.054.162v.108h-.206l-.162-.108-.216.13.086-.368-1.082.985h.13l1.136-.411v.238l-.108.075-.152-.087-.844,1.223-.065.325-.3.065-.054.714-.509.152.217.26-.465.238-.422.617-.216-.184v.249l-.585.325.206.173h-.335l-.649.4h-.151l-.173.206.152.216-.119.8.206.065.271-.119.076.13-.206.195h-.152l-.129.13v.26h.422l-.195.281.411.357.455.119.714-.628.271-.065.1-.324.952,2.662h.3l.26-.411h.325l.227-.206.13.065.184-.487h-.141l.055-.93.8-1.017-.368-.455-.271-.075-.054-.5.7-1.331.963-.779v-.433l.141-.357.26-.238.617-.054.314.141.141.336-1.558,1.71v1.515l1.028.39,1.558-.411.184-.271-.184.271.163-.065.249.282.336.075-2.294.563-.238.26.086.271.227.152.076.173h0v.433l-.325.173-.346-.444-.368.206-.217.779h0v.606l.065.065-.13.238h-.444v.108l-.217.13-.184-.271-1.558.649h0l-.238-.13v-.26l-.79.411-.617-.39-.184-.324h.476l-.14-.271h-.173l.108-.281.249-.152-.184-.206v-.682l-.52.325v.195l-.3-.13-.194.325.378,1.656-.162.173h-.585v.087l-.487.075-.152.3h-.184l-.183.108-.487.78-.4.184-.887,1.082-.487-.184-.227.184.054.465h-.324l-.238-.13h-.379l-.238.217v.271l.855.271.53.909-.238,1.331-2.435-.173-.324.238v3.247h.811l.465.5.108-.011,1.083-.206,1.006-1.082v-.649l1.082-.92.163-.368v-.119l.324-.444.7.162,1.147-.7,2.673,2.467v.823l.422-.638-.173-.335.368-.206h.292l-2.164-2.164v-.444l.173-.26h.249l.13.314.3.141.347.605,1.3.855.076-.216-.076.216.1.92.26.368h0l.217.379.617.227h-.411l.281.671.368.184-.032-.444h.271l-.173-.162.141-.1h.281l-.13-.357h-.325l.13-.238-.314-.487.195-.129h.314l.076-.336.238.087.292-.173.487.249.367-.26.519-.065-.292-.27-.227-.66.39-.476v-.238l.4-.606h0l.52-.79.433-.087v.292l.638.086-.519.336.389.195v.336l1.212-.379-.4-.108-.314-.346,1.7-.682-.476.336.141.238-.542.563,1.742,1.31.141.454-.087.152-1.407.324-1.385-.487-2.045.519-.195.346-.812.1-.086.325.163.119v.876l.454.39.2.065.238.27.823-.281.53.336.4-.087.368-.27.3.076.292-.1-.357,1.742.206.1h0l-.206-.086-.368,1.071-3.452-.249h0l-1.082-.476-.866.519.054.574-1.32-.26-.639-.552-1.147-.238-.617-.476.3-.314.086-.973-.054-.163-3.679.238-1.353.833-1.46-.347-.433.9-.584.335-.509.8v.671l-2.813,4.328.3,1.2-.281,1.6.065.7v.465l3.344,3.528,1.98-.249.293.108,2.012-.876h0l.584.152.574.822.973-.184.162.238.292.065.108.433-.076.39h0l-.1.584-.065.086.152.227-.367.466,1.709,3.246-.064.465.249.92-.811,2.738,2.467,8.018.368.292,2.608-.6,2.283-2.6.206-.952-.152-.173,1.082-.866-.151-2.088,2.294-2.315-.725-3.853,4.869-8.029-.249-.152-2.662.53-.206-.249-.054.076.054-.076-.206-.086.227-.216-4.231-8.451.66,1.082.238-.627,3.376,7.574,3.159-1.179.379-.454,1.083-.347.151-.346.433-.1.26-.411.249-.14.13-.606.649-.779v-.238l-.335-.466-.649-.26-.325-1.017-.465.606-1.211.563h-.076l-.162-.281v-.693l-.259.433h0l-1.018-2.164v-.076l.725-.2.618,1.083,1.374.627.627-.216.3.573,3.766.238.26.541.768.574h.433l-.541.227.833.747.542-.7,1.861,6.493.736-.7.606-2.857,2.239-2.077.119-.466,1.623-.779,1.082,2.164-.054.714.162.238h.39l.335-.455.206.173,1.612,6.157,1.147.822-.281-1.591-1.667-2.164.271-1.624.336-.119.746.52.109.4h.249v.238h.314l.217.216-.108.39.195.173.563-.725.79-.357.3-.6-.087-1.082-1.3-2.229.779-.93.693-.076.195.574.109-.2,1.331-.919,1.082-.13,1.342-1.32v-.433l.281-.152.757-1.407-.541-.228.422-.238-.595-.52h.573l-.7-1.136-.346-.271.379-.66.909-.487-.227-.281-.39-.163-.53.4-.249-.357-.411-.141v-.563l1.645-.866-.335.963h.281l.736-.487h.2l.454.249-.238.487.076.271.195.108.313-.076h.086l.13.238-.119,1.439,1.158-.487.162-.195-.519-1.385-.357-.368.119-.4.692-.5.141-.541.552-.574h0l.325-.217.465.281,2.586-3.041.736-3.019-.7-.692h-.347l-.249.335h-.227v-.444l-.249.325-.054-.454h-.455v-.336l3.246-2.867,2.738-.217.584.217-.206.292,1.526-.3-.163-.141v-.379l1.083-1.212.671-.087.26.119.292-.141-.195.422.227.173-.108.184,1.158-.617.087-.444.693-.292v.109l-2.868,3.138-.378.1-.509,1.59.455,2.738.628-.682.086-.465.27-.206.3-.075v-.379l.379-.422.487-.108-.076-.444.292-.552h.314l-.2-.292.076-.747h-.26l-.054-.465.649-.985h.357l.152.076.4-.444.087.39.378-.249,1.007-.108.3.271.162-.271,2.651-1.634h.8v-.357l-.876-1.147-.335-.076.4-.141.217.217h.455l.541-.324.119-.238-.075-.26v-.228l.152-.151h.216v.237l.141.3,1.083.217.281.379.617.26h.476l-.184-.249h.194v-.671l.119-.054Z" transform="translate(-2452.378 3250.399)" fill="gray"/>
            <path id="Path_127069" data-name="Path 127069" d="M2828.519-3205.821l-.433-.184-.173.357Z" transform="translate(-2481.491 3246.194)" fill="gray"/>
            <path id="Path_127070" data-name="Path 127070" d="M2836.254-3205.421l-.3.152Z" transform="translate(-2485.508 3245.902)" fill="gray"/>
            <path id="Path_127071" data-name="Path 127071" d="M2690.414-3144.658l-.141.13.281.466Z" transform="translate(-2412.703 3215.534)" fill="gray"/>
            <path id="Path_127072" data-name="Path 127072" d="M2705.389-3131.528l.292-.054-.021-.249-.282.1Z" transform="translate(-2420.252 3209.124)" fill="gray"/>
            <path id="Path_127073" data-name="Path 127073" d="M2861.978-3122.032l-.206.109Z" transform="translate(-2498.413 3204.227)" fill="gray"/>
            <path id="Path_127074" data-name="Path 127074" d="M2875.053-3117.262l.13-.14-1.591.227.649.119Z" transform="translate(-2504.32 3201.913)" fill="gray"/>
            <path id="Path_127075" data-name="Path 127075" d="M2870.54-3117.359l-.368.054-.184.249.574.086.562-.2-.584-.194Z" transform="translate(-2502.519 3201.891)" fill="gray"/>
            <path id="Path_127076" data-name="Path 127076" d="M2877.795-3116.764l.1-.119.876-.476-.595.021-.693.39-.184.509.5-.325Z" transform="translate(-2506.172 3201.891)" fill="gray"/>
            <path id="Path_127077" data-name="Path 127077" d="M2881.386-3122.15l1.061.271-.281-.454Z" transform="translate(-2508.215 3204.377)" fill="gray"/>
            <path id="Path_127078" data-name="Path 127078" d="M2873.32-3115.877l-.736-.206.357.184Z" transform="translate(-2503.816 3201.253)" fill="gray"/>
            <path id="Path_127079" data-name="Path 127079" d="M2879.294-3121.9l.487.141Z" transform="translate(-2507.17 3204.162)" fill="gray"/>
            <path id="Path_127080" data-name="Path 127080" d="M2872.943-3124.3l.411,1.429.195-.444-.043-.811.26.173.206.454.357.044-.184-1.234.606-.5-.823.281-.487-.422,2.012-.833-.422.195-1.006-.108-.487.238-.6,1.536Z" transform="translate(-2503.996 3206.291)" fill="gray"/>
            <path id="Path_127081" data-name="Path 127081" d="M2881.014-3126.3l-.271-.162.206.974.3-.693Z" transform="translate(-2507.894 3206.443)" fill="gray"/>
            <path id="Path_127082" data-name="Path 127082" d="M2851.759-3125.752l.249.346Z" transform="translate(-2493.409 3206.086)" fill="gray"/>
            <path id="Path_127083" data-name="Path 127083" d="M2853.107-3123.5l.184.238Z" transform="translate(-2494.083 3204.962)" fill="gray"/>
            <path id="Path_127084" data-name="Path 127084" d="M2864.238-3118.04l.476.011-.4-.271-.692-.108.4-.313-3.073-.325-.195.26.3.065.206.249Z" transform="translate(-2497.904 3202.734)" fill="gray"/>
            <path id="Path_127085" data-name="Path 127085" d="M2863.879-3128.033l.931,1.645.313.162.53-.075.509.26.573-.119.541-1.688.606-.389-.509-1.429.671-.5-.27-.249-.357-.109-.357-.335-.617.887-.206.108-.281-.044-.347.628-.584.206-.26.573-.627-.162Z" transform="translate(-2499.466 3208.637)" fill="gray"/>
            <path id="Path_127086" data-name="Path 127086" d="M2855.428-3125.068l.064-.466.163-.108.011-.271-.325-.357-.054.206.162.206-.249-.075-3.949-3.517,3.614,5.042h.422l.14-.66Z" transform="translate(-2493.155 3207.934)" fill="gray"/>
            <path id="Path_127087" data-name="Path 127087" d="M2774.993-3159.173l-.476.011-.324.195.844.53.26-.714Z" transform="translate(-2454.644 3222.789)" fill="gray"/>
            <path id="Path_127088" data-name="Path 127088" d="M2770.009-3161.931l.3.985.271-.195.064-.714-.357-.152Z" transform="translate(-2452.553 3224.205)" fill="gray"/>
            <path id="Path_127089" data-name="Path 127089" d="M2657.656-3176.725a4.653,4.653,0,0,1-4.382,4.718,4.328,4.328,0,0,1-4.332-4.325c0-.055,0-.11,0-.165a4.643,4.643,0,0,1,4.329-4.718,4.328,4.328,0,0,1,4.385,4.271C2657.659-3176.872,2657.658-3176.8,2657.656-3176.725Z" transform="translate(-2392.047 3233.805)" fill="#41c1c5"/>
            <path id="Path_127090" data-name="Path 127090" d="M2679.426-3136.535a2.164,2.164,0,0,1-2.034,2.164,2.023,2.023,0,0,1-2.025-2.022c0-.022,0-.044,0-.066a2.164,2.164,0,0,1,2.024-2.164,2.034,2.034,0,0,1,2.035,2.033C2679.426-3136.571,2679.426-3136.553,2679.426-3136.535Z" transform="translate(-2405.254 3212.518)" fill="#41c1c5"/>
            <path id="Path_127091" data-name="Path 127091" d="M2784.951-3144.828a7.781,7.781,0,0,1-7.478,7.867,7.4,7.4,0,0,1-7.435-7.367c0-.069,0-.139,0-.208a7.779,7.779,0,0,1,7.433-7.867,7.412,7.412,0,0,1,7.479,7.345Q2784.953-3144.943,2784.951-3144.828Z" transform="translate(-2452.567 3219.405)" fill="#41c1c5"/>
            <path id="Path_127092" data-name="Path 127092" d="M2829.558-3198.153a3.376,3.376,0,0,1-3.246,3.4,3.138,3.138,0,0,1-3.247-3.026q0-.111,0-.221a3.387,3.387,0,0,1,3.247-3.4,3.149,3.149,0,0,1,3.246,3.048Q2829.561-3198.252,2829.558-3198.153Z" transform="translate(-2479.067 3243.893)" fill="#41c1c5"/>
            <path id="Path_127093" data-name="Path 127093" d="M2847.28-3160.286a3.842,3.842,0,0,1-3.69,3.874,3.635,3.635,0,0,1-3.679-3.592c0-.036,0-.072,0-.109a3.841,3.841,0,0,1,3.679-3.863,3.625,3.625,0,0,1,3.69,3.559C2847.281-3160.373,2847.281-3160.33,2847.28-3160.286Z" transform="translate(-2487.487 3225.189)" fill="#41c1c5"/>
            <path id="Path_127094" data-name="Path 127094" d="M2885.014-3203.551a3.322,3.322,0,0,1-3.171,3.333,3.1,3.1,0,0,1-3.159-3.029c0-.037,0-.073,0-.109a3.312,3.312,0,0,1,3.16-3.279,3.074,3.074,0,0,1,3.169,2.975c0,.036,0,.073,0,.109Z" transform="translate(-2506.865 3246.509)" fill="#41c1c5"/>
          </g>
          <g id="freepik--character-2--inject-100" transform="translate(83.507 171.889)">
            <ellipse id="Ellipse_4273" data-name="Ellipse 4273" cx="44.679" cy="13.277" rx="44.679" ry="13.277" transform="translate(24.53 304.562)" fill="#41c1c5"/>
            <ellipse id="Ellipse_4274" data-name="Ellipse 4274" cx="44.679" cy="13.277" rx="44.679" ry="13.277" transform="translate(24.53 304.562)" fill="#fff" opacity="0.5" style="isolation: isolate"/>
            <path id="Path_127095" data-name="Path 127095" d="M2317.323-2630.052s1.85,16.361,2.64,24.812,2.9,32.463,2.64,35.373-2.9,33.079-2.9,44.69,1.58,27.982,1.58,27.982-2.64,4.48-2.11,6.86a36.159,36.159,0,0,1,1.082,6.071,14.414,14.414,0,0,0,.53,3.17s3.96,2.64,6.341,2.9,7.12-1.32,7.12-2.11,2.11-8.711,2.11-11.621,0-1.84.8-5.8,9.23-58.681,10.29-63.7,2.64-42.753,2.64-42.753l1.85,3.43s4.48,40.383,4.221,44.874-1.851,21.642-1.082,29.563,2.38,27.452,2.38,29.563-.53,6.86-.53,8.71-1.58,4.751-.79,6.071a23.1,23.1,0,0,1,1.58,3.96s9.511,1.58,12.141,1.58,4.761-2.37,4.761-2.37v-4.49c0-2.381.52-4.49.52-6.861s.27-7.391.27-11.091a96.251,96.251,0,0,1,1.082-10.562c.271-2.37,3.961-30.081,4.491-40.383s2.9-33.545,2.9-37.213-.26-38.273-.26-38.273l-.53-6.341s-27.712,3.7-40.913,1.85-24.022-2.381-24.022-2.381Z" transform="translate(-2295.509 2788.707)" fill="#605d24"/>
            <path id="Path_127096" data-name="Path 127096" d="M2337.38-2337.141a5.555,5.555,0,0,1-2.164,1.169c-1.45.433-2.327.725-3.484-.876s-3.5-3.484-5.41-2.619-4.068,2.164-4.5,3.247-.151,11.632-.151,13.677,3.928,2.9,7.856,3.051a12.463,12.463,0,0,0,6.979-2.034s3.344.281,4.512-1.168.584-4.8-.152-5.962a42.663,42.663,0,0,1-2.327-4.22,12.433,12.433,0,0,1-1.157-4.263Z" transform="translate(-2297.635 2641.346)" fill="#fff" stroke="#263238" stroke-linecap="round" stroke-linejoin="round" stroke-width="1"/>
            <path id="Path_127097" data-name="Path 127097" d="M2341.083-2307.7a3.558,3.558,0,0,0,.638-1.894c-1.915.876-4.177.324-5,.444-1.017.141-3.344,1.742-8.581,1.45a17.56,17.56,0,0,1-6.427-1.461v1.612c0,2.034,3.928,2.9,7.856,3.052a12.469,12.469,0,0,0,6.979-2.035S2339.915-2306.25,2341.083-2307.7Z" transform="translate(-2297.704 2626.307)" fill="#41c1c5" stroke="#263238" stroke-linecap="round" stroke-linejoin="round" stroke-width="1"/>
            <line id="Line_1594" data-name="Line 1594" y1="6.99" x2="0.584" transform="translate(38.283 312.786)" fill="none" stroke="#263238" stroke-linecap="round" stroke-linejoin="round" stroke-width="1"/>
            <path id="Path_127098" data-name="Path 127098" d="M2333.487-2335.767a2.981,2.981,0,0,1-1.2-1.082c-1.169-1.6-3.5-3.484-5.411-2.619a14.069,14.069,0,0,0-4.145,2.684c.628,1.8,2.164,4.967,5.162,5.172C2330.381-2331.438,2332.286-2333.592,2333.487-2335.767Z" transform="translate(-2298.212 2641.346)" fill="#41c1c5" stroke="#263238" stroke-linecap="round" stroke-linejoin="round" stroke-width="1"/>
            <path id="Path_127099" data-name="Path 127099" d="M2413.851-2332.777s-2.164.584-3.344-.141-2.911-5.086-6.838-4.653-5.67,4.069-6.493,4.513-1.018.573-1.31,1.017-.433,12.217-.292,13.385,8.44,2.315,13.537,1.742,6.828-2.77,7.272-3.062a4.146,4.146,0,0,0,2.619-3.484c.292-2.619-.584-5.53-2.045-6.547a21.685,21.685,0,0,1-2.608-2.165Z" transform="translate(-2334.589 2640.305)" fill="#fff" stroke="#263238" stroke-linecap="round" stroke-linejoin="round" stroke-width="1"/>
            <path id="Path_127100" data-name="Path 127100" d="M2408.214-2308.109a35.222,35.222,0,0,1-12.714-1.948v3.56c.151,1.158,8.44,2.316,13.537,1.742s6.828-2.77,7.271-3.062a4.144,4.144,0,0,0,2.619-3.484,10.872,10.872,0,0,0,0-1.969c-.217.444-.465.919-.747,1.385C2417.38-2310.435,2415.194-2308.249,2408.214-2308.109Z" transform="translate(-2334.58 2628.145)" fill="#41c1c5" stroke="#263238" stroke-linecap="round" stroke-linejoin="round" stroke-width="1"/>
            <line id="Line_1595" data-name="Line 1595" x1="0.844" y2="7.207" transform="translate(78.504 315.069)" fill="none" stroke="#263238" stroke-linecap="round" stroke-linejoin="round" stroke-width="1"/>
            <path id="Path_127101" data-name="Path 127101" d="M2405.767-2328.99c2.608.3,5.41-1.764,6.968-3.689a2.078,2.078,0,0,1-.573-.238c-1.168-.725-2.911-5.086-6.838-4.653s-5.67,4.069-6.493,4.513C2398.82-2333.059,2402.023-2329.423,2405.767-2328.99Z" transform="translate(-2336.244 2640.305)" fill="#41c1c5" stroke="#263238" stroke-linecap="round" stroke-linejoin="round" stroke-width="1"/>
            <line id="Line_1596" data-name="Line 1596" x1="6.341" y1="3.17" transform="translate(48.206 181.356)" fill="none" stroke="#636363" stroke-linecap="round" stroke-linejoin="round" stroke-width="1"/>
            <path id="Path_127102" data-name="Path 127102" d="M2406.425-2872.55s1.591-2.64,2.165.79-.8,7.12-2.64,8.44-2.64,0-2.64-1.321S2406.425-2872.55,2406.425-2872.55Z" transform="translate(-2338.482 2908.14)" fill="#feb27d" stroke="#263238" stroke-linecap="round" stroke-linejoin="round" stroke-width="1"/>
            <path id="Path_127103" data-name="Path 127103" d="M2344.877-2869.082a2.163,2.163,0,0,0-2.788,1.262,2.155,2.155,0,0,0-.112,1.108c0,3.17,4.22,7.661,6.07,6.6S2344.877-2869.082,2344.877-2869.082Z" transform="translate(-2307.817 2905.991)" fill="#feb27d" stroke="#263238" stroke-linecap="round" stroke-linejoin="round" stroke-width="1"/>
            <path id="Path_127104" data-name="Path 127104" d="M2360.235-2930.7s-4.123,6.86-8.44,8.71c-5.551,2.381-10.031,9.511-9.738,15.312s8.71,24.812,10.031,25.342,17.952-.79,18.482-1.58,2.9-8.711,5.01-16.372,2.11-11.611,2.11-11.611a24.285,24.285,0,0,0,1.082-7.65,13.911,13.911,0,0,0-3.43-8.451l-3.17,3.96-1.616-4.98c-2.2-.262-2.285-2.906-4.2-1.794a16.937,16.937,0,0,0-4.446,3.6Z" transform="translate(-2307.864 2936.716)" fill="#263238" stroke="#263238" stroke-linecap="round" stroke-linejoin="round" stroke-width="1"/>
            <path id="Path_127105" data-name="Path 127105" d="M2543.792-2929.569c-.39-1.18-1.569-1.18-2.554-3.733s-3.733-1.959-4.523-2.359-.779-.779-.39-1.958,1.375-5.107-.389-5.107-3.149,4.122-3.539,5.107a52.915,52.915,0,0,1-3.538,5.107,13.87,13.87,0,0,1-2.554.39c-.974,0-2.165,1.969-2.349,2.943-.13.617.822,2.619,1.558,4.025a31.286,31.286,0,0,0,1.191,3.441s.974,1.374,3.928.985,8.44,3.538,9.23,2.943,2.554-4.122,3.333-6.081A10.1,10.1,0,0,0,2543.792-2929.569Z" transform="translate(-2398.772 2942.727)" fill="#feb27d" stroke="#263238" stroke-linecap="round" stroke-linejoin="round" stroke-width="1"/>
            <path id="Path_127106" data-name="Path 127106" d="M2297.266-2588.829s3.571,5.41,3.766,7.51.183,6.017.367,7.326-.563,2.262-1.493,2.262a1.982,1.982,0,0,1-1.5-.941,21.889,21.889,0,0,0,.563,3.192c.367,1.32,2.435,2.446,2.25,3.755s-2.25,1.882-5.075,1.882a8.537,8.537,0,0,1-7.888-5.41c-1.688-3.939-3.376-15.214-3.376-17.313S2295.394-2590.333,2297.266-2588.829Z" transform="translate(-2279.293 2766.15)" fill="#fff" stroke="#263238" stroke-linecap="round" stroke-linejoin="round" stroke-width="1"/>
            <path id="Path_127107" data-name="Path 127107" d="M2298.765-2574.363s.747,1.688-.757,4.328a17.417,17.417,0,0,0-2.251,5.075,18.106,18.106,0,0,0,1.688,3.755c.757,1.5,3.246,1.32,3.387,2.64a2.9,2.9,0,0,1-.379,2.056" transform="translate(-2284.731 2758.631)" fill="none" stroke="#263238" stroke-linecap="round" stroke-linejoin="round" stroke-width="1"/>
            <path id="Path_127108" data-name="Path 127108" d="M2306.507-2558.291a19.572,19.572,0,0,0,1.006,4.329c.757,1.882,4.7,3.008,3.246,5.075" transform="translate(-2290.104 2750.598)" fill="none" stroke="#263238" stroke-linecap="round" stroke-linejoin="round" stroke-width="1"/>
            <path id="Path_127109" data-name="Path 127109" d="M2301.77-2556.712a16.586,16.586,0,0,0,.941,3.571c.563,1.083,4.329,2.251,3.571,5.259" transform="translate(-2287.736 2749.809)" fill="none" stroke="#263238" stroke-linecap="round" stroke-linejoin="round" stroke-width="1"/>
            <path id="Path_127110" data-name="Path 127110" d="M2311.158-2563.328s-.379-3.008-.563-4.133a25.275,25.275,0,0,1-.195-3.247" transform="translate(-2292.05 2756.804)" fill="none" stroke="#263238" stroke-linecap="round" stroke-linejoin="round" stroke-width="1"/>
            <path id="Path_127111" data-name="Path 127111" d="M2382.1-2827a39.334,39.334,0,0,0-16.891-7.65c-10.561-2.11-24.552,1.32-30.093,5.01a14.522,14.522,0,0,0-6.071,10.031Z" transform="translate(-2301.369 2889.037)" fill="#cead60"/>
            <path id="Path_127112" data-name="Path 127112" d="M2521.962-2893.941a5.992,5.992,0,0,1,0-3.16c.53-1.082.79-4.231,1.58-5.021s6.6-3.96,10.821-2.11,6.341,9.739,7.131,11.611-1.58,6.07-2.64,6.6-2.11-3.17-3.17-4.22S2525.63-2895.521,2521.962-2893.941Z" transform="translate(-2397.676 2923.774)" fill="#abad50"/>
            <path id="Path_127113" data-name="Path 127113" d="M2328.317-2856.414c-1.082.26-21.123,2.9-30.093,5.54s-16.361,6.071-16.631,9.5-7.575,67.37-7.856,71.071,2.381,25.071,3.7,25.862,7.391,1.32,9.5.53a9.054,9.054,0,0,0,3.43-2.37l.79-17.692s.53,6.07,1.58,6.341a118.479,118.479,0,0,0,40.394,3.43c22.724-1.85,32.2-5.281,34.042-6.6s1.591-5.281,1.591-5.281.26-2.9.26-5.811-8.473-61.3-8.473-61.3,34.843-9.5,37.483-12.671,15.312-37.743,15.312-40.383-5.811-6.6-10.031-6.861-14.521,20.56-16.891,22.172-25.083,10.562-33.545,12.141S2328.317-2856.414,2328.317-2856.414Z" transform="translate(-2273.716 2917.93)" fill="#75732e"/>
            <path id="Path_127114" data-name="Path 127114" d="M2366.145-2784s3.571,14.067,14.067,19.813" transform="translate(-2319.909 2863.398)" fill="none" stroke="#263238" stroke-linecap="round" stroke-linejoin="round" stroke-width="1"/>
            <path id="Path_127115" data-name="Path 127115" d="M2397.035-2731.928q1.191.617,2.435,1.2" transform="translate(-2335.347 2837.376)" fill="none" stroke="#263238" stroke-linecap="round" stroke-linejoin="round" stroke-width="1"/>
            <path id="Path_127116" data-name="Path 127116" d="M2366.145-2754.836a62.189,62.189,0,0,0,11.611,9.263" transform="translate(-2319.909 2848.825)" fill="none" stroke="#263238" stroke-linecap="round" stroke-linejoin="round" stroke-width="1"/>
            <path id="Path_127117" data-name="Path 127117" d="M2435.665-2762.629l-1.331-10.7-12.985,4.8,5.032,2.066c-2.456,2.165-5.67,5.216-3.679,4.859a34.346,34.346,0,0,0,7.51-3.246Z" transform="translate(-2347.498 2858.068)" fill="#263238" stroke="#263238" stroke-linecap="round" stroke-linejoin="round" stroke-width="1"/>
            <path id="Path_127118" data-name="Path 127118" d="M2296.621-2716.063c0-4.75,2.316-53.119,2.316-53.119l-.79-3.431-5.854-9.327,3.116,18.038c-2.478-.768-7.466-2.089-5.583.433a36.214,36.214,0,0,0,5.908,5.7l-1.774,35.774a15.3,15.3,0,0,0,2.1,8.527l1.818,3.095a13.537,13.537,0,0,1-1.255-5.692Z" transform="translate(-2281.559 2862.371)" fill="#263238" stroke="#263238" stroke-linecap="round" stroke-linejoin="round" stroke-width="1"/>
            <path id="Path_127119" data-name="Path 127119" d="M2306.334-2638.782a10.013,10.013,0,0,0,1.082,1.915Z" transform="translate(-2290.017 2790.825)" fill="#263238" stroke="#263238" stroke-linecap="round" stroke-linejoin="round" stroke-width="1"/>
            <path id="Path_127120" data-name="Path 127120" d="M2385.13-2642.038c-40.383,18.211-76.546,3.431-76.546,3.431s.53,6.07,1.58,6.341a118.482,118.482,0,0,0,40.395,3.43c22.723-1.85,32.2-5.281,34.042-6.6s1.591-5.281,1.591-5.281a14.975,14.975,0,0,1,.108-1.547Z" transform="translate(-2291.142 2792.566)" fill="#cead60"/>
            <path id="Path_127121" data-name="Path 127121" d="M2275.336-2603.033s6.07,2.641,11.092,1.083,6.33-3.171,7.12-2.9.8,6.59,0,8.44-2.64,3.17-8.18,3.7-8.44-2.164-8.971-3.7A52.8,52.8,0,0,1,2275.336-2603.033Z" transform="translate(-2274.525 2773.882)" fill="#abad50"/>
            <ellipse id="Elipse_4280" data-name="Elipse 4280" cx="20.013" cy="16.068" rx="20.013" ry="16.068" transform="translate(32.195 4.635)" fill="#75732e"/>
          </g>
          <g id="freepik--character-1--inject-100" transform="translate(0 190.294)">
            <ellipse id="Ellipse_4275" data-name="Ellipse 4275" cx="39.269" cy="12.184" rx="39.269" ry="12.184" transform="translate(0.689 272.988)" fill="#41c1c5"/>
            <ellipse id="Ellipse_4276" data-name="Ellipse 4276" cx="39.269" cy="12.184" rx="39.269" ry="12.184" transform="translate(0.689 272.988)" fill="#fff" opacity="0.5" style="isolation: isolate"/>
            <path id="Path_127122" data-name="Path 127122" d="M2188.448-2889.009s3.247,3.853,3.084,5.41a8.518,8.518,0,0,0,1.19,5c.768.963,2.889,1.731,2.889,3.463a6.214,6.214,0,0,1-1.158,3.247s.779,7.715,0,9.641-3.853,1.926-5.584,1.926-2.694-.195-3.246-.195-4.047-3.084-6.741-9.826.39-16.772,2.694-18.114S2188.448-2889.009,2188.448-2889.009Z" transform="translate(-2142.29 2897.59)" fill="#feb27d" stroke="#263238" stroke-linecap="round" stroke-linejoin="round" stroke-width="1"/>
            <line id="Line_1597" data-name="Line 1597" y1="4.437" x2="7.899" transform="translate(44.817 15.907)" fill="none" stroke="#263238" stroke-linecap="round" stroke-linejoin="round" stroke-width="1"/>
            <path id="Path_127123" data-name="Path 127123" d="M2205.217-2875.756s4.242-1.157,2.705,5.01" transform="translate(-2155.975 2890.895)" fill="none" stroke="#263238" stroke-linecap="round" stroke-linejoin="round" stroke-width="1"/>
            <path id="Path_127124" data-name="Path 127124" d="M2165.769-2821.173l-1.2,14.337-15.225-3.592v-11.352S2160.088-2824.171,2165.769-2821.173Z" transform="translate(-2128.051 2864.327)" fill="#feb27d" stroke="#263238" stroke-linecap="round" stroke-linejoin="round" stroke-width="1"/>
            <path id="Path_127125" data-name="Path 127125" d="M2148.277-2903.779a23.812,23.812,0,0,1-8.656.595c-4.458-.595-14.262.6-16.934,7.142s.595,12.476.292,14.262-5.053,4.458-5.053,7.141,2.077,5.053,1.19,7.131-2.381,3.863-1.19,5.94,5.951-1.482,6.492.6,5.053,4.761,7.142,4.761,4.458-4.458,5.648-2.684,3.56,3.571,5.941,3.247,3.56-5.789,8.656-3.571,6.72-2.424,6.493-6.492c-.173-3.874-4.75-9.219-3.863-12.195s2.673-5.053,2.077-8.321-3.246-4.458-1.785-6.839,3.571-2.37,4.166-5.345-.6-6.839-5.053-7.434S2148.277-2903.779,2148.277-2903.779Z" transform="translate(-2112.128 2905.932)" fill="#636363"/>
            <path id="Path_127126" data-name="Path 127126" d="M2120.691-2604.7s4.188,23.893,2.1,46.9c-.844,9.229-5.41,11.654-6.579,23.892s2.987,37.04.9,50.187c-.282,1.8-2.392,6.276,0,8.657s10.756.9,13.147.9,8.062-.9,8.656-2.391-3.582-2.987-6.265-8.062a41.651,41.651,0,0,1-4.783-18.817c0-6.871,4.176-26.284,7.466-42.115s5.075-24.5,5.075-33.458v-28.134c0-1.493-8.062-5.076-14.338-3.885S2120.691-2604.7,2120.691-2604.7Z" transform="translate(-2111.378 2758.668)" fill="#fff" stroke="#263238" stroke-linecap="round" stroke-linejoin="round" stroke-width="1"/>
            <path id="Path_127127" data-name="Path 127127" d="M2132.689-2360.848c-.465-.865-.9-1.8-1.309-2.759-.78,1.645-1.083,3.614-2.576,3.96-2.694.6-11.654-.3-11.654-.3-.292,1.8-2.391,6.276,0,8.656s10.756.9,13.147.9,8.062-.9,8.657-2.391S2135.373-2355.729,2132.689-2360.848Z" transform="translate(-2111.397 2634.896)" fill="#263238" stroke="#263238" stroke-linecap="round" stroke-linejoin="round" stroke-width="1"/>
            <path id="Path_127128" data-name="Path 127128" d="M2128.547-2496.642a37.556,37.556,0,0,1-.66-6.8c0-6.871,4.177-26.284,7.467-42.114s5.075-24.5,5.075-33.458v-28.134c0-1.493-8.062-5.075-14.338-3.885s-5.41,6.276-5.41,6.276,4.188,23.893,2.1,46.9c-.844,9.229-5.41,11.654-6.579,23.892-.866,8.895,1.082,24.4,1.439,37.267a22.723,22.723,0,0,0,10.907.054Z" transform="translate(-2111.377 2758.668)" fill="#727997" stroke="#263238" stroke-linecap="round" stroke-linejoin="round" stroke-width="1"/>
            <path id="Path_127129" data-name="Path 127129" d="M2117.7-2393.577a48.353,48.353,0,0,0,6.86.9,20.927,20.927,0,0,0,5.681-1.191l.9,7.77a38.376,38.376,0,0,1-8.364,1.493,11.08,11.08,0,0,1-4.48-.606S2117.7-2391.208,2117.7-2393.577Z" transform="translate(-2112.235 2650.02)" fill="#fff" stroke="#263238" stroke-linecap="round" stroke-linejoin="round" stroke-width="1"/>
            <path id="Path_127130" data-name="Path 127130" d="M2118.109-2642.33s-1.8,11.9,0,17.919,6.569,14.349,7.77,16.729,2.684,9.858,2.684,11.351,1.19,19.12-.6,28.08-3.885,14.067-3.885,22.723,4.177,41,4.177,46.67-2.089,12.844-.6,14.338,27.182-1.547,29.573-2.446a3.182,3.182,0,0,0,1.864-4.095,3.207,3.207,0,0,0-.381-.72c-.9-1.19-11.654-4.718-13.439-6.211s-2.987-6.276-3.246-8.365.6-34.129,1.8-41.292,5.973-21.208,8.656-28.978,7.467-35.243,7.467-45.1a173.13,173.13,0,0,0-.887-17.627S2131.236-2637.255,2118.109-2642.33Z" transform="translate(-2112.042 2774.193)" fill="#fff" stroke="#263238" stroke-linecap="round" stroke-linejoin="round" stroke-width="1"/>
            <path id="Path_127131" data-name="Path 127131" d="M2166.963-2343.625a3.181,3.181,0,0,0,1.859-4.1,3.18,3.18,0,0,0-.366-.7c-.9-1.19-11.654-4.718-13.44-6.211a4.093,4.093,0,0,1-.736-.844l-.757,4.729a10.823,10.823,0,0,1-6.579,2.391c-2.986,0-7.38-1.948-9.252-2.846-.509,4.523-1.569,9.046-.3,10.009C2143.46-2336.515,2164.571-2342.726,2166.963-2343.625Z" transform="translate(-2121.778 2630.831)" fill="#263238" stroke="#263238" stroke-linecap="round" stroke-linejoin="round" stroke-width="1"/>
            <path id="Path_127132" data-name="Path 127132" d="M2141.866-2507.459c-.086-5.713.757-33.631,1.851-40.178,1.19-7.174,5.973-21.209,8.656-28.978s7.467-35.243,7.467-45.1a172.925,172.925,0,0,0-.888-17.627s-27.766,2.088-40.891-2.987c0,0-1.8,11.9,0,17.919s6.568,14.349,7.769,16.729,2.684,9.858,2.684,11.351,1.19,19.12-.6,28.08-3.885,14.067-3.885,22.723c0,6.135,2.1,26.1,3.322,36.942a45.759,45.759,0,0,0,10.41,1.656A17.273,17.273,0,0,0,2141.866-2507.459Z" transform="translate(-2112.018 2774.193)" fill="#727997" stroke="#263238" stroke-linecap="round" stroke-linejoin="round" stroke-width="1"/>
            <path id="Path_127133" data-name="Path 127133" d="M2135.9-2375.587a16.872,16.872,0,0,0,6.265,1.169c3.582,0,8.96.887,8.657-.9a52.94,52.94,0,0,1,.292-7.769s-6.568.9-10.453.3-6.265-.9-6.265-.9S2135-2377.373,2135.9-2375.587Z" transform="translate(-2120.581 2644.928)" fill="#fff" stroke="#263238" stroke-linecap="round" stroke-linejoin="round" stroke-width="1"/>
            <path id="Path_127134" data-name="Path 127134" d="M2146.585-2792.745a22.975,22.975,0,0,0-12.249-8.062c-8.062-2.088-15.831,9.858-17.919,16.426s-2.392,24.2-5.41,33.155-5.075,26.89-3.885,28.979,26.89,8.656,35.849,8.656,18.569-7.163,18.85-10.745-1.493-27.474-2.986-40.329S2146.585-2792.745,2146.585-2792.745Z" transform="translate(-2106.779 2853.515)" fill="#7d6eb2" stroke="#263238" stroke-linecap="round" stroke-linejoin="round" stroke-width="1"/>
            <path id="Path_127135" data-name="Path 127135" d="M2164.489-2587.935s-.1,4.144,0,6.578a20.4,20.4,0,0,1-.909,6.579c-.508,1.613-1.72,2.727-1.818,1.613s.4-3.138.4-4.048-.3-5.053-.3-5.053a45.288,45.288,0,0,1-.909,4.448c-.606,2.327-2.326,4.75-3.138,4.956s-1.32-.509-.909-1.612a47.634,47.634,0,0,0,1.515-5.064c.1-.736.119-2.987.119-2.987a57.988,57.988,0,0,1-2.727,6.774c-.812,1.223-.909,1.828-1.721,1.926s-.7-1.623-.206-2.932a40.921,40.921,0,0,0,1.32-5.974c0-.4-.909,1.818-2.023,3.041s-1.926,2.218-2.435,2.023.205-2.165.617-3.041a13.619,13.619,0,0,0,1.007-3.333v-2.629s-.909-2.034,3.344-2.737S2163.58-2590.922,2164.489-2587.935Z" transform="translate(-2128.664 2748.073)" fill="#fff" stroke="#263238" stroke-linecap="round" stroke-linejoin="round" stroke-width="1"/>
            <path id="Path_127136" data-name="Path 127136" d="M2148.554-2591.863a3.678,3.678,0,0,0,1.3,4.176c2.229,1.493,10.182,2.695,12.725.3a7.209,7.209,0,0,0,2.543-4.783Z" transform="translate(-2127.554 2749.122)" fill="#fff" stroke="#263238" stroke-linecap="round" stroke-linejoin="round" stroke-width="1"/>
            <path id="Path_127137" data-name="Path 127137" d="M2143.01-2777.289s-6.568,10.756-6.568,17.627-3.593,54.958-3.885,60.943.292,10.745,3.885,13.731,18.211,2.987,22.1,1.493,7.467-8.364,7.467-13.136-4.48-40.037-5.411-46.9-1.2-25.093-3.884-29.27-3.593-4.491-3.593-4.491" transform="translate(-2119.629 2841.641)" fill="#7d6eb2" stroke="#263238" stroke-linecap="round" stroke-linejoin="round" stroke-width="1"/>
            <line id="Line_1598" data-name="Line 1598" y1="5.973" x2="0.887" transform="translate(39.514 71.223)" fill="none" stroke="#636363" stroke-linecap="round" stroke-linejoin="round" stroke-width="1"/>
          </g>
        </g>
      </g>
    </g>
  </g>
</svg>
