<svg xmlns="http://www.w3.org/2000/svg" xmlns:xlink="http://www.w3.org/1999/xlink" width="91.928" height="91.927" viewBox="0 0 91.928 91.927">
  <defs>
    <radialGradient id="radial-gradient" cx="0.076" cy="0.019" r="1.465" gradientTransform="translate(0.001)" gradientUnits="objectBoundingBox">
      <stop offset="0" stop-color="#f6f6f7"/>
      <stop offset="0.477" stop-color="#f9f9fa"/>
      <stop offset="0.715" stop-color="#fff"/>
    </radialGradient>
  </defs>
  <g id="Grupo_58713" data-name="Grupo 58713" transform="translate(12710.428 5506.241)">
    <g id="Grupo_58616" data-name="Grupo 58616" transform="translate(-12927.428 -6247.574)">
      <g id="Grupo_42274" data-name="Grupo 42274" transform="translate(142 768.333)">
        <g id="Grupo_18423" data-name="Grupo 18423" transform="translate(75 -27)">
          <g id="Grupo_18421" data-name="Grupo 18421">
            <g id="Grupo_18420" data-name="Grupo 18420">
              <g id="Grupo_18419" data-name="Grupo 18419">
                <path id="Trazado_40936" data-name="Trazado 40936" d="M286.55,2191.684a45.964,45.964,0,1,1-45.963-45.962A45.963,45.963,0,0,1,286.55,2191.684Z" transform="translate(-194.623 -2145.721)" fill="#fff"/>
              </g>
            </g>
          </g>
          <path id="Trazado_40937" data-name="Trazado 40937" d="M286.23,2191.334a45.963,45.963,0,1,0-45.963,45.965A45.782,45.782,0,0,0,286.23,2191.334Z" transform="translate(-194.303 -2145.372)" fill="url(#radial-gradient)"/>
          <path id="Trazado_40938" data-name="Trazado 40938" d="M272.56,2188.562a35.084,35.084,0,1,0-35.084,35.084A34.953,34.953,0,0,0,272.56,2188.562Z" transform="translate(-191.373 -2142.446)" fill="none" stroke="#7d70b0" stroke-miterlimit="10" stroke-width="4"/>
          <g id="Grupo_18422" data-name="Grupo 18422" transform="translate(8.143 25.805)">
            <path id="Trazado_40939" data-name="Trazado 40939" d="M279.682,2164.488a45.969,45.969,0,0,1-79.137,45.773,45.823,45.823,0,0,0,79.137-45.773Z" transform="translate(-200.545 -2164.488)" fill="#eceef0"/>
          </g>
        </g>
      </g>
    </g>
    <g id="Grupo_58619" data-name="Grupo 58619" transform="translate(-12984.953 -8625.983)">
      <path id="Trazado_17789" data-name="Trazado 17789" d="M850.067,508.172h-3.519a23.463,23.463,0,0,0-21.694-21.695v-3.519a1.674,1.674,0,1,0-3.347,0v3.519a23.465,23.465,0,0,0-21.695,21.695h-3.519a1.673,1.673,0,1,0,0,3.347h3.519a23.463,23.463,0,0,0,21.694,21.695v3.519a1.674,1.674,0,0,0,3.347,0v-3.519a23.463,23.463,0,0,0,21.694-21.695h3.519a1.673,1.673,0,1,0,0-3.347Zm-25.214,21.684v-4.949a1.674,1.674,0,1,0-3.347,0v4.949a20.113,20.113,0,0,1-18.338-18.338h4.95a1.673,1.673,0,1,0,0-3.347h-4.95a20.114,20.114,0,0,1,18.338-18.338v4.95a1.674,1.674,0,0,0,3.347,0v-4.95a20.114,20.114,0,0,1,18.338,18.338h-4.95a1.673,1.673,0,1,0,0,3.347h4.95a20.113,20.113,0,0,1-18.338,18.338Z" transform="translate(-502.689 2657.185)" fill="#7d6eb2"/>
      <path id="Trazado_17790" data-name="Trazado 17790" d="M841.472,514.5l-4.69-1.148-2.541-4.105a1.673,1.673,0,0,0-2.846,0l-2.541,4.105-4.69,1.148a1.673,1.673,0,0,0-.879,2.707l3.119,3.685-.358,4.815a1.673,1.673,0,0,0,2.3,1.673l4.468-1.828,4.469,1.828a1.672,1.672,0,0,0,2.3-1.673l-.357-4.815,3.119-3.685a1.673,1.673,0,0,0-.879-2.707Zm-5.237,4.752a1.675,1.675,0,0,0-.392,1.2l.208,2.8-2.6-1.063a1.676,1.676,0,0,0-1.268,0l-2.6,1.063.208-2.8a1.671,1.671,0,0,0-.391-1.2l-1.814-2.144,2.728-.668a1.677,1.677,0,0,0,1.026-.745l1.478-2.388L834.3,515.7a1.672,1.672,0,0,0,1.025.745l2.728.668Z" transform="translate(-512.328 2647.921)" fill="#7d6eb2"/>
    </g>
  </g>
</svg>
