<svg xmlns="http://www.w3.org/2000/svg" width="73" height="73" viewBox="0 0 73 73">
  <g id="Grupo_58628" data-name="Grupo 58628" transform="translate(8482.5 6564.426)">
    <g id="Grupo_58620" data-name="Grupo 58620" transform="translate(-8482.5 -6564.052)">
      <rect id="Rectángulo_31122" data-name="Rectángulo 31122" width="73" height="73" transform="translate(0 -0.374)" fill="none"/>
      <g id="_087-target-1" data-name="087-target-1" transform="translate(15.766 3.449)">
        <path id="Trazado_129784" data-name="Trazado 129784" d="M116.536,334.452c-.63-.058-1.267-.089-1.912-.089a20.689,20.689,0,0,0-20.65,19.9H97.8A20.694,20.694,0,0,1,116.536,334.452Z" transform="translate(-92.431 -292.958)" fill="#d4e1f4"/>
        <path id="Trazado_129785" data-name="Trazado 129785" d="M163,100.468A11.848,11.848,0,0,1,173.55,88.707a11.831,11.831,0,1,0,.006,23.523A11.848,11.848,0,0,1,163,100.468Z" transform="translate(-150.431 -78.551)" fill="#d4e1f4"/>
        <path id="Trazado_129786" data-name="Trazado 129786" d="M82.629,345.323h42.858a.765.765,0,0,0,.765-.765,22.194,22.194,0,1,0-44.388,0A.765.765,0,0,0,82.629,345.323Zm21.429-21.429a20.689,20.689,0,0,1,20.65,19.9h-41.3A20.689,20.689,0,0,1,104.058,323.893Z" transform="translate(-81.864 -282.488)" fill="#7d6eb2"/>
        <path id="Trazado_129787" data-name="Trazado 129787" d="M161.856,44.773a13.353,13.353,0,0,0,9.786-22.447l1.1-1.1,3.656.914a.892.892,0,0,0,.847-.235l5.7-5.7a.892.892,0,0,0-.543-1.519l-3.988-.395-.4-3.988a.892.892,0,0,0-1.519-.543l-5.7,5.7a.892.892,0,0,0-.235.847l.914,3.656L170.343,21.1a13.358,13.358,0,1,0-8.487,23.672Zm14.487-24.489-2.127-.532,3.718-3.718,2.42.239Zm-3.921-3.921,4.011-4.011.24,2.42-3.718,3.718Zm-10.566,3.218a11.775,11.775,0,0,1,7.4,2.607l-2.68,2.68a8.09,8.09,0,1,0,1.324,1.2l2.66-2.66a11.826,11.826,0,1,1-8.7-3.827Zm2.576,11.831a2.585,2.585,0,1,1-1.914-2.487L160.744,30.7a.892.892,0,0,0,1.262,1.262l1.987-1.987a2.563,2.563,0,0,1,.439,1.438Zm-.733-3.667a4.116,4.116,0,1,0,1.387,1.137l1.731-1.731a6.543,6.543,0,1,1-1.338-1.185Z" transform="translate(-140.003 -9.495)" fill="#26aab7"/>
      </g>
    </g>
  </g>
</svg>
