<svg xmlns="http://www.w3.org/2000/svg" xmlns:xlink="http://www.w3.org/1999/xlink" width="91.928" height="91.927" viewBox="0 0 91.928 91.927">
  <defs>
    <radialGradient id="radial-gradient" cx="0.076" cy="0.019" r="1.465" gradientTransform="translate(0.001)" gradientUnits="objectBoundingBox">
      <stop offset="0" stop-color="#f6f6f7"/>
      <stop offset="0.477" stop-color="#f9f9fa"/>
      <stop offset="0.715" stop-color="#fff"/>
    </radialGradient>
  </defs>
  <g id="Grupo_58810" data-name="Grupo 58810" transform="translate(4542.116 4841.463)">
    <g id="Grupo_58759" data-name="Grupo 58759" transform="translate(-4759.116 -5582.797)">
      <g id="Grupo_42274" data-name="Grupo 42274" transform="translate(142 768.333)">
        <g id="Grupo_18423" data-name="Grupo 18423" transform="translate(75 -27)">
          <g id="Grupo_18421" data-name="Grupo 18421">
            <g id="Grupo_18420" data-name="Grupo 18420">
              <g id="Grupo_18419" data-name="Grupo 18419">
                <path id="Trazado_40936" data-name="Trazado 40936" d="M286.55,2191.684a45.964,45.964,0,1,1-45.963-45.962A45.963,45.963,0,0,1,286.55,2191.684Z" transform="translate(-194.623 -2145.721)" fill="#fff"/>
              </g>
            </g>
          </g>
          <path id="Trazado_40937" data-name="Trazado 40937" d="M286.23,2191.334a45.963,45.963,0,1,0-45.963,45.965A45.782,45.782,0,0,0,286.23,2191.334Z" transform="translate(-194.303 -2145.372)" fill="url(#radial-gradient)"/>
          <path id="Trazado_40938" data-name="Trazado 40938" d="M272.56,2188.562a35.084,35.084,0,1,0-35.084,35.084A34.953,34.953,0,0,0,272.56,2188.562Z" transform="translate(-191.373 -2142.446)" fill="none" stroke="#31aebb" stroke-miterlimit="10" stroke-width="4"/>
          <g id="Grupo_18422" data-name="Grupo 18422" transform="translate(8.143 25.805)">
            <path id="Trazado_40939" data-name="Trazado 40939" d="M279.682,2164.488a45.969,45.969,0,0,1-79.137,45.773,45.823,45.823,0,0,0,79.137-45.773Z" transform="translate(-200.545 -2164.488)" fill="#eceef0"/>
          </g>
        </g>
      </g>
    </g>
    <g id="location" transform="translate(-4555.252 -4818.729)">
      <g id="Grupo_58400" data-name="Grupo 58400" transform="translate(39.451)">
        <g id="Grupo_58399" data-name="Grupo 58399">
          <path id="Trazado_131580" data-name="Trazado 131580" d="M72.993,5.755A19.649,19.649,0,0,0,39.451,19.649c0,10.617,10.039,19.448,15.432,24.192.749.659,1.4,1.229,1.912,1.71a3.386,3.386,0,0,0,4.609,0c.516-.482,1.163-1.051,1.912-1.71C68.71,39.1,78.748,30.266,78.748,19.649A19.521,19.521,0,0,0,72.993,5.755ZM61.519,41.8c-.766.674-1.427,1.256-1.973,1.765a.657.657,0,0,1-.893,0c-.545-.509-1.207-1.091-1.973-1.765-5.07-4.46-14.508-12.762-14.508-22.149a16.927,16.927,0,0,1,33.855,0C76.027,29.035,66.589,37.338,61.519,41.8Z" transform="translate(-39.451)" fill="#26aab7"/>
        </g>
      </g>
      <g id="Grupo_58402" data-name="Grupo 58402" transform="translate(50.441 10.247)">
        <g id="Grupo_58401" data-name="Grupo 58401">
          <path id="Trazado_131581" data-name="Trazado 131581" d="M169.229,112.938a8.659,8.659,0,1,0,8.659,8.659A8.669,8.669,0,0,0,169.229,112.938Zm0,14.6a5.938,5.938,0,1,1,5.938-5.938A5.944,5.944,0,0,1,169.229,127.534Z" transform="translate(-160.57 -112.938)" fill="#26aab7"/>
        </g>
      </g>
    </g>
  </g>
</svg>
