<svg xmlns="http://www.w3.org/2000/svg" xmlns:xlink="http://www.w3.org/1999/xlink" width="264.208" height="195.597" viewBox="0 0 264.208 195.597">
  <defs>
    <linearGradient id="linear-gradient" x1="-38.858" y1="0.5" x2="-37.858" y2="0.5" gradientUnits="objectBoundingBox">
      <stop offset="0" stop-color="#c4c8d8"/>
      <stop offset="0.022" stop-color="#c4c8d8"/>
      <stop offset="0.283" stop-color="#c4c8d8"/>
      <stop offset="0.304" stop-color="#c0c4d5"/>
      <stop offset="0.323" stop-color="#b5bace"/>
      <stop offset="0.341" stop-color="#a3a9c2"/>
      <stop offset="0.344" stop-color="#a0a6c0"/>
      <stop offset="0.986" stop-color="#a0a6c0"/>
      <stop offset="0.991" stop-color="#b4b9cd"/>
      <stop offset="0.995" stop-color="#c0c4d5"/>
      <stop offset="1" stop-color="#c4c8d8"/>
    </linearGradient>
    <linearGradient id="linear-gradient-2" x1="0.108" y1="-0.314" x2="7.094" y2="14.349" gradientUnits="objectBoundingBox">
      <stop offset="0.169" stop-color="#caceff"/>
      <stop offset="0.517" stop-color="#ccd6fc"/>
      <stop offset="1" stop-color="#ceddfb"/>
    </linearGradient>
    <linearGradient id="linear-gradient-3" x1="-0.225" y1="-2.709" x2="4.478" y2="17.567" xlink:href="#linear-gradient-2"/>
    <linearGradient id="linear-gradient-4" x1="-0.99" y1="-8.011" x2="3.692" y2="18.769" xlink:href="#linear-gradient-2"/>
    <linearGradient id="linear-gradient-5" x1="-2.056" y1="-5.774" x2="2.995" y2="6.657" xlink:href="#linear-gradient-2"/>
    <linearGradient id="linear-gradient-6" x1="-4.081" y1="-5.744" x2="2.539" y2="3.305" xlink:href="#linear-gradient-2"/>
    <linearGradient id="linear-gradient-7" x1="-10.124" y1="-6.36" x2="2.438" y2="1.761" xlink:href="#linear-gradient-2"/>
    <linearGradient id="linear-gradient-8" x1="-12.795" y1="-7.175" x2="1.291" y2="0.935" xlink:href="#linear-gradient-2"/>
    <linearGradient id="linear-gradient-9" x1="-6.229" y1="-8.18" x2="0.699" y2="0.737" xlink:href="#linear-gradient-2"/>
    <linearGradient id="linear-gradient-10" x1="-4.253" y1="-10.582" x2="0.895" y2="1.419" xlink:href="#linear-gradient-2"/>
    <linearGradient id="linear-gradient-11" x1="-3.284" y1="-19.114" x2="1.399" y2="5.286" xlink:href="#linear-gradient-2"/>
    <linearGradient id="linear-gradient-12" x1="-2.485" y1="-13.366" x2="2.203" y2="8.391" xlink:href="#linear-gradient-2"/>
    <linearGradient id="linear-gradient-13" x1="-1.835" y1="-4.642" x2="3.389" y2="6.825" xlink:href="#linear-gradient-2"/>
    <linearGradient id="linear-gradient-14" x1="-1.408" y1="-1.823" x2="5.768" y2="6.926" xlink:href="#linear-gradient-2"/>
    <linearGradient id="linear-gradient-15" x1="-1.353" y1="-0.477" x2="14.109" y2="7.632" xlink:href="#linear-gradient-2"/>
    <linearGradient id="linear-gradient-16" x1="0.107" y1="0.246" x2="11.814" y2="8.392" xlink:href="#linear-gradient-2"/>
    <linearGradient id="linear-gradient-17" x1="0.36" y1="0.292" x2="8.817" y2="12.722" xlink:href="#linear-gradient-2"/>
    <linearGradient id="linear-gradient-18" x1="0.127" y1="0.816" x2="0.859" y2="0.196" gradientUnits="objectBoundingBox">
      <stop offset="0.086" stop-color="#379ed6"/>
      <stop offset="0.301" stop-color="#57aee5"/>
      <stop offset="0.544" stop-color="#75bcf3"/>
      <stop offset="0.751" stop-color="#88c5fb"/>
      <stop offset="0.898" stop-color="#8fc9ff"/>
    </linearGradient>
  </defs>
  <g id="Grupo_58805" data-name="Grupo 58805" transform="translate(4537.722 7217.594)">
    <g id="Grupo_58739" data-name="Grupo 58739" transform="translate(-6761.326 -5920.957)">
      <ellipse id="Elipse_3983" data-name="Elipse 3983" cx="76.03" cy="131.694" rx="76.03" ry="131.694" transform="matrix(0.005, -1, 1, 0.005, 2223.605, -1102.468)" fill="#e1eafb"/>
      <g id="Grupo_58233" data-name="Grupo 58233">
        <g id="Grupo_58232" data-name="Grupo 58232">
          <path id="Trazado_130900" data-name="Trazado 130900" d="M2385.7-1132.666l47.8-27.6c3.76-2.171,3.284-6-1.058-8.506l-97.318-56.186c-4.342-2.507-10.972-2.782-14.732-.611l-47.8,27.6c-3.76,2.172-3.284,6,1.058,8.506l97.318,56.187C2375.314-1130.769,2381.944-1130.494,2385.7-1132.666Z" fill="#dee5e9" style="mix-blend-mode: multiply;isolation: isolate"/>
          <path id="Trazado_130901" data-name="Trazado 130901" d="M2270.06-1204.293l3.013,1.284,47.327-27.324c3.76-2.172,10.39-1.9,14.732.611l97.318,56.186c.191.11.365.226.541.341l3.053-.9v5.437l0,0a4.389,4.389,0,0,1-2.531,3.62l-47.8,27.6c-3.76,2.171-10.39,1.9-14.732-.611l-97.318-56.186c-2.338-1.35-3.544-3.083-3.582-4.734h-.011Z" fill="url(#linear-gradient)"/>
          <path id="Trazado_130902" data-name="Trazado 130902" d="M2385.7-1142.691l47.8-27.6c3.76-2.171,3.284-6-1.058-8.505l-97.318-56.187c-4.342-2.507-10.972-2.782-14.732-.61l-47.8,27.6c-3.76,2.171-3.284,6,1.058,8.505l97.318,56.187C2375.314-1140.8,2381.944-1140.52,2385.7-1142.691Z" fill="#eff0f5"/>
          <path id="Trazado_130903" data-name="Trazado 130903" d="M2273.654-1200.023l97.318,56.187c4.342,2.507,10.972,2.782,14.732.61l47.8-27.6a4.472,4.472,0,0,0,2.517-3.417c.11,1.479-.709,2.907-2.517,3.951l-47.8,27.6c-3.76,2.171-10.39,1.9-14.732-.611l-97.318-56.187c-2.507-1.447-3.717-3.334-3.575-5.089C2270.2-1202.981,2271.4-1201.324,2273.654-1200.023Z" fill="#bfc4d5"/>
          <path id="Trazado_130904" data-name="Trazado 130904" d="M2273.129-1202.312a6.989,6.989,0,0,0,2.394,2.137l23.7,13.679,30.153,17.405,42.8,24.707c3.633,2.1,9.173,2.334,12.319.513l43.686-25.22,3.291-1.9c3.146-1.821,2.744-5.019-.889-7.122l-14.525-8.386-27.4-15.816-37.547-21.681-17.167-9.908c-3.633-2.1-9.181-2.325-12.328-.513l-18.047,10.421-28.921,16.7C2272.445-1206.023,2271.975-1204.082,2273.129-1202.312Z" fill="#2a2a2c"/>
          <path id="Trazado_130905" data-name="Trazado 130905" d="M2273.763-1202.726a4.682,4.682,0,0,0,.3.412,6.539,6.539,0,0,0,1.831,1.491l24.808,14.325,3.43,1.975,26.736,15.429,4.594,2.654,22.287,12.859,14.8,8.544a13.481,13.481,0,0,0,6.592,1.649,10.149,10.149,0,0,0,4.97-1.14l9.792-5.647,32.772-18.919,4.411-2.533a2.956,2.956,0,0,0,1.746-2.436c0-1.2-.97-2.424-2.63-3.406l-15.659-9.029-27.39-15.816-2.9-1.672L2349.584-1224l-4.957-2.86-11.065-6.387a13.4,13.4,0,0,0-6.6-1.637,11.425,11.425,0,0,0-3.66.546,6.151,6.151,0,0,0-1.322.57L2305.069-1224l-7.26,4.193-22.785,13.15a3.267,3.267,0,0,0-1.7,1.951A2.47,2.47,0,0,0,2273.763-1202.726Z" fill="#3a3f47"/>
          <path id="Trazado_130906" data-name="Trazado 130906" d="M2344.627-1226.856l13.125,73.275,14.8,8.544a13.481,13.481,0,0,0,6.592,1.649,10.149,10.149,0,0,0,4.97-1.14l9.792-5.647-9.647-53.811L2349.584-1224Z" fill="#3e444d"/>
          <path id="Trazado_130907" data-name="Trazado 130907" d="M2297.809-1219.8l6.326,35.28,26.736,15.429,4.594,2.654-12.168-67.894a6.151,6.151,0,0,0-1.322.57L2305.069-1224Z" fill="#3e444d"/>
          <path id="Trazado_130908" data-name="Trazado 130908" d="M2278.541-1201.907a4.167,4.167,0,0,0,.285.387,6.11,6.11,0,0,0,1.72,1.4l23.313,13.462,3.224,1.857,25.125,14.5,4.316,2.495,20.945,12.084,15.625,9.02a12.68,12.68,0,0,0,6.2,1.549,9.536,9.536,0,0,0,4.67-1.071l9.2-5.307,30.8-17.779,4.146-2.38a2.778,2.778,0,0,0,1.64-2.29c0-1.127-.911-2.277-2.471-3.2l-16.433-9.476-25.74-14.863-2.722-1.571-32.585-18.805-4.659-2.687-10.4-6a12.593,12.593,0,0,0-6.207-1.537,10.749,10.749,0,0,0-3.44.513,5.781,5.781,0,0,0-1.241.535l-7.379,4.595.168,4.7-16.145,9.326-6.993-.43-13.774,7.283a3.062,3.062,0,0,0-1.594,1.833A2.318,2.318,0,0,0,2278.541-1201.907Z" fill="#fcfbfa"/>
          <path id="Trazado_130909" data-name="Trazado 130909" d="M2297.194-1214.593l11.777-6.8c.214-.124.187-.343-.061-.486h0a.938.938,0,0,0-.841-.035l-11.777,6.8c-.215.124-.188.343.061.486h0A.935.935,0,0,0,2297.194-1214.593Z" fill="#2a2a2c"/>
          <path id="Trazado_130910" data-name="Trazado 130910" d="M2309.061-1221.477a.466.466,0,0,0-.151-.134.938.938,0,0,0-.841-.035l-11.777,6.8a.311.311,0,0,0-.091.084.226.226,0,0,1,.091-.352l11.777-6.8a.938.938,0,0,1,.841.035C2309.11-1221.763,2309.159-1221.6,2309.061-1221.477Z" fill="#3a3f47"/>
          <path id="Trazado_130911" data-name="Trazado 130911" d="M2312.033-1223.839a2.83,2.83,0,0,0,2.563,0,.781.781,0,0,0,.008-1.48,2.833,2.833,0,0,0-2.563.005A.781.781,0,0,0,2312.033-1223.839Z" fill="#3a3f47"/>
          <path id="Trazado_130912" data-name="Trazado 130912" d="M2312.506-1224.112a1.792,1.792,0,0,0,1.62,0,.494.494,0,0,0,.005-.935,1.792,1.792,0,0,0-1.62,0A.494.494,0,0,0,2312.506-1224.112Z" fill="#516f83"/>
          <path id="Trazado_130913" data-name="Trazado 130913" d="M2309.59-1222.216a2,2,0,0,0,1.81,0,.552.552,0,0,0,.005-1.045,2,2,0,0,0-1.809,0A.552.552,0,0,0,2309.59-1222.216Z" fill="#2a2a2c"/>
          <g id="Grupo_58230" data-name="Grupo 58230">
            <path id="Trazado_130914" data-name="Trazado 130914" d="M2281.1-1190.983l6.986,4.033c.57.329,1.036-.023,1.036-.783h0a2.49,2.49,0,0,0-1.036-1.98l-6.986-4.034c-.57-.328-1.036.024-1.036.784h0A2.49,2.49,0,0,0,2281.1-1190.983Z" fill="#c4c8d8"/>
            <path id="Trazado_130915" data-name="Trazado 130915" d="M2280.569-1190.655l6.986,4.034c.569.329,1.036-.024,1.036-.784h0a2.493,2.493,0,0,0-1.036-1.98l-6.986-4.033c-.57-.329-1.037.023-1.037.783h0A2.491,2.491,0,0,0,2280.569-1190.655Z" fill="#a0a6c0"/>
          </g>
          <g id="Grupo_58231" data-name="Grupo 58231">
            <path id="Trazado_130916" data-name="Trazado 130916" d="M2325.551-1165.336l6.986,4.034c.57.329,1.036-.024,1.036-.784h0a2.491,2.491,0,0,0-1.036-1.98l-6.986-4.033c-.57-.329-1.036.023-1.036.783h0A2.49,2.49,0,0,0,2325.551-1165.336Z" fill="#c4c8d8"/>
            <path id="Trazado_130917" data-name="Trazado 130917" d="M2325.024-1165.008l6.985,4.034c.57.329,1.037-.024,1.037-.784h0a2.491,2.491,0,0,0-1.037-1.98l-6.985-4.033c-.57-.329-1.037.023-1.037.783h0A2.49,2.49,0,0,0,2325.024-1165.008Z" fill="#a0a6c0"/>
          </g>
          <path id="Trazado_130918" data-name="Trazado 130918" d="M2406.055-1151.811c0,.65.4.949.889.667l6-3.454a2.151,2.151,0,0,0,.889-1.7c0-.65-.4-.958-.889-.676l-.59.342-5.411,3.121a2.045,2.045,0,0,0-.829,1.239A1.751,1.751,0,0,0,2406.055-1151.811Z" fill="#a0a6c0"/>
          <path id="Trazado_130919" data-name="Trazado 130919" d="M2406.115-1152.273l5.411-3.129a2.033,2.033,0,0,0,.829-1.231l-5.411,3.121A2.045,2.045,0,0,0,2406.115-1152.273Z" fill="#191f28"/>
        </g>
      </g>
      <g id="Grupo_58240" data-name="Grupo 58240">
        <g id="Grupo_58239" data-name="Grupo 58239">
          <g id="Grupo_58238" data-name="Grupo 58238">
            <g id="Grupo_58237" data-name="Grupo 58237">
              <path id="Trazado_130920" data-name="Trazado 130920" d="M2399.269-1210.825l-.223.635-10.208-3.145-32.038-18.486Z" fill="#ae835b"/>
              <path id="Trazado_130921" data-name="Trazado 130921" d="M2356.8-1231.816l-33.456,19.312-13.837.87-.192-.691Z" fill="#ae835b"/>
              <path id="Trazado_130922" data-name="Trazado 130922" d="M2334.856-1204.264l20.524,37.806h-21.955l-32.038-18.486Z" fill="#becdd4" style="mix-blend-mode: multiply;isolation: isolate"/>
              <path id="Trazado_130923" data-name="Trazado 130923" d="M2355.38-1166.458l33.458-19.317v-28.264l-33.458,19.317Z" fill="#c99a6b"/>
              <path id="Trazado_130924" data-name="Trazado 130924" d="M2388.838-1214.039l-33.458,19.317,17.7-9.658Z" fill="#87623f"/>
              <path id="Trazado_130925" data-name="Trazado 130925" d="M2355.38-1166.458l-32.05-18.5v-28.264l32.05,18.5Z" fill="#ae835b"/>
              <g id="Grupo_58236" data-name="Grupo 58236">
                <g id="Grupo_58234" data-name="Grupo 58234">
                  <path id="Trazado_130926" data-name="Trazado 130926" d="M2353.72-1169.095l-7.191-4.152v-8.254l7.191,4.152ZM2347-1173.52l6.244,3.6v-7.162l-6.244-3.6Z" fill="#87623f"/>
                </g>
                <g id="Grupo_58235" data-name="Grupo 58235">
                  <path id="Trazado_130927" data-name="Trazado 130927" d="M2350.917-1171.739l-1.586-.916v-4.156l1.586.916Z" fill="#87623f"/>
                  <path id="Trazado_130928" data-name="Trazado 130928" d="M2352.476-1174.2l-4.7-2.716,2.352-1.479Z" fill="#87623f"/>
                </g>
              </g>
              <path id="Trazado_130929" data-name="Trazado 130929" d="M2312.911-1197.937l42.469,3.215v.7l-10.2,14.935-32.038-18.486Z" fill="#d6b28e"/>
              <path id="Trazado_130930" data-name="Trazado 130930" d="M2402.606-1196.562l-33.456,19.312-13.768-16.774v-.7l47.486-2.232Z" fill="#d6b28e"/>
              <path id="Trazado_130931" data-name="Trazado 130931" d="M2323.343-1213.208l32.038,18.486-10.431,15.272-32.038-18.486Z" fill="#edbc8e"/>
              <path id="Trazado_130932" data-name="Trazado 130932" d="M2367.231-1229.31l32.038,18.486-10.431-3.214-32.038-18.486Z" fill="#edbc8e"/>
              <path id="Trazado_130933" data-name="Trazado 130933" d="M2356.811-1232.528l32.038,18.486-33.468,19.32-32.038-18.486Z" fill="#e8b687"/>
              <path id="Trazado_130934" data-name="Trazado 130934" d="M2324.178-1213.226l32.621-18.831,31.19,18-32.621,18.831Z" fill="#c99a6b"/>
              <path id="Trazado_130935" data-name="Trazado 130935" d="M2402.866-1196.954l-33.457,19.312-14.029-17.085,33.457-19.311Z" fill="#f7cca3"/>
              <path id="Trazado_130936" data-name="Trazado 130936" d="M2356.8-1232.52l-33.456,19.312-14.029.882,33.456-19.311Z" fill="#e8b687"/>
              <path id="Trazado_130937" data-name="Trazado 130937" d="M2373.016-1204.788l-.275.148-.106-.064.275-.148Z" fill="#d1a986"/>
            </g>
          </g>
          <path id="Trazado_130938" data-name="Trazado 130938" d="M2349.1-1198.843l6.264,3.615,7.7-4.442-6.264-3.615Z" fill="#ad8057"/>
          <path id="Trazado_130939" data-name="Trazado 130939" d="M2356.8-1203.286v-28.771l31.19,18-24.926,14.389Z" fill="#ae835b"/>
          <path id="Trazado_130940" data-name="Trazado 130940" d="M2379.465-1209.133l-24.1,13.9-14.572-8.406-3.623-2.095-3.834-2.214,3.123-.7,4.993-4.176,6.021-1.91,3.821-3.241,5.507-1.792,3.109.58,3.149,1.976,4.506,1.344,4.2,1.831,3.715,3.1Z" fill="#ebedfa"/>
        </g>
        <path id="Trazado_130941" data-name="Trazado 130941" d="M2343.293-1209.389H2341.1a1.45,1.45,0,0,0-1.446,1.446,1.451,1.451,0,0,0,1.446,1.446h2.194a1.451,1.451,0,0,0,1.446-1.446A1.45,1.45,0,0,0,2343.293-1209.389Z" fill="#e1e7f7"/>
        <path id="Trazado_130942" data-name="Trazado 130942" d="M2352.545-1199.627l1.954-1a1.45,1.45,0,0,0,.63-1.945,1.45,1.45,0,0,0-1.945-.631l-1.954,1a1.451,1.451,0,0,0-.63,1.945A1.45,1.45,0,0,0,2352.545-1199.627Z" fill="#e1e7f7"/>
        <path id="Trazado_130943" data-name="Trazado 130943" d="M2359.374-1211.311l1.272,1.787a1.451,1.451,0,0,0,2.017.339,1.45,1.45,0,0,0,.338-2.016l-1.272-1.787a1.451,1.451,0,0,0-2.017-.339A1.45,1.45,0,0,0,2359.374-1211.311Z" fill="#e1e7f7"/>
        <path id="Trazado_130944" data-name="Trazado 130944" d="M2368.366-1207.2l1.953-1a1.449,1.449,0,0,0,.63-1.945,1.449,1.449,0,0,0-1.945-.63l-1.953,1a1.45,1.45,0,0,0-.63,1.945A1.449,1.449,0,0,0,2368.366-1207.2Z" fill="#e1e7f7"/>
        <path id="Trazado_130945" data-name="Trazado 130945" d="M2357.975-1200.83l2.156.4a1.451,1.451,0,0,0,1.688-1.155,1.449,1.449,0,0,0-1.154-1.687l-2.156-.405a1.451,1.451,0,0,0-1.688,1.155A1.449,1.449,0,0,0,2357.975-1200.83Z" fill="#edf5fc"/>
        <path id="Trazado_130946" data-name="Trazado 130946" d="M2353.869-1208.309l-1.672,1.42a1.45,1.45,0,0,0-.165,2.038,1.449,1.449,0,0,0,2.038.165l1.671-1.42a1.45,1.45,0,0,0,.165-2.038A1.449,1.449,0,0,0,2353.869-1208.309Z" fill="#edf5fc"/>
        <path id="Trazado_130947" data-name="Trazado 130947" d="M2357.3-1219.422,2355.63-1218a1.45,1.45,0,0,0-.165,2.038,1.451,1.451,0,0,0,2.038.165l1.671-1.42a1.45,1.45,0,0,0,.166-2.038A1.45,1.45,0,0,0,2357.3-1219.422Z" fill="#edf5fc"/>
        <path id="Trazado_130948" data-name="Trazado 130948" d="M2365.934-1208.185l-1.849-1.181a1.449,1.449,0,0,0-2,.441,1.449,1.449,0,0,0,.44,2l1.849,1.181a1.449,1.449,0,0,0,2-.44A1.451,1.451,0,0,0,2365.934-1208.185Z" fill="#f0f2ff"/>
        <path id="Trazado_130949" data-name="Trazado 130949" d="M2368.879-1207.7l-1.51,1.591a1.449,1.449,0,0,0,.053,2.044,1.45,1.45,0,0,0,2.044-.054l1.51-1.591a1.451,1.451,0,0,0-.053-2.044A1.45,1.45,0,0,0,2368.879-1207.7Z" fill="#f0f2ff"/>
        <path id="Trazado_130950" data-name="Trazado 130950" d="M2362.89-1216.492l-1.849-1.181a1.449,1.449,0,0,0-2,.441,1.449,1.449,0,0,0,.44,2l1.849,1.181a1.449,1.449,0,0,0,2-.44A1.45,1.45,0,0,0,2362.89-1216.492Z" fill="#f0f2ff"/>
        <path id="Trazado_130951" data-name="Trazado 130951" d="M2346.354-1206.62l-2.191-.109a1.45,1.45,0,0,0-1.515,1.373,1.45,1.45,0,0,0,1.372,1.515l2.191.109a1.452,1.452,0,0,0,1.516-1.373A1.45,1.45,0,0,0,2346.354-1206.62Z" fill="#f0f2ff"/>
        <path id="Trazado_130952" data-name="Trazado 130952" d="M2353.2-1217.5l-2.191-.108a1.449,1.449,0,0,0-1.515,1.372,1.45,1.45,0,0,0,1.372,1.516l2.191.108a1.45,1.45,0,0,0,1.516-1.372A1.452,1.452,0,0,0,2353.2-1217.5Z" fill="#f0f2ff"/>
        <path id="Trazado_130953" data-name="Trazado 130953" d="M2367.257-1215.02l-1.926,1.05a1.45,1.45,0,0,0-.577,1.962,1.451,1.451,0,0,0,1.961.577l1.926-1.051a1.449,1.449,0,0,0,.577-1.961A1.449,1.449,0,0,0,2367.257-1215.02Z" fill="#f7f8ff"/>
        <path id="Trazado_130954" data-name="Trazado 130954" d="M2355.709-1200.043l-2.161.375a1.45,1.45,0,0,0-1.177,1.672,1.45,1.45,0,0,0,1.672,1.177l2.161-.375a1.45,1.45,0,0,0,1.177-1.672A1.451,1.451,0,0,0,2355.709-1200.043Z" fill="#f7f8ff"/>
        <path id="Trazado_130955" data-name="Trazado 130955" d="M2341.587-1205.18a1.458,1.458,0,0,1-.791,1.541l-3.623-2.095a1.333,1.333,0,0,1,.58-.25l2.16-.369A1.44,1.44,0,0,1,2341.587-1205.18Z" fill="#f7f8ff"/>
        <path id="Trazado_130956" data-name="Trazado 130956" d="M2375.469-1211.2l-2.162.375a1.451,1.451,0,0,0-1.177,1.672,1.451,1.451,0,0,0,1.672,1.177l2.161-.375a1.45,1.45,0,0,0,1.177-1.672A1.45,1.45,0,0,0,2375.469-1211.2Z" fill="#f7f8ff"/>
        <path id="Trazado_130957" data-name="Trazado 130957" d="M2353.8-1214.589l-2.161.376a1.449,1.449,0,0,0-1.178,1.671,1.451,1.451,0,0,0,1.672,1.178l2.161-.376a1.45,1.45,0,0,0,1.178-1.671A1.451,1.451,0,0,0,2353.8-1214.589Z" fill="#f7f8ff"/>
        <path id="Trazado_130958" data-name="Trazado 130958" d="M2346.991-1213.43l-2.191-.108a1.45,1.45,0,0,0-1.515,1.372,1.45,1.45,0,0,0,1.372,1.516l2.191.108a1.45,1.45,0,0,0,1.516-1.372A1.451,1.451,0,0,0,2346.991-1213.43Z" fill="#f7f8ff"/>
        <path id="Trazado_130959" data-name="Trazado 130959" d="M2350.629-1207.125l-1.849-1.181a1.451,1.451,0,0,0-2,.44,1.451,1.451,0,0,0,.441,2l1.848,1.18a1.451,1.451,0,0,0,2-.44A1.449,1.449,0,0,0,2350.629-1207.125Z" fill="#f2f4ff"/>
        <path id="Trazado_130960" data-name="Trazado 130960" d="M2355.093-1208.591l2.1-.616a1.45,1.45,0,0,0,.982-1.793,1.451,1.451,0,0,0-1.794-.982l-2.1.616a1.45,1.45,0,0,0-.982,1.793A1.451,1.451,0,0,0,2355.093-1208.591Z" fill="#f2f4ff"/>
        <path id="Trazado_130961" data-name="Trazado 130961" d="M2359.394-1203.827l2.1-.615a1.451,1.451,0,0,0,.982-1.794,1.45,1.45,0,0,0-1.793-.982l-2.106.616a1.451,1.451,0,0,0-.982,1.794A1.45,1.45,0,0,0,2359.394-1203.827Z" fill="#f2f4ff"/>
        <path id="Trazado_130962" data-name="Trazado 130962" d="M2359.55-1213.8l1.065-1.918a1.449,1.449,0,0,0-.562-1.965,1.45,1.45,0,0,0-1.966.562l-1.065,1.918a1.449,1.449,0,0,0,.562,1.965A1.45,1.45,0,0,0,2359.55-1213.8Z" fill="#f2f4ff"/>
        <path id="Trazado_130963" data-name="Trazado 130963" d="M2338.232-1208.487l1.563-1.539a1.451,1.451,0,0,0,.015-2.045,1.45,1.45,0,0,0-2.044-.015l-1.563,1.539a1.45,1.45,0,0,0-.016,2.045A1.451,1.451,0,0,0,2338.232-1208.487Z" fill="#f2f4ff"/>
        <path id="Trazado_130964" data-name="Trazado 130964" d="M2364.915-1201.973l2.1-.616a1.451,1.451,0,0,0,.982-1.794,1.449,1.449,0,0,0-1.794-.981l-2.1.615a1.451,1.451,0,0,0-.982,1.794A1.451,1.451,0,0,0,2364.915-1201.973Z" fill="#f2f4ff"/>
        <path id="Trazado_130965" data-name="Trazado 130965" d="M2311.594-1194.722H2309.4a1.449,1.449,0,0,0-1.446,1.446,1.45,1.45,0,0,0,1.446,1.446h2.193a1.451,1.451,0,0,0,1.446-1.446A1.45,1.45,0,0,0,2311.594-1194.722Z" fill="#dfe3ff"/>
        <path id="Trazado_130966" data-name="Trazado 130966" d="M2391.066-1172.51l2.153-.419a1.45,1.45,0,0,0,1.143-1.7,1.45,1.45,0,0,0-1.7-1.142l-2.153.419a1.45,1.45,0,0,0-1.143,1.7A1.45,1.45,0,0,0,2391.066-1172.51Z" fill="#dfe3ff"/>
        <path id="Trazado_130967" data-name="Trazado 130967" d="M2361.153-1157.363l1.954-1a1.451,1.451,0,0,0,.63-1.945,1.45,1.45,0,0,0-1.945-.63l-1.954,1a1.45,1.45,0,0,0-.63,1.945A1.45,1.45,0,0,0,2361.153-1157.363Z" fill="#dfe3ff"/>
        <path id="Trazado_130968" data-name="Trazado 130968" d="M2345.184-1163.482l2.156.4a1.448,1.448,0,0,0,1.687-1.154,1.45,1.45,0,0,0-1.154-1.688l-2.156-.4a1.449,1.449,0,0,0-1.687,1.154A1.45,1.45,0,0,0,2345.184-1163.482Z" fill="#d5e7f7"/>
        <path id="Trazado_130969" data-name="Trazado 130969" d="M2371.271-1168.252l-1.672,1.421a1.45,1.45,0,0,0-.165,2.038,1.451,1.451,0,0,0,2.038.165l1.671-1.421a1.449,1.449,0,0,0,.166-2.037A1.449,1.449,0,0,0,2371.271-1168.252Z" fill="#d5e7f7"/>
        <path id="Trazado_130970" data-name="Trazado 130970" d="M2357.824-1158.977l-1.848-1.181a1.45,1.45,0,0,0-2,.44,1.451,1.451,0,0,0,.44,2l1.849,1.181a1.451,1.451,0,0,0,2-.441A1.45,1.45,0,0,0,2357.824-1158.977Z" fill="#f0f2ff"/>
        <path id="Trazado_130971" data-name="Trazado 130971" d="M2334.131-1172.66l2.156.405a1.451,1.451,0,0,0,1.687-1.155,1.449,1.449,0,0,0-1.154-1.687l-2.156-.4a1.451,1.451,0,0,0-1.688,1.155A1.45,1.45,0,0,0,2334.131-1172.66Z" fill="#dfe3ff"/>
        <path id="Trazado_130972" data-name="Trazado 130972" d="M2328.586-1176.769l-1.672,1.421a1.449,1.449,0,0,0-.165,2.037,1.45,1.45,0,0,0,2.038.166l1.671-1.421a1.45,1.45,0,0,0,.165-2.038A1.449,1.449,0,0,0,2328.586-1176.769Z" fill="#f0f2ff"/>
        <path id="Trazado_130973" data-name="Trazado 130973" d="M2354.086-1163.829l-1.849-1.18a1.45,1.45,0,0,0-2,.44,1.45,1.45,0,0,0,.441,2l1.848,1.181a1.45,1.45,0,0,0,2-.44A1.45,1.45,0,0,0,2354.086-1163.829Z" fill="#f0f2ff"/>
        <path id="Trazado_130974" data-name="Trazado 130974" d="M2383.718-1170.442l2.008.882a1.45,1.45,0,0,0,1.905-.743,1.45,1.45,0,0,0-.743-1.905l-2.008-.882a1.45,1.45,0,0,0-1.9.743A1.45,1.45,0,0,0,2383.718-1170.442Z" fill="#f0f2ff"/>
        <path id="Trazado_130975" data-name="Trazado 130975" d="M2381.431-1163.4l1.978-.947a1.45,1.45,0,0,0,.679-1.929,1.449,1.449,0,0,0-1.928-.679l-1.979.948a1.45,1.45,0,0,0-.679,1.928A1.45,1.45,0,0,0,2381.431-1163.4Z" fill="#dfe3ff"/>
        <path id="Trazado_130976" data-name="Trazado 130976" d="M2316.074-1190.235l-2.191-.109a1.451,1.451,0,0,0-1.516,1.373,1.45,1.45,0,0,0,1.373,1.515l2.191.109a1.45,1.45,0,0,0,1.515-1.373A1.449,1.449,0,0,0,2316.074-1190.235Z" fill="#f0f2ff"/>
        <path id="Trazado_130977" data-name="Trazado 130977" d="M2307.618-1190.13l-1.848-1.181a1.45,1.45,0,0,0-2,.441,1.449,1.449,0,0,0,.44,2l1.849,1.181a1.451,1.451,0,0,0,2-.44A1.45,1.45,0,0,0,2307.618-1190.13Z" fill="#d1d7ff"/>
        <path id="Trazado_130978" data-name="Trazado 130978" d="M2390.241-1167.312l2.193-.01a1.449,1.449,0,0,0,1.439-1.453,1.449,1.449,0,0,0-1.452-1.438l-2.194.01a1.451,1.451,0,0,0-1.439,1.453A1.45,1.45,0,0,0,2390.241-1167.312Z" fill="#d1d7ff"/>
      </g>
      <g id="Grupo_58241" data-name="Grupo 58241">
        <path id="Trazado_130979" data-name="Trazado 130979" d="M2288.626-1224.191l.2-.119-2.8-1.863a126.719,126.719,0,0,1,15.721-6.553l2.193,2.141A120.755,120.755,0,0,0,2288.626-1224.191Z" fill="url(#linear-gradient-2)"/>
        <path id="Trazado_130980" data-name="Trazado 130980" d="M2342.433-1238.122c-1.075.062-2.142.156-3.2.265l-3.194.308-3.163.394-1.582.2-1.563.241-3.126.482-3.081.568c-2.071.35-4.055.843-6.084,1.263l-1.614-2.3c2.114-.439,4.183-.951,6.341-1.317l3.211-.591,3.257-.5,1.629-.251,1.648-.206,3.3-.41,3.326-.321c1.108-.113,2.219-.211,3.338-.276Z" fill="url(#linear-gradient-3)"/>
        <path id="Trazado_130981" data-name="Trazado 130981" d="M2383.074-1236.372l-3.131-.494-3.168-.406c-2.1-.3-4.253-.452-6.378-.682-4.286-.324-8.592-.6-12.917-.618l.066-2.473c4.5.019,8.991.305,13.455.644,2.215.238,4.455.4,6.646.71l3.3.424,3.262.514Z" fill="url(#linear-gradient-4)"/>
        <path id="Trazado_130982" data-name="Trazado 130982" d="M2419.374-1225.585c-1.719-.761-3.4-1.555-5.2-2.248-.893-.355-1.767-.725-2.673-1.067l-2.754-1c-.907-.342-1.845-.654-2.8-.953l-2.834-.917-2.908-.835c-.966-.283-1.939-.558-2.939-.8l1.736-2.255c1.042.25,2.056.536,3.063.831l3.031.871,2.954.954c.992.313,1.97.638,2.916.994l2.869,1.038c.945.357,1.857.742,2.787,1.111,1.879.724,3.63,1.55,5.42,2.344Z" fill="url(#linear-gradient-5)"/>
        <path id="Trazado_130983" data-name="Trazado 130983" d="M2445.581-1207.483a74.15,74.15,0,0,0-15.14-12.152l3.129-1.678a77.331,77.331,0,0,1,15.776,12.662Z" fill="url(#linear-gradient-6)"/>
        <path id="Trazado_130984" data-name="Trazado 130984" d="M2457.472-1184.949a39.939,39.939,0,0,0-5.7-14.58l4.026-.831a41.6,41.6,0,0,1,5.936,15.192Z" fill="url(#linear-gradient-7)"/>
        <path id="Trazado_130985" data-name="Trazado 130985" d="M2453.183-1161.576a37.374,37.374,0,0,0,4.606-14.671l4.279.144a38.961,38.961,0,0,1-4.8,15.286Z" fill="url(#linear-gradient-8)"/>
        <path id="Trazado_130986" data-name="Trazado 130986" d="M2433.38-1141.1a78.4,78.4,0,0,0,7.82-5.933,62.561,62.561,0,0,0,6.394-6.479l3.849,1.1a65.041,65.041,0,0,1-6.665,6.753,81.783,81.783,0,0,1-8.147,6.183Z" fill="url(#linear-gradient-9)"/>
        <path id="Trazado_130987" data-name="Trazado 130987" d="M2401.256-1126.764c3.9-1.065,7.591-2.355,11.222-3.691,3.547-1.408,7.056-2.86,10.276-4.515l2.811,1.877c-3.356,1.722-7.009,3.238-10.709,4.7-3.782,1.4-7.635,2.737-11.7,3.848Z" fill="url(#linear-gradient-10)"/>
        <path id="Trazado_130988" data-name="Trazado 130988" d="M2361.888-1120.878a169.952,169.952,0,0,0,25.409-2.659l1.315,2.359a176.921,176.921,0,0,1-26.475,2.77Z" fill="url(#linear-gradient-11)"/>
        <path id="Trazado_130989" data-name="Trazado 130989" d="M2321.561-1124.35a170.7,170.7,0,0,0,25.253,3.289l-.38,2.463a177.8,177.8,0,0,1-26.313-3.428Z" fill="url(#linear-gradient-12)"/>
        <path id="Trazado_130990" data-name="Trazado 130990" d="M2286.737-1136.667a119.893,119.893,0,0,0,21.047,8.741l-2.022,2.173a124.819,124.819,0,0,1-21.932-9.108Z" fill="url(#linear-gradient-13)"/>
        <path id="Trazado_130991" data-name="Trazado 130991" d="M2262.9-1155.82c.415.577.891,1.139,1.381,1.7l1.446,1.679,1.588,1.637c.518.549,1.058,1.091,1.651,1.615l1.725,1.589c.592.524,1.234,1.029,1.847,1.544,1.2,1.042,2.577,2.011,3.9,3l-3.335,1.541c-1.376-1.033-2.806-2.044-4.059-3.129-.641-.537-1.308-1.064-1.925-1.609l-1.8-1.657c-.616-.546-1.18-1.111-1.721-1.683l-1.653-1.706-1.509-1.75c-.51-.581-1-1.166-1.439-1.768Z" fill="url(#linear-gradient-14)"/>
        <path id="Trazado_130992" data-name="Trazado 130992" d="M2253.936-1178.791a35.943,35.943,0,0,0,1.071,7.457c.4,1.227.662,2.469,1.181,3.683l.7,1.829.855,1.807-4.124.657-.89-1.884-.734-1.906c-.538-1.265-.818-2.558-1.229-3.837a37.241,37.241,0,0,1-1.117-7.768Z" fill="url(#linear-gradient-15)"/>
        <path id="Trazado_130993" data-name="Trazado 130993" d="M2261.156-1201.911c-.727,1.172-1.581,2.317-2.188,3.513l-.984,1.779-.834,1.805-.417.9-.342.913-.683,1.827-.532,1.843a14.74,14.74,0,0,0-.459,1.85l-4.251-.325a15.71,15.71,0,0,1,.478-1.927l.556-1.921.71-1.9.357-.952.435-.94.87-1.88,1.024-1.855c.635-1.245,1.52-2.44,2.281-3.661Z" fill="url(#linear-gradient-16)"/>
        <path id="Trazado_130994" data-name="Trazado 130994" d="M2278.863-1218.563a75.911,75.911,0,0,0-11.1,8.852l-3.7-1.255a78.054,78.054,0,0,1,10.926-8.813l3.21,1.6Z" fill="url(#linear-gradient-17)"/>
      </g>
      <g id="Grupo_58245" data-name="Grupo 58245">
        <g id="Grupo_58242" data-name="Grupo 58242">
          <path id="Trazado_130995" data-name="Trazado 130995" d="M2424-1138.456c-4.159,2.4-4.138,6.307.047,8.723a16.7,16.7,0,0,0,15.109.027c4.159-2.4,4.138-6.306-.047-8.723A16.7,16.7,0,0,0,2424-1138.456Z" fill="#dee5e9" style="mix-blend-mode: multiply;isolation: isolate"/>
          <path id="Trazado_130996" data-name="Trazado 130996" d="M2421.614-1152.293l-.9,15.051h.026c.074,1.555,1.12,3.1,3.181,4.29,4.258,2.458,11.139,2.471,15.37.028,1.947-1.124,2.951-2.575,3.1-4.051h.061l-.9-14.892Z" fill="#554d4e"/>
          <ellipse id="Elipse_3984" data-name="Elipse 3984" cx="5.753" cy="9.966" rx="5.753" ry="9.966" transform="translate(2421.583 -1146.167) rotate(-89.689)" fill="#6b6164"/>
          <ellipse id="Elipse_3985" data-name="Elipse 3985" cx="5.487" cy="9.503" rx="5.487" ry="9.503" transform="translate(2422.046 -1146.643) rotate(-89.689)" fill="#85787c"/>
        </g>
        <g id="Grupo_58243" data-name="Grupo 58243">
          <path id="Trazado_130997" data-name="Trazado 130997" d="M2425.8-1154.154v1.974h.014a2.931,2.931,0,0,0,1.693,2.283,9.037,9.037,0,0,0,8.178.015,2.934,2.934,0,0,0,1.648-2.155h.033v-1.84Z" fill="#493f41"/>
          <path id="Trazado_130998" data-name="Trazado 130998" d="M2426.794-1158.66c-2.626,1.516-2.613,3.982.03,5.508a10.546,10.546,0,0,0,9.54.017c2.626-1.516,2.613-3.982-.03-5.508A10.54,10.54,0,0,0,2426.794-1158.66Z" fill="#dcdbe5"/>
        </g>
        <g id="Grupo_58244" data-name="Grupo 58244">
          <path id="Trazado_130999" data-name="Trazado 130999" d="M2423.893-1159.535v3.713h.018a3.9,3.9,0,0,0,2.25,3.035,12.017,12.017,0,0,0,10.87.02,3.9,3.9,0,0,0,2.191-2.865h.043v-3.534Z" fill="#554d4e"/>
          <path id="Trazado_131000" data-name="Trazado 131000" d="M2426.127-1162.94c-2.992,1.727-2.977,4.537.034,6.276a12.014,12.014,0,0,0,10.87.019c2.992-1.727,2.977-4.537-.034-6.275A12.01,12.01,0,0,0,2426.127-1162.94Z" fill="#6b6164"/>
          <path id="Trazado_131001" data-name="Trazado 131001" d="M2426.341-1162.861c-2.836,1.638-2.821,4.3.032,5.948a11.383,11.383,0,0,0,10.3.018c2.836-1.637,2.821-4.3-.032-5.947A11.386,11.386,0,0,0,2426.341-1162.861Z" fill="#85787c"/>
        </g>
      </g>
      <g id="Grupo_58249" data-name="Grupo 58249">
        <g id="Grupo_58246" data-name="Grupo 58246">
          <ellipse id="Elipse_3986" data-name="Elipse 3986" cx="3.524" cy="6.103" rx="3.524" ry="6.103" transform="translate(2406.992 -1124.422) rotate(-89.689)" fill="#dee5e9" style="mix-blend-mode: multiply;isolation: isolate"/>
          <path id="Trazado_131002" data-name="Trazado 131002" d="M2407.186-1138.267l-.171,8.274h.015a3.091,3.091,0,0,0,1.785,2.408,9.536,9.536,0,0,0,8.625.016,3.1,3.1,0,0,0,1.739-2.274h.034l-.167-8.351Z" fill="#554d4e"/>
          <path id="Trazado_131003" data-name="Trazado 131003" d="M2408.907-1140.615c-2.309,1.334-2.3,3.5.026,4.844a9.274,9.274,0,0,0,8.389.015c2.309-1.333,2.3-3.5-.027-4.843A9.269,9.269,0,0,0,2408.907-1140.615Z" fill="#6b6164"/>
          <path id="Trazado_131004" data-name="Trazado 131004" d="M2409.1-1140.628c-2.2,1.272-2.191,3.339.025,4.619a8.841,8.841,0,0,0,8,.014c2.2-1.271,2.19-3.339-.025-4.618A8.841,8.841,0,0,0,2409.1-1140.628Z" fill="#85787c"/>
        </g>
        <g id="Grupo_58247" data-name="Grupo 58247">
          <path id="Trazado_131005" data-name="Trazado 131005" d="M2409.672-1139.547v1.175h.008a1.749,1.749,0,0,0,1.008,1.359,5.384,5.384,0,0,0,4.868.009,1.749,1.749,0,0,0,.981-1.283h.019v-1.095Z" fill="#493f41"/>
          <path id="Trazado_131006" data-name="Trazado 131006" d="M2410.266-1142.229c-1.563.9-1.555,2.37.018,3.278a6.273,6.273,0,0,0,5.678.01c1.564-.9,1.556-2.37-.017-3.278A6.276,6.276,0,0,0,2410.266-1142.229Z" fill="#dcdbe5"/>
        </g>
        <g id="Grupo_58248" data-name="Grupo 58248">
          <path id="Trazado_131007" data-name="Trazado 131007" d="M2408.539-1142.75v2.21h.011a2.32,2.32,0,0,0,1.339,1.806,7.15,7.15,0,0,0,6.47.012,2.322,2.322,0,0,0,1.305-1.7h.025v-2.1Z" fill="#554d4e"/>
          <path id="Trazado_131008" data-name="Trazado 131008" d="M2409.869-1144.777c-1.781,1.028-1.772,2.7.02,3.736a7.15,7.15,0,0,0,6.47.011c1.781-1.028,1.772-2.7-.02-3.735A7.151,7.151,0,0,0,2409.869-1144.777Z" fill="#6b6164"/>
          <path id="Trazado_131009" data-name="Trazado 131009" d="M2410-1144.73c-1.687.975-1.679,2.56.02,3.54a6.776,6.776,0,0,0,6.131.012c1.688-.975,1.679-2.56-.019-3.54A6.778,6.778,0,0,0,2410-1144.73Z" fill="#85787c"/>
        </g>
      </g>
      <g id="Grupo_58256" data-name="Grupo 58256">
        <g id="Grupo_58255" data-name="Grupo 58255">
          <path id="Trazado_131010" data-name="Trazado 131010" d="M2315.163-1296.6a.472.472,0,0,1,.644.418c-.01,10.54-.655,16.495-.655,27.3a20.31,20.31,0,0,1-4.9,6.941,20.185,20.185,0,0,1-6.439,3.832c-3.119,1.2-6.562,1.95-10.216,2.986a81.822,81.822,0,0,0-13.224,4.534c-.991.468-1.961.992-2.93,1.56-2.81,1.675-5.257,4.253-8.614,7.693-.1.106-.526.024-.644-.077v-27.73a41.305,41.305,0,0,1,9.258-7.749,29.567,29.567,0,0,1,2.93-1.56,80.2,80.2,0,0,1,12.734-4.289c3.843-1.069,7.453-1.782,10.706-3.03C2308.446-1287.524,2312.356-1290.309,2315.163-1296.6Z" fill="#26aab7"/>
          <path id="Trazado_131011" data-name="Trazado 131011" d="M2315.807-1296.186c-.011,11.085-.011,16.633-.011,27.718a20.327,20.327,0,0,1-4.9,6.941,20.2,20.2,0,0,1-6.44,3.832c-3.119,1.2-6.562,1.95-10.216,2.986a81.858,81.858,0,0,0-13.224,4.534c-.991.468-1.961.992-2.93,1.56a53.75,53.75,0,0,0-9.258,7.275v-27.73a49.574,49.574,0,0,1,9.258-7.408,29.589,29.589,0,0,1,2.93-1.56,80.094,80.094,0,0,1,12.734-4.289c3.843-1.07,7.453-1.783,10.706-3.03C2309.09-1287.106,2313-1289.892,2315.807-1296.186Z" fill="#7dccd4"/>
          <path id="Trazado_131012" data-name="Trazado 131012" d="M2315.807-1296.186c-.011,11.085-.011,16.633-.011,27.718a41.428,41.428,0,0,1-4.9,6.941,20.2,20.2,0,0,1-6.44,3.832v-27.662C2309.09-1287.106,2313-1289.892,2315.807-1296.186Z" fill="#a8dde2"/>
          <g id="Grupo_58250" data-name="Grupo 58250">
            <path id="Trazado_131013" data-name="Trazado 131013" d="M2289.4-1257.154a7.61,7.61,0,0,1-3.436-1.63,8.567,8.567,0,0,1-2.862-6.846c0-5.994,4.065-12.12,9.063-13a7.837,7.837,0,0,1,6.494,1.652,8.567,8.567,0,0,1,2.862,6.846c0,5.995-4.065,12.12-9.061,13A8.313,8.313,0,0,1,2289.4-1257.154Zm5.821-20.608a7.5,7.5,0,0,0-2.761-.014c-4.622.817-8.529,6.617-8.529,12.193a7.785,7.785,0,0,0,2.5,6.165,6.853,6.853,0,0,0,5.731,1.429c4.62-.818,8.526-6.616,8.526-12.193a7.788,7.788,0,0,0-2.5-6.165A6.5,6.5,0,0,0,2295.223-1277.762Z" fill="#a8dde2"/>
          </g>
          <g id="Grupo_58251" data-name="Grupo 58251">
            <path id="Trazado_131014" data-name="Trazado 131014" d="M2275.022-1257.106v1.036a24.966,24.966,0,0,0-3.52,3.959v-1.125A24.679,24.679,0,0,1,2275.022-1257.106Z" fill="#a8dde2"/>
          </g>
          <g id="Grupo_58252" data-name="Grupo 58252">
            <path id="Trazado_131015" data-name="Trazado 131015" d="M2275.022-1254.143v1.036a24.314,24.314,0,0,0-3.52,3.949v-1.114A23.739,23.739,0,0,1,2275.022-1254.143Z" fill="#a8dde2"/>
          </g>
          <g id="Grupo_58253" data-name="Grupo 58253">
            <path id="Trazado_131016" data-name="Trazado 131016" d="M2296.26-1266.173a4.214,4.214,0,0,1-3.051,4v2.382l-1.406.25v-2.366a5.292,5.292,0,0,1-3.549-1.134c.318-.826.477-1.237.8-2.057a4.473,4.473,0,0,0,3.435,1.072c1.065-.188,1.7-.774,1.7-1.59,0-2.433-5.337-.056-5.337-4.2a4.034,4.034,0,0,1,2.953-3.846v-2.249l1.406-.266v2.249a5.586,5.586,0,0,1,2.951.618c-.306.842-.459,1.261-.766,2.1a5.208,5.208,0,0,0-2.98-.575c-.894.158-1.477.647-1.477,1.363C2290.937-1268.063,2296.267-1270.352,2296.26-1266.173Z" fill="#a8dde2"/>
          </g>
          <g id="Grupo_58254" data-name="Grupo 58254">
            <path id="Trazado_131017" data-name="Trazado 131017" d="M2313.37-1285.813a6.436,6.436,0,0,1-1.394,3.275v1.064c-.256.3-.384.448-.641.732v-1.056a2.316,2.316,0,0,1-1.621.828c.145-.471.217-.708.363-1.185a2.245,2.245,0,0,0,1.569-.885,2.738,2.738,0,0,0,.778-1.494c0-1.087-2.438,2.191-2.438.339a5.183,5.183,0,0,1,1.349-2.855v-1.005c.257-.286.385-.434.642-.739v1a6.914,6.914,0,0,1,1.348-1.161c-.14.533-.21.8-.35,1.324a6.41,6.41,0,0,0-1.361,1.149,2.262,2.262,0,0,0-.675,1.233C2310.939-1284.189,2313.373-1287.684,2313.37-1285.813Z" fill="#7dccd4"/>
          </g>
          <path id="Trazado_131018" data-name="Trazado 131018" d="M2281.015-1278.038v27.863c-.991.468-1.961.992-2.93,1.56v-27.863A29.589,29.589,0,0,1,2281.015-1278.038Z" fill="#a8dde2"/>
        </g>
      </g>
      <g id="Grupo_58267" data-name="Grupo 58267">
        <path id="Trazado_131019" data-name="Trazado 131019" d="M2445.585-1212.4a9.2,9.2,0,0,1-8.319-.015c-2.3-1.33-2.315-3.48-.026-4.8a9.193,9.193,0,0,1,8.319.016C2447.863-1215.872,2447.875-1213.722,2445.585-1212.4Z" fill="#bdc2ff"/>
        <g id="Grupo_58259" data-name="Grupo 58259">
          <g id="Grupo_58258" data-name="Grupo 58258">
            <path id="Trazado_131020" data-name="Trazado 131020" d="M2446.119-1260.315l-.006.008c-1.788-.744-4.114-.482-6.664.99-5.631,3.251-10.194,11.122-10.194,17.583,0,8.793,10.194,18.8,10.194,18.8l3.516,1.824,6.727-37.341Z" fill="#ffc536"/>
            <g id="Grupo_58257" data-name="Grupo 58257">
              <path id="Trazado_131021" data-name="Trazado 131021" d="M2442.965-1257.494c5.631-3.251,10.194-.649,10.194,5.813,0,8.792-10.194,30.566-10.194,30.566s-10.194-10-10.194-18.8C2432.771-1246.372,2437.334-1254.243,2442.965-1257.494Z" fill="#ffc536"/>
              <path id="Trazado_131022" data-name="Trazado 131022" d="M2437.06-1242.388c0,3.742,2.644,5.25,5.906,3.367a13.014,13.014,0,0,0,5.905-10.186c0-3.743-2.644-5.25-5.905-3.367A13.011,13.011,0,0,0,2437.06-1242.388Z" fill="#fff"/>
            </g>
          </g>
          <path id="Trazado_131023" data-name="Trazado 131023" d="M2433.073-1239.589c0-6.388,4.511-14.17,10.079-17.385,4.854-2.8,8.9-1.2,9.862,3.485-.789-5.1-4.981-6.931-10.049-4.005-5.631,3.251-10.194,11.122-10.194,17.584,0,8.792,10.194,18.8,10.194,18.8l.025-.054C2441.739-1222.438,2433.073-1231.521,2433.073-1239.589Z" fill="#ffef86"/>
        </g>
        <g id="Grupo_58266" data-name="Grupo 58266">
          <path id="Trazado_131024" data-name="Trazado 131024" d="M2466.77-1251.68l-.02.012a1.282,1.282,0,0,0-1.278-.013l-3.891,2.247c-.334-2.863-1.573-5.041-3.59-6.205a7.4,7.4,0,0,0-5.96-.463l.485-5.376-1.4-.875a1.36,1.36,0,0,0-.32-.2l-.017-.011v.007a1.384,1.384,0,0,0-.5-.1,1.4,1.4,0,0,0-1.4,1.4v6.6c-5.955,3.675-10.566,11.753-10.587,18.662l-4.5,2.6a1.3,1.3,0,0,0-.475,1.774,1.3,1.3,0,0,0,.385.408v.008l1.645,1.03,3.4-2.363a7.178,7.178,0,0,0,3.233,4.4,6.662,6.662,0,0,0,3.377.879,9.612,9.612,0,0,0,3.52-.749v6.435a1.374,1.374,0,0,0,.617,1.129l0,.029,1.637,1.028.1-1.173a1.386,1.386,0,0,0,.444-1.013v-4.053l.362-4.126a24.546,24.546,0,0,0,9.523-16.275l3.393-2.364,1.807-1.043a1.262,1.262,0,0,0,.493-.56l1.022-.712Zm-11.6,5.95a1.3,1.3,0,0,0-.475,1.773,1.262,1.262,0,0,0,.4.414l0,.01,1.5.958.889-1.425-.057-.03,1.095-.632c-.036.166-.055.331-.095.5-.018.073-.041.147-.06.221-.137.534-.3,1.069-.485,1.6-.025.071-.047.142-.073.213q-.313.87-.708,1.726c-.031.067-.064.133-.095.2a23.607,23.607,0,0,1-1.962,3.4l-.066.094a21.415,21.415,0,0,1-2.571,3.033c-.232.225-.468.44-.708.649v-.185l.892-1.854-1.552-1.008-.012.015a1.365,1.365,0,0,0-.727-.232,1.4,1.4,0,0,0-1.4,1.4v3.822a7.626,7.626,0,0,1-3.584,1.017,4.407,4.407,0,0,1-.687-.062,3.707,3.707,0,0,1-1.228-.437,3.592,3.592,0,0,1-.7-.547c-.046-.044-.092-.089-.136-.138a4.238,4.238,0,0,1-.565-.752l0-.008a5.6,5.6,0,0,1-.43-.963c-.014-.04-.029-.079-.043-.121a7.588,7.588,0,0,1-.283-1.168c-.021-.13-.036-.266-.052-.4l4.23-2.442c.015-.009.023-.024.038-.034l.337.178,1.225-1.345-1.7-1.118-.026.032a1.275,1.275,0,0,0-1.173.039l-2.891,1.669q.063-.51.16-1.026l.012-.06h0a21.036,21.036,0,0,1,2.09-5.792h0a23.431,23.431,0,0,1,1.263-2.113h0a20.463,20.463,0,0,1,4.146-4.58v3.315a1.39,1.39,0,0,0,.774,1.235l-.01.01,1.445.921.945-1.306-.5-.269a1.383,1.383,0,0,0,.141-.591V-1253c.016-.007.032-.018.048-.025a8.1,8.1,0,0,1,1.966-.617,5.594,5.594,0,0,1,.905-.077,4.106,4.106,0,0,1,1.328.236,3.549,3.549,0,0,1,.66.266c1.469.848,2.281,2.744,2.291,5.339Z" fill="#5e5385"/>
          <g id="Grupo_58265" data-name="Grupo 58265">
            <g id="Grupo_58260" data-name="Grupo 58260">
              <path id="Trazado_131025" data-name="Trazado 131025" d="M2446.759-1226.362a6.669,6.669,0,0,1-3.378-.879c-2.38-1.373-3.691-4.147-3.691-7.809,0-7.076,4.828-15.406,10.992-18.965,3.212-1.854,6.3-2.115,8.7-.729,2.38,1.375,3.691,4.148,3.691,7.809,0,7.076-4.829,15.406-10.993,18.965A10.777,10.777,0,0,1,2446.759-1226.362Zm9.236-26.461a8.047,8.047,0,0,0-3.914,1.231c-5.29,3.055-9.593,10.475-9.593,16.542,0,2.62.814,4.534,2.292,5.387,1.495.862,3.591.6,5.9-.73,5.29-3.053,9.594-10.474,9.594-16.542,0-2.62-.814-4.533-2.292-5.386A3.922,3.922,0,0,0,2456-1252.823Z" fill="#cbc5e0"/>
            </g>
            <g id="Grupo_58261" data-name="Grupo 58261">
              <path id="Trazado_131026" data-name="Trazado 131026" d="M2451.678-1245.637h0a1.4,1.4,0,0,1-1.4-1.4v-13.327a1.4,1.4,0,0,1,1.4-1.4h0a1.4,1.4,0,0,1,1.4,1.4v13.327A1.4,1.4,0,0,1,2451.678-1245.637Z" fill="#cbc5e0"/>
            </g>
            <g id="Grupo_58262" data-name="Grupo 58262">
              <path id="Trazado_131027" data-name="Trazado 131027" d="M2451.678-1219.277h0a1.4,1.4,0,0,1-1.4-1.4V-1234a1.4,1.4,0,0,1,1.4-1.4h0a1.4,1.4,0,0,1,1.4,1.4v13.327A1.4,1.4,0,0,1,2451.678-1219.277Z" fill="#cbc5e0"/>
            </g>
            <g id="Grupo_58263" data-name="Grupo 58263">
              <path id="Trazado_131028" data-name="Trazado 131028" d="M2456.083-1243.061h0a1.3,1.3,0,0,1,.475-1.774l10.306-5.951a1.3,1.3,0,0,1,1.773.475h0a1.3,1.3,0,0,1-.475,1.774l-10.306,5.95A1.3,1.3,0,0,1,2456.083-1243.061Z" fill="#cbc5e0"/>
            </g>
            <g id="Grupo_58264" data-name="Grupo 58264">
              <path id="Trazado_131029" data-name="Trazado 131029" d="M2434.719-1230.727h0a1.3,1.3,0,0,1,.475-1.774l10.306-5.95a1.3,1.3,0,0,1,1.773.475h0a1.3,1.3,0,0,1-.475,1.773l-10.306,5.951A1.3,1.3,0,0,1,2434.719-1230.727Z" fill="#cbc5e0"/>
            </g>
          </g>
        </g>
      </g>
      <path id="Trazado_131030" data-name="Trazado 131030" d="M2299.153-1226.05a9.191,9.191,0,0,1-8.318-.015c-2.3-1.33-2.316-3.48-.026-4.8a9.191,9.191,0,0,1,8.318.015C2301.431-1229.522,2301.443-1227.372,2299.153-1226.05Z" fill="#bdc2ff"/>
      <g id="Grupo_58273" data-name="Grupo 58273">
        <g id="Grupo_58270" data-name="Grupo 58270">
          <ellipse id="Elipse_3987" data-name="Elipse 3987" cx="11.643" cy="20.167" rx="11.643" ry="20.167" transform="translate(2264.8 -1131.286) rotate(-89.689)" fill="#becdd4" style="mix-blend-mode: multiply;isolation: isolate"/>
          <g id="Grupo_58269" data-name="Grupo 58269">
            <circle id="Elipse_3988" data-name="Elipse 3988" cx="22.077" cy="22.077" r="22.077" transform="translate(2264.954 -1178.002)" fill="url(#linear-gradient-18)"/>
            <circle id="Elipse_3989" data-name="Elipse 3989" cx="20.192" cy="20.192" r="20.192" transform="translate(2260.649 -1166.853) rotate(-22.5)" fill="#a8dde2"/>
            <g id="Grupo_58268" data-name="Grupo 58268">
              <path id="Trazado_131031" data-name="Trazado 131031" d="M2268.362-1151.3h0Z" fill="#869741"/>
            </g>
            <path id="Trazado_131032" data-name="Trazado 131032" d="M2281.332-1175.3a20.188,20.188,0,0,1,5.159-.81l.071.1-.579.452v.469l-.138.413-.579.352-.516.458-.352.809-.515.764-.327,1.016-.114.207-.339.016-.113-.111-.1-.207-.251-.032-.176.112-.327.079-.151-.365-.113-.286.038-.254v-.3l-.176-.366-.113-.365v-.445l-.2-.349s-.037.349-.037-.54C2281.38-1175.347,2280.8-1174.495,2281.332-1175.3Zm25.442,20.364-.5.319-.721-.268.112-.421.056-.619-.175-.109-.144.223s-.268.54-.268.121v-.42l.124-.261-.228-.426-.282-.57-.01-.585.144-.055.067-.266.2.268.182-.22.371,1.2.335.374.255.329.228.263.306.28.209-.285.188.233c0-.033,0-.066,0-.1a20.175,20.175,0,0,0-9.545-17.158l-.3.2-.189.411-.233.114-.263.218-.285-.269s.294-.181-.067-.132l-.361.049-.8.268-.084-.05-.012-.446-.307-.041-.347.229-.189.073.071-.163.094-.068,0-.138h-.142l-.109.03-.054-.066.054-.09-.088-.151-.016-.155.087-.121.166-.191.05-.144s-.057.012-.036-.126l.021-.139.1-.062.068-.146,0-.142-.064-.053-.11.018-.078.138-.126.047-.095-.029-.039-.052-.113.042-.026.064-.111.053-.09.047s.023.038,0,.172l-.023.133-.086.185.016.189.047.163-.067.068-.046.155s.063.1.117.042l.055-.063.079.037-.071.109-.059.005-.025.109.122.021-.05.1s-.03-.1-.1.017l-.076.117-.084-.033-.02-.063-.035-.09s-.02-.042-.087.009l-.067.052-.076-.009-.067.021-.032.073-.114.028-.126-.03s.055.014,0-.047l-.053-.062-.155.034-.074.087-.027.04-.142.062-.012.039,0,.082-.046.126-.135.122-.091.117-.063.063-.113.033-.088-.011-.2.116-.113.1-.109-.017-.117-.028-.1.12.072.067-.051.122-.063.067-.176.121-.079-.024-.133,0-.057.017-.088.08.006.083v.068l-.109,0-.063-.046-.084-.042-.109,0-.021-.052.015-.025.04-.044-.012-.061-.057-.029-.077-.022-.053-.047-.012-.056-.045-.045v.045l-.024.067-.026.065.03.1.006.068.047.03-.015.055-.015.073,0,.046-.029.035-.005.044-.039.039-.065-.026-.134-.052-.09.031-.031.007-.013-.058.013-.039-.085-.052-.09-.01-.062.007-.057.031h-.113l-.1-.025-.056,0-.086.029-.031.04.031.076s-.014.01.033.036l.048.026-.056.039-.013.062.031.022-.045.1.059.029h.075l.058-.018.033.022.059.007.1.072.027.05.046.012s-.005,0,.014.054l.019.06.059.008.081-.03-.012.048-.036.035,0,.06.04.043.078.03.017.047-.045.043-.036.072.009.077.04.051.044.044,0,.064.058.014.068.052.026.073-.044.049-.058.1.04.081-.019.061-.05.108-.016.129-.073.064-.046.17-.016.135-.106.158-.048.129-.042.061-.088.012-.036-.024s-.016-.008-.068.006l-.052.013-.066-.037-.042-.082-.043-.014-.039.044-.054.014-.107-.1h-.113l-.083-.017h-.142l-.1-.03-.05-.043-.047-.04-.1-.014-.086,0-.113-.017-.067-.057-.087-.047-.081.014-.1,0-.012-.052s.087-.026-.029-.07l-.116-.045-.089,0-.058.04-.052.053,0,.053s0,.014-.033.019l-.033.005-.088-.025-.138.058-.058.077.019.113.059.04.009.074.034.023-.055.038-.075.175-.038.156v.242l-.019.1-.045.221-.076.225-.086.071-.137.2-.13.161-.1.222.057.221.113.02.069.041,0,.057-.067.08-.09.124,0,.139-.06.09,0,.091-.093.127.036.045.074-.048.14-.05.047.027.044.043.164.026.05-.078.084-.03.02.03.009.061.179.085.013.067-.013.094.025.1,0,.076.044.065.026.034.008.095.064.046.085.013.079-.045.088-.022.067-.082.086-.083.085.023.1.019.158-.019.221.008.122.079.111-.019.084,0,.05,0,.043-.066.033-.039.042-.134.208-.093.069.035.045.034.069.007.011-.045s0,.006,0-.056v-.061l.013-.059.069-.109.054-.07.063-.03.052-.015.1-.009.007-.079.1-.035,0-.062-.078-.078-.073-.049v-.227l.069-.09.124-.107.307-.29.02-.121.031-.07.078-.019.16,0s.026.037.095-.028l.069-.065.138-.014.087-.038.05-.071.163-.052.052-.059,0-.134.026-.119-.024-.093.059-.135.062-.068.066-.076.078-.005.031-.038s-.014-.019.041,0l.054.019.078.048.135.06.107.013.092.071.128.071.1.045.171-.047.045-.069.071.014.038.042s.007.047.042.038l.035-.008.057-.017.059-.109.048-.065.079-.093.037-.062.1-.023.024-.01.046-.048.152-.024.037.018.036.069.045.053s-.092.038-.007.1l.085.061.06-.005.049.067-.042.139.037.121.065.052-.034.088-.037.048-.05.013-.056,0-.044.069.024.045.062.035.08.026.064-.124.031.03.033.068.064.069-.017.116.017.073a.189.189,0,0,1,.118,0l.057.021-.038.069.043.064.047.065.038-.006,0,.155.09.087.133.035,0,.071.1.028.067.079.077.161.074.059.09.042-.072.1.061.011.086.011.059.053-.014.123.086.066-.015.078.111.037.057.018.026.137.022.183-.052.09.045.113-.036.074-.05.016-.035.145-.059.021-.106,0-.062.052-.1-.011-.076-.036-.117.066s.02.026-.126-.019l-.147-.045s.083-.064-.05-.106l-.133-.043-.044.036s.035-.109-.069-.029l-.1.081.012.15.009.127.163.05.1.116.108.092.1.1.061.047.064.143.1.055.112.013.039-.117.091-.132-.055-.111.015-.133.073-.114.063-.069.049.055v.055l.066.035.073.038.017-.083.011-.083.081-.049.043.035.05-.021.014-.059s-.095,0-.009-.117l.085-.115.063-.014.022.039.026.017.059-.056-.012-.095.078-.135-.014-.078-.092-.024-.1-.068-.014-.094-.014-.065.155-.208.033-.041.072,0-.024.057.024.053.111.029v.032l.049.02.035-.033.017.128.023.13.086.048.066-.09.013-.145-.033-.148-.125-.228-.172-.111-.041-.112-.134-.045-.136-.054-.073-.116-.005-.059.107.016.012-.059.019-.114-.081-.059-.156-.007-.059-.018-.081.006-.047-.052-.227-.4-.015-.18-.047-.13.022-.107-.112-.192-.144-.057-.071-.127-.053-.069.023-.136-.011-.113.109,0,.026-.029-.013-.13-.053-.014v-.074l.028-.051.081,0,.05.007.071-.1.047.007.057-.017.031.033-.009.076s-.126.038-.032.083l.095.045.033.035-.011.112-.055.059.075.1.053.011.04-.079.028.067-.006.058.021.053.067.014.04,0,.02-.148.088.147.055.1-.057.064-.045.06-.007.067.028.05.16.072.082.11-.025.07.031.078.033.045.01.066.087.006s.074-.073.051.024,0,.063-.024.1l-.023.035.039.036.143.041.059-.038.144.04s.06,0,.092.088l.033.09.147.161s.087-.061.1.083l.011.143.011.084.093.038.039,0a.517.517,0,0,1-.1.15l-.042.023.017.087-.023.212-.045.1-.038.154.067.038.019.074h.092l.016.085,0,.038-.078.009-.01-.045-.052.069s-.035-.01-.009.068.023.064.023.064l.078.083.133.031.031.083.106.114,0,.049s-.109-.087-.05.1.057.175.057.175l.016.079.131.04.016-.059.153.059.138.066.088-.007.038.057.1.009.054-.03,0,.144-.007.079.1.061.067,0,.076.144.1-.028-.055-.12-.057-.074,0-.091.028-.022.057.123.128.061.057-.078.033-.028-.012-.114-.153-.019-.023-.033-.023-.13-.061-.074-.059-.078,0-.066-.085-.062-.08-.314-.08-.075-.042-.127-.035-.135.031-.1h.038s.021-.008.033.031l.013.039.094.1.035.046.116,0,.061-.051.045-.043.055-.084.09-.04.021-.085.09-.04h.121l.056.074.073.042.068.061.144-.035.012.08s-.153-.028-.025.064l.128.092.084,0,0,.029-.028.092-.031.035-.057.043-.039-.053-.085.02-.015.057,0,.122.011.093-.016.075-.048.02-.043.008-.078.065.04.048.031.045.093.041.063-.008.031.024.059-.052-.04-.1.071-.095.055-.006.054.033-.045.113-.052.1.057.074-.069.057-.073.03-.074-.04-.055.027-.058-.008-.045-.042-.048.063-.012.083s-.042.1.007.119l.05.015.049.009.032-.079.048-.035.032.073.012.118s.008.063.05.047l.042-.017.086,0,.1.082-.042.074-.045.026-.109-.05-.063.025-.018.091.005.074.047.04.078-.036.019.026-.009.1.08.033-.064.043s.033.027-.012.067l-.045.04-.068.023-.02.09-.061.09.124-.007.047-.083.042-.034.05-.1.13-.019s.161-.021.1.026l-.058.048-.07.007-.052.076.038.054.109-.016-.022.1s.014-.065-.062.028-.077.079-.077.079l-.007.069,0,.059.064.044.137-.068-.017-.053.053-.094.01-.133.1-.039,0,.1.078.064.035-.021.071-.052v.1l-.052.08.036.111.111.07.1.037.062.04.093-.012.06-.1.061-.091-.017-.147.091-.079.1.022.057.077.245.122.005.106.092.149.252.116.1-.048.076.045.128.053.056-.162.055-.062.118-.1.061.131.106.041.111.032.041-.076.078-.088.053.022.079.035-.022.085-.11.032-.028.109,0,.082-.094.16-.029.129.113.22-.106.087.008.079.045.089-.1.085-.154.327-.041.188-.1.144-.25.7-.157.126-.135,0s.022-.078-.23-.025l-.251.054-.151-.315-.154-.05-.12-.088-.23.024-.128.1-.188.075-.111.107-.145-.013-.085-.154-.185-.034-.416-.3-.557-.115-.236-.384-.458-.169-.251-.421-.426.1-.392.065.013.453-.052.424-.3.064-.232-.278-.206-.336-.424-.025-.268-.4.051-.34-.349-.152-.346-.048-.6-.29-.266-.518.241-.426.17-.184-.074-.4.277-.5-.235-.126-.163.1-.063-.207s.138-.183-.327-.032l-.465.151-.382-.153-.549-.161-1.112.062-.788.218-.411.213-.471-.129-.3-.264-.2.14-.16-.2h-.222l-.17.337-.251.326-.533.278-.572.367-.248.683.072.424-.39.528-.54.267-.634.224-.271.427-.492.226-.209.709-.533.436-.325.7-.367.437.051.346.314.107-.185.358-.075.268.04.5-.213.594-.169.347-.064.238-.357.476.18.564-.18.412-.079.4.184.343.2-.061.1.4.222.55.129.06-.067.852.453.768.432.59.4.743.428.415.452-.113.2-.22.761.052.314.369.377.113.168-.258.172.107.441-.306.376.03.883-.109.425.134.077.569-.026.437.307.134.149-.08.55.04.327.3.07.517-.12.753-.192.223-.03.362-.269.333-.138.667.616,1.761.264.516-.318.3.36.94-.2.5.223.978-.235.721-.355.144-.433.392-.112.808-.223.716-.1.592.149.545.039.269a20.082,20.082,0,0,0,10.344-3.609l-.01-.629.248-.159-.189-.431.491-.883.357-.718.347-.233.277-.238.23-.558.687-.453.719-.55.709-.555.575-.754.352-.476.426-.847.362-.57.148-.406.253-.149.121-.246-.185-.1.119-.416.1-.066-.267-.073-.072-.1-.082.212-.157.072-.234.052-.169.005-.327-.1-.39.025-.226.289-.327-.264-.226.176-.365-.1.008-.3-.109-.157h-.226l.065-.181.151-.048.12-.111-.047-.137.06-.32-.193-.087-.181-.159.013-.227-.149-.258-.041-.2-.2-.181-.243-.12-.188-.327.024-.545-.112-.184.087-.447-.226-.169-.188.037-.353-1.811.02-1.841-.573-1.228-.252-1.358.284-.145.625.892.2.466a6.284,6.284,0,0,1,.411,1.606l.138,1,.492,1.464.866,1.5-.286,1.181.286,1.234,1.146-.138,1.318-.426.61-.308v-.47l.912.049.408-.267.146-.172a20.221,20.221,0,0,0,.482-4.058Zm-29.449-18.7v.066l.352.185.319.067s.136.231.335-.185l.2-.415.243-.233.362-.123-.218.687.2.308.2.263-.419.419.167.335.3.067.047.2.427.144.069.183-.107.228.034.185.331.117-.258.436.078.268a.565.565,0,0,0-.584.129l-.238.257-.208-.019-.545.307-.136.182-.62-.034-.067-.2-.705-.065-.355.209-.248.21-.722.117-.167.319-.2.252-.486.369h.486l.436-.369.3-.285.285-.151.269-.067.218-.034.414.011.206.056-.268.386-.419.268-.034.3.267.331.376.189.1-.075.323-.213.121-.4h.369s-.371.261-.247.405l.123.144-.111.307-.379.089-.11.212-.517.084-.335-.048-.138.238-.377.263h-.324l.017-.251.436-.2.094-.241s-.02-.293-.233-.07-.188.164-.188.164l-.288.134-.446.138-.264-.041s-.084-.117-.336.268l-.251.386.043.185-.219.05.176.226.256-.087.037.222-.126.109-.218.058-.142.009-.159-.093-.067-.033-.428.042-.1.2.243.143-.209.117-.3.017-.025.4-.352.168-.059.2-.143-.235-.125-.1.058.235.141.187-.124.2-.169.2-.173.218s-.124.059-.025-.174.174-.084.1-.233l-.074-.149s.068-.676-.063-.022c-.07.346-.155.342-.192.315a.94.94,0,0,1,.06.1c.033.062.055.107.069.139.045,0,.108.033.121.222l.02.3-.243.117.01.216-.128.153-.134-.058-.033.167-.143.151-.151.009-.142.126-.084.184-.21.034-.11.1-.167.28-.461.277s-.159-.176-.251.243a2.341,2.341,0,0,1-.093.386l-.117.218.067.327.05.343-.075.176.126.143-.051.235.026.344.125.159-.125.268-.185.2-.014.221-.162.065-.142-.118-.093-.284-.125-.152v-.193l-.013-.171a.326.326,0,0,1-.1-.282l.034-.159.12-.342.005-.312-.129-.025-.206-.243-.084-.151-.126.092.009.1-.009.125-.151.026-.107-.207-.043-.146-.224-.082-.02.082-.179-.053-.131.087-.141-.047.059-.213s-.153-.1-.153.008v.109l-.06.007A20.228,20.228,0,0,1,2277.325-1173.634Zm1.642,36.224a20.245,20.245,0,0,1-11.207-12.47l0-.035.05-.06.17-.072.02-.084-.07-.07-.007-.107.013-.019.072-.028.061-.049-.023-.134.028-.125.1-.06.117-.06.094-.06-.013-.084c-.012-.085.025-.1.025-.1l.2-.233-.048-.035-.078.06-.082-.044a.224.224,0,0,0-.034-.016s.009-.006-.029-.05c-.075-.088.035.044.01-.078s.009-.11.009-.11l.075.037.057-.019-.006-.119.1-.063-.034-.151a.629.629,0,0,0-.054-.176l-.028-.126.038-.06h.062l0-.109-.077-.077-.012-.1.064-.083-.014-.193-.091-.18-.214-.26.009-.195,0-.173-.079-.044-.046-.107-.113-.027-.1.014-.091.293-.1.01-.07.008-.059.042.071.078-.034.038c-.035.037.1.112.1.112l.032.086-.025.056-.057.095-.063.022-.2-.01-.063-.053c-.063-.054.029-.132.029-.132l-.129.005,0,.111-.078.028-.073-.047,0-.088.021-.063.044.014.04-.089.033-.082-.085.025-.084-.044-.054-.088-.012,0c-.025-.2-.046-.4-.065-.6l.071.064c.078.073,0,.076,0,.076l.022.078.088-.009c.088-.009.088-.013.088-.013l.079.029.028.1h.107l.138-.107.044-.085.145-.022.06-.044.031-.082c.031-.082.038-.069.038-.069l.091.025.119.008-.015.071.034.034.126-.022.2.06.088.163.148.2.05.157-.025.116c-.025.117.079.06.079.06l.078-.072-.025-.114-.069-.085.022-.066.022-.059.135-.058.047-.166.148-.094.1-.012-.01-.066-.031-.148.053-.352.12-.1.107-.113h.06l.111.071.043-.037-.032-.141.117-.057.1.069.176.007.107-.129.057-.1.154-.035.019-.1.075-.2.215.05.106.158-.041.17-.1.125-.157.01.016.145.091.062.05-.135.079.132.056-.135.167-.016.094-.037.01-.085-.063-.135v-.1l.085-.11c.085-.11.1.015.1.015l.059.136c.06.135-.059.069-.059.069l.025.109.228.065.327.128-.084.194.084.129.342-.035.175-.062.345.3h.179l.159-.228-.192-.235.162-.139.265-.038h.2l.34.177-.34.251.124.163h.2l.265-.026.2.265-.114.146-.15.256.468.23.337.764.3.151.578.276.4.579-.051.83-.327,1.082v.6s0-.6.378.779l.226.353.579.327-.277.427-.176.529.176.526h.564l.09.53.1.7.151.252.4.176-.075.881.276,1.408-.465.856.257.087.451.441-.116.527-.592.377.264.329.629.4.428.428.087,1.081A1.914,1.914,0,0,1,2278.967-1137.41Z" fill="#26aab7"/>
            <path id="Trazado_131033" data-name="Trazado 131033" d="M2299.866-1166.275c-.933,1.207-3.405.858-5.52-.778s-3.073-3.94-2.14-5.147,3.4-.858,5.519.778S2300.8-1167.481,2299.866-1166.275Z" fill="#7dd171" style="mix-blend-mode: screen;isolation: isolate"/>
            <path id="Trazado_131034" data-name="Trazado 131034" d="M2287.031-1176.117a20.191,20.191,0,0,0-20.192,20.192,20.192,20.192,0,0,0,20.192,20.192,20.192,20.192,0,0,0,20.192-20.192A20.191,20.191,0,0,0,2287.031-1176.117Zm-11.295,31.1c-7.484-7.4-7.993-19.018-1.139-25.955s18.481-6.562,25.965.836,7.995,19.017,1.139,25.952S2283.22-1137.623,2275.736-1145.019Z" fill="#d1e89b" style="mix-blend-mode: multiply;isolation: isolate"/>
          </g>
        </g>
        <path id="Trazado_131035" data-name="Trazado 131035" d="M2307.4-1162.747a18.254,18.254,0,0,1,5.741,2.084,7.052,7.052,0,0,1,2.507,2.392,5.093,5.093,0,0,1,.41,3.965,13.615,13.615,0,0,1-4.014,5.6,31.657,31.657,0,0,1-2.452,2.037c-.418.315-.838.644-1.264.932l-.638.446-.321.223c-.1.079-.259.058-.1.654l-3.256-6.424c.373.483.433.347.544.311l.326-.119.654-.239c.444-.153.858-.333,1.284-.506a26.435,26.435,0,0,0,2.463-1.135,9.761,9.761,0,0,0,3.755-2.944,2.156,2.156,0,0,0,.288-1.72,4.754,4.754,0,0,0-1.319-1.961,15.576,15.576,0,0,0-4.8-2.868Z" fill="#ffc536"/>
        <g id="Grupo_58272" data-name="Grupo 58272">
          <g id="Grupo_58271" data-name="Grupo 58271">
            <path id="Trazado_131036" data-name="Trazado 131036" d="M2301.09-1138.925l7.444-4.3v-8.542l-7.444,4.3Z" fill="#c99a6b"/>
            <path id="Trazado_131037" data-name="Trazado 131037" d="M2308.533-1151.765l-7.444,4.3,4.017-2.149Z" fill="#87623f"/>
            <path id="Trazado_131038" data-name="Trazado 131038" d="M2301.09-1138.925l-7.444-4.3v-8.542l7.444,4.3Z" fill="#ae835b"/>
            <path id="Trazado_131039" data-name="Trazado 131039" d="M2301.09-1147.467l-7.444-4.3,7.444-4.3,7.444,4.3Z" fill="#e8b687"/>
            <path id="Trazado_131040" data-name="Trazado 131040" d="M2304.444-1146.029l1.2-.691v-3.374l-1.2.691Z" fill="#d9af84"/>
            <path id="Trazado_131041" data-name="Trazado 131041" d="M2304.444-1149.4l-7.444-4.3,1.2-.691,7.444,4.3Z" fill="#ebcbab"/>
            <path id="Trazado_131042" data-name="Trazado 131042" d="M2293.646-1151.765l7.444,4.3-4.017-2.149Z" fill="#87623f"/>
            <path id="Trazado_131043" data-name="Trazado 131043" d="M2297.861-1145.957l-1.2-.691v-3.374l1.2.69Z" fill="#9c754e"/>
            <path id="Trazado_131044" data-name="Trazado 131044" d="M2297.861-1149.331l7.444-4.3-1.2-.691-7.444,4.3Z" fill="#54493e" style="mix-blend-mode: screen;isolation: isolate"/>
            <path id="Trazado_131045" data-name="Trazado 131045" d="M2297.308-1149.651l7.444-4.3-.082-.047-7.444,4.3Z" fill="#d1a986"/>
            <path id="Trazado_131046" data-name="Trazado 131046" d="M2297.861-1149.331v.139l-.729-.39-.467-.293v-.147Z" fill="#ae835b"/>
          </g>
          <path id="Trazado_131047" data-name="Trazado 131047" d="M2305.106-1149.616l-.662.354v-.142l1.2-.691v.144Z" fill="#ae835b"/>
        </g>
        <path id="Trazado_131048" data-name="Trazado 131048" d="M2297.806-1144.425a2.587,2.587,0,0,1-2.177,3.137,90.268,90.268,0,0,1-11.285.835,60.328,60.328,0,0,1-14.057-1.369,32.584,32.584,0,0,1-6.757-2.334,22.713,22.713,0,0,1-3.125-1.8,8.5,8.5,0,0,1-2.71-2.752,4.619,4.619,0,0,1-.571-2.043,4.531,4.531,0,0,1,.427-2.02,8.808,8.808,0,0,1,2.3-2.924,24.264,24.264,0,0,1,5.972-3.685l.323.686a23.265,23.265,0,0,0-5.393,3.946,7.408,7.408,0,0,0-1.734,2.568,2.7,2.7,0,0,0,.275,2.527c1.05,1.494,3.224,2.481,5.2,3.3a29.908,29.908,0,0,0,6.358,1.656,56.942,56.942,0,0,0,13.3.257,86.009,86.009,0,0,0,11.209-1.746,1.975,1.975,0,0,1,2.376,1.471Z" fill="#ffc536"/>
      </g>
    </g>
  </g>
</svg>
