<svg xmlns="http://www.w3.org/2000/svg" width="73" height="72" viewBox="0 0 73 72">
  <g id="Grupo_58621" data-name="Grupo 58621" transform="translate(0.26 -0.167)">
    <rect id="Rectángulo_31125" data-name="Rectángulo 31125" width="73" height="72" transform="translate(-0.26 0.167)" fill="none"/>
    <g id="_071-promotion" data-name="071-promotion" transform="translate(4.553 17.108)">
      <path id="Trazado_129765" data-name="Trazado 129765" d="M281.395,115.264v2.7l4.047-1.889v-2.7Z" transform="translate(-246.638 -111.294)" fill="#d4e1f4"/>
      <path id="Trazado_129766" data-name="Trazado 129766" d="M130.869,137.741a44.265,44.265,0,0,1-9.791,3.232v2.7a44.268,44.268,0,0,0,9.791-3.232l10.224-4.771v-2.7Z" transform="translate(-107.955 -128.245)" fill="#d4e1f4"/>
      <path id="Trazado_129767" data-name="Trazado 129767" d="M37.18,200.449a2.627,2.627,0,0,1,2.624-2.624,43.836,43.836,0,0,0,5.911-.4v-2.9a44,44,0,0,1-7.26.607,2.627,2.627,0,0,0-2.624,2.624v6.868a2.625,2.625,0,0,0,1.349,2.292Z" transform="translate(-34.212 -181.488)" fill="#d4e1f4"/>
      <path id="Trazado_129768" data-name="Trazado 129768" d="M28.467,125.331V139.8a.81.81,0,0,0,.81.81,7.686,7.686,0,0,0,7.677-7.677v-6.658a42.613,42.613,0,0,1,9.106,3.045L63.1,137.271a.81.81,0,0,0,1.152-.734V125.263a7.675,7.675,0,0,0,0-15.225V98.764A.81.81,0,0,0,63.1,98.03L46.06,105.983a42.814,42.814,0,0,1-17.985,3.99,4.248,4.248,0,0,0-4.244,4.244v6.868a4.248,4.248,0,0,0,4.244,4.244Zm40.863-7.68a6.067,6.067,0,0,1-5.077,5.978V111.673A6.067,6.067,0,0,1,69.33,117.65Zm-34,15.281a6.067,6.067,0,0,1-5.249,6V125.377a42.656,42.656,0,0,1,5.249.582Zm27.3,2.335-4.045-1.889V101.924l4.047-1.889ZM46.745,107.45l10.224-4.771v29.942L46.745,127.85a44.266,44.266,0,0,0-9.791-3.232V110.682A44.266,44.266,0,0,0,46.745,107.45ZM25.45,121.084v-6.868a2.627,2.627,0,0,1,2.624-2.624,44,44,0,0,0,7.26-.607v13.332a44.007,44.007,0,0,0-7.26-.607,2.627,2.627,0,0,1-2.624-2.626Z" transform="translate(-23.831 -97.954)" fill="#7d6eb2"/>
      <path id="Trazado_129769" data-name="Trazado 129769" d="M371.938,159.269a14.259,14.259,0,0,0-8.687-13.14.81.81,0,0,0-.634,1.49,12.66,12.66,0,0,1,0,23.3.81.81,0,0,0,.634,1.49A14.256,14.256,0,0,0,371.938,159.269Z" transform="translate(-316.474 -139.572)" fill="#26aab7"/>
      <path id="Trazado_129770" data-name="Trazado 129770" d="M384.76,98.017a.81.81,0,1,0-.634,1.49,19.716,19.716,0,0,1,0,36.282.81.81,0,1,0,.634,1.49,21.336,21.336,0,0,0,0-39.262Z" transform="translate(-335.08 -97.952)" fill="#26aab7"/>
    </g>
  </g>
</svg>
