<svg xmlns="http://www.w3.org/2000/svg" xmlns:xlink="http://www.w3.org/1999/xlink" width="178.687" height="194.701" viewBox="0 0 178.687 194.701">
  <defs>
    <clipPath id="clip-path">
      <path id="Trazado_132009" data-name="Trazado 132009" d="M1510.411,221.7c0,53.762,38.732,90.778,88.075,90.778s89.26-39.4,89.26-93.173-39.919-101.528-89.26-101.528-88.075,50.161-88.075,103.923" transform="translate(-1510.411 -117.773)" fill="none"/>
    </clipPath>
    <clipPath id="clip-path-2">
      <rect id="Rectángulo_31212" data-name="Rectángulo 31212" width="1.613" height="1.923" fill="none"/>
    </clipPath>
    <clipPath id="clip-path-3">
      <rect id="Rectángulo_31213" data-name="Rectángulo 31213" width="7.216" height="8.286" fill="none"/>
    </clipPath>
    <clipPath id="clip-path-4">
      <path id="Trazado_132010" data-name="Trazado 132010" d="M1646.79,267.671c-1.242,1.239-2.492,5.745-10.61,5.745s-9.37-4.506-10.615-5.745a2.337,2.337,0,0,0-1.3-.514s.915,9.9,11.92,10.686v0c11-.79,11.915-10.686,11.915-10.686a2.33,2.33,0,0,0-1.3.514" transform="translate(-1624.26 -267.157)" fill="none"/>
    </clipPath>
    <linearGradient id="linear-gradient" x1="-32.55" y1="62.645" x2="-32.436" y2="62.645" gradientUnits="objectBoundingBox">
      <stop offset="0" stop-color="#ffa57a"/>
      <stop offset="1" stop-color="#ff8c66"/>
    </linearGradient>
  </defs>
  <g id="Grupo_58829" data-name="Grupo 58829" transform="translate(3841.224 -1144.31)">
    <g id="Grupo_58788" data-name="Grupo 58788" transform="translate(-5350.209 1026.537)">
      <path id="Trazado_131958" data-name="Trazado 131958" d="M1687.672,229.56a89.343,89.343,0,1,1-89.344-89.345,89.344,89.344,0,0,1,89.344,89.345" transform="translate(0 -6.429)" fill="#cbc5e0"/>
      <g id="Grupo_58515" data-name="Grupo 58515" transform="translate(1510.003 117.773)">
        <g id="Grupo_58514" data-name="Grupo 58514" clip-path="url(#clip-path)">
          <path id="Trazado_131959" data-name="Trazado 131959" d="M1636.105,310.186a103.279,103.279,0,0,1,14.2-1.465c0-4.524.15-10.033.15-15.017h-31.725c0,5.118.153,10.776.15,15.366,3.187.766,10.8,2.282,17.224,1.117" transform="translate(-1541.444 -168.175)" fill="#ffc08d"/>
          <path id="Trazado_131960" data-name="Trazado 131960" d="M1667.54,336.273c-10.106-17.081-22.919-13.619-29.648-12.511-6.464,1.065-11.59,1.727-11.933-2.923-.12-1.6-.15-3.716-.147-6.088a103.383,103.383,0,0,0-14.2,1.466c-6.426,1.163-14.039-.351-17.224-1.117,0,2.225-.038,4.22-.15,5.739-.346,4.65-5.47,3.988-11.934,2.923-6.73-1.109-19.542-4.571-29.647,12.511-10.781,18.226-19.43,32.834-19.43,32.834s26.212,12.62,76.872,12.62,76.872-12.62,76.872-12.62-8.648-14.608-19.43-32.834" transform="translate(-1516.947 -174.205)" fill="#fff2f0"/>
          <path id="Trazado_131961" data-name="Trazado 131961" d="M1694.795,198.61c-9.283-16.853.133-19.239,3-32.668.869-4.086-1.947-12.593-7.55-16.014a26.907,26.907,0,0,1,15.562,22.257c.921,9.948-2.7,24.4-2.7,24.4l-7.172,3.394a7.8,7.8,0,0,1-1.139-1.365" transform="translate(-1561.932 -126.985)" fill="#5b2539"/>
          <path id="Trazado_131962" data-name="Trazado 131962" d="M1696.877,218.479s5.473-7.995,13.291-2.424c3.546,2.528,6.973,11.988,0,20.5s-16.24,5.279-16.516,1.4Z" transform="translate(-1562.907 -145.364)" fill="#ffc08d"/>
          <path id="Trazado_131963" data-name="Trazado 131963" d="M1714.449,216.057a9.339,9.339,0,0,0-5.851-1.964c.9.073,5.159.727,7.221,6.79a19.316,19.316,0,0,1-1.37,15.671c6.976-8.512,3.547-17.97,0-20.5" transform="translate(-1567.189 -145.366)" fill="#ffdbbf"/>
          <path id="Trazado_131964" data-name="Trazado 131964" d="M1711.152,226.755s-1.351-3.339-4.691-3.127-5.091,3.47-5.543,6.126c0,0,4.116-.528,4.238,3.528.106,3.623-3.462,4.887-4.938,4.026,0,0,.273,2.029,3.732,2.269,4.178.286,9.809-5.113,7.2-12.822" transform="translate(-1564.788 -148.096)" fill="#ffac6a"/>
          <path id="Trazado_131965" data-name="Trazado 131965" d="M1563.691,390.7l10.362-25.875s-13.146,15.587-16.488,24.415c1.885.487,3.936.975,6.126,1.46" transform="translate(-1523.92 -188.55)" fill="#bab1af"/>
          <path id="Trazado_131966" data-name="Trazado 131966" d="M1711.613,390.7l-10.359-25.875s13.143,15.587,16.488,24.415c-1.888.487-3.936.975-6.129,1.46" transform="translate(-1565.085 -188.55)" fill="#bab1af"/>
          <path id="Trazado_131967" data-name="Trazado 131967" d="M1650.411,297.274c.028-1.2.046-2.411.046-3.571h-31.725c0,4.312.265,9.251.1,12.429,25.621-.106,31.579-8.85,31.583-8.858" transform="translate(-1541.444 -168.175)" fill="#ff8c66"/>
          <path id="Trazado_131968" data-name="Trazado 131968" d="M1685.026,326.342l0,.006c4.015-.412,13.69,1.237,19.825,9.743s22.486,37.49,22.5,37.514l.042-.016,3.069-1.286s-8.648-14.606-19.43-32.834c-8.5-14.36-18.9-14.2-26-13.126" transform="translate(-1560.435 -177.402)" fill="#e3d8d6"/>
          <path id="Trazado_131969" data-name="Trazado 131969" d="M1661.659,385.183a234.949,234.949,0,0,0,38.612-5c-5.737-26.531-28.335-51.2-29.125-52.057,0,0,15.113,22.028,18.027,33.731,2.887,11.6-9.893,22.246-27.514,23.325" transform="translate(-1553.742 -178.037)" fill="#fff2f0"/>
          <path id="Trazado_131970" data-name="Trazado 131970" d="M1624.521,260.152c-10.28,0-22.323-8.024-30.328-20.832s-10.623-31.935-10.623-41.02a40.952,40.952,0,0,1,81.9,0c0,9.084-2.621,28.209-10.624,41.02s-20.048,20.832-30.328,20.832" transform="translate(-1531.37 -129.111)" fill="#ffc08d"/>
          <path id="Trazado_131971" data-name="Trazado 131971" d="M1606.214,169.736s2.392,16.561-7.538,26.879-14.922,9.158-14.922,9.158Z" transform="translate(-1531.423 -132.66)" fill="#ffac6a"/>
          <path id="Trazado_131972" data-name="Trazado 131972" d="M1615.232,166.272a44.486,44.486,0,0,0,17.316,14.145c12.064,5.66,34.6,8.265,37.479,16.676,0,0,0-10.479-17.565-18.812-13.072-6.2-37.23-12.01-37.23-12.01" transform="translate(-1540.441 -131.667)" fill="#ffac6a"/>
          <path id="Trazado_131973" data-name="Trazado 131973" d="M1679.36,226.77c-1.482,19.318-11.912,35.457-18.123,41.147a44.293,44.293,0,0,1-18.155,10.183c9.931-.736,21.2-8.575,28.817-20.762,4.739-7.584,7.58-17.376,9.117-25.995l1.37-11.087v-.014Z" transform="translate(-1548.42 -147.129)" fill="#ffdbbf"/>
          <path id="Trazado_131974" data-name="Trazado 131974" d="M1655.087,198.77c.733,1.822,4.947,1.548,11.228,2.395s10.556,4.026,12.517,6.935c0,0-1.239-6.243-9.58-9.839s-15.121-1.869-14.165.509" transform="translate(-1551.833 -140.241)" fill="#5b2539"/>
          <path id="Trazado_131975" data-name="Trazado 131975" d="M1617.269,198.77c-.736,1.822-4.95,1.548-11.231,2.395s-10.553,4.026-12.516,6.935c0,0,1.24-6.243,9.583-9.839s15.118-1.869,14.165.509" transform="translate(-1534.221 -140.241)" fill="#5b2539"/>
          <path id="Trazado_131976" data-name="Trazado 131976" d="M1644.982,242.124c-1-2.378-4.176-14.535-6.968-14.535s-5.968,12.157-6.965,14.535.3,3.258.3,3.258l1.376-.24s3.538,2.822,5.29,2.822,5.29-2.822,5.29-2.822l1.378.24s1.294-.883.3-3.258" transform="translate(-1544.864 -149.234)" fill="#ffb67d"/>
          <g id="Grupo_58510" data-name="Grupo 58510" transform="translate(95.068 92.45)" opacity="0.3">
            <g id="Grupo_58509" data-name="Grupo 58509">
              <g id="Grupo_58508" data-name="Grupo 58508" clip-path="url(#clip-path-2)">
                <path id="Trazado_131977" data-name="Trazado 131977" d="M1645.224,248.1a.809.809,0,1,1-1.016-.738.9.9,0,0,1,1.016.738" transform="translate(-1643.651 -247.343)" fill="#fff"/>
              </g>
            </g>
          </g>
          <path id="Trazado_131978" data-name="Trazado 131978" d="M1643.67,251.073a.4.4,0,1,1,.4.4.4.4,0,0,1-.4-.4" transform="translate(-1548.588 -155.848)" fill="#fff"/>
          <path id="Trazado_131979" data-name="Trazado 131979" d="M1643.867,253.541a3.572,3.572,0,0,0-2.018.283,4.268,4.268,0,0,1-5.71,0,3.583,3.583,0,0,0-2.021-.283c-.03.006-.06.09-.021.093,1.776.177,2.707,1.746,4.361,2.225a2.1,2.1,0,0,0,1.073,0c1.653-.479,2.582-2.048,4.358-2.225.038,0,.011-.087-.021-.093" transform="translate(-1545.84 -156.658)" fill="#5b2539"/>
          <path id="Trazado_131980" data-name="Trazado 131980" d="M1646.77,252.859a5.574,5.574,0,0,0,1.526-.4c.686-.305,1.488-1.507.25-1.806a2.1,2.1,0,0,0-2.163.964c-.337.425-.46.918-1.01,1.253Z" transform="translate(-1549.076 -155.827)" fill="#5b2539"/>
          <path id="Trazado_131981" data-name="Trazado 131981" d="M1633.63,252.859a5.586,5.586,0,0,1-1.528-.4c-.684-.305-1.488-1.507-.248-1.806a2.1,2.1,0,0,1,2.161.964c.34.425.463.918,1.013,1.253Z" transform="translate(-1545.018 -155.827)" fill="#5b2539"/>
          <g id="Grupo_58513" data-name="Grupo 58513" transform="translate(89.544 89.113)" opacity="0">
            <g id="Grupo_58512" data-name="Grupo 58512">
              <g id="Grupo_58511" data-name="Grupo 58511" clip-path="url(#clip-path-3)">
                <path id="Trazado_131982" data-name="Trazado 131982" d="M1635.9,246.632a3.624,3.624,0,1,1,7.216,0c0,2.193-1.612,4.322-3.606,4.322s-3.609-2.13-3.609-4.322" transform="translate(-1635.907 -242.666)" fill="#ff9c4b"/>
              </g>
            </g>
          </g>
          <path id="Trazado_131983" data-name="Trazado 131983" d="M1601.732,154.209s1.8,24.5-22.593,40.35l-8.177-3.868s-3.623-14.448-2.7-24.4,8.016-24.58,29.19-25.161c0,0,11.208-18.618,33.213-16.85,30.38,2.44,41.654,41.349,30.249,68.436a23.327,23.327,0,0,0-12.38-16.215c-10.874-5.53-34.087-9.03-46.8-22.3" transform="translate(-1526.941 -119.605)" fill="#6d3347"/>
          <path id="Trazado_131984" data-name="Trazado 131984" d="M1697.3,194.588l-.812,17.37s-.844,10.716-1.942,12.843c-.814,1.575-1.65-3.852-1.931-11.868s-2.585-11.465-2.585-11.465l7.27-7.335" transform="translate(-1561.87 -139.649)" fill="#6d3347"/>
          <path id="Trazado_131985" data-name="Trazado 131985" d="M1576.794,218.479s-5.472-7.995-13.29-2.424c-3.549,2.528-6.976,11.988,0,20.5s16.237,5.279,16.515,1.4Z" transform="translate(-1524.462 -145.364)" fill="#ffc08d"/>
          <path id="Trazado_131986" data-name="Trazado 131986" d="M1577.726,218.479s-5.472-7.995-13.29-2.424a7.432,7.432,0,0,0-1.689,1.792c4.98-4.192,12.143-2.528,15.341,4.776l.117-1.242Z" transform="translate(-1525.405 -145.364)" fill="#ffac6a"/>
          <path id="Trazado_131987" data-name="Trazado 131987" d="M1583.755,219.31s.534,8.689,1.572,12.236,3-14.565,3-14.565Z" transform="translate(-1531.423 -146.195)" fill="#6d3347"/>
          <path id="Trazado_131988" data-name="Trazado 131988" d="M1566.119,226.755s1.351-3.339,4.691-3.127,5.091,3.47,5.542,6.126c0,0-4.118-.528-4.238,3.528-.108,3.623,3.46,4.887,4.936,4.026,0,0-.273,2.029-3.732,2.269-4.176.286-9.809-5.113-7.2-12.822" transform="translate(-1526.18 -148.096)" fill="#ffac6a"/>
          <path id="Trazado_131989" data-name="Trazado 131989" d="M1605.844,246.968c-.7,2.49-4.2,3.688-7.823,2.67s-6-3.854-5.3-6.345,4.2-3.682,7.824-2.669,5.995,3.857,5.3,6.344" transform="translate(-1533.958 -152.865)" fill="#ff6267"/>
          <path id="Trazado_131990" data-name="Trazado 131990" d="M1655.869,224.309s2.6-7.474,10.125-7.4,10.408,6.951,10.408,6.951a10.4,10.4,0,0,1-10.261,7.186,11.3,11.3,0,0,1-10.272-6.739" transform="translate(-1552.083 -146.175)" fill="#fff"/>
          <path id="Trazado_131991" data-name="Trazado 131991" d="M1655.6,221.7s-.183-5.214,1.648-7.935,7.532-6.453,14.535-3.01,5.587,11.154,5.587,11.154a12.912,12.912,0,0,0-11.457-7.156c-6.786-.229-10.313,6.946-10.313,6.946" transform="translate(-1552.005 -144.013)" fill="#ffac6a"/>
          <path id="Trazado_131992" data-name="Trazado 131992" d="M1672.084,224.851a5.677,5.677,0,1,0-6.565,4.617,5.677,5.677,0,0,0,6.565-4.617" transform="translate(-1553.499 -146.544)" fill="#5b2539"/>
          <path id="Trazado_131993" data-name="Trazado 131993" d="M1664.9,224.557a2.791,2.791,0,1,1,2.272,3.228,2.793,2.793,0,0,1-2.272-3.228" transform="translate(-1554.658 -147.703)" fill="#401427"/>
          <path id="Trazado_131994" data-name="Trazado 131994" d="M1664.313,227.353a.59.59,0,1,1,.589.591.589.589,0,0,1-.589-.591" transform="translate(-1554.502 -148.998)" fill="#fff"/>
          <path id="Trazado_131995" data-name="Trazado 131995" d="M1670.308,223.539a1.37,1.37,0,1,1,1.114,1.585,1.37,1.37,0,0,1-1.114-1.585" transform="translate(-1556.214 -147.749)" fill="#fff"/>
          <path id="Trazado_131996" data-name="Trazado 131996" d="M1670.844,227.878a.791.791,0,1,1,.642.915.789.789,0,0,1-.642-.915" transform="translate(-1556.37 -149.129)" fill="#fff"/>
          <path id="Trazado_131997" data-name="Trazado 131997" d="M1655.792,224.07c.457.275,1.667-3.279,5.29-5.045a11.292,11.292,0,0,1,10.8,1.027,9.447,9.447,0,0,1,3.326,3.884,10.617,10.617,0,0,1-4.547,5.3c-2.888,1.637-5.9,1.274-5.8,1.5.185.447,3.269.738,6.371-.594a11.032,11.032,0,0,0,6.143-6.317c.21-1.824-3.92-7.2-9.45-7.681s-8.855,1.623-10.544,3.991-2.07,3.645-1.588,3.933" transform="translate(-1552.006 -145.936)" fill="#4a1a2d"/>
          <path id="Trazado_131998" data-name="Trazado 131998" d="M1617.812,224.309s-2.6-7.474-10.123-7.4-10.408,6.951-10.408,6.951a10.4,10.4,0,0,0,10.258,7.186,11.3,11.3,0,0,0,10.272-6.739" transform="translate(-1535.298 -146.175)" fill="#fff"/>
          <path id="Trazado_131999" data-name="Trazado 131999" d="M1617.535,221.7s.183-5.214-1.648-7.935-7.535-6.453-14.535-3.01-5.587,11.154-5.587,11.154a12.911,12.911,0,0,1,11.457-7.156c6.785-.229,10.312,6.946,10.312,6.946" transform="translate(-1534.83 -144.013)" fill="#ffac6a"/>
          <path id="Trazado_132000" data-name="Trazado 132000" d="M1605.281,224.851a5.678,5.678,0,1,1,6.567,4.617,5.676,5.676,0,0,1-6.567-4.617" transform="translate(-1537.566 -146.544)" fill="#5b2539"/>
          <path id="Trazado_132001" data-name="Trazado 132001" d="M1614.782,224.557a2.79,2.79,0,1,0-2.269,3.228,2.789,2.789,0,0,0,2.269-3.228" transform="translate(-1538.725 -147.703)" fill="#401427"/>
          <path id="Trazado_132002" data-name="Trazado 132002" d="M1617.141,227.353a.59.59,0,1,0-.591.591.589.589,0,0,0,.591-.591" transform="translate(-1540.65 -148.998)" fill="#fff"/>
          <path id="Trazado_132003" data-name="Trazado 132003" d="M1610.447,227.878a.792.792,0,1,0-.646.915.794.794,0,0,0,.646-.915" transform="translate(-1538.619 -149.129)" fill="#fff"/>
          <path id="Trazado_132004" data-name="Trazado 132004" d="M1610.52,223.539a1.37,1.37,0,1,0-1.116,1.585,1.372,1.372,0,0,0,1.116-1.585" transform="translate(-1538.312 -147.749)" fill="#fff"/>
          <path id="Trazado_132005" data-name="Trazado 132005" d="M1617.387,224.07c-.455.275-1.667-3.279-5.29-5.045a11.288,11.288,0,0,0-10.8,1.027,9.435,9.435,0,0,0-3.328,3.884,10.63,10.63,0,0,0,4.546,5.3c2.89,1.637,5.9,1.274,5.807,1.5-.188.447-3.269.738-6.371-.594a11.024,11.024,0,0,1-6.143-6.317c-.213-1.824,3.92-7.2,9.447-7.681s8.858,1.623,10.544,3.991,2.07,3.645,1.588,3.933" transform="translate(-1534.874 -145.936)" fill="#4a1a2d"/>
          <path id="Trazado_132006" data-name="Trazado 132006" d="M1670.718,246.968c.7,2.49,4.2,3.688,7.82,2.67s6-3.854,5.3-6.345-4.2-3.682-7.823-2.669-5.993,3.857-5.3,6.344" transform="translate(-1556.302 -152.865)" fill="#ff6267"/>
          <path id="Trazado_132007" data-name="Trazado 132007" d="M1636.223,267.958c-2.318,0-11.659-.382-11.659-.382s1.491,6.3,11.7,6.3,11.525-6.23,11.525-6.23Z" transform="translate(-1543.115 -160.69)" fill="#5b2539"/>
          <path id="Trazado_132008" data-name="Trazado 132008" d="M1637.142,267.958c-2.318,0-9.371-.382-9.371-.382s2.539,2.471,9.49,2.471,9.158-2.4,9.158-2.4Z" transform="translate(-1544.033 -160.69)" fill="#f2eff7"/>
        </g>
      </g>
      <g id="Grupo_58517" data-name="Grupo 58517" transform="translate(1591.235 224.36)">
        <g id="Grupo_58516" data-name="Grupo 58516" clip-path="url(#clip-path-4)">
          <rect id="Rectángulo_31214" data-name="Rectángulo 31214" width="23.834" height="10.686" transform="translate(0 0)" fill="url(#linear-gradient)"/>
        </g>
      </g>
      <g id="Grupo_58519" data-name="Grupo 58519" transform="translate(1510.003 117.773)">
        <g id="Grupo_58518" data-name="Grupo 58518" clip-path="url(#clip-path)">
          <path id="Trazado_132011" data-name="Trazado 132011" d="M1648.5,265.658c-1.155.36-5.605.218-7.812-.084-2.579-.357-3.882,1.25-4.911,1.25s-2.329-1.607-4.911-1.25c-2.209.3-6.657.444-7.815.084-.646-.2-.242,2.626,12.726,2.626s13.369-2.825,12.723-2.626" transform="translate(-1542.63 -160.101)" fill="#bd1a45"/>
          <path id="Trazado_132012" data-name="Trazado 132012" d="M1637.854,280.2c-5.2,0-7.752-2.119-7.752-2.119.722,1.677,3.2,3.852,7.752,3.852s7.031-2.174,7.749-3.852c0,0-2.552,2.119-7.749,2.119" transform="translate(-1544.701 -163.7)" fill="#bd1a45"/>
        </g>
      </g>
    </g>
  </g>
</svg>
