<svg xmlns="http://www.w3.org/2000/svg" xmlns:xlink="http://www.w3.org/1999/xlink" width="158.862" height="173.099" viewBox="0 0 158.862 173.099">
  <defs>
    <clipPath id="clip-path">
      <path id="Trazado_131904" data-name="Trazado 131904" d="M659.968,205.928c0,47.8,34.434,80.706,78.3,80.706S817.628,251.6,817.628,203.8s-35.49-90.265-79.357-90.265-78.3,44.6-78.3,92.393" transform="translate(-659.968 -113.535)" fill="none"/>
    </clipPath>
    <clipPath id="clip-path-2">
      <rect id="Rectángulo_31202" data-name="Rectángulo 31202" width="6.437" height="7.391" fill="none"/>
    </clipPath>
    <clipPath id="clip-path-3">
      <rect id="Rectángulo_31203" data-name="Rectángulo 31203" width="1.438" height="1.715" fill="none"/>
    </clipPath>
    <clipPath id="clip-path-4">
      <rect id="Rectángulo_31204" data-name="Rectángulo 31204" width="11.917" height="8.684" fill="none"/>
    </clipPath>
    <clipPath id="clip-path-6">
      <path id="Trazado_131905" data-name="Trazado 131905" d="M782.938,261.345l-10.862-.262s3.475,7.519,10.864,7.519,10.941-7.546,10.941-7.546Z" transform="translate(-772.076 -261.057)" fill="none"/>
    </clipPath>
    <linearGradient id="linear-gradient" x1="-7.428" y1="65.777" x2="-7.317" y2="65.777" gradientUnits="objectBoundingBox">
      <stop offset="0" stop-color="#ffa57a"/>
      <stop offset="1" stop-color="#ff8c66"/>
    </linearGradient>
  </defs>
  <g id="Grupo_58827" data-name="Grupo 58827" transform="translate(3841.224 -575.672)">
    <g id="Grupo_58786" data-name="Grupo 58786" transform="translate(-4499.781 462.137)">
      <path id="Trazado_131854" data-name="Trazado 131854" d="M817.419,215.179a79.431,79.431,0,1,1-79.43-79.432,79.431,79.431,0,0,1,79.43,79.432" transform="translate(0 -7.975)" fill="#cbc5e0"/>
      <g id="Grupo_58483" data-name="Grupo 58483" transform="translate(659.461 113.535)">
        <g id="Grupo_58482" data-name="Grupo 58482" clip-path="url(#clip-path)">
          <path id="Trazado_131855" data-name="Trazado 131855" d="M749.553,118.792c10.421-.092,21.434,5.382,30.9,15.586,9.389,10.118,12.929,12.205,18.844,16.245s12.089,8.333,13.082,17.591-2.414,15.288-7.434,19.219c0,0,23.594,13.879,16.891,38.8-6.548,24.335-31.456,27.346-31.456,27.346s-13.67,14.07-41.239,10.537S720.2,253.323,720.2,253.323s-14.441,1.068-20.735-13.91c-5.548-13.208,3.9-23.513,5.394-31.4,1.581-8.384-4.771-26.808-4.771-26.808s.795-28.45,23.4-42.235,26.063-20.175,26.063-20.175" transform="translate(-673.528 -115.422)" fill="#6d3347"/>
          <path id="Trazado_131856" data-name="Trazado 131856" d="M736.7,118.642c-10.406.554-21.059,6.7-29.876,17.473-8.743,10.682-12.147,12.983-17.8,17.383s-11.547,9.067-11.964,18.371,3.357,15.109,8.614,18.717c0,0-22.689,15.318-14.452,39.772,8.047,23.881,33.09,25.341,33.09,25.341s14.52,13.194,41.816,7.958,28.218-12.566,28.218-12.566,14.479.172,19.831-15.17c4.72-13.526-5.355-23.226-7.331-31.008-2.1-8.27,3.1-27.048,3.1-27.048s-2.557-28.348-25.98-40.7S736.7,118.642,736.7,118.642" transform="translate(-663.36 -115.369)" fill="#6d3347"/>
          <path id="Trazado_131857" data-name="Trazado 131857" d="M708.388,297.836c-12.155-5.669-14.381-18.824-1.112-28.053s15.991-18.328,15.632-29.378l73.93-.981a28.489,28.489,0,0,0,.315,8.854c1.974,7.781,12.048,17.482,7.331,31.008-5.352,15.341-19.832,15.17-19.832,15.17s-.922,7.33-28.22,12.566-41.813-7.958-41.813-7.958a36.011,36.011,0,0,1-6.253-1.122Z" transform="translate(-673.716 -158.735)" fill="#5b2539"/>
          <path id="Trazado_131858" data-name="Trazado 131858" d="M692.167,243.521c.232,4.866-9.627,7.716-12.479,24.66s12.458,27.08,12.479,27.092a36.057,36.057,0,0,1-20.948-22.234c-4.923-14.608,1.192-25.951,6.916-32.72,8.341-5.718,13.8-1.667,14.032,3.2" transform="translate(-663.36 -158.051)" fill="#813c55"/>
          <path id="Trazado_131859" data-name="Trazado 131859" d="M723.571,211.663s-4.88-7.124-11.852-2.16c-3.162,2.255-6.221,10.689,0,18.281s14.482,4.71,14.727,1.247Z" transform="translate(-677.253 -147.36)" fill="#ffc08d"/>
          <path id="Trazado_131860" data-name="Trazado 131860" d="M711.719,209.506a8.331,8.331,0,0,1,5.219-1.751c-.8.065-4.6.647-6.439,6.056a17.228,17.228,0,0,0,1.22,13.976c-6.221-7.592-3.162-16.027,0-18.281" transform="translate(-677.253 -147.362)" fill="#ffdbbf"/>
          <path id="Trazado_131861" data-name="Trazado 131861" d="M714.655,220.006s1.206-2.976,4.182-2.789,4.541,3.1,4.945,5.464c0,0-3.673-.47-3.78,3.148-.1,3.228,3.085,4.359,4.4,3.591,0,0-.242,1.809-3.327,2.022-3.725.254-8.747-4.558-6.422-11.436" transform="translate(-679.391 -150.758)" fill="#ffac6a"/>
          <path id="Trazado_131862" data-name="Trazado 131862" d="M764.772,286.789c0,6.779-.308,14.676,0,18.822s4.877,3.555,10.641,2.605c6-.99,17.426-4.076,26.44,11.157,9.614,16.254,17.325,29.28,17.325,29.28s-23.377,11.254-68.551,11.254-68.554-11.254-68.554-11.254,7.711-13.026,17.325-29.28c9.013-15.233,20.439-12.147,26.44-11.157,5.763.949,10.333,1.54,10.641-2.605s0-12.043,0-18.822Z" transform="translate(-667.905 -175.74)" fill="#ffc08d"/>
          <path id="Trazado_131863" data-name="Trazado 131863" d="M740.73,320.959a17.089,17.089,0,0,0,4.085.114c3.645,5.26,9.643,8.926,18,8.926,8.326,0,14.307-3.627,17.955-8.844a20.873,20.873,0,0,0,3.223-.2c.705.765,20.856,22.764,25.973,46.427a238.913,238.913,0,0,1-95.207,0c5.117-23.662,25.265-45.661,25.973-46.427" transform="translate(-679.639 -188.008)" fill="#ffe7e0"/>
          <path id="Trazado_131864" data-name="Trazado 131864" d="M858.12,380.467l-9.239-23.074s11.721,13.9,14.7,21.771c-1.681.436-3.509.872-5.463,1.3" transform="translate(-727.795 -201.09)" fill="#ff8c66"/>
          <path id="Trazado_131865" data-name="Trazado 131865" d="M711.7,380.467l9.239-23.074s-11.721,13.9-14.7,21.771c1.681.436,3.509.872,5.463,1.3" transform="translate(-676.579 -201.09)" fill="#ff8c66"/>
          <path id="Trazado_131866" data-name="Trazado 131866" d="M766.995,291.706c-.022-1.661-.042-3.318-.042-4.916h28.3c0,5.94-.237,12.74-.089,17.121-22.846-.147-28.16-12.193-28.164-12.205" transform="translate(-698.38 -175.74)" fill="#ffac6a"/>
          <path id="Trazado_131867" data-name="Trazado 131867" d="M722.586,319.145l0,.005c-3.582-.366-12.21,1.1-17.681,8.689s-20.054,33.434-20.064,33.454l-.038-.015-2.734-1.145s7.711-13.026,17.328-29.281c7.575-12.806,16.857-12.665,23.187-11.706" transform="translate(-667.904 -187.219)" fill="#ffdbbf"/>
          <path id="Trazado_131868" data-name="Trazado 131868" d="M749.19,371.843a209.4,209.4,0,0,1-34.434-4.459c5.117-23.66,25.268-45.659,25.972-46.427,0,0-13.477,19.647-16.075,30.082-2.574,10.346,8.825,19.844,24.537,20.8" transform="translate(-679.639 -188.008)" fill="#fff2f0"/>
          <path id="Trazado_131869" data-name="Trazado 131869" d="M768.569,243.1c9.168,0,19.906-7.156,27.045-18.579s9.476-28.479,9.476-36.578a36.522,36.522,0,1,0-73.043,0c0,8.1,2.337,25.154,9.476,36.578S759.4,243.1,768.569,243.1" transform="translate(-685.847 -127.138)" fill="#ffc08d"/>
          <path id="Trazado_131870" data-name="Trazado 131870" d="M814.444,163.715s-2.131,14.773,6.72,23.973,13.309,8.166,13.309,8.166Z" transform="translate(-715.35 -131.552)" fill="#ffac6a"/>
          <path id="Trazado_131871" data-name="Trazado 131871" d="M787.2,160.28A39.707,39.707,0,0,1,771.755,172.9c-10.757,5.046-30.86,7.369-33.422,14.873,0,0,0-9.348,15.663-16.777,11.656-5.531,33.2-10.712,33.2-10.712" transform="translate(-688.104 -130.318)" fill="#ffac6a"/>
          <path id="Trazado_131872" data-name="Trazado 131872" d="M734.934,219.68c1.32,17.228,10.624,31.62,16.162,36.7a39.459,39.459,0,0,0,16.189,9.079c-8.856-.654-18.9-7.645-25.7-18.514-4.228-6.763-6.761-15.5-8.132-23.18l-1.223-9.886v-.012Z" transform="translate(-685.914 -149.557)" fill="#ffdbbf"/>
          <path id="Trazado_131873" data-name="Trazado 131873" d="M802.151,194.96c.783,1.433,4.492-1.356,9.748-1.269s9.086,2.286,10.985,4.49c0,0-1.627-5.021-8.849-7.171s-12.9,2.085-11.883,3.95" transform="translate(-710.975 -141.138)" fill="#5b2539"/>
          <path id="Trazado_131874" data-name="Trazado 131874" d="M764.22,194.96c-.78,1.433-4.492-1.356-9.747-1.269s-9.086,2.286-10.985,4.49c0,0,1.627-5.021,8.849-7.171s12.9,2.085,11.883,3.95" transform="translate(-689.955 -141.138)" fill="#5b2539"/>
          <path id="Trazado_131875" data-name="Trazado 131875" d="M779.144,234.112c.891-2.119,3.725-12.961,6.214-12.961s5.323,10.842,6.212,12.961-.267,2.906-.267,2.906l-1.227-.21s-3.155,2.513-4.717,2.513-4.717-2.513-4.717-2.513l-1.228.21s-1.158-.785-.269-2.906" transform="translate(-702.636 -152.173)" fill="#ffb67d"/>
          <g id="Grupo_58472" data-name="Grupo 58472" transform="translate(79.502 78.573)">
            <g id="Grupo_58471" data-name="Grupo 58471">
              <g id="Grupo_58470" data-name="Grupo 58470" clip-path="url(#clip-path-2)">
                <path id="Trazado_131876" data-name="Trazado 131876" d="M790.441,239.658a3.232,3.232,0,1,0-6.435,0c0,1.954,1.441,3.855,3.218,3.855s3.216-1.9,3.216-3.855" transform="translate(-784.005 -236.121)" fill="#ffac6a"/>
              </g>
            </g>
          </g>
          <g id="Grupo_58475" data-name="Grupo 58475" transform="translate(79.572 81.549)" opacity="0.3">
            <g id="Grupo_58474" data-name="Grupo 58474">
              <g id="Grupo_58473" data-name="Grupo 58473" clip-path="url(#clip-path-3)">
                <path id="Trazado_131877" data-name="Trazado 131877" d="M784.151,241.441a.721.721,0,1,0,.906-.656.8.8,0,0,0-.906.656" transform="translate(-784.114 -240.764)" fill="#fff"/>
              </g>
            </g>
          </g>
          <path id="Trazado_131878" data-name="Trazado 131878" d="M785.942,244.425a.354.354,0,1,0-.353.354.354.354,0,0,0,.353-.354" transform="translate(-704.944 -160.403)" fill="#fff"/>
          <path id="Trazado_131879" data-name="Trazado 131879" d="M782.219,246.914a3.156,3.156,0,0,1,1.8.252,3.808,3.808,0,0,0,5.091,0,3.16,3.16,0,0,1,1.8-.252c.027,0,.053.078.02.082-1.584.158-2.413,1.558-3.887,1.984a1.9,1.9,0,0,1-.959,0c-1.472-.426-2.3-1.826-3.887-1.984-.034,0-.007-.078.019-.082" transform="translate(-703.848 -161.411)" fill="#5b2539"/>
          <path id="Trazado_131880" data-name="Trazado 131880" d="M781.495,246.011a4.881,4.881,0,0,1-1.361-.356c-.613-.271-1.33-1.342-.226-1.61a1.87,1.87,0,0,1,1.928.86c.3.378.411.819.9,1.118Z" transform="translate(-702.825 -160.376)" fill="#5b2539"/>
          <path id="Trazado_131881" data-name="Trazado 131881" d="M794.643,246.011a4.9,4.9,0,0,0,1.361-.356c.613-.271,1.328-1.342.223-1.61a1.872,1.872,0,0,0-1.928.86c-.3.378-.412.819-.9,1.118Z" transform="translate(-707.875 -160.376)" fill="#5b2539"/>
          <path id="Trazado_131882" data-name="Trazado 131882" d="M782.828,145.271s-1.6,21.852,20.149,35.985l7.292-3.449s3.233-12.888,2.409-21.759-7.149-21.921-26.031-22.435c0,0-10-16.605-29.62-15.032-27.094,2.177-37.149,36.878-26.975,61.032a20.8,20.8,0,0,1,11.041-14.46c9.7-4.931,30.4-8.052,41.735-19.883" transform="translate(-683.734 -115.309)" fill="#6d3347"/>
          <path id="Trazado_131883" data-name="Trazado 131883" d="M843.547,189.54c-8.28-15.027.119-17.157,2.673-29.13.78-3.645-1.734-11.232-6.732-14.283a23.987,23.987,0,0,1,13.879,19.851c.824,8.871-2.409,21.757-2.409,21.757l-6.4,3.025a7.017,7.017,0,0,1-1.015-1.218" transform="translate(-724.423 -125.236)" fill="#5b2539"/>
          <path id="Trazado_131884" data-name="Trazado 131884" d="M681.315,171.809c.419-9.3,6.309-13.974,11.963-18.371s9.059-6.7,17.8-17.383c8.771-10.716,19.362-16.851,29.717-17.458.039,0,.076-.01.114-.014a30.5,30.5,0,0,1,19.492,4.993c-11.377-4.6-25.479-4.325-34.88,5.435-7,7.27-12.433,21.4-23.232,29.024-10.68,7.541-26.326,19.134-12.365,32.492-5.255-3.609-9.032-9.413-8.614-18.717" transform="translate(-667.621 -115.309)" fill="#813c55"/>
          <path id="Trazado_131885" data-name="Trazado 131885" d="M730.2,188.342l.724,15.489s.753,9.559,1.734,11.457c.722,1.4,1.472-3.436,1.722-10.583s2.3-10.225,2.3-10.225l-6.483-6.544" transform="translate(-685.183 -140.249)" fill="#6d3347"/>
          <path id="Trazado_131886" data-name="Trazado 131886" d="M844.21,211.663s4.88-7.124,11.852-2.16c3.163,2.255,6.221,10.689,0,18.281s-14.482,4.71-14.727,1.247Z" transform="translate(-725.086 -147.36)" fill="#ffc08d"/>
          <path id="Trazado_131887" data-name="Trazado 131887" d="M845.593,211.663s4.88-7.124,11.854-2.16a6.751,6.751,0,0,1,1.506,1.6c-4.442-3.737-10.832-2.255-13.683,4.26l-.107-1.109Z" transform="translate(-726.461 -147.36)" fill="#ffac6a"/>
          <path id="Trazado_131888" data-name="Trazado 131888" d="M843.537,212.7s-.477,7.752-1.4,10.915-2.672-12.99-2.672-12.99Z" transform="translate(-724.413 -148.392)" fill="#6d3347"/>
          <path id="Trazado_131889" data-name="Trazado 131889" d="M857.6,220.006s-1.206-2.976-4.182-2.789-4.541,3.1-4.945,5.464c0,0,3.673-.47,3.78,3.148.1,3.228-3.086,4.359-4.4,3.591,0,0,.24,1.809,3.327,2.022,3.722.254,8.745-4.558,6.42-11.436" transform="translate(-727.428 -150.758)" fill="#ffac6a"/>
          <path id="Trazado_131890" data-name="Trazado 131890" d="M804.728,218.807s1.143-6.965,7.764-8.047,10.207,4.516,10.207,4.516a9.274,9.274,0,0,1-7.917,7.881,10.075,10.075,0,0,1-10.055-4.35" transform="translate(-711.943 -148.393)" fill="#fff"/>
          <path id="Trazado_131891" data-name="Trazado 131891" d="M804.155,215.761s-.959-4.553.237-7.222,5.631-6.824,12.31-4.867,6.614,8.946,6.614,8.946a11.522,11.522,0,0,0-11.162-4.536c-6,.838-8,7.679-8,7.679" transform="translate(-711.606 -145.716)" fill="#ffac6a"/>
          <path id="Trazado_131892" data-name="Trazado 131892" d="M819.382,217.261a5.064,5.064,0,1,0-5.064,5.064,5.064,5.064,0,0,0,5.064-5.064" transform="translate(-713.568 -148.959)" fill="#5b2539"/>
          <path id="Trazado_131893" data-name="Trazado 131893" d="M818.248,218.7a2.488,2.488,0,1,0-2.487,2.487,2.488,2.488,0,0,0,2.487-2.487" transform="translate(-715.01 -150.402)" fill="#401427"/>
          <path id="Trazado_131894" data-name="Trazado 131894" d="M815.109,217.037a1.222,1.222,0,1,0-1.223,1.223,1.222,1.222,0,0,0,1.223-1.223" transform="translate(-714.793 -150.258)" fill="#fff"/>
          <path id="Trazado_131895" data-name="Trazado 131895" d="M804.587,218.436c.443.169.964-3.139,3.877-5.241a10.061,10.061,0,0,1,9.648-.751,8.417,8.417,0,0,1,3.516,2.906,9.487,9.487,0,0,1-3.184,5.35c-2.286,1.879-4.991,2.024-4.873,2.211.235.361,2.986.145,5.51-1.5a9.831,9.831,0,0,0,4.429-6.488c-.092-1.637-4.543-5.727-9.473-5.308s-7.534,2.786-8.656,5.122-1.261,3.517-.794,3.7" transform="translate(-711.802 -148.021)" fill="#4a1a2d"/>
          <g id="Grupo_58478" data-name="Grupo 58478" transform="translate(101.576 77.042)" opacity="0.3">
            <g id="Grupo_58477" data-name="Grupo 58477">
              <g id="Grupo_58476" data-name="Grupo 58476" clip-path="url(#clip-path-4)">
                <path id="Trazado_131896" data-name="Trazado 131896" d="M818.551,239.715c.622,2.218,3.744,3.284,6.977,2.381s5.345-3.439,4.725-5.66-3.746-3.286-6.977-2.381-5.348,3.439-4.725,5.66" transform="translate(-818.443 -233.733)" fill="#ff6267"/>
              </g>
            </g>
          </g>
          <path id="Trazado_131897" data-name="Trazado 131897" d="M763.256,218.807s-1.143-6.965-7.764-8.047-10.207,4.516-10.207,4.516a9.274,9.274,0,0,0,7.916,7.881,10.075,10.075,0,0,0,10.055-4.35" transform="translate(-690.6 -148.393)" fill="#fff"/>
          <path id="Trazado_131898" data-name="Trazado 131898" d="M762.959,215.761s.959-4.553-.237-7.222-5.63-6.824-12.31-4.867-6.613,8.946-6.613,8.946a11.522,11.522,0,0,1,11.162-4.536c6,.838,8,7.679,8,7.679" transform="translate(-690.067 -145.716)" fill="#ffac6a"/>
          <path id="Trazado_131899" data-name="Trazado 131899" d="M753,217.261a5.064,5.064,0,1,1,5.064,5.064A5.064,5.064,0,0,1,753,217.261" transform="translate(-693.369 -148.959)" fill="#5b2539"/>
          <path id="Trazado_131900" data-name="Trazado 131900" d="M761.99,218.7a2.489,2.489,0,1,0-2.487,2.487,2.488,2.488,0,0,0,2.487-2.487" transform="translate(-694.811 -150.402)" fill="#401427"/>
          <path id="Trazado_131901" data-name="Trazado 131901" d="M758.383,217.037a1.222,1.222,0,1,0-1.22,1.223,1.222,1.222,0,0,0,1.22-1.223" transform="translate(-694.426 -150.258)" fill="#fff"/>
          <path id="Trazado_131902" data-name="Trazado 131902" d="M762.723,218.436c-.443.169-.964-3.139-3.877-5.241a10.061,10.061,0,0,0-9.648-.751,8.416,8.416,0,0,0-3.516,2.906,9.487,9.487,0,0,0,3.184,5.35c2.288,1.879,4.991,2.024,4.873,2.211-.235.361-2.986.145-5.51-1.5a9.83,9.83,0,0,1-4.429-6.488c.094-1.637,4.543-5.727,9.476-5.308s7.531,2.786,8.653,5.122,1.261,3.517.794,3.7" transform="translate(-690.067 -148.021)" fill="#4a1a2d"/>
          <g id="Grupo_58481" data-name="Grupo 58481" transform="translate(51.948 77.042)" opacity="0.3">
            <g id="Grupo_58480" data-name="Grupo 58480">
              <g id="Grupo_58479" data-name="Grupo 58479" clip-path="url(#clip-path-4)">
                <path id="Trazado_131903" data-name="Trazado 131903" d="M752.824,239.715c-.622,2.218-3.744,3.284-6.977,2.381s-5.345-3.439-4.725-5.66,3.746-3.286,6.977-2.381,5.347,3.439,4.725,5.66" transform="translate(-741.015 -233.733)" fill="#ff6267"/>
              </g>
            </g>
          </g>
        </g>
      </g>
      <g id="Grupo_58485" data-name="Grupo 58485" transform="translate(731.318 208.091)">
        <g id="Grupo_58484" data-name="Grupo 58484" transform="translate(0 0)" clip-path="url(#clip-path-6)">
          <rect id="Rectángulo_31206" data-name="Rectángulo 31206" width="21.805" height="7.546" transform="translate(0 0)" fill="url(#linear-gradient)"/>
        </g>
      </g>
      <g id="Grupo_58487" data-name="Grupo 58487" transform="translate(659.461 113.535)">
        <g id="Grupo_58486" data-name="Grupo 58486" clip-path="url(#clip-path)">
          <path id="Trazado_131906" data-name="Trazado 131906" d="M782.39,259.168c-.92,0-2.48-.978-4.381-.392s-6.735.482-7.324.615.14,1.8,11.7,1.8,12.292-1.674,11.7-1.8-5.424-.026-7.326-.615-3.459.392-4.378.392" transform="translate(-699.668 -165.615)" fill="#bd1a45"/>
          <path id="Trazado_131907" data-name="Trazado 131907" d="M785.149,270.725c4.635,0,6.911-1.889,6.911-1.889-.642,1.5-2.85,3.434-6.911,3.434s-6.27-1.937-6.911-3.434c0,0,2.276,1.889,6.911,1.889" transform="translate(-702.432 -169.294)" fill="#bd1a45"/>
        </g>
      </g>
    </g>
  </g>
</svg>
