<svg xmlns="http://www.w3.org/2000/svg" xmlns:xlink="http://www.w3.org/1999/xlink" width="91.928" height="91.927" viewBox="0 0 91.928 91.927">
  <defs>
    <radialGradient id="radial-gradient" cx="0.076" cy="0.019" r="1.465" gradientTransform="translate(0.001)" gradientUnits="objectBoundingBox">
      <stop offset="0" stop-color="#f6f6f7"/>
      <stop offset="0.477" stop-color="#f9f9fa"/>
      <stop offset="0.715" stop-color="#fff"/>
    </radialGradient>
  </defs>
  <g id="Grupo_58715" data-name="Grupo 58715" transform="translate(12710.428 4930.917)">
    <g id="Grupo_58632" data-name="Grupo 58632" transform="translate(-12927.428 -5672.25)">
      <g id="Grupo_42274" data-name="Grupo 42274" transform="translate(142 768.333)">
        <g id="Grupo_18423" data-name="Grupo 18423" transform="translate(75 -27)">
          <g id="Grupo_18421" data-name="Grupo 18421">
            <g id="Grupo_18420" data-name="Grupo 18420">
              <g id="Grupo_18419" data-name="Grupo 18419">
                <path id="Trazado_40936" data-name="Trazado 40936" d="M286.55,2191.684a45.964,45.964,0,1,1-45.963-45.962A45.963,45.963,0,0,1,286.55,2191.684Z" transform="translate(-194.623 -2145.721)" fill="#fff"/>
              </g>
            </g>
          </g>
          <path id="Trazado_40937" data-name="Trazado 40937" d="M286.23,2191.334a45.963,45.963,0,1,0-45.963,45.965A45.782,45.782,0,0,0,286.23,2191.334Z" transform="translate(-194.303 -2145.372)" fill="url(#radial-gradient)"/>
          <path id="Trazado_40938" data-name="Trazado 40938" d="M272.56,2188.562a35.084,35.084,0,1,0-35.084,35.084A34.953,34.953,0,0,0,272.56,2188.562Z" transform="translate(-191.373 -2142.446)" fill="none" stroke="#31aebb" stroke-miterlimit="10" stroke-width="4"/>
          <g id="Grupo_18422" data-name="Grupo 18422" transform="translate(8.143 25.805)">
            <path id="Trazado_40939" data-name="Trazado 40939" d="M279.682,2164.488a45.969,45.969,0,0,1-79.137,45.773,45.823,45.823,0,0,0,79.137-45.773Z" transform="translate(-200.545 -2164.488)" fill="#eceef0"/>
          </g>
        </g>
      </g>
    </g>
    <g id="Grupo_58633" data-name="Grupo 58633" transform="translate(-12877.568 -6072.851)">
      <path id="Trazado_17793" data-name="Trazado 17793" d="M259.918,1180.7a1.075,1.075,0,1,0,1.075,1.075A1.075,1.075,0,0,0,259.918,1180.7Z" transform="translate(-33.555 -7.139)" fill="#26aab7"/>
      <path id="Trazado_17794" data-name="Trazado 17794" d="M260.078,1166.608a.716.716,0,0,0-1.013,0l-5.733,5.733a.718.718,0,0,0-.21.507v5.016a.717.717,0,0,0,.717.717h5.017a.716.716,0,0,0,.506-.21l5.733-5.734a.717.717,0,0,0,0-1.013Zm-1.52,10.54h-4v-4l5.017-5.017,4,4Z" transform="translate(-30.699 0)" fill="#26aab7"/>
      <path id="Trazado_17795" data-name="Trazado 17795" d="M192.322,1202.9h2.15v.092a2.775,2.775,0,0,0,2.15,2.7v6.527a.717.717,0,0,0,.717.717h4.3a.717.717,0,0,0,.717-.717v-2.867h.722a2.149,2.149,0,0,0,2.144-2.144v-1.516a2.772,2.772,0,0,0,1.977-1.764l12.066,5.363a.717.717,0,0,0,1.007-.655v-17.2a.717.717,0,0,0-1.007-.655l-12.066,5.363a2.77,2.77,0,0,0-2.6-1.841h-7.35a2.778,2.778,0,0,0-2.775,2.775v.092h-2.15a.717.717,0,0,0-.717.717v4.3A.717.717,0,0,0,192.322,1202.9Zm23.649-9.09,2.867-1.273v14.994l-2.867-1.273Zm-8.6,3.823,7.167-3.186v11.176l-7.167-3.189Zm-6.45,11v2.866h-2.866v-5.734h2.866Zm2.866-1.428a.711.711,0,0,1-.711.711h-.722v-2.15h1.433Zm-7.883-5.023v-5.108a1.343,1.343,0,0,1,1.342-1.342h7.35a1.343,1.343,0,0,1,1.342,1.342v5.917a1.343,1.343,0,0,1-1.342,1.342h-7.35a1.343,1.343,0,0,1-1.342-1.342Zm-2.866-3.583h1.433v2.867h-1.433Z" transform="translate(0 -12.137)" fill="#26aab7"/>
      <path id="Trazado_17796" data-name="Trazado 17796" d="M256.593,1222.443a.716.716,0,0,0-1.013,0l-5.068,5.068a.716.716,0,0,0,0,1.013l7.1,7.095a.717.717,0,0,0,1.013,0l5.067-5.068a.717.717,0,0,0,0-1.013Zm4.711,6.736-4.044-.31-.311-4.044Zm-3.191,4.918-6.082-6.08,3.459-3.459.388,5.034a.718.718,0,0,0,.659.66l5.035.387Z" transform="translate(-29.292 -27.864)" fill="#26aab7"/>
      <path id="Trazado_17797" data-name="Trazado 17797" d="M225.222,1180.224a5.007,5.007,0,0,0,4.013-8.015l4.378-4.378-1.015-1.013-4.378,4.377a5.017,5.017,0,1,0-3,9.03Zm0-8.6a3.584,3.584,0,1,1-3.584,3.584A3.583,3.583,0,0,1,225.222,1171.623Z" transform="translate(-14.267 -0.209)" fill="#26aab7"/>
      <path id="Trazado_17798" data-name="Trazado 17798" d="M252.407,1205.75h3.583v.716a.716.716,0,0,0,.717.717h5.733a.717.717,0,0,0,.717-.717v-3.57a4.824,4.824,0,0,1-1.248-6.7,18.982,18.982,0,0,1-5.2,4.816,2.857,2.857,0,0,0-.9-.691,2.149,2.149,0,1,0-2.514,0,2.86,2.86,0,0,0-1.609,2.563v2.15A.717.717,0,0,0,252.407,1205.75Zm7.167-9.317a1.433,1.433,0,1,1-1.433,1.433A1.433,1.433,0,0,1,259.574,1196.433Zm-2.15,8.6V1202.9a1.449,1.449,0,0,1,1.447-1.447h1.406a1.449,1.449,0,0,1,1.447,1.447v2.853h-4.3Zm-2.866-7.167a.717.717,0,1,1-.717.716A.716.716,0,0,1,254.557,1197.867Zm-1.433,5.016a1.433,1.433,0,0,1,2.866,0v1.434h-2.866Z" transform="translate(-29.986 -14.269)" fill="#26aab7"/>
      <path id="Trazado_17799" data-name="Trazado 17799" d="M223.809,1225.052h-2.866a.717.717,0,0,0-.507.21l-4.3,4.3a.717.717,0,0,0,0,1.013l7.883,7.883a.716.716,0,0,0,1.013,0l5.733-5.733a.717.717,0,0,0,0-1.013l-6.45-6.45A.719.719,0,0,0,223.809,1225.052Zm.717,11.887-6.87-6.87,3.583-3.584h2.273l5.733,5.733Z" transform="translate(-12.137 -29.271)" fill="#26aab7"/>
      <path id="Trazado_17800" data-name="Trazado 17800" d="M224.928,1234.06l2.867-2.866,1.013,1.013-2.867,2.867Z" transform="translate(-16.63 -32.336)" fill="#26aab7"/>
      <path id="Trazado_17801" data-name="Trazado 17801" d="M229.219,1238.351l2.867-2.866,1.013,1.013-2.866,2.867Z" transform="translate(-18.771 -34.478)" fill="#26aab7"/>
    </g>
  </g>
</svg>
