<svg xmlns="http://www.w3.org/2000/svg" xmlns:xlink="http://www.w3.org/1999/xlink" width="184.937" height="201.512" viewBox="0 0 184.937 201.512">
  <defs>
    <clipPath id="clip-path">
      <path id="Trazado_132017" data-name="Trazado 132017" d="M233.59,690.673c0,55.646,40.089,93.953,91.156,93.953s92.383-40.78,92.383-96.428-41.313-105.083-92.383-105.083S233.59,635.028,233.59,690.673" transform="translate(-233.59 -583.115)" fill="none"/>
    </clipPath>
    <clipPath id="clip-path-2">
      <path id="Trazado_132018" data-name="Trazado 132018" d="M282.556,710.439c-5.6,6.05-11.587,16.191-6.769,29.249,4.189,11.358,13.09,17.039,20.5,19.876-.016-.012-15-9.083-12.21-24.22s12.439-17.693,12.213-22.04c-.15-2.836-2.47-5.363-6.33-5.363a14.231,14.231,0,0,0-7.406,2.5" transform="translate(-274.023 -707.941)" fill="none"/>
    </clipPath>
    <linearGradient id="linear-gradient" x1="7.137" y1="4.007" x2="7.247" y2="4.007" gradientUnits="objectBoundingBox">
      <stop offset="0" stop-color="#a94f0b"/>
      <stop offset="1" stop-color="#be6e20"/>
    </linearGradient>
    <clipPath id="clip-path-4">
      <path id="Trazado_132022" data-name="Trazado 132022" d="M348.167,776.183c1.435,5.109,1.567,14.4-1.945,18.77-2.283,2.831-6.067,3.482-9.388,4.291-7.86,1.917-4.156,6.975-.789,11.347,3.016,3.919,6.377,7.928,10.9,10.167,2.805,1.39,4.9.814,7.184.237a15.651,15.651,0,0,1,4.2-.62,16.079,16.079,0,0,1,4.429,1.178c2.673.837,5.125-.135,7.493-1.415,4.105-2.224,7.434-5.886,10.251-9.546,2.041-2.652,4.11-4.9,4.31-8.345a1.188,1.188,0,0,0-.116-.722.894.894,0,0,0-.445-.321c-.071-.028-.135-.051-.2-.076q-3.218-1.1-6.436-2.188a20.821,20.821,0,0,1-5.985-2.777c-4.982-3.764-4.776-14.552-3.25-19.98.451-1.592-4.756-2.557-10.1-2.678-5.351.121-10.555,1.086-10.107,2.678" transform="translate(-332.161 -773.505)" fill="none"/>
    </clipPath>
    <clipPath id="clip-path-5">
      <rect id="Rectángulo_31216" data-name="Rectángulo 31216" width="27.425" height="15.074" fill="none"/>
    </clipPath>
    <clipPath id="clip-path-7">
      <path id="Trazado_132041" data-name="Trazado 132041" d="M399.922,700.82c-4.485,1.164-6.507,1.294-7.5,3.02a8.388,8.388,0,0,1-3,2.763c-.408,1.172,1.359,3.743,2.044,4.5,5.607,6.217,18.807-1.815,15.635-9.813a8.3,8.3,0,0,0-4.04-.891,12.543,12.543,0,0,0-3.146.417" transform="translate(-389.369 -700.403)" fill="none"/>
    </clipPath>
    <clipPath id="clip-path-8">
      <rect id="Rectángulo_31221" data-name="Rectángulo 31221" width="18.095" height="6.166" fill="none"/>
    </clipPath>
    <clipPath id="clip-path-9">
      <rect id="Rectángulo_31222" data-name="Rectángulo 31222" width="6.837" height="3.727" fill="none"/>
    </clipPath>
    <clipPath id="clip-path-11">
      <path id="Trazado_132051" data-name="Trazado 132051" d="M327.375,701.294c-3.171,8,10.028,16.03,15.635,9.813.685-.761,2.45-3.332,2.041-4.5a8.41,8.41,0,0,1-3-2.763c-.989-1.726-3.008-1.855-7.493-3.02a12.574,12.574,0,0,0-3.146-.417,8.3,8.3,0,0,0-4.04.891" transform="translate(-326.89 -700.403)" fill="none"/>
    </clipPath>
    <clipPath id="clip-path-13">
      <rect id="Rectángulo_31224" data-name="Rectángulo 31224" width="6.836" height="3.727" fill="none"/>
    </clipPath>
    <clipPath id="clip-path-15">
      <rect id="Rectángulo_31225" data-name="Rectángulo 31225" width="39.383" height="55.409" fill="none"/>
    </clipPath>
    <clipPath id="clip-path-16">
      <rect id="Rectángulo_31226" data-name="Rectángulo 31226" width="20.144" height="31.462" fill="none"/>
    </clipPath>
    <clipPath id="clip-path-17">
      <rect id="Rectángulo_31227" data-name="Rectángulo 31227" width="35.704" height="29.404" fill="none"/>
    </clipPath>
    <clipPath id="clip-path-18">
      <rect id="Rectángulo_31228" data-name="Rectángulo 31228" width="11.587" height="38.431" fill="none"/>
    </clipPath>
    <clipPath id="clip-path-19">
      <path id="Trazado_132065" data-name="Trazado 132065" d="M319.545,630.314c-.975,4.418-1.629,7.643-5.165,10.561-4.491,3.7-8.17,6.946-9.512,12.91-1.2,5.328-.3,10.944,1.37,16.067a52.635,52.635,0,0,0,3.321,7.834c.826,1.59,3.456,4.494,3.642,6.09-.993-8.553-2.4-19.836,2-27.6,2.112-3.73,5.162-5.114,8.079-7.874,4.074-3.853,4.877-11.92,5.729-17.014,3.366-20.1,18.871-4.84,18.871-4.84l1.675-5.633s-6.89-3.228-11.325-5.027a13.042,13.042,0,0,0-4.911-1.023c-6.6,0-11.651,5.954-13.775,15.553" transform="translate(-304.319 -614.761)" fill="none"/>
    </clipPath>
    <linearGradient id="linear-gradient-2" x1="2.657" y1="4.42" x2="2.693" y2="4.42" xlink:href="#linear-gradient"/>
    <clipPath id="clip-path-21">
      <rect id="Rectángulo_31230" data-name="Rectángulo 31230" width="30.129" height="31.079" fill="none"/>
    </clipPath>
    <clipPath id="clip-path-22">
      <rect id="Rectángulo_31231" data-name="Rectángulo 31231" width="18.054" height="24.634" fill="none"/>
    </clipPath>
    <clipPath id="clip-path-23">
      <path id="Trazado_132070" data-name="Trazado 132070" d="M375.318,609.171c-3.865,2.723-4.336,7.053-5.647,11.226,1.291-4.1,4.581-10.688,9.864-9.442,11.844,2.8-4.736,18.773-1.649,24.741,2.805,5.424,7.415,5.788,15.869,5.663s.073,12.27,1.291,17.933,14.3,6.38,10.944,15.579,5.232,9.45,3.3,16.757-6.465,13.177-5.585,13.448,15.751-9.873,12.382-20.515c-1.835-5.808,4.105-10.916,1.418-16.484-1.694-3.507-7.846-6.417-9.063-10.254a16.964,16.964,0,0,1-.528-8.336c.536-2.777,2.115-5.176,1.782-8.119-.525-4.62-6.4-7.276-10.338-8.235-3.217-.781-7.308-.778-6.16-5.224,1.215-4.7,2.659-10.682.274-15.26-1.914-3.679-6.488-5.525-10.9-5.525a12.752,12.752,0,0,0-7.251,2.047" transform="translate(-369.671 -607.124)" fill="none"/>
    </clipPath>
    <linearGradient id="linear-gradient-3" x1="1.709" y1="3.191" x2="1.735" y2="3.191" xlink:href="#linear-gradient"/>
  </defs>
  <g id="Grupo_58831" data-name="Grupo 58831" transform="translate(4483.479 -1405.298)">
    <g id="Grupo_58830" data-name="Grupo 58830">
      <g id="Grupo_58793" data-name="Grupo 58793" transform="translate(-4715.464 822.183)">
        <path id="Trazado_132014" data-name="Trazado 132014" d="M416.922,700.868a92.468,92.468,0,1,1-92.467-92.47,92.468,92.468,0,0,1,92.467,92.47" transform="translate(0 -8.708)" fill="#cbc5e0"/>
        <g id="Grupo_58522" data-name="Grupo 58522" transform="translate(233.037 583.115)">
          <g id="Grupo_58521" data-name="Grupo 58521" clip-path="url(#clip-path)">
            <path id="Trazado_132015" data-name="Trazado 132015" d="M352.72,615.777c-13.639-7.894-31.09-5.74-41.713,5.9-.124.135-.248.27-.372.408-8.556,9.552-11.888,11.607-17.422,15.54s-11.3,8.1-11.711,16.421,3.287,13.5,8.433,16.735c0,0-22.207,13.69-14.147,35.548,7.877,21.347,32.39,22.652,32.39,22.652s14.209,11.793,40.927,7.113,27.62-11.232,27.62-11.232,14.172.153,19.41-13.56c4.618-12.089-5.244-20.761-7.175-27.716-.978-3.519-.341-9.163.6-14.113,2.433-12.828-.724-26.306-9.352-36.106a42.833,42.833,0,0,0-13.642-10.346c-5.734-2.76-10.265-5.176-13.842-7.245" transform="translate(-247.517 -592.751)" fill="#8e3b03"/>
            <path id="Trazado_132016" data-name="Trazado 132016" d="M311.541,753.156c-11.9-5.069-14.076-16.828-1.091-25.077s15.652-16.383,15.3-26.258L385,684.463c-.282,2.994,12.839,22.308,13.419,24.394,1.931,6.955,11.793,15.627,7.175,27.716-5.238,13.715-19.41,13.563-19.41,13.563s-.9,6.552-27.62,11.229-40.926-7.11-40.926-7.11a38.194,38.194,0,0,1-6.121-1Z" transform="translate(-257.023 -618.022)" fill="#763105"/>
          </g>
        </g>
        <g id="Grupo_58524" data-name="Grupo 58524" transform="translate(259.544 664.947)">
          <g id="Grupo_58523" data-name="Grupo 58523" transform="translate(0)" clip-path="url(#clip-path-2)">
            <rect id="Rectángulo_31215" data-name="Rectángulo 31215" width="25.548" height="51.622" transform="translate(-3.054 0)" fill="url(#linear-gradient)"/>
          </g>
        </g>
        <g id="Grupo_58526" data-name="Grupo 58526" transform="translate(233.037 583.115)">
          <g id="Grupo_58525" data-name="Grupo 58525" clip-path="url(#clip-path)">
            <path id="Trazado_132019" data-name="Trazado 132019" d="M393.669,814.287s-6.03-11.547-24.964-14.322l-3.022-1.026a20.777,20.777,0,0,1-5.982-2.777c-4.984-3.764-4.776-14.553-3.251-19.983.448-1.59-4.759-2.554-10.106-2.675-5.348.121-10.553,1.085-10.107,2.675,1.435,5.111,1.568,14.406-1.945,18.773-2.281,2.83-6.067,3.482-9.388,4.291a12.241,12.241,0,0,0-2,.657c-19.267,2.664-25.378,14.386-25.378,14.386,2.024,4.725,22.994,5.856,36.8,6.084.231.127.451.271.691.386,4.122,2.044,6.712-.161,10.617-.369.276.005.618.009,1.012.014a18.2,18.2,0,0,1,4.184,1.148c2.517.789,4.835-.028,7.073-1.2,13.8-.265,33.794-1.457,35.767-6.064" transform="translate(-255.61 -648.691)" fill="#ffcda5"/>
          </g>
        </g>
        <g id="Grupo_58531" data-name="Grupo 58531" transform="translate(297.658 707.929)">
          <g id="Grupo_58530" data-name="Grupo 58530" transform="translate(0 0)" clip-path="url(#clip-path-4)">
            <g id="Grupo_58529" data-name="Grupo 58529" transform="translate(11.529 -2.938)" opacity="0.46">
              <g id="Grupo_58528" data-name="Grupo 58528">
                <g id="Grupo_58527" data-name="Grupo 58527" clip-path="url(#clip-path-5)">
                  <path id="Trazado_132021" data-name="Trazado 132021" d="M377.172,776.56c0,4.164-6.14,7.538-13.713,7.538s-13.713-3.374-13.713-7.538,6.14-7.536,13.713-7.536,13.713,3.372,13.713,7.536" transform="translate(-349.747 -769.024)" fill="#be8053"/>
                </g>
              </g>
            </g>
          </g>
        </g>
        <g id="Grupo_58543" data-name="Grupo 58543" transform="translate(233.037 583.115)">
          <g id="Grupo_58542" data-name="Grupo 58542" clip-path="url(#clip-path)">
            <path id="Trazado_132023" data-name="Trazado 132023" d="M421.07,717.722a53.126,53.126,0,0,1,4.293-7c.911-1.238,2.177-3.191,3.809-3.484,3.042-.544,5.782,3.631,6.682,6.07,1.3,3.526.527,7.341-1.145,10.606-5.156,10.087-14.874,9.047-16.205,8.02s2.566-14.209,2.566-14.209" transform="translate(-297.184 -625.849)" fill="#dfa57a"/>
            <path id="Trazado_132024" data-name="Trazado 132024" d="M425.1,730.573a11.487,11.487,0,0,1,.993-3.777,13.813,13.813,0,0,1,2.06-3.341,9.609,9.609,0,0,1,3.152-2.534,5.059,5.059,0,0,1,4-.327,8.644,8.644,0,0,0-3.141,1.7,19.742,19.742,0,0,0-2.43,2.487c-.761.907-1.5,1.854-2.247,2.833s-1.508,1.962-2.385,2.957" transform="translate(-299.551 -630.371)" fill="#bf875c"/>
            <path id="Trazado_132025" data-name="Trazado 132025" d="M312.96,717.722a53.129,53.129,0,0,0-4.293-7c-.911-1.238-2.176-3.191-3.811-3.484-3.039-.544-5.782,3.631-6.679,6.07-1.3,3.526-.527,7.341,1.142,10.606,5.159,10.087,14.874,9.047,16.208,8.02s-2.566-14.209-2.566-14.209" transform="translate(-255.611 -625.849)" fill="#dfa57a"/>
            <path id="Trazado_132026" data-name="Trazado 132026" d="M313.173,730.573c-.874-1-1.632-1.982-2.385-2.957s-1.486-1.925-2.244-2.833a19.9,19.9,0,0,0-2.433-2.487,8.623,8.623,0,0,0-3.141-1.7,5.058,5.058,0,0,1,4,.327,9.608,9.608,0,0,1,3.152,2.534,13.836,13.836,0,0,1,2.061,3.341,11.469,11.469,0,0,1,.992,3.777" transform="translate(-257.486 -630.371)" fill="#bf875c"/>
            <path id="Trazado_132027" data-name="Trazado 132027" d="M389.563,662.338c-.657-9.9-3.386-19.317-10.262-26.627-.059-.062-.113-.127-.172-.189-.2-.214-.417-.417-.626-.626s-.434-.445-.657-.657c-.053-.05-.107-.1-.161-.146a37.5,37.5,0,0,0-12.906-7.959c-.271-.1-.536-.2-.806-.294-.1-.036-.208-.064-.313-.1a37.309,37.309,0,0,0-8.886-1.767c-.051,0-.1,0-.155-.008-.578-.043-1.159-.073-1.745-.088-.014,0-.026,0-.037,0-.307-.008-.609,0-.913,0s-.6-.008-.911,0l-.04,0c-.583.014-1.167.045-1.745.088-.05.005-.1.005-.152.008a37.258,37.258,0,0,0-8.886,1.767c-.1.034-.208.062-.313.1-.273.09-.538.195-.806.294a37.478,37.478,0,0,0-12.906,7.959c-.054.051-.11.1-.161.146-.22.206-.429.429-.643.643s-.431.42-.64.64c-.05.05-.1.1-.144.158-8.559,9.1-10.806,22.32-10.369,34.389.22,6.021,1.858,11.792,2.337,17.713.564,6.992-.05,14.242,2.712,20.893,2.675,6.439,7.316,9.769,13.183,13.546,14.756,9.506,35.192,6.132,46.734-6.884,5.565-6.278,6.512-12.266,7.742-20.276,1.536-10.028,3.38-21.68,2.647-32.723" transform="translate(-261.339 -597.153)" fill="#ffcda5"/>
            <path id="Trazado_132030" data-name="Trazado 132030" d="M366.344,763.293s10.465-1.334,10.465-.953-3.26,5.331-6.005,4.186a12.577,12.577,0,0,1-4.46-3.233" transform="translate(-279.314 -644.822)" fill="#dfa57a"/>
            <path id="Trazado_132031" data-name="Trazado 132031" d="M381.336,729.816a38.934,38.934,0,0,1-3.967,3.016.293.293,0,0,0,.226.533,7,7,0,0,0,4.28-3.135c.217-.342-.256-.671-.538-.414" transform="translate(-283.065 -633.611)" fill="#a87449"/>
            <path id="Trazado_132032" data-name="Trazado 132032" d="M274.079,713.7a.056.056,0,0,0,0,.113.056.056,0,0,0,0-.113" transform="translate(-247.517 -628.092)" fill="#a87449"/>
            <path id="Trazado_132033" data-name="Trazado 132033" d="M278.415,728.872a.056.056,0,0,0,0,.113.056.056,0,0,0,0-.113" transform="translate(-249.01 -633.318)" fill="#a87449"/>
            <path id="Trazado_132034" data-name="Trazado 132034" d="M364.527,715.676c.172.195.014.606-.3.485a9.176,9.176,0,0,1-5.351-5.218c-1.015-3.113,1.092-6.135,2.2-8.932a36.36,36.36,0,0,0,2.487-12.359c.147-4.914-1.767-8.317-4.82-12.095-.079-.1.05-.234.146-.141,2.129,2.125,4.215,4.319,5.165,7.183a21.4,21.4,0,0,1,.439,9.459,36.781,36.781,0,0,1-2.96,10.2c-1.091,2.441-2.428,5.038-.815,7.575.975,1.531,2.63,2.489,3.809,3.842" transform="translate(-276.651 -615.584)" fill="#a87449"/>
            <path id="Trazado_132035" data-name="Trazado 132035" d="M389.428,706.784c-.408,1.176,1.359,3.747,2.044,4.508,4.026,4.462,11.962,1.581,14.948-3.358,1.173-1.943.775-2.331-.119-4.59a8.6,8.6,0,0,0-7.764-2.162c-4.485,1.164-5.754.538-6.744,2.264a25.729,25.729,0,0,1-2.365,3.337" transform="translate(-287.244 -623.696)" fill="#fff"/>
          </g>
        </g>
        <g id="Grupo_58551" data-name="Grupo 58551" transform="translate(335.161 660.006)">
          <g id="Grupo_58550" data-name="Grupo 58550" transform="translate(0)" clip-path="url(#clip-path-7)">
            <path id="Trazado_132037" data-name="Trazado 132037" d="M402.413,703.622c0,4.44-3.11,8.041-6.944,8.041s-6.944-3.6-6.944-8.041,3.109-8.037,6.944-8.037,6.944,3.6,6.944,8.037" transform="translate(-389.078 -698.744)" fill="#0d64aa"/>
            <path id="Trazado_132038" data-name="Trazado 132038" d="M401.194,705.81a3.67,3.67,0,1,1-3.648-4.087,3.889,3.889,0,0,1,3.648,4.087" transform="translate(-390.93 -700.858)"/>
            <g id="Grupo_58546" data-name="Grupo 58546" transform="translate(-0.059 1.263)" opacity="0.21">
              <g id="Grupo_58545" data-name="Grupo 58545">
                <g id="Grupo_58544" data-name="Grupo 58544" clip-path="url(#clip-path-8)">
                  <path id="Trazado_132039" data-name="Trazado 132039" d="M389.28,707.783s.127.758.507.711,4.356-4.663,9.78-4.1,7.567,2,7.778,1.765-.806-2.8-.806-2.8l-9.857-1.026-4.544,2.669Z" transform="translate(-389.279 -702.328)" fill="#231f20"/>
                </g>
              </g>
            </g>
            <g id="Grupo_58549" data-name="Grupo 58549" transform="translate(7.655 4.666)" opacity="0.66">
              <g id="Grupo_58548" data-name="Grupo 58548">
                <g id="Grupo_58547" data-name="Grupo 58547" clip-path="url(#clip-path-9)">
                  <path id="Trazado_132040" data-name="Trazado 132040" d="M407.3,708.14s-6.706-1.139-6.23-.333,5.089,3.665,5.754,3.425,1.725-2.895.476-3.092" transform="translate(-401.046 -707.52)" fill="#fff"/>
                </g>
              </g>
            </g>
          </g>
        </g>
        <g id="Grupo_58553" data-name="Grupo 58553" transform="translate(233.037 583.115)">
          <g id="Grupo_58552" data-name="Grupo 58552" clip-path="url(#clip-path)">
            <path id="Trazado_132042" data-name="Trazado 132042" d="M407.306,705.077c-2.966-2.151-6.727-3.919-12.038-2.264-3.391,1.057-4.417,2.909-6.047,4.592-.132.138-.538.065-.547-.073-.175-2.67,3.33-7.445,8.672-8.125,5.531-.7,10.135,3.022,10.327,5.819.006.107-.262.124-.366.05" transform="translate(-287.003 -623.071)" fill="#763105"/>
            <path id="Trazado_132043" data-name="Trazado 132043" d="M389,700.228c1.006-3.819,5.686-5.737,9.278-4.651a.312.312,0,0,1-.115.606,9.777,9.777,0,0,0-5.083.722,12.041,12.041,0,0,0-3.952,3.383.071.071,0,0,1-.127-.06" transform="translate(-287.116 -621.746)" fill="#bf875c"/>
            <path id="Trazado_132044" data-name="Trazado 132044" d="M409.814,700.536s6.515.717,8.781-3.264c0,0,.837,4.981-4.1,6.27Z" transform="translate(-294.286 -622.434)" fill="#763105"/>
            <path id="Trazado_132045" data-name="Trazado 132045" d="M345.286,706.784c.409,1.176-1.358,3.747-2.043,4.508-4.026,4.462-11.962,1.581-14.948-3.358-1.173-1.943-.775-2.331.119-4.59a8.6,8.6,0,0,1,7.767-2.162c4.483,1.164,5.751.538,6.741,2.264a26.161,26.161,0,0,0,2.365,3.337" transform="translate(-265.958 -623.696)" fill="#fff"/>
          </g>
        </g>
        <g id="Grupo_58561" data-name="Grupo 58561" transform="translate(294.202 660.006)">
          <g id="Grupo_58560" data-name="Grupo 58560" clip-path="url(#clip-path-11)">
            <path id="Trazado_132047" data-name="Trazado 132047" d="M334.347,703.622c0,4.44,3.109,8.041,6.944,8.041s6.944-3.6,6.944-8.041-3.107-8.037-6.944-8.037-6.944,3.6-6.944,8.037" transform="translate(-329.458 -698.744)" fill="#0d64aa"/>
            <path id="Trazado_132048" data-name="Trazado 132048" d="M339.032,705.81a3.67,3.67,0,1,0,3.645-4.087,3.886,3.886,0,0,0-3.645,4.087" transform="translate(-331.072 -700.858)"/>
            <g id="Grupo_58556" data-name="Grupo 58556" transform="translate(0.187 1.263)" opacity="0.21">
              <g id="Grupo_58555" data-name="Grupo 58555">
                <g id="Grupo_58554" data-name="Grupo 58554" clip-path="url(#clip-path-8)">
                  <path id="Trazado_132049" data-name="Trazado 132049" d="M345.27,707.783s-.127.758-.507.711-4.356-4.663-9.78-4.1-7.567,2-7.781,1.765.809-2.8.809-2.8l9.853-1.026,4.548,2.669Z" transform="translate(-327.175 -702.328)" fill="#231f20"/>
                </g>
              </g>
            </g>
            <g id="Grupo_58559" data-name="Grupo 58559" transform="translate(3.733 4.666)" opacity="0.66">
              <g id="Grupo_58558" data-name="Grupo 58558">
                <g id="Grupo_58557" data-name="Grupo 58557" clip-path="url(#clip-path-13)">
                  <path id="Trazado_132050" data-name="Trazado 132050" d="M333.165,708.14s6.707-1.139,6.231-.333-5.089,3.665-5.757,3.425-1.723-2.895-.474-3.092" transform="translate(-332.584 -707.52)" fill="#fff"/>
                </g>
              </g>
            </g>
          </g>
        </g>
        <g id="Grupo_58575" data-name="Grupo 58575" transform="translate(233.037 583.115)">
          <g id="Grupo_58574" data-name="Grupo 58574" clip-path="url(#clip-path)">
            <path id="Trazado_132052" data-name="Trazado 132052" d="M326.767,705.077c2.966-2.151,6.727-3.919,12.041-2.264,3.389,1.057,4.415,2.909,6.044,4.592.132.138.538.065.549-.073.172-2.67-3.329-7.445-8.674-8.125-5.531-.7-10.135,3.022-10.324,5.819-.009.107.26.124.364.05" transform="translate(-265.557 -623.071)" fill="#763105"/>
            <path id="Trazado_132053" data-name="Trazado 132053" d="M350.073,700.228c-1.006-3.819-5.686-5.737-9.278-4.651a.312.312,0,0,0,.115.606A9.79,9.79,0,0,1,346,696.9a12.058,12.058,0,0,1,3.95,3.383.071.071,0,0,0,.127-.06" transform="translate(-270.444 -621.746)" fill="#bf875c"/>
            <path id="Trazado_132054" data-name="Trazado 132054" d="M329.6,700.536s-6.515.717-8.781-3.264c0,0-.838,4.981,4.1,6.27Z" transform="translate(-263.615 -622.434)" fill="#763105"/>
            <path id="Trazado_132055" data-name="Trazado 132055" d="M362.49,753.273a31.268,31.268,0,0,1,8.3-1.793c2.416-.265,4.739.4,7.051-.3a.641.641,0,0,0,.119-1.094c-4.353-2.923-12.188-.555-16.162,2.055-.648.429.017,1.4.69,1.128" transform="translate(-277.658 -640.162)" fill="#a87449"/>
            <path id="Trazado_132056" data-name="Trazado 132056" d="M347.036,685.735a.914.914,0,0,0-.243-.719c-3.8-5.117-13.289-4.829-18.6-3.126a28.785,28.785,0,0,0-5.63,2.622c-.434.248-2.647,1.931-1.9,2.594.214.189,1.243-.234,1.494-.29a48.3,48.3,0,0,1,5.142-.849c4.186-.515,8.776-.97,12.923.031.967.234,6.518,1.04,6.811-.262" transform="translate(-263.529 -616.753)" fill="#763105"/>
            <path id="Trazado_132057" data-name="Trazado 132057" d="M381.65,685.735a.9.9,0,0,1,.243-.719c3.794-5.117,13.29-4.829,18.6-3.126a28.769,28.769,0,0,1,5.63,2.622c.431.248,2.647,1.931,1.9,2.594-.214.189-1.244-.234-1.494-.29a48.239,48.239,0,0,0-5.145-.849c-4.184-.515-8.774-.97-12.923.031-.964.234-6.515,1.04-6.809-.262" transform="translate(-284.582 -616.753)" fill="#763105"/>
            <path id="Trazado_132058" data-name="Trazado 132058" d="M399.983,620.684c-1.821,7.167-3.448,14.6,3.783,19.312,10.222,5.509,9.608,8.122,9.027,14.333s6.87,10.724,8.432,15.914-2.137,7.578-2.137,7.578,8.956-.265,6.845-9.563-6.061-15.98-1.773-22.472-8.787-8.773-11.762-14.071c-1.79-3.186-3.225-6.566-4.928-9.8-.682-1.3-5.354-10.526-6.341-5.939-.327,1.533-.741,3.115-1.147,4.708" transform="translate(-290.366 -593.997)" fill="#763105"/>
            <g id="Grupo_58564" data-name="Grupo 58564" transform="translate(52.821 33.472)" opacity="0.46">
              <g id="Grupo_58563" data-name="Grupo 58563">
                <g id="Grupo_58562" data-name="Grupo 58562" clip-path="url(#clip-path-15)">
                  <path id="Trazado_132059" data-name="Trazado 132059" d="M317.028,689.581s-5.455-22.1,10.15-32.773c0,0,6.047-6.2,6.882-13.69s19.489-8.052,19.489-8.052-10.845-4.773-21.93,7.736-23.07,27.208-14.59,46.779" transform="translate(-314.163 -634.173)" fill="#be8053"/>
                </g>
              </g>
            </g>
            <g id="Grupo_58567" data-name="Grupo 58567" transform="translate(87.92 30.182)" opacity="0.46">
              <g id="Grupo_58566" data-name="Grupo 58566">
                <g id="Grupo_58565" data-name="Grupo 58565" clip-path="url(#clip-path-16)">
                  <path id="Trazado_132060" data-name="Trazado 132060" d="M367.7,633.488a6.169,6.169,0,0,1,1.655-3.27,3.673,3.673,0,0,1,4.443-.544,4.406,4.406,0,0,1,1.368,4.689,11.206,11.206,0,0,1-1.794,3.614,22.332,22.332,0,0,0-1.618,2.563,2.094,2.094,0,0,0-.262,1.618c.113.158-.059-.195-.2-.254s.082.02.448,0c.685-.008,2.154-.239,3.467-.169,2.608.113,6.233,1.181,7.719,4.725a6,6,0,0,1-.553,5.241,8.92,8.92,0,0,1-1.331,1.717,14.739,14.739,0,0,1-1.187,1.027c-.1.062-.071.081-.048-.212a1.007,1.007,0,0,0-.381-.832c-.24-.065.468.333.84.485.9.412,1.993.7,3.121,1.147a9.132,9.132,0,0,1,3.185,2.083,3.724,3.724,0,0,1,1.162,3.5l-.279-.02A3.387,3.387,0,0,0,386,657.843a7.743,7.743,0,0,0-2.991-1.375c-1.08-.288-2.2-.482-3.293-.826a5.329,5.329,0,0,1-1.61-.724,1.257,1.257,0,0,1,.014-1.79,13.449,13.449,0,0,0,2.1-2.6,3.453,3.453,0,0,0,.271-3.05c-.882-2.01-3.239-2.895-5.4-2.926-1.108-.079-2.2.1-3.372.1a3.6,3.6,0,0,1-1.762-.4,2.207,2.207,0,0,1-1.052-1.514c-.462-2.529,1.385-4.485,2.734-6.152a9.394,9.394,0,0,0,1.717-2.813,2.694,2.694,0,0,0-.49-2.941,2.578,2.578,0,0,0-2.963.138,6.931,6.931,0,0,0-1.948,2.639Z" transform="translate(-367.702 -629.153)" fill="#be8053"/>
                </g>
              </g>
            </g>
            <g id="Grupo_58570" data-name="Grupo 58570" transform="translate(49.502 32.756)" opacity="0.46">
              <g id="Grupo_58569" data-name="Grupo 58569">
                <g id="Grupo_58568" data-name="Grupo 58568" clip-path="url(#clip-path-17)">
                  <path id="Trazado_132061" data-name="Trazado 132061" d="M344.762,633.609a24.086,24.086,0,0,0-7.108,1.35,3.5,3.5,0,0,0-2.207,1.412,5.187,5.187,0,0,0-.513,2.538c-.056,4.246,2.346,8.894,1.7,14.95A10.266,10.266,0,0,1,334.9,658.4a6.485,6.485,0,0,1-4.928,2.74,14.4,14.4,0,0,1-4.331-.631l-3.462-.86a16.67,16.67,0,0,0-6.741-.3,9.944,9.944,0,0,0-6.092,3.135l-.245-.14a10.124,10.124,0,0,1,5.906-4.415,17.792,17.792,0,0,1,7.443-.443c1.238.149,2.464.372,3.682.614a13.141,13.141,0,0,0,3.612.4c2.515-.107,3.874-2.706,4.1-5.037.691-4.869-1.537-9.687-1.122-14.742a6.409,6.409,0,0,1,1.257-3.564,5.505,5.505,0,0,1,3.377-1.661,21.35,21.35,0,0,1,7.449-.169Z" transform="translate(-309.099 -633.081)" fill="#be8053"/>
                </g>
              </g>
            </g>
            <g id="Grupo_58573" data-name="Grupo 58573" transform="translate(81.351 31.217)" opacity="0.46">
              <g id="Grupo_58572" data-name="Grupo 58572">
                <g id="Grupo_58571" data-name="Grupo 58571" clip-path="url(#clip-path-18)">
                  <path id="Trazado_132062" data-name="Trazado 132062" d="M358.536,630.732c2.842,2.9,4.1,7.3,3.958,11.429a29.411,29.411,0,0,1-.781,6.086c-.218.984-.511,1.94-.79,2.887a6.092,6.092,0,0,0-.428,1.8c.02.028-.1-.2-.073-.119a3.237,3.237,0,0,0,.614.513,11.815,11.815,0,0,0,2.013,1.108,9.893,9.893,0,0,0,2.222.7,6.884,6.884,0,0,1,2.027.547,3.36,3.36,0,0,1,1.891,2.653,20.037,20.037,0,0,1-.372,6.354c-.7,2.091-2.247,4.15-4.384,4.471l-.109-.26a5.708,5.708,0,0,0,3.031-4.451,18.574,18.574,0,0,0-.307-5.669c-.108-.967-1.1-1.136-2.053-1.2a12.3,12.3,0,0,1-5.486-1.979,3.346,3.346,0,0,1-1.816-2.4,7.741,7.741,0,0,1,.615-2.915q.452-1.361.842-2.746a34.709,34.709,0,0,0,1.134-5.61,17.927,17.927,0,0,0-1.988-11.057Z" transform="translate(-357.682 -630.732)" fill="#be8053"/>
                </g>
              </g>
            </g>
            <path id="Trazado_132063" data-name="Trazado 132063" d="M353.78,628.763s9.32-11.852-2.605-12.844c-4.668-.384-10.222-.637-11.979,4.237s-4.136,19.647-5.616,21.088,13.053-14.057,20.2-12.481" transform="translate(-267.993 -594.35)" fill="#763105"/>
          </g>
        </g>
        <g id="Grupo_58577" data-name="Grupo 58577" transform="translate(279.405 603.861)">
          <g id="Grupo_58576" data-name="Grupo 58576" clip-path="url(#clip-path-19)">
            <rect id="Rectángulo_31229" data-name="Rectángulo 31229" width="77.811" height="54.698" transform="translate(-9.757 67.852) rotate(-82.731)" fill="url(#linear-gradient-2)"/>
          </g>
        </g>
        <g id="Grupo_58585" data-name="Grupo 58585" transform="translate(233.037 583.115)">
          <g id="Grupo_58584" data-name="Grupo 58584" clip-path="url(#clip-path)">
            <path id="Trazado_132066" data-name="Trazado 132066" d="M364.448,626.857s5.77-13.041,8.488-14.719,5.915-2.557,7.913-1.438,5.675,2.8,4.875,7.273a51.21,51.21,0,0,1-3.437,10.149c-1.748,4.973-8.328-4.2-17.839-1.266" transform="translate(-278.661 -592.444)" fill="#763105"/>
            <g id="Grupo_58580" data-name="Grupo 58580" transform="translate(90.603 34.112)" opacity="0.46">
              <g id="Grupo_58579" data-name="Grupo 58579">
                <g id="Grupo_58578" data-name="Grupo 58578" clip-path="url(#clip-path-21)">
                  <path id="Trazado_132067" data-name="Trazado 132067" d="M401.875,653.141a7.442,7.442,0,0,0-1.4-3.617,9.152,9.152,0,0,0-4.705-3.107,24.368,24.368,0,0,0-2.966-.758,36.93,36.93,0,0,0-6.05-.718c-2.117-.108-3.862.135-4.99.113a5.228,5.228,0,0,1-2.148-.392c-.161-.045-.319.017-.448-.369a4.076,4.076,0,0,1,.014-1.734,23.779,23.779,0,0,1,1.094-4.612l.984-2.746-2.244-.037c-2.348-.037-4.708-.017-7.093.115l-.127.561,6.295,1.39a25.088,25.088,0,0,0-2,4.342c-.575,1.579-.993,3.64.163,5.275a7.008,7.008,0,0,0,4.739,2.664c1.8.3,3.581.228,5.3.408a31.737,31.737,0,0,1,5.108.914c1.579.5,3.575.871,4.415,1.919.778,1.1.04,2.924-.38,4.531l-1.348,4.945-.846,3.1a1.242,1.242,0,0,1,.327.023c.07.02.144.028.214.048,0,0,.009,0,.062,0l.3.026c.223.017.448.031.674.042.532.034,1.069.062,1.6.119a6.321,6.321,0,0,1,2.517.64l.756-2.5c.5-1.708,1.046-3.4,1.449-5.134.217-.95.431-1.514.651-2.859a9.8,9.8,0,0,0,.082-2.6" transform="translate(-371.796 -635.148)" fill="#be8053"/>
                </g>
              </g>
            </g>
            <g id="Grupo_58583" data-name="Grupo 58583" transform="translate(111.322 68.571)" opacity="0.46">
              <g id="Grupo_58582" data-name="Grupo 58582">
                <g id="Grupo_58581" data-name="Grupo 58581" clip-path="url(#clip-path-22)">
                  <path id="Trazado_132068" data-name="Trazado 132068" d="M421.345,695.024a4.8,4.8,0,0,0-.838-1.9,5,5,0,0,0-1.815-1.508,8.177,8.177,0,0,0-2.684-.719,9.633,9.633,0,0,1-1.114-.206,10.527,10.527,0,0,1-5.424-2.983,1.256,1.256,0,0,1-1.02.485c-1.689-.115-3.375-.262-5.053-.479a3.342,3.342,0,0,0,.068.369,6.37,6.37,0,0,0,1.381,2.411A14.165,14.165,0,0,0,414.438,695a11.013,11.013,0,0,1,2.475.282c.623.212.665,1.052.7,1.892a18.688,18.688,0,0,1-.707,4.971,25.165,25.165,0,0,0-.891,5.119,8.076,8.076,0,0,0,1.32,5.077l.484-.33a7.712,7.712,0,0,1,.11-4.674,38.745,38.745,0,0,1,1.852-4.52,17.437,17.437,0,0,0,1.619-5.743,7.142,7.142,0,0,0-.059-2.055" transform="translate(-403.398 -687.712)" fill="#be8053"/>
                </g>
              </g>
            </g>
          </g>
        </g>
        <g id="Grupo_58587" data-name="Grupo 58587" transform="translate(322.248 598.855)">
          <g id="Grupo_58586" data-name="Grupo 58586" transform="translate(0 0)" clip-path="url(#clip-path-23)">
            <rect id="Rectángulo_31232" data-name="Rectángulo 31232" width="110.107" height="84.457" transform="translate(-34.916 83.653) rotate(-67.345)" fill="url(#linear-gradient-3)"/>
          </g>
        </g>
        <g id="Grupo_58589" data-name="Grupo 58589" transform="translate(233.037 583.115)">
          <g id="Grupo_58588" data-name="Grupo 58588" clip-path="url(#clip-path)">
            <path id="Trazado_132071" data-name="Trazado 132071" d="M400.73,861.834c-3.073-28.169-21.823-36.8-21.823-36.8-5.853,4.1-33.786,7.561-43.715,8.517-9.929-.956-37.859-4.42-43.712-8.517,0,0-18.751,8.627-21.823,36.8-.02.2-.034.383-.054.581H400.784c-.02-.2-.031-.381-.054-.581" transform="translate(-245.994 -666.44)" fill="#890aa3"/>
            <path id="Trazado_132072" data-name="Trazado 132072" d="M402.431,872.477c-3.284-34.036-23.329-44.459-23.329-44.459-6.259,4.951-36.123,9.137-46.74,10.291-10.614-1.153-40.476-5.34-46.734-10.291,0,0-20.047,10.423-23.332,44.459-.023.243-.037.462-.056.7h140.25c-.023-.24-.037-.46-.06-.7" transform="translate(-243.458 -667.466)" fill="#ecf8f8"/>
            <path id="Trazado_132073" data-name="Trazado 132073" d="M365.537,629.562a6.183,6.183,0,0,1,1.655-3.273,3.678,3.678,0,0,1,4.443-.541A4.4,4.4,0,0,1,373,630.436a11.205,11.205,0,0,1-1.793,3.614,22.182,22.182,0,0,0-1.619,2.563,2.1,2.1,0,0,0-.262,1.619c.113.157-.059-.195-.2-.254s.082.02.448,0c.685-.009,2.154-.24,3.468-.169,2.607.113,6.23,1.181,7.716,4.725a5.994,5.994,0,0,1-.55,5.241,8.793,8.793,0,0,1-1.331,1.714,14.262,14.262,0,0,1-1.187,1.029c-.1.062-.071.082-.048-.212a1.016,1.016,0,0,0-.381-.835c-.239-.064.468.333.84.488.9.412,1.993.705,3.121,1.148a9.156,9.156,0,0,1,3.186,2.083,3.724,3.724,0,0,1,1.161,3.5l-.279-.02a3.387,3.387,0,0,0-1.467-2.751,7.742,7.742,0,0,0-2.991-1.376c-1.08-.287-2.2-.484-3.293-.826a5.311,5.311,0,0,1-1.61-.724,1.257,1.257,0,0,1,.014-1.79,13.607,13.607,0,0,0,2.1-2.6,3.443,3.443,0,0,0,.268-3.05c-.88-2.01-3.237-2.895-5.393-2.926-1.108-.079-2.2.1-3.372.1a3.667,3.667,0,0,1-1.762-.4,2.207,2.207,0,0,1-1.052-1.514c-.462-2.529,1.385-4.485,2.735-6.155a9.42,9.42,0,0,0,1.717-2.81,2.692,2.692,0,0,0-.491-2.94,2.58,2.58,0,0,0-2.963.135,6.961,6.961,0,0,0-1.948,2.641Z" transform="translate(-279.036 -597.619)" fill="#763105"/>
            <path id="Trazado_132074" data-name="Trazado 132074" d="M342.6,629.681a24.085,24.085,0,0,0-7.1,1.35,3.482,3.482,0,0,0-2.208,1.413,5.191,5.191,0,0,0-.516,2.537c-.053,4.246,2.349,8.895,1.7,14.95a10.3,10.3,0,0,1-1.734,4.544,6.491,6.491,0,0,1-4.931,2.74,14.32,14.32,0,0,1-4.331-.634l-3.462-.857a16.644,16.644,0,0,0-6.738-.307,9.944,9.944,0,0,0-6.095,3.138l-.243-.141a10.128,10.128,0,0,1,5.9-4.418,17.8,17.8,0,0,1,7.443-.44c1.24.147,2.464.37,3.685.612a13.02,13.02,0,0,0,3.608.406c2.515-.11,3.874-2.709,4.105-5.041.688-4.866-1.539-9.687-1.125-14.742a6.408,6.408,0,0,1,1.26-3.56,5.491,5.491,0,0,1,3.374-1.663,21.32,21.32,0,0,1,7.449-.167Z" transform="translate(-258.852 -598.972)" fill="#763105"/>
            <path id="Trazado_132075" data-name="Trazado 132075" d="M356.371,626.806c2.842,2.892,4.1,7.3,3.958,11.429a29.635,29.635,0,0,1-.781,6.087c-.217.984-.511,1.939-.789,2.886a6.117,6.117,0,0,0-.429,1.8c.02.028-.1-.2-.073-.118a3.336,3.336,0,0,0,.615.513,11.735,11.735,0,0,0,2.013,1.105,9.606,9.606,0,0,0,2.222.7,7.053,7.053,0,0,1,2.027.547,3.531,3.531,0,0,1,1.364,1.2,3.465,3.465,0,0,1,.525,1.461,19.979,19.979,0,0,1-.369,6.354c-.7,2.092-2.247,4.15-4.384,4.471l-.11-.259a5.713,5.713,0,0,0,3.031-4.452,18.632,18.632,0,0,0-.307-5.669c-.107-.97-1.1-1.136-2.053-1.2a12.341,12.341,0,0,1-5.488-1.979,3.35,3.35,0,0,1-1.813-2.4,7.673,7.673,0,0,1,.615-2.915q.452-1.366.843-2.746a34.77,34.77,0,0,0,1.133-5.61,17.914,17.914,0,0,0-1.99-11.06Z" transform="translate(-275.585 -598.163)" fill="#763105"/>
            <path id="Trazado_132076" data-name="Trazado 132076" d="M376.985,628.033a11.322,11.322,0,0,1,5.45-3.944,5.959,5.959,0,0,1,1.968-.338,4.3,4.3,0,0,1,2.359.741,9.873,9.873,0,0,1,2.593,2.94c2.6,4.342,2.529,9.036,3.259,12.83a23.163,23.163,0,0,0,.569,2.76c.1.412.206.44-.028.217-.237-.18-.389-.121-.132-.087.42.065,1.821-.2,2.907-.248a18.038,18.038,0,0,1,3.4.051,29.075,29.075,0,0,1,6.564,1.339,22.665,22.665,0,0,1,5.776,3.135l-.118.257a28.8,28.8,0,0,0-12.207-2.546,46.1,46.1,0,0,0-6.281.662,2.437,2.437,0,0,1-1.649-.488,3.006,3.006,0,0,1-.854-1.477,25.238,25.238,0,0,1-.724-3.11c-.688-4.164-.564-8.517-2.453-12.269a8.215,8.215,0,0,0-1.8-2.469,3.317,3.317,0,0,0-2.865-.437,11.933,11.933,0,0,0-5.548,2.692Z" transform="translate(-282.979 -597.111)" fill="#763105"/>
          </g>
        </g>
      </g>
    </g>
  </g>
</svg>
