<svg xmlns="http://www.w3.org/2000/svg" xmlns:xlink="http://www.w3.org/1999/xlink" width="183.306" height="199.734" viewBox="0 0 183.306 199.734">
  <defs>
    <clipPath id="clip-path">
      <path id="Trazado_132152" data-name="Trazado 132152" d="M1108.505,720.507c0,55.152,39.733,93.125,90.349,93.125s91.568-40.423,91.568-95.581S1249.474,613.9,1198.854,613.9s-90.349,51.457-90.349,106.609" transform="translate(-1108.505 -613.898)" fill="none"/>
    </clipPath>
    <clipPath id="clip-path-2">
      <rect id="Rectángulo_31233" data-name="Rectángulo 31233" width="52.626" height="45.143" fill="none"/>
    </clipPath>
    <clipPath id="clip-path-3">
      <path id="Trazado_132153" data-name="Trazado 132153" d="M1223.405,760.074c-5.5,0-14.416-.628-14.416-.628s1.663,10.587,14.416,10.587,14.416-10.587,14.416-10.587-8.914.628-14.416.628" transform="translate(-1208.989 -759.446)" fill="none"/>
    </clipPath>
    <linearGradient id="linear-gradient" x1="-14.935" y1="22.684" x2="-14.839" y2="22.684" gradientUnits="objectBoundingBox">
      <stop offset="0" stop-color="#f8ba86"/>
      <stop offset="0.285" stop-color="#f7b583"/>
      <stop offset="0.579" stop-color="#f5a97b"/>
      <stop offset="0.876" stop-color="#f3946e"/>
      <stop offset="1" stop-color="#f28a67"/>
    </linearGradient>
    <clipPath id="clip-path-5">
      <rect id="Rectángulo_31235" data-name="Rectángulo 31235" width="1.503" height="1.964" fill="none"/>
    </clipPath>
  </defs>
  <g id="Grupo_58833" data-name="Grupo 58833" transform="translate(4492.092 -1967.083)">
    <g id="Grupo_58795" data-name="Grupo 58795" transform="translate(-5599.284 1353.186)">
      <path id="Trazado_132118" data-name="Trazado 132118" d="M1290.5,726.177a91.653,91.653,0,1,1-91.652-91.655,91.653,91.653,0,0,1,91.652,91.655" transform="translate(0 -4.198)" fill="#cbc5e0"/>
      <g id="Grupo_58599" data-name="Grupo 58599" transform="translate(1108.238 613.898)">
        <g id="Grupo_58598" data-name="Grupo 58598" transform="translate(0)" clip-path="url(#clip-path)">
          <path id="Trazado_132119" data-name="Trazado 132119" d="M1260.254,704.029c7.248-4.228,6.854-9.308,2-11.655s-5.863-3.574-.078-12.452-2.682-8.045-7.1-12.594-.936-8.14,0-13.469-6.013-8.42-11.325-10.535-12.647-9.425-18.568-11.75c-5.546-2.18-12.583,1.026-15.271,1.786-2.686-.76-9.721-3.966-15.269-1.786-5.924,2.325-6.016,7.824-11.325,9.94s-17.9,7.62-16.961,12.949,4.423,8.92,0,13.469-12.885,3.716-7.1,12.594,4.776,10.1-.078,12.451-5.248,7.431,2,11.658-5.169,5.717-1.922,10.26,10.241,13.338,45.8,12.066a14.108,14.108,0,0,1,9.719,0c35.555,1.272,44.159-8.128,47.406-12.669s-9.171-6.033-1.922-10.264" transform="translate(-1118.095 -617.344)" fill="#512a3b"/>
          <path id="Trazado_132120" data-name="Trazado 132120" d="M1278.769,815.323c-6.047-8.908-29.477-13.267-38.776-15.12-2.493-.5-5.128-.646-6.953-1.811-1.531-.978-1.782-2.629-1.97-5.161-.322-4.337.2-15.109,0-17.828h-48.007c-.2,2.718.319,7.351,0,11.689-.187,2.531-.432,10.319-1.967,11.3-1.825,1.165-4.462,1.313-6.955,1.811-9.3,1.852-32.73,6.211-38.777,15.12-6.332,9.328-7.674,25.25-7.674,25.25s32.124,13.31,79.377,13.31,79.376-13.31,79.376-13.31-1.341-15.922-7.674-25.25" transform="translate(-1112.41 -646.774)" fill="#ffc08d"/>
          <path id="Trazado_132121" data-name="Trazado 132121" d="M1197.095,787.093c-.092,1.246-.2,3.773-.469,6.125,21.419,6.7,42.15-4.887,48.454-10.744.036-1.774.064-3.442.069-4.767,0-.788-.011-1.445-.028-1.9,0-.143-.008-.293-.019-.408h-48.007c-.2,2.719.319,7.352,0,11.691" transform="translate(-1126.443 -646.773)" fill="#ffac6a"/>
          <path id="Trazado_132122" data-name="Trazado 132122" d="M1175.626,715.6s-5.318-7.573-12.614-2.377c-3.305,2.358-6.1,11.264-.916,20.128,5.072,8.668,14,9.816,16.866,5.381Z" transform="translate(-1118.83 -633.746)" fill="#ffc08d"/>
          <path id="Trazado_132123" data-name="Trazado 132123" d="M1175.63,715.6s-5.318-7.573-12.614-2.377c-1.919,1.371-3.655,4.954-3.766,9.447.123-.626,1.528-7.24,6.869-8.411,5.609-1.23,9.646,5.642,9.646,5.463,0-.045.065-.858.162-2.056Z" transform="translate(-1118.835 -633.746)" fill="#ffac6a"/>
          <path id="Trazado_132124" data-name="Trazado 132124" d="M1164.25,725.974c.554-3.516,2.7-5.114,5.505-4.94s4.44,3.948,4.563,7.651c0,0-3.459-.444-3.56,2.962-.089,3.038,2.9,4.1,4.144,3.379,0,0-.229,1.7-3.135,1.9-3.5.243-8.489-5.678-7.517-10.953" transform="translate(-1119.827 -635.704)" fill="#ffac6a"/>
          <path id="Trazado_132125" data-name="Trazado 132125" d="M1274.037,715.6s5.317-7.573,12.613-2.377c3.306,2.358,6.1,11.264.917,20.128-5.072,8.668-14,9.816-16.867,5.381Z" transform="translate(-1141.521 -633.746)" fill="#ffc08d"/>
          <path id="Trazado_132126" data-name="Trazado 132126" d="M1289.332,735.3a19.864,19.864,0,0,0,1.3-1.919c5.181-8.864,2.389-17.769-.917-20.128a9.4,9.4,0,0,0-3.97-1.719c4.454,1.115,9.864,10.764,3.59,23.766" transform="translate(-1144.583 -633.772)" fill="#fedabf"/>
          <path id="Trazado_132127" data-name="Trazado 132127" d="M1287.7,725.974c-.554-3.516-2.7-5.114-5.505-4.94s-4.44,3.948-4.564,7.651c0,0,3.46-.444,3.56,2.962.089,3.038-2.9,4.1-4.144,3.379,0,0,.229,1.7,3.136,1.9,3.5.243,8.489-5.678,7.517-10.953" transform="translate(-1142.814 -635.704)" fill="#ffac6a"/>
          <path id="Trazado_132128" data-name="Trazado 132128" d="M1217.545,761.885c-12.393,0-27.267-10.42-31.853-15.866-4.867-5.782-5.569-34.737-6.345-45.031-2.239-29.547,17.1-42.8,38.2-42.8s40.437,13.254,38.2,42.8c-.777,10.294-3.012,39.249-7.88,45.031-4.586,5.446-17.926,15.866-30.319,15.866" transform="translate(-1122.889 -622.913)" fill="#ffc08d"/>
          <path id="Trazado_132129" data-name="Trazado 132129" d="M1247.907,756.96c4.868-5.781,7.1-34.739,7.88-45.031l-8.6,27.672a4.557,4.557,0,0,1-4.974,3.16l-24.627-3.41-24.624,3.41a4.556,4.556,0,0,1-4.974-3.16l-8.6-27.672c.78,10.292,1.481,39.249,6.346,45.031,4.588,5.446,19.463,15.866,31.853,15.866s25.733-10.42,30.318-15.866" transform="translate(-1122.934 -633.853)" fill="#512a3b"/>
          <path id="Trazado_132130" data-name="Trazado 132130" d="M1243.3,667.711s-6.407,7.975-21.111,10.143-29.625-5.074-29.625-5.074-.861,9.1-5.346,13.737-7.908,5.82-8.07,7.863a22.821,22.821,0,0,1,0-13.335c2.188-7.525,7.139-14.952,22.3-15.883s41.848,2.549,41.848,2.549" transform="translate(-1122.686 -624.301)" fill="#ffac6a"/>
          <path id="Trazado_132131" data-name="Trazado 132131" d="M1177.281,690.68c1.073-2.7,5.561-4.239,8.16-10.733a87.756,87.756,0,0,0,4.032-14.408l-6.355-11.208s-8.073,1.88-11.85,9.082c-2.661,5.066-3.245,24.414-1.535,33.627.71,3.84,5.036,14.3,8.931,14.542l-1.1-7.6a63.716,63.716,0,0,1-.287-13.3" transform="translate(-1120.771 -622.128)" fill="#512a3b"/>
          <path id="Trazado_132132" data-name="Trazado 132132" d="M1272.134,692.617c-1.074-2.7-5.561-4.24-8.16-10.733a87.661,87.661,0,0,1-4.032-14.408l8.567-3.627s6.052.393,9.384,7.812c2.24,4.991,3.5,18.1,1.788,27.315-.71,3.84-5.035,14.3-8.93,14.542l1.1-7.6a63.726,63.726,0,0,0,.288-13.3" transform="translate(-1139.331 -624.066)" fill="#512a3b"/>
          <path id="Trazado_132133" data-name="Trazado 132133" d="M1277.861,668.385a2.159,2.159,0,0,1,.735-3.275,10.275,10.275,0,0,1,6.622-.975c3.75.78-1.88,3.6-4.778,4.9a2.152,2.152,0,0,1-2.58-.646" transform="translate(-1142.884 -624.085)" fill="#512a3b"/>
          <path id="Trazado_132134" data-name="Trazado 132134" d="M1282.283,700.851a65.141,65.141,0,0,0-.733-24.062c-3.018-4.259-7.637-5.29-8.687-.945s4.049,10.593,5.575,15.042c1.76,5.133,2.04,16.638-3.63,23.978,3.454-2.2,6.852-10.649,7.475-14.013" transform="translate(-1141.933 -625.938)" fill="#723e55"/>
          <path id="Trazado_132135" data-name="Trazado 132135" d="M1252.106,731.377c.483,2.364,3.661,3.711,7.1,3.01s5.837-3.183,5.354-5.547-3.661-3.711-7.1-3.009-5.837,3.183-5.357,5.546" transform="translate(-1137.724 -636.645)" fill="#ff946b"/>
          <path id="Trazado_132136" data-name="Trazado 132136" d="M1199.385,731.377c-.483,2.364-3.66,3.711-7.1,3.01s-5.837-3.183-5.354-5.547,3.66-3.711,7.1-3.009,5.837,3.183,5.356,5.546" transform="translate(-1124.457 -636.645)" fill="#ff946b"/>
          <path id="Trazado_132137" data-name="Trazado 132137" d="M1258.088,720.035s.713-7.888-7.925-8.517-10.4,8.274-10.412,8.319c0,0,3.088-4.362,9.814-3.873s8.523,4.071,8.523,4.071" transform="translate(-1135.221 -633.763)" fill="#ffac6a"/>
          <path id="Trazado_132138" data-name="Trazado 132138" d="M1239.644,721.432c.226.05,1.221-.609,4.6-1.553a17.571,17.571,0,0,1,8.614-.068,13.085,13.085,0,0,1,4.644,2.169c.626.413,1.246.017.381-1.459-.833-1.425-2.213-2.984-6.427-3.679a12.388,12.388,0,0,0-9.917,2.182c-2.166,1.634-2.414,2.3-1.9,2.408" transform="translate(-1135.153 -634.808)" fill="#422030"/>
          <path id="Trazado_132139" data-name="Trazado 132139" d="M1191.928,720.035s-.712-7.888,7.925-8.517,10.4,8.274,10.412,8.319c0,0-3.088-4.362-9.814-3.873s-8.523,4.071-8.523,4.071" transform="translate(-1125.484 -633.763)" fill="#ffac6a"/>
          <path id="Trazado_132140" data-name="Trazado 132140" d="M1210.233,721.432c-.224.05-1.221-.609-4.6-1.553a17.575,17.575,0,0,0-8.615-.068,13.086,13.086,0,0,0-4.644,2.169c-.626.413-1.246.017-.38-1.459.832-1.425,2.212-2.984,6.426-3.679a12.386,12.386,0,0,1,9.917,2.182c2.166,1.634,2.415,2.3,1.9,2.408" transform="translate(-1125.412 -634.808)" fill="#422030"/>
          <path id="Trazado_132141" data-name="Trazado 132141" d="M1265.352,714.987s-4.429,26.348-6.1,33.937-5.3,11.644-12.675,16.658-14.606,7.866-19.224,7.866c12.393,0,25.733-10.42,30.318-15.866,4.525-5.377,6.774-30.766,7.7-42.583Z" transform="translate(-1132.697 -634.476)" fill="#512a3b"/>
          <path id="Trazado_132142" data-name="Trazado 132142" d="M1252.756,659.5s.392-9.135-10.364-12.82c-8.506-2.915-34.675.7-45.181-3.175-10.482-3.868-15.919,3.848-14.408,14.969,1.606,11.82-.878,2.484,13.111,8.218,14.547,5.966,37.34,4.585,48.275-3.566Z" transform="translate(-1123.578 -619.72)" fill="#512a3b"/>
          <path id="Trazado_132143" data-name="Trazado 132143" d="M1247.885,647.294h0l-.011-.005-.014-.009c-4.689-3.149-20.754-6.385-30.746-9.733,5.387,2.149,12.807,6.1,11.513,13.368-1.646,9.275-29.558.919-34.4,2.506s-1.654,11.622,12.572,14.855c13.756,2.618,30.455.466,39.335-6.153.07-.031.168-.073.26-.109l.3-.126c.648-.276,1.581-.671,2.593-1.1l4.924-2.084.495-.209a13.2,13.2,0,0,0-6.816-11.2" transform="translate(-1125.524 -618.712)" fill="#723e55"/>
          <path id="Trazado_132144" data-name="Trazado 132144" d="M1277.528,654.887a43.014,43.014,0,0,0,1.7-7.721c.478-4.083-2.406-2.563-4.488,1.2s2.792,6.516,2.792,6.516" transform="translate(-1142.238 -620.176)" fill="#512a3b"/>
          <path id="Trazado_132145" data-name="Trazado 132145" d="M1278.769,821.641c-6.047-8.908-29.477-13.267-38.776-15.12-.131-.028-.26-.056-.392-.078-3.772,9.679-17.177,17.344-32.531,17.344s-28.762-7.668-32.535-17.347h.006l-.4.081c-9.3,1.852-32.73,6.211-38.777,15.12-6.332,9.328-7.674,25.25-7.674,25.25s32.124,13.31,79.377,13.31,79.376-13.31,79.376-13.31-1.341-15.922-7.674-25.25" transform="translate(-1112.41 -653.092)" fill="#2e9365"/>
          <path id="Trazado_132146" data-name="Trazado 132146" d="M1251.575,806a42.259,42.259,0,0,1-6.567-1.738H1245c-2.115,6.793-12.726,12.954-25.957,12.954s-23.838-6.161-25.957-12.954l-.017,0a42.438,42.438,0,0,1-6.558,1.733c3.77,9.682,17.177,17.346,32.531,17.346s28.76-7.662,32.535-17.344" transform="translate(-1124.383 -652.648)" fill="#15422d"/>
          <path id="Trazado_132147" data-name="Trazado 132147" d="M1297.186,814.285c-5.284,5.209-8.939,16.179-7.844,29.162,1.1,12.957,2.375,12.868,2.38,12.885,13.19-3.077,27.586-7.844,27.586-7.844s-1.342-15.922-7.674-25.25c-2.534-3.733-8.126-6.667-14.449-8.953" transform="translate(-1145.276 -654.688)" fill="#1c5a3d"/>
          <path id="Trazado_132148" data-name="Trazado 132148" d="M1157.66,843.445c1.1-12.982-2.56-23.95-7.843-29.162-6.324,2.289-11.918,5.22-14.453,8.956-6.332,9.325-7.675,25.25-7.675,25.25s14.4,4.767,27.591,7.844c0-.009,1.282.086,2.38-12.888" transform="translate(-1112.41 -654.688)" fill="#1c5a3d"/>
          <path id="Trazado_132149" data-name="Trazado 132149" d="M1289.794,835.1a51.279,51.279,0,0,0-.449,12.586c1.092,12.96,2.372,12.867,2.377,12.884,2.51-.584,5.061-1.229,7.553-1.891-5.644-3.976-9.459-23.464-9.482-23.579" transform="translate(-1145.277 -658.925)" fill="#15422d"/>
          <path id="Trazado_132150" data-name="Trazado 132150" d="M1162.332,835.1a51.278,51.278,0,0,1,.45,12.586c-1.1,12.96-2.376,12.867-2.378,12.884-2.512-.584-5.064-1.229-7.553-1.891,5.642-3.976,9.459-23.464,9.482-23.579" transform="translate(-1117.532 -658.925)" fill="#15422d"/>
          <g id="Grupo_58597" data-name="Grupo 58597" transform="translate(121.406 152.034)" style="mix-blend-mode: soft-light;isolation: isolate">
            <g id="Grupo_58596" data-name="Grupo 58596">
              <g id="Grupo_58595" data-name="Grupo 58595" clip-path="url(#clip-path-2)">
                <path id="Trazado_132151" data-name="Trazado 132151" d="M1267.116,806.185c-2.158-.43-4.423-.6-6.178-1.394,4.97,2.467,19.574,5.854,29.994,10.288,11.027,4.689,13.843,11.728,15.95,20.172a16.535,16.535,0,0,1-3.535,14.48l.381.2c6.343-1.931,9.838-3.376,9.838-3.376s-1.341-15.922-7.673-25.25c-6.047-8.906-29.478-13.267-38.777-15.12" transform="translate(-1260.94 -804.79)" fill="#def0f7"/>
              </g>
            </g>
          </g>
        </g>
      </g>
      <g id="Grupo_58601" data-name="Grupo 58601" transform="translate(1188.267 729.818)">
        <g id="Grupo_58600" data-name="Grupo 58600" transform="translate(0 0)" clip-path="url(#clip-path-3)">
          <rect id="Rectángulo_31234" data-name="Rectángulo 31234" width="28.832" height="10.588" transform="translate(0 0)" fill="url(#linear-gradient)"/>
        </g>
      </g>
      <g id="Grupo_58606" data-name="Grupo 58606" transform="translate(1108.238 613.898)">
        <g id="Grupo_58605" data-name="Grupo 58605" transform="translate(0)" clip-path="url(#clip-path)">
          <path id="Trazado_132154" data-name="Trazado 132154" d="M1223.792,759.6c-2.615,0-13.159-.428-13.159-.428s1.584,5.712,13.109,5.712,13.108-5.631,13.108-5.631Z" transform="translate(-1129.294 -643.47)" fill="#512a3b"/>
          <path id="Trazado_132155" data-name="Trazado 132155" d="M1224.538,759.752l-9.981.5a4.176,4.176,0,0,1,.081,2.553c1.951,1.176,5.033,2.2,9.9,2.2h.011c4.87,0,7.952-1.008,9.9-2.171a4.141,4.141,0,0,1,.069-2.581Z" transform="translate(-1130.093 -643.588)" fill="#fff"/>
          <path id="Trazado_132156" data-name="Trazado 132156" d="M1238.247,758.323c-.252-.561-1.8.422-3.1.313-2.166-.178-4.784-.732-6.354-.849-2.678-.2-4.376.827-5.542.827s-2.867-1.028-5.544-.827c-1.568.117-4.189.671-6.352.849-1.3.109-2.839-.874-3.1-.313-.17.358.358,2.523,14.995,2.523s15.156-2.162,14.995-2.523" transform="translate(-1128.806 -643.182)" fill="#9a4335"/>
          <path id="Trazado_132157" data-name="Trazado 132157" d="M1225.333,773.843a7.559,7.559,0,0,0,3.348-.8,25.432,25.432,0,0,0,3.423-1.889,18.9,18.9,0,0,1-13.544-.006,25.276,25.276,0,0,0,3.426,1.895,7.54,7.54,0,0,0,3.347.8" transform="translate(-1130.888 -645.901)" fill="#9a4335"/>
          <path id="Trazado_132158" data-name="Trazado 132158" d="M1250.529,696.85c-5.077-.914-11.761.76-11.06,3.392.724,2.716,5.7.394,11.711,1.339,5.522.866,8.83,2.822,10.393,6.868.193.495.682.479.673-.053a10.334,10.334,0,0,0-1.875-6.407c-2.389-3.034-5.468-4.354-9.842-5.139" transform="translate(-1135.153 -630.732)" fill="#512a3b"/>
          <path id="Trazado_132159" data-name="Trazado 132159" d="M1198.343,696.85c5.077-.914,11.761.76,11.059,3.392-.724,2.716-5.695.394-11.711,1.339-5.522.866-8.83,2.822-10.392,6.868-.193.495-.682.479-.674-.053a10.335,10.335,0,0,1,1.875-6.407c2.389-3.034,5.469-4.354,9.843-5.139" transform="translate(-1124.407 -630.732)" fill="#512a3b"/>
          <path id="Trazado_132160" data-name="Trazado 132160" d="M1233.526,737.419c-.93-2.423-4.638-26.826-8.414-26.826s-7.48,24.4-8.411,26.826.279,3.325.279,3.325l1.283-.24c2.09-.738,5.82,1.94,6.849,2.152,1.028-.212,4.759-2.889,6.849-2.152l1.282.24s1.213-.9.282-3.325" transform="translate(-1130.458 -633.581)" fill="#ffac6a"/>
          <g id="Grupo_58604" data-name="Grupo 58604" transform="translate(96.444 102.669)" opacity="0.3">
            <g id="Grupo_58603" data-name="Grupo 58603">
              <g id="Grupo_58602" data-name="Grupo 58602" clip-path="url(#clip-path-5)">
                <path id="Trazado_132161" data-name="Trazado 132161" d="M1231.066,743.583a.938.938,0,0,1-.484,1.165c-.391.115-.819-.221-.948-.752a.944.944,0,0,1,.483-1.168c.394-.115.819.223.948.754" transform="translate(-1229.598 -742.808)" fill="#fff"/>
              </g>
            </g>
          </g>
          <path id="Trazado_132162" data-name="Trazado 132162" d="M1231.712,748.13a4.8,4.8,0,0,0-2.431.3,5.682,5.682,0,0,1-6.872,0,4.8,4.8,0,0,0-2.431-.3c-.037,0-.072.092-.025.1,2.135.19,3.256,1.847,5.245,2.353a2.905,2.905,0,0,0,1.293,0c1.99-.506,3.108-2.163,5.245-2.353.045,0,.011-.092-.025-.1" transform="translate(-1131.187 -641.214)" fill="#512a3b"/>
          <path id="Trazado_132163" data-name="Trazado 132163" d="M1233.517,748.457a7.084,7.084,0,0,0,1.875.081c.875-.087,2.1-1.065.722-1.769a2.59,2.59,0,0,0-2.75.293,6.187,6.187,0,0,1-1.453.967Z" transform="translate(-1133.625 -640.888)" fill="#512a3b"/>
          <path id="Trazado_132164" data-name="Trazado 132164" d="M1219.963,748.457a7.084,7.084,0,0,1-1.875.081c-.875-.087-2.1-1.065-.724-1.769a2.594,2.594,0,0,1,2.753.293,6.191,6.191,0,0,0,1.453.967Z" transform="translate(-1130.539 -640.888)" fill="#512a3b"/>
        </g>
      </g>
    </g>
  </g>
</svg>
