<svg xmlns="http://www.w3.org/2000/svg" width="459.469" height="309.161" viewBox="0 0 459.469 309.161">
  <g id="Grupo_58800" data-name="Grupo 58800" transform="translate(4586.688 9180)">
    <g id="Grupo_58734" data-name="Grupo 58734" transform="translate(-6802.796 -8561.943)">
      <g id="Grupo_57855" data-name="Grupo 57855" transform="translate(2216.108 -597.431)">
        <g id="Grupo_57817" data-name="Grupo 57817" transform="translate(56.847 93.686)">
          <g id="Grupo_57795" data-name="Grupo 57795">
            <g id="Grupo_57794" data-name="Grupo 57794">
              <path id="Trazado_130094" data-name="Trazado 130094" d="M2434.461-300.334s-4.18-3.424-10.745,6.742a139.942,139.942,0,0,0-9.268,16.138s-1.675,2.1-3.068.473-3.081-6.01-5.781-5.528c-2.8.5-4.008,3.444-3.946,7.96s-.165,14.414-.189,15.308c-.023.879-.654,2.112-1.78,1.156s-7.3-9.434-11.151-6.262-1.607,15.723-1.389,17.1-.1,1.922-.773,2.189-2.478-2.778-4.333-5.118-4.417-4.726-6.483-2.71-3.592,11.1,3.594,26.858l3.807,7.082,8.067.376c17.313-.247,24.874-5.515,25.812-8.246s-2.316-4.024-5.224-4.7-6.434-1.006-6.48-1.726.31-1.244,1.647-1.635,13.641-3.739,14.86-8.574-9.086-6.789-10.432-7.4-.5-1.707.282-2.1,9.647-4.846,13.755-6.722,6.253-4.228,5.506-6.973c-.721-2.647-5.4-2.3-7.471-2.859s-.886-2.975-.886-2.975a139.951,139.951,0,0,0,10.62-15.283c6.378-10.283,1.36-12.63,1.36-12.63" transform="translate(-2373.835 300.889)" fill="#ebebeb"/>
            </g>
          </g>
          <g id="Grupo_57798" data-name="Grupo 57798" transform="translate(7.693 9.648)">
            <g id="Grupo_57797" data-name="Grupo 57797">
              <g id="Grupo_57796" data-name="Grupo 57796">
                <path id="Trazado_130095" data-name="Trazado 130095" d="M2395.179-200.519c4.714-7.533,13.317-20.782,20.645-32.2s13.947-21.745,18.7-29.254l5.618-8.9,1.529-2.418.4-.626c.092-.14.144-.209.144-.209s-.038.077-.123.222l-.382.639-1.49,2.444c-1.3,2.12-3.193,5.175-5.552,8.941-4.714,7.533-11.313,17.885-18.638,29.295s-15.954,24.646-20.705,32.155" transform="translate(-2395.179 274.119)" fill="#e0e0e0"/>
              </g>
            </g>
          </g>
          <g id="Grupo_57801" data-name="Grupo 57801" transform="translate(33.871 24.606)">
            <g id="Grupo_57800" data-name="Grupo 57800">
              <g id="Grupo_57799" data-name="Grupo 57799">
                <path id="Trazado_130096" data-name="Trazado 130096" d="M2467.819-232.619a2.617,2.617,0,0,1,.146.563c.08.365.179.9.3,1.554.231,1.316.5,3.141.77,5.161.254,1.993.484,3.795.659,5.173.083.621.154,1.144.21,1.566a2.664,2.664,0,0,1,.055.579,2.556,2.556,0,0,1-.151-.562c-.078-.365-.178-.9-.288-1.556-.218-1.319-.468-3.147-.733-5.167-.268-1.99-.51-3.79-.7-5.167-.087-.621-.159-1.144-.218-1.565A2.61,2.61,0,0,1,2467.819-232.619Z" transform="translate(-2467.813 232.619)" fill="#e0e0e0"/>
              </g>
            </g>
          </g>
          <g id="Grupo_57804" data-name="Grupo 57804" transform="translate(36.733 36.404)">
            <g id="Grupo_57803" data-name="Grupo 57803">
              <g id="Grupo_57802" data-name="Grupo 57802">
                <path id="Trazado_130097" data-name="Trazado 130097" d="M2475.754-196.868c-.012-.068,3.727-.8,8.35-1.628s8.382-1.45,8.395-1.383-3.726.8-8.351,1.628S2475.767-196.8,2475.754-196.868Z" transform="translate(-2475.754 199.884)" fill="#e0e0e0"/>
              </g>
            </g>
          </g>
          <g id="Grupo_57807" data-name="Grupo 57807" transform="translate(24.692 56.428)">
            <g id="Grupo_57806" data-name="Grupo 57806">
              <g id="Grupo_57805" data-name="Grupo 57805">
                <path id="Trazado_130098" data-name="Trazado 130098" d="M2442.346-144.317a2.7,2.7,0,0,1,.593.033l1.6.17c1.354.141,3.226.329,5.3.46s3.954.194,5.315.224l1.613.038a2.688,2.688,0,0,1,.592.043,2.717,2.717,0,0,1-.591.054c-.381.019-.934.036-1.615.041-1.364.014-3.251-.016-5.33-.152s-3.953-.347-5.3-.534c-.675-.1-1.221-.18-1.6-.249A2.73,2.73,0,0,1,2442.346-144.317Z" transform="translate(-2442.346 144.325)" fill="#e0e0e0"/>
              </g>
            </g>
          </g>
          <g id="Grupo_57810" data-name="Grupo 57810" transform="translate(19.158 43.605)">
            <g id="Grupo_57809" data-name="Grupo 57809">
              <g id="Grupo_57808" data-name="Grupo 57808">
                <path id="Trazado_130099" data-name="Trazado 130099" d="M2426.992-179.9a2.287,2.287,0,0,1,.268.479l.644,1.346c.534,1.141,1.256,2.723,2.04,4.478s1.479,3.35,1.973,4.509l.572,1.378a2.273,2.273,0,0,1,.178.519,2.4,2.4,0,0,1-.267-.48l-.644-1.346c-.534-1.14-1.256-2.723-2.04-4.479s-1.48-3.349-1.973-4.508l-.572-1.378A2.389,2.389,0,0,1,2426.992-179.9Z" transform="translate(-2426.99 179.904)" fill="#e0e0e0"/>
              </g>
            </g>
          </g>
          <g id="Grupo_57813" data-name="Grupo 57813" transform="translate(6.62 57.277)">
            <g id="Grupo_57812" data-name="Grupo 57812">
              <g id="Grupo_57811" data-name="Grupo 57811">
                <path id="Trazado_130100" data-name="Trazado 130100" d="M2392.205-141.97a3.791,3.791,0,0,1,.336.617c.216.449.5,1.027.832,1.721.693,1.458,1.634,3.48,2.659,5.719s1.942,4.273,2.593,5.75l.76,1.754a3.73,3.73,0,0,1,.248.657,3.813,3.813,0,0,1-.336-.617l-.832-1.721c-.693-1.458-1.634-3.48-2.66-5.72s-1.941-4.272-2.592-5.749l-.76-1.754A3.828,3.828,0,0,1,2392.205-141.97Z" transform="translate(-2392.203 141.971)" fill="#e0e0e0"/>
              </g>
            </g>
          </g>
          <g id="Grupo_57816" data-name="Grupo 57816" transform="translate(13.981 73.049)">
            <g id="Grupo_57815" data-name="Grupo 57815">
              <g id="Grupo_57814" data-name="Grupo 57814">
                <path id="Trazado_130101" data-name="Trazado 130101" d="M2412.627-98.2a4.338,4.338,0,0,1,.752.023l2.042.142c1.724.118,4.106.272,6.74.368s5.022.127,6.75.135l2.047.01a4.354,4.354,0,0,1,.752.032,4.37,4.37,0,0,1-.75.065c-.483.026-1.183.052-2.048.068-1.729.037-4.121.038-6.761-.062s-5.023-.278-6.746-.441c-.861-.084-1.557-.159-2.036-.221A4.389,4.389,0,0,1,2412.627-98.2Z" transform="translate(-2412.627 98.208)" fill="#e0e0e0"/>
              </g>
            </g>
          </g>
        </g>
        <g id="Grupo_57824" data-name="Grupo 57824" transform="translate(0 96.046)">
          <g id="Grupo_57822" data-name="Grupo 57822">
            <g id="Grupo_57819" data-name="Grupo 57819">
              <g id="Grupo_57818" data-name="Grupo 57818">
                <path id="Trazado_130102" data-name="Trazado 130102" d="M2267.752-267.654a21.479,21.479,0,0,1-.209,3.683,26.781,26.781,0,0,1-3.357,9.885l-.078-.136h.162l-.077.136-20.926,37.11-.131.232-.142-.226-22.12-35.286-1.088-1.736-.168-.27h.318l-.152.264a27.114,27.114,0,0,1-3.333-9.321,25.719,25.719,0,0,1-.332-4.85q.066-1.2.131-2.4.178-1.184.356-2.357a27.2,27.2,0,0,1,9.029-15.44,26.181,26.181,0,0,1,7.277-4.277l.962-.359.479-.178.491-.131,1.949-.508a27.189,27.189,0,0,1,3.9-.473,26.167,26.167,0,0,1,3.792.068c.619.049,1.223.183,1.826.269l.9.145c.295.062.583.152.872.226l1.712.464,1.623.619c.266.106.537.2.795.312l.755.378,1.481.749a26.808,26.808,0,0,1,8.592,7.932,27.292,27.292,0,0,1,3.744,8.009,24.245,24.245,0,0,1,.659,3.165,17.511,17.511,0,0,1,.25,2.353q.033.948.05,1.454c.009.328.005.5.005.5s-.02-.168-.041-.494-.048-.82-.085-1.45a18.222,18.222,0,0,0-.282-2.342,24.755,24.755,0,0,0-.687-3.144,27.386,27.386,0,0,0-3.774-7.936,26.693,26.693,0,0,0-8.553-7.829l-1.47-.736-.748-.372c-.257-.113-.525-.2-.789-.306l-1.608-.608-1.7-.453c-.286-.072-.571-.161-.864-.221l-.889-.14c-.6-.084-1.194-.214-1.806-.261a25.908,25.908,0,0,0-3.751-.057,26.907,26.907,0,0,0-3.852.475l-1.925.507-.485.13-.473.177-.949.356a25.9,25.9,0,0,0-7.181,4.237,26.907,26.907,0,0,0-8.9,15.259q-.175,1.159-.35,2.328-.063,1.181-.127,2.371a25.475,25.475,0,0,0,.329,4.788,26.8,26.8,0,0,0,3.292,9.2l.155.265h-.308l.149-.268,1.087,1.736,22.092,35.3-.273.006,21.045-37.042.079.135h-.164l.079-.136a27.057,27.057,0,0,0,3.419-9.808c.172-1.191.221-2.112.261-2.73.011-.3.02-.535.026-.7S2267.752-267.654,2267.752-267.654Z" transform="translate(-2216.108 294.342)" fill="#e0e0e0"/>
              </g>
            </g>
            <g id="Grupo_57821" data-name="Grupo 57821" transform="translate(9.38 9.868)">
              <g id="Grupo_57820" data-name="Grupo 57820">
                <path id="Trazado_130103" data-name="Trazado 130103" d="M2275.009-250.439a1.5,1.5,0,0,1-.031-.265c-.013-.192-.031-.448-.054-.775q-.016-.258-.036-.571c-.022-.209-.068-.436-.1-.682a11.97,11.97,0,0,0-.342-1.684,15.628,15.628,0,0,0-1.807-4.329,16.236,16.236,0,0,0-4.126-4.609,16.117,16.117,0,0,0-6.819-3.037,16.267,16.267,0,0,0-8.507.692,16.879,16.879,0,0,0-2.113.924,16.891,16.891,0,0,0-1.987,1.271,18.234,18.234,0,0,0-1.839,1.556,18.379,18.379,0,0,0-1.59,1.872,15.672,15.672,0,0,0-2.323,4.451,17.3,17.3,0,0,0-.848,5.1,17.321,17.321,0,0,0,.821,5.107,15.669,15.669,0,0,0,2.3,4.464,18.355,18.355,0,0,0,1.58,1.881,18.218,18.218,0,0,0,1.831,1.566,16.9,16.9,0,0,0,1.981,1.282,16.9,16.9,0,0,0,2.108.934,16.266,16.266,0,0,0,8.5.735,16.127,16.127,0,0,0,6.835-3,16.234,16.234,0,0,0,4.148-4.588,15.628,15.628,0,0,0,1.829-4.319,11.968,11.968,0,0,0,.35-1.682c.039-.246.085-.472.109-.682s.027-.4.039-.571l.058-.775a1.56,1.56,0,0,1,.032-.265,1.465,1.465,0,0,1,0,.265c-.006.192-.014.451-.024.779-.006.173-.014.365-.021.575s-.06.439-.093.687a11.609,11.609,0,0,1-.321,1.7,15.476,15.476,0,0,1-1.793,4.386,16.313,16.313,0,0,1-4.167,4.685,16.314,16.314,0,0,1-6.932,3.092,16.523,16.523,0,0,1-8.668-.717,17.181,17.181,0,0,1-2.154-.948,17.169,17.169,0,0,1-2.025-1.3,18.523,18.523,0,0,1-1.872-1.6,18.6,18.6,0,0,1-1.617-1.917,15.992,15.992,0,0,1-2.355-4.558,17.62,17.62,0,0,1-.84-5.218,17.585,17.585,0,0,1,.867-5.212,15.97,15.97,0,0,1,2.378-4.545,18.573,18.573,0,0,1,1.626-1.909,18.554,18.554,0,0,1,1.88-1.585,17.156,17.156,0,0,1,2.031-1.292,17.115,17.115,0,0,1,2.158-.937,16.527,16.527,0,0,1,8.671-.674,16.323,16.323,0,0,1,6.917,3.126,16.329,16.329,0,0,1,4.144,4.706,15.474,15.474,0,0,1,1.771,4.4,11.629,11.629,0,0,1,.313,1.7c.032.249.072.477.089.688s.013.4.019.575c.008.329.015.587.02.779A1.491,1.491,0,0,1,2275.009-250.439Z" transform="translate(-2242.132 266.963)" fill="#e0e0e0"/>
              </g>
            </g>
          </g>
          <g id="Grupo_57823" data-name="Grupo 57823" transform="translate(16.076 18.027)">
            <path id="Trazado_130104" data-name="Trazado 130104" d="M2270.218-228.348l-9.5-6.631,2.314-3.317,6.373,4.447,8.245-10.476,3.178,2.5Z" transform="translate(-2260.713 244.325)" fill="#e0e0e0"/>
          </g>
        </g>
        <g id="Grupo_57832" data-name="Grupo 57832" transform="translate(249.013)">
          <g id="Grupo_57831" data-name="Grupo 57831">
            <g id="Grupo_57830" data-name="Grupo 57830">
              <g id="Grupo_57829" data-name="Grupo 57829">
                <g id="Grupo_57828" data-name="Grupo 57828">
                  <g id="Grupo_57827" data-name="Grupo 57827">
                    <g id="Grupo_57826" data-name="Grupo 57826">
                      <g id="Grupo_57825" data-name="Grupo 57825">
                        <path id="Trazado_130105" data-name="Trazado 130105" d="M2949.579-553.57a31.463,31.463,0,0,1,8.085,2.135l5.942-4.979,10.207,7.769-3.216,7.054a31.45,31.45,0,0,1,4.214,7.224l7.72.68,1.723,12.711-7.259,2.713a31.369,31.369,0,0,1-2.137,8.085l4.981,5.943-7.768,10.206-7.054-3.215a31.453,31.453,0,0,1-7.226,4.212l-.679,7.72-12.712,1.726-2.713-7.26a31.375,31.375,0,0,1-8.084-2.136L2927.66-488l-10.207-7.769,3.217-7.055a31.51,31.51,0,0,1-4.213-7.224l-7.719-.681-1.725-12.711,7.259-2.712a31.38,31.38,0,0,1,2.136-8.086l-4.98-5.943,7.767-10.206,7.055,3.216a31.437,31.437,0,0,1,7.225-4.212l.68-7.719,12.71-1.725,2.714,7.259Zm-3.812,17.528a13.765,13.765,0,0,0-12.933,16.991,13.8,13.8,0,0,0,13.83,10.519,13.766,13.766,0,0,0,12.925-16.983A13.8,13.8,0,0,0,2945.767-536.042Z" transform="translate(-2907.013 560.829)" fill="#f5f5f5" fill-rule="evenodd"/>
                      </g>
                    </g>
                  </g>
                </g>
              </g>
            </g>
          </g>
        </g>
        <g id="Grupo_57840" data-name="Grupo 57840" transform="translate(148.199 43.185)">
          <g id="Grupo_57839" data-name="Grupo 57839">
            <g id="Grupo_57838" data-name="Grupo 57838">
              <g id="Grupo_57837" data-name="Grupo 57837">
                <g id="Grupo_57836" data-name="Grupo 57836">
                  <g id="Grupo_57835" data-name="Grupo 57835">
                    <g id="Grupo_57834" data-name="Grupo 57834">
                      <g id="Grupo_57833" data-name="Grupo 57833">
                        <path id="Trazado_130106" data-name="Trazado 130106" d="M2654.928-436.3a20.417,20.417,0,0,1,5.247,1.386l3.858-3.233,6.626,5.043-2.087,4.579a20.4,20.4,0,0,1,2.735,4.689l5.011.441,1.119,8.251-4.712,1.761a20.372,20.372,0,0,1-1.387,5.248l3.233,3.858-5.042,6.625-4.579-2.087a20.4,20.4,0,0,1-4.69,2.734l-.44,5.012-8.252,1.12-1.761-4.712a20.369,20.369,0,0,1-5.248-1.387l-3.858,3.233-6.625-5.043,2.088-4.579a20.46,20.46,0,0,1-2.735-4.689l-5.01-.442-1.12-8.251,4.713-1.761a20.318,20.318,0,0,1,1.386-5.249l-3.233-3.858,5.042-6.625,4.58,2.088a20.391,20.391,0,0,1,4.69-2.734l.441-5.011,8.25-1.119,1.762,4.712Zm-2.475,11.378a8.936,8.936,0,0,0-8.4,11.029,8.96,8.96,0,0,0,8.977,6.828,8.936,8.936,0,0,0,8.39-11.025A8.96,8.96,0,0,0,2652.454-424.919Z" transform="translate(-2627.297 441.009)" fill="#ebebeb" fill-rule="evenodd"/>
                      </g>
                    </g>
                  </g>
                </g>
              </g>
            </g>
          </g>
        </g>
        <g id="Grupo_57851" data-name="Grupo 57851" transform="translate(196.845 79.959)">
          <g id="Grupo_57845" data-name="Grupo 57845" transform="translate(26.455 26.252)">
            <g id="Grupo_57844" data-name="Grupo 57844">
              <g id="Grupo_57843" data-name="Grupo 57843">
                <g id="Grupo_57842" data-name="Grupo 57842">
                  <g id="Grupo_57841" data-name="Grupo 57841">
                    <path id="Trazado_130107" data-name="Trazado 130107" d="M2857.433-264.145a10.89,10.89,0,0,1,2.982,1.973,14.367,14.367,0,0,1,4.625,8.5,14.548,14.548,0,0,1-.51,6.773,14.78,14.78,0,0,1-4.265,6.527,13.917,13.917,0,0,1-3.564,2.333,13.907,13.907,0,0,1-4.266,1.247,14.852,14.852,0,0,1-9.083-1.677,14.857,14.857,0,0,1-6.3-6.759,13.922,13.922,0,0,1-1.242-4.269,13.886,13.886,0,0,1,.052-4.259,14.774,14.774,0,0,1,3.213-7.106,14.552,14.552,0,0,1,5.438-4.07,14.37,14.37,0,0,1,9.653-.667,10.907,10.907,0,0,1,3.266,1.455c-.043.093-1.143-.591-3.348-1.143a14.389,14.389,0,0,0-9.334.891,14.086,14.086,0,0,0-5.145,3.97,14.172,14.172,0,0,0-2.989,6.787,13.215,13.215,0,0,0-.023,4.036,13.187,13.187,0,0,0,1.194,4.033,14.112,14.112,0,0,0,5.961,6.375,14.112,14.112,0,0,0,8.578,1.6,13.191,13.191,0,0,0,4.043-1.161,13.227,13.227,0,0,0,3.39-2.187,14.172,14.172,0,0,0,4.117-6.168,14.1,14.1,0,0,0,.585-6.472,14.388,14.388,0,0,0-4.265-8.351C2858.546-263.5,2857.377-264.058,2857.433-264.145Z" transform="translate(-2835.671 266.138)" fill="#ebebeb"/>
                  </g>
                </g>
              </g>
            </g>
          </g>
          <g id="Grupo_57850" data-name="Grupo 57850">
            <g id="Grupo_57849" data-name="Grupo 57849">
              <g id="Grupo_57848" data-name="Grupo 57848">
                <g id="Grupo_57847" data-name="Grupo 57847">
                  <g id="Grupo_57846" data-name="Grupo 57846">
                    <path id="Trazado_130108" data-name="Trazado 130108" d="M2825.894-322.362a3.186,3.186,0,0,1,.11-.5l.393-1.489c.373-1.361.91-3.322,1.606-5.868l.064.152-11.834-6.4.258-.045-5.362,6.109-.1.11-.144-.035a32.908,32.908,0,0,0-8.656-.916l-.164,0-.081-.145-3.965-7.1.34.14-12.907,3.8.234-.333c.158,2.513.332,5.28.51,8.117l.014.207-.178.108a32.723,32.723,0,0,0-6.761,5.442l-.148.157-.209-.06-7.818-2.227.426-.177-6.457,11.805-.083-.474,6.092,5.382.179.158-.057.232a32.777,32.777,0,0,0-.933,8.616l.006.242-.213.118-7.11,3.949.193-.468,3.771,12.916-.42-.3,8.118-.5.25-.015.129.214a32.615,32.615,0,0,0,5.414,6.751l0,0,0,0c.051.185-.112-.413.114.415l0,.008,0,.016-.009.031-.018.062-.035.123-.071.246-.141.492-.281.983-.561,1.96-1.117,3.9-.2-.477,11.8,6.474-.5.088,5.39-6.086.163-.185.239.059a32.585,32.585,0,0,0,8.613.946l.243-.006.117.213,3.94,7.114-.455-.187,12.92-3.753-.274.389q-.247-4.132-.485-8.119l-.013-.225.192-.116a32.617,32.617,0,0,0,6.776-5.417l.151-.157.208.06,7.811,2.251-.4.166,6.5-11.783.068.39-6.076-5.4-.134-.12.043-.174a32.813,32.813,0,0,0,.968-8.643l0-.166.143-.079,7.125-3.921-.116.282-3.709-12.934.189.133-8.121.443-.082,0-.041-.068a34.2,34.2,0,0,0-3.9-5.313l-1.11-1.2a3.363,3.363,0,0,1-.363-.4,4.05,4.05,0,0,1,.413.352c.263.248.659.622,1.161,1.154a31.892,31.892,0,0,1,4.028,5.267l-.122-.064,8.114-.547.147-.01.042.143c1.08,3.646,2.342,7.9,3.822,12.9l.056.187-.171.1-7.1,3.969.14-.245a33.267,33.267,0,0,1-.934,8.8l-.091-.294,6.1,5.373.19.167-.122.223-6.449,11.81-.131.241-.266-.076-7.818-2.224.358-.1a33.31,33.31,0,0,1-6.911,5.559l.179-.34q.248,3.986.5,8.117l.019.3-.293.086-12.912,3.778-.3.089-.153-.276-3.952-7.108.36.206a33.362,33.362,0,0,1-8.827-.959l.4-.125-5.385,6.091-.217.245-.288-.158-11.8-6.468-.29-.159.091-.318q.556-1.94,1.116-3.9l.561-1.96.281-.982.141-.492.07-.246.035-.123.017-.062.009-.031,0-.016,0-.008c.225.827.061.228.111.412h0l0,0a33.4,33.4,0,0,1-5.551-6.924l.379.2-8.119.493-.328.02-.092-.316-3.76-12.919-.091-.312.283-.157,7.116-3.94-.206.36a33.552,33.552,0,0,1,.969-8.824l.121.388-6.081-5.394-.231-.2.149-.27,6.486-11.79.142-.259.283.081,7.811,2.25-.357.1a33.326,33.326,0,0,1,6.926-5.536l-.165.314c-.168-2.838-.331-5.606-.479-8.119l-.015-.261.25-.072,12.925-3.736.228-.066.114.206c1.378,2.5,2.7,4.9,3.926,7.124l-.244-.14a33.27,33.27,0,0,1,8.786.988l-.24.075,5.411-6.066.113-.126.145.081,11.759,6.539.094.052-.03.1-1.727,5.778-.46,1.491A4.085,4.085,0,0,1,2825.894-322.362Z" transform="translate(-2762.27 338.975)" fill="#ebebeb"/>
                  </g>
                </g>
              </g>
            </g>
          </g>
        </g>
        <g id="Grupo_57854" data-name="Grupo 57854" transform="translate(280.376 62.674)">
          <g id="Grupo_57852" data-name="Grupo 57852">
            <path id="Trazado_130109" data-name="Trazado 130109" d="M3005.758-339.528l-11.723-46.619,47.7-.788Z" transform="translate(-2994.035 386.935)" fill="#ebebeb"/>
          </g>
          <g id="Grupo_57853" data-name="Grupo 57853" transform="translate(16.931 9.057)">
            <rect id="Rectángulo_31167" data-name="Rectángulo 31167" width="27.104" height="109.609" transform="matrix(0.604, -0.797, 0.797, 0.604, 0, 21.591)" fill="#ebebeb"/>
          </g>
        </g>
      </g>
      <g id="Grupo_58008" data-name="Grupo 58008" transform="translate(2556.8 -578.589)">
        <path id="Trazado_130110" data-name="Trazado 130110" d="M3254.369,65.626l6.059,13.737s-11.929,10.772-11.057,13.42l27.058-10.791L3267.868,60.2Z" transform="translate(-3217.631 144.786)" fill="#a0a8b2"/>
        <path id="Trazado_130111" data-name="Trazado 130111" d="M3254.369,65.626l6.059,13.737s-11.929,10.772-11.057,13.42l27.058-10.791L3267.868,60.2Z" transform="translate(-3217.631 144.786)" opacity="0.5"/>
        <path id="Trazado_130112" data-name="Trazado 130112" d="M3276.283,116.826l-.949-2.163-25.588,11.156s-1,1-.521,1.8Z" transform="translate(-3217.485 109.952)" fill="#263238"/>
        <path id="Trazado_130113" data-name="Trazado 130113" d="M3392.043,116.952l7.584,12.957S3389,141.97,3390.173,144.5l25.652-13.8-10.99-20.674Z" transform="translate(-3307.657 112.92)" fill="#a0a8b2"/>
        <path id="Trazado_130114" data-name="Trazado 130114" d="M3392.043,116.952l7.584,12.957S3389,141.97,3390.173,144.5l25.652-13.8-10.99-20.674Z" transform="translate(-3307.657 112.92)" opacity="0.5"/>
        <path id="Trazado_130115" data-name="Trazado 130115" d="M3415.65,163.766l-1.189-2.041-24.151,14s-.875,1.111-.312,1.846Z" transform="translate(-3307.482 79.852)" fill="#263238"/>
        <g id="Grupo_57936" data-name="Grupo 57936" transform="translate(20.562 0)">
          <g id="Grupo_57932" data-name="Grupo 57932" transform="translate(3.849 8.327)">
            <g id="Grupo_57868" data-name="Grupo 57868">
              <g id="Grupo_57867" data-name="Grupo 57867">
                <g id="Grupo_57866" data-name="Grupo 57866">
                  <g id="Grupo_57860" data-name="Grupo 57860">
                    <g id="Grupo_57859" data-name="Grupo 57859">
                      <g id="Grupo_57858" data-name="Grupo 57858">
                        <g id="Grupo_57857" data-name="Grupo 57857">
                          <g id="Grupo_57856" data-name="Grupo 57856">
                            <path id="Trazado_130116" data-name="Trazado 130116" d="M3255.991-445.66l-16.627,1.3-.552-9.309s-6.708-.1-7.711-6.649-1.985-21.78-1.985-21.78h0a23.032,23.032,0,0,1,23.323-.342l1.078.612Z" transform="translate(-3229.116 485.446)" fill="#ffbe9d"/>
                          </g>
                        </g>
                      </g>
                    </g>
                  </g>
                  <g id="Grupo_57865" data-name="Grupo 57865" transform="translate(9.672 28.045)">
                    <g id="Grupo_57864" data-name="Grupo 57864">
                      <g id="Grupo_57863" data-name="Grupo 57863">
                        <g id="Grupo_57862" data-name="Grupo 57862">
                          <g id="Grupo_57861" data-name="Grupo 57861">
                            <path id="Trazado_130117" data-name="Trazado 130117" d="M3255.951-404a15.408,15.408,0,0,0,8.213-3.634s-1.454,5.152-8.085,5.482Z" transform="translate(-3255.951 407.633)" fill="#eb996e"/>
                          </g>
                        </g>
                      </g>
                    </g>
                  </g>
                </g>
              </g>
            </g>
            <g id="Grupo_57880" data-name="Grupo 57880" transform="translate(24.547 10.072)">
              <g id="Grupo_57873" data-name="Grupo 57873">
                <g id="Grupo_57872" data-name="Grupo 57872">
                  <g id="Grupo_57871" data-name="Grupo 57871">
                    <g id="Grupo_57870" data-name="Grupo 57870">
                      <g id="Grupo_57869" data-name="Grupo 57869">
                        <path id="Trazado_130118" data-name="Trazado 130118" d="M3297.224-457.047c.105-.064,4.322-1.968,4.809,2.539s-4.138,4.066-4.16,3.938S3297.224-457.047,3297.224-457.047Z" transform="translate(-3297.224 457.501)" fill="#ffbe9d"/>
                      </g>
                    </g>
                  </g>
                </g>
              </g>
              <g id="Grupo_57879" data-name="Grupo 57879" transform="translate(1.804 1.413)">
                <g id="Grupo_57878" data-name="Grupo 57878">
                  <g id="Grupo_57877" data-name="Grupo 57877">
                    <g id="Grupo_57876" data-name="Grupo 57876">
                      <g id="Grupo_57875" data-name="Grupo 57875">
                        <g id="Grupo_57874" data-name="Grupo 57874">
                          <path id="Trazado_130119" data-name="Trazado 130119" d="M3302.268-449.92c.018-.017.084.046.223.093a.79.79,0,0,0,.588-.052,1.952,1.952,0,0,0,.71-1.84,2.605,2.605,0,0,0-.341-1.1.911.911,0,0,0-.656-.539.4.4,0,0,0-.44.265c-.047.133-.008.22-.031.23s-.105-.065-.089-.255a.5.5,0,0,1,.147-.3.6.6,0,0,1,.422-.162,1.11,1.11,0,0,1,.9.61,2.684,2.684,0,0,1,.408,1.226,2.05,2.05,0,0,1-.935,2.07.845.845,0,0,1-.731-.042C3302.288-449.812,3302.253-449.91,3302.268-449.92Z" transform="translate(-3302.231 453.581)" fill="#eb996e"/>
                        </g>
                      </g>
                    </g>
                  </g>
                </g>
              </g>
            </g>
            <g id="Grupo_57931" data-name="Grupo 57931" transform="translate(2.459 6.209)">
              <g id="Grupo_57930" data-name="Grupo 57930">
                <g id="Grupo_57919" data-name="Grupo 57919" transform="translate(0.059 3.718)">
                  <g id="Grupo_57918" data-name="Grupo 57918">
                    <g id="Grupo_57917" data-name="Grupo 57917">
                      <g id="Grupo_57892" data-name="Grupo 57892" transform="translate(0 1.206)">
                        <g id="Grupo_57885" data-name="Grupo 57885" transform="translate(0.309 1.537)">
                          <g id="Grupo_57884" data-name="Grupo 57884">
                            <g id="Grupo_57883" data-name="Grupo 57883">
                              <g id="Grupo_57882" data-name="Grupo 57882">
                                <g id="Grupo_57881" data-name="Grupo 57881">
                                  <path id="Trazado_130120" data-name="Trazado 130120" d="M3236.964-449.306a.946.946,0,0,0,1.037.818.9.9,0,0,0,.847-.98.947.947,0,0,0-1.036-.82A.906.906,0,0,0,3236.964-449.306Z" transform="translate(-3236.959 450.291)" fill="#263238"/>
                                </g>
                              </g>
                            </g>
                          </g>
                        </g>
                        <g id="Grupo_57891" data-name="Grupo 57891">
                          <g id="Grupo_57890" data-name="Grupo 57890">
                            <g id="Grupo_57889" data-name="Grupo 57889">
                              <g id="Grupo_57888" data-name="Grupo 57888">
                                <g id="Grupo_57887" data-name="Grupo 57887">
                                  <g id="Grupo_57886" data-name="Grupo 57886">
                                    <path id="Trazado_130121" data-name="Trazado 130121" d="M3236.125-453.289c.133.106.77-.519,1.778-.659s1.819.261,1.91.123c.046-.062-.1-.266-.458-.456a2.593,2.593,0,0,0-1.551-.249,2.5,2.5,0,0,0-1.395.677C3236.134-453.571,3236.059-453.335,3236.125-453.289Z" transform="translate(-3236.102 454.557)" fill="#263238"/>
                                  </g>
                                </g>
                              </g>
                            </g>
                          </g>
                        </g>
                      </g>
                      <g id="Grupo_57904" data-name="Grupo 57904" transform="translate(9.939)">
                        <g id="Grupo_57897" data-name="Grupo 57897" transform="translate(0.178 1.609)">
                          <g id="Grupo_57896" data-name="Grupo 57896">
                            <g id="Grupo_57895" data-name="Grupo 57895">
                              <g id="Grupo_57894" data-name="Grupo 57894">
                                <g id="Grupo_57893" data-name="Grupo 57893">
                                  <path id="Trazado_130122" data-name="Trazado 130122" d="M3264.178-452.454a.946.946,0,0,0,1.036.818.906.906,0,0,0,.848-.981.947.947,0,0,0-1.036-.819A.906.906,0,0,0,3264.178-452.454Z" transform="translate(-3264.173 453.439)" fill="#263238"/>
                                </g>
                              </g>
                            </g>
                          </g>
                        </g>
                        <g id="Grupo_57903" data-name="Grupo 57903">
                          <g id="Grupo_57902" data-name="Grupo 57902">
                            <g id="Grupo_57901" data-name="Grupo 57901">
                              <g id="Grupo_57900" data-name="Grupo 57900">
                                <g id="Grupo_57899" data-name="Grupo 57899">
                                  <g id="Grupo_57898" data-name="Grupo 57898">
                                    <path id="Trazado_130123" data-name="Trazado 130123" d="M3263.7-456.634c.134.106.771-.519,1.779-.658s1.819.261,1.911.122c.045-.062-.1-.266-.459-.455a2.594,2.594,0,0,0-1.55-.249,2.5,2.5,0,0,0-1.395.677C3263.712-456.917,3263.637-456.681,3263.7-456.634Z" transform="translate(-3263.68 457.902)" fill="#263238"/>
                                  </g>
                                </g>
                              </g>
                            </g>
                          </g>
                        </g>
                      </g>
                      <g id="Grupo_57910" data-name="Grupo 57910" transform="translate(4.671 0.794)">
                        <g id="Grupo_57909" data-name="Grupo 57909">
                          <g id="Grupo_57908" data-name="Grupo 57908">
                            <g id="Grupo_57907" data-name="Grupo 57907">
                              <g id="Grupo_57906" data-name="Grupo 57906">
                                <g id="Grupo_57905" data-name="Grupo 57905">
                                  <path id="Trazado_130124" data-name="Trazado 130124" d="M3251.744-447.231a6.738,6.738,0,0,0-1.679-.065c-.261.01-.512-.007-.581-.177a1.322,1.322,0,0,1,.065-.788q.232-.986.486-2.068a34.049,34.049,0,0,0,.989-5.369,34.114,34.114,0,0,0-1.419,5.278q-.236,1.086-.452,2.075a1.5,1.5,0,0,0,.008,1.029.653.653,0,0,0,.477.317,1.782,1.782,0,0,0,.446,0A6.636,6.636,0,0,0,3251.744-447.231Z" transform="translate(-3249.062 455.699)" fill="#263238"/>
                                </g>
                              </g>
                            </g>
                          </g>
                        </g>
                      </g>
                      <g id="Grupo_57916" data-name="Grupo 57916" transform="translate(7.581 9.541)">
                        <g id="Grupo_57915" data-name="Grupo 57915">
                          <g id="Grupo_57914" data-name="Grupo 57914">
                            <g id="Grupo_57913" data-name="Grupo 57913">
                              <g id="Grupo_57912" data-name="Grupo 57912">
                                <g id="Grupo_57911" data-name="Grupo 57911">
                                  <path id="Trazado_130125" data-name="Trazado 130125" d="M3259.974-431.428c-.165.013-.013,1.108-.841,2.017s-2.01.952-2,1.107c-.006.071.289.176.784.12a2.752,2.752,0,0,0,1.676-.861,2.4,2.4,0,0,0,.635-1.682C3260.208-431.192,3260.048-431.446,3259.974-431.428Z" transform="translate(-3257.136 431.429)" fill="#263238"/>
                                </g>
                              </g>
                            </g>
                          </g>
                        </g>
                      </g>
                    </g>
                  </g>
                </g>
                <g id="Grupo_57924" data-name="Grupo 57924" transform="translate(9.193)">
                  <g id="Grupo_57923" data-name="Grupo 57923">
                    <g id="Grupo_57922" data-name="Grupo 57922">
                      <g id="Grupo_57921" data-name="Grupo 57921">
                        <g id="Grupo_57920" data-name="Grupo 57920">
                          <path id="Trazado_130126" data-name="Trazado 130126" d="M3261.456-467.148c.138.26,1.127-.011,2.33-.035,1.2-.048,2.206.164,2.328-.1.054-.128-.149-.362-.572-.573a3.87,3.87,0,0,0-1.787-.357,3.878,3.878,0,0,0-1.762.462C3261.583-467.518,3261.4-467.272,3261.456-467.148Z" transform="translate(-3261.445 468.218)" fill="#263238"/>
                        </g>
                      </g>
                    </g>
                  </g>
                </g>
                <g id="Grupo_57929" data-name="Grupo 57929" transform="translate(0 1.904)">
                  <g id="Grupo_57928" data-name="Grupo 57928">
                    <g id="Grupo_57927" data-name="Grupo 57927">
                      <g id="Grupo_57926" data-name="Grupo 57926">
                        <g id="Grupo_57925" data-name="Grupo 57925">
                          <path id="Trazado_130127" data-name="Trazado 130127" d="M3235.98-461.618c.21.2.871-.131,1.705-.26.829-.158,1.564-.063,1.693-.325.055-.126-.088-.34-.428-.514a2.39,2.39,0,0,0-1.441-.18,2.384,2.384,0,0,0-1.3.652C3235.95-461.968,3235.886-461.719,3235.98-461.618Z" transform="translate(-3235.939 462.935)" fill="#263238"/>
                        </g>
                      </g>
                    </g>
                  </g>
                </g>
              </g>
            </g>
          </g>
          <g id="Grupo_57935" data-name="Grupo 57935">
            <g id="Grupo_57934" data-name="Grupo 57934">
              <g id="Grupo_57933" data-name="Grupo 57933">
                <path id="Trazado_130128" data-name="Trazado 130128" d="M3218.506-500.573a2.446,2.446,0,0,1,.59-2.29,1.735,1.735,0,0,1,2.25-.146,2.025,2.025,0,0,1,1.382-2.674c1.061-.218,2.087.462,3.161.6a4.92,4.92,0,0,0,3.014-.784c.916-.528,1.748-1.2,2.681-1.692A8.572,8.572,0,0,1,3238-508.2a8.573,8.573,0,0,1,5.01,4.059,3.763,3.763,0,0,1,4.162.94,6.17,6.17,0,0,1,1.541,4.174,13.774,13.774,0,0,1-.336,3.05c.012.084.032.166.042.251.439,3.618.627,7.913-.909,8.153-2.677.418-2.749-4.727-2.749-4.727-3.471-.809-2.939-5.916-3.867-6.548s-2.9-2.13-9.295,2.364a13.492,13.492,0,0,1-8.056,2.035c-.058,0-.117-.005-.176-.011l-.041,0c-.022,0-.039-.012-.06-.015a6.27,6.27,0,0,1-1.874-.5,3.53,3.53,0,0,1-1.685-1.415,1.932,1.932,0,0,1,.088-2.107A4.246,4.246,0,0,1,3218.506-500.573Z" transform="translate(-3218.437 508.55)" fill="#263238"/>
              </g>
            </g>
          </g>
        </g>
        <g id="Grupo_57937" data-name="Grupo 57937" transform="translate(34.083 33.73)">
          <path id="Trazado_130129" data-name="Trazado 130129" d="M3255.951-402.891l.742,26.052,16.209-34.9-.406-3.23Z" transform="translate(-3255.951 414.965)" fill="#ebebeb"/>
        </g>
        <g id="Grupo_57950" data-name="Grupo 57950" transform="translate(11.24 117.557)">
          <g id="Grupo_57938" data-name="Grupo 57938" transform="translate(0 5.395)">
            <path id="Trazado_130130" data-name="Trazado 130130" d="M3226.167-166.677c-.594.195-34.343,34.327-33.585,40.458s24.782,51.535,24.782,51.535l17.141-8.451-16.079-39.806.21-2.469,19.65-16.1-1.049-25.9Z" transform="translate(-3192.57 167.409)" fill="#12263f"/>
          </g>
          <g id="Grupo_57939" data-name="Grupo 57939" transform="translate(40.874 0)">
            <path id="Trazado_130131" data-name="Trazado 130131" d="M3305.979-169.525c.392.6,6.237,54.217,7.8,56.992s25.042,48.553,25.042,48.553L3356.253-71l-21.277-50.312,2.424-47.618-1.313-13.446-26.314,5.4Z" transform="translate(-3305.979 182.379)" fill="#12263f"/>
          </g>
          <g id="Grupo_57941" data-name="Grupo 57941" transform="translate(40.855 15.593)">
            <g id="Grupo_57940" data-name="Grupo 57940">
              <path id="Trazado_130132" data-name="Trazado 130132" d="M3313.443-85.806a3.051,3.051,0,0,1-.114-.536c-.063-.39-.148-.9-.254-1.548l-.864-5.7c-.7-4.857-1.654-11.5-2.71-18.839-1.014-7.347-1.931-14-2.6-18.857-.311-2.385-.565-4.329-.746-5.72-.076-.648-.138-1.166-.184-1.558a3.012,3.012,0,0,1-.039-.547,2.93,2.93,0,0,1,.114.536l.254,1.548c.21,1.387.5,3.326.864,5.7.7,4.857,1.654,11.5,2.71,18.842,1.013,7.345,1.931,13.994,2.6,18.854l.746,5.72c.076.648.138,1.166.184,1.558A2.963,2.963,0,0,1,3313.443-85.806Z" transform="translate(-3305.927 139.115)" fill="#455a64"/>
            </g>
          </g>
          <g id="Grupo_57943" data-name="Grupo 57943" transform="translate(67.028 59.525)">
            <g id="Grupo_57942" data-name="Grupo 57942" transform="translate(0 0)">
              <path id="Trazado_130133" data-name="Trazado 130133" d="M3380.945-17.221a25.607,25.607,0,0,1-1.013,4.249,25.523,25.523,0,0,1-1.374,4.147,25.549,25.549,0,0,1,1.013-4.25A25.625,25.625,0,0,1,3380.945-17.221Z" transform="translate(-3378.544 17.221)" fill="#455a64"/>
            </g>
          </g>
          <g id="Grupo_57945" data-name="Grupo 57945" transform="translate(69.432 61.139)">
            <g id="Grupo_57944" data-name="Grupo 57944" transform="translate(0 0)">
              <path id="Trazado_130134" data-name="Trazado 130134" d="M3387.847-2.214a4.856,4.856,0,0,1-.952-1.323,13.012,13.012,0,0,1-1.393-3.682,13.005,13.005,0,0,1-.23-3.931,4.843,4.843,0,0,1,.33-1.6,21.713,21.713,0,0,0,.267,5.448A21.724,21.724,0,0,0,3387.847-2.214Z" transform="translate(-3385.213 12.745)" fill="#455a64"/>
            </g>
          </g>
          <g id="Grupo_57947" data-name="Grupo 57947" transform="translate(20.234 44.08)">
            <g id="Grupo_57946" data-name="Grupo 57946">
              <path id="Trazado_130135" data-name="Trazado 130135" d="M3248.712-60.068a7.083,7.083,0,0,1,2.814,1.756,7.082,7.082,0,0,1,2.007,2.641c-.094.062-.925-1.157-2.26-2.364S3248.659-59.969,3248.712-60.068Z" transform="translate(-3248.711 60.077)" fill="#455a64"/>
            </g>
          </g>
          <g id="Grupo_57949" data-name="Grupo 57949" transform="translate(22.876 42.5)">
            <g id="Grupo_57948" data-name="Grupo 57948" transform="translate(0 0)">
              <path id="Trazado_130136" data-name="Trazado 130136" d="M3256.046-64.456a5.258,5.258,0,0,1,1.662,1.885,5.259,5.259,0,0,1,.942,2.33,22.249,22.249,0,0,1-1.261-2.133A22.284,22.284,0,0,1,3256.046-64.456Z" transform="translate(-3256.04 64.461)" fill="#455a64"/>
            </g>
          </g>
        </g>
        <g id="Grupo_57980" data-name="Grupo 57980" transform="translate(16.406 35.218)">
          <g id="Grupo_57952" data-name="Grupo 57952" transform="translate(18.406)">
            <g id="Grupo_57951" data-name="Grupo 57951">
              <path id="Trazado_130137" data-name="Trazado 130137" d="M3259.613-364.218l4.314,21.4,3.511,29.869s14.475-2.021,20.644-3.974c7.155-2.265,22.725-4.194,22.725-4.194l-2.625,2.6c5.571-1.56,9.117-6.876,9.117-6.876-9.6-8.9-17.792-27.224-17.792-27.224l-7.3-36.25s-1.108-5.114-1.777-7.388-11.755-9.609-13.292-10.536l-.965-.457-.307-2.9-1.142-.684-12,10.9a13,13,0,0,0-4.175,8.146,93.931,93.931,0,0,0-.523,13.636C3258.17-373.906,3259.613-364.218,3259.613-364.218Z" transform="translate(-3257.974 410.834)" fill="#5e5385"/>
            </g>
          </g>
          <g id="Grupo_57962" data-name="Grupo 57962" transform="translate(0 9.103)">
            <g id="Grupo_57953" data-name="Grupo 57953" transform="translate(0.18)">
              <path id="Trazado_130138" data-name="Trazado 130138" d="M3235.506-385.143s-6.339,3.4-7.438,6.282,2.169,34.5,2.169,34.5l-22.761.426-.072,13.564s36.155,2.857,37.562.9c1.9-2.643,4.113-27.349,4.113-27.349l.821-17.777S3247.8-388.148,3235.506-385.143Z" transform="translate(-3207.404 385.578)" fill="#5e5385"/>
            </g>
            <g id="Grupo_57955" data-name="Grupo 57955" transform="translate(23.933 33.033)" opacity="0.3">
              <g id="Grupo_57954" data-name="Grupo 57954">
                <path id="Trazado_130139" data-name="Trazado 130139" d="M3273.735-268.04a21.786,21.786,0,0,0,9.11.851c3.206-.3,6.468-2.053,7.681-5.035.927-2.284.541-4.858.682-7.32.122-2.138.651-4.229.975-6.347s-.775-6.01-1.474-8.034c0,0-.812,14.677-3.108,20.84a5.046,5.046,0,0,1-1.406,2.25,5.533,5.533,0,0,1-2.976.82,86.27,86.27,0,0,1-9.911-.2" transform="translate(-3273.308 293.925)"/>
              </g>
            </g>
            <g id="Grupo_57957" data-name="Grupo 57957" transform="translate(0 12.906)">
              <g id="Grupo_57956" data-name="Grupo 57956">
                <path id="Trazado_130140" data-name="Trazado 130140" d="M3249.541-349.768a1.969,1.969,0,0,1,0,.323c-.009.23-.021.543-.036.945-.041.849-.1,2.069-.176,3.631-.083,1.583-.184,3.51-.3,5.744-.137,2.238-.211,4.792-.486,7.6-.245,2.812-.54,5.89-.892,9.19s-.757,6.826-1.386,10.513a22.994,22.994,0,0,1-.624,2.788,5.447,5.447,0,0,1-1.642,2.459,4.156,4.156,0,0,1-2.832,1.011c-1,.023-2.01,0-3.027-.015-4.063-.1-8.263-.309-12.562-.542-6.461-.357-12.688-.76-18.507-1.169l-.167-.012v-.168c.029-4.817.056-9.355.081-13.541v-.157l.155,0,21.97-.473,6.146-.106,1.619-.016c.366,0,.555.012.555.012s-.189.022-.554.039l-1.617.064-6.144.195-21.967.607.156-.16c-.013,4.185-.029,8.724-.044,13.541l-.166-.179c5.817.4,12.044.795,18.5,1.151,4.3.233,8.5.444,12.55.549,1.013.013,2.019.04,3.008.019a3.794,3.794,0,0,0,2.615-.925,5.085,5.085,0,0,0,1.536-2.3,22.769,22.769,0,0,0,.618-2.734c.634-3.668,1.037-7.193,1.417-10.487s.675-6.371.937-9.18c.292-2.806.384-5.358.541-7.594.142-2.232.264-4.158.365-5.739.105-1.56.187-2.778.245-3.626.031-.4.055-.713.073-.942A2.085,2.085,0,0,1,3249.541-349.768Z" transform="translate(-3206.904 349.768)" fill="#263238"/>
              </g>
            </g>
            <g id="Grupo_57959" data-name="Grupo 57959" transform="translate(4.492 41.857)">
              <g id="Grupo_57958" data-name="Grupo 57958">
                <path id="Trazado_130141" data-name="Trazado 130141" d="M3219.524-256.289a57.708,57.708,0,0,1-.153-6.577,57.884,57.884,0,0,1,.222-6.576,57.827,57.827,0,0,1,.153,6.578A57.891,57.891,0,0,1,3219.524-256.289Z" transform="translate(-3219.368 269.442)" fill="#263238"/>
              </g>
            </g>
            <g id="Grupo_57961" data-name="Grupo 57961" transform="translate(1.695 43.739)">
              <g id="Grupo_57960" data-name="Grupo 57960">
                <path id="Trazado_130142" data-name="Trazado 130142" d="M3212.146-264.041c-.044-.025.184-.278.616-.134a.7.7,0,0,1,.461.6.826.826,0,0,1-.462.812.849.849,0,0,1-.916-.168.766.766,0,0,1-.222-.717c.1-.429.4-.521.411-.477.036.042-.141.2-.148.51a.522.522,0,0,0,.188.427.536.536,0,0,0,.531.085.511.511,0,0,0,.273-.452.439.439,0,0,0-.228-.381C3212.39-264.091,3212.17-263.993,3212.146-264.041Z" transform="translate(-3211.607 264.219)" fill="#263238"/>
              </g>
            </g>
          </g>
          <g id="Grupo_57963" data-name="Grupo 57963" transform="translate(52.741 25.076)">
            <path id="Trazado_130143" data-name="Trazado 130143" d="M3353.239-341.26s11.841,15.483,13.284,19.7.328,10.277-2.084,13.174-4.356,1.72-4.356,1.72Z" transform="translate(-3353.239 341.26)" fill="#5e5385"/>
          </g>
          <g id="Grupo_57965" data-name="Grupo 57965" transform="translate(53.162 58.397)">
            <g id="Grupo_57964" data-name="Grupo 57964">
              <path id="Trazado_130144" data-name="Trazado 130144" d="M3360.407-248.775a12.522,12.522,0,0,1-2.967.7,12.513,12.513,0,0,1-3.032.33,12.527,12.527,0,0,1,2.968-.7A12.48,12.48,0,0,1,3360.407-248.775Z" transform="translate(-3354.407 248.807)" fill="#263238"/>
            </g>
          </g>
          <g id="Grupo_57967" data-name="Grupo 57967" transform="translate(61.433 69.845)">
            <g id="Grupo_57966" data-name="Grupo 57966">
              <path id="Trazado_130145" data-name="Trazado 130145" d="M3377.36-217.043a3.979,3.979,0,0,1,.322.817c.179.533.451,1.3.8,2.244a66.474,66.474,0,0,0,3.181,7.175,75.506,75.506,0,0,0,3.978,6.771c.553.84,1.009,1.516,1.328,1.979a4.009,4.009,0,0,1,.462.747,3.929,3.929,0,0,1-.58-.66c-.356-.438-.846-1.092-1.43-1.917a58.244,58.244,0,0,1-4.092-6.748,52.817,52.817,0,0,1-3.1-7.258c-.321-.958-.555-1.742-.693-2.29A3.949,3.949,0,0,1,3377.36-217.043Z" transform="translate(-3377.355 217.043)" fill="#263238"/>
            </g>
          </g>
          <g id="Grupo_57969" data-name="Grupo 57969" transform="translate(62.242 71.68)" opacity="0.3">
            <g id="Grupo_57968" data-name="Grupo 57968">
              <path id="Trazado_130146" data-name="Trazado 130146" d="M3379.6-211.953c1.877,3.345,3.806,6.755,6.665,9.311a17.227,17.227,0,0,1,2.908,2.817,3.544,3.544,0,0,1,.371,3.811,1.2,1.2,0,0,1-1.181.638,1.519,1.519,0,0,1-.773-.627,46.15,46.15,0,0,1-7.863-15.439" transform="translate(-3379.6 211.953)"/>
            </g>
          </g>
          <g id="Grupo_57971" data-name="Grupo 57971" transform="translate(53.736 27.41)" opacity="0.3">
            <g id="Grupo_57970" data-name="Grupo 57970">
              <path id="Trazado_130147" data-name="Trazado 130147" d="M3362.942-302.578a5.728,5.728,0,0,0,1.948-5.363,19.879,19.879,0,0,0-1.966-5.63,92.665,92.665,0,0,1-5.768-16.916l-1.157-4.3,5.858,30.645Z" transform="translate(-3355.999 334.782)"/>
            </g>
          </g>
          <g id="Grupo_57973" data-name="Grupo 57973" transform="translate(31.361 3.746)">
            <g id="Grupo_57972" data-name="Grupo 57972">
              <path id="Trazado_130148" data-name="Trazado 130148" d="M3293.922-396.024a26.059,26.059,0,0,1,2.207-2.205,26.217,26.217,0,0,1,2.2-2.207,8.876,8.876,0,0,1-1.939,2.472A8.871,8.871,0,0,1,3293.922-396.024Z" transform="translate(-3293.919 400.439)" fill="#263238"/>
            </g>
          </g>
          <g id="Grupo_57975" data-name="Grupo 57975" transform="translate(21.369 10.777)">
            <g id="Grupo_57974" data-name="Grupo 57974">
              <path id="Trazado_130149" data-name="Trazado 130149" d="M3274.993-380.924c.019.063-.683.274-1.731.792a14.028,14.028,0,0,0-3.674,2.656,14.026,14.026,0,0,0-2.612,3.705c-.505,1.054-.708,1.758-.771,1.74-.025-.007,0-.188.082-.512a8.5,8.5,0,0,1,.448-1.337,12.343,12.343,0,0,1,2.587-3.86,12.347,12.347,0,0,1,3.829-2.632,8.514,8.514,0,0,1,1.332-.464C3274.805-380.916,3274.986-380.949,3274.993-380.924Z" transform="translate(-3266.196 380.932)" fill="#263238"/>
            </g>
          </g>
          <g id="Grupo_57977" data-name="Grupo 57977" transform="translate(52.947 25.406)">
            <g id="Grupo_57976" data-name="Grupo 57976">
              <path id="Trazado_130150" data-name="Trazado 130150" d="M3362.833-303.055a1.36,1.36,0,0,1-.186-.3c-.127-.239-.283-.532-.474-.888l-1.7-3.334-.007-.013,0-.017c-.741-3.393-1.789-8.342-2.927-13.846-1.052-5.188-2-9.881-2.705-13.344l-.777-4.052c-.078-.446-.141-.811-.193-1.106a1.548,1.548,0,0,1-.042-.39,1.562,1.562,0,0,1,.116.375c.069.29.156.651.262,1.091.222,1,.525,2.367.894,4.028l2.812,13.321c1.138,5.5,2.141,10.462,2.808,13.871l-.01-.03,1.6,3.385c.167.369.3.672.414.918A1.3,1.3,0,0,1,3362.833-303.055Z" transform="translate(-3353.81 340.343)" fill="#263238"/>
            </g>
          </g>
          <g id="Grupo_57979" data-name="Grupo 57979" transform="translate(20.044 21.587)">
            <g id="Grupo_57978" data-name="Grupo 57978">
              <path id="Trazado_130151" data-name="Trazado 130151" d="M3265.095-322.216a6.519,6.519,0,0,1-.173-1.122c-.087-.792-.2-1.826-.334-3.072-.266-2.6-.607-6.185-.96-10.151s-.653-7.56-.851-10.162c-.087-1.251-.159-2.288-.215-3.082a6.6,6.6,0,0,1-.027-1.134,6.678,6.678,0,0,1,.173,1.123l.334,3.073c.265,2.6.606,6.184.96,10.15s.653,7.556.851,10.158c.088,1.251.16,2.289.215,3.083A6.622,6.622,0,0,1,3265.095-322.216Z" transform="translate(-3262.519 350.939)" fill="#263238"/>
            </g>
          </g>
        </g>
        <g id="Grupo_57998" data-name="Grupo 57998" transform="translate(0 80.475)">
          <g id="Grupo_57983" data-name="Grupo 57983">
            <g id="Grupo_57981" data-name="Grupo 57981" transform="translate(0 3.031)">
              <path id="Trazado_130152" data-name="Trazado 130152" d="M3178.328-272.808s-4.909-3.724-6.107-3.948c-.917-.172-6.4-.081-8.916-.028a1.8,1.8,0,0,0-1.808,1.75.924.924,0,0,0,.017.178,1.643,1.643,0,0,0,1.2,1.245,1.91,1.91,0,0,0-1.326,1.8c-.021,1.423,1.7,1.722,1.7,1.722a2.428,2.428,0,0,0-.247.219,1.7,1.7,0,0,0,.833,2.848l.776.176a1.68,1.68,0,0,0-1.035,1.414c.028,1.873,4.239,2.231,4.239,2.231s10.408,1.647,10.632,1.572S3178.328-272.808,3178.328-272.808Z" transform="translate(-3161.385 276.856)" fill="#ffbe9d"/>
            </g>
            <g id="Grupo_57982" data-name="Grupo 57982" transform="translate(2.886)">
              <path id="Trazado_130153" data-name="Trazado 130153" d="M3169.394-284.378a3.038,3.038,0,0,0,1.24,2.526l5.8-.227s-4.318-1.49-4.933-2.227a5.009,5.009,0,0,0-.828-.81A.82.82,0,0,0,3169.394-284.378Z" transform="translate(-3169.392 285.267)" fill="#ffbe9d"/>
            </g>
          </g>
          <g id="Grupo_57985" data-name="Grupo 57985" transform="translate(1.909 2.939)">
            <g id="Grupo_57984" data-name="Grupo 57984">
              <path id="Trazado_130154" data-name="Trazado 130154" d="M3171.973-276.922a8.519,8.519,0,0,1-2.648.188,10.73,10.73,0,0,1-2.643-.188,8.526,8.526,0,0,1,2.648-.187A10.767,10.767,0,0,1,3171.973-276.922Z" transform="translate(-3166.682 277.113)" fill="#eb996e"/>
            </g>
          </g>
          <g id="Grupo_57987" data-name="Grupo 57987" transform="translate(1.346 6.155)">
            <g id="Grupo_57986" data-name="Grupo 57986">
              <path id="Trazado_130155" data-name="Trazado 130155" d="M3169.671-267.977a5.357,5.357,0,0,1-2.286.233,5.357,5.357,0,0,1-2.264-.4,10.637,10.637,0,0,1,2.278.021A10.627,10.627,0,0,1,3169.671-267.977Z" transform="translate(-3165.12 268.19)" fill="#eb996e"/>
            </g>
          </g>
          <g id="Grupo_57989" data-name="Grupo 57989" transform="translate(7.82 5.942)">
            <g id="Grupo_57988" data-name="Grupo 57988">
              <path id="Trazado_130156" data-name="Trazado 130156" d="M3184.11-268.768c.086.053-.025.369-.353.58s-.661.185-.674.085.215-.231.471-.4S3184.022-268.827,3184.11-268.768Z" transform="translate(-3183.082 268.781)" fill="#eb996e"/>
            </g>
          </g>
          <g id="Grupo_57991" data-name="Grupo 57991" transform="translate(1.55 9.755)">
            <g id="Grupo_57990" data-name="Grupo 57990">
              <path id="Trazado_130157" data-name="Trazado 130157" d="M3170.67-257.913a8.522,8.522,0,0,1-2.5.105,8.512,8.512,0,0,1-2.487-.269,8.408,8.408,0,0,1,2.5-.106A8.4,8.4,0,0,1,3170.67-257.913Z" transform="translate(-3165.684 258.2)" fill="#eb996e"/>
            </g>
          </g>
          <g id="Grupo_57993" data-name="Grupo 57993" transform="translate(8.639 8.491)">
            <g id="Grupo_57992" data-name="Grupo 57992">
              <path id="Trazado_130158" data-name="Trazado 130158" d="M3186.565-261.708c.046-.013.136.1.164.332a1.18,1.18,0,0,1-.25.847,1.183,1.183,0,0,1-.765.443c-.228.027-.363-.033-.361-.081,0-.1.5-.167.831-.593S3186.465-261.686,3186.565-261.708Z" transform="translate(-3185.353 261.709)" fill="#eb996e"/>
            </g>
          </g>
          <g id="Grupo_57995" data-name="Grupo 57995" transform="translate(2.948 13.031)">
            <g id="Grupo_57994" data-name="Grupo 57994">
              <path id="Trazado_130159" data-name="Trazado 130159" d="M3174.026-248.5a6.9,6.9,0,0,1-2.254-.09,6.912,6.912,0,0,1-2.209-.462,6.916,6.916,0,0,1,2.255.09A6.905,6.905,0,0,1,3174.026-248.5Z" transform="translate(-3169.563 249.111)" fill="#eb996e"/>
            </g>
          </g>
          <g id="Grupo_57997" data-name="Grupo 57997" transform="translate(9.486 11.811)">
            <g id="Grupo_57996" data-name="Grupo 57996">
              <path id="Trazado_130160" data-name="Trazado 130160" d="M3188.866-252.5c.048-.007.119.12.113.345a1.4,1.4,0,0,1-.31.788c-.425.514-.9.7-.954.63-.074-.089.308-.429.658-.86S3188.77-252.48,3188.866-252.5Z" transform="translate(-3187.705 252.497)" fill="#eb996e"/>
            </g>
          </g>
        </g>
        <g id="Grupo_57999" data-name="Grupo 57999" transform="translate(82.493 123.902)">
          <path id="Trazado_130161" data-name="Trazado 130161" d="M3390.827-160.826a6.628,6.628,0,0,0,5.029-3.168c.119-.2.221-.474.066-.648a.575.575,0,0,0-.438-.132,13.61,13.61,0,0,0-4.765.817.651.651,0,0,0-.428.32.659.659,0,0,0,.02.393l.612,2.356" transform="translate(-3390.267 164.775)" fill="#e8505b"/>
        </g>
        <g id="Grupo_58001" data-name="Grupo 58001" transform="translate(82.493 123.902)">
          <g id="Grupo_58000" data-name="Grupo 58000" transform="translate(0 0)">
            <path id="Trazado_130162" data-name="Trazado 130162" d="M3390.827-160.826a6.628,6.628,0,0,0,5.029-3.168c.119-.2.221-.474.066-.648a.575.575,0,0,0-.438-.132,13.61,13.61,0,0,0-4.765.817.651.651,0,0,0-.428.32.659.659,0,0,0,.02.393l.612,2.356" transform="translate(-3390.267 164.775)" fill="#455a64"/>
          </g>
        </g>
        <g id="Grupo_58007" data-name="Grupo 58007" transform="translate(32.239 45.804)">
          <g id="Grupo_58002" data-name="Grupo 58002">
            <path id="Trazado_130163" data-name="Trazado 130163" d="M3252.678-381.464s-2.388,8.015-1.729,7.559,2.084-1.721,2.084-1.721Z" transform="translate(-3250.834 381.464)" fill="#ebebeb"/>
          </g>
          <g id="Grupo_58003" data-name="Grupo 58003" transform="translate(0.328 3.695)">
            <path id="Trazado_130164" data-name="Trazado 130164" d="M3253.4-371.211l-1.305,3.12a4.209,4.209,0,0,0-.253,1.008c-.109.874-.233,2.476.288,2.588a1.753,1.753,0,0,0,1.4-.577Z" transform="translate(-3251.742 371.211)" fill="#263238"/>
          </g>
          <g id="Grupo_58006" data-name="Grupo 58006" transform="translate(0.169 1.79)">
            <g id="Grupo_58004" data-name="Grupo 58004">
              <path id="Trazado_130165" data-name="Trazado 130165" d="M3293.607-374.1s-12.772-4.983-19.844-.582-8.361,11.422-12.572,11.422c-8.213,0-7.951-5.8-7.951-5.8l-1.745.529c-.034,1.186-1.9,9.7,6.751,10.755s12.293-10.744,20.08-10.755a25.844,25.844,0,0,1,13.7,4.211l5.594-3.538Z" transform="translate(-3251.302 376.499)" fill="#263238"/>
            </g>
            <g id="Grupo_58005" data-name="Grupo 58005" transform="translate(9.533 0.665)">
              <path id="Trazado_130166" data-name="Trazado 130166" d="M3277.751-356.733a12,12,0,0,0,4.927-5.653c1.984-4.578,6.243-9.8,9.8-11.117s11.785-2.23,17.468,1.474l3.64,4.917-4.725,3.065a43.93,43.93,0,0,0-8.328-3.334c-5.873-1.64-9.443.212-12.858,3.444-.212.2-.407.4-.577.593a38.769,38.769,0,0,1-5.406,4.786A8.526,8.526,0,0,1,3277.751-356.733Z" transform="translate(-3277.751 374.653)" fill="#455a64"/>
            </g>
          </g>
        </g>
      </g>
      <g id="Grupo_58016" data-name="Grupo 58016" transform="translate(2272.951 -618.057)">
        <g id="Grupo_58009" data-name="Grupo 58009" transform="translate(0.313)">
          <path id="Trazado_130167" data-name="Trazado 130167" d="M2435.714-581.949c-7.575,1.167-13.129-5.2-14.9-10.861-1.635-5.229-2.412-10.67-4.709-15.645-3.21-6.952-11.712-10.164-19.342-9.522s-15.319,4.466-22.07,8.08l1.862,41.848s14.7-15.655,21.765-15.94c11.786-.476,11.144,18.9,22.59,21.759,0,0,16.046,4.35,26.894-9.662a39.429,39.429,0,0,0,7.495-19.7S2450.026-584.154,2435.714-581.949Z" transform="translate(-2374.693 618.057)" fill="#c1507f"/>
        </g>
        <g id="Grupo_58011" data-name="Grupo 58011" transform="translate(0 1.217)">
          <g id="Grupo_58010" data-name="Grupo 58010">
            <path id="Trazado_130168" data-name="Trazado 130168" d="M2373.828-614.68c.1,0,2.165,44.434,4.6,99.244,2.44,54.829,4.333,99.265,4.23,99.27s-2.165-44.424-4.6-99.253C2375.618-570.229,2373.725-614.675,2373.828-614.68Z" transform="translate(-2373.824 614.68)" fill="#263238"/>
          </g>
        </g>
        <g id="Grupo_58013" data-name="Grupo 58013" transform="translate(40.465 22.352)" opacity="0.2">
          <g id="Grupo_58012" data-name="Grupo 58012">
            <path id="Trazado_130169" data-name="Trazado 130169" d="M2486.1-556.039a50.929,50.929,0,0,0,5.571,12.561c2.182,3.416,5.491,6.292,9.459,7.12a9.2,9.2,0,0,1,2.123.551,2.052,2.052,0,0,1,1.264,1.665c.03,1.1-1.1,1.813-2.086,2.3a17.193,17.193,0,0,1-4.354,1.673c-1.533.287-2.735.447-3.788-.7a22.007,22.007,0,0,1-2.739-3.282c-3.458-5.892-5.169-14.321-5.45-20.988" transform="translate(-2486.098 556.039)"/>
          </g>
        </g>
        <g id="Grupo_58015" data-name="Grupo 58015" transform="translate(39.759 13.64)">
          <g id="Grupo_58014" data-name="Grupo 58014">
            <path id="Trazado_130170" data-name="Trazado 130170" d="M2495.089-544.627a1.522,1.522,0,0,1-.34-.194c-.216-.139-.524-.359-.9-.665a15.6,15.6,0,0,1-2.794-3.035,23.3,23.3,0,0,1-2.8-5.441,60.056,60.056,0,0,1-2.072-7.191,80.287,80.287,0,0,1-1.93-13.437c-.1-1.736-.113-3.142-.112-4.114.01-.451.018-.821.025-1.119a1.545,1.545,0,0,1,.035-.39,1.549,1.549,0,0,1,.041.39c.012.3.027.666.046,1.117.044.969.1,2.371.23,4.1a89.827,89.827,0,0,0,2.031,13.371,63.925,63.925,0,0,0,2.031,7.155,24,24,0,0,0,2.691,5.409,16.942,16.942,0,0,0,2.671,3.076C2494.663-544.957,2495.108-544.654,2495.089-544.627Z" transform="translate(-2484.139 580.213)" fill="#263238"/>
          </g>
        </g>
      </g>
      <g id="Grupo_58017" data-name="Grupo 58017" transform="translate(2227.277 -409.491)">
        <path id="Trazado_130171" data-name="Trazado 130171" d="M2247.1-39.374l100.085,16.385V-39.374Z" transform="translate(-2247.098 39.374)" fill="#e0e0e0"/>
      </g>
      <g id="Grupo_58018" data-name="Grupo 58018" transform="translate(2343.884 -372.478)">
        <path id="Trazado_130172" data-name="Trazado 130172" d="M2570.634,63.323,2670.72,79.708V63.323Z" transform="translate(-2570.634 -63.323)" fill="#e0e0e0"/>
      </g>
      <g id="Grupo_58019" data-name="Grupo 58019" transform="translate(2459.688 -337.071)">
        <path id="Trazado_130173" data-name="Trazado 130173" d="M2891.941,161.561l100.085,16.385V161.561Z" transform="translate(-2891.941 -161.561)" fill="#e0e0e0"/>
      </g>
      <g id="Grupo_58020" data-name="Grupo 58020" transform="translate(2227.277 -421.763)">
        <rect id="Rectángulo_31168" data-name="Rectángulo 31168" width="100.085" height="12.272" transform="translate(0 0)" fill="#26aab7"/>
      </g>
      <g id="Grupo_58021" data-name="Grupo 58021" transform="translate(2296.131 -421.763)" opacity="0.3">
        <rect id="Rectángulo_31169" data-name="Rectángulo 31169" width="31.232" height="12.272" transform="translate(0 0)"/>
      </g>
      <g id="Grupo_58022" data-name="Grupo 58022" transform="translate(2343.884 -384.75)">
        <rect id="Rectángulo_31170" data-name="Rectángulo 31170" width="100.085" height="12.272" transform="translate(0 0)" fill="#26aab7"/>
      </g>
      <g id="Grupo_58023" data-name="Grupo 58023" transform="translate(2412.738 -384.75)" opacity="0.3">
        <rect id="Rectángulo_31171" data-name="Rectángulo 31171" width="31.232" height="12.272" transform="translate(0 0)"/>
      </g>
      <g id="Grupo_58024" data-name="Grupo 58024" transform="translate(2459.688 -349.343)">
        <rect id="Rectángulo_31172" data-name="Rectángulo 31172" width="100.085" height="12.272" transform="translate(0)" fill="#26aab7"/>
      </g>
      <g id="Grupo_58025" data-name="Grupo 58025" transform="translate(2528.542 -349.343)" opacity="0.3">
        <rect id="Rectángulo_31173" data-name="Rectángulo 31173" width="31.232" height="12.272" transform="translate(0)"/>
      </g>
      <g id="Grupo_58026" data-name="Grupo 58026" transform="translate(2575.492 -321.168)">
        <rect id="Rectángulo_31174" data-name="Rectángulo 31174" width="100.085" height="12.272" transform="translate(0 0)" fill="#26aab7"/>
      </g>
      <g id="Grupo_58027" data-name="Grupo 58027" transform="translate(2644.346 -321.168)" opacity="0.3">
        <rect id="Rectángulo_31175" data-name="Rectángulo 31175" width="31.232" height="12.272" transform="translate(0 0)"/>
      </g>
      <g id="Grupo_58029" data-name="Grupo 58029" transform="translate(2613.897 -368.558)">
        <g id="Grupo_58028" data-name="Grupo 58028" transform="translate(0 0)">
          <path id="Trazado_130174" data-name="Trazado 130174" d="M3319.807,76.919a2.722,2.722,0,1,0,2.722-2.721A2.722,2.722,0,0,0,3319.807,76.919Z" transform="translate(-3319.807 -74.197)" fill="#ebebeb"/>
        </g>
      </g>
    </g>
  </g>
</svg>
