<svg xmlns="http://www.w3.org/2000/svg" xmlns:xlink="http://www.w3.org/1999/xlink" width="91.928" height="91.927" viewBox="0 0 91.928 91.927">
  <defs>
    <radialGradient id="radial-gradient" cx="0.076" cy="0.019" r="1.465" gradientTransform="translate(0.001)" gradientUnits="objectBoundingBox">
      <stop offset="0" stop-color="#f6f6f7"/>
      <stop offset="0.477" stop-color="#f9f9fa"/>
      <stop offset="0.715" stop-color="#fff"/>
    </radialGradient>
  </defs>
  <g id="Grupo_58723" data-name="Grupo 58723" transform="translate(12710.428 2433.388)">
    <g id="Grupo_58684" data-name="Grupo 58684" transform="translate(-12927.428 -3174.722)">
      <g id="Grupo_42274" data-name="Grupo 42274" transform="translate(142 768.333)">
        <g id="Grupo_18423" data-name="Grupo 18423" transform="translate(75 -27)">
          <g id="Grupo_18421" data-name="Grupo 18421">
            <g id="Grupo_18420" data-name="Grupo 18420">
              <g id="Grupo_18419" data-name="Grupo 18419">
                <path id="Trazado_40936" data-name="Trazado 40936" d="M286.55,2191.684a45.964,45.964,0,1,1-45.963-45.962A45.963,45.963,0,0,1,286.55,2191.684Z" transform="translate(-194.623 -2145.721)" fill="#fff"/>
              </g>
            </g>
          </g>
          <path id="Trazado_40937" data-name="Trazado 40937" d="M286.23,2191.334a45.963,45.963,0,1,0-45.963,45.965A45.782,45.782,0,0,0,286.23,2191.334Z" transform="translate(-194.303 -2145.372)" fill="url(#radial-gradient)"/>
          <path id="Trazado_40938" data-name="Trazado 40938" d="M272.56,2188.562a35.084,35.084,0,1,0-35.084,35.084A34.953,34.953,0,0,0,272.56,2188.562Z" transform="translate(-191.373 -2142.446)" fill="none" stroke="#7d70b0" stroke-miterlimit="10" stroke-width="4"/>
          <g id="Grupo_18422" data-name="Grupo 18422" transform="translate(8.143 25.805)">
            <path id="Trazado_40939" data-name="Trazado 40939" d="M279.682,2164.488a45.969,45.969,0,0,1-79.137,45.773,45.823,45.823,0,0,0,79.137-45.773Z" transform="translate(-200.545 -2164.488)" fill="#eceef0"/>
          </g>
        </g>
      </g>
    </g>
    <g id="Grupo_58685" data-name="Grupo 58685" transform="translate(-13221.998 -4858.817)">
      <g id="Arts-Study-Computer_presentation-School-Education" data-name="Arts-Study-Computer presentation-School-Education" transform="translate(537.659 2454.142)">
        <path id="Trazado_17829" data-name="Trazado 17829" d="M580.75,2471.473a2.651,2.651,0,1,0,2.651,2.651A2.652,2.652,0,0,0,580.75,2471.473Zm0,3.976a1.326,1.326,0,1,1,1.325-1.326A1.329,1.329,0,0,1,580.75,2475.449Z" transform="translate(-559.551 -2463.524)" fill="#7d6eb2"/>
        <path id="Trazado_17830" data-name="Trazado 17830" d="M594.535,2478.692a1.988,1.988,0,1,0,1.991,1.991A1.988,1.988,0,0,0,594.535,2478.692Zm0,2.651a.663.663,0,1,1,.665-.66A.661.661,0,0,1,594.535,2481.343Z" transform="translate(-567.374 -2467.432)" fill="#7d6eb2"/>
        <path id="Trazado_17831" data-name="Trazado 17831" d="M598.87,2490.252a1.986,1.986,0,1,0,1.986,1.986A1.988,1.988,0,0,0,598.87,2490.252Zm0,2.651a.663.663,0,1,1,.66-.665A.666.666,0,0,1,598.87,2492.9Z" transform="translate(-569.718 -2473.69)" fill="#7d6eb2"/>
        <path id="Trazado_17832" data-name="Trazado 17832" d="M575.42,2454.142H539.645a1.99,1.99,0,0,0-1.986,1.986v31.8a2,2,0,0,0,1.986,1.99h12.677l-1.963,2.944a.662.662,0,0,0,.55,1.028h13.25a.662.662,0,0,0,.55-1.028l-1.963-2.944H575.42a2,2,0,0,0,1.991-1.99v-31.8A1.994,1.994,0,0,0,575.42,2454.142Zm-12.5,38.421H552.148l1.77-2.646h7.233Zm13.163-4.636a.665.665,0,0,1-.665.664H539.645a.664.664,0,0,1-.66-.664v-1.986h37.1Zm0-3.312h-37.1v-28.487a.66.66,0,0,1,.66-.66H575.42a.661.661,0,0,1,.665.66Z" transform="translate(-537.659 -2454.142)" fill="#7d6eb2"/>
        <path id="Trazado_17833" data-name="Trazado 17833" d="M574.477,2490.129v0l-7.288-12.618a.655.655,0,0,0-.4-.312.666.666,0,0,0-.5.064l-2.293,1.325a.667.667,0,0,0-.243.909l7.288,12.622a.634.634,0,0,0,.573.33.718.718,0,0,0,.335-.087l2.289-1.326A.657.657,0,0,0,574.477,2490.129Zm-2.624.748-6.628-11.475,1.147-.666L573,2490.211Z" transform="translate(-551.732 -2466.609)" fill="#7d6eb2"/>
        <path id="Trazado_17834" data-name="Trazado 17834" d="M561.593,2465.035v0l-.628-1.082a3.3,3.3,0,0,0-1.257-1.243l-2.738-1.514a.656.656,0,0,0-.656,0,.666.666,0,0,0-.33.564l-.055,3.128a3.329,3.329,0,0,0,.445,1.706l.628,1.087a1.993,1.993,0,0,0,2.715.73l1.147-.661A1.985,1.985,0,0,0,561.593,2465.035Zm-1.087,1.166a.643.643,0,0,1-.3.4l-1.147.661a.667.667,0,0,1-.908-.243l-.628-1.087a2.021,2.021,0,0,1-.266-1.028l.032-2.022,1.775.981a1.962,1.962,0,0,1,.757.743l.624,1.087A.629.629,0,0,1,560.506,2466.2Z" transform="translate(-547.549 -2457.912)" fill="#7d6eb2"/>
        <path id="Trazado_17835" data-name="Trazado 17835" d="M586.776,2486.225a.673.673,0,0,1-.537.16.666.666,0,0,1-.56-.752,1.286,1.286,0,0,0,.014-.187,2.653,2.653,0,0,0-2.651-2.652.662.662,0,0,1,0-1.325,3.985,3.985,0,0,1,3.8,2.816,11.262,11.262,0,0,0-12.191-18.075.664.664,0,0,1-.445-1.252,12.6,12.6,0,0,1,13.585,3.495c.193.216.381.44.55.665a12.351,12.351,0,0,1,1.413,2.28A12.6,12.6,0,0,1,586.776,2486.225Z" transform="translate(-557.207 -2459.609)" fill="#7d6eb2"/>
        <path id="Trazado_17836" data-name="Trazado 17836" d="M564.182,2493.688a7.949,7.949,0,0,1-5.623-9.736v0a.663.663,0,1,0-1.27-.378c0,.011-.006.023-.009.035a9.286,9.286,0,0,0,6.559,11.36.686.686,0,0,0,.171.025.663.663,0,0,0,.171-1.3Z" transform="translate(-548.11 -2469.817)" fill="#7d6eb2"/>
      </g>
    </g>
  </g>
</svg>
