<svg xmlns="http://www.w3.org/2000/svg" xmlns:xlink="http://www.w3.org/1999/xlink" width="393.817" height="428.817" viewBox="0 0 393.817 428.817">
  <defs>
    <clipPath id="clip-path">
      <circle id="Elipse_3970" data-name="Elipse 3970" cx="193.409" cy="193.409" r="193.409" fill="#fff" stroke="#26aab7" stroke-miterlimit="10" stroke-width="7" opacity="0.58"/>
    </clipPath>
  </defs>
  <g id="Grupo_58802" data-name="Grupo 58802" transform="translate(3959.506 8241.416)">
    <line id="Línea_1539" data-name="Línea 1539" y2="18" transform="translate(-3841.188 -8240.916)" fill="none" stroke="#e0e0e0" stroke-linecap="round" stroke-width="1"/>
    <g id="Grupo_58737" data-name="Grupo 58737" transform="translate(-5481.969 -7422.256)">
      <g id="Grupo_58087" data-name="Grupo 58087" transform="translate(1538.611 -706.234)">
        <g id="Grupo_58086" data-name="Grupo 58086">
          <path id="Trazado_130385" data-name="Trazado 130385" d="M1559.128-697.5c-2.577-4.084-3.975-4.319-6.712-.673-1.689,2.25-3.276,4.316-6.06,5.391-1.243.481-2.007,1.622-.884,3.545,1.012,1.731.474,4.014-1.277,5.622a18.051,18.051,0,0,0-3.474,3.6c-.537.891-1.468,2.006-.187,3.58,1.675,2.057,1.423,4.536.174,7.076-1.1,2.236-1.394,4.713.96,6.751,1.482,1.282,1.445,3.313,1.02,4.929-.929,3.524-1.149,7.127-1.739,10.685-.475,2.863-1.515,5.617-1.757,8.543-.145,1.748.505,3.075,2.162,3.5,1.279.329,2.1-.552,2.882-1.688a22.381,22.381,0,0,0,3.6-7.841,80.666,80.666,0,0,1,5.484-16.8c1.108-2.328,4.015-2.95,4.482-5.793-2.816-2.607-3.169-5.694-.755-8.694,1.7-2.109,1.8-3.736.01-5.786a6.542,6.542,0,0,1-1.394-2.809c-.293-1.6-.547-4.188,1.682-4.1,3.5.139,5.086-2.149,7.121-4.065v-.356C1563.262-695.079,1560.437-695.417,1559.128-697.5Z" transform="translate(-1539.173 702.835)" fill="#ccc"/>
          <path id="Trazado_130386" data-name="Trazado 130386" d="M1605.982-686.9c-3.342-2.576-7.633-4.343-6.58-9.273-2.9-.25-4.424,1.329-4.524,2.8-.187,2.739-1.942,3.052-3.715,3.127-3.266.139-5.134,2.253-7.111,4.333l.355.355c-.051,2.57.168,4.957-1.988,7.253-1.412,1.5-.866,4.419.628,6.213,1.409,1.693,1.694,3.008.745,5.076-.739,1.611.246,3.154,2.038,3.872.356-.119.844-.129,1.048-.375,3.9-4.739,10.154-5.978,14.687-9.846,1.45-1.237,2.911-1.918,2.035-4.005C1602.124-680.89,1603.115-683.871,1605.982-686.9Z" transform="translate(-1540.977 702.642)" fill="#ccc"/>
          <path id="Trazado_130387" data-name="Trazado 130387" d="M1592.521-698.267c2.559-1.682,1.25-3.114-.02-4.655h-.711c-2.044-.125-2.377,1.89-3.9,2.664C1589.155-698.283,1590.011-696.617,1592.521-698.267Z" transform="translate(-1541.244 702.928)" fill="#ccc"/>
        </g>
      </g>
      <g id="Grupo_58098" data-name="Grupo 58098" transform="translate(1525.963 -780.66)">
        <circle id="Elipse_3963" data-name="Elipse 3963" cx="193.409" cy="193.409" r="193.409" fill="#fff" stroke="rgba(0,0,0,0)" stroke-width="1" opacity="0.58"/>
        <g id="Grupo_58097" data-name="Grupo 58097" clip-path="url(#clip-path)">
          <g id="Grupo_58090" data-name="Grupo 58090" transform="translate(-38.565 -51.2)">
            <g id="Grupo_58088" data-name="Grupo 58088" transform="translate(66.64)">
              <path id="Trazado_130388" data-name="Trazado 130388" d="M1873.832-663.229c-3.028-1.022-3.107-3.854-4.194-6.059-.309-.625.341-1.536-.451-2.112-6.932-5.042-7.612-13.109-9.73-20.42-1.759-6.077-2.636-6.82-8.55-5.513-.284-.283-.7-.516-.831-.858-2.236-5.828-2.187-5.758-7.691-2.577-2.135,1.234-4.317,0-6.488-.387a10.719,10.719,0,0,1-4.443,3.028c-1.5.5-1.91,1.967-2.052,3.448a24.4,24.4,0,0,0,.4,6.769,6.645,6.645,0,0,1-1.421,5.958c-.093.106-.176.222-.269.329-4.1,4.738-3.3,10.215-2.627,15.735,1.64.251,1.792-.967,2.217-1.738a10.211,10.211,0,0,1,2.466-3.417,2.061,2.061,0,0,1,3.526,1.28,9.852,9.852,0,0,1-1.131,7.376,13.545,13.545,0,0,0-2.212,6.354c-.1,2.117.181,3.713,2.6,4.676,2.969,1.182,3.2,2.439,1.8,5.266-.182.369-.766.8-.682,1,2.051,4.913-3.024,6.633-4.464,9.964-.627,1.448-2.082,1.792-3.608,1.7-.657-.04-1.5-.307-1.572.788-.053.842.547,1.281,1.233,1.519a11.484,11.484,0,0,0,2.454.628c1.68.187,3.4.043,4.986.842.705.357,1.379.326,1.761-.486,1.027-2.177,3.138-2.155,5.056-2.544,1.791-.363,3.618-.2,5.434-.771a3.682,3.682,0,0,1,4.621,2.714c.642,2.561,2.426,4.474,3.331,6.748,1.9,4.77,4.037,9.67,2.852,15.052-.218,1,.039,1.183.8,1.461a71.829,71.829,0,0,1,9.266,4.659,21.327,21.327,0,0,1,3.387,2.523c2.049,1.684,3.571,1.782,5.639.288a13.244,13.244,0,0,1,4.17-2.028c1.514-.432,3.218-.919,4.109-2.089a6.634,6.634,0,0,1,4.507-2.973,7.312,7.312,0,0,1-.561-2.66c-.037-1.274-.006-2.551-.006-3.826,0-6.822-2.584-8.818-9.353-7.228-2.594.61-4.721-1.154-5.146-3.819-.619-3.879-2.411-7.422-3.88-11.02a28.411,28.411,0,0,0-1.915-4.788c-.475-.753-.758-2.825.76-3.25,2.528-.71,3.2-3.486,5.5-4.347,2.192-.82,2.243-2.667,2.164-4.661-.1-2.546-1.826-4.992-.121-7.708C1876.111-661.418,1874.732-662.925,1873.832-663.229Z" transform="translate(-1574.029 850.453)" fill="#b1a8d1" stroke="rgba(0,0,0,0)" stroke-width="1"/>
              <path id="Trazado_130389" data-name="Trazado 130389" d="M1870.818-376.193c2.188-1.033,3.826.061,5.274,1.541a4.163,4.163,0,0,0,3.129.99,20.636,20.636,0,0,0,7.088-1.141c2.448-.758,4.875-1.27,7.495-.472a16.747,16.747,0,0,0,4.641.36c6.781.064,13.532-.166,20.159-1.881.993-.258,1.532-.6,1.559-1.587.035-1.274.021-2.55.016-3.825q-.112-31.453-.228-62.905c-.018-4.959-.016-9.919-.1-14.877-.05-2.9-.862-3.441-3.6-2.589a6.088,6.088,0,0,0-1.927.873c-4.488,3.48-9.926,5.459-14.313,9.105a14.273,14.273,0,0,1-2.921,1.688c-5.053,2.462-10.724,3.665-15.024,7.677a5.021,5.021,0,0,1-5.211.921,5,5,0,0,0-5.127.928,8.341,8.341,0,0,1-7.276,1.428,11.29,11.29,0,0,0-7.408.919,52.135,52.135,0,0,1-7.175,2.57c-4.395,1.117-5.639.254-6.827-4.2-.219-.819-.462-1.632-.63-2.462a5.144,5.144,0,0,0-2.9-3.961,5.6,5.6,0,0,1-3.718-5.592c-.007-1.369-.912-2.3-2.617-2.508-.222,1.4-.454,2.773-.656,4.152a77.934,77.934,0,0,1-3.075,13.656c-1.059,3.139-2.326,3.42-4.922,1.6a10.325,10.325,0,0,0-9.5-1.593c-2.737.873-3.864.375-5.076-2.218-.776-1.664-1.309-3.439-2.032-5.129-.933-2.187-5.455-3.139-7.28-1.58a1.4,1.4,0,0,0-.483,1.861c1.48,2.721.016,5.892,1.441,8.692a3.137,3.137,0,0,1-1.267,3.784c-4.512,3.355-8.834,7.352-15.223,5.525-.708-.2-1.443-.507-1.98.059-1.885,1.985-4.727,3.215-4.816,6.609a13.882,13.882,0,0,1-3.841,9.119c-1.814,2.039-3.343,3.85-6.361,2.994-.714-.2-1.68-.187-1.854.536-.754,3.131-3.463,5.148-3.958,8.664-.95,6.762-1.887,13.969-9.439,17.33-.16.072-.176.468-.262.718.7,1.009,1.815.49,2.724.725,2.372.612,2.26,3.056,3.459,4.487,1.245,1.485,4.23.474,4.963,3.212.8,3,1.234,5.876-1.078,8.392a8.925,8.925,0,0,0-2.143,5.408c-.8,7.5,1.473,14.565,3.065,21.725a2.1,2.1,0,0,0,.625,1.091c3.788,3.172,6.384,8.008,12.418,7.964,2.889-.022,5.568,1.28,6.128,4.784a1.891,1.891,0,0,0,2.062,1.717,4.156,4.156,0,0,1,3,1.4c1.3,1.381,2.824,1.082,4.341.607,4.107-1.284,8.073-3.18,12.454-2.3,0-4.749.08-8.981-.02-13.209-.13-5.521-.511-11.037-.574-16.557-.043-3.671.607-3.95,4.309-3.243,3.723.713,7.34,2.265,11.269,1.539a35.873,35.873,0,0,1,6.752-.512,9.831,9.831,0,0,0,7.878-3.465,14.586,14.586,0,0,0,2.949-5.041c.941-2.846,4.18-4.124,5.523-2.159,1.836,2.688,3.045,2.582,4.919.315a4.854,4.854,0,0,1,2.239-1.159c3.474-1.118,5.951-4.852,10.221-3.912.192.042.524-.241.693-.451,2.184-2.717,4.823-3.529,8.264-1.347C1868.966-372.952,1868.538-375.116,1870.818-376.193Z" transform="translate(-1561.473 808.503)" fill="#b1a8d1" stroke="rgba(0,0,0,0)" stroke-width="1"/>
              <path id="Trazado_130390" data-name="Trazado 130390" d="M1805.784-701.935c.871,3.426,1.8,6.841,2.815,10.228a22.092,22.092,0,0,1,.843,9.226c-.382,3.035-1.434,6.089-.126,9.156-2.165,3.788-.765,7.268.775,10.825a5.873,5.873,0,0,1-.179,3.766,8.526,8.526,0,0,0,.747,6.639,9.7,9.7,0,0,1,8.4-.345,3.925,3.925,0,0,0,1.678.1c.579-.053,1.272-.368,1.3-.923.125-2.746,4.375-2.9,3.741-6.118-.265-1.349-.781-2.74.077-4.129.476-.77.01-1.289-.743-1.62-2.872-1.263-3.009-3.807-3.039-6.436-.037-3.217,1.294-6.018,2.629-8.526-.173-.759-.331-.8-.614-.5-1.277,1.33-2.552,2.981-4.631,2.416-2.392-.649-2.179-3.038-2.66-4.9-.53-2.061.659-4.527-1.706-6.2-.7-.5-.055-1.633.537-2.254,2.289-2.4,2.99-5.771,5.13-8.28,1.455-1.7.782-3.809.488-5.726a15.847,15.847,0,0,1,.205-7.15c.511-1.682,1.293-3.353,3.036-3.847,2.539-.722,4.037-2.565,5.519-4.435.068-.086.141-.166.209-.251,1.676-4.253,4.494-7.881,5.3-12.762.573-3.486,4.406-6.319,7.322-8.983,1.609-1.471,2.4-2.73.958-5.163-2.476-4.181-.274-8.578.888-12.65.771-2.706,1.767-5.275,1.542-8.117a4.822,4.822,0,0,1,.12-1.534c-2.485-2.505-5.77-2.862-9.148-2.72-4.236.179-5.468-1.32-3.975-5.231.2-.527.508-1.013.721-1.537,1.273-3.127.317-4.984-3.028-5.908-2.683-.742-2.835-.983-2.393-3.793.556-3.53-.152-4.371-3.608-4.043-3.96.376-7.646,1.845-12.01,2.973,4.939,3.42,3.68,7.088,1.16,10.8a12.643,12.643,0,0,0-1.707,4.323,5.576,5.576,0,0,1-4.542,4.5c-2.119.472-3.856,1.749-5.808,2.556-4.414,1.827-6.1,5.6-7.347,9.8-.41,1.387.231,2.1,1.113,2.9,3.6,3.232,6.086,7.415,9.362,10.932a10.524,10.524,0,0,1,2.574,6.618c.272,3.816-1.837,5.621-5.474,4.715a3.69,3.69,0,0,1-.794-.3,5.594,5.594,0,0,0-6.678.779,8.813,8.813,0,0,1-1.945.927c.414,1.347,1.681,1.467,2.507,2.091a8.843,8.843,0,0,1,3.8,5.918,4.735,4.735,0,0,0,2.112,3.846,5.189,5.189,0,0,1,1.921,3.675c.356,1.943.512,3.9,2.175,5.349a1.859,1.859,0,0,1,.394,2.355C1804.3-706.548,1805.2-704.232,1805.784-701.935Z" transform="translate(-1568.504 866.327)" fill="#b1a8d1" stroke="rgba(0,0,0,0)" stroke-width="1"/>
              <path id="Trazado_130391" data-name="Trazado 130391" d="M1771.522-413.473a1.541,1.541,0,0,0,.293,2.259,1.539,1.539,0,0,0,2.283-.114c1.863-2.575,4.727-4.632,4.529-8.334-.168-3.108,1.266-5.4,3.623-7.278.881-.7,1.571-1.634,2.428-2.368a3.979,3.979,0,0,0,1.421-4.148c-.281-1.381-.36-2.8-.527-4.207a10.8,10.8,0,0,1,2.3-8.671c2.7-3.325,4.672-7.148,3.533-11.7,0-1.749.058-3.448-.021-5.138a2.278,2.278,0,0,0-1.556-2.3c-1.329-.347-1.6.856-1.965,1.728a15.622,15.622,0,0,1-2.567,4.371c-2.277,2.572-2.981,5.4-1.472,8.6a5.166,5.166,0,0,1,.4,3.711,33.847,33.847,0,0,0-1.248,10.436,5.637,5.637,0,0,1-3.359,5.435c-3.581,1.907-3.854,2.188-3.152,6.059a8.353,8.353,0,0,1-1.56,6.791C1773.739-416.751,1772.6-415.133,1771.522-413.473Z" transform="translate(-1564.719 808.956)" fill="#b1a8d1" stroke="rgba(0,0,0,0)" stroke-width="1"/>
              <path id="Trazado_130392" data-name="Trazado 130392" d="M1692.317-420.506c-1.723,3.858-1.63,8.356-4.363,11.825a2.7,2.7,0,0,0-.334,1.635,28.1,28.1,0,0,1-3.862,15.418,2.821,2.821,0,0,0,.159,3.55c1.535,1.661,3.1,3.478,5.221,4.252,1.763.644,2.878-1.418,4.4-2.03a6.557,6.557,0,0,0,1.1-.637c3.466-2.259,7.8-3.579,8.954-8.342a1.542,1.542,0,0,1,.862-.9c2.285-.857,2.823-2.946,3.669-4.881.556-1.267,1.136-3.189,2.563-3.125,3.159.142,6.579-.139,9.406.98,2.047.809,3.287.946,4.917-.215a12.743,12.743,0,0,1,2.2-1.268,3.731,3.731,0,0,1,3.959.758c1.16.907,1.021,2.162.71,3.493-.234,1-1.358,1.834-.721,3.243,2.76-.777,5.865-1.822,6.681-4.118.928-2.61,3.17-5.205,1.7-8.606-.877-2.036.414-3.991,2.745-4.442,6.154-1.191,7.405-6.488,9.125-11.037,1.639-4.334.338-9.246,2.187-14.37-1.389.152-2.066.45-2.452.232-2.876-1.622-5.3-.846-8.056.663-2.453,1.345-4.968.081-6.918-1.818-2.109-2.055-1.06-4.162.112-6.172,1.155-1.98,2.519-4.108,2.16-6.316-.65-4,.537-7.574,1.682-11.185,1.747-5.513-.645-11.164.744-16.687a16.4,16.4,0,0,0,.108-4.227c-.018-.931-.476-1.877-1.49-1.578-2.122.628-4.188.158-6.285.112a3.372,3.372,0,0,0-3.471,2.474c-1.916,4.7-3.165,5.091-7.7,3.024a2.218,2.218,0,0,0-1.777-.233,4.55,4.55,0,0,1-.594,1.4c-2.009,2.28-2.824,4.7-1.66,7.728.526,1.367-.078,2.643-1.233,3.781a6.441,6.441,0,0,0-1.686,6.145c1.073,5.565.683,6.223-4.27,9.09-2.081,1.2-4.629,2.523-4.872,5-.521,5.3-2.83,10.027-4.072,15.076a6.756,6.756,0,0,1-3.645,4.869C1695.123-426.4,1693.69-423.583,1692.317-420.506Z" transform="translate(-1549.344 812.614)" fill="#b1a8d1" stroke="rgba(0,0,0,0)" stroke-width="1"/>
              <path id="Trazado_130393" data-name="Trazado 130393" d="M1737.132-375.32a7.431,7.431,0,0,0,3.811-5.75c.663-3.742,2.215-7.3,2.362-11.181a2.716,2.716,0,0,1,.871-1.852c1.934-1.483,2.268-3.868,3.458-5.759.858-1.362.95-2.773-.407-4.7-.4.714-.586,1.081-.8,1.429-1.815,2.927-3.717,5.689-7.6,6.124-1.257.14-1.46,1.145-.827,2.221a3.7,3.7,0,0,1-.606,5,4.293,4.293,0,0,0-.9,2.318c-.93,3.887-6.828,8.206-10.8,7.935a6.213,6.213,0,0,1-2.049-.46c-1.772-.78-2.154-2.051-1.106-3.732.616-.989,1.76-1.716,1.669-3.09-.573-.1-.922-.282-1.1-.177-2.909,1.754-5.734,4.01-9.223,1.135a.865.865,0,0,0-.794-.006c-2.189,1.345-4.04.064-6.341-1.121-1.266,3.227-2.1,6.659-5.421,8.269-.164.08-.2.518-.217.795-.1,1.808-1.487,2.6-2.7,3.585a68.96,68.96,0,0,1-9.672,6.122c-2.147,1.22-2.948,2.759-2.469,5.186a21.5,21.5,0,0,0,.791,3.71c1.474,3.824,2.906,7.664,4.34,11.5a11.093,11.093,0,0,1,.762,2.405c.272,2.169-.524,2.92-2.666,3.473-3.34.861-5.348-.764-6.757-3.381-1.324.346-1.608,1.407-2.235,2.121-1.642,1.867-3.838,2.236-6.132,2.4-1.232.086-2.236-1.579-3.54-.561-1.208.942-.964,2.6-1.636,3.835a12.4,12.4,0,0,0-.768,1.975c-2.295,6.788-2.292,6.788-9.152,5.775-2.83-.418-3.749.492-2.876,3.235.568,1.783,1.344,3.448.433,5.294-.694,1.409.218,1.691,1.275,1.957,4.595,1.155,4.965,1.561,5.594,5.979.486,3.412.463,3.553,4.035,4.138,2.05.336,3.554.935,3.811,3.185.248,2.172,1.564,1.982,3.066,1.466,1.346-.462,2.867-1.164,4.042-.092,2.011,1.834,3.483.913,4.419-.843,2.825-5.3,7.76-8.97,10.67-14.175.574-1.027,1.356-2.054,2.568-1.966,2.7.193,3.732-1.659,4.724-3.544a25.951,25.951,0,0,1,7.027-8.41c2.059-1.617,3.294-3.43,3.007-6.1a4.425,4.425,0,0,1,2.97-5.008,11.337,11.337,0,0,0,5.912-6.366c.661-1.608,1.448-3.085,3.182-3.772a3.064,3.064,0,0,0,2.065-3.347c-.245-2.915,1.164-5.183,2.727-7.391C1730.531-369.231,1732.968-373.076,1737.132-375.32Z" transform="translate(-1544.602 798.297)" fill="#b1a8d1" stroke="rgba(0,0,0,0)" stroke-width="1"/>
              <path id="Trazado_130394" data-name="Trazado 130394" d="M1707.06-445.93a18.1,18.1,0,0,1,5-3.848,12.466,12.466,0,0,0,2.5-1.525,2.155,2.155,0,0,0,.535-2.341c-.332-1.133-1.3-.786-2.1-.776-1.968.025-3.936.087-5.9.092-1.71,0-3.233.023-4.336,1.836-.884,1.456-2.539,2.032-4.35,2.215-2.727.275-2.958.732-2.562,3.476.8,5.522,3.571,10.25,6.028,15.606a23.553,23.553,0,0,0,3.216-10.227A6.981,6.981,0,0,1,1707.06-445.93Z" transform="translate(-1551.525 807.022)" fill="#b1a8d1" stroke="rgba(0,0,0,0)" stroke-width="1"/>
              <path id="Trazado_130395" data-name="Trazado 130395" d="M1951.516-348.917c1.658-.715,3.468-1.2,5.279-3.14-2.481-.334-3.818.883-5.3,1.537-1.31.578-2.715,1.489-4.03.838-3.337-1.652-7.061-1.86-10.485-3.146-4.067-1.527-8.075-3.191-12.586-1.093a10.952,10.952,0,0,1-5.858.631,27.32,27.32,0,0,0-7.616.123,13.152,13.152,0,0,1-5.063-.287,15.443,15.443,0,0,0-7.932.385c-4.755,1.324-9.627,2.516-13.748-1.516-1.077,1.06-.489,2.074-.548,3.011-.171,2.652-1.24,3.514-3.841,2.985a8.971,8.971,0,0,1-1.946-.789c-.655-.309-1.419-.713-1.962-.1a8.915,8.915,0,0,1-7.619,2.886c-.758-.039-1.186.7-1.607,1.263a4.134,4.134,0,0,1-2.778,1.776,7.535,7.535,0,0,0-4.577,2.77c-1.721,1.891-3.565,1.748-5.6.047-.622-.519-.738-1.6-1.8-1.629-.583.268-.625.848-.808,1.359-2.183,6.078-8.224,10.156-14.042,9.436a13.09,13.09,0,0,0-3.788.262,23.263,23.263,0,0,1-11.713-.579c-2.632-.917-3.364-.314-3.272,2.427.129,3.818.4,7.631.534,11.449.257,7.065-.075,14.155.978,21.186.184,1.23-.063,2.464,1.019,3.524,3.049,2.991,5.548,6.359,6.422,10.679a2.929,2.929,0,0,0,1.137,1.728,81.6,81.6,0,0,1,8.109,8.085c3.014,3.2,6.263,5.916,10.91,2.639a5.663,5.663,0,0,1,1.3-.463c-.036-.707-.055-1.4-.111-2.086a10.564,10.564,0,0,1,3.257-7.971c1.911-1.87,5.738-2.128,8.759-1.288,5.865,1.631,9.727,6.418,14.514,9.757.922,4.7,4.765,7.265,7.692,10.5a1.415,1.415,0,0,1,.2.375c.8,1.762,2.1,2.262,4.072,2.28,1.912.017,3.51-.064,5.084-1.321a10.2,10.2,0,0,1,3.486-1.48,13.791,13.791,0,0,0,9.661-9.28c.535-1.579,1.209-2.512,3.04-1.939,1.158.362,1.966-.028,2.976-.885,2.353-2,2.59-3.887,1.173-6.594-1.43-2.732-1.053-4.254,1.438-5.81,2.005-1.253,2.842-2.675,2.326-4.867-1-4.233.774-7.725,2.786-11.2,1.047-1.811,2.358-2.738,4.521-2.092a5.893,5.893,0,0,0,6.176-1.769c1.713-1.683,3.632-3.161,5.3-4.886a5.715,5.715,0,0,1,4.5-1.693,60.291,60.291,0,0,0,12.586-1.193c6.765-1.619,13.608-2.891,20.085-5.886a26.57,26.57,0,0,0,7.494-5.615c-2.451-.4-4.836-.161-7.148-.47-1.867-.249-3.564-.537-5.339.389a4.341,4.341,0,0,1-5.44-.938,4.619,4.619,0,0,0-4.583-1.269c-4.158.733-5.859-.553-6.327-4.687-.338-2.981-1.41-4.92-4.419-6-2.625-.94-3.029-2.782-1.395-5.019A15.724,15.724,0,0,1,1951.516-348.917Z" transform="translate(-1572.953 789.617)" fill="#b1a8d1" stroke="rgba(0,0,0,0)" stroke-width="1"/>
              <path id="Trazado_130396" data-name="Trazado 130396" d="M1992.131-309.965c-2.031-.811-3.6.219-5.073,1.247a9.407,9.407,0,0,1-6.325,2.01,5.486,5.486,0,0,0-2.457.517,42.838,42.838,0,0,1-16.927,3.325c-2.4,0-4.623,1.419-7.112.776-.731-.189-1.242.514-1.767,1-1.669,1.531-3.4,2.993-5.047,4.546-2.274,2.146-4.742,3.584-8.029,2.687a1.739,1.739,0,0,0-2.217.748c-1.416,2.721-3.349,5.207-2.516,8.7.758,3.188.456,6.257-3.1,7.926-1.3.608-1.426,1.631-.784,2.829a10.224,10.224,0,0,1,.558,1.145c1.893,4.912-.175,8.976-5.328,10.013a4.308,4.308,0,0,0-3.213,2.273c-2.656,4.367-6.142,7.709-11.407,8.863-1.518.333-3.641.759-3.448,3.034.115,1.364.971,2.65,1.326,4.014a2.532,2.532,0,0,0,3.052,2.183c1.352-.124,2,.744,2.33,1.988a13.389,13.389,0,0,0,2.222,4.541c1.212,1.659,2.279,3.108,4.752,2.667,1.927-.343,3.267,1.016,3.976,2.62,1.4,3.166,3.9,4.1,7.108,4.361,2.052.165,4.268.381,5.845,2.113.181.2.555.475.7.41,4.492-1.993,7.277,2.782,11.373,2.849a5.832,5.832,0,0,1,5.534,4.56c.142.533.23,1.451.511,1.521,3.265.815,3.067,3.58,3.587,6a10.824,10.824,0,0,0,1.13,2.736c1.445,2.7,1.948,2.933,5.083,2.136,1.777-.452,3.533-1.013,5.261-1.63,4.363-1.556,4.583-1.489,6.326,2.644.491,1.164.771,2.433,1.916,3.225,1.214.839,2.314,1.555,3.753.255a9.4,9.4,0,0,1,2.929-1.672,4.4,4.4,0,0,1,5.215,2.452c.5,1.458-.526,1.964-1.584,2.532-2.843,1.526-2.9,2.016-2.285,4.863a21.211,21.211,0,0,1-.027,10.071,5.5,5.5,0,0,0,.7,4.836c.639.934,1.385,1.794,2.045,2.714.812,1.129,1.039,2.979,2.523,3.244,1.7.3,1.866-1.821,2.908-2.691a4.943,4.943,0,0,1,5.118-1.112,7.233,7.233,0,0,0,4.523.6,3.083,3.083,0,0,1,3.89,1.73c.941,1.864,2.372,2.044,4.284,1.538,3.211-.85,3.9-.649,4.7,2.335.769,2.873,2.414,3.6,5.1,4.049q.773.129,1.546.27c.083-2.336.117-4.678.057-7.031a2.279,2.279,0,0,0-.867-2.13c-3.246-2.2-4.809-5.922-7.64-8.514-2.146-1.965-2.483-4.4-.82-6.755a4.316,4.316,0,0,0-.149-5.468c-2.109-2.419-3.8-5.2-6.234-7.362-1.057-.941-2.535-2.209-3.4-1.942-3.525,1.1-4.022-1.849-5.6-3.512-1.879-1.979-3.959-3.972-3.732-6.827.677-8.5.145-17.011.4-25.512.031-1.054-.06-2.389,1.242-2.97,3.437-1.533,7.039-2.708,9.844-5.463.5-.5,1.966-.265,2.892-.016s1.934.6,2.527-.087c2.681-3.1,6.453-2.292,10.13-3,.606,5.128,6.319,3.005,8.419,6.344,2.132-1.109,3.482-2.769,5.648-3.41-.989-2.116-2.191-3.808-1.615-5.846,1.1-3.911-1.08-6.861-2.3-10.3-1.357-3.826-3.677-3.568-6.2-3.236-5.34.7-10.585.951-15.737-.927a3.527,3.527,0,0,0-4.678,1.706v-.851a4.035,4.035,0,0,1-1.3-3.4c-.083-6.661.055-13.348-.52-19.97a9.5,9.5,0,0,1-.028-1.285,4.569,4.569,0,0,0-3.01-.961c-2.764.352-4.542-1.015-6.017-3.145a8.851,8.851,0,0,0-6.035-4.22c-2.9-.492-3.472-3.577-1.542-6.435C1989.972-307.274,1991.763-307.99,1992.131-309.965Z" transform="translate(-1588.627 781.811)" fill="#b1a8d1" stroke="rgba(0,0,0,0)" stroke-width="1"/>
              <path id="Trazado_130397" data-name="Trazado 130397" d="M2063.994-537.631a12.09,12.09,0,0,1-7.2-.719c-5-2.32-9.4-.779-13.625,1.463a11.174,11.174,0,0,1-7.91,1.31c-.451.33-.912.652-1.394.956a10.159,10.159,0,0,1-7.233,1.876,10.485,10.485,0,0,0-7.65,1.815,21.858,21.858,0,0,1-5.172,2.7,3.633,3.633,0,0,0-2.524,2.622c-.313,1.074-1.051,2.037-1.291,3.119-1.632,7.37-7.511,10.391-13.736,11.6-7.056,1.37-12.171,5.8-18.1,8.945-1.234.655-1.542,1.991-1.888,3.208a8.628,8.628,0,0,1-5.062,5.809c-4.965,2.33-7.831,7.157-11.716,10.784-1.193,1.115-.9,2.911-.9,4.47.012,8.928-.025,17.855.039,26.782.132,18.56.323,37.12.474,55.681.041,5,1.1,6.4,6.073,7.182,1.836.288,3.683.429,5.257,1.468,1.806,1.192,3.468.79,5.156-.186a9.941,9.941,0,0,1,8.5-1.176c2.781.887,7.648-2.855,8.367-6.241.694-3.268,1.782-5.927,4.6-8.23,1.457-1.192,3.459-3.642,2.376-6.59a5.169,5.169,0,0,1,.375-3.739c.505-1.155,1.467-2.122,2.6-1.759,3.546,1.14,6.618-.958,9.9-.96.707-1.469-.936-2.908.288-4.153a6.238,6.238,0,0,1,4.276-1.537c4.313-.347,8.241-1.556,11.305-4.892,1.5-1.628,3.645-2.118,5.718-2.608a2.318,2.318,0,0,1,2.682.826c.939,1.706,2.459,1.36,3.937,1.706,2.456.576,4.47,1.012,6.288-1.454.824-1.116,2.667-.8,4.059-.662,6.35.626,12.264-1.957,18.463-2.426,1.8-.136,2.554-1.6,3.259-3.024,1.311-2.651,3.176-4.324,6.4-3.685a3.1,3.1,0,0,0,3.065-1.074c3.2-3.662,7.371-3.851,11.694-3.159a4.431,4.431,0,0,0,3.161-.588c2.986-1.673,6.079-1.669,8.766.477a5.117,5.117,0,0,0,5.746.923c-.773-5.138-3.352-9.792-4.149-14.969-1.113-7.227-3.83-14.13-1.014-21.778a16,16,0,0,0-.519-11.434,5.413,5.413,0,0,1,.206-3.832c.281-.714,1.328-1.4.927-2.051-3.693-5.983,1.706-8.018,4.724-11.077,2.936-2.976,3.726-6.621,3.4-10.631a7.229,7.229,0,0,1,2.892-6.9c5.03-4.122,6.407-11.673,3.966-16.506-1.189-2.354-2.339-3.633-5.177-2.575-2.118.79-3.491-1.069-5.091-2.061-5.359-3.325-4.873-2.221-9.428.262-4.444,2.423-9.2,4.932-14.817,3.642a5.443,5.443,0,0,0-5.16,1.095,9.915,9.915,0,0,1-10.1,1.735C2069.269-538.849,2066.545-538.084,2063.994-537.631Z" transform="translate(-1597.477 823.139)" fill="#b1a8d1" stroke="rgba(0,0,0,0)" stroke-width="1"/>
              <path id="Trazado_130398" data-name="Trazado 130398" d="M1773.169-560.925c-2.058,1.3-2.191,3.5-1.743,5.589.426,1.981,1.365,3.926,3.807,3.91,2.07-.015,3.941,1.458,6.19.422,1.336-.616,2.439.536,2.835,1.863a15.028,15.028,0,0,1,.444,3.348c.145,2.312,1.167,3.689,3.625,3.838a6.246,6.246,0,0,1,4.578,1.913,7.549,7.549,0,0,0,8.07,2.372,31.5,31.5,0,0,1,5.417-.959c2.439-.158,3.518-1.263,3.612-3.7a16.706,16.706,0,0,1,3.9-9.661,2.772,2.772,0,0,1,4.067-.8,9.664,9.664,0,0,1,3.982,9.68c3.987-2.188,8.632-3.239,11.786-6.871a1.733,1.733,0,0,1,1.975-.405c2.431.971,3.735-.408,4.824-2.219,1.259-2.094,2.526-4.115,5.235-4.574,1.251-.211,1.444-1.277,1.351-2.3-.1-1.117-.387-2.22-.595-3.327-.55-2.916-1.265-5.813-1.593-8.754-.217-1.946,1.269-3.139,3.53-3.374,2.011-.209,3.045.637,3.354,2.824.118.837,0,1.716.186,2.533.239,1.082,1.364,1.462,1.864.7,1.92-2.925,5.5-5.142,4.143-9.589a8.073,8.073,0,0,1,.293-5.826,2.875,2.875,0,0,0-1.548-4.236c-3.831-1.4-6.76-4.477-10.856-5.4-2.849-.64-3.671-2.148-2.406-4.613a7.067,7.067,0,0,0,.278-6.115c-1.413-3.3-1.2-7.291-4.291-9.933-1.485-1.268-.257-4.859-3.084-4.828a47.98,47.98,0,0,0-6.287.614c-.711.1-1.573.172-1.828.873-1.281,3.527-3.494,2.953-6.08,1.614a7.023,7.023,0,0,0-2.89-.556c-3.568-.134-6.323-1.381-7.471-5.062-.406-1.3-1.018-1.749-2.5-1.109-3.672,1.583-5.45.541-6.022-3.42a15.263,15.263,0,0,1,.087-6.328c.727-2.62-.859-4.618-1.806-6.785a.828.828,0,0,0-1.034-.486c-.341.122-.856.549-.828.785.375,3.182-1.262,6.666.748,9.528,2.281,3.247,1.386,6.381.735,9.744-.656,3.385.823,7.272-1.909,10.141-2.621,2.754-3.112,6.187-4.071,9.579a4.74,4.74,0,0,0,1.656,5.544c2.783,2.383,2.713,2.84-.277,4.931-3.594,2.512-7.378,4.875-9.927,8.515a17.2,17.2,0,0,1-8.118,6.5c-3.162,1.224-3.1,1.393-2.326,4.619C1777.137-566.463,1776.776-563.21,1773.169-560.925Z" transform="translate(-1564.729 839.473)" fill="#5e5385" stroke="rgba(0,0,0,0)" stroke-width="1" style="isolation: isolate"/>
              <path id="Trazado_130399" data-name="Trazado 130399" d="M1763.123-529.4a6.575,6.575,0,0,0,6.742.6,10,10,0,0,1,1.225-.345c5.167-1.551,7.52-1.815,7.747,5.883.117,3.952,1.4,6.453,4.832,8.089a10.894,10.894,0,0,1,3.874,3.243c1.187,1.518,2.395,1.225,3.456-.192.678-.907,1.262-1.886,1.963-2.773a9.692,9.692,0,0,1,5.93-3.807c3.535-.67,3.621-.726,4.446,2.868.22.961.455,1.532,1.526,1.588,2.114.111,2.807,1.648,3.211,3.393a5.7,5.7,0,0,0,2.747,4.008c2.609,1.561,2.94,4.707,4.156,7.217a7.017,7.017,0,0,1-.678,7.579c-1.308,1.913-.9,3.146,1.314,3.988,2.677,1.021,4.714,2.4,5.6,5.245a2.376,2.376,0,0,0,2.3,1.6,3.305,3.305,0,0,1,3.136,1.808c.579,1.264,1.373,1.744,2.653.921,1.239-.795,2.635-1.888,1.958-3.355-2.7-5.842.485-9.28,4.712-12.361,1.042-.76,1.522-1.458.986-2.822a5.978,5.978,0,0,1,.066-5.364,27.1,27.1,0,0,1,5.8-7.267c1.616-1.3,3.16-.263,4.52.961,3.05,2.748,3.3,2.75,5.79-.456,1.969-2.539,4.907-4.146,6.432-7.159.805-1.592,2.65-1.966,4.473-1.8,1.606.149,3.339-1.381,4.058-3.345.616-1.682-.494-2.213-1.627-2.915-1.925-1.19-3.8-2.466-5.645-3.779-2.372-1.691-2.447-3.119,0-4.865,1.074-.766,1.636-1.44,1.468-2.714a6.108,6.108,0,0,1,.594-3.3,3.122,3.122,0,0,0-.347-3.173c-2.051-3.286-1.633-6.39.876-9.362a41.533,41.533,0,0,0,3.027-4.613c.536-.843,1.086-2.036,2.019-2.066,5.513-.182,4.721-5.36,6.6-8.327.918-1.448.581-3.647,2.474-4.688a.979.979,0,0,0,.5-.649c-.054-3.955,2.819-6.637,4.228-9.949.168-.4.346-.781.529-1.163l-.937-.062a5.232,5.232,0,0,1-2.686-.907,17.026,17.026,0,0,1-2.131,1.453c-2.918,1.692-5.674,3.579-8.981,4.507a5.8,5.8,0,0,0-2.378,1.716c-1.265,1.344-2.261,3.036-4.569,1.8-.824-.441-1.209.344-1.543.973a6.2,6.2,0,0,0-.138,4.568c1.364,5.616-2.685,8.884-5.5,12.647-.72.961-2.087.767-3.209.475-1.044-.272-2.059-.659-3.084-1a7.14,7.14,0,0,0,.5,4.057,11.548,11.548,0,0,1,.313,4.632c-.1,1.724-.85,3.2-2.6,3.431-2.313.3-3.355,1.793-4.419,3.53-1.38,2.253-3.075,4.123-6.114,3.73a3.641,3.641,0,0,0-2.314.887,48.385,48.385,0,0,1-5.58,3.048c-2.33.975-4.143,2.271-5.11,4.714-.512,1.294-1.263,2.654-3.053,2.464-1.957-.208-2.387-1.8-2.766-3.323a6.443,6.443,0,0,1,.163-4.175c.421-.984,1.822-1.66,1.166-2.961a6.05,6.05,0,0,0-2.752-3.252c-2.994,2.043-3.317,5.331-3.886,8.486-.226,1.251-.224,2.548-.509,3.783-.227.987-.852,2.022-2.029,1.753-3.077-.7-5.851.69-8.76,1.079-3.692.493-7.084.256-9.791-2.677a5.948,5.948,0,0,0-3.336-1.649c-4.985-1.1-5.722-2.029-6.138-7.067a11.465,11.465,0,0,0-.237-1.232c-4.373.885-9.72-1.7-13.147-6.328-1.405.21-1.288,1.436-1.211,2.273a16.068,16.068,0,0,1-2.414,10.506A6.58,6.58,0,0,0,1763.123-529.4Z" transform="translate(-1563.314 829.661)" fill="#b1a8d1" stroke="rgba(0,0,0,0)" stroke-width="1"/>
              <path id="Trazado_130400" data-name="Trazado 130400" d="M1644.812-281.5c.351,3.366,2.669,5.162,5.407,6.559a2.764,2.764,0,0,0,2.452-.195c2.957-1.329,5.852-2.977,9.177-.768.729.484,1.743-.21,2.02-1.054.272-.828-.453-1.192-1.214-1.333-2.62-.487-3.691-3.175-6.041-4.227-1.254-.561-1.451-2.647-1.206-4.272.5-3.341.657-6.792,3.227-9.5a18.616,18.616,0,0,1-1.722-1.641c-.894-1.127-5.033-4.653-6.212-5.016-2.49-.767-3.037-2.573-3.089-4.927-.083-3.7-.181-3.7-3.848-4.5-2.928-.635-4.16-2.451-3.013-5.172a3.7,3.7,0,0,0-.167-3.554,5.63,5.63,0,0,1-.539-3.307c.284-2.852,1.487-3.99,4.409-3.939a22.465,22.465,0,0,1,4.615.6,1.95,1.95,0,0,0,2.6-1.452c.845-2.4,1.638-4.827,2.493-7.229,1.326-3.723,2.606-4.494,6.332-3.382a4.369,4.369,0,0,0,5.449-1.965,17.813,17.813,0,0,1,1.206-1.747c1.785-2.067,3.039-2,4.722.27.5.679.827,1.49,1.324,2.174a1.662,1.662,0,0,0,2.278.432c.835-.446.443-1.208.193-1.854q-1.916-4.949-3.655-9.962a20.453,20.453,0,0,1-1.5-6.98,5.392,5.392,0,0,0-2.466-4.682c-1.036-.727-1.882-1.721-2.885-2.5a5.322,5.322,0,0,1-2.2-5.592c.458-2.183-.793-2.883-2.471-3.719-3.829-1.909-7.792-.774-11.7-.824-1.036-.013-1.179,1.078-1.318,1.9-.649,3.864-3.051,5.544-6.824,5.587-.559.007-1.329-.046-1.637.276-2.291,2.391-5.351,2.534-8.262,3.43-2.336.719-3.842.715-5.156-1.032a4.682,4.682,0,0,0-5.511-1.968c-2.278.591-4.344-.271-6.529-1.1-3.217-1.228-5.246-4.092-8.415-5.357-1.414-.565-1.713-2.487-2.2-3.982-.125-.39-.255-.745-.388-1.083-1.62,1.082-1.936,3.849-2.395,5.782-1.02,4.3-2.9,7.765-6.925,9.722-2.79,1.356-2.761,4.129-3.3,6.426-1.174,4.968-1.725,5.835-6.466,6.3a4.742,4.742,0,0,0-2.376.765c0,.107,0,.212-.011.321a5.6,5.6,0,0,0,1.592,4.216c3.136,3.628,6.417,7.176,7.765,12a3.8,3.8,0,0,0,3.755,2.883c3.315.224,6.521,1.42,9.962.06,2-.791,3.78.133,4.523,2.581a9.554,9.554,0,0,0,4.743,5.711c3.488,1.947,3.777,6.07.762,8.809-1.642,1.49-3.677,2.643-4.147,5.2,2.245.753,4.35,1.444,6.445,2.166,1.957.675,3.189-.465,4.475-1.653,3.149-2.911,4.837-2.787,6.939.8a12.141,12.141,0,0,0,3.16,3.326c3.1,2.495,3.379,3.791,1.19,7.082-1.6,2.411-.822,4.608.2,6.8a1.442,1.442,0,0,0,2.484.384c1.4-1.493,3.594-1.636,4.936-3.222.9-1.065,2.079-.847,2.944.159,1.589,1.848,3.015,3.785,2.383,6.484A16.514,16.514,0,0,0,1644.812-281.5Z" transform="translate(-1531.489 794.021)" fill="#b1a8d1" stroke="rgba(0,0,0,0)" stroke-width="1"/>
              <path id="Trazado_130401" data-name="Trazado 130401" d="M1707.312-505.113c-1.078.336-2.184.923-3.285.388-2.021-.981-3.608-.092-5.053,1.1-1.228,1.008-3.451,1.626-2.958,3.642.534,2.186,2.583.932,4.005,1.047,2.465.2,4.138,1.844,4.072,4.014s-1.789,4.279-4,4.039c-2.732-.3-3.048,1.009-3.173,3.106a45.726,45.726,0,0,1-.881,5.018c4.934-2.206,5.536-2.008,7.169,2.586.492,1.383.9,2.353,2.612,1.845,3.377-1,6.095.231,8.428,2.618.6.611,1.124,1.338,2.132.819.969-.5,1.675-1.283,1.251-2.383-1.253-3.253-.227-5.835,1.57-8.674,2.249-3.552,2.361-3.9,6.453-2.391,2.534.936,2.866.978,3.662-1.664.956-3.167,3.066-4.411,6.02-4.151,2.58.228,5.032-.573,7.546-.456,1.357.064,1.715-.682,2.012-1.667.693-2.3,1.451-4.583,2.031-6.912a36.744,36.744,0,0,0,.578-10.977,2.016,2.016,0,0,0-1.354-1.952c-1.025-.366-1.562.394-2.073,1.055-.6.782-1.16,1.6-1.7,2.434-1.844,2.833-4,4.518-7.771,3.45-2.913-.825-4.678.461-5.861,3.315a21.712,21.712,0,0,1-1.026,2.325c-1.173,2.094-2.816,3.609-5.372,3.533a5.057,5.057,0,0,1-5.045-3.869c-.795-3.425-3.674-5.258-5.227-8.046-.42-.754-.939-.973-1.7-.555s-1.566.833-1.385,1.87c.094.54.523,1.014.659,1.554C1710.28-506.555,1709.874-505.911,1707.312-505.113Z" transform="translate(-1551.571 817.815)" fill="#b1a8d1" stroke="rgba(0,0,0,0)" stroke-width="1"/>
              <path id="Trazado_130402" data-name="Trazado 130402" d="M1649.725-429.641a41.293,41.293,0,0,0-7.645,3.654,2.92,2.92,0,0,1-4.441-.811,2.551,2.551,0,0,0-2.866-1.286c-.513.112-1.359.1-1.615-.217-2.083-2.564-5.041-2.093-7.778-2.384a6.235,6.235,0,0,1-3.492-1.4c-2.21-1.875-4.785-2.122-7.551-1.913a2.945,2.945,0,0,0-2.143,1.044,70.921,70.921,0,0,1-5.284,5.071c.085.068.159.144.248.209,1.537,1.117,1.547,3.069,2.846,4.213.638-.873,1.862-1.4,2.409-2.349,2.25-3.915,4.242-3.605,7.089.39-1.042,1.33-2.8,2.051-3.519,3.783.484,3.412,2.9,3.566,5.591,3.385,1.679-.113,3.612-.323,3.787,2.112.115,1.606.606,3.61-2.084,3.857-.588.054-1.645.568-1.629.812.358,5.263-3.363,6.672-7.277,8.147-1.53.577-2.178,2.386-2.959,3.784-.595,1.063-.782,2.158-1.732,2.894.174.442.342.9.5,1.4.546,1.767,1.286,3.09,3.206,3.528a3.629,3.629,0,0,1,2.227,1.142c2.6,3.365,6.009,4.365,10.1,3.557a4.9,4.9,0,0,1,5.319,1.782c.926,1.257,1.8,1.456,3.541,1.071,2.716-.6,5.5-.578,7.6-2.823a2.353,2.353,0,0,1,1.623-.366c3.919.166,5.383-1.968,5.967-5.587.512-3.178,1.445-3.453,4.676-2.485a3.22,3.22,0,0,0,1.6.311c3.81-1.167,7.25.186,10.736,1.407,2.607.913,3.093.641,3.806-2.063a12.807,12.807,0,0,0,.565-3.345c-.081-6.84,3.414-12.648,5.364-18.9,1.129-3.62,2.979-6.735,6.455-8.605,1.518-.817,1.816-1.951,1.195-3.543-1.231-3.159-2.118-6.432-3.771-9.449a24.8,24.8,0,0,1-2.866-12.691c.08-3.354.488-3.746,3.721-3.41a3.232,3.232,0,0,0,3.17-.819c-2.745-.262-4.227-2.98-7.209-2.292-1.03.238-1.62-.973-1.98-1.923-.753-1.982-1.373-4.02-2.23-5.955-.93-2.1-1.748-2.029-3.973-1.131-3.244,1.31-4.58,4.5-7.068,6.545a22.914,22.914,0,0,1-4.339,3.336,8.845,8.845,0,0,0-5.309,8.073c-.085,2.063-.432,3.936-2.1,5.337-.564.473-1.183,1.227-.86,1.806,1.278,2.281,1.014,5.311,2.848,7.128,1.778,1.763,1.143,2.887-.049,4.289A6.172,6.172,0,0,1,1649.725-429.641Z" transform="translate(-1536.007 809.462)" fill="#5e5385" stroke="rgba(0,0,0,0)" stroke-width="1" style="isolation: isolate"/>
              <path id="Trazado_130403" data-name="Trazado 130403" d="M1605.67-244.4c.042-2.261-.22-4.157-2.676-5.191-1.806-.76-2.042-2.385-.962-3.883,2.846-3.949,3.144-9.065,6.17-12.962,1.343-1.73,1.768-3.778-.69-5.474-1.643-1.135-1.314-3-.561-4.644,1.15-2.517,3.328-3.779,5.836-4.572,1.074-.339,2.2-.509,3.268-.872,1.9-.649,3.1-1.483,2.353-4.025-.7-2.4-.865-5.058,1.129-7.225a1.675,1.675,0,0,0-.5-2.839,9.6,9.6,0,0,1-4.628-5.365c-1.514.033-1.933.869-2.536,1.413-2.292,2.065-4.748,3.036-7.715,1.386-1.39-.774-3-.782-4.5-1.182-3.179-.849-4.032-2.882-2.423-5.777a18.812,18.812,0,0,1,4.281-4.671c2.114-1.885,2.024-3.093-.429-4.548a13.222,13.222,0,0,1-5.2-6c-.7-1.5-1.288-2.518-3.076-1.6-4.147,2.117-7.988-.5-11.953-.906-2.061-.21-3.163-2.391-3.689-4.325-1.126-4.142-3.909-7.2-6.6-10.252a11.829,11.829,0,0,1-2.6-4.241,41.6,41.6,0,0,1-4.386,2c-.651-.838-2.016-1.343-2.036-2.517-.027-1.624-.565-2.121-2.183-2.179-2.091-.075-1.608,1.921-2.267,2.421-1.369,1.039-.116,2.663-1.872,3.766-3.317,2.084-4.13-1.147-6.009-1.983-2.545.5-4.385,1.752-4.671,4.359-.146,1.329-1.174,2.4-1.767,2.42-2.467.083-3.436,1.415-3.346,3.523.1,2.338-.739,4.71,1.573,6.886,3.974,3.742,2.818,9.774-2.07,12.2-1.508.749-1.634,2.589-1.169,2.886,1.361.866.749,2.188,1.058,3.152.516,1.612-.045,2.61-2.434,2.165-11.925-2.219-11.092-.431-15.408,7.8,2.652,2.84,5.253,5.861,9.053,7.409,4.122,1.678,5.86,5.322,7.634,8.95.806,1.649,1.489,3.441,3.834,2.957,4.872-1.005,8.248,1.592,10.514,5.19,2.148,3.412,5.2,4.457,8.63,4.958a16.652,16.652,0,0,1,6.8,2.6c3.867,2.493,7.9,4.233,12.755,3.487,2.367-.365,4.8-.632,5.269,3.31a7.438,7.438,0,0,0,5.365,6.338c2.344.624,2.156,2.2,2.1,3.886-.076,2.518,1.3,4.526,3.431,4.984,3.041.654,6.069,2,9.221,1.946C1605.622-240.962,1605.638-242.681,1605.67-244.4Z" transform="translate(-1520.986 787.86)" fill="#b1a8d1" stroke="rgba(0,0,0,0)" stroke-width="1"/>
              <path id="Trazado_130404" data-name="Trazado 130404" d="M1637.027-666.925a2.837,2.837,0,0,1,2.09,2.137c.774,6.5,4.619,12.141,5.14,18.7a6.869,6.869,0,0,1-2.132,5.953c-7.689-1.79-8.073-3.106-2.852-10.377a10.182,10.182,0,0,1-2.9-1.923c-.208,2.524-.856,4.921-3.357,6.775-.418.31-.952.943-.89,1.343.467,3.033-.726,5.521-2.274,7.966a1.718,1.718,0,0,0,.563,2.267,11.723,11.723,0,0,0,1.629,1.361c9.062,5.537,14.619,14.456,21.448,22.152,3.543,3.995,1.777,8.592,1.584,12.989-.05,1.156-1.324,1.289-2.371,1.2a12.207,12.207,0,0,1-5.451-2.2c-2.852-1.771-5.129-.786-5.935,2.5a13.555,13.555,0,0,0-.172,2.114c-.158,1.922-1,3.2-3.088,3.4a9.56,9.56,0,0,0-2.087.384c-1.839.6-2.333,2.491-.7,3.441,2.433,1.412,4.029,3.029,3.775,6.014-.069.811.594,1.262,1.249,1.548,2.483,1.085,3.186,3.264,3,5.6-.366,4.544,3.349,6.942,5.092,10.363a1.56,1.56,0,0,0,1.889.577c3.43-.8,6.924-1.415,10.26-2.508,3.727-1.222,8.539.481,9.383,4.293,1.155,5.216,3.5,9.829,5.922,14.462a10.161,10.161,0,0,1,1.05,6.993,16.662,16.662,0,0,0-.1,6.34c.474,2.662,1.981,3.174,4.165,1.523,1.468-1.11,2.84-2.344,4.275-3.5,2.184-1.759,4.556-2.85,7.461-2.089a2.3,2.3,0,0,0,2.019-.373c-.781-4.457.214-6.318,4.182-7.763,1.65-.6,3.181-.586,3.763,1.418a7.681,7.681,0,0,0,2.9,4.049c1.432,1.106,1.718,2.871,2.287,4.464.54,1.513,1.269,3.086,3.1,3.035,1.754-.049,2.6-1.545,3.177-3.052.792-2.069,1.027-4.412,3.666-5.316,2.061-.7,4.079-1.247,6.22-.692,2.015.522,3.221-.461,4.246-1.989.869-1.292,1.754-2.577,2.706-3.807.908-1.172,2.152-2.165,3.638-1.666,1.961.659,2.544.009,3.364-1.763,1.149-2.482,2.052-4.746,1.809-7.63a10,10,0,0,1,3.077-8.112c1.88-1.8,2.308-4.816,5.19-5.81.87-.3.858-1.694.907-2.7a12.263,12.263,0,0,0-.616-3.743c-1.043-3.974-.795-4.569,2.955-5.989a17.521,17.521,0,0,0,8.887-6.829c2.364-3.562,6.318-5.6,9.521-8.377-.063-1.646-1.994-2.105-1.827-3.707-2.065-.022-2.909,1.468-4.11,2.345-2.447,1.786-4.978,3.265-8.208,2.594-2.148-.446-3.612-1.539-3.932-3.849a8.188,8.188,0,0,0-.564-2.887c-2.177-3.777-2.325-7.48-.054-11.249.1-.163-.107-.507-.18-.8-1.771.419-2.125,2.1-2.974,3.326-1.539,2.222-2.427,2.293-4.186.205a8.244,8.244,0,0,1-2.27-6.612c.312-2.383.41-4.794.615-7.192.048-.562-.066-1.362.254-1.643,3.164-2.774,1.484-6.28,1.137-9.326-.436-3.834-2.909-6.927-5.671-9.6a30.346,30.346,0,0,0-3.143-2.158c-1.3-.97-2.472-1.282-3.658.2a4.133,4.133,0,0,1-2.948,1.508c-2.971.281-5.822.807-8.327,2.694-1.653,1.245-3.271.147-4.69-.791-1.719-1.137-2.968-1.083-4.247.761-2.467,3.56-4.228,7.766-8.534,9.759-.634.293-.659,1.19-.862,1.872-.944,3.156-1.026,3.347-3.857,2.4-1.522-.508-1.994.03-2.646,1.09-2.359,3.839-5.511,7.191-6.682,11.748-.645,2.51-2.767,3.3-5.2,3.635-4.95.672-9.986-.5-14.828.355-5.942,1.045-9.15-.775-10.649-6.689-.853-3.361-3.546-6.069-4.232-9.67-.6-3.15-.363-5.818,2.176-8.126a10.576,10.576,0,0,0,3.318-7.167c.311-3.7,1.674-7.159,2.473-10.746.479-2.151,1.979-3.4,3.6-4.534a7.687,7.687,0,0,0,3.26-5.693c.38-3.049.3-3.375-2.816-4.431a5.25,5.25,0,0,1-3.79-4.633c-.326-2.424-.475-4.849-3.042-6.161a1.568,1.568,0,0,1-.694-1.032c-.032-.211-.089-.406-.129-.611a22.849,22.849,0,0,0-2.5,2.914c-3.408,4.774-7.787,6.771-12.969,7.848-1.288.267-2.518.761-3.81.918-1.676.2-3.076.629-3.4,2.572C1634.6-668.543,1635.487-667.516,1637.027-666.925Z" transform="translate(-1539.975 847.245)" fill="#5e5385" stroke="rgba(0,0,0,0)" stroke-width="1" style="isolation: isolate"/>
              <path id="Trazado_130405" data-name="Trazado 130405" d="M1594.492-594.074a5.853,5.853,0,0,1,2.323,6.695c-.855,2.773.459,4.792,3.726,4.622,2.289-.12,3.323,1.178,4.28,2.985,3.051,5.761,3,12.046,3.41,18.293.333,5.067-1.56,10.222,2.75,15.051,3.258,3.649-1.568,12.482-6.622,12.9-2.231.184-3.333,1.584-4.606,2.731-1.811,1.63-1.2,3.621,1.232,4.091,1.2.233,2.613.281,2.886,1.386,1,4.046,4.2,7.777,2.166,12.3-.909,2.017-1.367,3.687.869,5.138,1.626,1.055.86,2.816.813,4.228-.1,3.162.092,5.972,2.977,8.145,1.836,1.382,2.613,3.141.564,5.537-2.163,2.529-1.809,6.156-2.693,9.263-.5,1.772-.229,3.672-3.231,4.633-1.947.623-4.964,3.175-5.515,6.034a7.052,7.052,0,0,0,.777,4.784q1.326-1.114,2.625-2.26a18.133,18.133,0,0,0,1.808-1.79c2.844-3.346,5.752-4.276,9.943-2.41,3.869,1.724,7.505,3.963,11.988,3.424,2.171,2.348,6.168.906,8.058,3.9a1.217,1.217,0,0,0,1.853.342c2.288-1.721,5.139-2.306,7.69-3.691-1.438-3.272-1.1-6.845-2.651-10.01-.665-1.359.251-2.778,1.452-3.7a4.806,4.806,0,0,0,1.824-4.071c.106-4.546,2.474-7.756,6.374-9.818a24.107,24.107,0,0,0,7.683-7.118c1.694-2.212,1.623-3.255-.319-5.073a10.346,10.346,0,0,1-2.7-3.224c-3.01-6.824-3.094-9.416,3.59-14.395a7.372,7.372,0,0,1,1.078-.681c3.458-1.743,4.572-4.317,4.772-8.371a22.762,22.762,0,0,0-3.734-14c-1.477-2.31-1.89-5.006-2.632-7.578-1.06-3.675-3.119-4.723-6.809-3.735-3.411.913-6.885,1.6-10.339,2.349a4.167,4.167,0,0,1-4.946-2.337,7.794,7.794,0,0,0-1.528-2.514c-2.725-2.142-3.518-4.939-3.426-8.24.048-1.738-.378-3.393-2.36-4.088a3.062,3.062,0,0,1-2.07-3.345,3.563,3.563,0,0,0-2.127-3.774c-2.448-1.156-2.968-3.231-2.5-5.7.446-2.36,2.1-3.292,4.268-3.363,1.842-.06,2.438-.926,2.431-2.65-.009-1.974,1.151-3.449,2.439-4.8,2.324-2.447,4.3-2.741,7.175-1.022,1.2.72,2.249,1.725,4.007,2.055,1.166-3.458,1.635-6.766-1.055-9.779-6.567-7.359-11.981-15.788-20.568-21.258-4.382-2.791-4.495-4.278-1.943-8.746.794-1.39,1.46-2.693.875-4.385-.629-1.819-.266-3.2,1.771-4.1,1.97-.871,2.745-2.76,2.854-4.875.053-1.034.09-2.07.13-3.1-1.992-3.184-6.322-4.279-8.98-7.229-1.82-2.02-3.755-3.646-4.679-6.432-1.074-3.24-3.569-3.806-6.7-2.159-4.02,2.113-4.478,3.258-2.533,6.792.736,1.339,1.421,2.905,2.576,3.779,5.849,4.419,5.722,11.907,9.156,17.581,1.432,2.367-.97,4.831-2.827,6.706a93.376,93.376,0,0,0-12.687,15.319,5.085,5.085,0,0,0-2.214-1.159c-1.907-.385-2.986-2.84-5.058-2.194-2.105.657-2.321,2.622-2.666,4.6-.252,1.444-2.142,1.788-3.326,2.531-5.12,3.209-5.41,5.016-1.7,9.412C1587.3-601.67,1590.068-597.227,1594.492-594.074Z" transform="translate(-1531.553 844.686)" fill="#b1a8d1" stroke="rgba(0,0,0,0)" stroke-width="1"/>
              <path id="Trazado_130406" data-name="Trazado 130406" d="M1669.433-684.224c.406,2.437,1,4.3,4,4.485,2.14.131,3.151,1.64,3.132,3.82-.039,4.232-.589,8.236-4.516,10.836-3.663,2.424-3.756,6.6-4.442,10.177-.922,4.813-1.651,9.449-5.465,13-1.423,1.324-.984,3.223-.576,4.841,1.188,4.715,4.407,8.536,5.945,13.115.268.8,1.066.823,1.781.818,5.807-.044,11.613-.078,17.419-.149,2.508-.03,4.108-.964,4.917-3.682,1.478-4.965,5.318-8.634,7.869-13.028.138-.236.416-.386.585-.609,1.121-1.484,3.5,1.37,4.254-1.21a4.125,4.125,0,0,1,3.247-2.954,4.91,4.91,0,0,0,2.444-2.278c1.03-1.526,2.082-3.038,3.106-4.568,3.176-4.746,3.6-4.917,8.906-2.656,1.174.5,2.2.71,3.13-.173,1.678-1.6,3.714-1.773,5.879-1.934,3.344-.249,4.716-1.673,5.2-5.051.258-1.8-.165-3.675.783-5.41.386-.7-.1-1.32-.833-1.664-1.281-.6-2.526-1.35-4.023-1.1a3.769,3.769,0,0,1-3.232-.6c-1.433-1.222-2.324-.626-3.58.484-3.25,2.872-4.876,2.684-8.173-.3a9.864,9.864,0,0,0-2.5-1.577c-2.206-1.008-3.353-2.487-2.746-5.034.362-1.523-.468-2.7-1.328-3.873a7.638,7.638,0,0,1-1.127-6.491c.5-2.211,1.649-3.887,4.081-4.372a18.781,18.781,0,0,0,3.269-.919c2.1-.836,2.492-2.66.627-3.764a17.127,17.127,0,0,1-5.417-4.615,3.211,3.211,0,0,0-1.84-.935c-2.1-.452-4.188-.726-4.758-3.413-.174-.82-1.287-1.085-2.093-1.3-2.522-.663-4.564-2.242-6.785-3.464-2.179-1.2-3.947-2.7-4.47-4.963-2.273.144-3.724,1.84-5.355,3.434-3.17,3.1-4.83,7.272-7.616,10.658a12.965,12.965,0,0,1-5.488,3.981,34.84,34.84,0,0,0-8.061,4.637C1667.146-689.545,1668.94-687.181,1669.433-684.224Z" transform="translate(-1545.492 852.518)" fill="#b1a8d1" stroke="rgba(0,0,0,0)" stroke-width="1"/>
              <path id="Trazado_130407" data-name="Trazado 130407" d="M2149.28-307.418c.43-1.814-.848-3.288-1.726-4.635-2.821-4.328-4.953-8.834-5.532-14.057a6.467,6.467,0,0,0-2.854-5.2c-2.86-1.889-3.115-5.248-2.995-8.406a5.791,5.791,0,0,0-2.122-5.159c-2.355-2.019-4.53-4.116-5.352-7.548-.421-1.757-1.844-4.775-5.378-3.142a2.149,2.149,0,0,1-2.947-2.006c-.229-4.029-3.058-4.761-6.351-4.661-1.955.059-3.831.133-4.728-2.089,5.295-5.3,10.409-10.679,15.839-15.722,2.546-2.365,2.636-6.8,6.75-7.552-.142-4.738-1.815-8.371-5.936-10.826-4.1-2.441-4.243-7.117-5.45-11.048-.788-2.565-.407-5.524-4.349-5.545a1.489,1.489,0,0,1-1.268-.677c-.333.15-.665.305-.994.488a4.627,4.627,0,0,1-5.2-.6c-2.981-2.286-5.959-3.285-9.069-.144-.905.913-1.987.658-3.129.109-3.477-1.672-6.563-.61-9.317,1.7-1.55,1.3-3.034,2.731-5.248,2.1-2.122-.609-3.337.427-4.021,2.128-1.286,3.2-3.731,4.4-6.959,4.64-6.054.443-11.855,2.929-18.054,2.253a2.364,2.364,0,0,0-2.392,1.425,3.245,3.245,0,0,1-3.241,1.643c-2.64-.257-5.227-1.053-7.933-.556-.536.1-1-.347-1.433-.753-1.93-1.788-3.322-2.07-4.624-.331-3,4-7.33,4.88-11.766,5.5-2.1.294-3.383.492-2.945,3.236.268,1.681-1.366,2.8-3.132,2.731-3.126-.125-5.851,2.243-9.143,1.258-1.067-.319-1.41,1.067-1.132,1.768,1.2,3.028-.136,5.429-1.639,7.836-.368.59-.631,1.518-1.149,1.7-3.255,1.136-3.7,3.9-4.316,6.721a9.12,9.12,0,0,1-5.058,6.387c-4.616,2.452-8.881,5.544-13.768,7.543-1.848.756-3.118,2.354-4.236,3.6-.1,1.363.735,1.479,1.324,1.739a7.337,7.337,0,0,1,4.556,6.6c.328,3.385.568,3.476,3.995,3.205,1.135-.089,2.449-.532,3.334.112,2.6,1.894,4.959,2.844,8.429,1.649,2.65-.912,5.754,1.226,8.783.4a4.316,4.316,0,0,1,2.091.04c1.455.364,3.29.294,3.694,2.278.393,1.929-.968,2.749-2.417,3.513-.825.435-2.15.84-1.606,2.093,1.4,3.223-.761,5.025-2.537,7.021-.376.423-.819.79-1.173,1.229-.854,1.053-1.136,2.147.533,2.547,2.984.717,4.854,2.758,6.585,5.058.67.891,1.328,2.224,2.523,2.067a9.093,9.093,0,0,1,5.293.956,4.4,4.4,0,0,1,3.385-1.258c2.792-.02,4.338-1.352,5.959-3.108s5.725-2.254,6.687-.377c3.232,6.308,8.881,5.279,14.133,4.975,7.086-.409,14.162-.734,21.26-.823,6.1-.075,12.187-.56,18.282-.77,1.011-.035,1.622-.838,2.55-.887l1.7.85c-4.273-3.88-4.67-5.728-2.587-9.8,1.317-2.57,4-2.1,4.522-.758,1.854,4.8,8.077,5.733,8.49,11.384,2.277-1.236,4.313-1.14,5.729-2.53l1.7-.85c-1.832-.661-2.355-1.951-1.261-3.391a14.144,14.144,0,0,1,5.985-4.149,11.641,11.641,0,0,0,5.994-4.733c2.119-3.423,5.657-4.936,9.821-5.017a5.388,5.388,0,0,1,.589,5.332c-2.052,4.822.531,8.042,3.612,10.584a15.17,15.17,0,0,1,5.9,13.28c-.112,2.52-.315,4.981,1.571,7.306,1.35,1.665.3,4.179.535,6.3.537,4.945.86,5.073,5.95,4.306a7.361,7.361,0,0,0,4.24-2.155,7.386,7.386,0,0,0-.834-3.856C2149.915-297.485,2148.02-302.1,2149.28-307.418Z" transform="translate(-1600.347 800.634)" fill="#b1a8d1" stroke="rgba(0,0,0,0)" stroke-width="1"/>
              <path id="Trazado_130408" data-name="Trazado 130408" d="M1726.876-679.029c1.4,1.253,2.619,1.143,3.651-.092,2.186-2.616,4.475-3.2,7.361-1.1.6.436,1.666.165,2.465.4,5.83,1.716,7.268,1.089,7.424,7.964,2.36-2.223,4.524-4.12,6.5-6.2.7-.734.435-1.937-.081-2.823-1.211-2.075-1.235-4.326-1.1-6.6a6.369,6.369,0,0,0-.72-3.688,8.232,8.232,0,0,1-.946-5.747c.379-2.065-.538-3.3-2.164-4.613-3.052-2.466-5.049-6.095-8.581-8.1a.976.976,0,0,1-.483-.669c.183-4.065-3.4-7.144-2.952-11.248a3.034,3.034,0,0,0-1.837-3.44c-2.428-1.157-4.49-2.921-6.952-4.071a10.912,10.912,0,0,0-4.817-1.214c-4.072,0-5.651-1.892-4.184-5.595.987-2.492.234-3.555-1.867-4-2.939-.63-3.649-2.429-3.853-5.167a53.183,53.183,0,0,0-1.683-7.878,6.807,6.807,0,0,0-3.046-4.3c-.36.908-.682,1.787-1.843,1.924h1.7c2.323.379,3.187,1.518,2.143,3.833-.7,1.561-1.211,3.178-2.058,4.715-1.227,2.228-1.789,4.883-.04,7.146a3.78,3.78,0,0,1-.1,5.095,12.275,12.275,0,0,0-2.545,8.119c-.008,2.914-1.564,4.922-3.724,4.742a7.159,7.159,0,0,0,2.371,1.953,48.73,48.73,0,0,0,4.45,2.476c2.564,1.107,5.437,1.6,6.829,4.567.254.541,1.49.653,2.293.9a5.913,5.913,0,0,1,3.471,2.3,9.194,9.194,0,0,0,3.838,3.2,5.142,5.142,0,0,1,3.038,5.192c-.244,2.343-1.91,3.683-4.249,4.118a11.978,11.978,0,0,0-1.211.394c-4.176,1.257-5.081,3.711-2.792,7.559.5.845,1.5,1.818,1.353,2.557C1721.121-682.2,1724.583-681.086,1726.876-679.029Z" transform="translate(-1552.724 859.943)" fill="#b1a8d1" stroke="rgba(0,0,0,0)" stroke-width="1"/>
              <path id="Trazado_130409" data-name="Trazado 130409" d="M1951.658-495.028a3.516,3.516,0,0,0,2.2-2.422,9.805,9.805,0,0,1,6.639-7.584,10.225,10.225,0,0,0,2.758-1.957,23.8,23.8,0,0,1,11.108-4.982,21.185,21.185,0,0,0,7.144-2.6c2.935-1.75,5.6-3.59,6.4-7.41.538-2.566,2-4.938,3.135-7.6a9.923,9.923,0,0,1-4.857-5.573c-.164-.5-.633-1.249-1-1.269-3.34-.185-6.181-1.209-8.014-4.213-3.869.347-7.867-1.375-11.632.782-1.224.7-2.541,1.242-3.83,1.825a8.245,8.245,0,0,1-7.347.038,10.177,10.177,0,0,0-8.094-.1c-2.477.983-4.5,1.515-6.6-.484a2.439,2.439,0,0,0-1.483-.737c-4.21.067-8.486-1-12.614.6-3.726,1.444-7.47,2.7-11.527,1.5-1.029-.3-1.958.316-2.918.251-7.572-.515-14.139,3.453-21.309,4.776-3.732.689-5.628.451-7.511-2.788a27.513,27.513,0,0,1-1.09-2.75,1.087,1.087,0,0,0-1.349-.734c-1.05.347-.6,1.136-.3,1.7.648,1.211,2.288,2.237,1.607,3.71-1.525,3.3.106,7.434-3.286,10.29,2.022,1.4,3.712,2.672,5.494,3.794,3.025,1.9,3.547,3.436,2.026,6.6-.6,1.253-1.491,2.293-1.737,3.8-.614,3.75-2.012,4.241-4.973,2a2.231,2.231,0,0,0-1.924-.772c-1.268,3.368-4.677,5.317-7.012,8.241a7.964,7.964,0,0,1-5.325,3.178c-1.888.234-2.625-1.42-3.615-2.561-.972-1.119-1.847-1.151-2.759.022-1.043,1.34-2.094,2.674-3.132,4.019a3.4,3.4,0,0,0-.528,3.6c1.414,3.222.328,5.22-2.631,6.962-3.589,2.111-4.232,5.628-2.486,9.369.83,1.781,2.316,2.81,3.63,4.071,1.116,1.07,2.62,2.046,2.415,3.784-.258,2.182.966,2.952,2.6,3.789a7.078,7.078,0,0,1,3.708,4.912c.254,1.1.7,2.166.845,3.276.253,1.908,1.355,2.221,3,1.966a32,32,0,0,0,8.028-2.655c2.517-1.116,5.06-1.744,7.82-.885a6.179,6.179,0,0,0,5.955-1.338c1.386-1.124,3.071-2.122,4.663-1.537,3.529,1.3,5.936-.155,8.294-2.433a6.389,6.389,0,0,1,2.217-1.224c7.05-2.618,13.436-6.458,19.85-10.328,3.483-2.1,6.535-5.109,10.649-6.032,2.1-.473,3.3-1.768,4.706-3.249C1942-486.954,1945.592-492.395,1951.658-495.028Z" transform="translate(-1578.214 822.14)" fill="#b1a8d1" stroke="rgba(0,0,0,0)" stroke-width="1"/>
              <path id="Trazado_130410" data-name="Trazado 130410" d="M1999.063-142.165c-2.881-.472-5.18-1.371-5.829-4.6-.254-1.267-.975-1.985-2.448-1.425-2.467.94-4.453.091-5.978-1.9-.741-.967-1.409-1.779-2.773-1.186a1.183,1.183,0,0,1-.829.1c-3.846-1.74-6.8-1.131-9.062,2.776-.74,1.276-2.684,1.07-3.753-.16-2.675-3.081-5.3-6.233-6.541-10.236a3.95,3.95,0,0,1-.253-2.079c1.157-4.009.568-7.97-.031-11.969a20.233,20.233,0,0,1,.309-4.184c-2.121.418-4.071,1.091-6-.5a9.77,9.77,0,0,1-3.428-4.674c-.533-1.692-1.434-2.125-3.193-1.409a36.819,36.819,0,0,1-6.494,1.933c-3.31.679-4.991-.157-6.66-3.146a20.791,20.791,0,0,1-1.84-4.277c-.465-1.6-.286-3.382-2.56-3.886-1.044-.23-1.155-1.518-1.265-2.507-.27-2.4-1.9-3.376-4-3.714-2.245-.361-4.5-.549-6.125-2.477-.494-.588-1.275-.477-1.99-.332-.955.195-1.894.745-2.895.281-2.047-.951-3.6.141-5,1.334-2.086,1.777-4.21,3.29-7.081,3.515a5.472,5.472,0,0,0-3.492,2.25c-1.963,2.214-4.155,3.635-7.388,3.278a3.877,3.877,0,0,0-4.357,3.661c-.23,3.938-2.2,5.785-5.913,6.568-2.648.558-4.359,2.52-5.271,5.091-.331.934-.543,1.92-.959,2.813-1.612,3.466-3.909,4.246-7.059,2.045-1.694-1.183-2.753-1.066-3.889.464q-.381.511-.768,1.017c-3.9,5.131-5.323,5.251-9.923.669-1.71-1.7-3.922-2.178-6.09-2.756-1.222-.326-2.626-.125-3.757-.609-3.1-1.324-5.583-1.937-7.1,2.245-.593,1.627-2.664,1.615-3.8-.036-1.458-2.124-3.016-1.983-5.117-1.425-3.059.812-5.866.64-7.621-2.726a3.1,3.1,0,0,0-4.3-1.568,3.676,3.676,0,0,1-3.944-.834,5.646,5.646,0,0,0-3.012-1.489c-8.71-.885-17.124-1.252-25.614,2.66q-4.305,1.983-8.627,3.94c.106.322.2.649.285.987a12.373,12.373,0,0,0,2.047,4.716c1.414,1.875,2.62,3.809.988,6.409a3.332,3.332,0,0,0,.75,3.765c3.392,3.475,7.1,6.342,12.328,5.928,2.292-.181,4,.3,5.147,2.551,1.085,2.138,2.626,3.735,5.49,3.514,1.121-.087,2.075,1.176,2.977,2.027,1.943,1.834,3.484,4.027,6.8,3.976,1.962-.031,4.062,6.354,3.364,9.629-.451,2.122-1.513,4.081-1.267,6.387.541,5.077,1.917,6.527,7.244,5.879,7.722-.939,11.965,3.224,10.7,10.708a31.156,31.156,0,0,0,0,7.636c.1,1.194,1.272,2.951,2.045,2.85,6.085-.791,7.034,6.635,11.928,7.3,6.418.876,12.771-.332,19.13-1.172a60.006,60.006,0,0,1,8.493-.681c5.518.082,9.394-2.635,13.129-5.809,2.2-1.874,3.965-4.291,7.276-3.734,1.667.281,1.763-2.18,3.417-1.735.272-.136.549.011.84.43,4.27,6.144,10.63,5.831,17,5.544a6.446,6.446,0,0,1,4.274.8c3.661,2.49,5.838,2.33,8.9-.4a24.24,24.24,0,0,0,2.124-2.127c2-2.289,4.052-2.367,6.408-.446,1.405,1.145,3.051,2,4.222,3.434a3.079,3.079,0,0,0,2.985,1.294c2.981-.364,5.224.595,5.936,3.806.217.977.767,1.245,1.711,1.3,2.036.111,3.468,1.51,5.133,2.476,2.64,1.533,4.774,3.623,8.456,3.8,2.358.114,4.647,3.525,6.733,5.685.38.394.366,1.876-.306,2.914-5.553,8.58-10.946,17.246-16.867,25.607-3.964,5.6-8,11.343-10.787,17.739-.489,1.122-.906,2.271-1.91,2.752l1.9-.277c.88,1.612,2.986,1.927,3.728,1.239,3.041-2.819,5.152-1.323,7.047,1.133,5.436-3.419,5.684-3.348,9.241-1.079a12.756,12.756,0,0,1,3.317,3.066c3.244,4.3,6.285,8.749,9.4,13.141l.272.955a.723.723,0,0,1,.207-.473c2.518-2.424,1.841-5.708,2.424-8.575,2.724-13.427,5.054-26.932,7.62-40.392,1.8-9.47,3.453-18.979,5.189-28.467,1.917-10.472,3.353-21.046,5.638-31.436a157.334,157.334,0,0,0,3.562-24.539C2001.034-141.8,2000.055-142,1999.063-142.165Z" transform="translate(-1565.449 762.91)" fill="#b1a8d1" stroke="rgba(0,0,0,0)" stroke-width="1"/>
              <path id="Trazado_130411" data-name="Trazado 130411" d="M1702.674-208.3c3.339,3.966,6.32,6.188,12.217,3.425,3.973-1.862,7.274-1.507,10.227,1.751,1.726,1.905,3.938,2.212,6.377,2.155,4.155-.1,8.579,2.237,9.119,5.955.407,2.8,1.838,3.722,3.6,5.114a13.888,13.888,0,0,1,3.321,3.7c4.241-1.8,8.425-3.742,12.7-5.471a59.386,59.386,0,0,1,10-2.962,5.242,5.242,0,0,0-4.049-1.645,14.541,14.541,0,0,1-10.349-4.217,6.636,6.636,0,0,0-5.809-1.938,35.154,35.154,0,0,1-3.817.23c-3.07-.017-3.752-.352-4.485-3.373-.554-2.287-1.659-3.422-3.962-3.656-1.911-.194-2.968-1.493-3.5-3.258a10.665,10.665,0,0,0-1.647-3.42c-1.081-1.428-2.26-2.409-4.241-2.281-3.647.235-5.7-1.99-7.139-5-2.312-4.834-4.957-9.4-9.58-12.476a2.838,2.838,0,0,1-1.3-1.591c-.473-4.04-3.521-4.742-6.654-5.128-3.04-.374-6-.619-7.134-4.168-.2-.613-.821-.743-1.376-.839a95.4,95.4,0,0,1-9.37-2.255c-3.151-.883-5.7-2.067-7.517-4.888-1.91-2.965-2.127-2.874-5.223-.886-2.006,1.289-3.94,2.846-6.5.746-1.211-.994-2.771-.182-4.009.473-2.352,1.243-4.629,2.089-7.167.445-2.943-1.906-5.4-4.119-5.968-7.836a14.489,14.489,0,0,1,.066-4.648,15.846,15.846,0,0,0,.348-2.948c-.043-1.982-.752-2.432-2.642-1.814a5.389,5.389,0,0,0-1.964.765c-1.661,1.532-3.43,2.4-5.758,1.829-1.056-.258-1.885.5-2.7,1.038-1.949,1.292-4.309,1.342-6.4,2.195a5.5,5.5,0,0,0-2.884,2.385c-.99,1.766.7,2.108,1.5,2.934a3.989,3.989,0,0,1,.877,3.972,10.241,10.241,0,0,1-1.522,3.925c-2.772,3.418-3.075,7.888-5.229,11.537-.561.95-.267,1.527.608,2.058,1.928,1.172,2.37,3.074,2.355,5.144-.017,2.144-.041,4.289-.06,6.433a9.5,9.5,0,0,0,1.333-.505c.82-.389,1.917.064,3,.691,5.366,3.11,10.8,5.978,17.424,3.179a7.882,7.882,0,0,1,6.281.408c3.321,1.781,5.593.787,7.7-1.793,3.826-4.678,9.156-4.824,12.658.068,1.536,2.146,2.766,4.08,5.622,4.185,1.358.049,1.83,1.477,2.018,2.154,1.163,4.179,4.714,4,7.271,3.171,3.1-1,4.487-.346,5.6,2.322.622,1.494,1.521,2.789,3.391,2.531C1700.3-210.643,1701.366-209.85,1702.674-208.3Z" transform="translate(-1538.792 774.993)" fill="#b1a8d1" stroke="rgba(0,0,0,0)" stroke-width="1"/>
              <path id="Trazado_130412" data-name="Trazado 130412" d="M1689.654-271.4a6.674,6.674,0,0,0,4.3,3.2c3.545.808,6.731,2.836,10.467,2.942,1.287.036,2.849.267,3.263,1.586.864,2.757,2.94,2.825,5.25,3.287,3.909.782,8.388,1.164,9.107,6.569.042.318.554.592.876.85a33.646,33.646,0,0,1,9.765,12.948c.9,2.034,2.113,4,4.58,3.774,4.445-.411,6.458,2.412,7.965,5.708.884,1.933,1.636,3.468,4.014,3.732,2.041.226,3.1,1.708,3.774,3.586,1.149,3.218,1.232,3.379,4.383,2.761a9.9,9.9,0,0,1,9.692,2.894,10.266,10.266,0,0,0,6.433,2.992c4.881.54,9.585,1.272,12.687,5.691.078.112.219.27.322.263,4.169-.269,7.9,2.09,11.727,2.363,3.335.238,5.733.663,7.5,3.378a2.859,2.859,0,0,0,3.642,1.351,8.35,8.35,0,0,1,8.6,1.022c.432-.63.668-.974.9-1.319,2.288-3.353,2.515-3.425,6.026-1.6a15.3,15.3,0,0,0,4.884,1.305c3.661.568,7.145,1.461,9.687,4.606,1.584,1.96,2.416,1.787,4.027-.152.542-.652.967-1.4,1.5-2.058,2.552-3.119,3.973-3.467,7.543-1.3,1.78,1.081,2.6.442,3.277-1.059.348-.768.5-1.624.787-2.419,1.254-3.415,3.593-5.976,7.091-6.745,2.8-.616,3.554-2.113,3.982-4.595a6.876,6.876,0,0,1,7.17-5.854,5.77,5.77,0,0,0,5.176-2.2,8.782,8.782,0,0,1,5.765-3.258c2.523-.33,4.324-1.861,6.592-4.825-5.2.442-8.2-1.448-10-5.3a2.174,2.174,0,0,0-2.793-1.312c-1.935.581-3.273-.3-4.357-1.8a33.925,33.925,0,0,1-2.476-3.446c-1.06-1.942-1.609-4.209-4.6-4.146-.954.021-1.449-1.24-1.8-2.189a34.73,34.73,0,0,0-1.484-3.973c-.786-1.513-1.772-3.093-3.864-2.673-2.617.525-3.949-1-5.091-2.908-.871-1.458-1.585-3.051-3.345-3.683a5.818,5.818,0,0,1-3.757-4.765c-.389-1.9-1.034-3.5-3.168-4.08a2.978,2.978,0,0,1-1.689-1.215c-1.735-3.081-4.961-3.925-7.683-5.633a6.513,6.513,0,0,0-7.132-.007,6.55,6.55,0,0,0-2.708,7.031c.717,2.83.166,3.437-2.618,4.137-.678.171-1.558-.014-2.057.354-3.646,2.69-6.5.927-9.486-1.334-4.423-3.354-7.371-8.231-11.983-11.376a2.674,2.674,0,0,1-1.117-2.212c0-3.6-2.485-6.073-4.519-8.392a9.848,9.848,0,0,1-2.859-6.242c-.2-2.9-1.273-3.669-4.234-3.154a23.95,23.95,0,0,0-6.914,1.952c-4.857,2.525-8.465-1.345-12.657-2.09-.474-.084-1.02-1.06-1.13-1.693-.7-3.989-3.583-4.689-6.9-4.69a7.21,7.21,0,0,1-4.962-2.1c-1.993-1.805-3.9-3.711-5.88-5.527a6.34,6.34,0,0,1-2.092-3.6c-.8-4.312-2.255-8.48-2.7-12.871-.624-6.09-1.379-12.088,3.061-17.4,1.655-1.983.473-4.477-2.078-5.034a3.749,3.749,0,0,1-3.16-2.986c-.457-1.842-1.607-2.291-3.375-2.5a4.653,4.653,0,0,0-5.008,2.285c-1.46,2.276-3,4.444-2.8,7.379a4.4,4.4,0,0,1-2.938,4.694,4.421,4.421,0,0,0-2.415,2.773,13.591,13.591,0,0,1-6.385,7.113,3.62,3.62,0,0,0-2.159,3.722c.042,2.3-.388,4.482-2.429,6.052a31.7,31.7,0,0,0-8.754,10.264c-1,1.859-2.182,3.731-4.806,3.555a2.206,2.206,0,0,0-2.2,1.683c-.773,1.911-2.31,3.17-3.657,4.623a33.184,33.184,0,0,0-5.164,6.724,14.465,14.465,0,0,1-3.19,3.948c-2.282,2.032-2.724,2.192-5.52.522-1.357-.81-2.8-.915-3.35.22-1.092,2.263-3.075,4.193-3.207,6.827-.133,2.655-1.826,6.139,2.891,6.819.187.027.348.427.472.677,1.118,2.258,3.661,3.017,5.487,3.369A8.15,8.15,0,0,1,1689.654-271.4Z" transform="translate(-1547.81 790.311)" fill="#b1a8d1" stroke="rgba(0,0,0,0)" stroke-width="1"/>
              <path id="Trazado_130413" data-name="Trazado 130413" d="M1689.322-494.268c-.317-.546-1-.39-1.565-.371a11.643,11.643,0,0,1-4.6-.588,2.243,2.243,0,0,0-2.363.31c-1.353,1.017-2.836,1.869-4.151,2.931-3.272,2.642-3.881,4.948-2.9,8.335.814,2.813,3.386,4.1,4.806,6.307a2.5,2.5,0,0,0,2.7,1.308c3.815-.142,5.435.6,6.117,4.345.852,4.685,5.236,4.76,7.75,7.188,4.377.008,8.736.956,13.116.348a2.46,2.46,0,0,0,2-3.45,7.531,7.531,0,0,0-7.089-4.424c-5.082.314-5.078.312-6.861-4.46a5.853,5.853,0,0,0-.742-.984c-.734.545-1.272,1-1.858,1.371-1.562,1-3.29,1.311-4.7-.012-1.448-1.362-1.177-3.111-.04-4.6a6.964,6.964,0,0,0,1.2-3.976c.333-4.426.858-4.976,5.172-5.621.7-.1,1.493-.01,1.523-.977.031-.986-.779-1.055-1.479-1.035C1693.113-492.259,1690.768-491.776,1689.322-494.268Z" transform="translate(-1547.615 814.181)" fill="#b1a8d1" stroke="rgba(0,0,0,0)" stroke-width="1"/>
              <path id="Trazado_130414" data-name="Trazado 130414" d="M1759.713-509.761a43.677,43.677,0,0,1-2.108,12.486c-.824,2.815-2.606,5.328-2.542,8.449.065,3.1.344,6.222-.564,9.287a4.163,4.163,0,0,0,.295,2.912c.9,1.921.577,3.888.175,5.84-.93,4.513-2.693,8.831-2.191,13.654.279,2.679-1.146,5.219-2.64,7.5-1.4,2.146.155,3.24,1.82,3.662a2.777,2.777,0,0,0,2.447-.314c2.888-2.245,5.858-2.022,9.214-1.028,3.909,1.158,4.7,1.81,3.709,5.785-1.005,4.021-.654,8.138-1.15,12.191a3.367,3.367,0,0,0,.756,3.273c2.381-2.421,4.139-4.7,2.95-8.287-.637-1.927.129-3.93.869-5.785.621-1.558,2.168-1.566,3.486-2.048,1.821-.666,2.384-2.181,2.312-4.092a27.625,27.625,0,0,1,.93-9.661,4.764,4.764,0,0,0-.453-3.258,9.4,9.4,0,0,1,1.073-8.917,52.438,52.438,0,0,0,4.133-6.883c1.446-2.881,4.382-3.076,6.612-.7a6.353,6.353,0,0,1,1.705,3.818c.641,7.034.483,13.905-4.712,19.544a4.258,4.258,0,0,0-1.258,3.464c.318,3.233.609,6.469.807,9.711.07,1.147.721,1.382,1.612,1.53,2.234.372,9.956-3.449,11.076-5.5.133-.244.373-.6.29-.767-1.254-2.569.085-5.667-1.6-8.1-1.336-1.937-.651-3.432.717-4.908,2.377-2.563,5.284-2.117,8.3-1.651,2.382.368,3.885,1.329,4.4,3.827a26.975,26.975,0,0,0,1.611,4.368c.335.843.826,1.508,1.9,1.121,4.339-1.56,8.29.377,12.346,1.367,2.423-5.623,3.514-11.98,2.669-15.987-.94.3-1.878.586-2.8.9-1.218.418-2.487.235-2.985-.874-.81-1.8-2.273-2.341-3.918-2.848a3.923,3.923,0,0,1-2.422-2.263,8.266,8.266,0,0,0-4.657-4.527c-3.471-1.507-4.453-4.348-2.619-7.643,1.151-2.07,1.6-3.847.468-5.945-1.057-1.955-1.213-4.547-3.45-5.663a5.357,5.357,0,0,1-2.937-3.888c-.346-1.436-.733-2.7-2.775-2.263-1.584.343-2.237-.813-2.534-2.2-.174-.808.185-1.725-.7-2.657-3.246,1.019-3.369,1.086-4.92,3.156-.678.906-1.23,1.92-1.978,2.759-2.409,2.7-4.736,2.788-7.183.133a13.411,13.411,0,0,0-3.872-3.242c-4.188-2.031-6.125-5.28-5.569-9.954a4.626,4.626,0,0,0-.077-1.268c-.442-2.654-1-3.006-3.659-2.381-2.187.516-4.306,1.713-6.622,1.137C1760.269-514.189,1759.7-513.36,1759.713-509.761Z" transform="translate(-1560.948 817.565)" fill="#5e5385" stroke="rgba(0,0,0,0)" stroke-width="1" style="isolation: isolate"/>
              <path id="Trazado_130415" data-name="Trazado 130415" d="M1929.416-582.968a9.145,9.145,0,0,1-8.109-1.414c-1.535-1.13-3.548-1.379-5.949-.284a17.118,17.118,0,0,1-7.646,1.191,24.16,24.16,0,0,0-1.546,2.957c-1.331,3.047-2.735,6.065-4.07,9.089a70.058,70.058,0,0,1-3.845,8.245c-.294.483-.837.961-.845,1.447-.063,3.828-2.135,5.126-5.737,5.82-2.321.447-2.631,3.741-4.539,5.659a7.114,7.114,0,0,1,4.133,4.824c.782,2.665,2.064,2.731,4.945,2.169,7.445-1.451,14.434-4.985,22.218-4.86a11.738,11.738,0,0,1,2.528-.05c3.616.9,6.881-.213,10.3-1.237,5.886-1.763,11.88-2.434,17.589.857.671.386,1.467.608,1.982.106,2.631-2.561,6.026-.466,8.9-1.546a2.451,2.451,0,0,1,2.31.822,4.361,4.361,0,0,0,5.535.251c5.121-3.236,10.739-3.059,16.422-2.8,1.208.054,2.35.121,2.844,1.356a4.126,4.126,0,0,0,4.277,2.745,4.494,4.494,0,0,1,4.382,3.4,6.111,6.111,0,0,0,2.771,3.607c2.064,1.176,3.854,1.763,6.209.21,2.961-1.955,6.3-3.128,10.07-2.291,1.868.415,3.581-.415,5.2-1.405l.017-.011a10.579,10.579,0,0,1-1.871-1.7c-9.225-10.616-18.5-21.186-27.6-31.915-3.353-3.957-6.933-5.389-11.979-3.458a7.037,7.037,0,0,1-7.172-1.633,16.291,16.291,0,0,0-5.512-3.476c-3.963-1.392-7.485-2.344-11.147.88a12.235,12.235,0,0,1-8.443,2.641c-.707-.01-1.582-.411-2.119.406-2.372,3.608-5.047,1.9-7.65.408A8.116,8.116,0,0,0,1929.416-582.968Z" transform="translate(-1584.992 830.29)" fill="#b1a8d1" stroke="rgba(0,0,0,0)" stroke-width="1"/>
              <path id="Trazado_130416" data-name="Trazado 130416" d="M1712.735-764.592h0a9.353,9.353,0,0,1,3.992,6.477c.35,1.8,1.054,3.551,1.282,5.363.336,2.67,1.031,4.582,3.988,5.713,3.3,1.258,3.438,2.423,2.165,6.057-.49,1.4-.748,2.877,1.2,2.562,2.672-.431,4.651.632,6.73,1.891,2.415,1.463,4.884,2.84,7.336,4.242a4.511,4.511,0,0,1,2.392,4.607,7.421,7.421,0,0,0,1.594,5.563c.349.423.784,1.047.709,1.5-.539,3.271,1.767,4.773,3.837,6.445,2.414,1.948,3.911,4.779,6.589,6.535,1.446.947,1.738,2.864,1.685,4.62-.025.843-.609,1.9-.277,2.485,2.344,4.1.987,8.868,2.561,13.1,1.341,3.606.843,5.484-2.187,7.72-2.342,1.728-3.419,4.9-6.789,5.529-1.217.229-.707,1.781-.011,2.449a23.708,23.708,0,0,0,3.709,2.8c3.288,2.094,7.365,8.812,7.562,12.636.022.422-.17.908-.023,1.263,1.291,3.112,2.281,6.151-1.214,8.576-.306,3.908-1.567,7.858.192,12.424,1.844-1.973,2.984-3.629,4.742-4.577,1.194-.643,2.409-.967,3.572-.043,1.146.912,1.166,2.2.886,3.5a3.267,3.267,0,0,1-.475,1.174,8.081,8.081,0,0,0-.128,9.888,4.386,4.386,0,0,1,.458,1.185c1.254,4.265,2.276,4.787,6.049,2.532a61.713,61.713,0,0,0,6.471-4.784c1.069-.847,1.124-2.23,1.421-3.465.725-3.019,1.212-6.155,3.839-8.3,1.415-5.762,3.529-11.519.869-17.439a8.769,8.769,0,0,1-.933-4.9,16.792,16.792,0,0,0,.1-4.227c-.373-3.248.026-3.915,2.792-5.394,2.742-1.466,3.212-2.064,2.523-4.89a11.557,11.557,0,0,1,.4-5.426,20.777,20.777,0,0,0-.354-10.476c-1.309-4.479-2.514-9-3.537-13.549a3.424,3.424,0,0,0-2.985-2.992c-2.95-.648-5.417-2.953-8.733-2.5a2.373,2.373,0,0,1-1.9-.824c-2.7-3.944-7.8-4.312-10.97-7.5a4.425,4.425,0,0,0-3.444-1.268,6.7,6.7,0,0,1-6.686-4.3,11.745,11.745,0,0,0-4.835-5.234,5.765,5.765,0,0,1-3.168-5.433,24.626,24.626,0,0,0-3.228-12.6c-1.3-2.133-1.028-3.892.7-5.721,1.673-1.769,1.428-2.459-.782-3.761-4.461-2.63-4.566-2.656-3.351-7.6a3.106,3.106,0,0,0-1.243-3.675c-2.052-1.5-4.058-3.231-6.663-3.59-4.156-.573-5.662-3.285-6.126-6.994a14.415,14.415,0,0,1-.152-1.693c-.019-3.025.159-6-1.8-8.707-3.191,3.37-4.619,8.046-8.52,10.993-2.284,1.725-.866,5.072-.376,7.49C1714.63-767,1714.507-765.006,1712.735-764.592Z" transform="translate(-1554.505 865.259)" fill="#5e5385" stroke="rgba(0,0,0,0)" stroke-width="1" style="isolation: isolate"/>
              <path id="Trazado_130417" data-name="Trazado 130417" d="M1728.872-790.5a7.584,7.584,0,0,1,1.339,5.218,36.9,36.9,0,0,0,.167,4.236c.288,2.972,1.523,4.961,4.875,5.377,3.022.374,5.128,2.879,8.112,4.265,4.061-5.874,7.81-11.685,7.391-19.319-.17-3.094-.734-5.926-2.565-8.366a15.779,15.779,0,0,1-2.627-5.369,8.762,8.762,0,0,0-2.056,1.808c-3.842,4.4-7.378,9.11-14.035,9.477a3.381,3.381,0,0,0-1.5.684A4.8,4.8,0,0,0,1728.872-790.5Z" transform="translate(-1557.169 868.202)" fill="#5e5385" stroke="rgba(0,0,0,0)" stroke-width="1" style="isolation: isolate"/>
              <path id="Trazado_130418" data-name="Trazado 130418" d="M1818.963-823.046c-1.412,3.161-.838,6.415-1.229,9.6-.351,2.846,1.692,3.825,4.693,3a55.169,55.169,0,0,1,7.042-1.534c4.122-.574,6.644,1.709,6.708,6.037a1.887,1.887,0,0,0,.953,1.98c5.31,3.479,5.677,4.857,3.273,10.774a7.991,7.991,0,0,0-.223,1.6c2.489-.375,4.732.389,7.036.818a8.851,8.851,0,0,1,4.975,2.467,9.339,9.339,0,0,1,1.862-1.366c2.714-1.552,3.3-3.78,4.351-6.433a192.61,192.61,0,0,1,9.246-19.164c1.5-2.835,4.693-3.618,7.6-4.228,3.057-.64,4.741-1.9,6.145-5.067,2.192-4.941,4.746-9.8,7.335-14.605a10.652,10.652,0,0,1,8.631-5.754,31.985,31.985,0,0,0,11.447-3.994c2.578-1.369,4.976-3.083,8.094-2.955,1.42.059,1.937-.729,2.182-2.107.231-1.3-.072-2.849,1.646-4.161,1.641-.385,3.979,1.4,6.028-.881,2.065-2.295,2.354-4.411.28-6.377a6.115,6.115,0,0,1-2.1-5.173c.134-3.67-2.664-4.7-5.493-5.029a11.578,11.578,0,0,1-7.666-4.3c-2.173-2.477-3.817-2.442-5.436.443-1.587,2.828-3.127,4.933-6.875,4.745-2.094-.1-3.091,2.152-4.27,3.968-2.542-1.719-4.582-1.348-5.63,1.755-2.241-.867-3.749-3.048-6.3-1.221-2.476,1.775-2.5,4.216-1.954,6.415a5.283,5.283,0,0,1-1.834,5.969c-5.072,4.184-9.77,8.754-16.976,9.536-3.619.392-6.918,2.8-9.358,5.794-4.365,5.354-11.247,7.5-15.862,12.635-1.421,1.581-4.2,1.824-6.682,1.871-3.566.067-7.219-.666-10.624.91A13.274,13.274,0,0,1,1818.963-823.046Z" transform="translate(-1572.854 881.706)" fill="#b1a8d1" stroke="rgba(0,0,0,0)" stroke-width="1"/>
              <path id="Trazado_130419" data-name="Trazado 130419" d="M1753.388-804.062c5.138,7.82,4.234,15.768.432,23.758-1.641,3.447-4.113,6.447-5.4,10.085-.376,1.064-.853,2.094-1.188,3.17-.484,1.551-.189,2.757,1.558,3.359a6.647,6.647,0,0,1,2.887,1.721c1.924,2.117,2.07,4.115.029,6.259-1.047,1.1-1.431,1.913-.569,3.273,2.343,3.694,2.9,7.957,3.342,12.149.247,2.317.867,3.94,2.9,5.185a11.942,11.942,0,0,1,4.736,5.338,4.756,4.756,0,0,0,5,3.127c.7-.028,1.745-.225,2.056.142,2.936,3.462,7.966,3.544,10.937,6.885a9.62,9.62,0,0,0,2.158,2.013c1.919,1.159,4.331-.28,6.131,1.2a8.2,8.2,0,0,0,5.656,2.006,25.629,25.629,0,0,1-1.655-5.851c-.143-.682-.231-1.708-.677-1.941-2.92-1.522-3.213-4.25-3.787-7.04-.418-2.031-2.156-3.277-4.1-4-1.608-.6-2.767-1.479-2.51-3.4.227-1.706,1.3-2.465,2.821-3.3,3.413-1.881,6.7-2.649,10.424-1.093,1.549.647,2.378-.053,2.247-1.859a8.517,8.517,0,0,0-2.583-5.686c-3.4-3.221-5.451-7.607-9.25-10.476-1.746-1.319-1.423-3.2-1.034-5.068,1.529-7.362,6.582-11.4,13.275-13.508,2.933-.924,4.483-2.369,5.233-5.287.443-1.727,1.662-3.252,2.506-4.881.855-1.651,1.257-3.192-.89-4.27a2.768,2.768,0,0,1-1.22-4,5.8,5.8,0,0,0,.078-4.406c-.96-3.6-.29-7.389.644-10.84.276-1.02.535-2.028.763-3.037-1.549.239-3.519-1.025-4.718-2.113-2.153-1.954-4.383-2.2-6.389-.683-2.375,1.8-3.674.058-5.143-.965-4.928-3.434-7.234-.762-7.974,3.878a15.456,15.456,0,0,1-2.639,7.234,5.581,5.581,0,0,1-4.714,2.547,9.739,9.739,0,0,0-3.8.454c-5.757,2.625-10.193-1.262-14.842-3.178a7.537,7.537,0,0,0-2.6-.624A13.061,13.061,0,0,0,1753.388-804.062Z" transform="translate(-1560.499 870.86)" fill="#b1a8d1" stroke="rgba(0,0,0,0)" stroke-width="1"/>
            </g>
            <g id="Grupo_58089" data-name="Grupo 58089" transform="translate(0 72.622)">
              <path id="Trazado_130420" data-name="Trazado 130420" d="M1464.077-786.788c-3.079-4.881-4.75-5.162-8.021-.805-2.018,2.689-3.916,5.16-7.243,6.443-1.484.574-2.4,1.938-1.054,4.236,1.208,2.069.565,4.8-1.527,6.72a21.556,21.556,0,0,0-4.152,4.3c-.642,1.065-1.755,2.4-.223,4.277,2,2.459,1.7,5.421.208,8.457-1.313,2.672-1.667,5.632,1.148,8.069,1.771,1.532,1.727,3.958,1.218,5.89-1.11,4.213-1.373,8.518-2.077,12.771-.568,3.422-1.81,6.713-2.1,10.208-.173,2.09.6,3.677,2.584,4.186,1.529.394,2.514-.66,3.444-2.017a26.776,26.776,0,0,0,4.3-9.371,96.282,96.282,0,0,1,6.554-20.073c1.323-2.782,4.8-3.525,5.357-6.924-3.366-3.116-3.788-6.8-.9-10.39,2.028-2.52,2.146-4.465.012-6.914a7.825,7.825,0,0,1-1.666-3.358c-.351-1.906-.653-5,2.011-4.9,4.188.167,6.079-2.567,8.51-4.859v-.425C1469.018-783.9,1465.642-784.3,1464.077-786.788Z" transform="translate(-1440.228 793.17)" fill="#b1a8d1" stroke="rgba(0,0,0,0)" stroke-width="1"/>
              <path id="Trazado_130421" data-name="Trazado 130421" d="M1528.2-773.256c-3.995-3.079-9.123-5.191-7.863-11.083-3.464-.3-5.288,1.589-5.407,3.343-.222,3.273-2.32,3.647-4.439,3.737-3.9.165-6.136,2.692-8.5,5.177l.425.426c-.061,3.07.2,5.924-2.376,8.667-1.688,1.8-1.034,5.281.75,7.426,1.683,2.023,2.025,3.595.891,6.067-.884,1.925.293,3.769,2.436,4.627.426-.141,1.009-.154,1.251-.448,4.667-5.663,12.136-7.144,17.554-11.767,1.733-1.478,3.479-2.292,2.432-4.785C1523.592-766.073,1524.776-769.636,1528.2-773.256Z" transform="translate(-1450.514 792.069)" fill="#b1a8d1" stroke="rgba(0,0,0,0)" stroke-width="1"/>
              <path id="Trazado_130422" data-name="Trazado 130422" d="M1513.32-788.13c3.058-2.01,1.494-3.722-.024-5.563h-.851c-2.443-.15-2.84,2.259-4.662,3.184C1509.3-788.149,1510.319-786.158,1513.32-788.13Z" transform="translate(-1452.038 793.7)" fill="#b1a8d1" stroke="rgba(0,0,0,0)" stroke-width="1"/>
            </g>
          </g>
          <rect id="Rectángulo_31176" data-name="Rectángulo 31176" width="2.813" height="23.332" transform="translate(275.597 173.866)" fill="#999" stroke="rgba(0,0,0,0)" stroke-width="1"/>
          <circle id="Elipse_3964" data-name="Elipse 3964" cx="5.899" cy="5.899" r="5.899" transform="translate(271.105 164.542)" fill="#bf507f" stroke="rgba(0,0,0,0)" stroke-width="1"/>
          <rect id="Rectángulo_31177" data-name="Rectángulo 31177" width="2.813" height="23.332" transform="translate(243.398 264.144)" fill="#999" stroke="rgba(0,0,0,0)" stroke-width="1"/>
          <circle id="Elipse_3965" data-name="Elipse 3965" cx="5.899" cy="5.899" r="5.899" transform="translate(238.907 254.82)" fill="#bf507f" stroke="rgba(0,0,0,0)" stroke-width="1"/>
          <rect id="Rectángulo_31178" data-name="Rectángulo 31178" width="2.813" height="23.332" transform="translate(208.878 171.18)" fill="#999" stroke="rgba(0,0,0,0)" stroke-width="1"/>
          <circle id="Elipse_3966" data-name="Elipse 3966" cx="5.899" cy="5.899" r="5.899" transform="translate(204.386 161.855)" fill="#bf507f" stroke="rgba(0,0,0,0)" stroke-width="1"/>
          <rect id="Rectángulo_31179" data-name="Rectángulo 31179" width="2.813" height="23.332" transform="translate(217.788 63.251)" fill="#999" stroke="rgba(0,0,0,0)" stroke-width="1"/>
          <circle id="Elipse_3967" data-name="Elipse 3967" cx="5.899" cy="5.899" r="5.899" transform="translate(213.296 53.926)" fill="#bf507f" stroke="rgba(0,0,0,0)" stroke-width="1"/>
          <rect id="Rectángulo_31180" data-name="Rectángulo 31180" width="2.813" height="23.332" transform="translate(208.878 14.393)" fill="#999" stroke="rgba(0,0,0,0)" stroke-width="1"/>
          <circle id="Elipse_3968" data-name="Elipse 3968" cx="5.899" cy="5.899" r="5.899" transform="translate(204.386 5.069)" fill="#bf507f" stroke="rgba(0,0,0,0)" stroke-width="1"/>
          <rect id="Rectángulo_31181" data-name="Rectángulo 31181" width="2.813" height="23.332" transform="translate(152.371 305.983)" fill="#999" stroke="rgba(0,0,0,0)" stroke-width="1"/>
          <circle id="Elipse_3969" data-name="Elipse 3969" cx="5.899" cy="5.899" r="5.899" transform="translate(147.879 296.659)" fill="#bf507f" stroke="rgba(0,0,0,0)" stroke-width="1"/>
          <rect id="Rectángulo_31182" data-name="Rectángulo 31182" width="96.521" height="27.654" transform="translate(247.866 201.74)" fill="#fff" stroke="rgba(0,0,0,0)" stroke-width="1"/>
          <g id="Grupo_58091" data-name="Grupo 58091" transform="translate(252.745 210.008)">
            <path id="Trazado_130423" data-name="Trazado 130423" d="M1793.251-555.4v-9.762h3.42a4.489,4.489,0,0,1,2.7.681,2.328,2.328,0,0,1,.919,1.994,2.205,2.205,0,0,1-.369,1.264,2.131,2.131,0,0,1-1.026.8,2.06,2.06,0,0,1,1.183.758,2.24,2.24,0,0,1,.432,1.395,2.577,2.577,0,0,1-.9,2.132,4.04,4.04,0,0,1-2.561.737Zm2.011-5.672h1.489q1.523-.026,1.523-1.213a1.12,1.12,0,0,0-.386-.956,2.024,2.024,0,0,0-1.216-.291h-1.409Zm0,1.422v2.635h1.723a1.659,1.659,0,0,0,1.11-.338,1.162,1.162,0,0,0,.4-.935,1.226,1.226,0,0,0-1.387-1.362Z" transform="translate(-1793.251 565.163)" fill="#0e1c2f" stroke="rgba(0,0,0,0)" stroke-width="1"/>
            <path id="Trazado_130424" data-name="Trazado 130424" d="M1808.051-555.607a2.429,2.429,0,0,1-1.984.871,2.294,2.294,0,0,1-1.78-.67,2.866,2.866,0,0,1-.627-1.965v-4.754h1.938v4.692q0,1.134,1.032,1.135a1.4,1.4,0,0,0,1.354-.685v-5.142h1.945v7.254h-1.824Z" transform="translate(-1795.07 564.632)" fill="#0e1c2f" stroke="rgba(0,0,0,0)" stroke-width="1"/>
            <path id="Trazado_130425" data-name="Trazado 130425" d="M1815.982-556.326a1.266,1.266,0,0,0,.87-.3,1.031,1.031,0,0,0,.349-.785h1.817a2.493,2.493,0,0,1-.4,1.352,2.653,2.653,0,0,1-1.084.951,3.384,3.384,0,0,1-1.518.339,3.147,3.147,0,0,1-2.454-.989,3.911,3.911,0,0,1-.9-2.732v-.127a3.867,3.867,0,0,1,.892-2.675,3.113,3.113,0,0,1,2.448-1,3.052,3.052,0,0,1,2.183.775,2.741,2.741,0,0,1,.834,2.061H1817.2a1.326,1.326,0,0,0-.349-.919,1.158,1.158,0,0,0-.885-.355,1.167,1.167,0,0,0-1.022.494,2.85,2.85,0,0,0-.345,1.6v.2a2.89,2.89,0,0,0,.342,1.612A1.182,1.182,0,0,0,1815.982-556.326Z" transform="translate(-1796.644 564.66)" fill="#0e1c2f" stroke="rgba(0,0,0,0)" stroke-width="1"/>
            <path id="Trazado_130426" data-name="Trazado 130426" d="M1825.848-554.9a2.14,2.14,0,0,1-.195-.65,2.342,2.342,0,0,1-1.829.785,2.579,2.579,0,0,1-1.768-.616,1.989,1.989,0,0,1-.7-1.556,2.05,2.05,0,0,1,.856-1.77,4.215,4.215,0,0,1,2.471-.623h.891v-.416a1.2,1.2,0,0,0-.258-.8,1.016,1.016,0,0,0-.815-.3,1.154,1.154,0,0,0-.768.235.8.8,0,0,0-.278.644h-1.938a1.946,1.946,0,0,1,.389-1.167,2.576,2.576,0,0,1,1.1-.842,4.013,4.013,0,0,1,1.6-.305,3.166,3.166,0,0,1,2.128.674,2.356,2.356,0,0,1,.788,1.894v3.145a3.469,3.469,0,0,0,.289,1.562v.114Zm-1.6-1.348a1.673,1.673,0,0,0,.791-.191,1.263,1.263,0,0,0,.537-.513V-558.2h-.724q-1.456,0-1.549,1.006l-.007.114a.776.776,0,0,0,.256.6A.988.988,0,0,0,1824.246-556.246Z" transform="translate(-1798.164 564.66)" fill="#0e1c2f" stroke="rgba(0,0,0,0)" stroke-width="1"/>
            <path id="Trazado_130427" data-name="Trazado 130427" d="M1834.7-560.335a5.277,5.277,0,0,0-.7-.054,1.418,1.418,0,0,0-1.442.744v4.747h-1.937v-7.254h1.83l.054.865a1.8,1.8,0,0,1,1.616-1,2.047,2.047,0,0,1,.6.087Z" transform="translate(-1799.785 564.66)" fill="#0e1c2f" stroke="rgba(0,0,0,0)" stroke-width="1"/>
            <path id="Trazado_130428" data-name="Trazado 130428" d="M1840.6-554.9a2.113,2.113,0,0,1-.194-.65,2.344,2.344,0,0,1-1.83.785,2.58,2.58,0,0,1-1.768-.616,1.988,1.988,0,0,1-.7-1.556,2.049,2.049,0,0,1,.855-1.77,4.215,4.215,0,0,1,2.471-.623h.891v-.416a1.2,1.2,0,0,0-.258-.8,1.016,1.016,0,0,0-.814-.3,1.155,1.155,0,0,0-.768.235.8.8,0,0,0-.278.644h-1.938a1.941,1.941,0,0,1,.39-1.167,2.566,2.566,0,0,1,1.1-.842,4.008,4.008,0,0,1,1.6-.305,3.166,3.166,0,0,1,2.128.674,2.356,2.356,0,0,1,.788,1.894v3.145a3.465,3.465,0,0,0,.289,1.562v.114Zm-1.6-1.348a1.672,1.672,0,0,0,.791-.191,1.262,1.262,0,0,0,.537-.513V-558.2h-.724q-1.456,0-1.549,1.006l-.007.114a.776.776,0,0,0,.256.6A.989.989,0,0,0,1838.993-556.246Z" transform="translate(-1800.742 564.66)" fill="#0e1c2f" stroke="rgba(0,0,0,0)" stroke-width="1"/>
            <path id="Trazado_130429" data-name="Trazado 130429" d="M1847.191-562.153l.06.811a2.55,2.55,0,0,1,2.086-.946,1.935,1.935,0,0,1,1.924,1.107,2.489,2.489,0,0,1,2.178-1.107,2.163,2.163,0,0,1,1.757.687,3.16,3.16,0,0,1,.577,2.069v4.633h-1.945v-4.626a1.384,1.384,0,0,0-.241-.9,1.07,1.07,0,0,0-.852-.285,1.209,1.209,0,0,0-1.207.831l.007,4.982H1849.6v-4.619a1.357,1.357,0,0,0-.249-.912,1.079,1.079,0,0,0-.844-.281,1.255,1.255,0,0,0-1.193.684v5.129h-1.938v-7.254Z" transform="translate(-1802.363 564.66)" fill="#0e1c2f" stroke="rgba(0,0,0,0)" stroke-width="1"/>
            <path id="Trazado_130430" data-name="Trazado 130430" d="M1863.922-554.9a2.161,2.161,0,0,1-.194-.65,2.345,2.345,0,0,1-1.83.785,2.581,2.581,0,0,1-1.768-.616,1.988,1.988,0,0,1-.7-1.556,2.049,2.049,0,0,1,.855-1.77,4.215,4.215,0,0,1,2.471-.623h.891v-.416a1.2,1.2,0,0,0-.257-.8,1.018,1.018,0,0,0-.815-.3,1.152,1.152,0,0,0-.767.235.8.8,0,0,0-.278.644h-1.938a1.941,1.941,0,0,1,.39-1.167,2.565,2.565,0,0,1,1.1-.842,4,4,0,0,1,1.595-.305,3.164,3.164,0,0,1,2.128.674,2.356,2.356,0,0,1,.788,1.894v3.145a3.479,3.479,0,0,0,.289,1.562v.114Zm-1.6-1.348a1.675,1.675,0,0,0,.791-.191,1.26,1.26,0,0,0,.536-.513V-558.2h-.724q-1.456,0-1.549,1.006l-.008.114a.776.776,0,0,0,.256.6A.989.989,0,0,0,1862.321-556.246Z" transform="translate(-1804.82 564.66)" fill="#0e1c2f" stroke="rgba(0,0,0,0)" stroke-width="1"/>
            <path id="Trazado_130431" data-name="Trazado 130431" d="M1870.477-562.153l.061.838a2.529,2.529,0,0,1,2.084-.973,2.1,2.1,0,0,1,1.716.677,3.16,3.16,0,0,1,.577,2.025v4.686h-1.937v-4.639a1.255,1.255,0,0,0-.269-.9,1.2,1.2,0,0,0-.891-.278,1.334,1.334,0,0,0-1.227.7v5.115h-1.937v-7.254Z" transform="translate(-1806.432 564.66)" fill="#0e1c2f" stroke="rgba(0,0,0,0)" stroke-width="1"/>
            <path id="Trazado_130432" data-name="Trazado 130432" d="M1877.68-558.579a4.25,4.25,0,0,1,.795-2.689,2.571,2.571,0,0,1,2.141-1.02,2.258,2.258,0,0,1,1.858.819l.081-.684h1.757v7.013a3.1,3.1,0,0,1-.433,1.656,2.772,2.772,0,0,1-1.216,1.073,4.28,4.28,0,0,1-1.838.369,3.987,3.987,0,0,1-1.555-.319,2.767,2.767,0,0,1-1.146-.821l.858-1.181a2.269,2.269,0,0,0,1.757.812,1.661,1.661,0,0,0,1.2-.413,1.545,1.545,0,0,0,.429-1.17v-.389a2.241,2.241,0,0,1-1.763.758,2.568,2.568,0,0,1-2.116-1.022,4.249,4.249,0,0,1-.808-2.712Zm1.938.144a2.644,2.644,0,0,0,.4,1.548,1.257,1.257,0,0,0,1.085.561,1.345,1.345,0,0,0,1.267-.665v-3.055a1.342,1.342,0,0,0-1.253-.665,1.265,1.265,0,0,0-1.1.57A2.982,2.982,0,0,0,1879.617-558.435Z" transform="translate(-1808.01 564.66)" fill="#0e1c2f" stroke="rgba(0,0,0,0)" stroke-width="1"/>
            <path id="Trazado_130433" data-name="Trazado 130433" d="M1891.662-554.9a2.165,2.165,0,0,1-.194-.65,2.343,2.343,0,0,1-1.83.785,2.578,2.578,0,0,1-1.767-.616,1.985,1.985,0,0,1-.7-1.556,2.051,2.051,0,0,1,.855-1.77,4.216,4.216,0,0,1,2.471-.623h.891v-.416a1.2,1.2,0,0,0-.257-.8,1.016,1.016,0,0,0-.815-.3,1.152,1.152,0,0,0-.767.235.8.8,0,0,0-.278.644h-1.938a1.94,1.94,0,0,1,.39-1.167,2.572,2.572,0,0,1,1.1-.842,4.011,4.011,0,0,1,1.6-.305,3.166,3.166,0,0,1,2.128.674,2.359,2.359,0,0,1,.788,1.894v3.145a3.48,3.48,0,0,0,.288,1.562v.114Zm-1.6-1.348a1.674,1.674,0,0,0,.792-.191,1.254,1.254,0,0,0,.535-.513V-558.2h-.724q-1.454,0-1.549,1.006l-.007.114a.775.775,0,0,0,.255.6A.989.989,0,0,0,1890.061-556.246Z" transform="translate(-1809.669 564.66)" fill="#0e1c2f" stroke="rgba(0,0,0,0)" stroke-width="1"/>
          </g>
          <rect id="Rectángulo_31183" data-name="Rectángulo 31183" width="96.521" height="27.654" transform="translate(166.338 95.476)" fill="#fff" stroke="rgba(0,0,0,0)" stroke-width="1"/>
          <g id="Grupo_58092" data-name="Grupo 58092" transform="translate(182.334 103.61)">
            <path id="Trazado_130434" data-name="Trazado 130434" d="M1715.881-687.457a3.455,3.455,0,0,1-1.164,2.481,4.085,4.085,0,0,1-2.765.905,3.673,3.673,0,0,1-2.953-1.264,5.179,5.179,0,0,1-1.076-3.47v-.6a5.868,5.868,0,0,1,.495-2.48,3.725,3.725,0,0,1,1.419-1.646,3.975,3.975,0,0,1,2.142-.574,3.982,3.982,0,0,1,2.722.905,3.715,3.715,0,0,1,1.193,2.542h-2.011a2.042,2.042,0,0,0-.526-1.371,1.949,1.949,0,0,0-1.378-.426,1.709,1.709,0,0,0-1.505.72,4.033,4.033,0,0,0-.512,2.236v.738a4.317,4.317,0,0,0,.479,2.313,1.675,1.675,0,0,0,1.512.731,1.982,1.982,0,0,0,1.39-.426,1.926,1.926,0,0,0,.527-1.318Z" transform="translate(-1707.923 694.101)" fill="#0e1c2f" stroke="rgba(0,0,0,0)" stroke-width="1"/>
            <path id="Trazado_130435" data-name="Trazado 130435" d="M1723.156-683.673a2.16,2.16,0,0,1-.194-.65,2.343,2.343,0,0,1-1.83.785,2.575,2.575,0,0,1-1.767-.617,1.983,1.983,0,0,1-.7-1.555,2.049,2.049,0,0,1,.855-1.77,4.225,4.225,0,0,1,2.471-.624h.891v-.415a1.2,1.2,0,0,0-.258-.805,1.018,1.018,0,0,0-.815-.3,1.153,1.153,0,0,0-.768.234.8.8,0,0,0-.278.644h-1.938a1.946,1.946,0,0,1,.389-1.166,2.571,2.571,0,0,1,1.1-.842,4.014,4.014,0,0,1,1.6-.305,3.163,3.163,0,0,1,2.128.674,2.355,2.355,0,0,1,.788,1.894v3.145a3.482,3.482,0,0,0,.288,1.562v.114Zm-1.6-1.348a1.664,1.664,0,0,0,.791-.192,1.249,1.249,0,0,0,.536-.512v-1.247h-.724q-1.454,0-1.548,1.005l-.007.114a.777.777,0,0,0,.255.6A.992.992,0,0,0,1721.554-685.021Z" transform="translate(-1709.8 693.57)" fill="#0e1c2f" stroke="rgba(0,0,0,0)" stroke-width="1"/>
            <path id="Trazado_130436" data-name="Trazado 130436" d="M1732.012-689.11a5.183,5.183,0,0,0-.7-.054,1.42,1.42,0,0,0-1.442.745v4.747h-1.937v-7.254h1.829l.054.865a1.794,1.794,0,0,1,1.616-1,2.035,2.035,0,0,1,.6.087Z" transform="translate(-1711.421 693.57)" fill="#0e1c2f" stroke="rgba(0,0,0,0)" stroke-width="1"/>
            <path id="Trazado_130437" data-name="Trazado 130437" d="M1736.587-693.061v1.784h1.241v1.421h-1.241v3.621a.864.864,0,0,0,.154.577.776.776,0,0,0,.59.174,3.071,3.071,0,0,0,.569-.047v1.468a3.981,3.981,0,0,1-1.172.175,1.85,1.85,0,0,1-2.079-2.059v-3.909h-1.06v-1.421h1.06v-1.784Z" transform="translate(-1712.41 693.919)" fill="#0e1c2f" stroke="rgba(0,0,0,0)" stroke-width="1"/>
            <path id="Trazado_130438" data-name="Trazado 130438" d="M1744.177-683.673a2.139,2.139,0,0,1-.194-.65,2.344,2.344,0,0,1-1.83.785,2.576,2.576,0,0,1-1.768-.617,1.985,1.985,0,0,1-.7-1.555,2.047,2.047,0,0,1,.855-1.77,4.222,4.222,0,0,1,2.471-.624h.891v-.415a1.2,1.2,0,0,0-.258-.805,1.018,1.018,0,0,0-.814-.3,1.155,1.155,0,0,0-.768.234.8.8,0,0,0-.277.644h-1.938a1.94,1.94,0,0,1,.389-1.166,2.561,2.561,0,0,1,1.1-.842,4.01,4.01,0,0,1,1.6-.305,3.161,3.161,0,0,1,2.128.674,2.355,2.355,0,0,1,.788,1.894v3.145a3.468,3.468,0,0,0,.289,1.562v.114Zm-1.6-1.348a1.666,1.666,0,0,0,.791-.192,1.253,1.253,0,0,0,.536-.512v-1.247h-.724q-1.456,0-1.549,1.005l-.007.114a.777.777,0,0,0,.256.6A.991.991,0,0,0,1742.575-685.021Z" transform="translate(-1713.475 693.57)" fill="#0e1c2f" stroke="rgba(0,0,0,0)" stroke-width="1"/>
            <path id="Trazado_130439" data-name="Trazado 130439" d="M1748.613-687.354a4.258,4.258,0,0,1,.795-2.689,2.575,2.575,0,0,1,2.142-1.019,2.258,2.258,0,0,1,1.857.818l.081-.683h1.756v7.013a3.091,3.091,0,0,1-.432,1.655,2.785,2.785,0,0,1-1.217,1.074,4.275,4.275,0,0,1-1.837.368,3.965,3.965,0,0,1-1.556-.319,2.766,2.766,0,0,1-1.147-.821l.858-1.18a2.272,2.272,0,0,0,1.757.811,1.657,1.657,0,0,0,1.2-.413,1.545,1.545,0,0,0,.43-1.169v-.389a2.24,2.24,0,0,1-1.763.758,2.565,2.565,0,0,1-2.115-1.023,4.241,4.241,0,0,1-.809-2.712Zm1.938.144a2.644,2.644,0,0,0,.4,1.548,1.258,1.258,0,0,0,1.086.561,1.346,1.346,0,0,0,1.267-.665v-3.056a1.341,1.341,0,0,0-1.254-.664,1.267,1.267,0,0,0-1.1.57A2.986,2.986,0,0,0,1750.551-687.21Z" transform="translate(-1715.036 693.57)" fill="#0e1c2f" stroke="rgba(0,0,0,0)" stroke-width="1"/>
            <path id="Trazado_130440" data-name="Trazado 130440" d="M1761.737-683.539a3.56,3.56,0,0,1-2.6-.979,3.476,3.476,0,0,1-1-2.608v-.188a4.4,4.4,0,0,1,.422-1.955,3.11,3.11,0,0,1,1.2-1.327,3.355,3.355,0,0,1,1.767-.466,3.01,3.01,0,0,1,2.344.939,3.81,3.81,0,0,1,.855,2.661v.791H1760.1a1.8,1.8,0,0,0,.566,1.14,1.714,1.714,0,0,0,1.2.429,2.093,2.093,0,0,0,1.75-.812l.952,1.066a2.9,2.9,0,0,1-1.18.962A3.874,3.874,0,0,1,1761.737-683.539Zm-.222-5.961a1.207,1.207,0,0,0-.934.391,2.017,2.017,0,0,0-.46,1.118h2.7v-.155a1.448,1.448,0,0,0-.349-1A1.25,1.25,0,0,0,1761.515-689.5Z" transform="translate(-1716.701 693.57)" fill="#0e1c2f" stroke="rgba(0,0,0,0)" stroke-width="1"/>
            <path id="Trazado_130441" data-name="Trazado 130441" d="M1769.223-690.927l.061.838a2.532,2.532,0,0,1,2.084-.972,2.1,2.1,0,0,1,1.716.677,3.154,3.154,0,0,1,.577,2.024v4.687h-1.938v-4.639a1.256,1.256,0,0,0-.269-.9,1.2,1.2,0,0,0-.891-.278,1.333,1.333,0,0,0-1.227.7v5.116H1767.4v-7.254Z" transform="translate(-1718.32 693.57)" fill="#0e1c2f" stroke="rgba(0,0,0,0)" stroke-width="1"/>
            <path id="Trazado_130442" data-name="Trazado 130442" d="M1780.91-683.673a2.163,2.163,0,0,1-.194-.65,2.343,2.343,0,0,1-1.83.785,2.574,2.574,0,0,1-1.767-.617,1.982,1.982,0,0,1-.7-1.555,2.049,2.049,0,0,1,.855-1.77,4.225,4.225,0,0,1,2.471-.624h.891v-.415a1.2,1.2,0,0,0-.257-.805,1.018,1.018,0,0,0-.814-.3,1.152,1.152,0,0,0-.768.234.8.8,0,0,0-.278.644h-1.938a1.945,1.945,0,0,1,.39-1.166,2.566,2.566,0,0,1,1.1-.842,4.015,4.015,0,0,1,1.6-.305,3.163,3.163,0,0,1,2.128.674,2.358,2.358,0,0,1,.788,1.894v3.145a3.48,3.48,0,0,0,.288,1.562v.114Zm-1.6-1.348a1.665,1.665,0,0,0,.791-.192,1.248,1.248,0,0,0,.535-.512v-1.247h-.724q-1.455,0-1.549,1.005l-.006.114a.777.777,0,0,0,.255.6A.991.991,0,0,0,1779.308-685.021Z" transform="translate(-1719.896 693.57)" fill="#0e1c2f" stroke="rgba(0,0,0,0)" stroke-width="1"/>
          </g>
          <rect id="Rectángulo_31184" data-name="Rectángulo 31184" width="96.521" height="27.654" transform="translate(111.416 31.772)" fill="#fff" stroke="rgba(0,0,0,0)" stroke-width="1"/>
          <g id="Grupo_58093" data-name="Grupo 58093" transform="translate(120.964 39.503)">
            <path id="Trazado_130443" data-name="Trazado 130443" d="M1633.553-761.375v-9.763h3.419a4.5,4.5,0,0,1,2.7.681,2.328,2.328,0,0,1,.918,1.995,2.2,2.2,0,0,1-.369,1.264,2.128,2.128,0,0,1-1.026.8,2.06,2.06,0,0,1,1.182.758,2.239,2.239,0,0,1,.433,1.395,2.578,2.578,0,0,1-.9,2.132,4.046,4.046,0,0,1-2.561.738Zm2.011-5.672h1.489q1.521-.027,1.522-1.214a1.124,1.124,0,0,0-.386-.956,2.033,2.033,0,0,0-1.217-.291h-1.408Zm0,1.421v2.636h1.723a1.661,1.661,0,0,0,1.11-.339,1.16,1.16,0,0,0,.4-.935,1.226,1.226,0,0,0-1.387-1.361Z" transform="translate(-1633.553 771.674)" fill="#0e1c2f" stroke="rgba(0,0,0,0)" stroke-width="1"/>
            <path id="Trazado_130444" data-name="Trazado 130444" d="M1648.161-760.872a2.175,2.175,0,0,1-.194-.65,2.342,2.342,0,0,1-1.83.784,2.577,2.577,0,0,1-1.767-.616,1.985,1.985,0,0,1-.7-1.555,2.049,2.049,0,0,1,.855-1.77,4.225,4.225,0,0,1,2.47-.624h.891v-.416a1.2,1.2,0,0,0-.257-.8,1.019,1.019,0,0,0-.815-.3,1.15,1.15,0,0,0-.767.234.8.8,0,0,0-.278.644h-1.938a1.95,1.95,0,0,1,.389-1.167,2.577,2.577,0,0,1,1.1-.842,4.011,4.011,0,0,1,1.6-.3,3.161,3.161,0,0,1,2.128.674,2.357,2.357,0,0,1,.788,1.894v3.145a3.483,3.483,0,0,0,.288,1.562v.114Zm-1.6-1.348a1.673,1.673,0,0,0,.791-.191,1.253,1.253,0,0,0,.536-.512v-1.248h-.724q-1.454,0-1.549,1.006l-.007.114a.774.774,0,0,0,.255.6A.986.986,0,0,0,1646.559-762.22Z" transform="translate(-1635.321 771.171)" fill="#0e1c2f" stroke="rgba(0,0,0,0)" stroke-width="1"/>
            <path id="Trazado_130445" data-name="Trazado 130445" d="M1657.015-766.31a5.3,5.3,0,0,0-.7-.054,1.42,1.42,0,0,0-1.442.744v4.747h-1.937v-7.255h1.83l.055.866a1.793,1.793,0,0,1,1.616-1,2.042,2.042,0,0,1,.6.087Z" transform="translate(-1636.942 771.171)" fill="#0e1c2f" stroke="rgba(0,0,0,0)" stroke-width="1"/>
            <path id="Trazado_130446" data-name="Trazado 130446" d="M1663.085-766.31a5.283,5.283,0,0,0-.7-.054,1.421,1.421,0,0,0-1.442.744v4.747h-1.937v-7.255h1.83l.054.866a1.794,1.794,0,0,1,1.616-1,2.039,2.039,0,0,1,.6.087Z" transform="translate(-1638.003 771.171)" fill="#0e1c2f" stroke="rgba(0,0,0,0)" stroke-width="1"/>
            <path id="Trazado_130447" data-name="Trazado 130447" d="M1668.977-760.872a2.15,2.15,0,0,1-.195-.65,2.34,2.34,0,0,1-1.829.784,2.578,2.578,0,0,1-1.768-.616,1.988,1.988,0,0,1-.7-1.555,2.049,2.049,0,0,1,.855-1.77,4.226,4.226,0,0,1,2.471-.624h.891v-.416a1.2,1.2,0,0,0-.258-.8,1.018,1.018,0,0,0-.814-.3,1.153,1.153,0,0,0-.768.234.8.8,0,0,0-.278.644h-1.937a1.949,1.949,0,0,1,.389-1.167,2.581,2.581,0,0,1,1.1-.842,4.013,4.013,0,0,1,1.6-.3,3.162,3.162,0,0,1,2.128.674,2.355,2.355,0,0,1,.788,1.894v3.145a3.471,3.471,0,0,0,.289,1.562v.114Zm-1.6-1.348a1.675,1.675,0,0,0,.791-.191,1.259,1.259,0,0,0,.536-.512v-1.248h-.724q-1.456,0-1.549,1.006l-.007.114a.775.775,0,0,0,.256.6A.986.986,0,0,0,1667.375-762.22Z" transform="translate(-1638.96 771.171)" fill="#0e1c2f" stroke="rgba(0,0,0,0)" stroke-width="1"/>
            <path id="Trazado_130448" data-name="Trazado 130448" d="M1675.532-768.127l.06.838a2.534,2.534,0,0,1,2.085-.972,2.1,2.1,0,0,1,1.717.677,3.157,3.157,0,0,1,.577,2.024v4.687h-1.938v-4.64a1.257,1.257,0,0,0-.268-.9,1.2,1.2,0,0,0-.891-.278,1.333,1.333,0,0,0-1.227.7v5.116h-1.938v-7.255Z" transform="translate(-1640.572 771.171)" fill="#0e1c2f" stroke="rgba(0,0,0,0)" stroke-width="1"/>
            <path id="Trazado_130449" data-name="Trazado 130449" d="M1682.71-764.567a4.342,4.342,0,0,1,.761-2.7,2.49,2.49,0,0,1,2.089-.992,2.229,2.229,0,0,1,1.857.891l.127-.758h1.7v10.044H1687.3V-761.5a2.235,2.235,0,0,1-1.757.757,2.47,2.47,0,0,1-2.064-1.005A4.544,4.544,0,0,1,1682.71-764.567Zm1.938.137a2.846,2.846,0,0,0,.365,1.585,1.168,1.168,0,0,0,1.029.544,1.3,1.3,0,0,0,1.261-.711v-3a1.294,1.294,0,0,0-1.247-.685,1.186,1.186,0,0,0-1.04.544A3.145,3.145,0,0,0,1684.648-764.43Z" transform="translate(-1642.146 771.171)" fill="#0e1c2f" stroke="rgba(0,0,0,0)" stroke-width="1"/>
            <path id="Trazado_130450" data-name="Trazado 130450" d="M1696.811-761.582a2.43,2.43,0,0,1-1.984.871,2.294,2.294,0,0,1-1.78-.67,2.865,2.865,0,0,1-.627-1.965V-768.1h1.938v4.692q0,1.135,1.032,1.135a1.4,1.4,0,0,0,1.354-.685V-768.1h1.945v7.255h-1.824Z" transform="translate(-1643.843 771.143)" fill="#0e1c2f" stroke="rgba(0,0,0,0)" stroke-width="1"/>
            <path id="Trazado_130451" data-name="Trazado 130451" d="M1701.772-770.585a.955.955,0,0,1,.292-.717,1.093,1.093,0,0,1,.795-.281,1.1,1.1,0,0,1,.791.281.948.948,0,0,1,.295.717.953.953,0,0,1-.3.725,1.1,1.1,0,0,1-.787.281,1.1,1.1,0,0,1-.788-.281A.953.953,0,0,1,1701.772-770.585Zm2.059,9.132h-1.945v-7.255h1.945Z" transform="translate(-1645.478 771.752)" fill="#0e1c2f" stroke="rgba(0,0,0,0)" stroke-width="1"/>
            <path id="Trazado_130452" data-name="Trazado 130452" d="M1708.266-761.489h-1.945v-10.3h1.945Z" transform="translate(-1646.273 771.788)" fill="#0e1c2f" stroke="rgba(0,0,0,0)" stroke-width="1"/>
            <path id="Trazado_130453" data-name="Trazado 130453" d="M1712.678-761.489h-1.945v-10.3h1.945Z" transform="translate(-1647.045 771.788)" fill="#0e1c2f" stroke="rgba(0,0,0,0)" stroke-width="1"/>
            <path id="Trazado_130454" data-name="Trazado 130454" d="M1719.166-760.872a2.175,2.175,0,0,1-.194-.65,2.343,2.343,0,0,1-1.83.784,2.581,2.581,0,0,1-1.768-.616,1.987,1.987,0,0,1-.7-1.555,2.049,2.049,0,0,1,.855-1.77A4.222,4.222,0,0,1,1718-765.3h.891v-.416a1.2,1.2,0,0,0-.257-.8,1.019,1.019,0,0,0-.815-.3,1.151,1.151,0,0,0-.767.234.8.8,0,0,0-.278.644h-1.939a1.945,1.945,0,0,1,.389-1.167,2.579,2.579,0,0,1,1.1-.842,4.011,4.011,0,0,1,1.6-.3,3.164,3.164,0,0,1,2.129.674,2.358,2.358,0,0,1,.788,1.894v3.145a3.47,3.47,0,0,0,.288,1.562v.114Zm-1.6-1.348a1.676,1.676,0,0,0,.791-.191,1.253,1.253,0,0,0,.536-.512v-1.248h-.724q-1.456,0-1.549,1.006l-.007.114a.774.774,0,0,0,.256.6A.986.986,0,0,0,1717.565-762.22Z" transform="translate(-1647.734 771.171)" fill="#0e1c2f" stroke="rgba(0,0,0,0)" stroke-width="1"/>
          </g>
          <rect id="Rectángulo_31185" data-name="Rectángulo 31185" width="67.098" height="27.654" transform="translate(148.451 201.74)" fill="#fff" stroke="rgba(0,0,0,0)" stroke-width="1"/>
          <g id="Grupo_58094" data-name="Grupo 58094" transform="translate(156.056 209.472)">
            <path id="Trazado_130455" data-name="Trazado 130455" d="M1678.707-565.163l2.508,7.08,2.494-7.08h2.641v9.762h-2.017v-2.668l.2-4.606L1681.9-555.4h-1.381l-2.629-7.268.2,4.6v2.668h-2.012v-9.762Z" transform="translate(-1676.079 565.699)" fill="#0e1c2f" stroke="rgba(0,0,0,0)" stroke-width="1"/>
            <path id="Trazado_130456" data-name="Trazado 130456" d="M1693.785-554.764a3.562,3.562,0,0,1-2.6-.979,3.482,3.482,0,0,1-1-2.608v-.188a4.384,4.384,0,0,1,.422-1.954,3.111,3.111,0,0,1,1.2-1.328,3.366,3.366,0,0,1,1.768-.466,3.014,3.014,0,0,1,2.344.939,3.817,3.817,0,0,1,.855,2.662v.791h-4.62a1.805,1.805,0,0,0,.567,1.14,1.711,1.711,0,0,0,1.2.429,2.094,2.094,0,0,0,1.75-.811l.952,1.066a2.913,2.913,0,0,1-1.18.962A3.886,3.886,0,0,1,1693.785-554.764Zm-.222-5.961a1.212,1.212,0,0,0-.935.391,2.017,2.017,0,0,0-.459,1.118h2.7v-.155a1.448,1.448,0,0,0-.348-1A1.25,1.25,0,0,0,1693.563-560.725Z" transform="translate(-1678.545 565.197)" fill="#0e1c2f" stroke="rgba(0,0,0,0)" stroke-width="1"/>
            <path id="Trazado_130457" data-name="Trazado 130457" d="M1699.13-559.195a4.377,4.377,0,0,1,.761-2.7,2.471,2.471,0,0,1,2.082-1.006,2.224,2.224,0,0,1,1.75.791v-3.7h1.944v10.3h-1.749l-.095-.771a2.281,2.281,0,0,1-1.863.905,2.464,2.464,0,0,1-2.055-1.009A4.509,4.509,0,0,1,1699.13-559.195Zm1.938.143a2.866,2.866,0,0,0,.355,1.565,1.158,1.158,0,0,0,1.032.544,1.3,1.3,0,0,0,1.268-.759v-2.868a1.28,1.28,0,0,0-1.254-.758Q1701.067-561.327,1701.068-559.051Z" transform="translate(-1680.108 565.813)" fill="#0e1c2f" stroke="rgba(0,0,0,0)" stroke-width="1"/>
            <path id="Trazado_130458" data-name="Trazado 130458" d="M1712.156-554.764a3.559,3.559,0,0,1-2.6-.979,3.48,3.48,0,0,1-1-2.608v-.188a4.4,4.4,0,0,1,.422-1.954,3.111,3.111,0,0,1,1.2-1.328,3.363,3.363,0,0,1,1.767-.466,3.013,3.013,0,0,1,2.343.939,3.817,3.817,0,0,1,.855,2.662v.791h-4.619a1.8,1.8,0,0,0,.566,1.14,1.711,1.711,0,0,0,1.2.429,2.092,2.092,0,0,0,1.75-.811l.952,1.066a2.906,2.906,0,0,1-1.18.962A3.886,3.886,0,0,1,1712.156-554.764Zm-.222-5.961a1.211,1.211,0,0,0-.934.391,2.016,2.016,0,0,0-.46,1.118h2.7v-.155a1.452,1.452,0,0,0-.349-1A1.25,1.25,0,0,0,1711.934-560.725Z" transform="translate(-1681.756 565.197)" fill="#0e1c2f" stroke="rgba(0,0,0,0)" stroke-width="1"/>
            <path id="Trazado_130459" data-name="Trazado 130459" d="M1719.933-555.515h-1.945v-10.3h1.945Z" transform="translate(-1683.405 565.813)" fill="#0e1c2f" stroke="rgba(0,0,0,0)" stroke-width="1"/>
            <path id="Trazado_130460" data-name="Trazado 130460" d="M1724.345-555.515H1722.4v-10.3h1.945Z" transform="translate(-1684.176 565.813)" fill="#0e1c2f" stroke="rgba(0,0,0,0)" stroke-width="1"/>
            <path id="Trazado_130461" data-name="Trazado 130461" d="M1728.815-555.493h-1.937v-7.254h1.937Zm-.57-10.2h2.112l-1.857,2.079h-1.575Z" transform="translate(-1684.959 565.792)" fill="#0e1c2f" stroke="rgba(0,0,0,0)" stroke-width="1"/>
            <path id="Trazado_130462" data-name="Trazado 130462" d="M1733.025-562.153l.06.838a2.532,2.532,0,0,1,2.085-.973,2.106,2.106,0,0,1,1.716.677,3.16,3.16,0,0,1,.577,2.025v4.686h-1.938v-4.639a1.256,1.256,0,0,0-.268-.9,1.2,1.2,0,0,0-.891-.278,1.333,1.333,0,0,0-1.227.7v5.115H1731.2v-7.254Z" transform="translate(-1685.715 565.197)" fill="#0e1c2f" stroke="rgba(0,0,0,0)" stroke-width="1"/>
          </g>
          <rect id="Rectángulo_31186" data-name="Rectángulo 31186" width="69.169" height="27.654" transform="translate(213.282 294.629)" fill="#fff" stroke="rgba(0,0,0,0)" stroke-width="1"/>
          <g id="Grupo_58095" data-name="Grupo 58095" transform="translate(225.028 302.36)">
            <path id="Trazado_130463" data-name="Trazado 130463" d="M1759.662-442.834V-452.6h3.42a4.494,4.494,0,0,1,2.7.681,2.328,2.328,0,0,1,.919,1.994,2.206,2.206,0,0,1-.37,1.264,2.128,2.128,0,0,1-1.026.8,2.061,2.061,0,0,1,1.183.757,2.243,2.243,0,0,1,.432,1.395,2.576,2.576,0,0,1-.9,2.132,4.043,4.043,0,0,1-2.561.738Zm2.012-5.672h1.488q1.523-.027,1.523-1.214a1.122,1.122,0,0,0-.386-.956,2.028,2.028,0,0,0-1.216-.291h-1.408Zm0,1.422v2.635h1.723a1.658,1.658,0,0,0,1.109-.339,1.161,1.161,0,0,0,.4-.935,1.225,1.225,0,0,0-1.388-1.361Z" transform="translate(-1759.662 453.133)" fill="#0e1c2f" stroke="rgba(0,0,0,0)" stroke-width="1"/>
            <path id="Trazado_130464" data-name="Trazado 130464" d="M1769.762-446.026a4.3,4.3,0,0,1,.416-1.924,3.045,3.045,0,0,1,1.2-1.308,3.5,3.5,0,0,1,1.814-.462,3.3,3.3,0,0,1,2.4.9,3.609,3.609,0,0,1,1.036,2.44l.013.5a3.79,3.79,0,0,1-.932,2.678,3.239,3.239,0,0,1-2.5,1.009,3.254,3.254,0,0,1-2.5-1.005,3.859,3.859,0,0,1-.936-2.736Zm1.938.137a2.719,2.719,0,0,0,.389,1.582,1.284,1.284,0,0,0,1.113.547,1.286,1.286,0,0,0,1.1-.54,2.97,2.97,0,0,0,.4-1.73,2.686,2.686,0,0,0-.4-1.57,1.286,1.286,0,0,0-1.113-.558,1.267,1.267,0,0,0-1.1.554A3.026,3.026,0,0,0,1771.7-445.889Z" transform="translate(-1761.428 452.63)" fill="#0e1c2f" stroke="rgba(0,0,0,0)" stroke-width="1"/>
            <path id="Trazado_130465" data-name="Trazado 130465" d="M1779.194-446.012a4.255,4.255,0,0,1,.795-2.688,2.573,2.573,0,0,1,2.142-1.019,2.257,2.257,0,0,1,1.857.818l.081-.684h1.756v7.013a3.1,3.1,0,0,1-.432,1.656,2.786,2.786,0,0,1-1.217,1.074,4.287,4.287,0,0,1-1.837.368,3.981,3.981,0,0,1-1.556-.319,2.768,2.768,0,0,1-1.147-.821l.859-1.18a2.268,2.268,0,0,0,1.756.811,1.66,1.66,0,0,0,1.2-.413,1.547,1.547,0,0,0,.429-1.169v-.389a2.242,2.242,0,0,1-1.763.758A2.566,2.566,0,0,1,1780-443.22a4.246,4.246,0,0,1-.809-2.712Zm1.938.144a2.646,2.646,0,0,0,.4,1.548,1.258,1.258,0,0,0,1.086.56,1.345,1.345,0,0,0,1.267-.664v-3.056a1.342,1.342,0,0,0-1.254-.665,1.267,1.267,0,0,0-1.1.571A2.984,2.984,0,0,0,1781.132-445.868Z" transform="translate(-1763.076 452.63)" fill="#0e1c2f" stroke="rgba(0,0,0,0)" stroke-width="1"/>
            <path id="Trazado_130466" data-name="Trazado 130466" d="M1788.669-446.026a4.3,4.3,0,0,1,.416-1.924,3.045,3.045,0,0,1,1.2-1.308,3.5,3.5,0,0,1,1.814-.462,3.3,3.3,0,0,1,2.4.9,3.6,3.6,0,0,1,1.036,2.44l.013.5a3.79,3.79,0,0,1-.931,2.678,3.239,3.239,0,0,1-2.5,1.009,3.256,3.256,0,0,1-2.5-1.005,3.861,3.861,0,0,1-.936-2.736Zm1.938.137a2.718,2.718,0,0,0,.388,1.582,1.283,1.283,0,0,0,1.113.547,1.286,1.286,0,0,0,1.1-.54,2.971,2.971,0,0,0,.4-1.73,2.687,2.687,0,0,0-.4-1.57,1.286,1.286,0,0,0-1.114-.558,1.267,1.267,0,0,0-1.1.554A3.025,3.025,0,0,0,1790.607-445.889Z" transform="translate(-1764.733 452.63)" fill="#0e1c2f" stroke="rgba(0,0,0,0)" stroke-width="1"/>
            <path id="Trazado_130467" data-name="Trazado 130467" d="M1800.62-451.719v1.783h1.241v1.422h-1.241v3.621a.863.863,0,0,0,.154.576.774.774,0,0,0,.59.174,3.1,3.1,0,0,0,.57-.046v1.468a3.985,3.985,0,0,1-1.173.174,1.85,1.85,0,0,1-2.079-2.058v-3.909h-1.059v-1.422h1.059v-1.783Z" transform="translate(-1766.298 452.98)" fill="#0e1c2f" stroke="rgba(0,0,0,0)" stroke-width="1"/>
            <path id="Trazado_130468" data-name="Trazado 130468" d="M1808.208-442.948a2.172,2.172,0,0,1-.194-.65,2.344,2.344,0,0,1-1.83.784,2.581,2.581,0,0,1-1.768-.616,1.987,1.987,0,0,1-.7-1.555,2.049,2.049,0,0,1,.855-1.77,4.221,4.221,0,0,1,2.47-.624h.891v-.416a1.2,1.2,0,0,0-.258-.8,1.018,1.018,0,0,0-.815-.3,1.151,1.151,0,0,0-.767.234.8.8,0,0,0-.278.644h-1.938a1.945,1.945,0,0,1,.389-1.167,2.578,2.578,0,0,1,1.1-.842,4.012,4.012,0,0,1,1.6-.3,3.164,3.164,0,0,1,2.129.674,2.357,2.357,0,0,1,.788,1.894v3.145a3.474,3.474,0,0,0,.288,1.562v.114Zm-1.6-1.348a1.677,1.677,0,0,0,.792-.191,1.254,1.254,0,0,0,.536-.512v-1.248h-.724q-1.456,0-1.549,1.006l-.007.114a.774.774,0,0,0,.256.6A.986.986,0,0,0,1806.607-444.3Zm.737-8.952h2.113l-1.858,2.079h-1.576Z" transform="translate(-1767.363 453.247)" fill="#0e1c2f" stroke="rgba(0,0,0,0)" stroke-width="1"/>
          </g>
          <rect id="Rectángulo_31187" data-name="Rectángulo 31187" width="57.616" height="27.654" transform="translate(114.946 335.065)" fill="#fff" stroke="rgba(0,0,0,0)" stroke-width="1"/>
          <g id="Grupo_58096" data-name="Grupo 58096" transform="translate(131.22 342.796)">
            <path id="Trazado_130469" data-name="Trazado 130469" d="M1653.94-397.113a3.46,3.46,0,0,1-1.164,2.48,4.083,4.083,0,0,1-2.766.905,3.674,3.674,0,0,1-2.953-1.263,5.185,5.185,0,0,1-1.076-3.47v-.6a5.858,5.858,0,0,1,.5-2.48,3.725,3.725,0,0,1,1.418-1.647,3.98,3.98,0,0,1,2.141-.573,3.975,3.975,0,0,1,2.722.905,3.712,3.712,0,0,1,1.194,2.541h-2.012a2.031,2.031,0,0,0-.526-1.371,1.947,1.947,0,0,0-1.378-.426,1.711,1.711,0,0,0-1.505.72,4.049,4.049,0,0,0-.512,2.236v.738a4.326,4.326,0,0,0,.479,2.313,1.678,1.678,0,0,0,1.512.731,1.986,1.986,0,0,0,1.391-.426,1.923,1.923,0,0,0,.526-1.318Z" transform="translate(-1645.981 404.16)" fill="#0e1c2f" stroke="rgba(0,0,0,0)" stroke-width="1"/>
            <path id="Trazado_130470" data-name="Trazado 130470" d="M1661.214-393.329a2.143,2.143,0,0,1-.194-.65,2.344,2.344,0,0,1-1.83.784,2.581,2.581,0,0,1-1.768-.616,1.987,1.987,0,0,1-.7-1.555,2.046,2.046,0,0,1,.855-1.77,4.22,4.22,0,0,1,2.47-.624h.891v-.416a1.2,1.2,0,0,0-.257-.8,1.021,1.021,0,0,0-.815-.3,1.151,1.151,0,0,0-.767.235.8.8,0,0,0-.278.644h-1.938a1.943,1.943,0,0,1,.389-1.167,2.573,2.573,0,0,1,1.1-.842,4.006,4.006,0,0,1,1.6-.3,3.16,3.16,0,0,1,2.128.674,2.355,2.355,0,0,1,.788,1.894v3.145a3.481,3.481,0,0,0,.289,1.562v.114Zm-1.6-1.348a1.676,1.676,0,0,0,.791-.191,1.256,1.256,0,0,0,.536-.513v-1.247h-.724q-1.456,0-1.549,1.006l-.007.114a.774.774,0,0,0,.256.6A.987.987,0,0,0,1659.613-394.677Z" transform="translate(-1647.859 403.628)" fill="#0e1c2f" stroke="rgba(0,0,0,0)" stroke-width="1"/>
            <path id="Trazado_130471" data-name="Trazado 130471" d="M1668.06-393.946h-1.945v-10.3h1.945Z" transform="translate(-1649.501 404.245)" fill="#0e1c2f" stroke="rgba(0,0,0,0)" stroke-width="1"/>
            <path id="Trazado_130472" data-name="Trazado 130472" d="M1670.39-403.043a.954.954,0,0,1,.292-.717,1.1,1.1,0,0,1,.795-.282,1.1,1.1,0,0,1,.791.282.948.948,0,0,1,.295.717.952.952,0,0,1-.3.725,1.1,1.1,0,0,1-.787.281,1.1,1.1,0,0,1-.788-.281A.952.952,0,0,1,1670.39-403.043Zm2.058,9.132H1670.5v-7.255h1.945Z" transform="translate(-1650.248 404.21)" fill="#0e1c2f" stroke="rgba(0,0,0,0)" stroke-width="1"/>
          </g>
        </g>
        <circle id="Elipse_3971" data-name="Elipse 3971" cx="193.409" cy="193.409" r="193.409" fill="none" stroke="#26aab7" stroke-miterlimit="10" stroke-width="7" opacity="0.58"/>
      </g>
    </g>
  </g>
</svg>
