<svg xmlns="http://www.w3.org/2000/svg" xmlns:xlink="http://www.w3.org/1999/xlink" width="152.326" height="165.978" viewBox="0 0 152.326 165.978">
  <defs>
    <clipPath id="clip-path">
      <path id="Trazado_131642" data-name="Trazado 131642" d="M258.372,217.826c0,45.833,33.017,77.385,75.082,77.385s76.092-33.588,76.092-79.424-34.03-86.553-76.092-86.553-75.082,42.759-75.082,88.592" transform="translate(-258.372 -129.234)" fill="none"/>
    </clipPath>
    <clipPath id="clip-path-2">
      <rect id="Rectángulo_31191" data-name="Rectángulo 31191" width="10.807" height="7.672" fill="none"/>
    </clipPath>
    <clipPath id="clip-path-3">
      <rect id="Rectángulo_31192" data-name="Rectángulo 31192" width="10.809" height="7.672" fill="none"/>
    </clipPath>
    <clipPath id="clip-path-4">
      <rect id="Rectángulo_31193" data-name="Rectángulo 31193" width="1.291" height="1.688" fill="none"/>
    </clipPath>
    <clipPath id="clip-path-5">
      <rect id="Rectángulo_31194" data-name="Rectángulo 31194" width="45.225" height="38.792" fill="none"/>
    </clipPath>
    <clipPath id="clip-path-6">
      <path id="Trazado_131643" data-name="Trazado 131643" d="M369.814,269.223a37.289,37.289,0,0,0-10.238-2.566s1.177,6.2,10.238,6.2,10.238-6.2,10.238-6.2a37.6,37.6,0,0,0-10.238,2.566" transform="translate(-359.576 -266.657)" fill="none"/>
    </clipPath>
    <linearGradient id="linear-gradient" x1="1.74" y1="56.272" x2="1.853" y2="56.272" gradientUnits="objectBoundingBox">
      <stop offset="0" stop-color="#f8ba86"/>
      <stop offset="0.285" stop-color="#f7b583"/>
      <stop offset="0.579" stop-color="#f5a97b"/>
      <stop offset="0.876" stop-color="#f3946e"/>
      <stop offset="1" stop-color="#f28a67"/>
    </linearGradient>
  </defs>
  <g id="Grupo_58826" data-name="Grupo 58826" transform="translate(4482.688 -340.427)">
    <g id="Grupo_58784" data-name="Grupo 58784" transform="translate(-4739.731 211.193)">
      <path id="Trazado_131612" data-name="Trazado 131612" d="M409.369,226.321a76.163,76.163,0,1,1-76.164-76.164,76.164,76.164,0,0,1,76.164,76.164" transform="translate(0 -7.27)" fill="#cbc5e0"/>
      <g id="Grupo_58443" data-name="Grupo 58443" transform="translate(257.91 129.234)">
        <g id="Grupo_58442" data-name="Grupo 58442" clip-path="url(#clip-path)">
          <path id="Trazado_131613" data-name="Trazado 131613" d="M400.559,316.377c-5.2-7.656-25.331-11.4-33.324-13-2.141-.425-4.407-.553-5.974-1.554-1.317-.84-1.531-2.26-1.691-4.438-.277-3.725.172-12.985,0-15.319H318.311c-.172,2.333.277,6.318,0,10.046-.16,2.176-.371,8.868-1.688,9.711-1.567,1-3.836,1.128-5.979,1.554-7.991,1.595-28.125,5.34-33.322,13-5.44,8.014-6.594,21.7-6.594,21.7s27.609,11.434,68.213,11.434,68.211-11.434,68.211-11.434-1.152-13.686-6.592-21.7" transform="translate(-262.665 -182.342)" fill="#ffc08d"/>
          <path id="Trazado_131614" data-name="Trazado 131614" d="M343.437,292.116c-.079,1.073-.17,3.242-.4,5.268,18.4,5.75,36.222-4.2,41.639-9.237.028-1.523.056-2.956.058-4.1,0-.673-.009-1.24-.023-1.627-.005-.126-.007-.251-.014-.351H343.437c-.172,2.336.276,6.321,0,10.046" transform="translate(-287.791 -182.342)" fill="#ffac6a"/>
          <path id="Trazado_131615" data-name="Trazado 131615" d="M317.9,218.547s-4.572-6.506-10.84-2.041c-2.844,2.025-5.241,9.678-.79,17.292,4.359,7.452,12.033,8.438,14.494,4.63Z" transform="translate(-274.16 -159.016)" fill="#f8be8e"/>
          <path id="Trazado_131616" data-name="Trazado 131616" d="M317.91,218.547s-4.572-6.506-10.84-2.041c-1.651,1.177-3.142,4.256-3.237,8.118.1-.539,1.312-6.221,5.9-7.229,4.821-1.056,8.292,4.851,8.292,4.693,0-.035.053-.736.137-1.762Z" transform="translate(-274.169 -159.016)" fill="#ffac6a"/>
          <path id="Trazado_131617" data-name="Trazado 131617" d="M309.054,229.288c.476-3.021,2.322-4.4,4.73-4.245s3.817,3.39,3.919,6.572c0,0-2.972-.381-3.058,2.547-.077,2.613,2.5,3.525,3.559,2.905,0,0-.2,1.461-2.691,1.635-3.012.209-7.3-4.882-6.46-9.414" transform="translate(-275.946 -162.522)" fill="#ffac6a"/>
          <path id="Trazado_131618" data-name="Trazado 131618" d="M423.6,218.547s4.57-6.506,10.837-2.041c2.844,2.025,5.241,9.678.79,17.292-4.359,7.452-12.033,8.438-14.494,4.63Z" transform="translate(-314.789 -159.016)" fill="#f8be8e"/>
          <path id="Trazado_131619" data-name="Trazado 131619" d="M439.593,235.5a16.867,16.867,0,0,0,1.113-1.653c4.452-7.614,2.055-15.268-.787-17.292a8.069,8.069,0,0,0-3.414-1.479c3.827.957,8.478,9.251,3.088,20.425" transform="translate(-320.27 -159.062)" fill="#fedabf"/>
          <path id="Trazado_131620" data-name="Trazado 131620" d="M436.546,229.288c-.476-3.021-2.322-4.4-4.73-4.245s-3.817,3.39-3.92,6.572c0,0,2.972-.381,3.058,2.547.076,2.613-2.5,3.525-3.56,2.905,0,0,.194,1.461,2.691,1.635,3.012.209,7.3-4.882,6.46-9.414" transform="translate(-317.104 -162.522)" fill="#ffac6a"/>
          <path id="Trazado_131621" data-name="Trazado 131621" d="M357.7,248.237c-10.649,0-23.432-8.954-27.373-13.635-4.182-4.969-4.786-29.853-5.455-38.7-1.922-25.392,14.7-36.782,32.828-36.782s34.75,11.39,32.827,36.782c-.669,8.844-2.591,33.728-6.774,38.7-3.941,4.681-15.4,13.635-26.053,13.635" transform="translate(-281.428 -139.62)" fill="#ffc08d"/>
          <path id="Trazado_131622" data-name="Trazado 131622" d="M379.644,168.6s-5.508,6.852-18.14,8.714-25.461-4.358-25.461-4.358-.739,7.816-4.6,11.805-6.8,5-6.934,6.755a19.6,19.6,0,0,1,0-11.457c1.879-6.47,6.135-12.853,19.169-13.649s35.962,2.19,35.962,2.19" transform="translate(-281.064 -142.106)" fill="#ffac6a"/>
          <path id="Trazado_131623" data-name="Trazado 131623" d="M321.13,186.316c.919-2.324,4.781-3.641,7.013-9.225a75.426,75.426,0,0,0,3.464-12.379l-5.462-9.63s-6.936,1.614-10.185,7.8c-2.283,4.352-2.786,20.975-1.319,28.9.613,3.3,4.326,12.284,7.677,12.5l-.943-6.527a54.967,54.967,0,0,1-.246-11.434" transform="translate(-277.637 -138.216)" fill="#512a3b"/>
          <path id="Trazado_131624" data-name="Trazado 131624" d="M419.923,189.785c-.92-2.324-4.782-3.641-7.013-9.225a75.429,75.429,0,0,1-3.464-12.379l7.363-3.116s5.2.337,8.063,6.713c1.928,4.291,3.007,15.553,1.539,23.474-.613,3.3-4.326,12.284-7.677,12.5l.943-6.527a55.012,55.012,0,0,0,.247-11.434" transform="translate(-310.867 -141.684)" fill="#512a3b"/>
          <path id="Trazado_131625" data-name="Trazado 131625" d="M431.069,198.6a56.072,56.072,0,0,0-.629-20.678c-2.594-3.659-6.565-4.546-7.466-.812s3.478,9.1,4.788,12.927c1.514,4.41,1.756,14.3-3.118,20.606,2.97-1.895,5.889-9.151,6.425-12.042" transform="translate(-315.526 -145.036)" fill="#723e55"/>
          <g id="Grupo_58432" data-name="Grupo 58432" transform="translate(93.175 65.673)" opacity="0.3">
            <g id="Grupo_58431" data-name="Grupo 58431">
              <g id="Grupo_58430" data-name="Grupo 58430" clip-path="url(#clip-path-2)">
                <path id="Trazado_131626" data-name="Trazado 131626" d="M401.218,234.806c.415,2.029,3.144,3.188,6.1,2.584s5.016-2.735,4.6-4.765-3.144-3.191-6.1-2.589-5.016,2.738-4.6,4.77" transform="translate(-401.165 -229.879)" fill="#e66267"/>
              </g>
            </g>
          </g>
          <g id="Grupo_58435" data-name="Grupo 58435" transform="translate(48.566 65.673)" opacity="0.3">
            <g id="Grupo_58434" data-name="Grupo 58434">
              <g id="Grupo_58433" data-name="Grupo 58433" clip-path="url(#clip-path-3)">
                <path id="Trazado_131627" data-name="Trazado 131627" d="M343.558,234.806c-.414,2.029-3.144,3.188-6.1,2.584s-5.015-2.735-4.6-4.765,3.144-3.191,6.1-2.589,5.016,2.738,4.6,4.77" transform="translate(-332.802 -229.879)" fill="#e66267"/>
              </g>
            </g>
          </g>
          <path id="Trazado_131628" data-name="Trazado 131628" d="M378.483,237.146c-.8-2.083-3.985-23.053-7.229-23.053s-6.432,20.971-7.231,23.053.241,2.857.241,2.857l1.1-.207c1.8-.634,5,1.665,5.886,1.848.885-.183,4.087-2.482,5.886-1.848l1.1.207s1.042-.776.241-2.857" transform="translate(-294.979 -158.721)" fill="#ffb67d"/>
          <g id="Grupo_58438" data-name="Grupo 58438" transform="translate(77.813 77.42)" opacity="0.3">
            <g id="Grupo_58437" data-name="Grupo 58437">
              <g id="Grupo_58436" data-name="Grupo 58436" clip-path="url(#clip-path-4)">
                <path id="Trazado_131629" data-name="Trazado 131629" d="M378.882,248.548a.808.808,0,0,1-.416,1c-.337.1-.7-.19-.812-.647a.807.807,0,0,1,.413-1c.339-.1.7.191.815.645" transform="translate(-377.621 -247.883)" fill="#fff"/>
              </g>
            </g>
          </g>
          <path id="Trazado_131630" data-name="Trazado 131630" d="M377.6,253.454a4.176,4.176,0,0,0-2.088.258,4.882,4.882,0,0,1-5.9,0,4.186,4.186,0,0,0-2.09-.258c-.03,0-.06.082-.023.084,1.837.161,2.8,1.588,4.51,2.02a2.416,2.416,0,0,0,1.11,0c1.712-.432,2.673-1.86,4.51-2.02.037,0,.009-.079-.023-.084" transform="translate(-296.285 -172.387)" fill="#512a3b"/>
          <path id="Trazado_131631" data-name="Trazado 131631" d="M381.426,253.434a6.153,6.153,0,0,0,1.609.07c.755-.074,1.8-.913.62-1.519a2.219,2.219,0,0,0-2.363.249,5.294,5.294,0,0,1-1.25.834Z" transform="translate(-300.65 -171.803)" fill="#512a3b"/>
          <path id="Trazado_131632" data-name="Trazado 131632" d="M366.9,253.434a6.151,6.151,0,0,1-1.609.07c-.754-.074-1.8-.913-.62-1.519a2.22,2.22,0,0,1,2.364.249,5.3,5.3,0,0,0,1.247.834Z" transform="translate(-295.125 -171.803)" fill="#512a3b"/>
          <path id="Trazado_131633" data-name="Trazado 131633" d="M407.918,218.7s-3.806,22.64-5.244,29.162-4.551,10.008-10.888,14.316-12.555,6.759-16.524,6.759c10.649,0,22.115-8.956,26.054-13.635,3.889-4.621,5.821-26.439,6.613-36.6Z" transform="translate(-298.989 -160.323)" fill="#fedabf"/>
          <path id="Trazado_131634" data-name="Trazado 131634" d="M400.559,327.688c-5.2-7.656-25.331-11.4-33.324-13-.112-.019-.223-.044-.335-.068-3.244,8.32-14.763,14.906-27.957,14.906s-24.716-6.585-27.958-14.906l0,0c-.116.025-.23.048-.346.07-7.991,1.595-28.125,5.34-33.322,13-5.44,8.014-6.594,21.7-6.594,21.7s27.609,11.434,68.213,11.434,68.211-11.434,68.211-11.434-1.152-13.686-6.592-21.7" transform="translate(-262.665 -193.653)" fill="#3e65ad"/>
          <path id="Trazado_131635" data-name="Trazado 131635" d="M388.338,313.831a36.264,36.264,0,0,1-5.642-1.494h-.01c-1.818,5.838-10.937,11.132-22.306,11.132s-20.487-5.294-22.306-11.132l-.016,0a36.516,36.516,0,0,1-5.636,1.491c3.242,8.32,14.762,14.9,27.958,14.9s24.716-6.585,27.958-14.9" transform="translate(-284.103 -192.859)" fill="#3e65ad"/>
          <path id="Trazado_131636" data-name="Trazado 131636" d="M446.989,322.855c-4.54,4.477-7.684,13.9-6.739,25.057.941,11.139,2.041,11.06,2.044,11.076,11.332-2.645,23.706-6.741,23.706-6.741s-1.154-13.684-6.592-21.7c-2.18-3.207-6.985-5.729-12.418-7.693" transform="translate(-321.512 -196.514)" fill="#3e65ad"/>
          <path id="Trazado_131637" data-name="Trazado 131637" d="M296.482,347.911c.943-11.155-2.2-20.58-6.739-25.057v0c-5.436,1.967-10.243,4.487-12.423,7.7-5.44,8.016-6.594,21.7-6.594,21.7s12.374,4.1,23.711,6.741c0,0,1.105.074,2.046-11.077" transform="translate(-262.665 -196.512)" fill="#3e65ad"/>
          <path id="Trazado_131638" data-name="Trazado 131638" d="M440.636,344.683a44.215,44.215,0,0,0-.386,10.814c.941,11.139,2.041,11.06,2.044,11.077,2.157-.5,4.349-1.059,6.49-1.628-4.848-3.418-8.127-20.162-8.148-20.262" transform="translate(-321.514 -204.098)" fill="#315094"/>
          <path id="Trazado_131639" data-name="Trazado 131639" d="M305.268,344.683a44.182,44.182,0,0,1,.386,10.814c-.94,11.139-2.041,11.06-2.046,11.077-2.155-.5-4.349-1.059-6.488-1.628,4.848-3.418,8.127-20.162,8.148-20.262" transform="translate(-271.836 -204.098)" fill="#315094"/>
          <g id="Grupo_58441" data-name="Grupo 58441" transform="translate(99.262 119.842)" style="mix-blend-mode: soft-light;isolation: isolate">
            <g id="Grupo_58440" data-name="Grupo 58440">
              <g id="Grupo_58439" data-name="Grupo 58439" clip-path="url(#clip-path-5)">
                <path id="Trazado_131640" data-name="Trazado 131640" d="M415.8,314.092a25.82,25.82,0,0,1-5.308-1.2c4.272,2.12,16.819,5.03,25.773,8.842,9.476,4.031,11.9,10.078,13.709,17.337a14.21,14.21,0,0,1-3.039,12.442l.327.172c5.451-1.66,8.453-2.9,8.453-2.9s-1.152-13.684-6.59-21.7c-5.2-7.655-25.333-11.4-33.323-13" transform="translate(-410.493 -312.894)" fill="#def0f7"/>
              </g>
            </g>
          </g>
          <path id="Trazado_131641" data-name="Trazado 131641" d="M370.289,266.949h-9.344l9.344,3.929,9.27-3.88Z" transform="translate(-294.014 -177.087)" fill="#fff"/>
        </g>
      </g>
      <g id="Grupo_58445" data-name="Grupo 58445" transform="translate(323.948 218.905)">
        <g id="Grupo_58444" data-name="Grupo 58444" clip-path="url(#clip-path-6)">
          <rect id="Rectángulo_31195" data-name="Rectángulo 31195" width="20.476" height="6.2" transform="translate(0 0)" fill="url(#linear-gradient)"/>
        </g>
      </g>
      <g id="Grupo_58447" data-name="Grupo 58447" transform="translate(257.91 129.234)">
        <g id="Grupo_58446" data-name="Grupo 58446" clip-path="url(#clip-path)">
          <path id="Trazado_131644" data-name="Trazado 131644" d="M380.113,265.263a11.623,11.623,0,0,1-2.008.265c-1.456-.037-3.585-.46-4.574-.534-1.9-.142-3.109.59-3.936.59s-2.035-.732-3.939-.59c-.987.074-3.116.5-4.572.534a11.674,11.674,0,0,1-2.01-.265c-.527.119.125,1.9,10.521,1.9s11.048-1.785,10.519-1.9" transform="translate(-293.319 -176.401)" fill="#9a4335"/>
          <path id="Trazado_131645" data-name="Trazado 131645" d="M372.644,275.512c-1.655,0-5.268-.794-4.9-.515a9.787,9.787,0,0,0,4.9,1.532h0a9.782,9.782,0,0,0,4.9-1.532c.367-.279-3.246.515-4.9.515" transform="translate(-296.367 -179.863)" fill="#9a4335"/>
          <path id="Trazado_131646" data-name="Trazado 131646" d="M392.74,204.493c-4.375.225-5.332-.678-6.806-.107-1.254.488-1.152,2.434.564,3.31,1.939.989,6.021.376,9.075.236,4.252-.19,8.562-.58,10.935.532,0,0-.2-3.39-4.3-3.81a90.48,90.48,0,0,0-9.469-.161" transform="translate(-302.404 -155.281)" fill="#512a3b"/>
          <path id="Trazado_131647" data-name="Trazado 131647" d="M346.385,204.493c4.375.225,5.331-.678,6.806-.107,1.254.488,1.152,2.434-.564,3.31-1.939.989-6.021.376-9.075.236-4.252-.19-8.561-.58-10.932.532,0,0,.193-3.39,4.3-3.81a90.442,90.442,0,0,1,9.467-.161" transform="translate(-284.171 -155.281)" fill="#512a3b"/>
          <path id="Trazado_131648" data-name="Trazado 131648" d="M388.446,218.616c.091-1.3,3.379-3.531,8.757-3.469,6.337.072,7.056,2.944,7.056,2.944s-.924,4.858-6.827,5.208a10,10,0,0,1-8.986-4.684" transform="translate(-303.57 -159.087)" fill="#fff"/>
          <path id="Trazado_131649" data-name="Trazado 131649" d="M402.408,218.562a4.239,4.239,0,1,0-4.521,3.931,4.232,4.232,0,0,0,4.521-3.931" transform="translate(-305.479 -158.699)" fill="#512a3b"/>
          <path id="Trazado_131650" data-name="Trazado 131650" d="M404.126,216.344s.063-6.121-7.289-6.228c-8.46-.121-8.764,6.425-8.773,6.465a10.681,10.681,0,0,1,8.773-3.23c5.784.4,7.289,2.993,7.289,2.993" transform="translate(-303.437 -157.338)" fill="#ffac6a"/>
          <path id="Trazado_131651" data-name="Trazado 131651" d="M397.253,219.269a2.082,2.082,0,1,1,1.932,2.222,2.081,2.081,0,0,1-1.932-2.222" transform="translate(-306.629 -159.846)" fill="#3a1c2b"/>
          <path id="Trazado_131652" data-name="Trazado 131652" d="M401.512,218.134a1.023,1.023,0,1,1,.95,1.094,1.022,1.022,0,0,1-.95-1.094" transform="translate(-308.109 -159.795)" fill="#fff"/>
          <path id="Trazado_131653" data-name="Trazado 131653" d="M397.2,221.774a.473.473,0,1,1,.453.493.472.472,0,0,1-.453-.493" transform="translate(-306.611 -161.233)" fill="#fff"/>
          <path id="Trazado_131654" data-name="Trazado 131654" d="M388.235,218.361a33.457,33.457,0,0,1,3.318-1.581,15.127,15.127,0,0,1,9.737-.172,4.971,4.971,0,0,1,2.563,1.414c.421.49.623-.538-.787-1.732a10.238,10.238,0,0,0-6.46-1.958,10.441,10.441,0,0,0-6.646,1.86c-1.909,1.338-2.171,2.12-1.725,2.169" transform="translate(-303.432 -158.804)" fill="#422030"/>
          <path id="Trazado_131655" data-name="Trazado 131655" d="M353.662,218.616c-.091-1.3-3.379-3.531-8.756-3.469-6.335.072-7.057,2.944-7.057,2.944s.924,4.858,6.827,5.208a10,10,0,0,0,8.986-4.684" transform="translate(-285.989 -159.087)" fill="#fff"/>
          <path id="Trazado_131656" data-name="Trazado 131656" d="M343.607,218.562a4.239,4.239,0,1,1,4.521,3.931,4.231,4.231,0,0,1-4.521-3.931" transform="translate(-287.986 -158.699)" fill="#512a3b"/>
          <path id="Trazado_131657" data-name="Trazado 131657" d="M337.85,216.344s-.063-6.121,7.289-6.228c8.459-.121,8.763,6.425,8.772,6.465a10.68,10.68,0,0,0-8.772-3.23c-5.785.4-7.289,2.993-7.289,2.993" transform="translate(-285.989 -157.338)" fill="#ffac6a"/>
          <path id="Trazado_131658" data-name="Trazado 131658" d="M351.058,219.269a2.082,2.082,0,1,0-1.931,2.222,2.081,2.081,0,0,0,1.931-2.222" transform="translate(-289.134 -159.846)" fill="#3a1c2b"/>
          <path id="Trazado_131659" data-name="Trazado 131659" d="M347.928,218.134a1.023,1.023,0,1,0-.949,1.094,1.021,1.021,0,0,0,.949-1.094" transform="translate(-288.781 -159.795)" fill="#fff"/>
          <path id="Trazado_131660" data-name="Trazado 131660" d="M352.829,221.774a.473.473,0,1,0-.453.493.472.472,0,0,0,.453-.493" transform="translate(-290.865 -161.233)" fill="#fff"/>
          <path id="Trazado_131661" data-name="Trazado 131661" d="M353.712,218.361a33.447,33.447,0,0,0-3.319-1.581,15.125,15.125,0,0,0-9.736-.172,4.979,4.979,0,0,0-2.564,1.414c-.42.49-.622-.538.788-1.732a10.238,10.238,0,0,1,6.46-1.958,10.433,10.433,0,0,1,6.645,1.86c1.909,1.338,2.174,2.12,1.726,2.169" transform="translate(-285.966 -158.804)" fill="#422030"/>
          <path id="Trazado_131662" data-name="Trazado 131662" d="M332.69,148.556s20.45-15.286,39.969-6.209,18.862,13.547,18.862,13.547l-6.239,13.122s-22.111,7.972-27.928.5-24.449-7.561-24.449-7.561Z" transform="translate(-284.196 -132.79)" fill="#512a3b"/>
          <path id="Trazado_131663" data-name="Trazado 131663" d="M332.879,150.441a4.228,4.228,0,0,1-3.042-4.252c-.249,1.2-.495,2.4-.743,3.595-.051.251-.146.547-.4.608a.7.7,0,0,1-.555-.225c-.543-.451-1.091-.9-1.637-1.349a5.821,5.821,0,0,1,.671,5.359" transform="translate(-282.047 -135.126)" fill="#512a3b"/>
        </g>
      </g>
    </g>
  </g>
</svg>
