<svg xmlns="http://www.w3.org/2000/svg" width="210.289" height="58.46" viewBox="0 0 210.289 58.46">
  <g id="Grupo_58808" data-name="Grupo 58808" transform="translate(3853.478 6399.594)">
    <g id="Grupo_58743" data-name="Grupo 58743" transform="translate(-3853.478 -6399.594)">
      <path id="Trazado_18204" data-name="Trazado 18204" d="M1570.216,252.092a6.777,6.777,0,0,0,1.865-2.118,5.263,5.263,0,0,0,.744-2.6c.287-.095,6.709-.107,7.1-.01a15.637,15.637,0,0,1-3.44,9.063c.208.225.392.419.569.618a11.13,11.13,0,0,1,1.911,3.186,13.433,13.433,0,0,1,1.058,5.238,12.383,12.383,0,0,1-2.555,7.524c-.305.409-.637.8-.983,1.234a15.384,15.384,0,0,1,2.456,4.33,15.875,15.875,0,0,1,1.041,4.825c-.329.084-6.908.093-7.286.016-.052-.327-.1-.664-.161-1a6.214,6.214,0,0,0-1.168-2.693,8.217,8.217,0,0,0-.764-.783,2.5,2.5,0,0,0-.366-.233c0,.581-.007,1.086-.007,1.592,0,.524,0,1.049,0,1.574v1.523c-.294.1-6.339.116-6.783.017v-4.786a4.152,4.152,0,0,0-.417.279,5.707,5.707,0,0,0-1.583,2.34,5.937,5.937,0,0,0-.373,1.894c0,.1-.015.192-.027.34-.487.041-.972.014-1.454.018s-.952,0-1.428,0h-4.4a17.751,17.751,0,0,1,.9-4.877,19.03,19.03,0,0,1,2.442-4.295c-.088-.118-.165-.226-.247-.329a15.262,15.262,0,0,1-2.93-5.922,12.156,12.156,0,0,1,.954-8.3,16.624,16.624,0,0,1,1.956-3.085c.075-.095.147-.193.244-.318a14.842,14.842,0,0,1-3.448-8.927l.051-.047c.009-.008.018-.021.028-.022.109-.01.218-.024.326-.024q3.369,0,6.738.008a.577.577,0,0,1,.134.047,6.177,6.177,0,0,0,2.42,4.75,1.494,1.494,0,0,0,.061-.267c0-1.465,0-2.929-.009-4.394a.793.793,0,0,0-.108-.376q-1.6-2.73-3.214-5.455a.424.424,0,0,0-.413-.233q-2.6.018-5.2.025h-.183q-6.243,0-12.486.015a.558.558,0,0,1-.553-.3c-1.254-2.093-2.52-4.179-3.781-6.267-.049-.082-.089-.17-.161-.307.166-.01.294-.024.421-.024q2.985-.008,5.968-.01,5.749,0,11.5,0h.469a2.321,2.321,0,0,0-.089-.275c-.25-.515-.513-1.026-.755-1.545a.42.42,0,0,0-.446-.281c-.732.015-1.465.011-2.2.012l-15.6,0c-2.136,0-4.272,0-6.408.009a.483.483,0,0,1-.492-.276q-1.934-3.4-3.888-6.8c-.047-.081-.081-.17-.146-.31h.43l7.653-.007q8.99-.008,17.979-.014,3.881,0,7.762-.031a.617.617,0,0,1,.632.358q3.161,5.632,6.345,11.252c.1.178.207.354.344.589.521-.826.942-1.644,1.4-2.441.464-.817.92-1.638,1.38-2.457l1.362-2.425,1.379-2.458q.68-1.211,1.36-2.422h34.216a1.48,1.48,0,0,1-.084.235q-1.961,3.452-3.921,6.906a.432.432,0,0,1-.45.222c-1.256,0-2.514,0-3.771,0q-4.156,0-8.312,0-4.925,0-9.85.009c-.757,0-1.514.013-2.27.007a.443.443,0,0,0-.461.271c-.258.525-.539,1.039-.808,1.559a2.884,2.884,0,0,0-.1.273h18.424c-.07.145-.106.241-.158.328q-1.894,3.153-3.787,6.307a.4.4,0,0,1-.434.249,1.973,1.973,0,0,0-.256,0l-17.467.006a1.256,1.256,0,0,1-.183,0,.45.45,0,0,0-.493.284c-.478.836-.969,1.665-1.458,2.5-.556.947-1.11,1.895-1.673,2.837a1.143,1.143,0,0,0-.168.622c.01,1.342.01,2.685.015,4.027C1570.184,251.784,1570.2,251.9,1570.216,252.092Zm-6.823,8.539a5.583,5.583,0,0,0-2.578,4.98,5.744,5.744,0,0,0,2.578,4.832Zm6.88,9.816a5.9,5.9,0,0,0,2.527-4.92,5.814,5.814,0,0,0-2.523-4.875C1570.195,260.908,1570.188,269.975,1570.274,270.448Z" transform="translate(-1525.616 -225.027)" fill="#009036"/>
      <g id="Grupo_12797" data-name="Grupo 12797" transform="translate(82.239 6.575)">
        <path id="Trazado_18205" data-name="Trazado 18205" d="M1764.839,275.422c-.224-.01-.45-.027-.674-.027q-18.916,0-37.833.01-7.273,0-14.547.009l-14.828.014q-7.217.008-14.434.017-14.857.024-29.713.05-7.583.011-15.166.013c-.166,0-.332-.014-.544-.024v-2.149c.222-.007.441-.018.658-.019l13.927-.005,19.678-.006,37.945-.016q7.3,0,14.6-.012,7.33-.009,14.659-.021,7.414-.014,14.827-.038,5.385-.011,10.769-.016c.224,0,.448-.023.672-.036Z" transform="translate(-1636.789 -244.096)" fill="#009036"/>
        <path id="Trazado_18206" data-name="Trazado 18206" d="M1803.077,248.091c-.036.293-.09.586-.107.88a14.023,14.023,0,0,1-1.362,5.484,7.722,7.722,0,0,1-5.685,4.518,10.484,10.484,0,0,1-5.289-.316,7.84,7.84,0,0,1-4.575-4.026,13.433,13.433,0,0,1-1.348-4.337,23.873,23.873,0,0,1-.013-7.187,13.234,13.234,0,0,1,2.164-5.63,8.539,8.539,0,0,1,14.725,1.433,14.369,14.369,0,0,1,1.388,5.65,7.042,7.042,0,0,0,.1.71Zm-13.529-1.422c.111,1.082.182,2.17.344,3.244a7.49,7.49,0,0,0,1.241,3.234,3.242,3.242,0,0,0,5.459-.013,6.584,6.584,0,0,0,.965-2.209,18.492,18.492,0,0,0,.014-8.323,6.338,6.338,0,0,0-1.17-2.659,3.194,3.194,0,0,0-5.179.038,6.717,6.717,0,0,0-.883,1.685A16.686,16.686,0,0,0,1789.548,246.67Z" transform="translate(-1675.027 -233.907)"/>
        <path id="Trazado_18207" data-name="Trazado 18207" d="M1678.282,291.7c-.268-.074-.534-.156-.8-.221a2.6,2.6,0,0,1-2.064-1.936,6.972,6.972,0,0,1-.278-1.6c-.038-1.9-.023-3.794-.028-5.691a1.879,1.879,0,0,1,.035-.244h2.043v.609c0,1.465-.007,2.931,0,4.4a4.705,4.705,0,0,0,.321,1.931,1.277,1.277,0,0,0,1.384.837,1.3,1.3,0,0,0,1.038-.772,3.752,3.752,0,0,0,.369-1.747q0-2.31,0-4.621v-.635h2.03a.979.979,0,0,1,.055.217c-.009,1.991-.006,3.981-.047,5.972a5.554,5.554,0,0,1-.273,1.431,2.626,2.626,0,0,1-1.961,1.839c-.306.084-.615.158-.923.236Z" transform="translate(-1646.653 -246.39)"/>
        <path id="Trazado_18208" data-name="Trazado 18208" d="M1807.67,291.2q-2.7.007-5.4.01a.568.568,0,0,1-.142-.056v-9.3q2.766-.056,5.539-.014v1.8c-.186.014-.372.038-.558.039-.809,0-1.616,0-2.424,0-.16,0-.319.03-.5.05.014.609-.027,1.164.03,1.76h3.215v1.935c-.558,0-1.081-.013-1.6,0a7,7,0,0,0-1.608.064V289.4h3.453Z" transform="translate(-1679.62 -246.343)"/>
        <path id="Trazado_18209" data-name="Trazado 18209" d="M1679.268,234.985h6.744l6.327,15.443.111-.027V235.062a25,25,0,0,1,4.344-.07c.134.421.218,23.155.083,23.939h-6.441l-6.626-15.852-.118.029v15.827h-4.423Z" transform="translate(-1647.733 -234.172)"/>
        <path id="Trazado_18210" data-name="Trazado 18210" d="M1713.294,234.961h5.645q3.926,11.938,7.855,23.886a38.4,38.4,0,0,1-5.432.076l-1.345-4.344h-8.24c-.434,1.457-.867,2.906-1.3,4.361h-4.784C1708.233,250.928,1710.759,242.957,1713.294,234.961Zm2.574,5.424h-.124c-.854,3.134-1.71,6.269-2.575,9.444h5.474Z" transform="translate(-1654.591 -234.18)"/>
        <path id="Trazado_18211" data-name="Trazado 18211" d="M1769.871,242.581c-.076-.448-.14-.872-.219-1.294a3.166,3.166,0,0,0-3.77-2.448,2.942,2.942,0,0,0-1.674,1.168,6.656,6.656,0,0,0-1.051,2.29,17.59,17.59,0,0,0-.5,5.308,14.505,14.505,0,0,0,.5,3.561,6.6,6.6,0,0,0,1,2.129,3.187,3.187,0,0,0,3.971,1.017,3.294,3.294,0,0,0,1.78-2.582c.076-.364.121-.735.184-1.126h5.141a6.516,6.516,0,0,1-.042,1.443,13.237,13.237,0,0,1-.372,1.876,6.748,6.748,0,0,1-4.706,4.755,11.409,11.409,0,0,1-6.612.072,7.047,7.047,0,0,1-4.612-4.006,14.176,14.176,0,0,1-1.155-4.163,28.051,28.051,0,0,1-.107-6.578,14.573,14.573,0,0,1,1.825-6.047,7.532,7.532,0,0,1,4.96-3.782,10.162,10.162,0,0,1,6.761.736,6.709,6.709,0,0,1,3.573,4.614,9.927,9.927,0,0,1,.227,3.057Z" transform="translate(-1668.035 -233.906)"/>
        <path id="Trazado_18212" data-name="Trazado 18212" d="M1658.093,235.017H1671v4.8h-8.141v4.535h7.554v4.894l-2.509.01c-.827,0-1.653.01-2.481.012s-1.683,0-2.558,0v4.893c1.372.106,2.736-.007,4.1.012s2.7,0,4.067,0v4.784h-12.937Z" transform="translate(-1642.237 -234.195)"/>
        <path id="Trazado_18213" data-name="Trazado 18213" d="M1636.927,235.056h12.92v4.766h-8.142v5.011c1.221.087,2.455,0,3.686.013s2.437,0,3.733,0c.037,1.632.012,3.218.018,4.877h-7.457v9.269h-4.758Z" transform="translate(-1636.744 -234.205)"/>
        <path id="Trazado_18214" data-name="Trazado 18214" d="M1738.155,234.976h4.733v19.14h7.849V258.9h-12.582Z" transform="translate(-1663.016 -234.184)"/>
        <path id="Trazado_18215" data-name="Trazado 18215" d="M1795.73,287.75v-5.876h1.9V291.2h-2.813l-2.8-6.036-.116.027v6.021h-1.911c-.03-3.1-.008-6.193-.016-9.357.989-.027,1.938-.009,2.948-.01l2.677,5.923Z" transform="translate(-1676.466 -246.347)"/>
        <path id="Trazado_18216" data-name="Trazado 18216" d="M1743.405,289.994a7.4,7.4,0,0,1,1.131-.555,7.218,7.218,0,0,1,1.263-.153v1.89c-.186.009-.369.025-.552.024a45.014,45.014,0,0,0-4.5.182,3.233,3.233,0,0,1-2.781-1.1,3.9,3.9,0,0,1-.892-1.676,7.688,7.688,0,0,1-.032-4.011,6,6,0,0,1,.694-1.527,3.128,3.128,0,0,1,2.234-1.481c1.864-.3,3.354.184,4.23,1.9a5.927,5.927,0,0,1,.555,1.7,4.98,4.98,0,0,1-1.25,4.544,1.077,1.077,0,0,0-.125.18C1743.374,289.923,1743.387,289.943,1743.405,289.994Zm-4.376-3.486a4.751,4.751,0,0,0,.389,2.127,1.553,1.553,0,0,0,1,.92,1.458,1.458,0,0,0,1.841-.892,5.458,5.458,0,0,0-.02-4.376,1.42,1.42,0,0,0-.928-.846,1.5,1.5,0,0,0-1.886.912A4.892,4.892,0,0,0,1739.029,286.508Z" transform="translate(-1662.662 -246.26)"/>
        <path id="Trazado_18217" data-name="Trazado 18217" d="M1701.315,286.671c1.063.565,1.113.606,1.271,1.865.114.906.166,1.821.248,2.768H1700.6c-.032-.6-.057-1.177-.095-1.756a6.1,6.1,0,0,0-.1-1.062c-.14-.569-.414-.821-.929-.779a9.861,9.861,0,0,1-1.124-.037.787.787,0,0,0-.2.064V291.3h-1.988c-.1-.358-.147-8.795-.033-9.363h.534c1.183,0,2.367.035,3.549-.007a2.475,2.475,0,0,1,2.26,3.645,3.153,3.153,0,0,1-.733.828A2.385,2.385,0,0,1,1701.315,286.671Zm-3.151-.731c.479,0,.89.007,1.3,0a.994.994,0,0,0,1.072-.98,1.088,1.088,0,0,0-.877-1.244,11.557,11.557,0,0,0-1.5-.013Z" transform="translate(-1652.091 -246.369)"/>
        <path id="Trazado_18218" data-name="Trazado 18218" d="M1725.26,291.314h-2.406l-.594-1.666h-3.543l-.576,1.657h-2.088l3.3-9.363h2.469C1722.951,285.024,1724.091,288.129,1725.26,291.314Zm-4.778-7.16-.1.005c-.347,1.175-.694,2.35-1.061,3.588.8-.007,1.539.027,2.333-.027Z" transform="translate(-1657.28 -246.373)"/>
        <path id="Trazado_18219" data-name="Trazado 18219" d="M1654.036,291.361h-2.372l-.575-1.647H1647.5l-.568,1.644h-2.053l3.255-9.346h2.472Zm-4.723-7.117-.127.021-1.054,3.466a6.08,6.08,0,0,0,2.311-.029Z" transform="translate(-1638.808 -246.392)"/>
        <path id="Trazado_18220" data-name="Trazado 18220" d="M1750.3,281.906h2.041c.011.221.033.438.033.655,0,1.559,0,3.119,0,4.678a3.437,3.437,0,0,0,.423,1.843,1.269,1.269,0,0,0,2.061.191,1.884,1.884,0,0,0,.418-.783,7.511,7.511,0,0,0,.2-1.556c.02-1.465-.005-2.93-.013-4.4,0-.2,0-.4,0-.632h2.024a3.472,3.472,0,0,1,.05.413c0,1.748.03,3.495-.013,5.241a8.4,8.4,0,0,1-.315,1.992,2.543,2.543,0,0,1-1.858,1.8,4.991,4.991,0,0,1-3-.038,2.473,2.473,0,0,1-1.766-1.816,10.041,10.041,0,0,1-.3-2.11c-.049-1.69-.03-3.381-.036-5.071C1750.263,282.187,1750.288,282.06,1750.3,281.906Z" transform="translate(-1666.159 -246.364)"/>
        <path id="Trazado_18221" data-name="Trazado 18221" d="M1783.4,281.867h2.028a3.836,3.836,0,0,1,.051.433c0,1.71.027,3.421-.011,5.13a9,9,0,0,1-.281,2,2.574,2.574,0,0,1-1.955,1.912,5.178,5.178,0,0,1-2.945-.064,2.806,2.806,0,0,1-1.922-2.483,8.359,8.359,0,0,1-.127-1.345c-.018-1.71-.013-3.42-.015-5.13,0-.13.013-.258.023-.425h2.034v.6c0,1.485-.007,2.969,0,4.454a3.9,3.9,0,0,0,.473,2.117,1.253,1.253,0,0,0,1.943.278,1.665,1.665,0,0,0,.472-.745,6.351,6.351,0,0,0,.219-1.5c.027-1.522.01-3.044.01-4.566Z" transform="translate(-1673.417 -246.354)"/>
        <path id="Trazado_18222" data-name="Trazado 18222" d="M1706.491,291.294c0-.8-.017-1.552.012-2.3a1.1,1.1,0,0,1,.26-.538c1.034-1.385,2.078-2.762,3.118-4.143.108-.144.206-.3.366-.527h-3.517V282a48.783,48.783,0,0,1,6.109-.029c0,.732.016,1.478-.013,2.223-.006.163-.161.33-.271.478q-1.556,2.074-3.12,4.14c-.132.176-.253.358-.438.62h3.922v1.859Z" transform="translate(-1654.797 -246.361)"/>
        <path id="Trazado_18223" data-name="Trazado 18223" d="M1767.669,281.908v1.822h-3.482v1.808c1.041.061,2.1-.053,3.151.021a4.857,4.857,0,0,1,.044,1.916h-3.2v1.943h3.491V291.2a44.238,44.238,0,0,1-5.573.018v-9.31Z" transform="translate(-1669.23 -246.365)"/>
        <path id="Trazado_18224" data-name="Trazado 18224" d="M1688.988,285.606h3.252c.036.638.012,1.246.016,1.93h-3.248v1.953h3.475v1.841h-5.594v-9.338h5.6v1.8h-3.5Z" transform="translate(-1649.711 -246.386)"/>
        <path id="Trazado_18225" data-name="Trazado 18225" d="M1665.986,282.005h5.549v1.812h-3.466v2.006h3.172v1.911h-3.2v3.609h-2.059Z" transform="translate(-1644.286 -246.39)"/>
        <path id="Trazado_18226" data-name="Trazado 18226" d="M1636.708,282.037h2.149v7.493h3.379c.038.62.018,1.192.014,1.756a42.086,42.086,0,0,1-5.5.048c-.01-.186-.028-.386-.028-.586,0-1.447,0-2.893,0-4.339-.006-1.239-.028-2.478-.039-3.717C1636.678,282.49,1636.7,282.287,1636.708,282.037Z" transform="translate(-1636.68 -246.398)"/>
      </g>
    </g>
  </g>
</svg>
