<svg xmlns="http://www.w3.org/2000/svg" width="73" height="73" viewBox="0 0 73 73">
  <g id="Grupo_58619" data-name="Grupo 58619" transform="translate(0 0.249)">
    <rect id="Rectángulo_31124" data-name="Rectángulo 31124" width="73" height="73" transform="translate(0 -0.249)" fill="none"/>
    <g id="_084-strategy" data-name="084-strategy" transform="translate(8.966 7.206)">
      <path id="Trazado_129788" data-name="Trazado 129788" d="M39.959,126.349a23.313,23.313,0,0,1,20.958-23.2c-.777-.077-1.559-.116-2.352-.117a23.315,23.315,0,1,0,2.348,46.512,23.312,23.312,0,0,1-20.954-23.2Z" transform="translate(-34.096 -93.323)" fill="#d4e1f4"/>
      <path id="Trazado_129789" data-name="Trazado 129789" d="M50.835,141.668A24.836,24.836,0,0,0,70.7,101.923a.882.882,0,1,0-1.411,1.061,23.066,23.066,0,1,1-4.6-4.6.882.882,0,0,0,1.061-1.411,24.835,24.835,0,1,0-14.911,44.7Z" transform="translate(-26 -83.679)" fill="#7d6eb2"/>
      <path id="Trazado_129790" data-name="Trazado 129790" d="M113.617,156.53a.882.882,0,0,0-.194-1.233,17.267,17.267,0,1,0,3.835,3.84.882.882,0,1,0-1.428,1.037,15.5,15.5,0,1,1-3.445-3.45.882.882,0,0,0,1.233-.194Z" transform="translate(-78.436 -136.116)" fill="#7d6eb2"/>
      <path id="Trazado_129791" data-name="Trazado 129791" d="M190.664,253.765a.882.882,0,1,0,0-1.765,4.664,4.664,0,1,0,4.664,4.664.882.882,0,0,0-1.765,0,2.9,2.9,0,1,1-2.9-2.9Z" transform="translate(-165.83 -223.51)" fill="#7d6eb2"/>
      <path id="Trazado_129792" data-name="Trazado 129792" d="M249.241,34.919l-7.392-.731-.731-7.392a.882.882,0,0,0-1.5-.537l-9.805,9.806a.882.882,0,0,0-.232.838l1.662,6.646L216.258,58.532a.882.882,0,0,0,1.248,1.248L232.489,44.8l6.647,1.662a.882.882,0,0,0,.838-.232l9.805-9.805a.882.882,0,0,0-.537-1.5Zm-17.829,2.04,8.134-8.134.578,5.84L232.7,42.094Zm7.666,7.666-5.134-1.284,7.428-7.427,5.84.578Z" transform="translate(-192.048 -26.001)" fill="#26aab7"/>
    </g>
  </g>
</svg>
