<svg xmlns="http://www.w3.org/2000/svg" width="201.289" height="77.314" viewBox="0 0 201.289 77.314">
  <g id="Grupo_58807" data-name="Grupo 58807" transform="translate(4455.188 6399.594)">
    <g id="Grupo_58742" data-name="Grupo 58742" transform="translate(-4455.188 -6399.594)">
      <g id="Grupo_12795" data-name="Grupo 12795" transform="translate(0 0)">
        <g id="Grupo_12794" data-name="Grupo 12794">
          <g id="Grupo_12793" data-name="Grupo 12793">
            <g id="Grupo_12792" data-name="Grupo 12792">
              <g id="Grupo_12790" data-name="Grupo 12790" transform="translate(0.458)">
                <g id="Grupo_12789" data-name="Grupo 12789">
                  <g id="Grupo_12788" data-name="Grupo 12788">
                    <g id="Grupo_12787" data-name="Grupo 12787" transform="translate(109.794 0.458)">
                      <g id="Grupo_12786" data-name="Grupo 12786">
                        <path id="Trazado_18180" data-name="Trazado 18180" d="M1195.637,236.012l-37.055-33.4v33.4H1147.6V179.744h1.372l37.055,34.31v-34.31h10.979v56.268Z" transform="translate(-1147.602 -179.744)" fill="#be0c4d"/>
                      </g>
                    </g>
                    <path id="Trazado_18181" data-name="Trazado 18181" d="M1198.025,226.535V213.268h20.586V203.2h-20.586V189.022H1220.9v-9.607h-33.853v56.727h36.14v-9.607Z" transform="translate(-1022.355 -179.415)" fill="#be0c4d"/>
                    <path id="Trazado_18182" data-name="Trazado 18182" d="M1117.208,195.884a25.516,25.516,0,0,0-6.4-9.15,28.951,28.951,0,0,0-19.672-7.319h-22.416v9.607h22.416a26.748,26.748,0,0,1,5.947.914,10.438,10.438,0,0,1,5.489,2.745,12.5,12.5,0,0,1,4.118,5.489,21.225,21.225,0,0,1,1.829,9.607c0,4.117-.457,6.863-1.829,9.607a12.5,12.5,0,0,1-4.118,5.489,15.432,15.432,0,0,1-5.489,2.745,31.46,31.46,0,0,1-5.947.916h-11.894v-21.5h-10.522v21.5h0v9.606h22.416a27.663,27.663,0,0,0,10.98-1.83c3.2-1.372,6.4-2.745,8.692-5.031a25.528,25.528,0,0,0,6.4-9.15,34.369,34.369,0,0,0,2.287-11.894C1119.036,203.661,1118.58,199.544,1117.208,195.884Z" transform="translate(-1068.715 -179.415)" fill="#be0c4d"/>
                  </g>
                  <path id="Trazado_18183" data-name="Trazado 18183" d="M1102.9,236.012l28.821-56.268h.915l28.821,56.268h-11.436l-8.692-16.925H1122.57l-8.234,16.925Zm24.7-25.619h9.15l-4.575-9.606Z" transform="translate(-1055.322 -179.286)" fill="#be0c4d"/>
                </g>
              </g>
              <g id="Grupo_12791" data-name="Grupo 12791" transform="translate(0 61.759)">
                <path id="Trazado_18184" data-name="Trazado 18184" d="M1069.758,237.526h-1.372V226.09h1.372Z" transform="translate(-1068.386 -222.888)" fill="#3e111b"/>
                <path id="Trazado_18185" data-name="Trazado 18185" d="M1071.016,225.761l8.692,8.692v-8.234h1.372v11.894l-8.692-8.692v8.234h-1.372Z" transform="translate(-1067.356 -223.016)" fill="#3e111b"/>
                <path id="Trazado_18186" data-name="Trazado 18186" d="M1081.264,227.462v3.2h4.117v1.372h-4.117v5.489h-1.374V226.09h5.491v1.372Z" transform="translate(-1063.879 -222.888)" fill="#3e111b"/>
                <path id="Trazado_18187" data-name="Trazado 18187" d="M1096.386,232.037a5.947,5.947,0,1,1-5.947-5.947A6.055,6.055,0,0,1,1096.386,232.037Zm-1.372,0a4.575,4.575,0,1,0-4.575,4.575A4.92,4.92,0,0,0,1095.014,232.037Z" transform="translate(-1062.076 -222.888)" fill="#3e111b"/>
                <path id="Trazado_18188" data-name="Trazado 18188" d="M1101.345,237.526h-1.83l-3.2-4.575h-.458v4.575h-1.83V226.09h1.83a7.777,7.777,0,0,1,3.2.458,3.259,3.259,0,0,1,1.372,2.745c0,1.829-.914,3.2-2.745,3.2Zm-5.947-5.947h0c1.829,0,3.659-.458,3.659-2.287s-1.83-1.83-3.2-1.83h-.456Z" transform="translate(-1058.341 -222.888)" fill="#3e111b"/>
                <path id="Trazado_18189" data-name="Trazado 18189" d="M1102.357,230.336h0l-1.372,7.319h-1.372l2.288-11.894,4.117,9.15,4.117-9.15,2.288,11.894h-1.372l-1.372-7.319h0l-4.118,7.777Z" transform="translate(-1056.152 -223.016)" fill="#3e111b"/>
                <path id="Trazado_18190" data-name="Trazado 18190" d="M1111.561,234.911l-1.372,2.745h-1.372l5.489-11.894,5.489,11.894h-1.372l-1.372-2.745Zm2.287-5.947-1.829,4.575h4.117Z" transform="translate(-1052.546 -223.016)" fill="#3e111b"/>
                <path id="Trazado_18191" data-name="Trazado 18191" d="M1125.854,228.377c-.914-.914-1.829-.914-3.2-.914a4.575,4.575,0,1,0,0,9.15,4.942,4.942,0,0,0,3.2-1.372v1.83a6.616,6.616,0,0,1-3.2.914,5.947,5.947,0,1,1,0-11.894,6.519,6.519,0,0,1,2.745.914v1.372Z" transform="translate(-1049.456 -222.888)" fill="#3e111b"/>
                <path id="Trazado_18192" data-name="Trazado 18192" d="M1125.965,237.526h-1.372V226.09h1.372Z" transform="translate(-1046.365 -222.888)" fill="#3e111b"/>
                <path id="Trazado_18193" data-name="Trazado 18193" d="M1138.459,232.939a5.947,5.947,0,1,1-5.947-5.947A6.055,6.055,0,0,1,1138.459,232.939Zm-1.372,0a4.575,4.575,0,1,0-4.575,4.575A4.583,4.583,0,0,0,1137.087,232.939Zm-2.287-8.692-2.288,2.287-.914-.458,1.83-2.287Z" transform="translate(-1045.592 -223.789)" fill="#3e111b"/>
                <path id="Trazado_18194" data-name="Trazado 18194" d="M1136.1,225.761l8.692,8.692v-8.234h1.372v11.894l-8.692-8.692v8.234H1136.1Z" transform="translate(-1041.857 -223.016)" fill="#3e111b"/>
                <path id="Trazado_18195" data-name="Trazado 18195" d="M1149.631,237.526h-1.372V226.09h1.83c3.66,0,4.575,1.372,4.575,3.2,0,2.287-1.83,3.2-4.117,3.2h-.916Zm0-5.947h0c1.83,0,3.66-.458,3.66-2.287s-1.83-1.83-3.2-1.83h-.458Z" transform="translate(-1037.093 -222.888)" fill="#3e111b"/>
                <path id="Trazado_18196" data-name="Trazado 18196" d="M1154.949,234.911l-1.373,2.745H1152.2l5.489-11.894,5.489,11.894h-1.372l-1.372-2.745Zm2.287-5.947-1.829,4.575h4.117Z" transform="translate(-1035.547 -223.016)" fill="#3e111b"/>
                <path id="Trazado_18197" data-name="Trazado 18197" d="M1167.612,237.526h-1.83l-3.2-4.575h-.458v4.575h-1.372V226.09h1.83a7.773,7.773,0,0,1,3.2.458,3.256,3.256,0,0,1,1.372,2.745c0,1.829-.914,3.2-2.745,3.2Zm-5.489-5.947h0c1.83,0,3.659-.458,3.659-2.287s-1.829-1.83-3.2-1.83h-.458Z" transform="translate(-1032.199 -222.888)" fill="#3e111b"/>
                <path id="Trazado_18198" data-name="Trazado 18198" d="M1168.754,234.911l-1.372,2.745h-1.372l5.489-11.894,5.49,11.894h-1.372l-1.374-2.745Zm2.288-5.947-1.83,4.575h4.117Z" transform="translate(-1030.139 -223.016)" fill="#3e111b"/>
                <path id="Trazado_18199" data-name="Trazado 18199" d="M1180.973,237.526H1179.6V227.462h-2.745V226.09h6.862v1.372h-2.745Z" transform="translate(-1025.889 -222.888)" fill="#3e111b"/>
                <path id="Trazado_18200" data-name="Trazado 18200" d="M1194.009,232.037a5.947,5.947,0,1,1-5.947-5.947A6.055,6.055,0,0,1,1194.009,232.037Zm-1.372,0a4.575,4.575,0,1,0-4.575,4.575A4.92,4.92,0,0,0,1192.637,232.037Z" transform="translate(-1023.829 -222.888)" fill="#3e111b"/>
                <path id="Trazado_18201" data-name="Trazado 18201" d="M1191.976,226.09h2.287c3.66,0,6.4,1.83,6.4,5.489s-2.745,5.947-6.4,5.947h-2.287Zm1.372,10.064h.458c2.745,0,5.489-.914,5.489-4.575,0-3.2-2.287-4.575-5.489-4.575h-.458Z" transform="translate(-1019.965 -222.888)" fill="#3e111b"/>
                <path id="Trazado_18202" data-name="Trazado 18202" d="M1210.444,232.037a5.947,5.947,0,1,1-5.947-5.947A6.055,6.055,0,0,1,1210.444,232.037Zm-1.372,0a4.575,4.575,0,1,0-4.575,4.575A4.584,4.584,0,0,0,1209.072,232.037Z" transform="translate(-1017.39 -222.888)" fill="#3e111b"/>
                <path id="Trazado_18203" data-name="Trazado 18203" d="M1213.7,228.248c-.456-.914-.914-.914-1.829-.914a1.676,1.676,0,0,0-1.83,1.83c0,.914.915,1.372,1.373,1.829l.914.458c1.83.458,2.745,1.372,2.745,3.2a3.608,3.608,0,0,1-3.659,3.66,3.882,3.882,0,0,1-3.66-3.2l1.372-.458a2.287,2.287,0,1,0,4.575,0c0-1.372-.914-1.83-1.829-2.287l-.916-.458a2.9,2.9,0,0,1-2.287-2.745c0-1.83,1.829-2.746,3.2-2.746a2.509,2.509,0,0,1,2.745,1.83Z" transform="translate(-1013.784 -222.759)" fill="#3e111b"/>
              </g>
            </g>
          </g>
        </g>
      </g>
    </g>
  </g>
</svg>
