<svg xmlns="http://www.w3.org/2000/svg" width="356.542" height="215" viewBox="0 0 356.542 215">
  <g id="Grupo_58619" data-name="Grupo 58619" transform="translate(8944.771 5702.426)">
    <g id="Grupo_58618" data-name="Grupo 58618" transform="translate(-8829.934 -3604.412)">
      <g id="Grupo_57778" data-name="Grupo 57778" transform="translate(-98.168 -2098.014)">
        <g id="Grupo_57756" data-name="Grupo 57756" transform="translate(0 63.437)">
          <g id="Grupo_57755" data-name="Grupo 57755" transform="translate(2.03)">
            <path id="Trazado_129826" data-name="Trazado 129826" d="M237.663-1599.887c-.931,0-1.879-.006-2.82-.019l.01-.723c1.946.026,3.9.025,5.792,0l.011.723C239.67-1599.894,238.663-1599.887,237.663-1599.887Zm-8.63-.17c-1.9-.074-3.853-.172-5.8-.293l.045-.722c1.945.121,3.892.219,5.786.293Zm17.43-.025-.033-.722c1.951-.089,3.895-.21,5.776-.36l.058.721C250.375-1600.293,248.423-1600.171,246.464-1600.082Zm-29.028-.691c-1.9-.159-3.845-.341-5.784-.542l.074-.719c1.935.2,3.876.382,5.77.541Zm40.613-.24-.085-.719c1.945-.23,3.872-.5,5.728-.8l.116.714C261.941-1601.515,260-1601.245,258.049-1601.014Zm-52.169-.953c-1.893-.231-3.831-.485-5.759-.754l.1-.717c1.925.269,3.858.522,5.747.752Zm63.645-.915-.15-.708c1.917-.406,3.807-.859,5.618-1.348l.189.7C273.358-1603.747,271.454-1603.29,269.524-1602.882Zm-75.15-.687c-1.881-.293-3.81-.607-5.732-.937l.122-.713c1.919.328,3.844.642,5.721.935Zm-11.449-1.955c-1.875-.347-3.793-.717-5.7-1.1l.141-.709c1.906.379,3.822.747,5.693,1.094Zm97.825-.4-.232-.685c1.859-.629,3.674-1.317,5.4-2.043l.281.667C284.458-1607.257,282.626-1606.563,280.751-1605.928Zm-109.216-1.862c-1.863-.395-3.771-.811-5.673-1.237l.158-.706c1.9.425,3.8.841,5.665,1.235Zm-160.322-1.151a29.6,29.6,0,0,1-5.8-.848l.181-.7a28.9,28.9,0,0,0,5.661.826Zm5.84-.037-.042-.722c1.767-.1,3.649-.279,5.752-.54l.089.718C20.733-1609.26,18.836-1609.082,17.053-1608.978Zm143.15-1.351c-1.859-.438-3.758-.9-5.644-1.362l.173-.7c1.884.465,3.78.923,5.637,1.361Zm-131.594-.03-.116-.714c1.706-.278,3.574-.6,5.71-1l.131.711C32.193-1610.964,30.32-1610.637,28.609-1610.359Zm262.859-.112-.336-.641c1.736-.909,3.408-1.889,4.97-2.912l.4.605C294.916-1612.382,293.224-1611.391,291.468-1610.47ZM-.009-1612.089a15.975,15.975,0,0,1-4.287-4.049l.584-.427A15.255,15.255,0,0,0,.381-1612.7Zm40.048-.348-.137-.71,3.133-.607,2.564-.5.137.71-2.563.5Zm108.891-.674c-1.512-.389-3.061-.795-4.606-1.205q-.5-.134-1.008-.265l.181-.7q.506.131,1.012.266c1.543.41,3.091.815,4.6,1.2Zm-97.495-1.518-.133-.711c2.05-.384,3.918-.725,5.713-1.042l.126.712C55.349-1615.353,53.483-1615.013,51.436-1614.629Zm86.252-1.306c-1.874-.416-3.782-.8-5.673-1.155l.132-.711c1.9.352,3.816.742,5.7,1.16Zm-74.829-.7-.115-.714c1.956-.316,3.888-.61,5.743-.875l.1.716C66.738-1617.246,64.81-1616.952,62.858-1616.637Zm238.339-.24-.462-.557a45.2,45.2,0,0,0,4.188-3.936l.529.494A45.958,45.958,0,0,1,301.2-1616.877ZM126.3-1618.046c-1.9-.284-3.828-.539-5.741-.758l.082-.719c1.922.22,3.861.476,5.765.761Zm-51.97-.226-.087-.718c1.946-.237,3.889-.451,5.777-.636l.071.72C78.212-1618.721,76.274-1618.508,74.334-1618.272Zm40.465-1.093c-1.906-.153-3.85-.277-5.78-.368l.034-.722c1.938.091,3.89.216,5.8.37Zm-28.933-.033-.052-.721c1.944-.141,3.9-.255,5.8-.34l.032.722C89.749-1619.652,87.8-1619.538,85.866-1619.4Zm11.572-.514-.011-.723c1.947-.03,3.9-.031,5.813,0l-.011.724C101.327-1619.942,99.377-1619.942,97.438-1619.911Zm-104.455-1.439c-.669-1.823-1.271-3.69-1.789-5.55l.7-.194c.512,1.841,1.108,3.689,1.771,5.494Zm316.149-4.066-.594-.414a37.131,37.131,0,0,0,2.907-4.945l.65.317A37.905,37.905,0,0,1,309.131-1625.417Zm-319.271-7.16c-.365-1.9-.656-3.84-.866-5.766l.719-.078c.207,1.907.5,3.827.857,5.708Zm324.361-3.332-.693-.207a34.929,34.929,0,0,0,1.183-5.61l.718.091A35.655,35.655,0,0,1,314.221-1635.909ZM-11.4-1644.16c-.019-.688-.029-1.388-.029-2.08,0-1.24.032-2.5.094-3.748l.722.036c-.062,1.236-.093,2.485-.093,3.712,0,.685.01,1.378.029,2.059Zm326.365-3.3a36.223,36.223,0,0,0-.671-5.7l.71-.141a37,37,0,0,1,.685,5.813Zm-325.07-8.24-.718-.091c.24-1.9.556-3.833.938-5.741l.709.142C-9.557-1659.5-9.87-1657.581-10.108-1655.7Zm322.842-2.984a36.777,36.777,0,0,0-2.4-5.215l.631-.353a37.491,37.491,0,0,1,2.445,5.318Zm-3.294-6.771c-1-1.68-2.063-3.3-3.164-4.806l.584-.426c1.114,1.527,2.191,3.163,3.2,4.863ZM-7.849-1667l-.7-.191c.506-1.849,1.085-3.721,1.722-5.563l.684.236C-6.773-1670.687-7.347-1668.83-7.849-1667Zm310.509-7.712a50.038,50.038,0,0,0-4.082-4.019l.477-.544a50.839,50.839,0,0,1,4.141,4.077Zm-306.742-3.205-.667-.279c.739-1.769,1.547-3.554,2.4-5.3l.65.318C-2.547-1681.441-3.35-1679.67-4.083-1677.913Zm298.137-4.327a50.126,50.126,0,0,0-4.908-2.962l.338-.639a50.9,50.9,0,0,1,4.979,3Zm-10.116-5.368c-1.722-.691-3.55-1.327-5.434-1.892l.208-.693c1.9.571,3.753,1.214,5.5,1.913ZM.991-1688.3l-.631-.354c.94-1.674,1.946-3.354,2.99-5l.61.388C2.923-1691.629,1.924-1689.959.991-1688.3Zm271.932-2.643c-1.793-.395-3.7-.754-5.676-1.067l.113-.714c1.988.316,3.911.677,5.718,1.075Zm-11.408-1.84c-1.822-.206-3.707-.386-5.765-.552l.058-.721c2.065.166,3.959.347,5.788.554Zm-11.548-.948c-1.731-.1-3.572-.2-5.793-.3l.033-.722c2.224.1,4.068.2,5.8.3Zm-11.592-.552q-2.88-.123-5.8-.255l.034-.722q2.918.135,5.8.254Zm-11.6-.552c-2.073-.119-3.97-.244-5.8-.382l.054-.721c1.824.137,3.717.262,5.786.381Zm-11.59-.885c-1.982-.2-3.925-.418-5.776-.658l.093-.718c1.844.239,3.78.46,5.755.656Zm-11.529-1.507c-1.944-.323-3.867-.682-5.716-1.068l.148-.708c1.84.384,3.753.741,5.687,1.063Zm-196.471-.824-.589-.419c1.113-1.564,2.287-3.128,3.489-4.648l.567.449C9.455-1701.156,8.289-1699.6,7.183-1698.048Zm185.09-1.559c-1.894-.487-3.776-1.021-5.595-1.587l.215-.691c1.807.563,3.678,1.093,5.56,1.577Zm-11.1-3.463c-1.821-.677-3.635-1.409-5.392-2.177l.29-.663c1.744.763,3.545,1.49,5.353,2.162Zm-166.831-4.039-.544-.476c1.265-1.448,2.588-2.89,3.931-4.285l.521.5C16.917-1709.981,15.6-1708.548,14.344-1707.109Zm156.182-.621c-1.72-.875-3.437-1.812-5.1-2.787l.365-.624c1.653.967,3.356,1.9,5.064,2.766ZM160.5-1713.6c-1.6-1.065-3.192-2.2-4.74-3.362l.435-.578c1.537,1.157,3.121,2.28,4.707,3.337Zm-138.136-1.84-.5-.526c1.4-1.326,2.858-2.637,4.323-3.9l.471.548C25.2-1718.06,23.756-1716.757,22.36-1715.438Zm128.853-5.144c-1.461-1.232-2.92-2.531-4.339-3.863l.495-.527c1.409,1.323,2.86,2.614,4.311,3.838Zm-120.079-2.4-.445-.57c1.525-1.191,3.1-2.361,4.674-3.476l.418.591C34.215-1725.327,32.652-1724.165,31.135-1722.981Zm111.5-5.4c-1.456-1.27-2.966-2.492-4.487-3.633l.434-.579c1.536,1.151,3.06,2.385,4.529,3.667Zm-102.043-1.288-.389-.61c1.637-1.045,3.315-2.06,4.989-3.016l.359.628C43.884-1731.716,42.216-1730.707,40.589-1729.669Zm92.807-5.625c-1.625-1.031-3.3-2.006-4.991-2.9l.338-.64c1.7.9,3.4,1.885,5.041,2.926Zm-82.747-.124-.327-.645c1.737-.881,3.509-1.724,5.269-2.505l.294.661C54.136-1737.131,52.375-1736.294,50.649-1735.418Zm10.581-4.7-.258-.676c1.819-.695,3.668-1.343,5.494-1.927l.22.689C64.872-1741.449,63.036-1740.805,61.23-1740.115Zm61.967-.562c-1.76-.753-3.573-1.443-5.39-2.051l.229-.686c1.835.614,3.667,1.311,5.445,2.072Zm-50.956-2.952-.18-.7c1.888-.485,3.8-.915,5.681-1.277l.137.71C76.012-1744.537,74.115-1744.11,72.241-1743.629Zm40.026-.705c-1.852-.457-3.754-.846-5.653-1.158l.117-.714c1.918.315,3.839.708,5.709,1.169Zm-28.683-1.475-.091-.718c1.937-.246,3.892-.429,5.809-.542l.042.722C87.443-1746.234,85.505-1746.054,83.584-1745.809Zm17.3-.4c-1.9-.163-3.837-.257-5.767-.279l.008-.724c1.948.023,3.907.118,5.821.282Z" transform="translate(11.432 1747.208)" fill="#e4e4e4"/>
          </g>
          <path id="Trazado_129827" data-name="Trazado 129827" d="M300.546-1511.619h-323.2c10.115-74.731,78.6-132.536,161.6-132.536S290.431-1586.35,300.546-1511.619Z" transform="translate(22.658 1662.79)" fill="#f6f5f5"/>
        </g>
        <rect id="Rectángulo_31130" data-name="Rectángulo 31130" width="142.063" height="194.875" transform="translate(149.259 19.077)" fill="#a9bae6"/>
        <g id="Grupo_57757" data-name="Grupo 57757" transform="translate(155.624 26.931)">
          <rect id="Rectángulo_31131" data-name="Rectángulo 31131" width="116.928" height="169.853" transform="translate(6.475)" fill="#f6f5f5"/>
          <path id="Trazado_129828" data-name="Trazado 129828" d="M990.661-1949.082c.037,66.233,2.175,146.114-5.265,163.8-32.77,3.193-71.14,4.218-111.665,4.408l15.4-167.7Z" transform="translate(-867.258 1949.083)" fill="#e4e4e4"/>
          <path id="Trazado_129829" data-name="Trazado 129829" d="M950.835-1790.6c-51.077,8.174-85.214,8.605-112.9,6.55,3.588-38.194,5.026-101.643,6.473-164.99l61.548.136,55.7,3.677C962.472-1879.479,962.561-1818.746,950.835-1790.6Z" transform="translate(-837.935 1949.049)" fill="#fff"/>
        </g>
        <rect id="Rectángulo_31132" data-name="Rectángulo 31132" width="61.528" height="9.372" transform="translate(188.966 42.595) rotate(1.348)" fill="#708cd5"/>
        <g id="Grupo_57758" data-name="Grupo 57758" transform="translate(206.531 65.665)">
          <rect id="Rectángulo_31133" data-name="Rectángulo 31133" width="55.498" height="4.29" transform="matrix(1, 0.024, -0.024, 1, 0.321, 0)" fill="#708cd5"/>
          <rect id="Rectángulo_31134" data-name="Rectángulo 31134" width="37.723" height="4.29" transform="translate(0.101 9.351) rotate(1.348)" fill="#d3dfff"/>
        </g>
        <g id="Grupo_57759" data-name="Grupo 57759" transform="translate(175.502 64.773)">
          <rect id="Rectángulo_31135" data-name="Rectángulo 31135" width="13.138" height="13.138" transform="matrix(1, 0.024, -0.024, 1, 0.732, 0.423)" fill="#fff"/>
          <path id="Trazado_129830" data-name="Trazado 129830" d="M961.824-1725.529l-13.962-.328.328-13.962,13.962.328Zm-13.115-1.136,12.308.29.29-12.308-12.308-.29Z" transform="translate(-947.862 1739.819)" fill="#708cd5"/>
        </g>
        <g id="Grupo_57760" data-name="Grupo 57760" transform="translate(178.349 60.879)">
          <path id="Trazado_129831" data-name="Trazado 129831" d="M963.632-1753.581c.405,1.553,1.154,8.056,4.411,6.237a9.934,9.934,0,0,0,1.949-2.166l3.029-3.44,6.059-6.879c.518-.588-1.768-2.062-2.418-1.324l-5.386,6.115-2.693,3.058c-.623.708-2.064,2.989-2.988,3.191l1.508.487c.355.292-.3-1.775-.319-1.83l-.751-2.878c-.207-.792-2.708-1.745-2.4-.571Z" transform="translate(-963.606 1761.355)" fill="#c1507f"/>
        </g>
        <g id="Grupo_57761" data-name="Grupo 57761" transform="translate(205.969 89.545)">
          <rect id="Rectángulo_31136" data-name="Rectángulo 31136" width="45.702" height="4.29" transform="translate(0.321 0) rotate(1.348)" fill="#708cd5"/>
          <rect id="Rectángulo_31137" data-name="Rectángulo 31137" width="55.498" height="4.29" transform="translate(0.101 9.351) rotate(1.348)" fill="#d3dfff"/>
        </g>
        <g id="Grupo_57762" data-name="Grupo 57762" transform="translate(174.94 88.653)">
          <rect id="Rectángulo_31138" data-name="Rectángulo 31138" width="13.138" height="13.138" transform="matrix(1, 0.024, -0.024, 1, 0.732, 0.423)" fill="#fff"/>
          <path id="Trazado_129832" data-name="Trazado 129832" d="M958.717-1593.475l-13.962-.329.328-13.962,13.962.328Zm-13.115-1.136,12.308.29.29-12.308-12.308-.29Z" transform="translate(-944.755 1607.766)" fill="#708cd5"/>
        </g>
        <g id="Grupo_57763" data-name="Grupo 57763" transform="translate(177.778 85.129)">
          <path id="Trazado_129833" data-name="Trazado 129833" d="M960.476-1619.479c.406,1.553,1.155,8.056,4.411,6.237a9.912,9.912,0,0,0,1.949-2.166l3.03-3.44,6.059-6.88c.518-.587-1.768-2.061-2.418-1.324l-5.386,6.115-2.693,3.057c-.623.707-2.063,2.989-2.988,3.191l1.508.487c.355.291-.3-1.774-.319-1.831l-.751-2.877c-.207-.792-2.708-1.745-2.4-.571Z" transform="translate(-960.45 1627.252)" fill="#c1507f"/>
        </g>
        <g id="Grupo_57764" data-name="Grupo 57764" transform="translate(205.407 113.424)">
          <rect id="Rectángulo_31139" data-name="Rectángulo 31139" width="55.498" height="4.29" transform="translate(0.321 0) rotate(1.348)" fill="#708cd5"/>
          <rect id="Rectángulo_31140" data-name="Rectángulo 31140" width="24.82" height="4.29" transform="translate(0.101 9.351) rotate(1.348)" fill="#d3dfff"/>
        </g>
        <g id="Grupo_57765" data-name="Grupo 57765" transform="translate(174.378 112.533)">
          <rect id="Rectángulo_31141" data-name="Rectángulo 31141" width="13.138" height="13.138" transform="matrix(1, 0.024, -0.024, 1, 0.732, 0.423)" fill="#fff"/>
          <path id="Trazado_129834" data-name="Trazado 129834" d="M955.609-1461.421l-13.962-.329.328-13.962,13.962.329Zm-13.115-1.136,12.308.29.29-12.308-12.308-.29Z" transform="translate(-941.647 1475.711)" fill="#708cd5"/>
        </g>
        <g id="Grupo_57766" data-name="Grupo 57766" transform="translate(177.395 109.179)">
          <path id="Trazado_129835" data-name="Trazado 129835" d="M958.354-1486.486c.405,1.553,1.154,8.056,4.411,6.237a9.915,9.915,0,0,0,1.949-2.166l3.03-3.44,6.059-6.879c.518-.588-1.768-2.062-2.418-1.324L966-1487.943l-2.693,3.058c-.623.707-2.063,2.988-2.988,3.191l1.508.487c.355.292-.3-1.775-.319-1.83l-.751-2.878c-.207-.792-2.708-1.745-2.4-.571Z" transform="translate(-958.328 1494.26)" fill="#c1507f"/>
        </g>
        <g id="Grupo_57767" data-name="Grupo 57767" transform="translate(204.845 137.304)">
          <rect id="Rectángulo_31142" data-name="Rectángulo 31142" width="55.498" height="4.29" transform="translate(0.321 0) rotate(1.348)" fill="#708cd5"/>
          <rect id="Rectángulo_31143" data-name="Rectángulo 31143" width="43.842" height="4.29" transform="matrix(1, 0.024, -0.024, 1, 0.101, 9.351)" fill="#d3dfff"/>
        </g>
        <g id="Grupo_57768" data-name="Grupo 57768" transform="translate(173.816 136.412)">
          <rect id="Rectángulo_31144" data-name="Rectángulo 31144" width="13.138" height="13.138" transform="matrix(1, 0.024, -0.024, 1, 0.732, 0.423)" fill="#fff"/>
          <path id="Trazado_129836" data-name="Trazado 129836" d="M952.5-1329.367l-13.962-.329.328-13.962,13.962.328Zm-13.115-1.136,12.308.289.29-12.308-12.308-.29Z" transform="translate(-938.539 1343.658)" fill="#708cd5"/>
        </g>
        <g id="Grupo_57769" data-name="Grupo 57769" transform="translate(176.836 132.902)">
          <path id="Trazado_129837" data-name="Trazado 129837" d="M955.266-1355.3c.405,1.552,1.155,8.056,4.411,6.237a9.914,9.914,0,0,0,1.949-2.166l3.029-3.44,6.059-6.879c.518-.588-1.768-2.062-2.418-1.324l-5.386,6.115-2.693,3.058c-.623.707-2.063,2.989-2.988,3.191l1.508.487c.355.291-.3-1.775-.319-1.831l-.752-2.877c-.207-.792-2.708-1.745-2.4-.571Z" transform="translate(-955.24 1363.073)" fill="#c1507f"/>
        </g>
        <g id="Grupo_57770" data-name="Grupo 57770" transform="translate(204.287 161.003)">
          <rect id="Rectángulo_31145" data-name="Rectángulo 31145" width="21.999" height="4.29" transform="matrix(1, 0.024, -0.024, 1, 0.321, 0)" fill="#708cd5"/>
          <path id="Trazado_129838" data-name="Trazado 129838" d="M1162.627-1154.658l-55.483-1.306-.1,4.289c21.466.5,48.8,1.509,54.374.653A4.813,4.813,0,0,0,1162.627-1154.658Z" transform="translate(-1107.043 1165.315)" fill="#d3dfff"/>
        </g>
        <g id="Grupo_57771" data-name="Grupo 57771" transform="translate(173.442 160.116)">
          <rect id="Rectángulo_31146" data-name="Rectángulo 31146" width="13.138" height="13.138" transform="translate(0.732 0.423) rotate(1.348)" fill="#fff"/>
          <path id="Trazado_129839" data-name="Trazado 129839" d="M950.432-1198.288l-13.962-.328.329-13.962,13.962.328Zm-13.115-1.136,12.308.29.29-12.308-12.308-.29Z" transform="translate(-936.47 1212.578)" fill="#708cd5"/>
        </g>
        <g id="Grupo_57772" data-name="Grupo 57772" transform="translate(176.283 156.417)">
          <path id="Trazado_129840" data-name="Trazado 129840" d="M952.206-1225.26c.405,1.552,1.154,8.056,4.411,6.237a9.914,9.914,0,0,0,1.949-2.166l3.03-3.44,6.059-6.879c.518-.588-1.768-2.062-2.418-1.324l-5.386,6.115-2.693,3.057c-.623.707-2.063,2.989-2.988,3.191l1.508.487c.355.292-.3-1.775-.319-1.831l-.752-2.878c-.207-.792-2.708-1.745-2.4-.571Z" transform="translate(-952.18 1233.034)" fill="#c1507f"/>
        </g>
        <g id="Grupo_57773" data-name="Grupo 57773" transform="translate(189.68 0)">
          <path id="Trazado_129841" data-name="Trazado 129841" d="M1102.572-2077.756v13.11H1049.9v-13.11a7.566,7.566,0,0,1,2.217-5.355,6.341,6.341,0,0,1,.535-.48,7.517,7.517,0,0,1,4.82-1.737,8.921,8.921,0,0,0,3.872-.882,9.261,9.261,0,0,0,1.456-.877,8.916,8.916,0,0,0,3.232-4.583,8.945,8.945,0,0,1,3.331-4.655,8.949,8.949,0,0,1,5.228-1.688h3.287a8.95,8.95,0,0,1,5.229,1.688,8.946,8.946,0,0,1,3.331,4.655,8.915,8.915,0,0,0,3.232,4.583,9.265,9.265,0,0,0,1.456.877,8.921,8.921,0,0,0,3.872.882,7.517,7.517,0,0,1,4.82,1.737A7.538,7.538,0,0,1,1102.572-2077.756Z" transform="translate(-1045.627 2098.014)" fill="#0e1c2f"/>
          <path id="Trazado_129842" data-name="Trazado 129842" d="M1087.484-1949.087v9.745h-61.219v-9.745h4.274v6.436h52.67v-6.436Z" transform="translate(-1026.265 1976.018)" fill="#e4e4e4"/>
          <ellipse id="Elipse_3961" data-name="Elipse 3961" cx="4.672" cy="4.44" rx="4.672" ry="4.44" transform="translate(25.939 3.418)" fill="#fff"/>
        </g>
        <g id="Grupo_57777" data-name="Grupo 57777" transform="translate(18.037 38.125)">
          <g id="Grupo_57774" data-name="Grupo 57774" transform="translate(96.931 14.638)">
            <path id="Trazado_129843" data-name="Trazado 129843" d="M617.495-1789.766c-1.868-.354-3.614-3.475-4.221-4.672a1.485,1.485,0,0,1-.134-.95l.743-3.941s1.716.292,1.583,2.576a1.683,1.683,0,0,0,.119.7l.657,1.718,1.942-1.5-1.065-3.007a5.165,5.165,0,0,1-2.161.156c-1.511-.482.47-1.659,1.1-1.785s2-.626,2.631.438,1,1.691,1,1.691.689-2.38.219-7.7c-.021-.24.579-.235.748-.063.5.513,1.308,2.076,1.351,6.827,0,0,.084-5.537,1.034-6.106.783-.47,1.178,2.24.627,6.836,0,0,1.022-3.979,1.753-3.987,1.234-.012.016,10.628-3.086,13.8Z" transform="translate(-613.113 1806.237)" fill="#f9b384"/>
            <path id="Trazado_129844" data-name="Trazado 129844" d="M629.11-1724.157q-.083.794-.182,1.539v.006a44.729,44.729,0,0,1-.816,4.693c-.016.066-.028.127-.044.188-.943,3.866-1.114,5.758-4.335,5.25l-3.315-3.772-.033-.039-.243-.276.673-1.985.088-.259.5-1.445.061-.187.849-2.487.342-1.01Z" transform="translate(-618.871 1739)" fill="#f9b384"/>
          </g>
          <g id="Grupo_57775" data-name="Grupo 57775" transform="translate(35.371 159.877)">
            <path id="Trazado_129845" data-name="Trazado 129845" d="M282.907-964.532l-.844,2.637c-5.785,1.9-9.16,4.078-9.376,6.618h16.73l1.341-8.829A12.978,12.978,0,0,1,282.907-964.532Z" transform="translate(-272.687 971.501)" fill="#1f3c88"/>
            <path id="Trazado_129846" data-name="Trazado 129846" d="M331.3-1000.781l-2.1,6.555a12.977,12.977,0,0,0,7.851.426l.865-5.694Z" transform="translate(-318.982 1001.195)" fill="#f9b384"/>
            <path id="Trazado_129847" data-name="Trazado 129847" d="M463.646-996.392l.491-6.677-7.859.414-.43,6.155A12.858,12.858,0,0,0,463.646-996.392Z" transform="translate(-422.726 1003.069)" fill="#f9b384"/>
            <path id="Trazado_129848" data-name="Trazado 129848" d="M470.048-957.09c-.216-2.54-3.171-6.021-9.652-6.848l.2-2.7a12.858,12.858,0,0,1-7.8-.108l-.674,9.655Z" transform="translate(-419.675 973.313)" fill="#1f3c88"/>
          </g>
          <path id="Trazado_129849" data-name="Trazado 129849" d="M420.8-1770.333l-9.481.066v-14.339h9.194l.005.877.044,4.545.066,7.3Z" transform="translate(-350.875 1803.156)" fill="#f9b384"/>
          <path id="Trazado_129850" data-name="Trazado 129850" d="M426.08-1771.4c-1.7,1.792-6.149-.232-8.025-2.206l7.981-2.339Z" transform="translate(-356.397 1796.061)" fill="#e28b6d"/>
          <path id="Trazado_129851" data-name="Trazado 129851" d="M406.639-1846.178a20.516,20.516,0,0,1-.248,3.227c-.463,2.89-1.688,5.388-4.511,5.466-6.673.193-8.576-3.624-9.834-6.745s.783-10.645.783-10.645l8.637-.855,4.743,3.888A35.4,35.4,0,0,1,406.639-1846.178Z" transform="translate(-334.755 1861.418)" fill="#f9b384"/>
          <path id="Trazado_129852" data-name="Trazado 129852" d="M373.311-1871.784s1.9-.088,2.229-5a6.729,6.729,0,0,0,7.863-2.167,4.552,4.552,0,0,0,7.98-1.631c1.149-3.286-2.022-8.181-6.641-5.217-4.527-2.287-11.393-2.13-13.369,3.48,0,0-6.869,3.167.4,10.14A8.409,8.409,0,0,0,373.311-1871.784Z" transform="translate(-315.752 1887.184)" fill="#102048"/>
          <path id="Trazado_129853" data-name="Trazado 129853" d="M461.039-1420.677l-5.24,79.24H443.481l3.079-76.892,1.884-.873Z" transform="translate(-377.225 1505.037)" fill="#102048"/>
          <path id="Trazado_129854" data-name="Trazado 129854" d="M324.026-1507.282l-8.641,90.082h13.42l12.777-74.823,14.523-4.412.643-15.994-32.356-.735Z" transform="translate(-272.293 1580.8)" fill="#1f3c88"/>
          <path id="Trazado_129855" data-name="Trazado 129855" d="M361.475-1520.84c7.33,2.631,24.528-.376,28.1-4.041l-2.537-5.075L358.75-1526.2Z" transform="translate(-307.816 1594.555)" fill="#102048" opacity="0.6"/>
          <path id="Trazado_129856" data-name="Trazado 129856" d="M408.916-1692.856c-.237.1-.48.2-.728.3a49.789,49.789,0,0,1-9.189,2.736,42.175,42.175,0,0,1-6.16.755,35.582,35.582,0,0,1-9.674-.783l4.109-38.309.5-4.671s5.377,6.618,11.306-.689Z" transform="translate(-327.816 1761.307)" fill="#fff"/>
          <path id="Trazado_129857" data-name="Trazado 129857" d="M392.839-1674.39a35.6,35.6,0,0,1-9.674-.783l4.109-38.309,1.467-2.121C392.364-1706.789,396.076-1687.273,392.839-1674.39Z" transform="translate(-327.816 1746.63)" fill="#1f3c88" opacity="0.3"/>
          <path id="Trazado_129858" data-name="Trazado 129858" d="M204.693-1738.095c4.085,17.345,5.766,35.194-.253,55.014-4.463,1.7-9.323,1.678-14.523.184l1.287-36.033-30.288,20.82-1.838-11.352C170.721-1720.594,190.851-1737.413,204.693-1738.095Z" transform="translate(-144.251 1765.055)" fill="#b1a8d1"/>
          <path id="Trazado_129859" data-name="Trazado 129859" d="M472.44-1655.083a49.772,49.772,0,0,1-9.188,2.735c-1.826-10.468-2.228-27.664-.745-35.424Z" transform="translate(-392.069 1723.832)" fill="#1f3c88" opacity="0.3"/>
          <path id="Trazado_129860" data-name="Trazado 129860" d="M629.211-1701.105c-.016.066-.027.127-.044.188-.943,3.866-1.114,5.758-4.335,5.25l-3.315-3.772-.033-.039.43-2.261L622-1702l.5-1.445.061-.187Z" transform="translate(-523.039 1736.823)" fill="#e28b6d" opacity="0.6"/>
          <path id="Trazado_129861" data-name="Trazado 129861" d="M498.178-1726.76s-8.135,17.235-12.961,17.648c-4.678.4-6.894-4.136-6.894-4.136l3.309,25.188a21.12,21.12,0,0,1-13.055,1.836c-4.374-14.2-6.027-32.564-6.352-53.015,3.541.221,10.553.523,13.064,2.137,4.5,2.9,10.065,13.237,10.065,13.237l6.48-8.824Z" transform="translate(-392.58 1765.992)" fill="#b1a8d1"/>
          <g id="Grupo_57776" data-name="Grupo 57776" transform="translate(1.332 7.078)">
            <path id="Trazado_129862" data-name="Trazado 129862" d="M112.624-1840.175s.492-8.245,1.331-7.856,2.522,7.558,2.522,7.558l-1.8,2.9Z" transform="translate(-107.529 1848.044)" fill="#6f3428"/>
            <path id="Trazado_129863" data-name="Trazado 129863" d="M167.789-981.211l.244,2.714a8.709,8.709,0,0,1-7.894,9.453l-.7.063a8.709,8.709,0,0,1-9.453-7.894l-.244-2.714Z" transform="translate(-137.937 1137.963)" fill="#c1507f"/>
            <rect id="Rectángulo_31147" data-name="Rectángulo 31147" width="18.118" height="131.924" transform="translate(0.002 26.978) rotate(-5.134)" fill="#fbc343"/>
            <path id="Trazado_129864" data-name="Trazado 129864" d="M121.454-1606.524l-10.477-116.613,7.849-.705L129.3-1607.229Zm-8.907-115.3,10.218,113.731,4.968-.446-10.218-113.731Z" transform="translate(-106.18 1746.302)" fill="#6f3428" opacity="0.3"/>
            <path id="Trazado_129865" data-name="Trazado 129865" d="M159.526-1073.066l-18.04,1.621-.474-5.295-.331-3.679-1.02-11.306,18.046-1.621,1.015,11.306.331,3.679Z" transform="translate(-129.676 1229.82)" fill="#102048"/>
            <rect id="Rectángulo_31148" data-name="Rectángulo 31148" width="18.113" height="3.694" transform="translate(11.004 149.402) rotate(-5.136)" fill="#fbc343"/>
            <path id="Trazado_129866" data-name="Trazado 129866" d="M84.45-1792.246l5.012-20.088a4.309,4.309,0,0,0,3.829-.529l9.205,19Z" transform="translate(-84.45 1819.225)" fill="#f2bdb6"/>
          </g>
          <path id="Trazado_129867" data-name="Trazado 129867" d="M381.222-1810.715c-.081-.3-1.427-.7-1.724-.785a2.066,2.066,0,0,0-1.406.013c-1.629.736-1.411,3.068-.567,4.293a3.674,3.674,0,0,0,1.992,1.462c.3.085,3.1.118,2.974-.332Z" transform="translate(-322.664 1825.283)" fill="#f9b384"/>
          <path id="Trazado_129868" data-name="Trazado 129868" d="M84.375-1555.417a2.452,2.452,0,0,0-3.134-1.619c-2.053.708-3.841,1.911-4.118,3.957-.252,1.863.679,7.813,4.841,8.578l-.34-3.058s2.548-.594,3.058-1.7A12.812,12.812,0,0,0,84.375-1555.417Z" transform="translate(-77.086 1616.847)" fill="#f9b384"/>
          <path id="Trazado_129869" data-name="Trazado 129869" d="M543.242-1660.646c.219,1.3.405,2.608.584,3.915s.332,2.617.5,3.925l.427,3.933c.125,1.313.247,2.627.327,3.945l-.214.025c-.226-1.3-.41-2.608-.592-3.914l-.492-3.926c-.138-1.312-.3-2.621-.419-3.935s-.248-2.627-.335-3.944Z" transform="translate(-458.77 1701.611)" fill="#1f3c88"/>
          <path id="Trazado_129870" data-name="Trazado 129870" d="M334.385-1661.866c0,1.462-.039,2.923-.082,4.384s-.112,2.92-.166,4.38l-.239,4.376c-.1,1.458-.2,2.916-.34,4.372l-.215-.01c0-1.463.034-2.924.074-4.384l.174-4.379c.084-1.458.146-2.918.247-4.376s.2-2.916.332-4.372Z" transform="translate(-287.003 1702.619)" fill="#1f3c88"/>
          <path id="Trazado_129871" data-name="Trazado 129871" d="M431.531-1811.006a.867.867,0,0,1-.478,1.1c-.381.085-.784-.267-.9-.787a.867.867,0,0,1,.479-1.1C431.012-1811.879,431.415-1811.526,431.531-1811.006Z" transform="translate(-366.28 1825.437)" fill="#102048"/>
          <path id="Trazado_129872" data-name="Trazado 129872" d="M461.92-1815.443c-.023.532-.357.951-.747.934s-.688-.461-.665-.994.357-.951.747-.935S461.943-1815.976,461.92-1815.443Z" transform="translate(-391.172 1829.231)" fill="#102048"/>
          <path id="Trazado_129873" data-name="Trazado 129873" d="M450.417-1808.522a12.486,12.486,0,0,1,.281,1.321,1.034,1.034,0,0,0,.267.458,1.74,1.74,0,0,0,.518.255,1.442,1.442,0,0,1,.654.492.857.857,0,0,1,.067.9,1.7,1.7,0,0,1-.539.545c-.189.128-.371.263-.568.383l-.142-.162c.145-.178.3-.341.456-.511a1.6,1.6,0,0,0,.356-.464c.117-.255-.133-.534-.5-.678a1.917,1.917,0,0,1-.672-.382,1.345,1.345,0,0,1-.354-.729c-.091-.511.013-.948-.036-1.373Z" transform="translate(-382.734 1822.747)" fill="#e28b6d"/>
          <path id="Trazado_129874" data-name="Trazado 129874" d="M423.371-1820.708a1.6,1.6,0,0,1,.563-.86,1.712,1.712,0,0,1,1-.374,1.85,1.85,0,0,1,1.739.977l-.169.134a2.368,2.368,0,0,0-1.544-.563,1.8,1.8,0,0,0-1.394.777Z" transform="translate(-360.751 1833.742)" fill="#102048"/>
          <path id="Trazado_129875" data-name="Trazado 129875" d="M454.85-1823.834a1.663,1.663,0,0,1,.433-.7,1.442,1.442,0,0,1,.783-.387,1.373,1.373,0,0,1,1.463.729l-.172.129a1.749,1.749,0,0,0-1.209-.316,1.553,1.553,0,0,0-.576.211,3.821,3.821,0,0,0-.535.44Z" transform="translate(-386.538 1836.193)" fill="#102048"/>
          <path id="Trazado_129876" data-name="Trazado 129876" d="M437.978-1778.984c.963,1.507,2.246,1.671,3.237.085Z" transform="translate(-372.717 1798.55)" fill="#fff"/>
          <path id="Trazado_129877" data-name="Trazado 129877" d="M468.281-1804.939a25.431,25.431,0,0,1-.274,3.594,1.661,1.661,0,0,1-1.153-1.583A2.123,2.123,0,0,1,468.281-1804.939Z" transform="translate(-396.371 1819.812)" fill="#fc8879" opacity="0.4"/>
          <circle id="Elipse_3962" data-name="Elipse 3962" cx="1.779" cy="1.779" r="1.779" transform="translate(61.132 16.091)" fill="#fc8879" opacity="0.4"/>
          <path id="Trazado_129878" data-name="Trazado 129878" d="M385.073-1802.644a8.943,8.943,0,0,0-.995-.655.865.865,0,0,0-.439-.114.979.979,0,0,0-.459.21l-.181-.117a.857.857,0,0,1,.524-.563,1.022,1.022,0,0,1,.8.092,2.065,2.065,0,0,1,.923,1.016Z" transform="translate(-327.681 1818.984)" fill="#e28b6d"/>
          <path id="Trazado_129879" data-name="Trazado 129879" d="M105.105-1513.414l-2.56,7.778-.529-6.078A5.307,5.307,0,0,0,105.105-1513.414Z" transform="translate(-97.509 1581.004)" fill="#6f3428" opacity="0.6"/>
        </g>
      </g>
      <rect id="Rectángulo_31149" data-name="Rectángulo 31149" width="356.542" height="1.447" transform="translate(-114.837 -1884.46)" fill="#102048"/>
    </g>
  </g>
</svg>
