<svg xmlns="http://www.w3.org/2000/svg" width="73" height="73" viewBox="0 0 73 73">
  <g id="Grupo_58631" data-name="Grupo 58631" transform="translate(7964.5 6563.426)">
    <g id="Grupo_58624" data-name="Grupo 58624" transform="translate(-7964.24 -6563.07)">
      <rect id="Rectángulo_31128" data-name="Rectángulo 31128" width="73" height="73" transform="translate(-0.26 -0.355)" fill="none"/>
      <g id="_096-view" data-name="096-view" transform="translate(3.371 13.582)">
        <path id="Trazado_129804" data-name="Trazado 129804" d="M26.918,103.928A30.016,30.016,0,0,1,68.305,91.269q-1.18-.927-2.455-1.74A30.006,30.006,0,0,0,23,101.316,30.083,30.083,0,0,0,33.7,113.1q.72.458,1.463.872a30.062,30.062,0,0,1-8.24-10.047Z" transform="translate(-21.341 -83.291)" fill="#d4e1f4"/>
        <path id="Trazado_129805" data-name="Trazado 129805" d="M304.33,251.393a12.293,12.293,0,0,1,10.97-12.206,12.275,12.275,0,1,0,0,24.412A12.293,12.293,0,0,1,304.33,251.393Z" transform="translate(-263.663 -217.406)" fill="#d4e1f4"/>
        <path id="Trazado_129806" data-name="Trazado 129806" d="M47.789,107.585l-.449-1.5a30.015,30.015,0,0,1-35.385-15.2,30.006,30.006,0,0,1,53.546,0,30.068,30.068,0,0,1-1.778,3.049l1.3.868a31.672,31.672,0,0,0,2.052-3.571.784.784,0,0,0,0-.69,31.573,31.573,0,0,0-56.7,0,.784.784,0,0,0,0,.69,31.582,31.582,0,0,0,37.413,16.356Z" transform="translate(-10.296 -72.859)" fill="#7d6eb2"/>
        <path id="Trazado_129807" data-name="Trazado 129807" d="M171.838,152.181a7.7,7.7,0,1,0,12.979,3.886.784.784,0,0,0-1.306-.411,2.671,2.671,0,1,1-3.722-3.833c.052-.052.111-.106.175-.159a.784.784,0,0,0-.257-1.343A7.654,7.654,0,0,0,171.838,152.181Zm6.843,4.529a4.213,4.213,0,0,0,4.728.877,6.145,6.145,0,1,1-5.371-6.048,4.247,4.247,0,0,0,.643,5.171Z" transform="translate(-148.783 -139.857)" fill="#7d6eb2"/>
        <path id="Trazado_129808" data-name="Trazado 129808" d="M137.325,130.886a12.016,12.016,0,1,0,12.016-12.016A12.016,12.016,0,0,0,137.325,130.886Zm22.464,0a10.449,10.449,0,1,1-10.449-10.449A10.449,10.449,0,0,1,159.789,130.886Z" transform="translate(-120.736 -112.861)" fill="#7d6eb2"/>
        <path id="Trazado_129809" data-name="Trazado 129809" d="M303.55,227.119a13.843,13.843,0,1,0,13.843,13.843A13.843,13.843,0,0,0,303.55,227.119Zm0,26.118a12.276,12.276,0,1,1,12.275-12.275A12.275,12.275,0,0,1,303.55,253.237Z" transform="translate(-253.219 -206.974)" fill="#26aab7"/>
        <path id="Trazado_129810" data-name="Trazado 129810" d="M338.246,280.239a1.137,1.137,0,0,0-1.128-.609,1.1,1.1,0,0,0-1.112.61l-3.118,10.153a.5.5,0,0,0-.019.162c0,.468.64.755,1.1.755a.587.587,0,0,0,.643-.392l.629-2.178h3.772l.629,2.179a.584.584,0,0,0,.627.391c.516,0,1.115-.33,1.115-.755a.512.512,0,0,0-.034-.16Zm.353,7.039h-2.96l1.48-5.076Z" transform="translate(-290.744 -252.628)" fill="#26aab7"/>
        <path id="Trazado_129811" data-name="Trazado 129811" d="M410.129,280.351h-2.774c-.449,0-.8.263-.8.6v10.389c0,.335.353.6.8.6h2.774a3.225,3.225,0,0,0,3.591-3.56v-4.466A3.225,3.225,0,0,0,410.129,280.351Zm0,9.982h-1.784v-8.378h1.784c1.194,0,1.8.658,1.8,1.956v4.466c0,1.3-.605,1.956-1.8,1.956Z" transform="translate(-354.806 -253.255)" fill="#26aab7"/>
      </g>
    </g>
  </g>
</svg>
