<svg xmlns="http://www.w3.org/2000/svg" width="73" height="73" viewBox="0 0 73 73">
  <g id="Grupo_58627" data-name="Grupo 58627" transform="translate(8766.5 6563.426)">
    <g id="Grupo_58617" data-name="Grupo 58617" transform="translate(-8766.5 -6563.301)">
      <rect id="Rectángulo_31123" data-name="Rectángulo 31123" width="73" height="73" transform="translate(0 -0.125)" fill="none"/>
      <g id="_046-global-3" data-name="046-global-3" transform="translate(4.865 19.796)">
        <path id="Trazado_129771" data-name="Trazado 129771" d="M144.655,184.584a14.828,14.828,0,0,0-3.275,8.551h1.307a14.809,14.809,0,0,1,2.738-7.838Q145.029,184.954,144.655,184.584Z" transform="translate(-124.962 -177.449)" fill="#d4e1f4"/>
        <path id="Trazado_129772" data-name="Trazado 129772" d="M142.687,262H141.38a14.827,14.827,0,0,0,3.275,8.551q.373-.37.77-.713A14.809,14.809,0,0,1,142.687,262Z" transform="translate(-124.962 -244.746)" fill="#d4e1f4"/>
        <path id="Trazado_129773" data-name="Trazado 129773" d="M179.349,332.952a14.963,14.963,0,0,1-4.011-2.827q-.458.389-.886.816a14.907,14.907,0,0,0,6.765,3.906A14.844,14.844,0,0,1,179.349,332.952Z" transform="translate(-153.711 -303.966)" fill="#d4e1f4"/>
        <path id="Trazado_129774" data-name="Trazado 129774" d="M179.833,147.085a14.728,14.728,0,0,1,1.384-1.338,14.907,14.907,0,0,0-6.765,3.906q.315.315.647.609A14.948,14.948,0,0,1,179.833,147.085Z" transform="translate(-153.711 -143.689)" fill="#d4e1f4"/>
        <path id="Trazado_129775" data-name="Trazado 129775" d="M20.37,261.608a2.543,2.543,0,0,0,4.973.75h1.225a3.585,3.585,0,0,0,3.157-1.883,2.017,2.017,0,0,1,1.773-1.06l4.194.02.008-1.569-4.2-.02a3.584,3.584,0,0,0-3.157,1.882,2.018,2.018,0,0,1-1.778,1.06H25.319a2.542,2.542,0,0,0-4.949.818Zm3.518,0a.975.975,0,1,1-.975-.975.975.975,0,0,1,.975.975Z" transform="translate(-19.769 -241.136)" fill="#26aab7"/>
        <path id="Trazado_129776" data-name="Trazado 129776" d="M35.011,320.452a2.547,2.547,0,0,0,2.418-1.759h1.332a4.011,4.011,0,0,0,3.826-2.863,2.433,2.433,0,0,1,2.322-1.737h3.264v-1.569H44.909a4.011,4.011,0,0,0-3.826,2.863,2.433,2.433,0,0,1-2.322,1.737H37.429a2.543,2.543,0,1,0-2.418,3.327Zm0-3.518a.975.975,0,1,1-.975.975A.975.975,0,0,1,35.011,316.934Z" transform="translate(-30.286 -288.667)" fill="#26aab7"/>
        <path id="Trazado_129777" data-name="Trazado 129777" d="M18.319,143.918a2.547,2.547,0,0,0,2.418-1.759h3.44a1.2,1.2,0,0,1,1.164.938,2.775,2.775,0,0,0,2.7,2.174h6.691V143.7H28.037a1.2,1.2,0,0,1-1.164-.938,2.775,2.775,0,0,0-2.7-2.174h-3.44a2.543,2.543,0,1,0-2.418,3.327Zm0-3.518a.975.975,0,1,1-.975.975A.975.975,0,0,1,18.319,140.4Z" transform="translate(-15.775 -137.678)" fill="#26aab7"/>
        <path id="Trazado_129778" data-name="Trazado 129778" d="M52.819,194.756h.635a1.849,1.849,0,0,1,1.711,1.141A3.413,3.413,0,0,0,58.324,198H59.59v-1.569H58.324a1.849,1.849,0,0,1-1.711-1.141,3.414,3.414,0,0,0-3.159-2.106h-.635a2.543,2.543,0,1,0,0,1.569Zm-3.393-.784a.975.975,0,1,1,.975.975A.975.975,0,0,1,49.426,193.972Z" transform="translate(-43.663 -183.399)" fill="#26aab7"/>
        <path id="Trazado_129779" data-name="Trazado 129779" d="M389.678,261.611a2.542,2.542,0,0,0-4.949-.818H383.48a2.018,2.018,0,0,1-1.778-1.06,3.586,3.586,0,0,0-3.161-1.882l-4.193.019.008,1.569,4.19-.02a2.018,2.018,0,0,1,1.778,1.06,3.585,3.585,0,0,0,3.157,1.883h1.225a2.543,2.543,0,0,0,4.973-.75Zm-2.543.975a.975.975,0,1,1,.975-.975A.975.975,0,0,1,387.135,262.586Z" transform="translate(-327.479 -241.14)" fill="#26aab7"/>
        <path id="Trazado_129780" data-name="Trazado 129780" d="M370.121,317.126h-1.332a2.433,2.433,0,0,1-2.322-1.737,4.011,4.011,0,0,0-3.826-2.863h-3.264v1.569h3.264a2.433,2.433,0,0,1,2.322,1.737,4.011,4.011,0,0,0,3.826,2.863h1.332a2.543,2.543,0,1,0,0-1.569Zm3.393.784a.975.975,0,1,1-.975-.975A.975.975,0,0,1,373.514,317.91Z" transform="translate(-314.465 -288.668)" fill="#26aab7"/>
        <path id="Trazado_129781" data-name="Trazado 129781" d="M360.611,143.093a1.2,1.2,0,0,1,1.164-.938h3.44a2.543,2.543,0,1,0,0-1.569h-3.44a2.775,2.775,0,0,0-2.7,2.174,1.2,1.2,0,0,1-1.164.938h-6.691v1.569h6.691A2.775,2.775,0,0,0,360.611,143.093Zm7.022-2.7a.975.975,0,1,1-.975.975A.975.975,0,0,1,367.633,140.4Z" transform="translate(-307.377 -137.673)" fill="#26aab7"/>
        <path id="Trazado_129782" data-name="Trazado 129782" d="M378.8,195.9a1.849,1.849,0,0,1,1.711-1.141h.635a2.543,2.543,0,1,0,0-1.569h-.635a3.413,3.413,0,0,0-3.159,2.106,1.849,1.849,0,0,1-1.712,1.141h-1.266v1.569h1.266A3.413,3.413,0,0,0,378.8,195.9Zm4.764-2.9a.975.975,0,1,1-.975.975A.975.975,0,0,1,383.566,193Z" transform="translate(-327.504 -183.402)" fill="#26aab7"/>
        <path id="Trazado_129783" data-name="Trazado 129783" d="M145.692,162.939a16.469,16.469,0,1,0-16.469-16.469A16.469,16.469,0,0,0,145.692,162.939Zm-8.65-23.49a21.9,21.9,0,0,0-1.073,6.237h-5.158a14.828,14.828,0,0,1,3.275-8.551,16.174,16.174,0,0,0,2.955,2.314Zm15.345-.742a14.833,14.833,0,0,1-5.911,1.571v-8.406a13.8,13.8,0,0,1,5.911,6.834Zm-5.911,3.141a16.407,16.407,0,0,0,6.455-1.659,20.418,20.418,0,0,1,.914,5.5h-7.369Zm7.369,5.406a20.418,20.418,0,0,1-.913,5.5,16.407,16.407,0,0,0-6.455-1.659v-3.838Zm-7.369,13.813v-8.406a14.833,14.833,0,0,1,5.911,1.571A13.8,13.8,0,0,1,146.477,161.067Zm-1.569-9.976a16.615,16.615,0,0,0-6.464,1.633,20.441,20.441,0,0,1-.905-5.47h7.369Zm0,1.57v8.406a13.8,13.8,0,0,1-5.922-6.86A15.039,15.039,0,0,1,144.908,152.661Zm8.851,2.359a14.672,14.672,0,0,1,2.452,1.994,14.9,14.9,0,0,1-6.725,3.866,15.851,15.851,0,0,0,4.274-5.861Zm.572-1.495a21.893,21.893,0,0,0,1.084-6.271h5.158a14.829,14.829,0,0,1-3.31,8.594A16.242,16.242,0,0,0,154.331,153.525Zm1.084-7.84a21.893,21.893,0,0,0-1.084-6.271,16.242,16.242,0,0,0,2.932-2.323,14.829,14.829,0,0,1,3.31,8.594Zm-1.656-7.766a15.847,15.847,0,0,0-4.274-5.861,14.9,14.9,0,0,1,6.725,3.866A14.67,14.67,0,0,1,153.759,137.919Zm-8.851-6.047v8.406a15.038,15.038,0,0,1-5.922-1.546A13.805,13.805,0,0,1,144.908,131.872Zm0,9.976v3.838H137.54a20.441,20.441,0,0,1,.905-5.47A16.614,16.614,0,0,0,144.908,141.848Zm-8.938,5.406a21.9,21.9,0,0,0,1.073,6.237,16.174,16.174,0,0,0-2.955,2.314,14.827,14.827,0,0,1-3.275-8.55Zm-.835,9.721a14.6,14.6,0,0,1,2.476-1.99,15.858,15.858,0,0,0,4.289,5.9,14.907,14.907,0,0,1-6.765-3.906Zm6.765-24.916a15.857,15.857,0,0,0-4.289,5.9,14.6,14.6,0,0,1-2.476-1.99,14.907,14.907,0,0,1,6.765-3.906Z" transform="translate(-114.394 -130)" fill="#7d6eb2"/>
      </g>
    </g>
  </g>
</svg>
