<svg xmlns="http://www.w3.org/2000/svg" xmlns:xlink="http://www.w3.org/1999/xlink" width="91.928" height="91.927" viewBox="0 0 91.928 91.927">
  <defs>
    <radialGradient id="radial-gradient" cx="0.076" cy="0.019" r="1.465" gradientTransform="translate(0.001)" gradientUnits="objectBoundingBox">
      <stop offset="0" stop-color="#f6f6f7"/>
      <stop offset="0.477" stop-color="#f9f9fa"/>
      <stop offset="0.715" stop-color="#fff"/>
    </radialGradient>
  </defs>
  <g id="Grupo_58711" data-name="Grupo 58711" transform="translate(12710.428 5824.927)">
    <g id="Grupo_58614" data-name="Grupo 58614" transform="translate(-12927.428 -6566.261)">
      <g id="Grupo_42274" data-name="Grupo 42274" transform="translate(142 768.333)">
        <g id="Grupo_18423" data-name="Grupo 18423" transform="translate(75 -27)">
          <g id="Grupo_18421" data-name="Grupo 18421">
            <g id="Grupo_18420" data-name="Grupo 18420">
              <g id="Grupo_18419" data-name="Grupo 18419">
                <path id="Trazado_40936" data-name="Trazado 40936" d="M286.55,2191.684a45.964,45.964,0,1,1-45.963-45.962A45.963,45.963,0,0,1,286.55,2191.684Z" transform="translate(-194.623 -2145.721)" fill="#fff"/>
              </g>
            </g>
          </g>
          <path id="Trazado_40937" data-name="Trazado 40937" d="M286.23,2191.334a45.963,45.963,0,1,0-45.963,45.965A45.782,45.782,0,0,0,286.23,2191.334Z" transform="translate(-194.303 -2145.372)" fill="url(#radial-gradient)"/>
          <path id="Trazado_40938" data-name="Trazado 40938" d="M272.56,2188.562a35.084,35.084,0,1,0-35.084,35.084A34.953,34.953,0,0,0,272.56,2188.562Z" transform="translate(-191.373 -2142.446)" fill="none" stroke="#7d70b0" stroke-miterlimit="10" stroke-width="4"/>
          <g id="Grupo_18422" data-name="Grupo 18422" transform="translate(8.143 25.805)">
            <path id="Trazado_40939" data-name="Trazado 40939" d="M279.682,2164.488a45.969,45.969,0,0,1-79.137,45.773,45.823,45.823,0,0,0,79.137-45.773Z" transform="translate(-200.545 -2164.488)" fill="#eceef0"/>
          </g>
        </g>
      </g>
    </g>
    <g id="Grupo_58617" data-name="Grupo 58617" transform="translate(-12933.164 -6278.641)">
      <path id="Trazado_17728" data-name="Trazado 17728" d="M282.638,482.486a.941.941,0,0,1,.36.88c-.022.5.006,1.011-.01,1.516a2.348,2.348,0,0,1-2.3,2.31c-.167.006-.335,0-.524,0-.063.583-.1,1.144-.188,1.7a16.168,16.168,0,0,1-5.866,10.359,2.14,2.14,0,0,0-.873,1.476,2,2,0,0,0,.769,1.883,16.177,16.177,0,0,1,5.852,9.745c.159.772.216,1.566.326,2.4.155,0,.332-.006.509,0a2.35,2.35,0,0,1,2.3,2.316c.016.553.008,1.107,0,1.661,0,.53-.21.731-.753.731H255.27c-.7,0-.864-.161-.861-.877a15.493,15.493,0,0,1,.031-1.767,2.305,2.305,0,0,1,2.308-2.065c.164-.005.329,0,.464,0,.123-.883.189-1.724.363-2.541a16.1,16.1,0,0,1,5.769-9.556,2.074,2.074,0,0,0,.03-3.334,16.267,16.267,0,0,1-5.908-10.146c-.116-.635-.152-1.284-.232-1.979-.168,0-.344.006-.521,0a2.353,2.353,0,0,1-2.3-2.35c-.011-.505.014-1.011-.01-1.516a.913.913,0,0,1,.362-.843Zm-24.175,4.736a5.94,5.94,0,0,0,0,.62,15.061,15.061,0,0,0,5.653,10.579,3.25,3.25,0,0,1,.353,4.766,8.927,8.927,0,0,1-.736.636,15.148,15.148,0,0,0-5.134,9.186c-.1.559-.125,1.131-.189,1.733h.476c1.191,0,2.382-.009,3.574.006a.607.607,0,0,0,.6-.327,9.969,9.969,0,0,1,3.689-3.625c.358-.2.733-.362,1.1-.536a.423.423,0,0,0,.268-.449c-.016-.77-.011-1.54-.006-2.31a.6.6,0,0,1,.594-.674c.341,0,.571.272.572.691,0,.71.03,1.422-.013,2.129a.621.621,0,0,0,.454.7,10.049,10.049,0,0,1,4.679,4.137.593.593,0,0,0,.42.237c1.275.019,2.55.013,3.826.013.093,0,.185-.017.315-.03-.027-.332-.04-.643-.08-.951a14.964,14.964,0,0,0-5.605-10.222,3.248,3.248,0,0,1-.59-4.489,6.968,6.968,0,0,1,1.016-.962,15.182,15.182,0,0,0,5.089-9.174c.1-.548.121-1.108.182-1.686Z" transform="translate(0)" fill="#7d6eb2"/>
      <path id="Trazado_17729" data-name="Trazado 17729" d="M276.064,505.536c.221-.712-.212-.967-.774-1.213a9.784,9.784,0,0,1-4.533-4.336.7.7,0,0,1,.01-.624.753.753,0,0,1,.608-.25,6.539,6.539,0,0,0,3.861-.594c.9-.4,1.785-.837,2.7-1.192a4.9,4.9,0,0,1,4.931.772.594.594,0,0,1,.215.849,10.432,10.432,0,0,1-5.29,5.474c-.434.186-.651.424-.574.913a4.362,4.362,0,0,1,.006.793.57.57,0,0,1-.587.63.58.58,0,0,1-.575-.646C276.06,505.921,276.064,505.728,276.064,505.536Z" transform="translate(-7.943 -7.065)" fill="#7d6eb2"/>
      <path id="Trazado_17730" data-name="Trazado 17730" d="M282.329,520.425a2.781,2.781,0,0,1,0,.467.536.536,0,0,1-.566.494.527.527,0,0,1-.572-.487,4.988,4.988,0,0,1-.007-.934.577.577,0,0,1,1.147-.007,3.089,3.089,0,0,1,0,.467Z" transform="translate(-13.05 -18.023)" fill="#7d6eb2"/>
    </g>
  </g>
</svg>
