<svg xmlns="http://www.w3.org/2000/svg" xmlns:xlink="http://www.w3.org/1999/xlink" width="91.928" height="91.927" viewBox="0 0 91.928 91.927">
  <defs>
    <radialGradient id="radial-gradient" cx="0.076" cy="0.019" r="1.465" gradientTransform="translate(0.001)" gradientUnits="objectBoundingBox">
      <stop offset="0" stop-color="#f6f6f7"/>
      <stop offset="0.477" stop-color="#f9f9fa"/>
      <stop offset="0.715" stop-color="#fff"/>
    </radialGradient>
  </defs>
  <g id="Grupo_58819" data-name="Grupo 58819" transform="translate(4542.116 1460.427)">
    <g id="Grupo_58764" data-name="Grupo 58764" transform="translate(-4759.116 -2201.761)">
      <g id="Grupo_42274" data-name="Grupo 42274" transform="translate(142 768.333)">
        <g id="Grupo_18423" data-name="Grupo 18423" transform="translate(75 -27)">
          <g id="Grupo_18421" data-name="Grupo 18421">
            <g id="Grupo_18420" data-name="Grupo 18420">
              <g id="Grupo_18419" data-name="Grupo 18419">
                <path id="Trazado_40936" data-name="Trazado 40936" d="M286.55,2191.684a45.964,45.964,0,1,1-45.963-45.962A45.963,45.963,0,0,1,286.55,2191.684Z" transform="translate(-194.623 -2145.721)" fill="#fff"/>
              </g>
            </g>
          </g>
          <path id="Trazado_40937" data-name="Trazado 40937" d="M286.23,2191.334a45.963,45.963,0,1,0-45.963,45.965A45.782,45.782,0,0,0,286.23,2191.334Z" transform="translate(-194.303 -2145.372)" fill="url(#radial-gradient)"/>
          <path id="Trazado_40938" data-name="Trazado 40938" d="M272.56,2188.562a35.084,35.084,0,1,0-35.084,35.084A34.953,34.953,0,0,0,272.56,2188.562Z" transform="translate(-191.373 -2142.446)" fill="none" stroke="#31aebb" stroke-miterlimit="10" stroke-width="4"/>
          <g id="Grupo_18422" data-name="Grupo 18422" transform="translate(8.143 25.805)">
            <path id="Trazado_40939" data-name="Trazado 40939" d="M279.682,2164.488a45.969,45.969,0,0,1-79.137,45.773,45.823,45.823,0,0,0,79.137-45.773Z" transform="translate(-200.545 -2164.488)" fill="#eceef0"/>
          </g>
        </g>
      </g>
    </g>
    <g id="Grupo_58771" data-name="Grupo 58771" transform="translate(-4638.469 -1479.433)">
      <path id="Trazado_131582" data-name="Trazado 131582" d="M163.671,77.58l-2.026-6.074a12,12,0,0,0-4.235-5.851l-1.317-.926v-12.7c0-7.327-7.126-12.25-13.781-12.25s-13.781,4.923-13.781,12.25v12.7l-1.355.952a11.987,11.987,0,0,0-4.2,5.823l-1.992,5.99a2.664,2.664,0,0,0,.346,2.539c1.234,1.822,4.9,3.349,7.223,3.915a1.578,1.578,0,0,0-.023.239c0,2.675,3.784,3.516,5.027,3.793a42.372,42.372,0,0,0,8.754.8c5.147,0,13.781-.6,13.781-4.594a1.4,1.4,0,0,0-.025-.239c2.32-.567,5.99-2.093,7.224-3.915A2.63,2.63,0,0,0,163.671,77.58ZM142.312,42.845c5.07,0,10.719,3.773,10.719,9.187V62.954L151.5,61.932V53.861a3.6,3.6,0,0,0-2.949-3.526c-1.216-.225-2.768-.642-4.413-1.083-1.793-.482-3.647-.98-5.436-1.335a4.624,4.624,0,0,0-3.854.969,4.7,4.7,0,0,0-1.723,3.644v9.4l-1.531,1.021V52.033C131.593,46.618,137.242,42.845,142.312,42.845Zm-6.125,16.017V52.531a1.647,1.647,0,0,1,.6-1.277,1.566,1.566,0,0,1,1.311-.334c1.689.337,3.5.822,5.24,1.289,1.706.458,3.317.89,4.649,1.138a.525.525,0,0,1,.446.515v5a9.134,9.134,0,0,1-12.25,0Zm-.681,5.163a1.53,1.53,0,0,0,.635-.9l.4-.285a12.245,12.245,0,0,0,11.532,0l.406.283a1.528,1.528,0,0,0,.635.9l3.055,2.037-5.952,2.977a1.531,1.531,0,0,0-.75.831L142.312,78.3l-3.161-8.426a1.533,1.533,0,0,0-.645-.775l-5.583-3.349Zm19.972,16.933-.946-4.725a1.531,1.531,0,0,0-3,.6l1.447,7.232c-.793.635-4.382,1.655-10.664,1.655s-9.87-1.02-10.664-1.655l1.445-7.232a1.531,1.531,0,0,0-3-.6l-.945,4.725c-1.707-.443-4.643-1.727-5.237-2.565l1.974-5.918a8.906,8.906,0,0,1,3.09-4.315l.933-.654,6.566,3.94L140.877,83.2a1.532,1.532,0,0,0,2.868,0l4.382-11.688,7.18-3.589.3.213a8.947,8.947,0,0,1,3.13,4.343l1.974,5.915C160.125,79.228,157.185,80.516,155.478,80.958Z" transform="translate(0 0)" fill="#26aab7"/>
    </g>
  </g>
</svg>
