<svg id="Layer_1" data-name="Layer 1" xmlns="http://www.w3.org/2000/svg" xmlns:xlink="http://www.w3.org/1999/xlink" viewBox="0 0 252 244"><defs><style>.cls-1{fill:none;}.cls-2{clip-path:url(#clip-path);}.cls-3{fill:#ffbe9d;}.cls-4{fill:#263238;}.cls-5{fill:#c1507f;}.cls-6{fill:#eb996e;}.cls-7{fill:#455a64;}.cls-8{fill:#f5ca56;}.cls-9{fill:#fff;}.cls-10{opacity:0.3;}</style><clipPath id="clip-path"><rect class="cls-1" width="252" height="244"/></clipPath></defs><g class="cls-2"><g id="Mask_Group_49" data-name="Mask Group 49"><g id="freepik--Character--inject-7"><path id="Path_129413" data-name="Path 129413" class="cls-3" d="M48.85,109.61l8.5-3,27.84-.5,10.3,2.3,3,39.38L86,154.78l-29.1-21.19Z"/><path id="Path_129414" data-name="Path 129414" class="cls-4" d="M64.85,42.46c-2.75-1.75-3.42-5.81-1.93-8.72a10.66,10.66,0,0,1,7.87-5.18,15.11,15.11,0,0,1,13,4.32c1.76,1.83,3.21,4.21,5.62,5,2.15.74,4.45.08,6.67.36a10.07,10.07,0,0,1,7.07,5.09A21.79,21.79,0,0,1,105.63,52c.32,2.76.54,5.76,2.44,7.75s4.78,2.37,7.08,3.76A9.72,9.72,0,0,1,118,76.75c-.92,1.34-2.23,2.56-2.32,4.16s.85,2.79,1.29,4.19a6.53,6.53,0,0,1-4.7,8,5.38,5.38,0,0,1-.89.17c-1.91.11-4-.64-5.68.21s-2.33,2.91-3.42,4.47a8.19,8.19,0,0,1-10,2.58c-1.42-.69-2.76-1.84-4.32-1.73s-2.8,1.44-4.32,1.74c-2,.39-3.91-1.08-5.11-2.75s-2-3.63-3.55-5c-2-1.78-4.81-2.21-7.34-3.08A20.74,20.74,0,0,1,54.83,63.33,20.52,20.52,0,0,1,56,60.64"/><path id="Path_129415" data-name="Path 129415" class="cls-5" d="M94,78.46A5.58,5.58,0,0,1,96.21,77H96a4,4,0,0,1,.48-.09,2.32,2.32,0,0,1,1.75.22h0a4.17,4.17,0,0,1,2.26,2,4.9,4.9,0,0,1-.58,5,3.74,3.74,0,0,1-6.86-1.28,4.68,4.68,0,0,1,.89-4.4Z"/><path id="Path_129416" data-name="Path 129416" class="cls-3" d="M57.67,107.75l-2.93-53.7a4.58,4.58,0,0,1,3.95-4.75l24-6.8c7.72-1.08,13.14,8.35,13.85,16.11.79,8.63,1.42,19.17.57,25.65-1.68,13-11.56,14.95-11.56,14.95l.14,7.42-.79,20.19Z"/><path id="Path_129417" data-name="Path 129417" class="cls-4" d="M93.19,68.75a1.67,1.67,0,0,1-1.55,1.73,1.59,1.59,0,0,1-1.77-1.38V69a1.67,1.67,0,0,1,1.56-1.71,1.58,1.58,0,0,1,1.75,1.38A.13.13,0,0,1,93.19,68.75Z"/><path id="Path_129418" data-name="Path 129418" class="cls-4" d="M94.36,64.17c-.19.21-1.49-.68-3.23-.63s-3.08,1-3.22.78.11-.5.67-.92a4.62,4.62,0,0,1,2.61-.88,4.29,4.29,0,0,1,2.59.77C94.3,63.67,94.49,64.06,94.36,64.17Z"/><path id="Path_129419" data-name="Path 129419" class="cls-4" d="M76.65,68.75a1.66,1.66,0,0,1-1.56,1.73,1.58,1.58,0,0,1-1.74-1.41v0a1.65,1.65,0,0,1,1.54-1.71,1.59,1.59,0,0,1,1.76,1.38Z"/><path id="Path_129420" data-name="Path 129420" class="cls-4" d="M76.83,65c-.2.22-1.49-.68-3.24-.61s-3.08,1-3.24.76.11-.46.67-.92a4.66,4.66,0,0,1,2.61-.91,4.53,4.53,0,0,1,2.62.76C76.73,64.52,76.93,64.9,76.83,65Z"/><path id="Path_129421" data-name="Path 129421" class="cls-4" d="M83.69,78.07a11.36,11.36,0,0,1,2.89-.61c.46-.06.89-.16,1-.46a2.18,2.18,0,0,0-.33-1.34l-1.47-3.44c-2-4.9-3.49-8.94-3.24-9s2,3.83,4,8.72l1.37,3.46a2.75,2.75,0,0,1,.3,1.8,1.15,1.15,0,0,1-.74.67,2.55,2.55,0,0,1-.78.13A11.81,11.81,0,0,1,83.69,78.07Z"/><path id="Path_129422" data-name="Path 129422" class="cls-6" d="M85.53,99.2A33,33,0,0,1,68,95.07s4.63,9.42,17.56,7.83Z"/><path id="Path_129423" data-name="Path 129423" class="cls-6" d="M83.57,82.3a4.37,4.37,0,0,0-3.67-1.83,2.83,2.83,0,0,0-2.3,1.34,2.76,2.76,0,0,0,.12,2.88,2.73,2.73,0,0,0,2.94,1A6.59,6.59,0,0,0,83.25,84a2.27,2.27,0,0,0,.54-.69.9.9,0,0,0-.1-.92"/><path id="Path_129424" data-name="Path 129424" class="cls-4" d="M78.47,79.46c.29,0,.34,1.92,2,3.24S84.27,83.78,84.3,84s-.46.38-1.32.46a4.94,4.94,0,0,1-3.16-1,4.22,4.22,0,0,1-1.6-2.73C78.18,80,78.34,79.45,78.47,79.46Z"/><path id="Path_129425" data-name="Path 129425" class="cls-4" d="M77.41,57.62c-.16.48-2,.3-4,.61s-3.77.94-4,.51c-.13-.2.15-.67.81-1.16a6.87,6.87,0,0,1,3-1.08,6.62,6.62,0,0,1,3.18.28C77.09,57,77.48,57.38,77.41,57.62Z"/><path id="Path_129426" data-name="Path 129426" class="cls-4" d="M93.6,58c-.32.41-1.56,0-3,0s-2.74.35-3-.07c-.13-.2.06-.61.59-1A4.31,4.31,0,0,1,93,57C93.54,57.41,93.73,57.83,93.6,58Z"/><path id="Path_129427" data-name="Path 129427" class="cls-4" d="M105.26,55.88a8.78,8.78,0,0,0-3.41-4.9c-.92-.61-2-1-2.89-1.68-1.87-1.51-2.3-4.13-3.45-6.25a9.84,9.84,0,0,0-7.47-5c-2.57-.26-5.22.51-7.72-.12-1.86-.46-3.46-1.67-5.34-2-3.67-.69-7,1.93-9.71,4.54,0,2.61,2.07,4.32,4.08,6a9,9,0,0,0,7.34,1.93c2-.36,4.18-1.38,5.91-.3s1.88,3.85,3.49,5.24c2.3,2,6,.13,8.88,1,2.26.67,3.67,2.83,5.17,4.64s3.74,3.54,6,2.87a25.62,25.62,0,0,0-.87-6Z"/><path id="Path_129428" data-name="Path 129428" class="cls-4" d="M78.1,44.15c-1.71-.5-5.2-1.6-6.12-3.07A10.42,10.42,0,0,0,62.9,35.9a8.61,8.61,0,0,0-7.75,6.81,12.51,12.51,0,0,0-11.32,8.43,9.37,9.37,0,0,0-.64,7.92c.59,1.54,1.6,3.21.81,4.7s-2.85,1.52-4.43,2.07a6.25,6.25,0,0,0-4,7,7.36,7.36,0,0,1,.46,3,6.62,6.62,0,0,1-1.83,2.66A7.79,7.79,0,0,0,38.8,91.15a10.1,10.1,0,0,1,3.58.82c1.21.75,1.74,2.16,2.58,3.32a6.73,6.73,0,0,0,7.28,2.3,6.08,6.08,0,0,0,1.46-.74A4.83,4.83,0,0,0,58,98.74l-.5-28.5a2.31,2.31,0,0,0,1.72,1.35c4.59,1.08,5.25-8.39,4.22-11a25.89,25.89,0,0,0,4.59-4.82,19.24,19.24,0,0,0,2.16-9.26C71.82,46.69,78.86,44.35,78.1,44.15Z"/><path id="Path_129429" data-name="Path 129429" class="cls-3" d="M59.35,72.08c-.14-2.75-3.53-3.37-6-2-1.33.76-2.33,2.29-2.21,5.24.32,7.87,8.15,5.91,8.16,5.7S59.52,75.34,59.35,72.08Z"/><path id="Path_129430" data-name="Path 129430" class="cls-6" d="M56.83,78.17a2.7,2.7,0,0,1-.37.21,1.41,1.41,0,0,1-1,.05,3.37,3.37,0,0,1-1.68-3,4.29,4.29,0,0,1,.3-2,1.65,1.65,0,0,1,1-1.08.7.7,0,0,1,.82.34c.12.22.08.38.12.39s.16-.14.09-.45a.91.91,0,0,0-.33-.46A1.06,1.06,0,0,0,55,72a1.92,1.92,0,0,0-1.38,1.28,4.58,4.58,0,0,0-.38,2.16c.12,1.58,1,3,2.15,3.31a1.42,1.42,0,0,0,1.24-.26C56.83,78.35,56.85,78.18,56.83,78.17Z"/><path id="Path_129431" data-name="Path 129431" class="cls-7" d="M67,42.72A4.65,4.65,0,0,0,65.46,44a7.25,7.25,0,0,0-.57,5.4v.2H64.7a7.55,7.55,0,0,0-5.07,4.48,5.73,5.73,0,0,0-.4,1.92,11.12,11.12,0,0,0,.23,2.07,14.06,14.06,0,0,1,.3,2.23,3.61,3.61,0,0,1-.64,2.32,9.43,9.43,0,0,1-3.88,2.93A13.49,13.49,0,0,0,51.57,68a9.81,9.81,0,0,0-2.93,6.6,10.14,10.14,0,0,0,1.08,4.86c.52,1.08,1,1.58.91,1.61s-.14-.1-.34-.35a9.08,9.08,0,0,1-.77-1.17,9.94,9.94,0,0,1,1.73-11.9A14.06,14.06,0,0,1,55,65.13a9.23,9.23,0,0,0,3.67-2.75c.87-1.19.48-2.76.26-4.14a11.91,11.91,0,0,1-.25-2.15A6.33,6.33,0,0,1,59.18,54a8,8,0,0,1,5.45-4.72l-.15.25a7.29,7.29,0,0,1,.79-5.66,3.34,3.34,0,0,1,1.23-1A1.69,1.69,0,0,1,67,42.72Z"/><path id="Path_129432" data-name="Path 129432" class="cls-5" d="M53.89,81.1a5.66,5.66,0,0,1,2.24-1.46H56a2.36,2.36,0,0,1,.45-.08,2.19,2.19,0,0,1,1.75.21h0a4.15,4.15,0,0,1,2.27,2,4.86,4.86,0,0,1-.59,5.05A3.73,3.73,0,0,1,53,85.51,4.64,4.64,0,0,1,53.89,81.1Z"/><path id="Path_129460" data-name="Path 129460" class="cls-7" d="M52.88,196.69s-6.56,7-9.78,13.77-5.28,22.78-5.28,22.78-9.06,20.2-7.68,30.49,10.62,80.9,10.62,80.9-.46,68.62,6.08,80.86l1.46,6.59,26.38-4.68h0L80.5,288.91l16.1-91.58Z"/><path id="Path_129461" data-name="Path 129461" class="cls-7" d="M64.74,224.28a3.59,3.59,0,0,1-.17-1.08c-.08-.69-.12-1.7-.14-2.94a85.37,85.37,0,0,1,.58-9.72c.43-3.67.81-7,1.08-9.63a31.56,31.56,0,0,1,.52-4,21.71,21.71,0,0,1-.07,4c-.16,2.48-.52,5.9-.91,9.71s-.69,7.18-.77,9.64A37.71,37.71,0,0,1,64.74,224.28Z"/><path id="Path_129462" data-name="Path 129462" class="cls-7" d="M69.65,208.05c-.18,0-.92-2.37-1.34-5.46a17.6,17.6,0,0,1-.13-5.61c.18,0,.36,2.48.77,5.51A45.42,45.42,0,0,1,69.65,208.05Z"/><path id="Path_129463" data-name="Path 129463" class="cls-7" d="M86.57,202.62a3.12,3.12,0,0,0-1-1.52,2,2,0,0,0-1.8-.18,1.87,1.87,0,0,0,0,3.5,2,2,0,0,0,1.8-.24,3,3,0,0,0,1-1.55,1,1,0,0,1,.07.55,2.19,2.19,0,0,1-.75,1.37,2.36,2.36,0,0,1-2.29.46,2.44,2.44,0,0,1-1.52-3.1,2.47,2.47,0,0,1,1.44-1.49,2.36,2.36,0,0,1,2.29.37,2.14,2.14,0,0,1,.79,1.33C86.66,202.43,86.61,202.62,86.57,202.62Z"/><path id="Path_129464" data-name="Path 129464" class="cls-7" d="M113.89,215.25s13,88.32,14.37,103.39-53.32,95.5-53.32,95.5l-23.1-27.29,35.24-65.5L75.21,256.12l15.92-58.35,20.73-.32Z"/><path id="Path_129466" data-name="Path 129466" class="cls-8" d="M48.85,109.61s-15.32,4.46-21.58,10.73C24.1,123.52,8.59,170,11.21,175.76c1.84,4,27.42,7.12,27.42,7.12l9,8.46,62.88-5.51,6.56-17.6,10.1-5.91s-6.69-39.54-15.68-47.78c-5.89-5.39-16-6.08-16-6.08l-7.31,33Z"/><path id="Path_129467" data-name="Path 129467" class="cls-7" d="M116,171.8c-.15,0,.59-2.37,1-6.26a40.06,40.06,0,0,0,.11-6.84,40.76,40.76,0,0,0-8.05-21.77c-2.35-3.12-4.19-4.74-4.08-4.85a6.91,6.91,0,0,1,1.33,1.08,16,16,0,0,1,1.44,1.41c.62.65,1.2,1.32,1.75,2a37.45,37.45,0,0,1,3.84,5.81,39.3,39.3,0,0,1,4.54,16.31,36.7,36.7,0,0,1-.28,6.95,23.33,23.33,0,0,1-.46,2.63,14.68,14.68,0,0,1-.5,2,6.77,6.77,0,0,1-.62,1.56Z"/><path id="Path_129468" data-name="Path 129468" class="cls-8" d="M47.68,191.34S35.53,205.59,30,216.12c-12.63,23.93-8.12,120.25-8.12,120.25l112.87-1.64L122.42,235a215.05,215.05,0,0,0-8.63-39.33l-4-12.31Z"/><path id="Path_129469" data-name="Path 129469" class="cls-7" d="M44.85,155.08a12.26,12.26,0,0,1,.37,3.35,74.36,74.36,0,0,1-1.16,16.25,13.19,13.19,0,0,1-.83,3.21c-.24,0,.64-5.11,1.08-11.41S44.62,155.08,44.85,155.08Z"/><path id="Path_129470" data-name="Path 129470" class="cls-7" d="M93.18,309.06a4.35,4.35,0,0,1-.07-.88c0-.67,0-1.5,0-2.54,0-2.16-.07-5.4-.18-9.32-.21-7.87-.8-18.74-2.15-30.67S87.49,243,86,235.26c-.76-3.86-1.43-7-1.9-9.13-.21-1-.38-1.84-.52-2.48a4.45,4.45,0,0,1-.13-.89,3.63,3.63,0,0,1,.29.84c.18.65.39,1.46.66,2.45.57,2.16,1.3,5.25,2.16,9.1,1.69,7.7,3.63,18.44,5,30.4a304.09,304.09,0,0,1,1.9,30.75c0,3.94,0,7.14-.06,9.34,0,1.08-.07,1.88-.1,2.53A3.32,3.32,0,0,1,93.18,309.06Z"/><path id="Path_129471" data-name="Path 129471" class="cls-9" d="M70.85,128.46a8.93,8.93,0,0,0-3.7.43A13.73,13.73,0,0,0,63.3,131c-1.37,1.08-2.75,2.42-4.37,3.9a17.29,17.29,0,0,1-6,3.9A17,17,0,0,1,36.47,136a11.2,11.2,0,0,1-4.43-8.5A5.77,5.77,0,0,1,34.2,123,6.11,6.11,0,0,1,38.94,122a6.85,6.85,0,0,1,4.13,2.15,7.24,7.24,0,0,1,1.63,4.21,9.27,9.27,0,0,1-3.13,7.49A12.31,12.31,0,0,1,35,138.65a16.45,16.45,0,0,1-5.89-.35,25,25,0,0,1-4.23-1.4c-1.08-.49-2-.92-2.53-1.22l-.64-.36a.77.77,0,0,1-.21-.14l.92.4c.6.27,1.43.66,2.57,1.08A27.76,27.76,0,0,0,29.21,138a16.51,16.51,0,0,0,5.78.25,12,12,0,0,0,6.3-2.75,8.74,8.74,0,0,0,3-7.08,6.68,6.68,0,0,0-1.52-3.89,6.28,6.28,0,0,0-3.83-2,5.57,5.57,0,0,0-4.31,1,5.18,5.18,0,0,0-1.92,4.09,9.34,9.34,0,0,0,1.21,4.59,11.87,11.87,0,0,0,3,3.55,16.21,16.21,0,0,0,8,3.44,16.44,16.44,0,0,0,7.93-.78,17.08,17.08,0,0,0,5.88-3.77,58.46,58.46,0,0,1,4.46-3.86,14.07,14.07,0,0,1,4-2.05,7.8,7.8,0,0,1,2.8-.37A4.11,4.11,0,0,1,70.85,128.46Z"/><path id="Path_129472" data-name="Path 129472" class="cls-9" d="M85,242h-.35l-1-.33a26.37,26.37,0,0,0-3.83-.92,27,27,0,0,0-6.22-.19,26.08,26.08,0,0,0-7.95,2,25.48,25.48,0,0,0-4.2,2.29,24.72,24.72,0,0,0-3.91,3.38,19.18,19.18,0,0,0-5.09,10,12.82,12.82,0,0,0,3.81,11.38,9.31,9.31,0,0,0,12.19.32,7.69,7.69,0,0,0,2.58-6,13.42,13.42,0,0,0-1.8-6.3,21.61,21.61,0,0,0-3.91-5.07A30.65,30.65,0,0,0,50,244.46a29.05,29.05,0,0,0-9.93-.25,31.06,31.06,0,0,0-13.31,5.34A31.82,31.82,0,0,0,23.65,252l-.75.71-.26.22a2.75,2.75,0,0,1,.22-.26l.71-.78a25.39,25.39,0,0,1,3-2.56A30.57,30.57,0,0,1,40,243.78a29.54,29.54,0,0,1,10.1.2,30.84,30.84,0,0,1,15.64,8.26,21.76,21.76,0,0,1,4,5.19A13.89,13.89,0,0,1,71.62,264a8.26,8.26,0,0,1-2.75,6.39,9.83,9.83,0,0,1-13-.34,13.25,13.25,0,0,1-4-11.87,19.55,19.55,0,0,1,5.25-10.25,25.17,25.17,0,0,1,4-3.43,26.26,26.26,0,0,1,4.32-2.29A25.69,25.69,0,0,1,79.9,240.5a23.3,23.3,0,0,1,3.84,1.08l1,.39Z"/><path id="Path_129475" data-name="Path 129475" class="cls-9" d="M113,199.71a7.06,7.06,0,0,1-1.34-.61l-3.54-1.84c-3-1.55-7.16-3.62-11.87-5.73s-9-3.86-12.12-5.08L80.37,185a6.62,6.62,0,0,1-1.33-.6,8.67,8.67,0,0,1,1.41.39c.92.27,2.16.71,3.79,1.27,3.17,1.14,7.55,2.84,12.22,5s8.83,4.25,11.78,5.88c1.48.82,2.67,1.5,3.46,2a8,8,0,0,1,1.27.81Z"/><path id="Path_129476" data-name="Path 129476" class="cls-9" d="M108,118.11a13.69,13.69,0,0,1-2.15,2c-1.43,1.18-3.45,2.73-5.75,4.32s-4.47,3-6.06,3.93a13.65,13.65,0,0,1-2.66,1.37A20.1,20.1,0,0,1,93.85,128c1.52-1,3.64-2.43,6-4s4.32-3.12,5.83-4.22a17.29,17.29,0,0,1,2.38-1.63Z"/><path id="Path_129477" data-name="Path 129477" class="cls-7" d="M120.16,76.1a62.22,62.22,0,1,1,93.35,73h0a62.22,62.22,0,0,1-93.35-73Z"/><g id="Group_55816" data-name="Group 55816" class="cls-10"><path id="Path_129478" data-name="Path 129478" class="cls-4" d="M120.16,76.1a62.22,62.22,0,1,1,93.35,73h0a62.22,62.22,0,0,1-93.35-73Z"/></g><path id="Path_129479" data-name="Path 129479" class="cls-9" d="M127.36,77.63a54.67,54.67,0,1,1,82,64.13h0a54.67,54.67,0,0,1-82-64.13Z"/><path id="Path_129480" data-name="Path 129480" class="cls-7" d="M11.12,220.73l-.92-1.16a5.68,5.68,0,0,1,1.08-7.95l113.31-85.36a1.27,1.27,0,0,1,1.78.25l6.19,8.21a1.25,1.25,0,0,1-.25,1.76h0L19.08,221.85a5.67,5.67,0,0,1-7.94-1.11h0Z"/><path id="Path_129481" data-name="Path 129481" class="cls-3" d="M66.11,171.51a13.6,13.6,0,0,1,2.35-5.4c2-2.78,7.08-5.78,7.29-8s2.69-1.13,2.83,1.58c.07,1.73-2.3,6.88-2.3,6.88s4.24,0,6.53-2.16,11-7.15,12.26-6.08c1.48,1.2-.84,2.29-1.75,3.11-.69.65-6.14,5.2-6.14,5.2s12.22-3.37,13.91-3.16.46,2.16-.3,2.35c-.48.14,1.45,1.08.28,2.82-.79,1.19-5.56,3.51-7,3.85l-2.84.74,8.91-1.18s1.83,1-.09,2.24c-.85.55-26.28,10.64-28.32,11.26-3.47,1.08-8.52,2.38-8.52,2.38l-3.58-14.66Z"/><path id="Path_129482" data-name="Path 129482" class="cls-3" d="M14.51,178s-4.13,15.1-2.25,21.27c2.39,7.8,6.86,12.08,14.6,11.36s46.78-26.19,46.78-26.19l-6.93-13.62-28,7.19Z"/><path id="Path_129483" data-name="Path 129483" class="cls-3" d="M115.66,129.92a4.32,4.32,0,0,0-2.26,3.68,3.12,3.12,0,0,0,.53,2.09,1.73,1.73,0,0,0,1.94.66,2.81,2.81,0,0,0,1.16-1.18c1-1.44.7-2.35,1.65-3.8l.81-.71C118.88,129.31,117,129.28,115.66,129.92Z"/><path id="Path_129484" data-name="Path 129484" class="cls-3" d="M127.19,153s13.54,32.55,12.74,37.4-4.27,12.58-11.64,12.86-17.74-17.38-17.74-17.38l1.93-28.92Z"/><path id="Path_129485" data-name="Path 129485" class="cls-3" d="M132.59,128.52a4.51,4.51,0,0,0-.52-2,1.48,1.48,0,0,0-1.75-.65,2.09,2.09,0,0,0-.92,1.69,25,25,0,0,0-.12,7c-.65-1-.33-2.33-.37-3.54s-1-2.66-2.16-2.26c-.79.27-1.08,1.26-1.14,2.1a18.56,18.56,0,0,0,.52,6.47,9,9,0,0,1-.86-3.49c-.21-1.18-1-2.5-2.15-2.53-1.45,0-2.16,1.73-2.3,3.18-.25,4,1.38,8.41-.92,11.68a12.48,12.48,0,0,1-3.7,3.08,8.85,8.85,0,0,0-3.41,3.35c-.69,1.46-.31,8.53-.31,10.79l16.85-4.31s-2.67-7.34-2.16-8.34a45.31,45.31,0,0,1,2.71-4.14,16.9,16.9,0,0,0,3.05-8.76A50.71,50.71,0,0,0,132.59,128.52Z"/></g></g></g></svg>